<svg id="about_title_right_pc" xmlns="http://www.w3.org/2000/svg" xmlns:xlink="http://www.w3.org/1999/xlink" width="511.526" height="42.151" viewBox="0 0 511.526 42.151">
  <defs>
    <linearGradient id="linear-gradient" x1="0.479" y1="0.948" x2="0.996" y2="0.933" gradientUnits="objectBoundingBox">
      <stop offset="0" stop-color="#65b6eb"/>
      <stop offset="1" stop-color="#006bb4"/>
    </linearGradient>
    <linearGradient id="linear-gradient-2" y1="1" x2="1.054" y2="1.036" gradientUnits="objectBoundingBox">
      <stop offset="0" stop-color="#dd9611"/>
      <stop offset="1" stop-color="#c73b19"/>
    </linearGradient>
    <clipPath id="clip-path">
      <path id="Path_116" data-name="Path 116" d="M21.075,0a21.075,21.075,0,0,0,0,42.151H490.451a21.075,21.075,0,0,0,0-42.151Z" fill="url(#linear-gradient)"/>
    </clipPath>
    <clipPath id="clip-path-2">
      <path id="Path_117" data-name="Path 117" d="M21.075,0a21.075,21.075,0,0,0,0,42.151H262.6L248.684,0Z" fill="url(#linear-gradient-2)"/>
    </clipPath>
    <clipPath id="clip-path-3">
      <rect id="Rectangle_72" data-name="Rectangle 72" width="511.526" height="42.151" fill="none"/>
    </clipPath>
  </defs>
  <g id="Group_109" data-name="Group 109">
    <g id="Group_108" data-name="Group 108" clip-path="url(#clip-path)">
      <rect id="Rectangle_70" data-name="Rectangle 70" width="511.526" height="42.151" transform="translate(0 0)" fill="url(#linear-gradient)"/>
    </g>
  </g>
  <g id="Group_111" data-name="Group 111">
    <g id="Group_110" data-name="Group 110" clip-path="url(#clip-path-2)">
      <rect id="Rectangle_71" data-name="Rectangle 71" width="262.604" height="42.151" transform="translate(0 0)" fill="url(#linear-gradient-2)"/>
    </g>
  </g>
  <g id="Group_113" data-name="Group 113" transform="translate(0 0)">
    <g id="Group_112" data-name="Group 112" clip-path="url(#clip-path-3)">
      <path id="Path_118" data-name="Path 118" d="M14.33,15.985a30.449,30.449,0,0,1,.178-4.157,5.031,5.031,0,0,1,.577-1.7,6.089,6.089,0,0,1,2.008-2.188,5.807,5.807,0,0,1,3.391-1,5.9,5.9,0,0,1,5.385,3.2,4.146,4.146,0,0,1,.6,1.7,35.063,35.063,0,0,1,.153,4.148,35.169,35.169,0,0,1-.153,4.125,4.182,4.182,0,0,1-.6,1.719A5.714,5.714,0,0,1,23.909,24a6,6,0,0,1-3.425,1.025,6.192,6.192,0,0,1-5.4-3.2c-.127-.268-.241-.525-.341-.767a5.092,5.092,0,0,1-.236-.951,30.418,30.418,0,0,1-.178-4.125m2.609,0a21.258,21.258,0,0,0,.189,3.559,3.029,3.029,0,0,0,.673,1.5,3.093,3.093,0,0,0,1.089.892,3,3,0,0,0,1.587.4,3.147,3.147,0,0,0,1.624-.4,2.908,2.908,0,0,0,1.041-.892,3.182,3.182,0,0,0,.7-1.5,23.1,23.1,0,0,0,.175-3.559,23.6,23.6,0,0,0-.175-3.582,3.162,3.162,0,0,0-.7-1.48,3.137,3.137,0,0,0-1.041-.917,3.725,3.725,0,0,0-1.624-.378,3.54,3.54,0,0,0-1.587.378,3.339,3.339,0,0,0-1.089.917,3,3,0,0,0-.673,1.48,21.713,21.713,0,0,0-.189,3.582" transform="translate(11.247 5.45)" fill="#fff"/>
      <path id="Path_119" data-name="Path 119" d="M24.179,9.968h2.463V11.31h.046a3.9,3.9,0,0,1,3.188-1.5,4.137,4.137,0,0,1,2.788,1.11,4.373,4.373,0,0,1,1.31,3.295v8.419H31.511v-7.55a2.778,2.778,0,0,0-.685-2.029,2.291,2.291,0,0,0-1.737-.707,2.329,2.329,0,0,0-1.749.707,2.745,2.745,0,0,0-.7,2.029v7.55H24.179Z" transform="translate(18.977 7.698)" fill="#fff"/>
      <path id="Path_120" data-name="Path 120" d="M32.674,7.026h2.463V21.558c0,.578.307.866.923.866h.853v2.392h-1.1a3.473,3.473,0,0,1-2.22-.693,2.8,2.8,0,0,1-.921-2.37Z" transform="translate(25.644 5.514)" fill="#fff"/>
      <path id="Path_121" data-name="Path 121" d="M37.463,7.026h2.463V9.562H37.463Zm0,5.124h2.463V24.816H37.463Z" transform="translate(29.403 5.514)" fill="#fff"/>
      <path id="Path_122" data-name="Path 122" d="M41.833,9.968H44.3V11.31h.045a3.91,3.91,0,0,1,3.19-1.5,4.137,4.137,0,0,1,2.788,1.11,4.365,4.365,0,0,1,1.308,3.295v8.419H49.163v-7.55a2.771,2.771,0,0,0-.685-2.029,2.288,2.288,0,0,0-1.737-.707,2.328,2.328,0,0,0-1.747.707,2.738,2.738,0,0,0-.7,2.029v7.55H41.833Z" transform="translate(32.832 7.698)" fill="#fff"/>
      <path id="Path_123" data-name="Path 123" d="M52.48,17.263a3.014,3.014,0,0,0,.851,2.32,2.793,2.793,0,0,0,2.081.8A3.63,3.63,0,0,0,58.1,19.154l1.785,1.574a5.7,5.7,0,0,1-4.417,2.049,6.213,6.213,0,0,1-1.89-.293,4.479,4.479,0,0,1-.9-.427,4.373,4.373,0,0,1-.864-.573,5.059,5.059,0,0,1-1.264-1.978,8,8,0,0,1-.532-3.172,9.091,9.091,0,0,1,.461-3.123,5.464,5.464,0,0,1,1.182-2A4.39,4.39,0,0,1,53.3,10.137a5.116,5.116,0,0,1,1.772-.328,5.014,5.014,0,0,1,3.555,1.426,5.288,5.288,0,0,1,1.5,3.93v2.1Zm5.187-2.1a3.3,3.3,0,0,0-.769-2.244,2.663,2.663,0,0,0-3.648,0,3.461,3.461,0,0,0-.769,2.244Z" transform="translate(39.256 7.698)" fill="#fff"/>
      <path id="Path_124" data-name="Path 124" d="M63.078,7.026H74.085V9.563h-8.4v5.09h7.17v2.39h-7.17v5.235h8.4v2.538H63.078Z" transform="translate(49.507 5.514)" fill="#fff"/>
      <path id="Path_125" data-name="Path 125" d="M71.65,9.9H74.6l2.433,4.094L79.48,9.9h2.952l-4.148,6.2L82.6,22.563H79.657l-2.622-4.218-2.609,4.218H71.471L75.666,16.1Z" transform="translate(56.094 7.768)" fill="#fff"/>
      <path id="Path_126" data-name="Path 126" d="M80.1,7.026h2.463v6.466h.046a3.909,3.909,0,0,1,3.188-1.5,4.137,4.137,0,0,1,2.788,1.11A4.381,4.381,0,0,1,89.9,16.4v8.419H87.433v-7.55a2.771,2.771,0,0,0-.685-2.028,2.286,2.286,0,0,0-1.737-.709,2.324,2.324,0,0,0-1.749.709,2.738,2.738,0,0,0-.7,2.028v7.55H80.1Z" transform="translate(62.867 5.514)" fill="#fff"/>
      <path id="Path_127" data-name="Path 127" d="M88.647,7.026H91.11V9.562H88.647Zm0,5.124H91.11V24.816H88.647Z" transform="translate(69.574 5.514)" fill="#fff"/>
      <path id="Path_128" data-name="Path 128" d="M93.018,7.026h2.463v6.466a6.226,6.226,0,0,1,1.476-1.1,3.487,3.487,0,0,1,1.688-.4,3.774,3.774,0,0,1,3.295,1.658,3.369,3.369,0,0,1,.694,1.574,20.187,20.187,0,0,1,.178,3.245,20.122,20.122,0,0,1-.178,3.222,3.414,3.414,0,0,1-.7,1.622,3.721,3.721,0,0,1-1.333,1.173,4.2,4.2,0,0,1-1.962.475,4.13,4.13,0,0,1-3.163-1.469v1.323H93.018Zm4.885,7.5a2.163,2.163,0,0,0-1.312.355,2.068,2.068,0,0,0-.744.93,4.759,4.759,0,0,0-.3,1.249,13.9,13.9,0,0,0,0,2.779,4.812,4.812,0,0,0,.3,1.285,2.068,2.068,0,0,0,.744.93,2.117,2.117,0,0,0,1.312.368,2.434,2.434,0,0,0,1.381-.343,1.923,1.923,0,0,0,.723-.907,4.751,4.751,0,0,0,.318-1.3c.016-.457.025-.925.025-1.408q0-.758-.025-1.481a4.705,4.705,0,0,0-.318-1.248,1.789,1.789,0,0,0-.723-.907,2.669,2.669,0,0,0-1.381-.305" transform="translate(73.005 5.514)" fill="#fff"/>
      <path id="Path_129" data-name="Path 129" d="M101.37,7.026h2.463V9.562H101.37Zm0,5.124h2.463V24.816H101.37Z" transform="translate(79.56 5.514)" fill="#fff"/>
      <path id="Path_130" data-name="Path 130" d="M106.44,7.737H108.9v3.855h1.8v1.951h-1.8v7.384q-.024.964.875.941h.923v2.39h-1.287a2.87,2.87,0,0,1-2.122-.828,2.978,2.978,0,0,1-.851-2.292V13.543H105.2V11.592h1.235Z" transform="translate(82.57 6.072)" fill="#fff"/>
      <path id="Path_131" data-name="Path 131" d="M110.9,7.026h2.463V9.562H110.9Zm0,5.124h2.463V24.816H110.9Z" transform="translate(87.04 5.514)" fill="#fff"/>
      <path id="Path_132" data-name="Path 132" d="M115,16.287a11.356,11.356,0,0,1,.319-3.079,4.479,4.479,0,0,1,1.016-1.772,4.64,4.64,0,0,1,1.419-1.13,5.13,5.13,0,0,1,2.3-.5,5.22,5.22,0,0,1,2.351.5,4.488,4.488,0,0,1,1.373,1.133,4.054,4.054,0,0,1,1.037,1.771,12.367,12.367,0,0,1,.294,3.074,11.965,11.965,0,0,1-.3,3.05,4.372,4.372,0,0,1-1.039,1.819,3.9,3.9,0,0,1-.578.548,2.7,2.7,0,0,1-.794.525,4.782,4.782,0,0,1-2.349.55,5.049,5.049,0,0,1-3.721-1.622,4.9,4.9,0,0,1-1.016-1.819,11.035,11.035,0,0,1-.319-3.05m7.65.025a11.846,11.846,0,0,0-.118-1.983,2.355,2.355,0,0,0-.487-1.053,1.811,1.811,0,0,0-.8-.673,2.591,2.591,0,0,0-1.183-.257,2.65,2.65,0,0,0-1.162.257,2.2,2.2,0,0,0-.828.673,2.986,2.986,0,0,0-.462,1.053,9.719,9.719,0,0,0-.141,1.958,9.455,9.455,0,0,0,.141,1.935,3.233,3.233,0,0,0,.462,1.1,2.983,2.983,0,0,0,.828.65,2.563,2.563,0,0,0,1.162.27,2.505,2.505,0,0,0,1.183-.27,2.309,2.309,0,0,0,.8-.65,2.539,2.539,0,0,0,.487-1.1,11.12,11.12,0,0,0,.118-1.91" transform="translate(90.253 7.697)" fill="#fff"/>
      <path id="Path_133" data-name="Path 133" d="M123.4,9.968h2.463V11.31h.046a3.9,3.9,0,0,1,3.188-1.5,4.134,4.134,0,0,1,2.788,1.11,4.367,4.367,0,0,1,1.31,3.295v8.419h-2.463v-7.55a2.785,2.785,0,0,0-.684-2.029,2.3,2.3,0,0,0-1.738-.707,2.329,2.329,0,0,0-1.749.707,2.745,2.745,0,0,0-.7,2.029v7.55H123.4Z" transform="translate(96.852 7.698)" fill="#fff"/>
      <path id="Path_134" data-name="Path 134" d="M150.865,23.086a11.031,11.031,0,0,1-2.26,1.367,6.433,6.433,0,0,1-2.585.573,5.24,5.24,0,0,1-3.95-1.647,5.4,5.4,0,0,1-1.535-3.82,5.791,5.791,0,0,1,3.393-5.2,6.412,6.412,0,0,1-1.024-1.622,3.8,3.8,0,0,1-.439-1.756,4.07,4.07,0,0,1,1.064-2.843,3.9,3.9,0,0,1,5.617,0,4.222,4.222,0,0,1,1.066,2.843q.048,2.476-2.883,3.977l3.677,4.576a9.791,9.791,0,0,0,1.5-2.977l2.21.9a12.582,12.582,0,0,1-.946,2,10.417,10.417,0,0,1-1.312,1.842l2.909,3.575h-2.908Zm-5.628-7.029q-2.554,1.526-2.529,3.479a3.088,3.088,0,0,0,.98,2.294,3.02,3.02,0,0,0,2.245.953,5.265,5.265,0,0,0,3.5-1.574Zm-.6-5.172a2,2,0,0,0,.391,1.124,4.977,4.977,0,0,0,.891,1.16,4.673,4.673,0,0,0,1.685-1.051,1.958,1.958,0,0,0,.439-1.233,1.733,1.733,0,0,0-.464-1.221,1.7,1.7,0,0,0-1.246-.477,1.584,1.584,0,0,0-1.187.477,1.648,1.648,0,0,0-.509,1.221" transform="translate(110.299 5.45)" fill="#fff"/>
      <path id="Path_135" data-name="Path 135" d="M156.341,16.066a30.452,30.452,0,0,1,.178-4.157,4.992,4.992,0,0,1,.578-1.7,6.058,6.058,0,0,1,2.008-2.188,5.8,5.8,0,0,1,3.389-1,5.914,5.914,0,0,1,5.388,3.2,4.173,4.173,0,0,1,.6,1.7,35.478,35.478,0,0,1,.154,4.148,35.59,35.59,0,0,1-.154,4.125,4.183,4.183,0,0,1-.6,1.719,5.719,5.719,0,0,1-1.962,2.172,6,6,0,0,1-3.425,1.024,6.192,6.192,0,0,1-5.4-3.2c-.125-.268-.241-.525-.341-.767a4.944,4.944,0,0,1-.237-.951,30.422,30.422,0,0,1-.178-4.125m2.609,0a21.458,21.458,0,0,0,.189,3.559,3.015,3.015,0,0,0,.675,1.5,3.084,3.084,0,0,0,1.091.892,2.985,2.985,0,0,0,1.585.4,3.145,3.145,0,0,0,1.622-.4,2.929,2.929,0,0,0,1.042-.892,3.181,3.181,0,0,0,.7-1.5,23.03,23.03,0,0,0,.177-3.559,23.526,23.526,0,0,0-.177-3.582,3.16,3.16,0,0,0-.7-1.48,3.162,3.162,0,0,0-1.042-.917,3.723,3.723,0,0,0-1.622-.378,3.526,3.526,0,0,0-1.585.378,3.327,3.327,0,0,0-1.091.917,2.991,2.991,0,0,0-.675,1.48,21.919,21.919,0,0,0-.189,3.582" transform="translate(122.704 5.514)" fill="#fff"/>
      <path id="Path_136" data-name="Path 136" d="M167.018,14.183h-1.244V12.232h1.244V10.56a3.366,3.366,0,0,1,.969-2.659,3.567,3.567,0,0,1,2.374-.792h1.594V9.5h-1.408c-.742-.025-1.1.327-1.066,1.055v1.68h2.474v1.951h-2.474V24.9h-2.463Z" transform="translate(130.107 5.578)" fill="#fff"/>
      <path id="Path_137" data-name="Path 137" d="M172.473,14.183h-1.242V12.232h1.242V10.56a3.373,3.373,0,0,1,.969-2.659,3.567,3.567,0,0,1,2.374-.792h1.6V9.5H176q-1.116-.037-1.067,1.055v1.68h2.476v1.951h-2.476V24.9h-2.463Z" transform="translate(134.39 5.578)" fill="#fff"/>
      <path id="Path_138" data-name="Path 138" d="M176.918,7.108h2.463V21.64c0,.578.307.866.923.866h.853V24.9h-1.1a3.473,3.473,0,0,1-2.22-.693,2.8,2.8,0,0,1-.921-2.37Z" transform="translate(138.853 5.578)" fill="#fff"/>
      <path id="Path_139" data-name="Path 139" d="M181.706,7.108h2.463V9.644h-2.463Zm0,5.124h2.463V24.9h-2.463Z" transform="translate(142.611 5.578)" fill="#fff"/>
      <path id="Path_140" data-name="Path 140" d="M186.076,10.049h2.463v1.342h.046a3.9,3.9,0,0,1,3.188-1.5A4.14,4.14,0,0,1,194.561,11a4.373,4.373,0,0,1,1.31,3.295v8.419h-2.463v-7.55a2.778,2.778,0,0,0-.685-2.029,2.293,2.293,0,0,0-1.737-.707,2.329,2.329,0,0,0-1.749.707,2.745,2.745,0,0,0-.7,2.029v7.55h-2.463Z" transform="translate(146.041 7.762)" fill="#fff"/>
      <path id="Path_141" data-name="Path 141" d="M196.724,17.345a3.02,3.02,0,0,0,.85,2.32,2.8,2.8,0,0,0,2.081.8,3.625,3.625,0,0,0,2.684-1.233l1.787,1.574a5.7,5.7,0,0,1-4.417,2.049,6.225,6.225,0,0,1-1.892-.293,4.525,4.525,0,0,1-.9-.427,4.415,4.415,0,0,1-.862-.573,5.039,5.039,0,0,1-1.264-1.978,8,8,0,0,1-.532-3.172,9.091,9.091,0,0,1,.46-3.123,5.439,5.439,0,0,1,1.182-2,4.376,4.376,0,0,1,1.642-1.074,5.116,5.116,0,0,1,1.772-.328,5.014,5.014,0,0,1,3.555,1.426,5.288,5.288,0,0,1,1.5,3.93v2.1Zm5.187-2.1A3.3,3.3,0,0,0,201.14,13a2.663,2.663,0,0,0-3.648,0,3.471,3.471,0,0,0-.767,2.244Z" transform="translate(152.465 7.763)" fill="#fff"/>
      <path id="Path_142" data-name="Path 142" d="M207.321,7.108H218.33V9.644h-8.4v5.09h7.17v2.39h-7.17V22.36h8.4V24.9H207.321Z" transform="translate(162.715 5.578)" fill="#fff"/>
      <path id="Path_143" data-name="Path 143" d="M215.894,9.979h2.95l2.435,4.094,2.445-4.094h2.952l-4.148,6.2,4.314,6.466H223.9l-2.62-4.218-2.609,4.218h-2.954l4.193-6.466Z" transform="translate(169.303 7.832)" fill="#fff"/>
      <path id="Path_144" data-name="Path 144" d="M224.345,7.108h2.463v6.466h.046a3.909,3.909,0,0,1,3.188-1.5,4.134,4.134,0,0,1,2.788,1.11,4.366,4.366,0,0,1,1.31,3.295V24.9h-2.463v-7.55a2.778,2.778,0,0,0-.684-2.028,2.292,2.292,0,0,0-1.738-.709,2.324,2.324,0,0,0-1.749.709,2.738,2.738,0,0,0-.7,2.028V24.9h-2.463Z" transform="translate(176.076 5.578)" fill="#fff"/>
      <path id="Path_145" data-name="Path 145" d="M232.892,7.108h2.463V9.644h-2.463Zm0,5.124h2.463V24.9h-2.463Z" transform="translate(182.784 5.578)" fill="#fff"/>
      <path id="Path_146" data-name="Path 146" d="M237.261,7.108h2.463v6.466a6.3,6.3,0,0,1,1.476-1.1,3.5,3.5,0,0,1,1.688-.4,3.779,3.779,0,0,1,3.3,1.658,3.369,3.369,0,0,1,.694,1.574,20.457,20.457,0,0,1,.177,3.245,20.12,20.12,0,0,1-.178,3.222,3.413,3.413,0,0,1-.694,1.622,3.726,3.726,0,0,1-1.335,1.173,4.182,4.182,0,0,1-1.96.475,4.133,4.133,0,0,1-3.165-1.469V24.9h-2.463Zm4.885,7.5a2.161,2.161,0,0,0-1.31.355,2.072,2.072,0,0,0-.746.93,4.758,4.758,0,0,0-.294,1.249,13.171,13.171,0,0,0-.071,1.406,13.323,13.323,0,0,0,.071,1.373,4.811,4.811,0,0,0,.294,1.285,2.072,2.072,0,0,0,.746.93,2.115,2.115,0,0,0,1.31.368,2.44,2.44,0,0,0,1.383-.343,1.944,1.944,0,0,0,.723-.907,4.886,4.886,0,0,0,.318-1.3c.016-.457.023-.925.023-1.408q0-.758-.023-1.481a4.848,4.848,0,0,0-.318-1.248,1.807,1.807,0,0,0-.723-.907,2.676,2.676,0,0,0-1.383-.305" transform="translate(186.213 5.578)" fill="#fff"/>
      <path id="Path_147" data-name="Path 147" d="M245.614,7.108h2.463V9.644h-2.463Zm0,5.124h2.463V24.9h-2.463Z" transform="translate(192.769 5.578)" fill="#fff"/>
      <path id="Path_148" data-name="Path 148" d="M250.685,7.819h2.463v3.855h1.8v1.951h-1.8v7.384c-.018.643.275.957.873.941h.923v2.39h-1.285a2.871,2.871,0,0,1-2.124-.828,2.977,2.977,0,0,1-.85-2.292V13.625H249.45V11.674h1.235Z" transform="translate(195.78 6.136)" fill="#fff"/>
      <path id="Path_149" data-name="Path 149" d="M255.145,7.108h2.463V9.644h-2.463Zm0,5.124h2.463V24.9h-2.463Z" transform="translate(200.249 5.578)" fill="#fff"/>
      <path id="Path_150" data-name="Path 150" d="M259.238,16.369a11.273,11.273,0,0,1,.321-3.079,4.436,4.436,0,0,1,1.016-1.772,4.631,4.631,0,0,1,1.417-1.13,5.141,5.141,0,0,1,2.3-.5,5.234,5.234,0,0,1,2.352.5,4.457,4.457,0,0,1,1.371,1.133,4.02,4.02,0,0,1,1.037,1.771,12.284,12.284,0,0,1,.294,3.074,11.982,11.982,0,0,1-.294,3.05,4.4,4.4,0,0,1-1.041,1.819,3.812,3.812,0,0,1-.578.548,2.686,2.686,0,0,1-.792.525,4.784,4.784,0,0,1-2.351.55,5.058,5.058,0,0,1-3.721-1.622,4.922,4.922,0,0,1-1.016-1.819,11.035,11.035,0,0,1-.32-3.05m7.65.025a11.662,11.662,0,0,0-.118-1.983,2.372,2.372,0,0,0-.486-1.053,1.811,1.811,0,0,0-.8-.673,2.6,2.6,0,0,0-1.185-.257,2.65,2.65,0,0,0-1.162.257,2.189,2.189,0,0,0-.826.673,2.953,2.953,0,0,0-.462,1.053,9.559,9.559,0,0,0-.143,1.958,9.3,9.3,0,0,0,.143,1.935,3.2,3.2,0,0,0,.462,1.1,2.972,2.972,0,0,0,.826.65,2.563,2.563,0,0,0,1.162.27,2.512,2.512,0,0,0,1.185-.27,2.308,2.308,0,0,0,.8-.65,2.557,2.557,0,0,0,.486-1.1,10.945,10.945,0,0,0,.118-1.91" transform="translate(203.462 7.762)" fill="#fff"/>
      <path id="Path_151" data-name="Path 151" d="M267.647,10.049h2.463v1.342h.046a3.9,3.9,0,0,1,3.188-1.5A4.14,4.14,0,0,1,276.132,11a4.373,4.373,0,0,1,1.31,3.295v8.419h-2.463v-7.55a2.778,2.778,0,0,0-.685-2.029,2.293,2.293,0,0,0-1.737-.707,2.329,2.329,0,0,0-1.749.707,2.746,2.746,0,0,0-.7,2.029v7.55h-2.463Z" transform="translate(210.062 7.762)" fill="#fff"/>
    </g>
  </g>
</svg>
