<svg xmlns="http://www.w3.org/2000/svg" xmlns:xlink="http://www.w3.org/1999/xlink" width="356" height="85" viewBox="0 0 356 85">
  <defs>
    <filter id="Rectangle_124" x="0" y="0" width="356" height="85" filterUnits="userSpaceOnUse">
      <feOffset dy="3" input="SourceAlpha"/>
      <feGaussianBlur stdDeviation="3" result="blur"/>
      <feFlood flood-opacity="0.161"/>
      <feComposite operator="in" in2="blur"/>
      <feComposite in="SourceGraphic"/>
    </filter>
    <clipPath id="clip-path">
      <rect id="Rectangle_123" data-name="Rectangle 123" width="338" height="67" rx="33.5" transform="translate(475 1374)" fill="#fff"/>
    </clipPath>
    <linearGradient id="linear-gradient" x1="0.076" y1="0.459" x2="1" y2="0.463" gradientUnits="objectBoundingBox">
      <stop offset="0" stop-color="#65b6eb"/>
      <stop offset="1" stop-color="#006bb4"/>
    </linearGradient>
    <linearGradient id="linear-gradient-2" y1="0.467" x2="0.98" y2="0.5" gradientUnits="objectBoundingBox">
      <stop offset="0" stop-color="#dd9611"/>
      <stop offset="1" stop-color="#c73b19"/>
    </linearGradient>
  </defs>
  <g id="contact_btn_sp" transform="translate(-466 -1368)">
    <g transform="matrix(1, 0, 0, 1, 466, 1368)" filter="url(#Rectangle_124)">
      <rect id="Rectangle_124-2" data-name="Rectangle 124" width="338" height="67" rx="33.5" transform="translate(9 6)" fill="#fff"/>
    </g>
    <g id="Mask_Group_4" data-name="Mask Group 4" clip-path="url(#clip-path)">
      <path id="Path_275" data-name="Path 275" d="M-10,0H169V67H-10Z" transform="translate(644 1374)" fill="url(#linear-gradient)"/>
      <path id="Path_274" data-name="Path 274" d="M0,0H168l10,67H0Z" transform="translate(475 1374)" fill="url(#linear-gradient-2)"/>
    </g>
    <text id="出展のお問い合わせ_お申し込みはこちら" data-name="出展のお問い合わせ・
お申し込みはこちら" transform="translate(660.567 1403.131)" fill="#fff" font-size="13" font-family="NotoSansJP-Medium, Noto Sans JP" font-weight="500" letter-spacing="0.06em"><tspan x="0" y="0">出展のお問い合わせ・</tspan><tspan x="0" y="19">お申し込みはこちら</tspan></text>
    <g id="mintokumesse" transform="translate(492.942 1385.213)">
      <g id="Group_156" data-name="Group 156" transform="translate(0.9 0.5)">
        <rect id="Rectangle_85" data-name="Rectangle 85" width="2.814" height="3.486" transform="translate(46.098 0.483)" fill="#fff"/>
        <path id="Path_215" data-name="Path 215" d="M223.214,38.89V32.8H220.4v6.09a4.244,4.244,0,0,0,4.242,4.242h1.722V40.318h-1.722A1.43,1.43,0,0,1,223.214,38.89Z" transform="translate(-174.302 -26.017)" fill="#fff"/>
        <rect id="Rectangle_86" data-name="Rectangle 86" width="2.667" height="2.814" transform="translate(43.431 3.969)" fill="#fff"/>
        <rect id="Rectangle_87" data-name="Rectangle 87" width="2.898" height="2.814" transform="translate(48.912 3.969)" fill="#fff"/>
        <rect id="Rectangle_88" data-name="Rectangle 88" width="2.814" height="2.814" transform="translate(46.098 3.969)" fill="#fff"/>
        <path id="Path_216" data-name="Path 216" d="M264.414,25.436a3.836,3.836,0,0,1,3.822-3.822V18.8a6.636,6.636,0,0,0,0,13.273V29.259A3.823,3.823,0,0,1,264.414,25.436Z" transform="translate(-206.85 -14.957)" fill="#fff"/>
        <path id="Path_217" data-name="Path 217" d="M293.2,18.8v2.814a3.822,3.822,0,0,1,0,7.644v2.814a6.636,6.636,0,0,0,0-13.273Z" transform="translate(-231.813 -14.957)" fill="#fff"/>
        <path id="Path_218" data-name="Path 218" d="M353.5,31.6l2.1-2.142,3.633,5.523h3.318l-5.061-7.476,5.061-5.208h-3.507L353.5,28.012Z" transform="translate(-279.45 -17.722)" fill="#fff"/>
        <rect id="Rectangle_89" data-name="Rectangle 89" width="2.814" height="16.759" transform="translate(71.236 0.483)" fill="#fff"/>
        <path id="Path_219" data-name="Path 219" d="M448.6,60.877v.651h2.814V55.9A5.8,5.8,0,0,1,448.6,60.877Z" transform="translate(-354.578 -44.265)" fill="#fff"/>
        <path id="Path_220" data-name="Path 220" d="M412.675,32.339a2.958,2.958,0,0,1-2.961-2.961V22.3H406.9v7.077a5.808,5.808,0,0,0,5.8,5.8,5.648,5.648,0,0,0,2.961-.819v-5A2.994,2.994,0,0,1,412.675,32.339Z" transform="translate(-321.635 -17.722)" fill="#fff"/>
        <path id="Path_221" data-name="Path 221" d="M448.6,22.3V34.355a5.8,5.8,0,0,0,2.814-4.977V22.3Z" transform="translate(-354.578 -17.722)" fill="#fff"/>
        <path id="Path_222" data-name="Path 222" d="M53.689,21.5A5.792,5.792,0,0,0,49.3,23.516a5.713,5.713,0,0,1,1.407,3.78,2.961,2.961,0,0,1,5.922,0v7.077h2.814v-7.1A5.741,5.741,0,0,0,53.689,21.5Z" transform="translate(-39.135 -17.09)" fill="#fff"/>
        <path id="Path_223" data-name="Path 223" d="M158.661,21.5a5.648,5.648,0,0,0-2.961.819v4.956a2.961,2.961,0,0,1,5.922,0v7.077h2.814V27.275A5.772,5.772,0,0,0,158.661,21.5Z" transform="translate(-123.19 -17.09)" fill="#fff"/>
        <path id="Path_224" data-name="Path 224" d="M145.014,22.951V22.3H142.2v5.607A5.787,5.787,0,0,1,145.014,22.951Z" transform="translate(-112.525 -17.722)" fill="#fff"/>
        <path id="Path_225" data-name="Path 225" d="M142.2,30.356v7.077h2.814V25.4A5.787,5.787,0,0,0,142.2,30.356Z" transform="translate(-112.525 -20.171)" fill="#fff"/>
        <path id="Path_226" data-name="Path 226" d="M17.361,21.5a5.648,5.648,0,0,0-2.961.819v4.956a2.961,2.961,0,0,1,5.922,0,5.713,5.713,0,0,1,1.407-3.78A5.767,5.767,0,0,0,17.361,21.5Z" transform="translate(-11.565 -17.09)" fill="#fff"/>
        <path id="Path_227" data-name="Path 227" d="M42.6,34.78v7.077h2.814V34.78A5.713,5.713,0,0,0,44.007,31,5.8,5.8,0,0,0,42.6,34.78Z" transform="translate(-33.842 -24.595)" fill="#fff"/>
        <path id="Path_228" data-name="Path 228" d="M3.714,22.951V22.3H.9v5.607A5.787,5.787,0,0,1,3.714,22.951Z" transform="translate(-0.9 -17.722)" fill="#fff"/>
        <path id="Path_229" data-name="Path 229" d="M.9,30.356v7.077H3.714V25.4A5.787,5.787,0,0,0,.9,30.356Z" transform="translate(-0.9 -20.171)" fill="#fff"/>
        <rect id="Rectangle_90" data-name="Rectangle 90" width="2.814" height="12.706" transform="translate(23.332 4.578)" fill="#fff"/>
        <circle id="Ellipse_9" data-name="Ellipse 9" cx="1.638" cy="1.638" r="1.638" transform="translate(23.122)" fill="#fff"/>
      </g>
      <g id="Group_158" data-name="Group 158" transform="translate(103.722 10.413)">
        <g id="Group_157" data-name="Group 157">
          <path id="Path_230" data-name="Path 230" d="M502.03,48.213a1.787,1.787,0,0,1,.546,1.344,1.027,1.027,0,0,1-.021.273l-.63,5.229a.056.056,0,0,1-.063.063h-1.47a.067.067,0,0,1-.063-.063l.567-4.62.021-.231a.936.936,0,0,0-.966-1.071,2.179,2.179,0,0,0-1.659.777,3.51,3.51,0,0,0-.861,1.848l-.4,3.339a.067.067,0,0,1-.063.063h-1.491a.067.067,0,0,1-.063-.063l.567-4.62c.063-.819-.273-1.26-.987-1.3a1.948,1.948,0,0,0-1.155.378,3.323,3.323,0,0,0-.9.966A3.579,3.579,0,0,0,492.5,51.8l-.4,3.318a.067.067,0,0,1-.063.063h-1.47a.067.067,0,0,1-.063-.063l.84-6.993a.056.056,0,0,1,.063-.063h1.323a.056.056,0,0,1,.063.063l-.021,1.008a.059.059,0,0,0,.105.042,3.856,3.856,0,0,1,1.176-1.008,3.416,3.416,0,0,1,1.659-.42,2.239,2.239,0,0,1,1.365.378,1.545,1.545,0,0,1,.588.987c0,.042.063.063.105.021a4.416,4.416,0,0,1,1.2-.987,3.116,3.116,0,0,1,1.554-.4A1.792,1.792,0,0,1,502.03,48.213Z" transform="translate(-490.5 -47.73)" fill="#fff"/>
          <path id="Path_231" data-name="Path 231" d="M561.223,53.412l.546,1.113c.021.021,0,.063-.021.084a4.955,4.955,0,0,1-1.092.441,4.7,4.7,0,0,1-1.2.168,3.89,3.89,0,0,1-2.73-.945,3.462,3.462,0,0,1-1.029-2.646,3.761,3.761,0,0,1,.483-1.869,3.686,3.686,0,0,1,1.407-1.491,4.227,4.227,0,0,1,2.226-.567,3.512,3.512,0,0,1,2.331.777,3.81,3.81,0,0,1,1.218,2.478c0,.042-.021.063-.042.063l-5.691,1.575c-.042.021-.063.063-.042.084a1.915,1.915,0,0,0,.819.861,2.471,2.471,0,0,0,1.239.315,2.71,2.71,0,0,0,1.512-.5A.157.157,0,0,1,561.223,53.412ZM558.472,49.3a2.368,2.368,0,0,0-.861.9,2.511,2.511,0,0,0-.294,1.239v.168l4.242-1.2c.042,0,.063-.042.042-.084a2.033,2.033,0,0,0-.672-.987,1.775,1.775,0,0,0-1.176-.4A2.538,2.538,0,0,0,558.472,49.3Z" transform="translate(-542.007 -47.7)" fill="#fff"/>
          <path id="Path_232" data-name="Path 232" d="M596.5,55.024a2.791,2.791,0,0,1-1.26-.945.064.064,0,0,1,0-.084l.714-.777a.064.064,0,0,1,.084,0,2.476,2.476,0,0,0,1.932.924,1.239,1.239,0,0,0,.882-.294.971.971,0,0,0,.294-.651.666.666,0,0,0-.21-.525,1.439,1.439,0,0,0-.441-.315c-.168-.084-.462-.189-.882-.357a2.086,2.086,0,0,1-1.575-1.932,2.321,2.321,0,0,1,.252-1.029,2.23,2.23,0,0,1,.84-.882,2.741,2.741,0,0,1,1.449-.357,5.06,5.06,0,0,1,1.344.189,2.7,2.7,0,0,1,1.176.693.064.064,0,0,1,0,.084l-.672.861a.094.094,0,0,1-.105,0,1.9,1.9,0,0,0-.693-.525,2.224,2.224,0,0,0-.882-.189,1.085,1.085,0,0,0-.8.273.88.88,0,0,0-.294.609.727.727,0,0,0,.315.588,2.281,2.281,0,0,0,.672.357,3.376,3.376,0,0,0,.525.189,3.465,3.465,0,0,1,1.176.777,1.624,1.624,0,0,1,.42,1.155,2.383,2.383,0,0,1-.294,1.113,2.435,2.435,0,0,1-.924.924,3.016,3.016,0,0,1-1.575.378A3.449,3.449,0,0,1,596.5,55.024Z" transform="translate(-573.231 -47.779)" fill="#fff"/>
          <path id="Path_233" data-name="Path 233" d="M628.9,55.024a2.791,2.791,0,0,1-1.26-.945.064.064,0,0,1,0-.084l.714-.777a.064.064,0,0,1,.084,0,2.476,2.476,0,0,0,1.932.924,1.24,1.24,0,0,0,.882-.294.971.971,0,0,0,.294-.651.666.666,0,0,0-.21-.525,1.439,1.439,0,0,0-.441-.315c-.168-.084-.462-.189-.882-.357a2.086,2.086,0,0,1-1.575-1.932,2.322,2.322,0,0,1,.252-1.029,2.23,2.23,0,0,1,.84-.882,2.741,2.741,0,0,1,1.449-.357,5.06,5.06,0,0,1,1.344.189,2.7,2.7,0,0,1,1.176.693.064.064,0,0,1,0,.084l-.672.861a.094.094,0,0,1-.105,0,1.9,1.9,0,0,0-.693-.525,2.224,2.224,0,0,0-.882-.189,1.085,1.085,0,0,0-.8.273.88.88,0,0,0-.294.609.727.727,0,0,0,.315.588,2.281,2.281,0,0,0,.672.357,3.374,3.374,0,0,0,.525.189,3.464,3.464,0,0,1,1.176.777,1.624,1.624,0,0,1,.42,1.155,2.383,2.383,0,0,1-.294,1.113,2.435,2.435,0,0,1-.924.924,3.017,3.017,0,0,1-1.575.378A3.5,3.5,0,0,1,628.9,55.024Z" transform="translate(-598.827 -47.779)" fill="#fff"/>
          <path id="Path_234" data-name="Path 234" d="M666.623,53.412l.546,1.113c.021.021,0,.063-.021.084a4.954,4.954,0,0,1-1.092.441,4.7,4.7,0,0,1-1.2.168,3.89,3.89,0,0,1-2.73-.945,3.462,3.462,0,0,1-1.029-2.646,3.761,3.761,0,0,1,.483-1.869,3.686,3.686,0,0,1,1.407-1.491,4.227,4.227,0,0,1,2.226-.567,3.512,3.512,0,0,1,2.331.777,3.81,3.81,0,0,1,1.218,2.478c0,.042-.021.063-.042.063l-5.691,1.575c-.042.021-.063.063-.042.084a1.915,1.915,0,0,0,.819.861,2.471,2.471,0,0,0,1.239.315,2.71,2.71,0,0,0,1.512-.5A.157.157,0,0,1,666.623,53.412ZM663.872,49.3a2.368,2.368,0,0,0-.861.9,2.51,2.51,0,0,0-.294,1.239v.168l4.242-1.2c.042,0,.063-.042.042-.084a2.034,2.034,0,0,0-.672-.987,1.775,1.775,0,0,0-1.176-.4A2.6,2.6,0,0,0,663.872,49.3Z" transform="translate(-625.272 -47.7)" fill="#fff"/>
        </g>
      </g>
    </g>
    <g id="Group_238" data-name="Group 238" transform="translate(250.12 1057.195)">
      <path id="Path_68" data-name="Path 68" d="M4.1,99.423H6.357L4.048,110.2H1.792Zm.772-4.1H7.34l-.5,2.35H4.37Z" transform="translate(239.401 259.541)" fill="#fff"/>
      <path id="Path_69" data-name="Path 69" d="M18.666,106.458H20.88l-.208.97a3.676,3.676,0,0,1,2.863-1.164c2.172,0,3.6,1.121,2.932,4.225l-1.446,6.748H22.787l1.39-6.489c.406-1.9-.321-2.436-1.481-2.436a2.757,2.757,0,0,0-2.689,2.414l-1.395,6.51H16.357Z" transform="translate(230.032 252.506)" fill="#fff"/>
      <path id="Path_70" data-name="Path 70" d="M57.023,110.2,60.21,95.326h4.912c3.268,0,5.077,1.789,4.057,6.553l-.379,1.768c-1.021,4.764-3.6,6.553-6.865,6.553Zm9.331-6.553.379-1.768c.656-3.061.01-4.376-2.078-4.376H62.189l-2.258,10.542H62.4c2.087,0,3.3-1.336,3.957-4.4" transform="translate(203.874 259.542)" fill="#fff"/>
      <path id="Path_71" data-name="Path 71" d="M89.789,110.2l8.247-14.875h2.319l1.873,14.875H99.635l-.33-3.083h-5.25L92.4,110.2Zm5.4-5.238h3.879l-.651-6.014Z" transform="translate(182.797 259.541)" fill="#fff"/>
      <path id="Path_72" data-name="Path 72" d="M144.98,95.327,141.793,110.2h-2.172l-3.758-10.11L133.7,110.2h-2.362l3.187-14.874h2.108l3.793,10.24,2.194-10.24Z" transform="translate(156.072 259.541)" fill="#fff"/>
      <path id="Path_73" data-name="Path 73" d="M167.3,110.2l8.247-14.875h2.319l1.873,14.875h-2.593l-.33-3.083h-5.25l-1.651,3.083Zm5.4-5.238h3.879l-.651-6.014Z" transform="translate(132.939 259.541)" fill="#fff"/>
      <path id="Path_74" data-name="Path 74" d="M222.491,95.327,219.3,110.2h-2.172l-3.758-10.11-2.166,10.11h-2.362l3.187-14.874h2.108l3.793,10.24,2.194-10.24Z" transform="translate(106.213 259.541)" fill="#fff"/>
      <path id="Path_75" data-name="Path 75" d="M261.108,102.219l-.245,1.143c-1,4.678-3.519,6.683-6.787,6.683-3.247,0-5.01-2-4.008-6.683l.383-1.789c1.025-4.786,3.647-6.791,6.894-6.791,2.951,0,4.468,1.682,4.262,4.807h-2.361c.011-1.725-.722-2.63-2.367-2.63-1.94,0-3.271,1.293-3.959,4.505l-.406,1.9c-.688,3.212.088,4.505,2.029,4.505,1.855,0,3.023-1.121,3.695-3.471H255.35l.467-2.177Z" transform="translate(79.877 259.892)" fill="#fff"/>
      <path id="Path_76" data-name="Path 76" d="M300.97,109.851h-8.792l.379-1.768,6.281-5.993a6.449,6.449,0,0,0,2.146-3.126,1.548,1.548,0,0,0-1.627-2.048,2.558,2.558,0,0,0-2.505,2.048h-2.235a5.414,5.414,0,0,1,5.281-4.182c2.488,0,4.037,1.725,3.5,4.225-.4,1.876-1.981,3.342-3.153,4.484l-4.337,4.2h5.524Z" transform="translate(52.61 259.891)" fill="#fff"/>
      <path id="Path_77" data-name="Path 77" d="M330.284,110.045c-2.425,0-4.261-1.466-3.6-4.549L328,99.352a5.5,5.5,0,0,1,5.555-4.57c2.424,0,4.274,1.4,3.6,4.549l-1.321,6.165a5.542,5.542,0,0,1-5.549,4.549m2.8-13.085a2.8,2.8,0,0,0-2.691,2.522l-1.256,5.864c-.342,1.6.282,2.523,1.61,2.523a2.8,2.8,0,0,0,2.67-2.523l1.256-5.864c.342-1.6-.282-2.522-1.589-2.522" transform="translate(30.502 259.892)" fill="#fff"/>
      <path id="Path_78" data-name="Path 78" d="M365.516,109.851h-8.792l.379-1.768,6.281-5.993a6.449,6.449,0,0,0,2.146-3.126,1.548,1.548,0,0,0-1.627-2.048,2.557,2.557,0,0,0-2.505,2.048h-2.235a5.414,5.414,0,0,1,5.281-4.182c2.488,0,4.037,1.725,3.5,4.225-.4,1.876-1.981,3.342-3.153,4.484l-4.337,4.2h5.523Z" transform="translate(11.091 259.891)" fill="#fff"/>
      <path id="Path_79" data-name="Path 79" d="M399.563,95.327l-6.9,10.455h3.415l.868-4.053h2.445l-.868,4.053h1.328l-.466,2.177h-1.328l-.48,2.242h-2.446l.481-2.242h-6.388l.379-1.768,7.366-10.865Z" transform="translate(-9.815 259.541)" fill="#fff"/>
    </g>
  </g>
</svg>
