<svg xmlns="http://www.w3.org/2000/svg" xmlns:xlink="http://www.w3.org/1999/xlink" width="982" height="83" viewBox="0 0 982 83">
  <defs>
    <linearGradient id="linear-gradient" x1="0.479" y1="0.948" x2="0.996" y2="0.933" gradientUnits="objectBoundingBox">
      <stop offset="0" stop-color="#65b6eb"/>
      <stop offset="1" stop-color="#006bb4"/>
    </linearGradient>
    <linearGradient id="linear-gradient-2" y1="1" x2="1.054" y2="1.036" gradientUnits="objectBoundingBox">
      <stop offset="0" stop-color="#dd9611"/>
      <stop offset="1" stop-color="#c73b19"/>
    </linearGradient>
    <filter id="Rectangle_122" x="0" y="0" width="982" height="83" filterUnits="userSpaceOnUse">
      <feOffset dy="3" input="SourceAlpha"/>
      <feGaussianBlur stdDeviation="3" result="blur"/>
      <feFlood flood-opacity="0.475"/>
      <feComposite operator="in" in2="blur"/>
    </filter>
    <clipPath id="clip-path">
      <path id="Path_116" data-name="Path 116" d="M39.718,0C17.784,0,0,14.616,0,32.644S17.784,65.288,39.718,65.288H929.282C951.22,65.288,964,50.671,964,32.644S951.22,0,929.282,0Z" fill="url(#linear-gradient)"/>
    </clipPath>
    <clipPath id="clip-path-2">
      <path id="Path_117" data-name="Path 117" d="M32.644,0a32.644,32.644,0,1,0,0,65.288h474.1L485.187,0Z" fill="url(#linear-gradient-2)"/>
    </clipPath>
  </defs>
  <g id="contact_btn" transform="translate(-229 -974)">
    <g transform="matrix(1, 0, 0, 1, 229, 974)" filter="url(#Rectangle_122)">
      <rect id="Rectangle_122-2" data-name="Rectangle 122" width="964" height="65" rx="32.5" transform="translate(9 6)" fill="#fff"/>
    </g>
    <g id="Group_242" data-name="Group 242" transform="translate(3012 -2)">
      <g id="Group_109" data-name="Group 109" transform="translate(-2774 981.776)">
        <g id="Group_108" data-name="Group 108" clip-path="url(#clip-path)">
          <rect id="Rectangle_70" data-name="Rectangle 70" width="964" height="65.288" transform="translate(0 0.001)" fill="url(#linear-gradient)"/>
        </g>
      </g>
      <g id="Group_111" data-name="Group 111" transform="translate(-2774 981.776)">
        <g id="Group_110" data-name="Group 110" clip-path="url(#clip-path-2)">
          <path id="Path_273" data-name="Path 273" d="M0,0H536.748V65.288H0Z" transform="translate(0 0.001)" fill="url(#linear-gradient-2)"/>
        </g>
      </g>
    </g>
    <g id="Group_243" data-name="Group 243" transform="translate(-5.433)">
      <text id="出展のお問い合わせ_お申し込みはこちら" data-name="出展のお問い合わせ・お申し込みはこちら" transform="translate(773 1019.92)" fill="#fff" font-size="20" font-family="NotoSansJP-Medium, Noto Sans JP" font-weight="500" letter-spacing="0.06em"><tspan x="0" y="0">出展のお問い合わせ・お申し込みはこちら</tspan></text>
      <g id="mintokumesse" transform="translate(277.1 996.909)">
        <g id="Group_156" data-name="Group 156" transform="translate(0.9 0.5)">
          <rect id="Rectangle_85" data-name="Rectangle 85" width="4.92" height="6.095" transform="translate(80.591 0.844)" fill="#fff"/>
          <path id="Path_215" data-name="Path 215" d="M225.32,43.448V32.8H220.4V43.448a7.419,7.419,0,0,0,7.417,7.417h3.011v-4.92h-3.011A2.5,2.5,0,0,1,225.32,43.448Z" transform="translate(-139.809 -20.941)" fill="#fff"/>
          <rect id="Rectangle_86" data-name="Rectangle 86" width="4.663" height="4.92" transform="translate(75.928 6.939)" fill="#fff"/>
          <rect id="Rectangle_87" data-name="Rectangle 87" width="5.067" height="4.92" transform="translate(85.511 6.939)" fill="#fff"/>
          <rect id="Rectangle_88" data-name="Rectangle 88" width="4.92" height="4.92" transform="translate(80.591 6.939)" fill="#fff"/>
          <path id="Path_216" data-name="Path 216" d="M266.52,30.4A6.707,6.707,0,0,1,273.2,23.72V18.8a11.6,11.6,0,1,0,0,23.2v-4.92A6.683,6.683,0,0,1,266.52,30.4Z" transform="translate(-165.882 -12.081)" fill="#fff"/>
          <path id="Path_217" data-name="Path 217" d="M293.2,18.8v4.92a6.682,6.682,0,1,1,0,13.365V42a11.6,11.6,0,1,0,0-23.2Z" transform="translate(-185.88 -12.081)" fill="#fff"/>
          <path id="Path_218" data-name="Path 218" d="M353.5,38.565l3.672-3.745,6.352,9.656h5.8l-8.849-13.071,8.849-9.106h-6.132L353.5,32.287Z" transform="translate(-224.04 -14.296)" fill="#fff"/>
          <rect id="Rectangle_89" data-name="Rectangle 89" width="4.92" height="29.299" transform="translate(124.54 0.844)" fill="#fff"/>
          <path id="Path_219" data-name="Path 219" d="M448.6,64.6V65.74h4.92V55.9A10.133,10.133,0,0,1,448.6,64.6Z" transform="translate(-284.223 -35.559)" fill="#fff"/>
          <path id="Path_220" data-name="Path 220" d="M417,39.85a5.171,5.171,0,0,1-5.177-5.177V22.3H406.9V34.673a10.154,10.154,0,0,0,10.134,10.134,9.873,9.873,0,0,0,5.177-1.432V34.637A5.234,5.234,0,0,1,417,39.85Z" transform="translate(-257.834 -14.296)" fill="#fff"/>
          <path id="Path_221" data-name="Path 221" d="M448.6,22.3V43.375a10.133,10.133,0,0,0,4.92-8.7V22.3Z" transform="translate(-284.223 -14.296)" fill="#fff"/>
          <path id="Path_222" data-name="Path 222" d="M56.974,21.5A10.126,10.126,0,0,0,49.3,25.025a9.988,9.988,0,0,1,2.46,6.609,5.177,5.177,0,0,1,10.354,0V44.007h4.92V31.6A10.037,10.037,0,0,0,56.974,21.5Z" transform="translate(-31.53 -13.79)" fill="#fff"/>
          <path id="Path_223" data-name="Path 223" d="M160.877,21.5a9.874,9.874,0,0,0-5.177,1.432V31.6a5.177,5.177,0,0,1,10.354,0V43.97h4.92V31.6A10.091,10.091,0,0,0,160.877,21.5Z" transform="translate(-98.864 -13.79)" fill="#fff"/>
          <path id="Path_224" data-name="Path 224" d="M147.12,23.438V22.3H142.2v9.8A10.118,10.118,0,0,1,147.12,23.438Z" transform="translate(-90.321 -14.296)" fill="#fff"/>
          <path id="Path_225" data-name="Path 225" d="M142.2,34.065V46.438h4.92V25.4A10.118,10.118,0,0,0,142.2,34.065Z" transform="translate(-90.321 -16.258)" fill="#fff"/>
          <path id="Path_226" data-name="Path 226" d="M19.577,21.5A9.873,9.873,0,0,0,14.4,22.932V31.6a5.177,5.177,0,0,1,10.354,0,9.988,9.988,0,0,1,2.46-6.609A10.082,10.082,0,0,0,19.577,21.5Z" transform="translate(-9.443 -13.79)" fill="#fff"/>
          <path id="Path_227" data-name="Path 227" d="M42.6,37.609V49.982h4.92V37.609A9.988,9.988,0,0,0,45.06,31,10.132,10.132,0,0,0,42.6,37.609Z" transform="translate(-27.29 -19.802)" fill="#fff"/>
          <path id="Path_228" data-name="Path 228" d="M5.82,23.438V22.3H.9v9.8A10.118,10.118,0,0,1,5.82,23.438Z" transform="translate(-0.9 -14.296)" fill="#fff"/>
          <path id="Path_229" data-name="Path 229" d="M.9,34.065V46.438H5.82V25.4A10.118,10.118,0,0,0,.9,34.065Z" transform="translate(-0.9 -16.258)" fill="#fff"/>
          <rect id="Rectangle_90" data-name="Rectangle 90" width="4.92" height="22.213" transform="translate(40.791 8.004)" fill="#fff"/>
          <circle id="Ellipse_9" data-name="Ellipse 9" cx="2.864" cy="2.864" r="2.864" transform="translate(40.424)" fill="#fff"/>
        </g>
        <g id="Group_158" data-name="Group 158" transform="translate(180.661 17.83)">
          <g id="Group_157" data-name="Group 157">
            <path id="Path_230" data-name="Path 230" d="M510.657,48.569a3.125,3.125,0,0,1,.955,2.35,1.8,1.8,0,0,1-.037.477l-1.1,9.142a.1.1,0,0,1-.11.11h-2.57a.117.117,0,0,1-.11-.11l.991-8.077.037-.4a1.636,1.636,0,0,0-1.689-1.873,3.809,3.809,0,0,0-2.9,1.358,6.136,6.136,0,0,0-1.505,3.231l-.7,5.838a.117.117,0,0,1-.11.11H499.2a.117.117,0,0,1-.11-.11l.991-8.077c.11-1.432-.477-2.2-1.726-2.276a3.407,3.407,0,0,0-2.019.661,5.81,5.81,0,0,0-1.579,1.689,6.256,6.256,0,0,0-.771,2.24l-.7,5.8a.117.117,0,0,1-.11.11h-2.57a.117.117,0,0,1-.11-.11l1.469-12.226a.1.1,0,0,1,.11-.11h2.313a.1.1,0,0,1,.11.11l-.037,1.762a.1.1,0,0,0,.184.073,6.741,6.741,0,0,1,2.056-1.762,5.971,5.971,0,0,1,2.9-.734,3.915,3.915,0,0,1,2.387.661,2.7,2.7,0,0,1,1.028,1.726c0,.073.11.11.184.037a7.72,7.72,0,0,1,2.093-1.726,5.448,5.448,0,0,1,2.717-.7A3.132,3.132,0,0,1,510.657,48.569Z" transform="translate(-490.5 -47.724)" fill="#fff"/>
            <path id="Path_231" data-name="Path 231" d="M565.356,57.687l.955,1.946c.037.037,0,.11-.037.147a8.665,8.665,0,0,1-1.909.771,8.222,8.222,0,0,1-2.093.294,6.8,6.8,0,0,1-4.773-1.652,6.053,6.053,0,0,1-1.8-4.626,6.575,6.575,0,0,1,.844-3.268A6.444,6.444,0,0,1,559,48.691,7.39,7.39,0,0,1,562.9,47.7a6.14,6.14,0,0,1,4.076,1.358,6.662,6.662,0,0,1,2.129,4.332c0,.073-.037.11-.073.11l-9.95,2.754c-.073.037-.11.11-.073.147a3.348,3.348,0,0,0,1.432,1.505,4.32,4.32,0,0,0,2.166.551,4.737,4.737,0,0,0,2.643-.881A.274.274,0,0,1,565.356,57.687Zm-4.81-7.2a4.141,4.141,0,0,0-1.505,1.579,4.39,4.39,0,0,0-.514,2.166v.294l7.417-2.093c.073,0,.11-.073.073-.147a3.555,3.555,0,0,0-1.175-1.726,3.1,3.1,0,0,0-2.056-.7A4.436,4.436,0,0,0,560.547,50.49Z" transform="translate(-531.761 -47.7)" fill="#fff"/>
            <path id="Path_232" data-name="Path 232" d="M597.455,60.43a4.88,4.88,0,0,1-2.2-1.652.112.112,0,0,1,0-.147l1.248-1.358a.112.112,0,0,1,.147,0,4.33,4.33,0,0,0,3.378,1.615,2.167,2.167,0,0,0,1.542-.514,1.7,1.7,0,0,0,.514-1.138,1.165,1.165,0,0,0-.367-.918,2.515,2.515,0,0,0-.771-.551c-.294-.147-.808-.33-1.542-.624-1.836-.734-2.754-1.873-2.754-3.378a4.058,4.058,0,0,1,.441-1.8,3.9,3.9,0,0,1,1.469-1.542,4.792,4.792,0,0,1,2.533-.624,8.847,8.847,0,0,1,2.35.33,4.712,4.712,0,0,1,2.056,1.212.112.112,0,0,1,0,.147l-1.175,1.505a.164.164,0,0,1-.184,0,3.322,3.322,0,0,0-1.212-.918,3.887,3.887,0,0,0-1.542-.33,1.9,1.9,0,0,0-1.4.477,1.538,1.538,0,0,0-.514,1.065,1.27,1.27,0,0,0,.551,1.028,3.987,3.987,0,0,0,1.175.624,5.9,5.9,0,0,0,.918.33,6.058,6.058,0,0,1,2.056,1.358,2.84,2.84,0,0,1,.734,2.019,4.166,4.166,0,0,1-.514,1.946,4.256,4.256,0,0,1-1.615,1.615,5.273,5.273,0,0,1-2.754.661A6.029,6.029,0,0,1,597.455,60.43Z" transform="translate(-556.774 -47.763)" fill="#fff"/>
            <path id="Path_233" data-name="Path 233" d="M629.855,60.43a4.88,4.88,0,0,1-2.2-1.652.112.112,0,0,1,0-.147l1.248-1.358a.112.112,0,0,1,.147,0,4.33,4.33,0,0,0,3.378,1.615,2.167,2.167,0,0,0,1.542-.514,1.7,1.7,0,0,0,.514-1.138,1.165,1.165,0,0,0-.367-.918,2.515,2.515,0,0,0-.771-.551c-.294-.147-.808-.33-1.542-.624-1.836-.734-2.754-1.873-2.754-3.378a4.058,4.058,0,0,1,.441-1.8,3.9,3.9,0,0,1,1.469-1.542,4.792,4.792,0,0,1,2.533-.624,8.846,8.846,0,0,1,2.35.33,4.712,4.712,0,0,1,2.056,1.212.112.112,0,0,1,0,.147l-1.175,1.505a.164.164,0,0,1-.184,0,3.321,3.321,0,0,0-1.212-.918,3.887,3.887,0,0,0-1.542-.33,1.9,1.9,0,0,0-1.4.477,1.538,1.538,0,0,0-.514,1.065,1.27,1.27,0,0,0,.551,1.028,3.986,3.986,0,0,0,1.175.624,5.9,5.9,0,0,0,.918.33,6.058,6.058,0,0,1,2.056,1.358,2.84,2.84,0,0,1,.734,2.019,4.166,4.166,0,0,1-.514,1.946,4.256,4.256,0,0,1-1.615,1.615,5.273,5.273,0,0,1-2.754.661A6.12,6.12,0,0,1,629.855,60.43Z" transform="translate(-577.279 -47.763)" fill="#fff"/>
            <path id="Path_234" data-name="Path 234" d="M670.756,57.687l.955,1.946c.037.037,0,.11-.037.147a8.664,8.664,0,0,1-1.909.771,8.222,8.222,0,0,1-2.093.294,6.8,6.8,0,0,1-4.773-1.652,6.053,6.053,0,0,1-1.8-4.626,6.576,6.576,0,0,1,.844-3.268,6.444,6.444,0,0,1,2.46-2.607A7.39,7.39,0,0,1,668.3,47.7a6.14,6.14,0,0,1,4.076,1.358,6.662,6.662,0,0,1,2.129,4.332c0,.073-.037.11-.073.11l-9.95,2.754c-.073.037-.11.11-.073.147a3.348,3.348,0,0,0,1.432,1.505,4.32,4.32,0,0,0,2.166.551,4.737,4.737,0,0,0,2.643-.881A.274.274,0,0,1,670.756,57.687Zm-4.81-7.2a4.141,4.141,0,0,0-1.505,1.579,4.389,4.389,0,0,0-.514,2.166v.294l7.417-2.093c.073,0,.11-.073.073-.147a3.555,3.555,0,0,0-1.175-1.726,3.1,3.1,0,0,0-2.056-.7A4.544,4.544,0,0,0,665.947,50.49Z" transform="translate(-598.463 -47.7)" fill="#fff"/>
          </g>
        </g>
      </g>
      <g id="Group_238" data-name="Group 238" transform="translate(302.554 652.891)">
        <path id="Path_68" data-name="Path 68" d="M4.418,99.984H6.983L4.357,112.241H1.792ZM5.3,95.327H8.1L7.528,98h-2.8Z" transform="translate(239.401 259.568)" fill="#fff"/>
        <path id="Path_69" data-name="Path 69" d="M18.983,106.485H21.5l-.236,1.1a4.18,4.18,0,0,1,3.256-1.324c2.47,0,4.09,1.275,3.334,4.8l-1.644,7.673H23.669l1.581-7.378c.462-2.157-.366-2.77-1.684-2.77a3.135,3.135,0,0,0-3.057,2.746l-1.586,7.4H16.357Z" transform="translate(230.745 253.067)" fill="#fff"/>
        <path id="Path_70" data-name="Path 70" d="M57.023,112.24l3.624-16.914h5.586c3.716,0,5.773,2.035,4.613,7.452l-.431,2.01c-1.161,5.417-4.09,7.452-7.806,7.452Zm10.611-7.452.431-2.01C68.81,99.3,68.076,97.8,65.7,97.8H62.9L60.33,109.789h2.8c2.373,0,3.754-1.52,4.5-5" transform="translate(206.576 259.568)" fill="#fff"/>
        <path id="Path_71" data-name="Path 71" d="M89.789,112.241l9.378-16.914H101.8l2.13,16.914h-2.948l-.376-3.505H94.64l-1.878,3.505Zm6.143-5.957h4.411L99.6,99.445Z" transform="translate(187.102 259.568)" fill="#fff"/>
        <path id="Path_72" data-name="Path 72" d="M146.851,95.327l-3.624,16.914h-2.469l-4.273-11.5-2.463,11.5h-2.686l3.624-16.914h2.4l4.313,11.644,2.495-11.644Z" transform="translate(162.409 259.568)" fill="#fff"/>
        <path id="Path_73" data-name="Path 73" d="M167.3,112.241l9.378-16.914h2.637l2.129,16.914h-2.948l-.376-3.505h-5.97l-1.878,3.505Zm6.143-5.957h4.411l-.74-6.839Z" transform="translate(141.035 259.568)" fill="#fff"/>
        <path id="Path_74" data-name="Path 74" d="M224.362,95.327l-3.624,16.914h-2.469L214,100.744l-2.463,11.5h-2.686l3.624-16.914h2.4l4.313,11.644,2.495-11.644Z" transform="translate(116.341 259.568)" fill="#fff"/>
        <path id="Path_75" data-name="Path 75" d="M262.66,103.239l-.278,1.3c-1.139,5.319-4,7.6-7.717,7.6-3.692,0-5.7-2.28-4.557-7.6l.436-2.035c1.166-5.442,4.147-7.722,7.839-7.722,3.356,0,5.08,1.912,4.846,5.466h-2.685c.013-1.961-.821-2.99-2.692-2.99-2.206,0-3.719,1.471-4.5,5.123l-.462,2.157c-.783,3.652.1,5.123,2.307,5.123,2.109,0,3.437-1.275,4.2-3.947h-3.285l.531-2.476Z" transform="translate(92.008 259.892)" fill="#fff"/>
        <path id="Path_76" data-name="Path 76" d="M302.175,111.917h-10l.431-2.01,7.142-6.814a7.334,7.334,0,0,0,2.44-3.554,1.76,1.76,0,0,0-1.851-2.329,2.908,2.908,0,0,0-2.849,2.329H294.95a6.157,6.157,0,0,1,6.005-4.756c2.829,0,4.591,1.961,3.981,4.8-.457,2.133-2.252,3.8-3.586,5.1l-4.932,4.78H302.7Z" transform="translate(66.814 259.891)" fill="#fff"/>
        <path id="Path_77" data-name="Path 77" d="M330.8,112.138c-2.757,0-4.846-1.667-4.094-5.172l1.5-6.986a6.253,6.253,0,0,1,6.316-5.2c2.757,0,4.86,1.593,4.093,5.173l-1.5,7.011a6.3,6.3,0,0,1-6.31,5.172m3.188-14.879c-1.511,0-2.671,1.054-3.06,2.868l-1.428,6.667c-.389,1.814.32,2.868,1.831,2.868,1.486,0,2.647-1.054,3.036-2.868l1.428-6.667c.389-1.814-.32-2.868-1.807-2.868" transform="translate(46.388 259.892)" fill="#fff"/>
        <path id="Path_78" data-name="Path 78" d="M366.721,111.917h-10l.431-2.01,7.142-6.814a7.333,7.333,0,0,0,2.44-3.554,1.76,1.76,0,0,0-1.85-2.329,2.908,2.908,0,0,0-2.849,2.329H359.5a6.157,6.157,0,0,1,6.005-4.756c2.829,0,4.59,1.961,3.981,4.8-.457,2.133-2.252,3.8-3.586,5.1l-4.932,4.78h6.281Z" transform="translate(28.453 259.891)" fill="#fff"/>
        <path id="Path_79" data-name="Path 79" d="M400.98,95.327l-7.845,11.889h3.883l.987-4.608h2.781l-.987,4.608h1.51l-.53,2.476h-1.511l-.546,2.549h-2.781l.546-2.549h-7.264l.43-2.01,8.376-12.354Z" transform="translate(9.136 259.568)" fill="#fff"/>
      </g>
    </g>
  </g>
</svg>
