<svg xmlns="http://www.w3.org/2000/svg" xmlns:xlink="http://www.w3.org/1999/xlink" width="326.876" height="72.901" viewBox="0 0 326.876 72.901">
  <defs>
    <clipPath id="clip-path">
      <rect id="Rectangle_104" data-name="Rectangle 104" width="198.072" height="72.9" fill="none"/>
    </clipPath>
  </defs>
  <g id="Group_250" data-name="Group 250" transform="translate(-426 -2030.003)">
    <text id="TAX10_別" data-name="TAX10% 別" transform="translate(636 2032.031)" font-size="10" font-family="NotoSansJP-Regular, Noto Sans JP" letter-spacing="0.05em"><tspan x="0" y="12">TAX10% 別</tspan></text>
    <text id="円" transform="translate(632.876 2086.696)" font-size="40" font-family="NotoSansJP-Bold, Noto Sans JP" font-weight="700" letter-spacing="0.06em"><tspan x="0" y="0">円</tspan></text>
    <text id="年" transform="translate(712.876 2086.696)" font-size="40" font-family="NotoSansJP-Bold, Noto Sans JP" font-weight="700" letter-spacing="0.06em"><tspan x="0" y="0">年</tspan></text>
    <g id="Group_178" data-name="Group 178" transform="translate(426 2030.003)">
      <path id="Path_263" data-name="Path 263" d="M8.454.332,0,6.548V15.5L8.454,9.283V59.34h8.454V.332Z" transform="translate(0 0.165)" fill="#1a1311"/>
      <g id="Group_177" data-name="Group 177" transform="translate(0 0)">
        <g id="Group_176" data-name="Group 176" clip-path="url(#clip-path)">
          <path id="Path_264" data-name="Path 264" d="M44.263.332V8.286H27.522V24.2a9.465,9.465,0,0,1,2.985-1.946,10.123,10.123,0,0,1,4.059-.789,9.637,9.637,0,0,1,7,2.611q2.695,2.61,2.693,7.832V47.155a12.888,12.888,0,0,1-1.035,5.3,12.406,12.406,0,0,1-2.777,3.979,11.965,11.965,0,0,1-4.018,2.527,13.493,13.493,0,0,1-9.532,0,11.935,11.935,0,0,1-4.018-2.527,12.359,12.359,0,0,1-2.777-3.979,12.864,12.864,0,0,1-1.036-5.3V44.67h8.453v2.156a4.531,4.531,0,0,0,1.2,3.355,4.2,4.2,0,0,0,3.108,1.2,3.738,3.738,0,0,0,2.942-1.16A4.677,4.677,0,0,0,35.81,46.99V33.151a4.307,4.307,0,0,0-1.12-2.984,3.669,3.669,0,0,0-2.858-1.243,4.052,4.052,0,0,0-1.824.373,4.732,4.732,0,0,0-1.244.87,3.574,3.574,0,0,0-.746,1.076c-.275.5-.443.8-.5.912H20.063V.332Z" transform="translate(9.48 0.164)" fill="#1a1311"/>
          <path id="Path_265" data-name="Path 265" d="M41.626,12.679a12.86,12.86,0,0,1,1.038-5.3A12.368,12.368,0,0,1,45.439,3.4,11.874,11.874,0,0,1,49.458.871a13.489,13.489,0,0,1,9.531,0A11.946,11.946,0,0,1,63.01,3.4a12.481,12.481,0,0,1,2.774,3.976,12.908,12.908,0,0,1,1.036,5.3V47.321a12.888,12.888,0,0,1-1.036,5.3A12.438,12.438,0,0,1,63.01,56.6a12,12,0,0,1-4.021,2.529,13.489,13.489,0,0,1-9.531,0A11.924,11.924,0,0,1,45.439,56.6a12.326,12.326,0,0,1-2.776-3.978,12.84,12.84,0,0,1-1.038-5.3Zm8.453,34.642a4.174,4.174,0,0,0,1.162,3.026,4.308,4.308,0,0,0,5.968,0,4.19,4.19,0,0,0,1.159-3.026V12.679a4.189,4.189,0,0,0-1.159-3.024,4.3,4.3,0,0,0-5.968,0,4.173,4.173,0,0,0-1.162,3.024Z" transform="translate(20.694 0)" fill="#1a1311"/>
          <path id="Path_266" data-name="Path 266" d="M62.594,32.259H71.9v8.135q0,6.919-1.618,10.278a12.591,12.591,0,0,1-6.637,6.192l-1.822-4.7a8.175,8.175,0,0,0,3.967-3.056,10.777,10.777,0,0,0,1.294-5.483H62.594Z" transform="translate(30.735 16.037)" fill="#1a1311"/>
          <path id="Path_267" data-name="Path 267" d="M72.627,12.679a12.884,12.884,0,0,1,1.036-5.3A12.415,12.415,0,0,1,76.439,3.4,11.9,11.9,0,0,1,80.459.871a13.489,13.489,0,0,1,9.531,0A11.925,11.925,0,0,1,94.009,3.4a12.462,12.462,0,0,1,2.776,3.976,12.908,12.908,0,0,1,1.036,5.3V47.321a12.888,12.888,0,0,1-1.036,5.3A12.419,12.419,0,0,1,94.009,56.6a11.975,11.975,0,0,1-4.02,2.529,13.489,13.489,0,0,1-9.531,0,11.946,11.946,0,0,1-4.02-2.529,12.372,12.372,0,0,1-2.776-3.978,12.864,12.864,0,0,1-1.036-5.3ZM81.08,47.321a4.179,4.179,0,0,0,1.16,3.026,4.308,4.308,0,0,0,5.968,0,4.185,4.185,0,0,0,1.16-3.026V12.679a4.184,4.184,0,0,0-1.16-3.024,4.3,4.3,0,0,0-5.968,0,4.178,4.178,0,0,0-1.16,3.024Z" transform="translate(36.106 0)" fill="#1a1311"/>
          <path id="Path_268" data-name="Path 268" d="M94.049,12.679a12.884,12.884,0,0,1,1.036-5.3A12.415,12.415,0,0,1,97.861,3.4a11.9,11.9,0,0,1,4.02-2.527,13.489,13.489,0,0,1,9.531,0,11.925,11.925,0,0,1,4.02,2.527,12.462,12.462,0,0,1,2.776,3.976,12.908,12.908,0,0,1,1.036,5.3V47.321a12.888,12.888,0,0,1-1.036,5.3,12.419,12.419,0,0,1-2.776,3.978,11.975,11.975,0,0,1-4.02,2.529,13.489,13.489,0,0,1-9.531,0,11.946,11.946,0,0,1-4.02-2.529,12.373,12.373,0,0,1-2.776-3.978,12.864,12.864,0,0,1-1.036-5.3ZM102.5,47.321a4.179,4.179,0,0,0,1.16,3.026,4.308,4.308,0,0,0,5.968,0,4.185,4.185,0,0,0,1.16-3.026V12.679a4.184,4.184,0,0,0-1.16-3.024,4.3,4.3,0,0,0-5.968,0,4.178,4.178,0,0,0-1.16,3.024Z" transform="translate(46.756 0)" fill="#1a1311"/>
          <path id="Path_269" data-name="Path 269" d="M115.472,12.679a12.884,12.884,0,0,1,1.036-5.3A12.415,12.415,0,0,1,119.284,3.4,11.9,11.9,0,0,1,123.3.871a13.489,13.489,0,0,1,9.531,0,11.925,11.925,0,0,1,4.02,2.527,12.462,12.462,0,0,1,2.776,3.976,12.908,12.908,0,0,1,1.036,5.3V47.321a12.888,12.888,0,0,1-1.036,5.3,12.419,12.419,0,0,1-2.776,3.978,11.975,11.975,0,0,1-4.02,2.529,13.489,13.489,0,0,1-9.531,0,11.946,11.946,0,0,1-4.02-2.529,12.372,12.372,0,0,1-2.776-3.978,12.864,12.864,0,0,1-1.036-5.3Zm8.453,34.642a4.179,4.179,0,0,0,1.16,3.026,4.308,4.308,0,0,0,5.968,0,4.185,4.185,0,0,0,1.16-3.026V12.679a4.184,4.184,0,0,0-1.16-3.024,4.3,4.3,0,0,0-5.968,0,4.178,4.178,0,0,0-1.16,3.024Z" transform="translate(57.406 0)" fill="#1a1311"/>
        </g>
      </g>
    </g>
    <line id="Line_4" data-name="Line 4" x1="26" y2="62" transform="translate(687 2032.531)" fill="none" stroke="#000" stroke-width="1"/>
  </g>
</svg>
