<svg xmlns="http://www.w3.org/2000/svg" xmlns:xlink="http://www.w3.org/1999/xlink" width="128.082" height="83.912" viewBox="0 0 128.082 83.912">
  <defs>
    <linearGradient id="linear-gradient" x1="0.5" x2="0.5" y2="1" gradientUnits="objectBoundingBox">
      <stop offset="0" stop-color="#65b6eb"/>
      <stop offset="1" stop-color="#006bb4"/>
    </linearGradient>
    <linearGradient id="linear-gradient-2" x1="0.5" x2="0.889" y2="0.884" gradientUnits="objectBoundingBox">
      <stop offset="0" stop-color="#65b6eb"/>
      <stop offset="0" stop-color="#5cafe6"/>
      <stop offset="1" stop-color="#006bb4"/>
    </linearGradient>
  </defs>
  <g id="Group_172" data-name="Group 172" transform="translate(-389.5 -1338.685)">
    <path id="Path_257" data-name="Path 257" d="M45-20.808H40.148v-8.177H45ZM45-5.924H40.148v-8.113H45Zm-26.83-8.113h4.6v8.113h-4.6Zm15.651,0v8.113H29.1v-8.113ZM29.1-20.808v-8.177h4.727v8.177ZM18.173-28.985h4.6v8.177h-4.6Zm-6.708,8.177H2.905v6.771h8.56v8.113h-7.6V.848H59.377V-5.924h-7.41v-8.113h8.3v-6.771h-8.3v-8.177h6v-6.708H19.642a34.389,34.389,0,0,0,2.491-4.472l-7.41-2.172A39.283,39.283,0,0,1,1.5-27.068a70.352,70.352,0,0,1,6.2,4.983,43.9,43.9,0,0,0,3.769-3.322Zm-1.98,38.2A34.959,34.959,0,0,0,16.768,3.978L9.421,2.189C7.952,6.853,5.077,11.771,2.267,14.454ZM20.856,4.425a81.091,81.091,0,0,1,1.214,12.2l7.41-1.086a83.567,83.567,0,0,0-1.6-11.946ZM33.5,4.553A68.073,68.073,0,0,1,36.763,16.69l7.6-1.469A71.191,71.191,0,0,0,40.659,3.339Zm12.649-.319a82.278,82.278,0,0,1,7.538,13.1l7.794-2.619A86.647,86.647,0,0,0,53.436,1.934Zm67.075-35.39c-2.044-2.364-6.58-5.622-10.157-7.73L99.43-33.776c3.513,2.364,7.921,5.813,9.9,8.3ZM96.492-17.742c3.705,2.236,8.368,5.622,10.477,7.985l3.833-6.069c-2.3-2.3-7.027-5.366-10.732-7.346ZM90.742-38.823a118.825,118.825,0,0,1-3.513,14.948l4.791,1.342c1.6-3.705,3.45-9.774,5.111-14.884ZM78.349-23.874A64.049,64.049,0,0,0,75.091-38.5l-5.3,1.405a63.17,63.17,0,0,1,2.875,14.757ZM95.789-2.857c-1.342-1.789-7.41-8.943-9.263-10.8V-14.1h9.454v-7.091H86.526V-42.081H79.5v20.889H69.853V-14.1h7.282C75.155-8.287,71.9-1.452,68.7,2.445a45.142,45.142,0,0,1,3.45,7.857C74.9,6.469,77.455.528,79.5-5.413v22.55h7.027V-5.285a85.332,85.332,0,0,1,4.6,8.3Zm33.793,1.469-1.15-7.091-6.516,1.214V-42.4h-7.155V-5.988L95.789-2.6l1.15,7.091,17.823-3.194v15.97h7.155V.017Z" transform="translate(388 1405.204)" fill="url(#linear-gradient)"/>
    <ellipse id="Ellipse_17" data-name="Ellipse 17" cx="5.639" cy="6.203" rx="5.639" ry="6.203" transform="translate(417.132 1338.685)" fill="url(#linear-gradient-2)"/>
    <circle id="Ellipse_18" data-name="Ellipse 18" cx="6.203" cy="6.203" r="6.203" transform="translate(479.164 1338.685)" fill="url(#linear-gradient-2)"/>
  </g>
</svg>
