<svg xmlns="http://www.w3.org/2000/svg" xmlns:xlink="http://www.w3.org/1999/xlink" width="290.561" height="66.386" viewBox="0 0 290.561 66.386">
  <defs>
    <clipPath id="clip-path">
      <rect id="Rectangle_103" data-name="Rectangle 103" width="127.422" height="66.386" fill="none"/>
    </clipPath>
  </defs>
  <g id="exhibitor_support_sp" transform="translate(-44.439 -2426.689)">
    <text id="_内容により_見積り" data-name="※内容により
　見積り" transform="translate(268 2443.382)" font-size="10" font-family="NotoSansJP-Regular, Noto Sans JP" letter-spacing="0.05em"><tspan x="0" y="12">※内容により</tspan><tspan x="0" y="30">　見積り</tspan></text>
    <g id="Group_210" data-name="Group 210" transform="translate(-784.876 1072.689)">
      <text id="円_" data-name="円〜" transform="translate(961.876 1404.193)" font-size="40" font-family="NotoSansJP-Bold, Noto Sans JP" font-weight="700" letter-spacing="0.06em"><tspan x="0" y="0">円〜</tspan></text>
      <g id="Group_170" data-name="Group 170" transform="translate(829.315 1354)">
        <g id="Group_169" data-name="Group 169" transform="translate(0 0)" clip-path="url(#clip-path)">
          <path id="Path_252" data-name="Path 252" d="M22.943.261V7.506H7.7V22a8.684,8.684,0,0,1,2.717-1.773,9.226,9.226,0,0,1,3.7-.717,8.779,8.779,0,0,1,6.377,2.377q2.452,2.377,2.454,7.131V42.9A11.735,11.735,0,0,1,22,47.73a11.29,11.29,0,0,1-2.528,3.622,10.822,10.822,0,0,1-3.661,2.3,12.268,12.268,0,0,1-8.679,0,10.8,10.8,0,0,1-3.661-2.3A11.317,11.317,0,0,1,.944,47.73,11.735,11.735,0,0,1,0,42.9V40.636H7.7V42.6a4.124,4.124,0,0,0,1.094,3.056,3.83,3.83,0,0,0,2.829,1.094,3.4,3.4,0,0,0,2.68-1.058,4.271,4.271,0,0,0,.944-2.942v-12.6a3.925,3.925,0,0,0-1.02-2.717,3.348,3.348,0,0,0-2.6-1.131,3.693,3.693,0,0,0-1.659.338,4.313,4.313,0,0,0-1.132.793,3.2,3.2,0,0,0-.681.982c-.251.454-.4.729-.452.829H.906V.261Z" transform="translate(0 0.191)" fill="#1a1311"/>
          <path id="Path_253" data-name="Path 253" d="M18.8,25.4h8.476v7.406q0,6.3-1.474,9.361A11.45,11.45,0,0,1,19.759,47.8L18.1,43.529a7.446,7.446,0,0,0,3.612-2.781,9.839,9.839,0,0,0,1.177-4.994H18.8Z" transform="translate(13.241 18.582)" fill="#1a1311"/>
          <path id="Path_254" data-name="Path 254" d="M26.6,11.546a11.707,11.707,0,0,1,.944-4.829,11.335,11.335,0,0,1,2.528-3.624,10.885,10.885,0,0,1,3.661-2.3,12.293,12.293,0,0,1,8.679,0,10.937,10.937,0,0,1,3.66,2.3A11.335,11.335,0,0,1,48.6,6.717a11.735,11.735,0,0,1,.944,4.829V43.091a11.735,11.735,0,0,1-.944,4.829,11.29,11.29,0,0,1-2.528,3.622,10.855,10.855,0,0,1-3.66,2.3,12.268,12.268,0,0,1-8.679,0,10.8,10.8,0,0,1-3.661-2.3,11.29,11.29,0,0,1-2.528-3.622,11.707,11.707,0,0,1-.944-4.829Zm7.7,31.545a3.8,3.8,0,0,0,1.055,2.755,3.922,3.922,0,0,0,5.435,0,3.812,3.812,0,0,0,1.056-2.755V11.546a3.815,3.815,0,0,0-1.056-2.755,3.922,3.922,0,0,0-5.435,0A3.806,3.806,0,0,0,34.3,11.546Z" transform="translate(19.463 0)" fill="#1a1311"/>
          <path id="Path_255" data-name="Path 255" d="M43.471,11.546a11.707,11.707,0,0,1,.944-4.829,11.335,11.335,0,0,1,2.528-3.624A10.885,10.885,0,0,1,50.6.791a12.293,12.293,0,0,1,8.679,0,10.936,10.936,0,0,1,3.66,2.3A11.335,11.335,0,0,1,65.47,6.717a11.735,11.735,0,0,1,.944,4.829V43.091a11.735,11.735,0,0,1-.944,4.829,11.29,11.29,0,0,1-2.528,3.622,10.855,10.855,0,0,1-3.66,2.3,12.268,12.268,0,0,1-8.679,0,10.8,10.8,0,0,1-3.66-2.3,11.29,11.29,0,0,1-2.528-3.622,11.707,11.707,0,0,1-.944-4.829Zm7.7,31.545a3.8,3.8,0,0,0,1.055,2.755,3.922,3.922,0,0,0,5.435,0,3.812,3.812,0,0,0,1.056-2.755V11.546a3.815,3.815,0,0,0-1.056-2.755,3.922,3.922,0,0,0-5.435,0,3.806,3.806,0,0,0-1.055,2.755Z" transform="translate(31.801 0)" fill="#1a1311"/>
          <path id="Path_256" data-name="Path 256" d="M60.338,11.546a11.707,11.707,0,0,1,.944-4.829A11.335,11.335,0,0,1,63.81,3.093,10.885,10.885,0,0,1,67.47.791a12.293,12.293,0,0,1,8.679,0,10.937,10.937,0,0,1,3.66,2.3,11.335,11.335,0,0,1,2.528,3.624,11.736,11.736,0,0,1,.944,4.829V43.091a11.736,11.736,0,0,1-.944,4.829,11.29,11.29,0,0,1-2.528,3.622,10.855,10.855,0,0,1-3.66,2.3,12.268,12.268,0,0,1-8.679,0,10.8,10.8,0,0,1-3.661-2.3,11.29,11.29,0,0,1-2.528-3.622,11.707,11.707,0,0,1-.944-4.829Zm7.7,31.545a3.8,3.8,0,0,0,1.055,2.755,3.922,3.922,0,0,0,5.435,0,3.812,3.812,0,0,0,1.056-2.755V11.546a3.815,3.815,0,0,0-1.056-2.755,3.922,3.922,0,0,0-5.435,0,3.806,3.806,0,0,0-1.055,2.755Z" transform="translate(44.14 0)" fill="#1a1311"/>
        </g>
      </g>
    </g>
  </g>
</svg>
