<svg xmlns="http://www.w3.org/2000/svg" xmlns:xlink="http://www.w3.org/1999/xlink" width="342" height="76.646" viewBox="0 0 342 76.646">
  <defs>
    <linearGradient id="linear-gradient" x1="0.5" y1="4.922" x2="0.5" y2="-0.289" gradientUnits="objectBoundingBox">
      <stop offset="0" stop-color="#65b6eb"/>
      <stop offset="1" stop-color="#006bb4"/>
    </linearGradient>
    <linearGradient id="linear-gradient-2" x1="0.5" y1="1.051" x2="0.5" y2="-0.707" xlink:href="#linear-gradient"/>
    <linearGradient id="linear-gradient-3" x1="0.499" y1="-0.016" x2="0.499" y2="1.798" gradientUnits="objectBoundingBox">
      <stop offset="0" stop-color="#dd9611"/>
      <stop offset="1" stop-color="#c73b19"/>
    </linearGradient>
    <linearGradient id="linear-gradient-5" x1="0.5" y1="0.049" x2="0.5" y2="0.984" xlink:href="#linear-gradient-3"/>
    <linearGradient id="linear-gradient-6" x1="0.501" y1="1.04" x2="0.501" y2="-0.329" xlink:href="#linear-gradient"/>
    <linearGradient id="linear-gradient-7" x1="0.501" y1="-0.007" x2="0.501" y2="0.972" xlink:href="#linear-gradient-3"/>
    <linearGradient id="linear-gradient-8" x1="0.501" y1="1.024" x2="0.501" y2="-0.06" xlink:href="#linear-gradient"/>
    <linearGradient id="linear-gradient-9" x1="0.5" y1="-1.269" x2="0.5" y2="0.936" xlink:href="#linear-gradient-3"/>
    <linearGradient id="linear-gradient-10" x1="0.499" y1="1.015" x2="0.499" y2="-0.396" xlink:href="#linear-gradient"/>
    <linearGradient id="linear-gradient-11" x1="0.502" y1="1.028" x2="0.502" y2="-0.383" xlink:href="#linear-gradient"/>
    <linearGradient id="linear-gradient-12" x1="0.499" y1="0.007" x2="0.499" y2="0.972" xlink:href="#linear-gradient-3"/>
    <linearGradient id="linear-gradient-13" x1="0.5" y1="2.33" x2="0.5" y2="-0.91" xlink:href="#linear-gradient"/>
    <linearGradient id="linear-gradient-14" x1="0.499" y1="0.015" x2="0.499" y2="2.163" xlink:href="#linear-gradient-3"/>
    <linearGradient id="linear-gradient-15" x1="0.5" y1="2.33" x2="0.5" y2="-0.91" xlink:href="#linear-gradient"/>
    <linearGradient id="linear-gradient-16" x1="0.502" y1="-0.007" x2="0.502" y2="0.97" xlink:href="#linear-gradient-3"/>
    <linearGradient id="linear-gradient-17" x1="0.502" y1="5.385" x2="0.502" y2="-0.16" xlink:href="#linear-gradient"/>
    <linearGradient id="linear-gradient-18" x1="0" y1="-0.877" x2="1" y2="-0.71" xlink:href="#linear-gradient-3"/>
    <linearGradient id="linear-gradient-19" x1="0.888" y1="1" x2="0" y2="1" gradientUnits="objectBoundingBox">
      <stop offset="0" stop-color="#65b6eb"/>
      <stop offset="0.548" stop-color="#0871b8"/>
      <stop offset="0.62" stop-color="#0770b7"/>
      <stop offset="1" stop-color="#006bb4"/>
    </linearGradient>
  </defs>
  <g id="heading_sp" transform="translate(-16 -197)">
    <g id="mintokumesse" transform="translate(15.1 196.5)">
      <g id="Group_156" data-name="Group 156" transform="translate(0.9 0.5)">
        <rect id="Rectangle_85" data-name="Rectangle 85" width="6.578" height="8.149" transform="translate(107.749 1.129)" fill="url(#linear-gradient)"/>
        <path id="Path_215" data-name="Path 215" d="M226.978,47.036V32.8H220.4V47.036a9.92,9.92,0,0,0,9.916,9.916h4.025V50.374h-4.025A3.341,3.341,0,0,1,226.978,47.036Z" transform="translate(-112.651 -16.944)" fill="url(#linear-gradient-2)"/>
        <rect id="Rectangle_86" data-name="Rectangle 86" width="6.234" height="6.578" transform="translate(101.515 9.278)" fill="url(#linear-gradient-3)"/>
        <rect id="Rectangle_87" data-name="Rectangle 87" width="6.774" height="6.578" transform="translate(114.327 9.278)" fill="url(#linear-gradient-3)"/>
        <rect id="Rectangle_88" data-name="Rectangle 88" width="6.578" height="6.578" transform="translate(107.749 9.278)" fill="#2b5d7c"/>
        <path id="Path_216" data-name="Path 216" d="M268.178,34.312a8.967,8.967,0,0,1,8.934-8.934V18.8a15.512,15.512,0,1,0,0,31.024V43.246A8.935,8.935,0,0,1,268.178,34.312Z" transform="translate(-133.626 -9.817)" fill="url(#linear-gradient-5)"/>
        <path id="Path_217" data-name="Path 217" d="M293.2,18.8v6.578a8.934,8.934,0,0,1,0,17.868v6.578a15.512,15.512,0,1,0,0-31.024Z" transform="translate(-149.714 -9.817)" fill="url(#linear-gradient-6)"/>
        <path id="Path_218" data-name="Path 218" d="M353.5,44.046l4.909-5.007L366.9,51.95h7.756l-11.83-17.476L374.657,22.3h-8.2L353.5,35.652Z" transform="translate(-180.414 -11.599)" fill="url(#linear-gradient-7)"/>
        <rect id="Rectangle_89" data-name="Rectangle 89" width="6.578" height="39.173" transform="translate(166.508 1.129)" fill="url(#linear-gradient-8)"/>
        <path id="Path_219" data-name="Path 219" d="M448.6,67.534v1.522h6.578V55.9A13.548,13.548,0,0,1,448.6,67.534Z" transform="translate(-228.83 -28.705)" fill="url(#linear-gradient-9)"/>
        <path id="Path_220" data-name="Path 220" d="M420.4,45.764a6.913,6.913,0,0,1-6.921-6.921V22.3H406.9V38.843a13.576,13.576,0,0,0,13.548,13.548,13.2,13.2,0,0,0,6.922-1.914V38.794A7,7,0,0,1,420.4,45.764Z" transform="translate(-207.6 -11.599)" fill="url(#linear-gradient-10)"/>
        <path id="Path_221" data-name="Path 221" d="M448.6,22.3V50.477a13.548,13.548,0,0,0,6.578-11.634V22.3Z" transform="translate(-228.83 -11.599)" fill="#2b5d7c"/>
        <path id="Path_222" data-name="Path 222" d="M59.56,21.5A13.538,13.538,0,0,0,49.3,26.213a13.354,13.354,0,0,1,3.289,8.836,6.921,6.921,0,0,1,13.843,0V51.591H73.01V35A13.419,13.419,0,0,0,59.56,21.5Z" transform="translate(-25.541 -11.191)" fill="url(#linear-gradient-11)"/>
        <path id="Path_223" data-name="Path 223" d="M162.621,21.5a13.2,13.2,0,0,0-6.921,1.914V35a6.921,6.921,0,1,1,13.843,0V51.542h6.578V35A13.492,13.492,0,0,0,162.621,21.5Z" transform="translate(-79.711 -11.191)" fill="url(#linear-gradient-12)"/>
        <path id="Path_224" data-name="Path 224" d="M148.778,23.822V22.3H142.2V35.407A13.527,13.527,0,0,1,148.778,23.822Z" transform="translate(-72.838 -11.599)" fill="url(#linear-gradient-13)"/>
        <path id="Path_225" data-name="Path 225" d="M142.2,36.985V53.528h6.578V25.4A13.527,13.527,0,0,0,142.2,36.985Z" transform="translate(-72.838 -13.177)" fill="#2b5d7c"/>
        <path id="Path_226" data-name="Path 226" d="M21.321,21.5A13.2,13.2,0,0,0,14.4,23.414V35a6.921,6.921,0,0,1,13.843,0,13.354,13.354,0,0,1,3.289-8.836A13.48,13.48,0,0,0,21.321,21.5Z" transform="translate(-7.773 -11.191)" fill="url(#linear-gradient-14)"/>
        <path id="Path_227" data-name="Path 227" d="M42.6,39.836V56.379h6.578V39.836A13.354,13.354,0,0,0,45.889,31,13.546,13.546,0,0,0,42.6,39.836Z" transform="translate(-22.13 -16.028)" fill="#2b5d7c"/>
        <path id="Path_228" data-name="Path 228" d="M7.478,23.822V22.3H.9V35.407A13.527,13.527,0,0,1,7.478,23.822Z" transform="translate(-0.9 -11.599)" fill="url(#linear-gradient-15)"/>
        <path id="Path_229" data-name="Path 229" d="M.9,36.985V53.528H7.478V25.4A13.527,13.527,0,0,0,.9,36.985Z" transform="translate(-0.9 -13.177)" fill="#2b5d7c"/>
        <rect id="Rectangle_90" data-name="Rectangle 90" width="6.578" height="29.699" transform="translate(54.537 10.701)" fill="url(#linear-gradient-16)"/>
        <circle id="Ellipse_9" data-name="Ellipse 9" cx="3.829" cy="3.829" r="3.829" transform="translate(54.047)" fill="url(#linear-gradient-17)"/>
      </g>
      <g id="Group_158" data-name="Group 158" transform="translate(241.238 23.67)">
        <g id="Group_157" data-name="Group 157">
          <path id="Path_230" data-name="Path 230" d="M517.45,48.848a4.178,4.178,0,0,1,1.276,3.142,2.4,2.4,0,0,1-.049.638L517.2,64.851a.13.13,0,0,1-.147.147h-3.436a.157.157,0,0,1-.147-.147l1.325-10.8.049-.54a2.187,2.187,0,0,0-2.258-2.5,5.092,5.092,0,0,0-3.878,1.816,8.2,8.2,0,0,0-2.013,4.32l-.933,7.805a.157.157,0,0,1-.147.147h-3.485a.157.157,0,0,1-.147-.147l1.325-10.8c.147-1.914-.638-2.945-2.307-3.043a4.555,4.555,0,0,0-2.7.884,7.768,7.768,0,0,0-2.111,2.258,8.365,8.365,0,0,0-1.031,2.994L494.231,65a.157.157,0,0,1-.147.147h-3.436A.157.157,0,0,1,490.5,65l1.964-16.347a.13.13,0,0,1,.147-.147H495.7a.13.13,0,0,1,.147.147l-.049,2.356a.138.138,0,0,0,.245.1A9.012,9.012,0,0,1,498.8,48.75a7.983,7.983,0,0,1,3.878-.982,5.234,5.234,0,0,1,3.191.884,3.611,3.611,0,0,1,1.374,2.307c0,.1.147.147.245.049a10.322,10.322,0,0,1,2.8-2.307,7.284,7.284,0,0,1,3.633-.933A4.188,4.188,0,0,1,517.45,48.848Z" transform="translate(-490.5 -47.719)" fill="#5a5758"/>
          <path id="Path_231" data-name="Path 231" d="M568.61,61.052l1.276,2.6c.049.049,0,.147-.049.2a11.586,11.586,0,0,1-2.553,1.031,10.994,10.994,0,0,1-2.8.393,9.092,9.092,0,0,1-6.381-2.209A8.093,8.093,0,0,1,555.7,56.88a8.791,8.791,0,0,1,1.129-4.369,8.616,8.616,0,0,1,3.289-3.485,9.881,9.881,0,0,1,5.2-1.325,8.209,8.209,0,0,1,5.449,1.816c1.473,1.178,2.405,3.093,2.847,5.792,0,.1-.049.147-.1.147l-13.3,3.682c-.1.049-.147.147-.1.2a4.476,4.476,0,0,0,1.914,2.013,5.776,5.776,0,0,0,2.9.736,6.334,6.334,0,0,0,3.534-1.178A.366.366,0,0,1,568.61,61.052Zm-6.431-9.621a5.536,5.536,0,0,0-2.013,2.111,5.869,5.869,0,0,0-.687,2.9v.393l9.916-2.8c.1,0,.147-.1.1-.2a4.753,4.753,0,0,0-1.571-2.307,4.148,4.148,0,0,0-2.749-.933A5.932,5.932,0,0,0,562.18,51.431Z" transform="translate(-523.694 -47.7)" fill="#5a5758"/>
          <path id="Path_232" data-name="Path 232" d="M598.207,64.686a6.524,6.524,0,0,1-2.945-2.209.149.149,0,0,1,0-.2l1.669-1.816a.149.149,0,0,1,.2,0,5.788,5.788,0,0,0,4.516,2.16,2.9,2.9,0,0,0,2.062-.687,2.269,2.269,0,0,0,.687-1.522,1.558,1.558,0,0,0-.491-1.227,3.364,3.364,0,0,0-1.031-.736c-.393-.2-1.08-.442-2.062-.835-2.454-.982-3.682-2.5-3.682-4.516a5.426,5.426,0,0,1,.589-2.405,5.213,5.213,0,0,1,1.964-2.062,6.407,6.407,0,0,1,3.387-.835,11.827,11.827,0,0,1,3.142.442,6.3,6.3,0,0,1,2.749,1.62.149.149,0,0,1,0,.2l-1.571,2.013a.219.219,0,0,1-.245,0,4.441,4.441,0,0,0-1.62-1.227,5.2,5.2,0,0,0-2.062-.442,2.536,2.536,0,0,0-1.865.638,2.057,2.057,0,0,0-.687,1.424,1.7,1.7,0,0,0,.736,1.374,5.33,5.33,0,0,0,1.571.835,7.889,7.889,0,0,0,1.227.442,8.1,8.1,0,0,1,2.749,1.816,3.8,3.8,0,0,1,.982,2.7,5.569,5.569,0,0,1-.687,2.6,5.689,5.689,0,0,1-2.16,2.16,7.05,7.05,0,0,1-3.682.884A8.061,8.061,0,0,1,598.207,64.686Z" transform="translate(-543.817 -47.751)" fill="#5a5758"/>
          <path id="Path_233" data-name="Path 233" d="M630.607,64.686a6.523,6.523,0,0,1-2.945-2.209.149.149,0,0,1,0-.2l1.669-1.816a.149.149,0,0,1,.2,0,5.789,5.789,0,0,0,4.516,2.16,2.9,2.9,0,0,0,2.062-.687,2.269,2.269,0,0,0,.687-1.522,1.558,1.558,0,0,0-.491-1.227,3.363,3.363,0,0,0-1.031-.736c-.393-.2-1.08-.442-2.062-.835-2.454-.982-3.682-2.5-3.682-4.516a5.426,5.426,0,0,1,.589-2.405,5.213,5.213,0,0,1,1.964-2.062,6.407,6.407,0,0,1,3.387-.835,11.828,11.828,0,0,1,3.142.442,6.3,6.3,0,0,1,2.749,1.62.149.149,0,0,1,0,.2l-1.571,2.013a.219.219,0,0,1-.245,0,4.44,4.44,0,0,0-1.62-1.227,5.2,5.2,0,0,0-2.062-.442,2.537,2.537,0,0,0-1.865.638,2.057,2.057,0,0,0-.687,1.424,1.7,1.7,0,0,0,.736,1.374,5.329,5.329,0,0,0,1.571.835,7.891,7.891,0,0,0,1.227.442,8.1,8.1,0,0,1,2.749,1.816,3.8,3.8,0,0,1,.982,2.7,5.57,5.57,0,0,1-.687,2.6,5.689,5.689,0,0,1-2.16,2.16,7.05,7.05,0,0,1-3.682.884A8.183,8.183,0,0,1,630.607,64.686Z" transform="translate(-560.312 -47.751)" fill="#5a5758"/>
          <path id="Path_234" data-name="Path 234" d="M674.01,61.052l1.276,2.6c.049.049,0,.147-.049.2a11.586,11.586,0,0,1-2.553,1.031,10.994,10.994,0,0,1-2.8.393,9.092,9.092,0,0,1-6.381-2.209A8.093,8.093,0,0,1,661.1,56.88a8.791,8.791,0,0,1,1.129-4.369,8.615,8.615,0,0,1,3.289-3.485,9.881,9.881,0,0,1,5.2-1.325,8.209,8.209,0,0,1,5.449,1.816c1.473,1.178,2.405,3.093,2.847,5.792,0,.1-.049.147-.1.147l-13.3,3.682c-.1.049-.147.147-.1.2a4.476,4.476,0,0,0,1.914,2.013,5.776,5.776,0,0,0,2.9.736,6.334,6.334,0,0,0,3.534-1.178A.367.367,0,0,1,674.01,61.052Zm-6.431-9.621a5.537,5.537,0,0,0-2.013,2.111,5.869,5.869,0,0,0-.687,2.9v.393l9.916-2.8c.1,0,.147-.1.1-.2a4.753,4.753,0,0,0-1.571-2.307,4.148,4.148,0,0,0-2.749-.933A6.076,6.076,0,0,0,667.58,51.431Z" transform="translate(-577.355 -47.7)" fill="#5a5758"/>
        </g>
      </g>
    </g>
    <rect id="Rectangle_111" data-name="Rectangle 111" width="87" height="5" transform="translate(358 268.793) rotate(180)" fill="url(#linear-gradient-18)"/>
    <rect id="Rectangle_112" data-name="Rectangle 112" width="93.5" height="5" transform="translate(110.5 268.793) rotate(180)" fill="url(#linear-gradient-19)"/>
    <g id="Group_189" data-name="Group 189" transform="translate(-372.257 -43)">
      <path id="Path_58" data-name="Path 58" d="M155.926,79.24h-2.371V73.261a2.44,2.44,0,0,0-.169-1.084.876.876,0,0,0-.847-.406,1.452,1.452,0,0,0-.991.449,2.163,2.163,0,0,0-.635.957V79.24h-2.371V73.261a2.88,2.88,0,0,0-.136-1.084.782.782,0,0,0-.8-.406,1.514,1.514,0,0,0-.992.441,2.082,2.082,0,0,0-.652.948v6.08h-2.353v-9.5h2.353v1.185a2.962,2.962,0,0,1,2.474-1.338,2.119,2.119,0,0,1,2.133,1.372,3.246,3.246,0,0,1,2.659-1.372q2.694,0,2.694,3.048Z" transform="translate(350.301 236.949)" fill="#5a5759"/>
      <path id="Path_59" data-name="Path 59" d="M162.925,79.292H160.5V71.874h-1.964V69.79h4.387Zm.152-10.84h-2.693V65.589h2.693Z" transform="translate(350.495 236.897)" fill="#5a5759"/>
      <path id="Path_60" data-name="Path 60" d="M175.221,79.24H172.8V73.617a2.654,2.654,0,0,0-.237-1.287,1.209,1.209,0,0,0-1.136-.542,2.288,2.288,0,0,0-1.49.643,2.847,2.847,0,0,0-.863,1.237V79.24h-2.406v-9.5h2.406V70.89a3.893,3.893,0,0,1,1.236-.915,3.959,3.959,0,0,1,1.727-.406,3.136,3.136,0,0,1,2.346.855,3.452,3.452,0,0,1,.839,2.515Z" transform="translate(350.601 236.948)" fill="#5a5759"/>
      <path id="Path_61" data-name="Path 61" d="M185.13,71.854h-2.743v4.285a1.321,1.321,0,0,0,.186.864,1.244,1.244,0,0,0,.83.186h1.677v2.083h-2.506a2.992,2.992,0,0,1-2.05-.533,2.73,2.73,0,0,1-.559-1.991V71.854h-2.1V69.771h2.1V67.128h2.423v2.643h2.743Z" transform="translate(350.747 236.917)" fill="#5a5759"/>
      <path id="Path_62" data-name="Path 62" d="M196.633,74.481a5.131,5.131,0,0,1-1.211,3.667,4.866,4.866,0,0,1-6.547.025,5.072,5.072,0,0,1-1.27-3.692,5.013,5.013,0,0,1,1.27-3.675,4.353,4.353,0,0,1,3.269-1.237,4.3,4.3,0,0,1,3.253,1.237,5.1,5.1,0,0,1,1.236,3.675m-2.4,0q0-2.811-2.084-2.811-2.1,0-2.1,2.811,0,2.829,2.1,2.828,2.083,0,2.084-2.828" transform="translate(350.874 236.948)" fill="#5a5759"/>
      <path id="Path_63" data-name="Path 63" d="M202.31,79.292h-2.422V65.573h2.422v7.995l3.76-3.777h3.268l-4.132,3.979,4.15,5.522h-2.981l-2.812-3.93-1.253,1.22Z" transform="translate(351.034 236.896)" fill="#5a5759"/>
      <path id="Path_64" data-name="Path 64" d="M220.491,79.238h-2.422V78.086a4.028,4.028,0,0,1-2.947,1.321,3.117,3.117,0,0,1-2.346-.864,3.483,3.483,0,0,1-.838-2.523V69.737h2.421v5.622a2.715,2.715,0,0,0,.221,1.27,1.174,1.174,0,0,0,1.135.559,2.288,2.288,0,0,0,1.49-.643,2.568,2.568,0,0,0,.864-1.237V69.737h2.422Z" transform="translate(351.191 236.951)" fill="#5a5759"/>
      <path id="Path_65" data-name="Path 65" d="M240.6,77.412a47.113,47.113,0,0,0-5.183-3.116,12.688,12.688,0,0,1-8.52,5.4V77.429a10.759,10.759,0,0,0,6.385-4.167,36.143,36.143,0,0,0-5.4-1.931V68.961a47.434,47.434,0,0,1,6.454,2.286,19.854,19.854,0,0,0,1.354-5.674h2.457a21.032,21.032,0,0,1-1.626,6.69,41.159,41.159,0,0,1,4.081,2.321Z" transform="translate(351.385 236.896)" fill="#5a5759"/>
      <path id="Path_66" data-name="Path 66" d="M247.183,73.777h-2.32a39.4,39.4,0,0,0-1.339-5.912h2.22a41.738,41.738,0,0,1,1.44,5.912m8.638-5.708q0,5.352-2.489,8.215-2.339,2.711-7.081,3.438V77.537q3.946-.813,5.607-3.15,1.524-2.152,1.524-6.335v-.236h2.439Zm-4.471,5.573h-2.337a45.113,45.113,0,0,0-1.253-5.911h2.219a41.944,41.944,0,0,1,1.372,5.911" transform="translate(351.602 236.925)" fill="#5a5759"/>
      <path id="Path_67" data-name="Path 67" d="M273.791,67.794a8.292,8.292,0,0,1-2.032,5,7.475,7.475,0,0,1-4.252,2.389V72.961a6.052,6.052,0,0,0,1.83-1.085,4.915,4.915,0,0,0,1.422-1.829h-6.589v5.488a1.569,1.569,0,0,0,.423,1.245,2.316,2.316,0,0,0,1.49.364h7.486v2.27H265.8a4.625,4.625,0,0,1-3.184-.881,3.481,3.481,0,0,1-.881-2.642V70.047h-2.286V67.794h2.286V65.372h2.439v2.422Z" transform="translate(351.809 236.894)" fill="#5a5759"/>
    </g>
  </g>
</svg>
