<svg id="mintokumesse_title02_sp" xmlns="http://www.w3.org/2000/svg" xmlns:xlink="http://www.w3.org/1999/xlink" width="238.383" height="20.678" viewBox="0 0 238.383 20.678">
  <defs>
    <clipPath id="clip-path">
      <rect id="Rectangle_82" data-name="Rectangle 82" width="238.383" height="20.678" fill="#65b6eb"/>
    </clipPath>
  </defs>
  <g id="Group_146" data-name="Group 146" transform="translate(0 0)" clip-path="url(#clip-path)">
    <path id="Path_165" data-name="Path 165" d="M0,10.339A35.1,35.1,0,0,1,.2,5.585,5.756,5.756,0,0,1,.865,3.641a6.941,6.941,0,0,1,2.3-2.5A6.638,6.638,0,0,1,7.038,0,6.766,6.766,0,0,1,13.2,3.655a4.763,4.763,0,0,1,.688,1.939,40.337,40.337,0,0,1,.175,4.744,40.406,40.406,0,0,1-.175,4.716,4.772,4.772,0,0,1-.69,1.968,6.544,6.544,0,0,1-2.242,2.483,6.866,6.866,0,0,1-3.917,1.172,6.759,6.759,0,0,1-3.877-1.172,6.749,6.749,0,0,1-2.3-2.483c-.143-.307-.275-.6-.391-.879A5.741,5.741,0,0,1,.2,15.055,35.018,35.018,0,0,1,0,10.339m2.984,0A24.466,24.466,0,0,0,3.2,14.408a3.433,3.433,0,0,0,.772,1.719,3.51,3.51,0,0,0,1.246,1.021,3.418,3.418,0,0,0,1.814.461,3.593,3.593,0,0,0,1.853-.461,3.336,3.336,0,0,0,1.192-1.021,3.637,3.637,0,0,0,.8-1.719,26.517,26.517,0,0,0,.2-4.069,27.129,27.129,0,0,0-.2-4.1,3.615,3.615,0,0,0-.8-1.691A3.6,3.6,0,0,0,8.886,3.5a4.228,4.228,0,0,0-1.853-.434A4.013,4.013,0,0,0,5.218,3.5,3.789,3.789,0,0,0,3.973,4.55,3.406,3.406,0,0,0,3.2,6.242a25.029,25.029,0,0,0-.217,4.1" transform="translate(0 0)" fill="#65b6eb"/>
    <path id="Path_166" data-name="Path 166" d="M1.423,8.091H0V5.86H1.423V3.948A3.847,3.847,0,0,1,2.532.907,4.073,4.073,0,0,1,5.246,0H7.068V2.733H5.457Q4.184,2.692,4.24,3.94V5.86H7.068V8.091H4.24V20.343H1.423Z" transform="translate(19.252 0.168)" fill="#65b6eb"/>
    <path id="Path_167" data-name="Path 167" d="M1.421,8.091H0V5.86H1.421V3.948A3.853,3.853,0,0,1,2.53.907,4.073,4.073,0,0,1,5.244,0H7.068V2.733H5.457Q4.181,2.692,4.238,3.94V5.86h2.83V8.091H4.238V20.343H1.421Z" transform="translate(30.39 0.168)" fill="#65b6eb"/>
    <path id="Path_168" data-name="Path 168" d="M0,0H2.817V16.618c0,.662.351.991,1.056.991h.975v2.734H3.592a3.964,3.964,0,0,1-2.539-.792A3.2,3.2,0,0,1,0,16.84Z" transform="translate(41.999 0.168)" fill="#65b6eb"/>
    <path id="Path_169" data-name="Path 169" d="M0,0H2.817V2.9H0ZM0,5.859H2.817V20.342H0Z" transform="translate(51.772 0.168)" fill="#65b6eb"/>
    <path id="Path_170" data-name="Path 170" d="M0,.182H2.817V1.716H2.87A4.467,4.467,0,0,1,6.516,0,4.728,4.728,0,0,1,9.7,1.27a5,5,0,0,1,1.5,3.767v9.627H8.385V6.031A3.165,3.165,0,0,0,7.6,3.712,2.616,2.616,0,0,0,5.615,2.9a2.663,2.663,0,0,0-2,.811,3.135,3.135,0,0,0-.8,2.319v8.634H0Z" transform="translate(60.691 5.846)" fill="#65b6eb"/>
    <path id="Path_171" data-name="Path 171" d="M2.817,8.524a3.449,3.449,0,0,0,.973,2.653,3.19,3.19,0,0,0,2.38.921,4.147,4.147,0,0,0,3.069-1.41l2.043,1.8a6.527,6.527,0,0,1-5.053,2.343A7.088,7.088,0,0,1,4.066,14.5a5.186,5.186,0,0,1-1.026-.488,5,5,0,0,1-.987-.656,5.759,5.759,0,0,1-1.445-2.26A9.187,9.187,0,0,1,0,7.465,10.4,10.4,0,0,1,.527,3.893,6.228,6.228,0,0,1,1.878,1.6,5.015,5.015,0,0,1,3.756.377,5.854,5.854,0,0,1,5.782,0,5.742,5.742,0,0,1,9.849,1.632a6.046,6.046,0,0,1,1.716,4.494v2.4Zm5.932-2.4a3.766,3.766,0,0,0-.881-2.565,2.794,2.794,0,0,0-2.085-.827A2.8,2.8,0,0,0,3.7,3.561a3.961,3.961,0,0,0-.879,2.565Z" transform="translate(77.396 5.846)" fill="#65b6eb"/>
    <path id="Path_172" data-name="Path 172" d="M0,0H12.589V2.9H2.984v5.82h8.2v2.733h-8.2v5.987h9.605v2.9H0Z" transform="translate(104.053 0.168)" fill="#65b6eb"/>
    <path id="Path_173" data-name="Path 173" d="M.2,0H3.578L6.36,4.682,9.157,0h3.377L7.789,7.088l4.933,7.395H9.358l-3-4.822L3.377,14.483H0L4.794,7.088Z" transform="translate(121.187 6.028)" fill="#65b6eb"/>
    <path id="Path_174" data-name="Path 174" d="M0,0H2.817V7.395H2.87A4.466,4.466,0,0,1,6.516,5.679,4.72,4.72,0,0,1,9.7,6.948a5,5,0,0,1,1.5,3.767v9.627H8.386V11.709A3.171,3.171,0,0,0,7.6,9.39a2.62,2.62,0,0,0-1.987-.81,2.663,2.663,0,0,0-2,.81,3.136,3.136,0,0,0-.8,2.319v8.633H0Z" transform="translate(138.799 0.168)" fill="#65b6eb"/>
    <path id="Path_175" data-name="Path 175" d="M0,0H2.817V2.9H0ZM0,5.859H2.817V20.342H0Z" transform="translate(156.243 0.168)" fill="#65b6eb"/>
    <path id="Path_176" data-name="Path 176" d="M0,0H2.817V7.395A7.171,7.171,0,0,1,4.5,6.139a4,4,0,0,1,1.932-.461,4.32,4.32,0,0,1,3.769,1.9,3.853,3.853,0,0,1,.8,1.8,23.59,23.59,0,0,1,.2,3.711,23.185,23.185,0,0,1-.2,3.684,3.906,3.906,0,0,1-.8,1.855,4.253,4.253,0,0,1-1.527,1.34,4.79,4.79,0,0,1-5.86-1.135v1.512H0ZM5.587,8.58a2.487,2.487,0,0,0-1.5.406,2.375,2.375,0,0,0-.853,1.064A5.475,5.475,0,0,0,2.9,11.478a15.509,15.509,0,0,0,0,3.177,5.528,5.528,0,0,0,.337,1.47,2.376,2.376,0,0,0,.853,1.064,2.422,2.422,0,0,0,1.5.42,2.8,2.8,0,0,0,1.583-.391A2.232,2.232,0,0,0,8,16.181,5.615,5.615,0,0,0,8.36,14.7q.027-.783.026-1.609,0-.868-.026-1.694A5.588,5.588,0,0,0,8,9.965,2.068,2.068,0,0,0,7.17,8.929a3.063,3.063,0,0,0-1.583-.35" transform="translate(165.161 0.168)" fill="#65b6eb"/>
    <path id="Path_177" data-name="Path 177" d="M0,0H2.817V2.9H0ZM0,5.859H2.817V20.342H0Z" transform="translate(182.211 0.168)" fill="#65b6eb"/>
    <path id="Path_178" data-name="Path 178" d="M1.413,0H4.23V4.409H6.282V6.64H4.23v8.443c-.02.735.315,1.093,1,1.074H6.282v2.734H4.814a3.281,3.281,0,0,1-2.43-.947,3.407,3.407,0,0,1-.971-2.62V6.64H0V4.409H1.413Z" transform="translate(190.038 1.618)" fill="#65b6eb"/>
    <path id="Path_179" data-name="Path 179" d="M0,0H2.817V2.9H0ZM0,5.859H2.817V20.342H0Z" transform="translate(201.665 0.168)" fill="#65b6eb"/>
    <path id="Path_180" data-name="Path 180" d="M0,7.409A12.971,12.971,0,0,1,.367,3.887,5.1,5.1,0,0,1,1.529,1.86,5.3,5.3,0,0,1,3.15.569,5.865,5.865,0,0,1,5.785,0,5.97,5.97,0,0,1,8.475.572a5.059,5.059,0,0,1,1.567,1.3,4.576,4.576,0,0,1,1.186,2.023,14,14,0,0,1,.337,3.516,13.662,13.662,0,0,1-.337,3.488,5.014,5.014,0,0,1-1.19,2.079,4.376,4.376,0,0,1-.662.628,3.071,3.071,0,0,1-.9.6,5.487,5.487,0,0,1-2.689.628A5.363,5.363,0,0,1,3.15,14.2a5.373,5.373,0,0,1-1.622-1.228A5.628,5.628,0,0,1,.365,10.9,12.687,12.687,0,0,1,0,7.409m8.748.028a13.349,13.349,0,0,0-.136-2.268,2.718,2.718,0,0,0-.554-1.2,2.077,2.077,0,0,0-.921-.77A2.975,2.975,0,0,0,5.782,2.9,3.014,3.014,0,0,0,4.455,3.2a2.507,2.507,0,0,0-.947.77,3.4,3.4,0,0,0-.528,1.2,10.986,10.986,0,0,0-.164,2.24A10.659,10.659,0,0,0,2.98,9.62a3.686,3.686,0,0,0,.528,1.261,3.426,3.426,0,0,0,.947.741,2.9,2.9,0,0,0,1.328.308,2.864,2.864,0,0,0,1.356-.308,2.661,2.661,0,0,0,.921-.741A2.942,2.942,0,0,0,8.613,9.62a12.507,12.507,0,0,0,.136-2.184" transform="translate(210.018 5.846)" fill="#65b6eb"/>
    <path id="Path_181" data-name="Path 181" d="M0,.182H2.817V1.716H2.87A4.467,4.467,0,0,1,6.516,0,4.728,4.728,0,0,1,9.7,1.27a5,5,0,0,1,1.5,3.767v9.627H8.385V6.031A3.165,3.165,0,0,0,7.6,3.712,2.616,2.616,0,0,0,5.615,2.9a2.663,2.663,0,0,0-2,.811,3.135,3.135,0,0,0-.8,2.319v8.634H0Z" transform="translate(227.181 5.846)" fill="#65b6eb"/>
  </g>
</svg>
