<svg id="mintokumesse_title01_sp" xmlns="http://www.w3.org/2000/svg" xmlns:xlink="http://www.w3.org/1999/xlink" width="265.962" height="18.283" viewBox="0 0 265.962 18.283">
  <defs>
    <clipPath id="clip-path">
      <rect id="Rectangle_84" data-name="Rectangle 84" width="265.962" height="18.283" fill="#5a5758"/>
    </clipPath>
  </defs>
  <path id="Path_198" data-name="Path 198" d="M7.481,3.71h.047l2.542,7.932H4.939ZM6.385,0,0,18.134H2.819l1.349-4.056H10.83l1.361,4.056H15L8.613,0Z" transform="translate(0 0)" fill="#5a5758"/>
  <g id="Group_154" data-name="Group 154" transform="translate(0 0)">
    <g id="Group_153" data-name="Group 153" clip-path="url(#clip-path)">
      <path id="Path_199" data-name="Path 199" d="M27.185,0H29.7V6.592a6.319,6.319,0,0,1,1.5-1.119,3.557,3.557,0,0,1,1.722-.411A3.848,3.848,0,0,1,36.28,6.753a3.437,3.437,0,0,1,.709,1.6,20.822,20.822,0,0,1,.181,3.309,20.732,20.732,0,0,1-.181,3.283,3.475,3.475,0,0,1-.71,1.654,3.794,3.794,0,0,1-1.36,1.194,4.27,4.27,0,0,1-2,.485,4.216,4.216,0,0,1-3.225-1.5v1.347h-2.51Zm4.98,7.648a2.22,2.22,0,0,0-1.338.362,2.12,2.12,0,0,0-.759.949,4.91,4.91,0,0,0-.3,1.273,13.94,13.94,0,0,0-.071,1.436q0,.686.071,1.4a4.953,4.953,0,0,0,.3,1.31,2.116,2.116,0,0,0,.759.949,2.164,2.164,0,0,0,1.338.374,2.486,2.486,0,0,0,1.41-.35,1.979,1.979,0,0,0,.735-.923,4.937,4.937,0,0,0,.325-1.323q.024-.7.024-1.435,0-.774-.024-1.511a4.9,4.9,0,0,0-.325-1.273,1.837,1.837,0,0,0-.735-.924,2.733,2.733,0,0,0-1.41-.311" transform="translate(-7.942 0)" fill="#5a5758"/>
      <path id="Path_200" data-name="Path 200" d="M47.57,13.755a11.653,11.653,0,0,1,.326-3.14,4.568,4.568,0,0,1,1.036-1.806,4.747,4.747,0,0,1,1.446-1.15,5.214,5.214,0,0,1,2.349-.508,5.323,5.323,0,0,1,2.4.51,4.523,4.523,0,0,1,1.4,1.157,4.105,4.105,0,0,1,1.057,1.8,12.555,12.555,0,0,1,.3,3.134,12.2,12.2,0,0,1-.3,3.109,4.463,4.463,0,0,1-1.06,1.854,3.986,3.986,0,0,1-.59.559,2.734,2.734,0,0,1-.807.535,4.893,4.893,0,0,1-2.4.56,5.141,5.141,0,0,1-3.793-1.654,5.012,5.012,0,0,1-1.036-1.854,11.349,11.349,0,0,1-.325-3.109m7.8.025a12.091,12.091,0,0,0-.12-2.022,2.423,2.423,0,0,0-.5-1.073,1.861,1.861,0,0,0-.82-.687,2.657,2.657,0,0,0-1.208-.262A2.694,2.694,0,0,0,51.541,10a2.254,2.254,0,0,0-.845.687,3.059,3.059,0,0,0-.471,1.073,9.908,9.908,0,0,0-.145,2,9.614,9.614,0,0,0,.145,1.971A3.312,3.312,0,0,0,50.7,16.85a3.072,3.072,0,0,0,.845.661,2.581,2.581,0,0,0,1.184.275,2.545,2.545,0,0,0,1.208-.275,2.378,2.378,0,0,0,.82-.661,2.617,2.617,0,0,0,.5-1.123,11.329,11.329,0,0,0,.12-1.947" transform="translate(-13.897 -2.089)" fill="#5a5758"/>
      <path id="Path_201" data-name="Path 201" d="M68.813,7.379h2.509v7.7a2.811,2.811,0,0,0,.711,2.042,2.352,2.352,0,0,0,1.783.735,2.313,2.313,0,0,0,1.771-.735,2.845,2.845,0,0,0,.7-2.042v-7.7H78.8v12.91H76.287v-1.38h-.049A3.969,3.969,0,0,1,73,20.438a4.164,4.164,0,0,1-2.8-1.167,4.084,4.084,0,0,1-1.384-3.3Z" transform="translate(-20.103 -2.156)" fill="#5a5758"/>
      <path id="Path_202" data-name="Path 202" d="M90.3,1.827h2.51v3.93h1.831V7.746H92.813v7.527q-.027.983.891.958h.94v2.437H93.333a2.924,2.924,0,0,1-2.165-.845,3.038,3.038,0,0,1-.866-2.336V7.746H89.042V5.757H90.3Z" transform="translate(-26.013 -0.534)" fill="#5a5758"/>
      <path id="Path_203" data-name="Path 203" d="M114.85,7.312h2.515V8.68h.048a4.182,4.182,0,0,1,3.371-1.53,4.823,4.823,0,0,1,2.164.461,6.446,6.446,0,0,1,1.481,1.231A5.091,5.091,0,0,1,128.5,7.15a4.43,4.43,0,0,1,2.935,1.133,4.34,4.34,0,0,1,1.368,3.358v8.581h-2.512v-7.7a2.773,2.773,0,0,0-.722-2.068,2.515,2.515,0,0,0-1.86-.722,2.559,2.559,0,0,0-1.873.722,2.72,2.72,0,0,0-.747,2.068v7.7h-2.51v-7.7a2.776,2.776,0,0,0-.721-2.068,2.561,2.561,0,0,0-1.873-.722,2.518,2.518,0,0,0-1.86.722,2.694,2.694,0,0,0-.759,2.068v7.7H114.85Z" transform="translate(-33.552 -2.089)" fill="#5a5758"/>
      <path id="Path_204" data-name="Path 204" d="M147.891,0h2.51V2.586h-2.51Zm0,5.223h2.51v12.91h-2.51Z" transform="translate(-43.205 0)" fill="#5a5758"/>
      <path id="Path_205" data-name="Path 205" d="M158.852,7.312h2.51V8.68h.047a3.983,3.983,0,0,1,3.251-1.53A4.209,4.209,0,0,1,167.5,8.283a4.45,4.45,0,0,1,1.336,3.358v8.581h-2.509v-7.7a2.829,2.829,0,0,0-.7-2.068,2.336,2.336,0,0,0-1.772-.722,2.374,2.374,0,0,0-1.783.722,2.8,2.8,0,0,0-.711,2.068v7.7h-2.51Z" transform="translate(-46.407 -2.089)" fill="#5a5758"/>
      <path id="Path_206" data-name="Path 206" d="M180.08,1.827h2.51v3.93h1.831V7.746H182.59v7.527q-.027.983.891.958h.94v2.437H183.11a2.924,2.924,0,0,1-2.165-.845,3.038,3.038,0,0,1-.866-2.336V7.746h-1.261V5.757h1.261Z" transform="translate(-52.24 -0.534)" fill="#5a5758"/>
      <path id="Path_207" data-name="Path 207" d="M192.041,13.755a11.653,11.653,0,0,1,.326-3.14A4.567,4.567,0,0,1,193.4,8.809a4.747,4.747,0,0,1,1.446-1.15,5.214,5.214,0,0,1,2.349-.508,5.323,5.323,0,0,1,2.4.51,4.523,4.523,0,0,1,1.4,1.157,4.1,4.1,0,0,1,1.057,1.8,12.555,12.555,0,0,1,.3,3.134,12.2,12.2,0,0,1-.3,3.109,4.463,4.463,0,0,1-1.06,1.854,3.986,3.986,0,0,1-.59.559,2.735,2.735,0,0,1-.807.535,4.893,4.893,0,0,1-2.4.56,5.141,5.141,0,0,1-3.793-1.654,5.012,5.012,0,0,1-1.036-1.854,11.35,11.35,0,0,1-.325-3.109m7.8.025a12.091,12.091,0,0,0-.12-2.022,2.423,2.423,0,0,0-.5-1.073A1.861,1.861,0,0,0,198.4,10a2.657,2.657,0,0,0-1.208-.262,2.7,2.7,0,0,0-1.184.262,2.254,2.254,0,0,0-.845.687,3.058,3.058,0,0,0-.471,1.073,9.909,9.909,0,0,0-.145,2,9.614,9.614,0,0,0,.145,1.971,3.311,3.311,0,0,0,.471,1.123,3.072,3.072,0,0,0,.845.661,2.581,2.581,0,0,0,1.184.275,2.545,2.545,0,0,0,1.208-.275,2.378,2.378,0,0,0,.82-.661,2.617,2.617,0,0,0,.5-1.123,11.329,11.329,0,0,0,.12-1.947" transform="translate(-56.103 -2.089)" fill="#5a5758"/>
      <path id="Path_208" data-name="Path 208" d="M213.388,0h2.51V11.28h.052l4.808-6.056h3.013l-4.314,5.038,4.905,7.873H221.2L217.875,12.1,215.9,14.416v3.718h-2.51Z" transform="translate(-62.339 0)" fill="#5a5758"/>
      <path id="Path_209" data-name="Path 209" d="M234.332,7.379h2.51v7.7a2.813,2.813,0,0,0,.711,2.042,2.353,2.353,0,0,0,1.783.735,2.316,2.316,0,0,0,1.772-.735,2.845,2.845,0,0,0,.7-2.042v-7.7h2.509v12.91h-2.509v-1.38h-.049a3.969,3.969,0,0,1-3.238,1.53,4.165,4.165,0,0,1-2.8-1.167,4.084,4.084,0,0,1-1.384-3.3Z" transform="translate(-68.457 -2.156)" fill="#5a5758"/>
      <path id="Path_210" data-name="Path 210" d="M267.9,7.312h2.515V8.68h.048a4.181,4.181,0,0,1,3.371-1.53A4.823,4.823,0,0,1,276,7.611a6.445,6.445,0,0,1,1.481,1.231,5.091,5.091,0,0,1,4.067-1.692,4.431,4.431,0,0,1,2.936,1.133,4.339,4.339,0,0,1,1.368,3.358v8.581h-2.511v-7.7a2.773,2.773,0,0,0-.722-2.068,2.515,2.515,0,0,0-1.86-.722,2.559,2.559,0,0,0-1.873.722,2.72,2.72,0,0,0-.747,2.068v7.7h-2.51v-7.7a2.776,2.776,0,0,0-.721-2.068,2.561,2.561,0,0,0-1.873-.722,2.518,2.518,0,0,0-1.86.722,2.694,2.694,0,0,0-.759,2.068v7.7H267.9Z" transform="translate(-78.264 -2.089)" fill="#5a5758"/>
      <path id="Path_211" data-name="Path 211" d="M302.519,14.749a3.076,3.076,0,0,0,.869,2.365,2.842,2.842,0,0,0,2.121.821,3.7,3.7,0,0,0,2.736-1.257l1.82,1.605a5.812,5.812,0,0,1-4.5,2.088,6.329,6.329,0,0,1-1.928-.3,4.589,4.589,0,0,1-.915-.435,4.432,4.432,0,0,1-.88-.585,5.143,5.143,0,0,1-1.288-2.015,8.164,8.164,0,0,1-.542-3.234,9.25,9.25,0,0,1,.47-3.184,5.566,5.566,0,0,1,1.2-2.039,4.471,4.471,0,0,1,1.674-1.1,5.222,5.222,0,0,1,1.806-.336,5.116,5.116,0,0,1,3.625,1.455,5.39,5.39,0,0,1,1.529,4.006v2.137Zm5.288-2.137a3.37,3.37,0,0,0-.784-2.287,2.713,2.713,0,0,0-3.719,0,3.537,3.537,0,0,0-.785,2.287Z" transform="translate(-87.644 -2.089)" fill="#5a5758"/>
      <path id="Path_212" data-name="Path 212" d="M321.629,16.28a5.154,5.154,0,0,0,3.963,1.656,3.271,3.271,0,0,0,1.775-.435,1.367,1.367,0,0,0,.689-1.219,1.081,1.081,0,0,0-.41-.97A2.11,2.11,0,0,0,326.523,15l-2.221-.2a4.159,4.159,0,0,1-2.57-1.1,3.366,3.366,0,0,1-1.038-2.574,3.536,3.536,0,0,1,1.363-2.985,5.28,5.28,0,0,1,3.3-1,9.684,9.684,0,0,1,1.554.112,7.567,7.567,0,0,1,1.29.348,7.359,7.359,0,0,1,2.074,1.305l-1.557,1.877a7.739,7.739,0,0,0-1.534-.892,4.99,4.99,0,0,0-1.835-.314,2.435,2.435,0,0,0-1.654.436,1.425,1.425,0,0,0-.495,1.121.884.884,0,0,0,.374.76,2.133,2.133,0,0,0,1.28.461l2.075.162a3.83,3.83,0,0,1,2.825,1.22,4.207,4.207,0,0,1,.808,2.652,3.389,3.389,0,0,1-1.482,2.9,6.283,6.283,0,0,1-3.7,1.071,7.822,7.822,0,0,1-5.508-2.312Z" transform="translate(-93.448 -2.089)" fill="#5a5758"/>
      <path id="Path_213" data-name="Path 213" d="M341.973,16.28a5.155,5.155,0,0,0,3.963,1.656,3.271,3.271,0,0,0,1.775-.435,1.367,1.367,0,0,0,.689-1.219,1.081,1.081,0,0,0-.41-.97A2.11,2.11,0,0,0,346.867,15l-2.221-.2a4.159,4.159,0,0,1-2.57-1.1,3.366,3.366,0,0,1-1.038-2.574A3.536,3.536,0,0,1,342.4,8.146a5.279,5.279,0,0,1,3.3-1,9.685,9.685,0,0,1,1.554.112,7.567,7.567,0,0,1,1.29.348,7.359,7.359,0,0,1,2.074,1.305l-1.557,1.877a7.739,7.739,0,0,0-1.534-.892,4.991,4.991,0,0,0-1.835-.314,2.435,2.435,0,0,0-1.654.436,1.425,1.425,0,0,0-.495,1.121.884.884,0,0,0,.374.76,2.133,2.133,0,0,0,1.28.461l2.075.162a3.83,3.83,0,0,1,2.825,1.22,4.207,4.207,0,0,1,.808,2.652,3.389,3.389,0,0,1-1.482,2.9,6.283,6.283,0,0,1-3.7,1.071,7.822,7.822,0,0,1-5.508-2.312Z" transform="translate(-99.391 -2.089)" fill="#5a5758"/>
      <path id="Path_214" data-name="Path 214" d="M363.673,14.749a3.076,3.076,0,0,0,.869,2.365,2.842,2.842,0,0,0,2.121.821,3.7,3.7,0,0,0,2.736-1.257l1.82,1.605a5.812,5.812,0,0,1-4.5,2.088,6.33,6.33,0,0,1-1.928-.3,4.589,4.589,0,0,1-.915-.435,4.433,4.433,0,0,1-.88-.585,5.144,5.144,0,0,1-1.288-2.015,8.165,8.165,0,0,1-.542-3.234,9.25,9.25,0,0,1,.47-3.184,5.565,5.565,0,0,1,1.2-2.039,4.471,4.471,0,0,1,1.674-1.1,5.222,5.222,0,0,1,1.806-.336,5.116,5.116,0,0,1,3.625,1.455,5.39,5.39,0,0,1,1.529,4.006v2.137Zm5.288-2.137a3.37,3.37,0,0,0-.784-2.287,2.713,2.713,0,0,0-3.719,0,3.537,3.537,0,0,0-.785,2.287Z" transform="translate(-105.51 -2.089)" fill="#5a5758"/>
    </g>
  </g>
</svg>
