<svg xmlns="http://www.w3.org/2000/svg" xmlns:xlink="http://www.w3.org/1999/xlink" width="233.826" height="20.678" viewBox="0 0 233.826 20.678">
  <defs>
    <clipPath id="clip-path">
      <rect id="Rectangle_83" data-name="Rectangle 83" width="233.826" height="20.678" fill="#dd9611"/>
    </clipPath>
  </defs>
  <g id="mintokumesse_title03_sp" transform="translate(-769 14.002)">
    <g id="Group_148" data-name="Group 148" transform="translate(769 -14.002)" clip-path="url(#clip-path)">
      <path id="Path_182" data-name="Path 182" d="M0,10.339A35.1,35.1,0,0,1,.2,5.585,5.738,5.738,0,0,1,.865,3.641a6.926,6.926,0,0,1,2.3-2.5A6.636,6.636,0,0,1,7.038,0,6.767,6.767,0,0,1,13.2,3.655a4.788,4.788,0,0,1,.688,1.939,40.53,40.53,0,0,1,.175,4.744,40.6,40.6,0,0,1-.175,4.716,4.808,4.808,0,0,1-.69,1.968,6.558,6.558,0,0,1-2.242,2.483,6.866,6.866,0,0,1-3.917,1.172,6.757,6.757,0,0,1-3.877-1.172,6.735,6.735,0,0,1-2.3-2.483q-.216-.461-.391-.879A5.811,5.811,0,0,1,.2,15.055,35.018,35.018,0,0,1,0,10.339m2.984,0A24.592,24.592,0,0,0,3.2,14.408a3.45,3.45,0,0,0,.771,1.719,3.519,3.519,0,0,0,1.246,1.021,3.42,3.42,0,0,0,1.814.461,3.6,3.6,0,0,0,1.855-.461,3.326,3.326,0,0,0,1.191-1.021,3.63,3.63,0,0,0,.8-1.719,26.371,26.371,0,0,0,.2-4.069,26.979,26.979,0,0,0-.2-4.1,3.607,3.607,0,0,0-.8-1.691A3.591,3.591,0,0,0,8.886,3.5a4.229,4.229,0,0,0-1.855-.434A4.015,4.015,0,0,0,5.217,3.5,3.8,3.8,0,0,0,3.971,4.55,3.424,3.424,0,0,0,3.2,6.242a25.158,25.158,0,0,0-.216,4.1" transform="translate(0 0)" fill="#dd9611"/>
      <path id="Path_183" data-name="Path 183" d="M0,.182H2.817V1.716H2.87A4.467,4.467,0,0,1,6.516,0,4.725,4.725,0,0,1,9.7,1.27a5,5,0,0,1,1.5,3.767v9.627H8.385V6.031A3.168,3.168,0,0,0,7.6,3.712,2.618,2.618,0,0,0,5.615,2.9a2.663,2.663,0,0,0-2,.811,3.135,3.135,0,0,0-.8,2.319v8.634H0Z" transform="translate(20.103 5.846)" fill="#dd9611"/>
      <path id="Path_184" data-name="Path 184" d="M0,0H2.817V16.618q0,.993,1.056.991h.976v2.734H3.593a3.962,3.962,0,0,1-2.539-.792A3.2,3.2,0,0,1,0,16.841Z" transform="translate(37.442 0.168)" fill="#dd9611"/>
      <path id="Path_185" data-name="Path 185" d="M0,0H2.817V2.9H0ZM0,5.859H2.817V20.342H0Z" transform="translate(47.216 0.168)" fill="#dd9611"/>
      <path id="Path_186" data-name="Path 186" d="M0,.182H2.817V1.716H2.87A4.467,4.467,0,0,1,6.516,0,4.725,4.725,0,0,1,9.7,1.27a5,5,0,0,1,1.5,3.767v9.627H8.385V6.031A3.168,3.168,0,0,0,7.6,3.712,2.618,2.618,0,0,0,5.615,2.9a2.663,2.663,0,0,0-2,.811,3.135,3.135,0,0,0-.8,2.319v8.634H0Z" transform="translate(56.135 5.846)" fill="#dd9611"/>
      <path id="Path_187" data-name="Path 187" d="M2.817,8.524a3.45,3.45,0,0,0,.974,2.653,3.191,3.191,0,0,0,2.38.921,4.152,4.152,0,0,0,3.07-1.41l2.042,1.8a6.525,6.525,0,0,1-5.053,2.343A7.09,7.09,0,0,1,4.067,14.5a5.164,5.164,0,0,1-1.026-.488,4.948,4.948,0,0,1-.987-.656,5.76,5.76,0,0,1-1.446-2.26A9.187,9.187,0,0,1,0,7.465,10.381,10.381,0,0,1,.527,3.893,6.25,6.25,0,0,1,1.878,1.6,5.028,5.028,0,0,1,3.756.377,5.853,5.853,0,0,1,5.782,0,5.742,5.742,0,0,1,9.849,1.632a6.046,6.046,0,0,1,1.716,4.494v2.4Zm5.932-2.4a3.77,3.77,0,0,0-.88-2.565,2.8,2.8,0,0,0-2.086-.827A2.8,2.8,0,0,0,3.7,3.561a3.957,3.957,0,0,0-.88,2.565Z" transform="translate(72.839 5.846)" fill="#dd9611"/>
      <path id="Path_188" data-name="Path 188" d="M0,0H12.588V2.9h-9.6v5.82h8.2v2.733h-8.2v5.987h9.6v2.9H0Z" transform="translate(99.498 0.168)" fill="#dd9611"/>
      <path id="Path_189" data-name="Path 189" d="M.2,0H3.579L6.361,4.682,9.157,0h3.377L7.789,7.088l4.933,7.395H9.359l-3-4.822L3.377,14.483H0L4.795,7.088Z" transform="translate(116.63 6.028)" fill="#dd9611"/>
      <path id="Path_190" data-name="Path 190" d="M0,0H2.817V7.395H2.87A4.466,4.466,0,0,1,6.516,5.679,4.724,4.724,0,0,1,9.7,6.948a5,5,0,0,1,1.5,3.767v9.627H8.385V11.709A3.169,3.169,0,0,0,7.6,9.39a2.619,2.619,0,0,0-1.986-.81,2.664,2.664,0,0,0-2,.81,3.136,3.136,0,0,0-.8,2.319v8.633H0Z" transform="translate(134.243 0.168)" fill="#dd9611"/>
      <path id="Path_191" data-name="Path 191" d="M0,0H2.817V2.9H0ZM0,5.859H2.817V20.342H0Z" transform="translate(151.686 0.168)" fill="#dd9611"/>
      <path id="Path_192" data-name="Path 192" d="M0,0H2.817V7.395A7.1,7.1,0,0,1,4.5,6.139a3.987,3.987,0,0,1,1.932-.461,4.314,4.314,0,0,1,3.767,1.9,3.853,3.853,0,0,1,.8,1.8,23.265,23.265,0,0,1,.2,3.711,23.185,23.185,0,0,1-.2,3.684,3.9,3.9,0,0,1-.8,1.855,4.243,4.243,0,0,1-1.525,1.34,4.792,4.792,0,0,1-2.242.544,4.732,4.732,0,0,1-3.618-1.679v1.512H0ZM5.587,8.58a2.488,2.488,0,0,0-1.5.406,2.371,2.371,0,0,0-.851,1.064A5.458,5.458,0,0,0,2.9,11.478a15.83,15.83,0,0,0,0,3.177,5.511,5.511,0,0,0,.339,1.47,2.372,2.372,0,0,0,.851,1.064,2.422,2.422,0,0,0,1.5.42,2.791,2.791,0,0,0,1.581-.391,2.206,2.206,0,0,0,.825-1.036A5.457,5.457,0,0,0,8.358,14.7q.027-.783.028-1.609,0-.868-.028-1.694a5.421,5.421,0,0,0-.365-1.428,2.046,2.046,0,0,0-.825-1.036,3.055,3.055,0,0,0-1.581-.35" transform="translate(160.605 0.168)" fill="#dd9611"/>
      <path id="Path_193" data-name="Path 193" d="M0,0H2.817V2.9H0ZM0,5.859H2.817V20.342H0Z" transform="translate(177.654 0.168)" fill="#dd9611"/>
      <path id="Path_194" data-name="Path 194" d="M1.413,0H4.23V4.409H6.285V6.64H4.23v8.443q-.027,1.1,1,1.074H6.285v2.734H4.814a3.281,3.281,0,0,1-2.428-.947,3.408,3.408,0,0,1-.973-2.62V6.64H0V4.409H1.413Z" transform="translate(185.481 1.618)" fill="#dd9611"/>
      <path id="Path_195" data-name="Path 195" d="M0,0H2.817V2.9H0ZM0,5.859H2.817V20.342H0Z" transform="translate(197.107 0.168)" fill="#dd9611"/>
      <path id="Path_196" data-name="Path 196" d="M0,7.409A13.051,13.051,0,0,1,.365,3.887,5.141,5.141,0,0,1,1.527,1.86,5.311,5.311,0,0,1,3.15.569,5.852,5.852,0,0,1,5.785,0,5.954,5.954,0,0,1,8.473.572a5.093,5.093,0,0,1,1.569,1.3,4.615,4.615,0,0,1,1.186,2.023,14.1,14.1,0,0,1,.337,3.516,13.645,13.645,0,0,1-.339,3.488,4.988,4.988,0,0,1-1.188,2.079,4.457,4.457,0,0,1-.662.628,3.083,3.083,0,0,1-.907.6,5.484,5.484,0,0,1-2.687.628A5.367,5.367,0,0,1,3.147,14.2a5.341,5.341,0,0,1-1.62-1.228A5.6,5.6,0,0,1,.365,10.9,12.687,12.687,0,0,1,0,7.409m8.748.028a13.579,13.579,0,0,0-.136-2.268,2.7,2.7,0,0,0-.556-1.2,2.077,2.077,0,0,0-.921-.77A2.966,2.966,0,0,0,5.782,2.9,3.014,3.014,0,0,0,4.455,3.2a2.514,2.514,0,0,0-.949.77,3.437,3.437,0,0,0-.528,1.2,11.177,11.177,0,0,0-.161,2.24A10.843,10.843,0,0,0,2.978,9.62a3.727,3.727,0,0,0,.528,1.261,3.437,3.437,0,0,0,.949.741,2.9,2.9,0,0,0,1.328.308,2.855,2.855,0,0,0,1.354-.308,2.661,2.661,0,0,0,.921-.741A2.92,2.92,0,0,0,8.613,9.62a12.725,12.725,0,0,0,.136-2.184" transform="translate(205.463 5.846)" fill="#dd9611"/>
      <path id="Path_197" data-name="Path 197" d="M0,.182H2.817V1.716H2.87A4.467,4.467,0,0,1,6.516,0,4.721,4.721,0,0,1,9.7,1.27a5,5,0,0,1,1.5,3.767v9.627H8.385V6.031A3.172,3.172,0,0,0,7.6,3.712,2.619,2.619,0,0,0,5.615,2.9a2.663,2.663,0,0,0-2,.811,3.135,3.135,0,0,0-.8,2.319v8.634H0Z" transform="translate(222.624 5.846)" fill="#dd9611"/>
    </g>
  </g>
</svg>
