<svg xmlns="http://www.w3.org/2000/svg" xmlns:xlink="http://www.w3.org/1999/xlink" width="55" height="55" viewBox="0 0 55 55">
  <defs>
    <clipPath id="clip-path">
      <rect id="Rectangle_3918" data-name="Rectangle 3918" width="33.909" height="32.323" transform="translate(0 0)" fill="none" stroke="#fff" stroke-width="1"/>
    </clipPath>
  </defs>
  <g id="Group_14841" data-name="Group 14841" transform="translate(-390 -3610)">
    <circle id="Ellipse_27" data-name="Ellipse 27" cx="27.5" cy="27.5" r="27.5" transform="translate(390 3610)" fill="#0b54f7"/>
    <g id="Group_14640" data-name="Group 14640" transform="translate(401.752 3622)">
      <g id="Group_14639" data-name="Group 14639" clip-path="url(#clip-path)">
        <path id="Path_831" data-name="Path 831" d="M22.3,8.165V30.648a1.191,1.191,0,0,1-1.176,1.176H1.676A1.185,1.185,0,0,1,.5,30.648V1.676A1.179,1.179,0,0,1,1.676.5H14.63" fill="none" stroke="#fff" stroke-linecap="round" stroke-linejoin="round" stroke-width="1"/>
        <path id="Path_832" data-name="Path 832" d="M22.3,8.165H15.806A1.179,1.179,0,0,1,14.63,6.989V.5Z" fill="none" stroke="#fff" stroke-linecap="round" stroke-linejoin="round" stroke-width="1"/>
        <path id="Path_833" data-name="Path 833" d="M26.463,4.431h4.2V26.22c0,4.344-4.2,4.345-4.2,0Z" fill="none" stroke="#fff" stroke-linecap="round" stroke-linejoin="round" stroke-width="1"/>
        <path id="Path_834" data-name="Path 834" d="M33.394,16l.015-8.139H26.438" fill="none" stroke="#fff" stroke-linecap="round" stroke-linejoin="round" stroke-width="1"/>
        <line id="Line_210" data-name="Line 210" y1="2.347" transform="translate(28.492 29.476)" fill="none" stroke="#fff" stroke-linecap="round" stroke-linejoin="round" stroke-width="1"/>
        <line id="Line_211" data-name="Line 211" x2="6.196" transform="translate(5.201 6.801)" fill="none" stroke="#fff" stroke-linecap="round" stroke-linejoin="round" stroke-width="1"/>
        <line id="Line_212" data-name="Line 212" x2="12.393" transform="translate(5.201 12.665)" fill="none" stroke="#fff" stroke-linecap="round" stroke-linejoin="round" stroke-width="1"/>
        <line id="Line_213" data-name="Line 213" x2="12.393" transform="translate(5.201 16.088)" fill="none" stroke="#fff" stroke-linecap="round" stroke-linejoin="round" stroke-width="1"/>
        <line id="Line_214" data-name="Line 214" x2="12.393" transform="translate(5.201 19.511)" fill="none" stroke="#fff" stroke-linecap="round" stroke-linejoin="round" stroke-width="1"/>
        <line id="Line_215" data-name="Line 215" x2="6.196" transform="translate(5.201 22.934)" fill="none" stroke="#fff" stroke-linecap="round" stroke-linejoin="round" stroke-width="1"/>
      </g>
    </g>
  </g>
</svg>
