<svg xmlns="http://www.w3.org/2000/svg" width="211.618" height="66" viewBox="0 0 211.618 66">
  <g id="Group_15065" data-name="Group 15065" transform="translate(-37.001 -159.21)">
    <path id="Path_779" data-name="Path 779" d="M216.292,19.162l-16.11-3.294V1.2A1.213,1.213,0,0,0,198.964,0h-1.643a1.173,1.173,0,0,0-1.171,1.2V38.3a1.173,1.173,0,0,0,1.171,1.2h1.643a1.215,1.215,0,0,0,1.22-1.2V19.9l16.11,3.294a.959.959,0,0,0,1.2-.975V20.581a1.511,1.511,0,0,0-1.2-1.416Z" transform="translate(-113.385 175)" fill="#fff"/>
    <path id="Path_780" data-name="Path 780" d="M33.175,4.363h-6.2V1.2A1.217,1.217,0,0,0,25.753,0H24.111a1.173,1.173,0,0,0-1.171,1.2V4.363H12.7V1.2A1.215,1.215,0,0,0,11.481,0H9.839A1.173,1.173,0,0,0,8.668,1.2V4.363H1.2A1.213,1.213,0,0,0,0,5.583V7.226A1.173,1.173,0,0,0,1.2,8.4H33.175a1.173,1.173,0,0,0,1.2-1.171V5.583A1.215,1.215,0,0,0,33.175,4.363Z" transform="translate(37.001 175)" fill="#fff"/>
    <path id="Path_781" data-name="Path 781" d="M91.474,64.9V49.427a1.213,1.213,0,0,0-1.22-1.2H88.611a1.173,1.173,0,0,0-1.171,1.2V64.9a1.173,1.173,0,0,0,1.171,1.2h1.643A1.215,1.215,0,0,0,91.474,64.9Z" transform="translate(-30.038 138.023)" fill="#fff"/>
    <path id="Path_782" data-name="Path 782" d="M105.376,48.62h-1.6a1.184,1.184,0,0,0-1.218,1.2V67.343c0,1.962-.282,3.4-1.078,4.309a3.92,3.92,0,0,1-2.907,1.2H97.31a1.215,1.215,0,0,0-1.22,1.2v1.533a1.213,1.213,0,0,0,1.22,1.2h1.314a7.506,7.506,0,0,0,5.91-2.585,9.11,9.11,0,0,0,2.016-6.32V49.817a1.146,1.146,0,0,0-1.174-1.2Z" transform="translate(-36.67 137.724)" fill="#fff"/>
    <path id="Path_783" data-name="Path 783" d="M13.216,48.23a7.808,7.808,0,0,0-6.05,2.585c-1.267,1.437-2.016,3.3-2.016,6.32V75.278a1.173,1.173,0,0,0,1.171,1.2H7.964a1.213,1.213,0,0,0,1.22-1.2V57.469c0-1.962.282-3.4,1.125-4.309a3.92,3.92,0,0,1,2.907-1.2,3.818,3.818,0,0,1,2.86,1.2c.842.861,1.136,2.2,1.167,4.006H12.77a1.173,1.173,0,0,0-1.2,1.171V59.98a1.215,1.215,0,0,0,1.2,1.22h4.477v2.811H12.77a1.173,1.173,0,0,0-1.2,1.171v1.643a1.215,1.215,0,0,0,1.2,1.22h4.445a5.365,5.365,0,0,1-1.059,3.306,3.986,3.986,0,0,1-2.942,1.2H12.8a1.221,1.221,0,0,0-1.234,1.2v1.533a1.221,1.221,0,0,0,1.234,1.2h.46A7.63,7.63,0,0,0,19.24,73.89,8.877,8.877,0,0,0,21.267,67.9h.012V57.136a9.114,9.114,0,0,0-2.016-6.32,7.878,7.878,0,0,0-6.047-2.585Z" transform="translate(33.053 138.023)" fill="#fff"/>
    <path id="Path_784" data-name="Path 784" d="M348.727,16.6H338.349a1.074,1.074,0,0,0-1.076,1.076v1.881a1.074,1.074,0,0,0,1.076,1.076h4.606L328.839,34.89a1.085,1.085,0,0,1-.765.32h-1.423a.43.43,0,0,1-.429-.429V1.076A1.074,1.074,0,0,0,325.146,0h-1.88a1.074,1.074,0,0,0-1.076,1.076V38.168a1.074,1.074,0,0,0,1.076,1.076h6.043a2.148,2.148,0,0,0,1.528-.637l14.932-15.088v4.536a1.074,1.074,0,0,0,1.076,1.076h1.88a1.074,1.074,0,0,0,1.076-1.076V17.676a1.074,1.074,0,0,0-1.076-1.076Z" transform="translate(-210.018 175)" fill="#fff"/>
    <text id="with" transform="translate(148.701 200.21)" fill="#fff" font-size="17" font-family="MyriadPro-Semibold, Myriad Pro" font-weight="600"><tspan x="0" y="0">with</tspan></text>
    <text id="VR" transform="translate(190.619 159.21)" fill="#fff" font-size="46" font-family="NotoSansJP-Medium, Noto Sans JP" font-weight="500"><tspan x="0" y="53">VR</tspan></text>
  </g>
</svg>
