<svg xmlns="http://www.w3.org/2000/svg" width="469.736" height="125" viewBox="0 0 469.736 125">
  <g id="Group_769" data-name="Group 769" transform="translate(-392 -4616.377)">
    <g id="Group_14702" data-name="Group 14702">
      <text id="VR" transform="translate(743.736 4616.377)" fill="#fff" font-size="86" font-family="NotoSansJP-Medium, Noto Sans JP" font-weight="500"><tspan x="0" y="100">VR</tspan></text>
      <g id="cloud_icon_03_Yoko" transform="translate(392 4635)">
        <g id="Group_740" data-name="Group 740">
          <path id="Path_779" data-name="Path 779" d="M247.018,48.393l-40.686-8.32V3.023A3.063,3.063,0,0,0,203.256,0h-4.148a2.963,2.963,0,0,0-2.958,3.023v93.7a2.963,2.963,0,0,0,2.958,3.023h4.148a3.068,3.068,0,0,0,3.082-3.023V50.267l40.686,8.32a2.422,2.422,0,0,0,3.023-2.463V51.975a3.817,3.817,0,0,0-3.023-3.577Z" transform="translate(-80.574)" fill="#fff"/>
          <path id="Path_780" data-name="Path 780" d="M83.781,11.018H68.126v-8A3.073,3.073,0,0,0,65.038,0H60.89a2.963,2.963,0,0,0-2.958,3.023v8H32.077v-8A3.068,3.068,0,0,0,29,0H24.847A2.963,2.963,0,0,0,21.89,3.023v8H3.023A3.064,3.064,0,0,0,0,14.1v4.148a2.963,2.963,0,0,0,3.023,2.958H83.781A2.963,2.963,0,0,0,86.8,18.248V14.1A3.068,3.068,0,0,0,83.781,11.018Z" fill="#fff"/>
          <path id="Path_781" data-name="Path 781" d="M97.628,90.342V51.253a3.064,3.064,0,0,0-3.082-3.023H90.4a2.963,2.963,0,0,0-2.958,3.023V90.342A2.963,2.963,0,0,0,90.4,93.364h4.148A3.068,3.068,0,0,0,97.628,90.342Z" transform="translate(-35.918 -19.812)" fill="#fff"/>
          <path id="Path_782" data-name="Path 782" d="M119.541,48.62h-4.03a2.99,2.99,0,0,0-3.076,3.023V95.905c0,4.955-.713,8.585-2.722,10.883a9.9,9.9,0,0,1-7.342,3.023h-3.2a3.068,3.068,0,0,0-3.082,3.023V116.7a3.064,3.064,0,0,0,3.082,3.023h3.317a18.956,18.956,0,0,0,14.925-6.529c3.076-3.624,5.091-8.343,5.091-15.962V51.643a2.894,2.894,0,0,0-2.964-3.023Z" transform="translate(-39.472 -19.972)" fill="#fff"/>
          <path id="Path_783" data-name="Path 783" d="M25.519,48.23c-6.517,0-11.843,2.54-15.279,6.529C7.041,58.388,5.15,63.1,5.15,70.721v45.818a2.963,2.963,0,0,0,2.958,3.023h4.148a3.064,3.064,0,0,0,3.082-3.023V71.563c0-4.955.713-8.585,2.84-10.883a9.9,9.9,0,0,1,7.342-3.023,9.642,9.642,0,0,1,7.224,3.023c2.127,2.174,2.87,5.556,2.946,10.117h-11.3a2.963,2.963,0,0,0-3.023,2.958V77.9a3.068,3.068,0,0,0,3.023,3.082H35.7v7.1H24.394a2.963,2.963,0,0,0-3.023,2.958v4.148a3.068,3.068,0,0,0,3.023,3.082H35.619c-.23,3.671-1,6.47-2.675,8.349a10.068,10.068,0,0,1-7.43,3.023H24.476a3.084,3.084,0,0,0-3.117,3.023v3.871a3.084,3.084,0,0,0,3.117,3.023h1.161a19.269,19.269,0,0,0,15.1-6.529c3-3.488,4.979-8.013,5.12-15.137h.029V70.721c0-7.619-2.015-12.332-5.091-15.962A19.9,19.9,0,0,0,25.519,48.23Z" transform="translate(-2.116 -19.812)" fill="#fff"/>
          <path id="Path_784" data-name="Path 784" d="M389.208,41.911H363a2.713,2.713,0,0,0-2.716,2.716v4.749A2.713,2.713,0,0,0,363,52.093h11.631L338.983,88.112a2.74,2.74,0,0,1-1.933.807h-3.594a1.085,1.085,0,0,1-1.084-1.084V2.716A2.713,2.713,0,0,0,329.655,0h-4.749a2.713,2.713,0,0,0-2.716,2.716V96.391a2.713,2.713,0,0,0,2.716,2.716h15.261a5.426,5.426,0,0,0,3.859-1.609l37.71-38.1V70.848a2.713,2.713,0,0,0,2.716,2.716H389.2a2.713,2.713,0,0,0,2.716-2.716V44.639a2.713,2.713,0,0,0-2.716-2.716Z" transform="translate(-132.349)" fill="#fff"/>
        </g>
        <text id="with" transform="translate(282.094 57.994)" fill="#fff" font-size="28" font-family="MyriadPro-Semibold, Myriad Pro" font-weight="600"><tspan x="0" y="0">with</tspan></text>
      </g>
    </g>
  </g>
</svg>
