<svg xmlns="http://www.w3.org/2000/svg" width="176.639" height="107.926" viewBox="0 0 176.639 107.926">
  <g id="Group_577" data-name="Group 577" transform="translate(0.652 0.652)">
    <g id="Group_642" data-name="Group 642">
      <path id="Path_681" data-name="Path 681" d="M96.588,102.689v-1.736A20.314,20.314,0,0,0,83.513,81.972L62.844,74.089" transform="translate(3.041 3.585)" fill="none" stroke="#0b54f7" stroke-linecap="round" stroke-linejoin="round" stroke-width="2"/>
      <line id="Line_101" data-name="Line 101" y1="9.34" transform="translate(85.209 96.933)" fill="none" stroke="#0b54f7" stroke-linecap="round" stroke-linejoin="round" stroke-width="2"/>
      <path id="Path_682" data-name="Path 682" d="M58.149,68.635l5.427,5.718L59.551,84.991l-11.87-8.879Z" transform="translate(2.307 3.321)" fill="none" stroke="#0b54f7" stroke-linecap="round" stroke-linejoin="round" stroke-width="2"/>
      <path id="Path_683" data-name="Path 683" d="M54.556,80.455l-3.019,6.954h-7.1l-3.019-6.954" transform="translate(2.004 3.893)" fill="none" stroke="#0b54f7" stroke-linecap="round" stroke-linejoin="round" stroke-width="2"/>
      <line id="Line_102" data-name="Line 102" y1="5.302" transform="translate(41.236 67.879)" fill="none" stroke="#0b54f7" stroke-linecap="round" stroke-linejoin="round" stroke-width="2"/>
      <line id="Line_103" data-name="Line 103" y1="5.302" transform="translate(58.741 67.879)" fill="none" stroke="#0b54f7" stroke-linecap="round" stroke-linejoin="round" stroke-width="2"/>
      <path id="Path_684" data-name="Path 684" d="M66.1,51.5A17.606,17.606,0,0,1,48.837,69.1,17.883,17.883,0,0,1,30.889,51.151V30.358a7.68,7.68,0,0,1,1.375-4.385l3.188-4.587,8.27,5.1A19.776,19.776,0,0,0,54.1,29.424h8.066A3.934,3.934,0,0,1,66.1,33.357Z" transform="translate(1.495 1.035)" fill="none" stroke="#0b54f7" stroke-linecap="round" stroke-linejoin="round" stroke-width="2"/>
      <path id="Path_685" data-name="Path 685" d="M31.147,47.723a5.561,5.561,0,0,1-5.561-5.561V39.919a5.561,5.561,0,0,1,5.561-5.561Z" transform="translate(1.238 1.662)" fill="none" stroke="#0b54f7" stroke-linecap="round" stroke-linejoin="round" stroke-width="2"/>
      <path id="Path_686" data-name="Path 686" d="M64.473,47.723a5.561,5.561,0,0,0,5.561-5.561V39.919a5.561,5.561,0,0,0-5.561-5.561Z" transform="translate(3.119 1.662)" fill="none" stroke="#0b54f7" stroke-linecap="round" stroke-linejoin="round" stroke-width="2"/>
      <path id="Path_687" data-name="Path 687" d="M26.939,37.465V21.324A6.325,6.325,0,0,1,33.265,15a1.588,1.588,0,0,0,1.587-1.588,4.86,4.86,0,0,1,4.861-4.86h16.17a11.154,11.154,0,0,1,8.768,4.259l2.862,3.64A11.151,11.151,0,0,1,69.9,23.343V36.629" transform="translate(1.303 0.414)" fill="none" stroke="#0b54f7" stroke-linecap="round" stroke-linejoin="round" stroke-width="2"/>
      <line id="Line_104" data-name="Line 104" x1="1.963" y2="14.3" transform="translate(44.474 91.302)" fill="none" stroke="#0b54f7" stroke-linecap="round" stroke-linejoin="round" stroke-width="2"/>
      <line id="Line_105" data-name="Line 105" x2="1.963" y2="14.3" transform="translate(53.54 91.302)" fill="none" stroke="#0b54f7" stroke-linecap="round" stroke-linejoin="round" stroke-width="2"/>
      <path id="Path_688" data-name="Path 688" d="M43.729,34.31S39.5,31.354,36.261,33.13" transform="translate(1.754 1.575)" fill="none" stroke="#0b54f7" stroke-linecap="round" stroke-linejoin="round" stroke-width="2"/>
      <path id="Path_689" data-name="Path 689" d="M46.78,38.414l-1.69,9.142a1.676,1.676,0,0,0,1.648,1.98h3.313" transform="translate(2.18 1.859)" fill="none" stroke="#0b54f7" stroke-linecap="round" stroke-linejoin="round" stroke-width="2"/>
      <circle id="Ellipse_31" data-name="Ellipse 31" cx="1.85" cy="1.85" r="1.85" transform="translate(40.19 40.852)" fill="none" stroke="#0b54f7" stroke-linecap="round" stroke-linejoin="round" stroke-width="2"/>
      <path id="Path_690" data-name="Path 690" d="M51.427,34.2s4.314-2.831,7.5-.961" transform="translate(2.488 1.577)" fill="none" stroke="#0b54f7" stroke-linecap="round" stroke-linejoin="round" stroke-width="2"/>
      <circle id="Ellipse_32" data-name="Ellipse 32" cx="1.85" cy="1.85" r="1.85" transform="translate(55.525 40.852)" fill="none" stroke="#0b54f7" stroke-linecap="round" stroke-linejoin="round" stroke-width="2"/>
      <path id="Path_691" data-name="Path 691" d="M42.882,53.034c0,1.678,2.14,3.04,4.78,3.04s4.781-1.362,4.781-3.04" transform="translate(2.075 2.566)" fill="none" stroke="#0b54f7" stroke-linecap="round" stroke-linejoin="round" stroke-width="2"/>
      <path id="Path_692" data-name="Path 692" d="M98.413,104.915V41.264a2.309,2.309,0,0,1,1.567-2.187l31.772-10.769a4.468,4.468,0,0,1,4.395.883l10.28,9.083a4.472,4.472,0,0,1,1.511,3.351v20.97" transform="translate(4.762 1.358)" fill="none" stroke="#0b54f7" stroke-linecap="round" stroke-linejoin="round" stroke-width="2"/>
      <line id="Line_106" data-name="Line 106" y2="75.9" transform="translate(138.968 30.373)" fill="none" stroke="#0b54f7" stroke-linecap="round" stroke-linejoin="round" stroke-width="2"/>
      <path id="Path_693" data-name="Path 693" d="M132.555,61h27.465V85.989" transform="translate(6.413 2.951)" fill="none" stroke="#0b54f7" stroke-linecap="round" stroke-linejoin="round" stroke-width="2"/>
      <line id="Line_107" data-name="Line 107" x2="36.018" transform="translate(138.968 98.169)" fill="none" stroke="#0b54f7" stroke-linecap="round" stroke-linejoin="round" stroke-width="2"/>
      <line id="Line_108" data-name="Line 108" x1="28.364" y2="9.615" transform="translate(110.604 38.031)" fill="none" stroke="#0b54f7" stroke-linecap="round" stroke-linejoin="round" stroke-width="2"/>
      <line id="Line_109" data-name="Line 109" y1="9.615" x2="28.364" transform="translate(110.604 46.797)" fill="none" stroke="#0b54f7" stroke-linecap="round" stroke-linejoin="round" stroke-width="2"/>
      <line id="Line_110" data-name="Line 110" x1="28.364" y2="9.615" transform="translate(110.604 56.14)" fill="none" stroke="#0b54f7" stroke-linecap="round" stroke-linejoin="round" stroke-width="2"/>
      <line id="Line_111" data-name="Line 111" y1="9.615" x2="28.364" transform="translate(110.604 65.483)" fill="none" stroke="#0b54f7" stroke-linecap="round" stroke-linejoin="round" stroke-width="2"/>
      <line id="Line_112" data-name="Line 112" x1="28.364" y2="9.615" transform="translate(110.604 74.826)" fill="none" stroke="#0b54f7" stroke-linecap="round" stroke-linejoin="round" stroke-width="2"/>
      <rect id="Rectangle_405" data-name="Rectangle 405" width="13.057" height="4.607" rx="1.617" transform="translate(146.172 70.22)" fill="none" stroke="#0b54f7" stroke-linecap="round" stroke-linejoin="round" stroke-width="2"/>
      <rect id="Rectangle_406" data-name="Rectangle 406" width="13.057" height="4.607" rx="1.617" transform="translate(146.172 78.982)" fill="none" stroke="#0b54f7" stroke-linecap="round" stroke-linejoin="round" stroke-width="2"/>
      <path id="Rectangle_407" data-name="Rectangle 407" d="M1.617,0H3.786A1.616,1.616,0,0,1,5.4,1.616V2.99A1.617,1.617,0,0,1,3.785,4.607H1.617A1.617,1.617,0,0,1,0,2.99V1.617A1.617,1.617,0,0,1,1.617,0Z" transform="translate(146.172 87.934)" fill="none" stroke="#0b54f7" stroke-linecap="round" stroke-linejoin="round" stroke-width="2"/>
      <path id="Path_694" data-name="Path 694" d="M105.5,102.113V91.032a.852.852,0,0,1,.6-.812l13.275-4.189a.851.851,0,0,1,1.108.811v15.272" transform="translate(5.104 4.16)" fill="none" stroke="#0b54f7" stroke-linecap="round" stroke-linejoin="round" stroke-width="2"/>
      <line id="Line_113" data-name="Line 113" y2="14.069" transform="translate(118.093 92.204)" fill="none" stroke="#0b54f7" stroke-linecap="round" stroke-linejoin="round" stroke-width="2"/>
      <path id="Path_695" data-name="Path 695" d="M161.239,102.689V92.221a6.866,6.866,0,1,1,13.732,0v7.885a2.583,2.583,0,0,1-2.582,2.583H2.062a1.729,1.729,0,0,1-1.73-1.729v-.007A20.314,20.314,0,0,1,13.407,81.972l20.67-7.883" transform="translate(0.016 3.585)" fill="none" stroke="#0b54f7" stroke-linecap="round" stroke-linejoin="round" stroke-width="2"/>
      <path id="Path_696" data-name="Path 696" d="M85.349,18.569l4.274,3.313L101.876,11.16" transform="translate(4.13 0.54)" fill="none" stroke="#0b54f7" stroke-linecap="round" stroke-linejoin="round" stroke-width="2"/>
      <path id="Path_697" data-name="Path 697" d="M94.3.332a16.145,16.145,0,0,0-11.53,27.455L78.15,37.863l8.133-7.37A16.148,16.148,0,1,0,94.3.332Z" transform="translate(3.781 0.016)" fill="none" stroke="#0b54f7" stroke-linecap="round" stroke-linejoin="round" stroke-width="2"/>
    </g>
  </g>
</svg>
