<?xml version="1.0" encoding="UTF-8"?>
<svg id="Layer_2" data-name="Layer 2" xmlns="http://www.w3.org/2000/svg" viewBox="0 0 274.13 118">
  <defs>
    <style>
      .cls-1 {
        fill: #29325c;
      }
    </style>
  </defs>
  <g id="_レイヤー_1" data-name="レイヤー 1">
    <g>
      <path class="cls-1" d="m8.35,2.24v9.34h-1.16V2.24h-2.53v-1.09h6.22v1.09h-2.53Z"/>
      <path class="cls-1" d="m11.75,8.35c0-1.97,1.45-3.43,3.44-3.43s3.44,1.45,3.44,3.43-1.47,3.41-3.44,3.41-3.44-1.44-3.44-3.41Zm1.16,0c0,1.6,1.13,2.41,2.28,2.41s2.28-.83,2.28-2.41-1.09-2.42-2.28-2.42-2.28.84-2.28,2.42Z"/>
      <path class="cls-1" d="m25.12,15.17h-1.13V5.08h1.13v.91c.77-.95,1.75-1.06,2.22-1.06,2.03,0,3.16,1.69,3.16,3.44s-1.14,3.39-3.11,3.39c-1.05,0-1.78-.47-2.27-1.09v4.5Zm4.22-6.8c0-1.6-1.08-2.44-2.13-2.44s-2.16.86-2.16,2.42c0,1.33.84,2.41,2.17,2.41s2.11-1.09,2.11-2.39Z"/>
      <path class="cls-1" d="m37.98,9.92c-.19.36-.47.75-.8,1.05-.59.53-1.33.8-2.16.8-1.56,0-3.21-.99-3.21-3.39,0-1.94,1.19-3.44,3.14-3.44,1.27,0,2.06.63,2.46,1.19.41.58.64,1.58.61,2.44h-5.05c.02,1.35.94,2.21,2.06,2.21.53,0,.95-.16,1.33-.47.3-.25.53-.58.67-.89l.94.52Zm-1.11-2.3c-.19-1.02-.95-1.69-1.91-1.69s-1.74.72-1.91,1.69h3.82Z"/>
      <path class="cls-1" d="m39.34,8.35c0-1.97,1.45-3.43,3.44-3.43s3.44,1.45,3.44,3.43-1.47,3.41-3.44,3.41-3.44-1.44-3.44-3.41Zm1.16,0c0,1.6,1.13,2.41,2.28,2.41s2.28-.83,2.28-2.41-1.09-2.42-2.28-2.42-2.28.84-2.28,2.42Z"/>
      <path class="cls-1" d="m49.06,15.17h-1.13V5.08h1.13v.91c.77-.95,1.75-1.06,2.22-1.06,2.03,0,3.16,1.69,3.16,3.44s-1.14,3.39-3.11,3.39c-1.05,0-1.78-.47-2.27-1.09v4.5Zm4.22-6.8c0-1.6-1.08-2.44-2.13-2.44s-2.16.86-2.16,2.42c0,1.33.84,2.41,2.17,2.41s2.11-1.09,2.11-2.39Z"/>
      <path class="cls-1" d="m57.29.17v11.4h-1.13V.17h1.13Z"/>
      <path class="cls-1" d="m65.17,9.92c-.19.36-.47.75-.8,1.05-.59.53-1.33.8-2.16.8-1.56,0-3.21-.99-3.21-3.39,0-1.94,1.19-3.44,3.14-3.44,1.27,0,2.06.63,2.46,1.19.41.58.64,1.58.61,2.44h-5.05c.02,1.35.94,2.21,2.06,2.21.53,0,.95-.16,1.33-.47.3-.25.53-.58.67-.89l.94.52Zm-1.11-2.3c-.19-1.02-.95-1.69-1.91-1.69s-1.74.72-1.91,1.69h3.82Z"/>
      <path class="cls-1" d="m67.66,10.17c.42,0,.78.36.78.78s-.36.78-.78.78-.78-.36-.78-.78.36-.78.78-.78Z"/>
      <path class="cls-1" d="m76.99,2.24v9.34h-1.16V2.24h-2.53v-1.09h6.22v1.09h-2.53Z"/>
      <path class="cls-1" d="m80.4,8.35c0-1.97,1.45-3.43,3.44-3.43s3.44,1.45,3.44,3.43-1.47,3.41-3.44,3.41-3.44-1.44-3.44-3.41Zm1.16,0c0,1.6,1.13,2.41,2.28,2.41s2.28-.83,2.28-2.41-1.09-2.42-2.28-2.42-2.28.84-2.28,2.42Z"/>
      <path class="cls-1" d="m92.96,5.08l1.92,4.41,2.03-4.91,2.02,4.91,1.94-4.41h1.25l-3.22,6.94-2-4.85-2,4.85-3.19-6.94h1.25Z"/>
      <path class="cls-1" d="m102.9,8.35c0-1.97,1.45-3.43,3.44-3.43s3.44,1.45,3.44,3.43-1.47,3.41-3.44,3.41-3.44-1.44-3.44-3.41Zm1.16,0c0,1.6,1.13,2.41,2.28,2.41s2.28-.83,2.28-2.41-1.09-2.42-2.28-2.42-2.28.84-2.28,2.42Z"/>
      <path class="cls-1" d="m111.5,5.08h1.13v.7c.11-.17.59-.86,1.47-.86.34,0,.72.12,1,.27l-.53,1.02c-.25-.17-.48-.22-.66-.22-.45,0-.73.19-.91.41-.19.25-.38.69-.38,1.75v3.43h-1.13v-6.49Z"/>
      <path class="cls-1" d="m117.25.17v7.32l2.38-2.41h1.47l-2.78,2.78,3.29,3.71h-1.47l-2.6-2.96-.28.28v2.67h-1.13V.17h1.13Z"/>
      <path class="cls-1" d="m123.45,10.17c.42,0,.78.36.78.78s-.36.78-.78.78-.78-.36-.78-.78.36-.78.78-.78Z"/>
      <path class="cls-1" d="m129.86,11.57l1.74-11.01,4,8.81,4.08-8.82,1.63,11.03h-1.19l-.99-7.26-3.55,7.7-3.5-7.7-1.03,7.26h-1.19Z"/>
      <path class="cls-1" d="m143.03,8.35c0-1.97,1.45-3.43,3.44-3.43s3.44,1.45,3.44,3.43-1.47,3.41-3.44,3.41-3.44-1.44-3.44-3.41Zm1.16,0c0,1.6,1.13,2.41,2.28,2.41s2.28-.83,2.28-2.41-1.09-2.42-2.28-2.42-2.28.84-2.28,2.42Z"/>
      <path class="cls-1" d="m151.62,5.08h1.13v.7c.11-.17.59-.86,1.47-.86.34,0,.72.12,1,.27l-.53,1.02c-.25-.17-.48-.22-.66-.22-.45,0-.73.19-.91.41-.19.25-.38.69-.38,1.75v3.43h-1.13v-6.49Z"/>
      <path class="cls-1" d="m162.01,9.92c-.19.36-.47.75-.8,1.05-.59.53-1.33.8-2.16.8-1.56,0-3.21-.99-3.21-3.39,0-1.94,1.19-3.44,3.14-3.44,1.27,0,2.06.63,2.46,1.19.41.58.64,1.58.61,2.44h-5.05c.02,1.35.94,2.21,2.06,2.21.53,0,.95-.16,1.33-.47.3-.25.53-.58.67-.89l.94.52Zm-1.11-2.3c-.19-1.02-.95-1.69-1.91-1.69s-1.74.72-1.91,1.69h3.82Z"/>
      <path class="cls-1" d="m168.58,6.12v5.46h-1.13v-5.46h-.63v-1.03h.63v-2.83c0-.59.05-1.34.63-1.83.31-.27.78-.42,1.3-.42.41,0,.67.09.8.14v1.09c-.23-.09-.5-.14-.74-.14-.25,0-.55.06-.72.34-.14.23-.14.59-.14.94v2.71h1.6v1.03h-1.6Z"/>
      <path class="cls-1" d="m171.17,5.08h1.13v.7c.11-.17.59-.86,1.47-.86.34,0,.72.12,1,.27l-.53,1.02c-.25-.17-.48-.22-.66-.22-.45,0-.73.19-.91.41-.19.25-.38.69-.38,1.75v3.43h-1.13v-6.49Z"/>
      <path class="cls-1" d="m181.56,9.92c-.19.36-.47.75-.8,1.05-.59.53-1.33.8-2.16.8-1.56,0-3.21-.99-3.21-3.39,0-1.94,1.19-3.44,3.14-3.44,1.27,0,2.06.63,2.46,1.19.41.58.64,1.58.61,2.44h-5.05c.02,1.35.94,2.21,2.06,2.21.53,0,.95-.16,1.33-.47.3-.25.53-.58.67-.89l.94.52Zm-1.11-2.3c-.19-1.02-.95-1.69-1.91-1.69s-1.74.72-1.91,1.69h3.82Z"/>
      <path class="cls-1" d="m189.08,9.92c-.19.36-.47.75-.8,1.05-.59.53-1.33.8-2.16.8-1.56,0-3.21-.99-3.21-3.39,0-1.94,1.19-3.44,3.14-3.44,1.27,0,2.06.63,2.46,1.19.41.58.64,1.58.61,2.44h-5.05c.02,1.35.94,2.21,2.06,2.21.53,0,.95-.16,1.33-.47.3-.25.53-.58.67-.89l.94.52Zm-1.11-2.3c-.19-1.02-.95-1.69-1.91-1.69s-1.74.72-1.91,1.69h3.82Z"/>
      <path class="cls-1" d="m195.82.17h1.13v11.4h-1.13v-.91c-.38.48-1.08,1.09-2.22,1.09-1.64,0-3.16-1.16-3.16-3.44s1.5-3.39,3.16-3.39c1.25,0,1.92.69,2.22,1.08V.17Zm-4.22,8.15c0,1.39.78,2.44,2.13,2.44s2.16-1.14,2.16-2.42c0-1.67-1.16-2.41-2.16-2.41-1.11,0-2.13.81-2.13,2.39Z"/>
      <path class="cls-1" d="m198.66,8.35c0-1.97,1.45-3.43,3.44-3.43s3.44,1.45,3.44,3.43-1.47,3.41-3.44,3.41-3.44-1.44-3.44-3.41Zm1.16,0c0,1.6,1.13,2.41,2.28,2.41s2.28-.83,2.28-2.41-1.09-2.42-2.28-2.42-2.28.84-2.28,2.42Z"/>
      <path class="cls-1" d="m207.26,5.08h1.13v.69c.36-.53.92-.84,1.61-.84,1.17,0,1.64.83,1.77,1.05.62-.99,1.52-1.05,1.96-1.05,1.92,0,2.11,1.61,2.11,2.53v4.11h-1.13v-3.94c0-.73-.09-1.7-1.16-1.7-1.3,0-1.44,1.25-1.44,2.03v3.61h-1.13v-3.85c0-.45.02-1.8-1.17-1.8-1.28,0-1.42,1.33-1.42,2.11v3.53h-1.13v-6.49Z"/>
      <path class="cls-1" d="m221.21,8.35c0-1.97,1.45-3.43,3.44-3.43s3.44,1.45,3.44,3.43-1.47,3.41-3.44,3.41-3.44-1.44-3.44-3.41Zm1.16,0c0,1.6,1.13,2.41,2.28,2.41s2.28-.83,2.28-2.41-1.09-2.42-2.28-2.42-2.28.84-2.28,2.42Z"/>
      <path class="cls-1" d="m230.97,6.12v5.46h-1.13v-5.46h-.63v-1.03h.63v-2.83c0-.59.05-1.34.63-1.83.31-.27.78-.42,1.3-.42.41,0,.67.09.8.14v1.09c-.23-.09-.5-.14-.74-.14-.25,0-.55.06-.72.34-.14.23-.14.59-.14.94v2.71h1.6v1.03h-1.6Z"/>
      <path class="cls-1" d="m242.29,6.9c-.59-.75-1.45-.97-2.03-.97-1.2,0-2.3.84-2.3,2.42s1.13,2.41,2.28,2.41c.67,0,1.5-.3,2.1-1.02v1.35c-.7.52-1.45.67-2.06.67-2.02,0-3.47-1.44-3.47-3.39s1.47-3.44,3.47-3.44c1.03,0,1.71.41,2.02.63v1.35Z"/>
      <path class="cls-1" d="m244.06.17h1.13v5.66c.2-.27.78-.91,1.86-.91.77,0,1.47.31,1.86.89.33.48.38,1.02.38,1.74v4.02h-1.13v-3.99c0-.39-.03-.84-.3-1.19-.22-.28-.56-.47-1.06-.47-.39,0-.81.11-1.14.5-.44.52-.47,1.28-.47,1.75v3.39h-1.13V.17Z"/>
      <path class="cls-1" d="m251,8.35c0-1.97,1.45-3.43,3.44-3.43s3.44,1.45,3.44,3.43-1.47,3.41-3.44,3.41-3.44-1.44-3.44-3.41Zm1.16,0c0,1.6,1.13,2.41,2.28,2.41s2.28-.83,2.28-2.41-1.09-2.42-2.28-2.42-2.28.84-2.28,2.42Z"/>
      <path class="cls-1" d="m262.27,6.58c-.16-.38-.49-.66-.91-.66s-.78.23-.78.73c0,.47.31.61,1.05.92.94.39,1.38.69,1.63,1,.28.34.34.69.34,1.05,0,1.36-.99,2.13-2.24,2.13-.27,0-1.72-.03-2.27-1.66l.97-.41c.12.34.5,1.06,1.31,1.06.74,0,1.06-.55,1.06-1.03,0-.61-.44-.81-1.05-1.08-.78-.34-1.28-.59-1.58-.95-.25-.31-.3-.63-.3-.95,0-1.14.8-1.81,1.89-1.81.34,0,1.27.06,1.78,1.17l-.92.48Z"/>
      <path class="cls-1" d="m270.86,9.92c-.19.36-.47.75-.8,1.05-.59.53-1.33.8-2.16.8-1.56,0-3.21-.99-3.21-3.39,0-1.94,1.19-3.44,3.14-3.44,1.27,0,2.06.63,2.46,1.19.41.58.64,1.58.61,2.44h-5.05c.02,1.35.94,2.21,2.06,2.21.53,0,.95-.16,1.33-.47.3-.25.53-.58.67-.89l.94.52Zm-1.11-2.3c-.19-1.02-.95-1.69-1.91-1.69s-1.74.72-1.91,1.69h3.82Z"/>
      <path class="cls-1" d="m273.34,10.17c.42,0,.78.36.78.78s-.36.78-.78.78-.78-.36-.78-.78.36-.78.78-.78Z"/>
    </g>
    <g>
      <path class="cls-1" d="m120.42,32.58h-10.98v5.4h10.13v5.21h-10.13v10.17h-6.25v-26.18h17.23v5.4Z"/>
      <path class="cls-1" d="m145.99,37.02c1.97,1.77,2.96,4.13,2.96,7.06s-.99,5.31-2.96,7.14c-1.97,1.82-4.4,2.74-7.29,2.74s-5.28-.91-7.25-2.74c-1.97-1.82-2.96-4.2-2.96-7.14s.99-5.29,2.96-7.06c1.97-1.78,4.39-2.66,7.25-2.66s5.31.89,7.29,2.66Zm-2.88,7.06c0-1.26-.39-2.35-1.18-3.29-.79-.94-1.86-1.41-3.22-1.41s-2.42.46-3.18,1.39c-.76.92-1.15,2.03-1.15,3.31s.39,2.4,1.17,3.35c.78.95,1.84,1.42,3.2,1.42s2.42-.47,3.2-1.42c.78-.95,1.17-2.06,1.17-3.35Z"/>
      <path class="cls-1" d="m170.67,34.57l-.26,5.33c-.47-.12-.99-.18-1.55-.18-1.46,0-2.54.45-3.25,1.35-.71.9-1.07,1.84-1.07,2.83v9.47h-6.06v-18.42h5.84v2.66h.07c.47-.96,1.15-1.73,2.03-2.31.89-.58,1.87-.87,2.96-.87.59,0,1.02.05,1.29.15Z"/>
      <path class="cls-1" d="m197.3,44.38c0,.67-.01,1.15-.04,1.44h-13.35c.1.99.58,1.81,1.44,2.48s1.85,1,2.96,1c1.77,0,3.13-.64,4.07-1.92l4.22,2.66c-1.8,2.61-4.58,3.92-8.36,3.92-2.88,0-5.29-.87-7.23-2.61-1.94-1.74-2.9-4.11-2.9-7.12s.94-5.34,2.83-7.16c1.89-1.81,4.26-2.72,7.12-2.72s4.99.89,6.69,2.68,2.55,4.23,2.55,7.34Zm-13.39-2.33h7.8c0-1.01-.31-1.85-.94-2.51s-1.52-1-2.68-1-2.1.35-2.88,1.04c-.79.69-1.22,1.52-1.29,2.48Z"/>
      <path class="cls-1" d="m213.28,29.06c0,.94-.34,1.73-1.02,2.37-.68.64-1.5.96-2.46.96s-1.78-.33-2.46-.98c-.68-.65-1.02-1.44-1.02-2.35s.34-1.66,1.02-2.33c.68-.67,1.5-1,2.46-1s1.78.33,2.46.98c.68.65,1.02,1.44,1.02,2.35Zm-.44,24.3h-6.07v-18.42h6.07v18.42Z"/>
      <path class="cls-1" d="m242.72,51.62c0,3.5-.96,6.15-2.88,7.93-1.92,1.79-4.57,2.68-7.95,2.68-1.65,0-3.34-.25-5.07-.76-1.73-.51-3.19-1.21-4.4-2.13l3.03-4.33c1.77,1.55,3.81,2.33,6.1,2.33,1.73,0,3.03-.46,3.9-1.39.88-.92,1.31-2.18,1.31-3.75v-1.11h-.11c-1.26,1.63-3.12,2.44-5.58,2.44-2.69,0-4.83-.91-6.42-2.74-1.59-1.82-2.38-4.07-2.38-6.73s.79-4.94,2.38-6.82c1.59-1.89,3.72-2.83,6.38-2.83s4.6.96,5.88,2.88h.07v-2.37h5.73v16.68Zm-6.99-4.25c.81-.91,1.22-2.02,1.22-3.33s-.41-2.41-1.24-3.31c-.83-.9-1.9-1.35-3.24-1.35s-2.39.44-3.16,1.33c-.78.89-1.17,2-1.17,3.33s.39,2.39,1.18,3.31c.79.92,1.84,1.39,3.14,1.39s2.44-.46,3.25-1.37Z"/>
      <path class="cls-1" d="m271.39,53.36h-6.1v-10.06c0-2.59-.91-3.88-2.74-3.88-1.04,0-1.84.38-2.4,1.15-.57.76-.85,1.7-.85,2.81v9.98h-6.1v-18.42h5.88v2.55h.07c.44-.86,1.16-1.59,2.16-2.18,1-.59,2.11-.89,3.35-.89,2.29,0,3.99.73,5.08,2.2,1.1,1.47,1.65,3.25,1.65,5.34v11.39Z"/>
      <path class="cls-1" d="m120.05,78.43c0,2.4-.71,4.45-2.11,6.15-1.41,1.69-3.29,2.54-5.66,2.54-1.09,0-2.12-.23-3.1-.69s-1.72-1.09-2.25-1.9h-.07v2.13h-4.95v-24.78h5.38v10.19h.07c1.25-1.46,2.91-2.2,4.98-2.2,2.29,0,4.15.84,5.57,2.51,1.42,1.67,2.13,3.69,2.13,6.05Zm-5.18,0c0-1.14-.34-2.11-1.03-2.93s-1.63-1.23-2.84-1.23-2.1.43-2.83,1.28c-.73.85-1.1,1.82-1.1,2.92s.37,2.09,1.1,2.93c.73.84,1.68,1.26,2.83,1.26s2.15-.42,2.84-1.25,1.03-1.82,1.03-2.98Z"/>
      <path class="cls-1" d="m144.49,86.66h-5.18v-2.26h-.07c-.39.77-1.04,1.41-1.93,1.93-.9.52-1.89.79-2.98.79-2.03,0-3.53-.65-4.49-1.95-.96-1.3-1.44-2.88-1.44-4.74v-10.1h5.41v8.85c0,2.32.81,3.47,2.43,3.47.9,0,1.6-.34,2.11-1.02.51-.68.77-1.51.77-2.49v-8.82h5.38v16.32Z"/>
      <path class="cls-1" d="m166.49,72.11l-2.95,3.05c-1.03-.98-2.16-1.48-3.41-1.48-.57,0-1.05.11-1.44.33-.39.22-.59.55-.59.98s.21.75.62.95c.42.2,1.2.43,2.36.69,3.47.79,5.21,2.45,5.21,4.98,0,1.9-.68,3.31-2.05,4.21-1.37.91-3.01,1.36-4.93,1.36-1.36,0-2.67-.22-3.95-.66-1.28-.44-2.33-1.06-3.16-1.87l3.02-3.18c1.12,1.22,2.45,1.84,4,1.84.53,0,.98-.11,1.36-.34.38-.23.57-.58.57-1.07s-.24-.84-.71-1.08c-.47-.24-1.32-.5-2.54-.79-3.17-.74-4.75-2.33-4.75-4.75,0-1.79.69-3.15,2.06-4.08,1.38-.93,2.95-1.39,4.72-1.39,2.73,0,4.92.77,6.56,2.29Z"/>
      <path class="cls-1" d="m180.44,65.12c0,.83-.3,1.53-.9,2.1-.6.57-1.33.85-2.18.85s-1.58-.29-2.18-.87c-.6-.58-.9-1.27-.9-2.08s.3-1.48.9-2.06c.6-.59,1.33-.89,2.18-.89s1.58.29,2.18.87c.6.58.9,1.27.9,2.08Zm-.39,21.54h-5.38v-16.32h5.38v16.32Z"/>
      <path class="cls-1" d="m205.52,86.66h-5.41v-8.92c0-2.29-.81-3.44-2.43-3.44-.92,0-1.63.34-2.13,1.02-.5.68-.75,1.51-.75,2.49v8.85h-5.41v-16.32h5.21v2.26h.07c.39-.76,1.03-1.41,1.92-1.93s1.87-.79,2.97-.79c2.03,0,3.53.65,4.51,1.95.97,1.3,1.46,2.88,1.46,4.74v10.1Z"/>
      <path class="cls-1" d="m230.89,78.7c0,.59-.01,1.02-.03,1.28h-11.83c.09.87.51,1.61,1.28,2.2.76.59,1.64.88,2.62.88,1.57,0,2.78-.57,3.61-1.7l3.74,2.36c-1.59,2.32-4.06,3.47-7.41,3.47-2.56,0-4.69-.77-6.41-2.31-1.72-1.54-2.57-3.64-2.57-6.31s.84-4.74,2.51-6.34c1.67-1.61,3.77-2.41,6.31-2.41s4.42.79,5.93,2.38,2.26,3.75,2.26,6.51Zm-11.87-2.07h6.92c0-.9-.28-1.64-.84-2.23-.56-.59-1.35-.88-2.38-.88s-1.86.31-2.56.92c-.7.61-1.08,1.34-1.15,2.2Z"/>
      <path class="cls-1" d="m251.9,72.11l-2.95,3.05c-1.03-.98-2.16-1.48-3.41-1.48-.57,0-1.05.11-1.44.33-.39.22-.59.55-.59.98s.21.75.62.95c.42.2,1.2.43,2.36.69,3.47.79,5.21,2.45,5.21,4.98,0,1.9-.68,3.31-2.05,4.21-1.37.91-3.01,1.36-4.93,1.36-1.36,0-2.67-.22-3.95-.66-1.28-.44-2.33-1.06-3.16-1.87l3.02-3.18c1.12,1.22,2.45,1.84,4,1.84.53,0,.98-.11,1.36-.34.38-.23.57-.58.57-1.07s-.24-.84-.71-1.08c-.47-.24-1.32-.5-2.54-.79-3.17-.74-4.75-2.33-4.75-4.75,0-1.79.69-3.15,2.06-4.08,1.38-.93,2.95-1.39,4.72-1.39,2.73,0,4.92.77,6.56,2.29Z"/>
      <path class="cls-1" d="m272.79,72.11l-2.95,3.05c-1.03-.98-2.16-1.48-3.41-1.48-.57,0-1.05.11-1.44.33-.39.22-.59.55-.59.98s.21.75.62.95c.42.2,1.2.43,2.36.69,3.47.79,5.21,2.45,5.21,4.98,0,1.9-.68,3.31-2.05,4.21-1.37.91-3.01,1.36-4.93,1.36-1.36,0-2.67-.22-3.95-.66-1.28-.44-2.33-1.06-3.16-1.87l3.02-3.18c1.12,1.22,2.45,1.84,4,1.84.53,0,.98-.11,1.36-.34.38-.23.57-.58.57-1.07s-.24-.84-.71-1.08c-.47-.24-1.32-.5-2.54-.79-3.17-.74-4.75-2.33-4.75-4.75,0-1.79.69-3.15,2.06-4.08,1.38-.93,2.95-1.39,4.72-1.39,2.73,0,4.92.77,6.56,2.29Z"/>
    </g>
    <g>
      <path class="cls-1" d="m2.99,113.23c.08.26.18.51.3.73.07.14.1.23.1.28s-.05.13-.16.24c-.66.56-1.34,1.09-2.03,1.57-.18.13-.28.21-.31.25-.05.06-.1.09-.15.09-.06,0-.11-.05-.17-.14-.25-.37-.44-.67-.57-.9.27-.12.53-.25.75-.4.83-.54,1.58-1.12,2.24-1.72Zm-1.61-4.05c.44.37.91.86,1.4,1.47.03.04.04.07.04.08,0,.03-.02.06-.07.11l-.59.55c-.07.06-.11.08-.13.08s-.04-.02-.07-.06c-.44-.63-.9-1.15-1.4-1.58-.04-.03-.05-.05-.05-.07,0-.02.03-.06.09-.11l.58-.47s.09-.06.11-.06c.02,0,.05.02.09.05Zm8.16,7.55c-.19.17-.37.42-.53.74-.09.16-.16.23-.2.23-.04,0-.12-.03-.24-.09-1.41-.76-2.36-1.78-2.84-3.08-.49,1.38-1.51,2.43-3.05,3.16-.12.05-.2.08-.23.08-.05,0-.12-.08-.2-.22-.15-.25-.33-.47-.54-.65,1.15-.41,2.01-1.01,2.59-1.82.5-.7.74-1.51.74-2.42,0-.42-.03-.77-.08-1.06.35,0,.71.03,1.08.06.11.02.16.06.16.12,0,.06-.02.13-.06.22-.04.09-.06.28-.06.58.17,1.12.6,2.04,1.3,2.75.54.55,1.27,1.01,2.19,1.38Zm-7.08-4.47c.81-.86,1.38-1.8,1.69-2.84.1-.36.16-.67.18-.92.27.04.62.11,1.03.21.12.03.18.08.18.14,0,.05-.03.11-.1.18-.05.05-.12.2-.2.46-.05.15-.13.35-.23.61h3.11c.11,0,.19-.01.25-.04.05-.03.1-.04.15-.04.08,0,.23.1.45.3.21.19.32.33.32.42,0,.06-.02.11-.07.16-.06.06-.12.16-.18.3-.31.68-.67,1.3-1.07,1.87-.09.14-.16.21-.2.21-.03,0-.11-.04-.24-.13-.24-.15-.47-.25-.68-.32.5-.57.87-1.17,1.13-1.77h-3.39c-.29.58-.62,1.11-.99,1.59-.1.12-.17.18-.2.18s-.11-.05-.23-.15c-.26-.21-.49-.35-.7-.42Z"/>
      <path class="cls-1" d="m11.71,112.02l-1.25.02c-.07,0-.1-.04-.1-.11v-.8c0-.07.03-.11.1-.11l1.25.02h.04v-.77c0-.5-.02-.99-.07-1.47.46.01.83.04,1.1.08.1,0,.15.05.15.11,0,.03,0,.08-.03.13-.02.06-.03.1-.03.12-.03.12-.04.45-.04,1.01v.78h1.57v-.9c0-.49-.02-.95-.07-1.38.39,0,.75.03,1.07.07.1,0,.14.05.14.11,0,.04-.01.09-.03.15-.02.06-.03.09-.03.11-.03.12-.04.43-.04.94v.9h1.62v-.89c0-.49-.03-.96-.07-1.39.4,0,.76.03,1.08.07.1,0,.15.05.15.11,0,.04-.01.09-.04.15-.02.07-.04.1-.04.11-.03.12-.04.44-.04.96v.88h.15l1.25-.02c.07,0,.1.04.1.11v.8c0,.07-.03.11-.1.11l-1.25-.02h-.15v1.34l.02,1.74c0,.05,0,.08-.02.1s-.04.02-.1.02h-.84c-.05,0-.08,0-.09-.02,0,0-.01-.04-.01-.09v-.47h-1.62v.49c0,.05,0,.08-.02.1-.01.01-.04.02-.1.02h-.84c-.07,0-.1-.04-.1-.11l.02-1.71v-1.39h-1.57v4.17h4.8l1.4-.02c.05,0,.08,0,.09.02s.01.04.01.09v.81c0,.05,0,.08-.02.1-.01.01-.04.02-.09.02l-1.4-.02h-4.8v.45c0,.05,0,.09-.02.1-.01,0-.05.01-.1.01h-.87c-.05,0-.08,0-.09-.02,0,0-.01-.04-.01-.09l.02-1.4v-4.21h-.04Zm5.36,1.7v-1.7h-1.62v1.7h1.62Z"/>
      <path class="cls-1" d="m20.37,112.75c1-1.02,1.73-2.19,2.18-3.5.1-.31.15-.55.17-.72.43.12.76.23.98.33.11.05.16.1.16.15,0,.06-.04.12-.11.18-.07.06-.14.19-.2.41-.18.49-.4.98-.66,1.48v5.08l.02,1.53c0,.05,0,.09-.02.1-.01,0-.05.01-.1.01h-.85c-.06,0-.09,0-.1-.02,0-.01-.01-.04-.01-.09l.02-1.53v-2.27c0-.23,0-.61.02-1.13-.22.3-.48.61-.77.93-.08.1-.15.14-.19.14-.06,0-.1-.06-.13-.17-.1-.37-.23-.67-.39-.9Zm9.11-1.65s.04,0,.05,0c.04,0,.06.04.07.11l.06.78s0,.04,0,.05c0,.04-.04.07-.11.07l-1.39.15-1.53.17c.15.93.36,1.71.65,2.34.23.55.47.97.72,1.26.19.23.35.34.48.34.2,0,.34-.48.44-1.43.17.16.39.29.66.41.18.08.27.16.27.25,0,.03,0,.1-.03.21-.18,1.25-.59,1.88-1.2,1.88-.47,0-.93-.27-1.38-.82-.34-.42-.65-.96-.93-1.63-.32-.74-.56-1.63-.72-2.68l-.69.07c-.4.04-.74.08-1.03.12-.07,0-.14.02-.24.04-.05,0-.08,0-.09,0-.03,0-.04,0-.05,0-.05,0-.08-.04-.08-.11l-.08-.8v-.04s.04-.07.11-.08l1.37-.12.66-.07c-.05-.65-.09-1.14-.1-1.48-.03-.68-.07-1.16-.11-1.44.37,0,.73.02,1.08.06.12.01.17.05.17.12,0,.05-.02.12-.06.21-.03.06-.04.19-.04.39,0,.05,0,.25,0,.62.03.62.06,1.09.09,1.39l1.57-.17c.39-.04.74-.08,1.04-.12,0,0,.09-.02.25-.03.05,0,.08-.01.09-.02Zm-1.62-2.16c.41.35.78.75,1.12,1.2.03.04.05.07.05.09,0,.03-.03.07-.1.13l-.58.42c-.06.05-.09.07-.11.07-.02,0-.05-.02-.08-.07-.39-.55-.75-.97-1.08-1.27-.04-.03-.06-.06-.06-.09,0-.02.03-.06.1-.1l.54-.38c.05-.04.09-.06.11-.06.02,0,.05.02.09.06Z"/>
      <path class="cls-1" d="m35.93,110.77c-.25,1.88-.68,3.34-1.27,4.37-.45.78-1.02,1.17-1.73,1.17-.51,0-.94-.26-1.3-.77-.33-.49-.5-1.1-.5-1.83,0-.99.38-1.87,1.14-2.64.87-.87,1.96-1.3,3.3-1.3s2.26.38,2.97,1.13c.59.63.89,1.43.89,2.39,0,1.84-1.04,3.07-3.13,3.7-.06.02-.11.02-.15.02-.1,0-.2-.07-.29-.21-.15-.23-.38-.44-.71-.64,1.04-.25,1.8-.6,2.28-1.04.52-.49.78-1.15.78-1.99,0-.68-.24-1.25-.71-1.71-.43-.43-.95-.64-1.56-.64h-.04Zm-1.18.06c-.72.15-1.3.45-1.73.92-.53.59-.79,1.22-.79,1.88,0,.47.08.84.25,1.12.13.22.28.33.44.33.28,0,.53-.21.76-.62.25-.45.47-1.03.68-1.74.19-.64.32-1.27.4-1.89Z"/>
      <path class="cls-1" d="m40.81,115.37c.95-.84,1.68-1.85,2.2-3.02.27-.61.43-1.11.46-1.5.57.2.99.37,1.25.52.08.04.12.09.12.16s-.03.14-.1.2c-.1.1-.21.3-.35.62-.62,1.41-1.35,2.54-2.17,3.41-.09.1-.19.15-.29.15-.08,0-.15-.03-.23-.1-.22-.18-.52-.33-.89-.44Zm5.19-3.85c.11-.08.28-.19.5-.34.15-.1.25-.17.31-.21.05-.04.1-.06.14-.06.05,0,.1.03.15.08,1.05,1.05,1.9,2.29,2.55,3.73.03.05.04.09.04.14,0,.06-.03.11-.1.16-.23.19-.51.36-.84.53-.05.02-.09.03-.12.03-.06,0-.1-.04-.13-.12-.72-1.62-1.55-2.94-2.5-3.95Zm3.13-2.32c.33,0,.6.12.82.36.19.21.28.45.28.73,0,.33-.12.6-.36.81-.21.18-.45.28-.74.28-.33,0-.6-.12-.81-.36-.19-.2-.28-.45-.28-.73,0-.33.12-.61.36-.82.2-.18.45-.27.73-.27Zm0,.49c-.19,0-.34.06-.45.19-.1.11-.15.25-.15.41,0,.19.06.34.19.46.11.1.25.15.41.15.19,0,.34-.06.46-.19.1-.11.15-.25.15-.41,0-.19-.06-.34-.19-.45-.11-.1-.25-.15-.41-.15Z"/>
      <path class="cls-1" d="m51.57,112.54c.53.08,1.26.12,2.19.12h3.27c.32,0,.73,0,1.24-.01.64-.01,1.01-.02,1.09-.02h.05c.09,0,.13.05.13.14,0,.16.01.32.01.48s0,.32-.01.48c0,.1-.05.15-.14.15h-.04c-1.01-.01-1.77-.02-2.26-.02h-3.65l-1.49.12c-.13,0-.21-.07-.23-.21-.06-.27-.11-.68-.15-1.23Z"/>
      <path class="cls-1" d="m65.38,111.78c1.27.4,2.35.86,3.23,1.38.09.05.13.1.13.17,0,.03,0,.06-.02.09-.12.32-.27.61-.44.88-.04.08-.09.11-.13.11-.04,0-.08-.02-.11-.05-.95-.61-1.84-1.04-2.67-1.3v2.24c0,.37.01,1.03.04,1.99v.03c0,.08-.06.12-.18.12-.15,0-.3.01-.45.01s-.3,0-.45-.01c-.13,0-.19-.05-.19-.15.03-.65.04-1.32.04-2v-4.99c0-.62-.03-1.12-.1-1.5.59.04,1.02.09,1.27.16.13.03.19.08.19.17,0,.06-.03.13-.08.23-.05.09-.07.41-.07.95v1.45Z"/>
      <path class="cls-1" d="m76.68,111.48h1.36c.47,0,1.06,0,1.76-.02h.05c.09,0,.14.06.14.18,0,.13.01.26.01.4s0,.26-.01.39c0,.09-.01.14-.04.16-.03.02-.08.03-.15.03l-1.7-.04h-1.44c-.05.77-.13,1.36-.24,1.75-.09.34-.24.68-.45,1.02-.5.84-1.22,1.51-2.16,2-.08.05-.15.07-.23.07s-.16-.03-.22-.1c-.26-.24-.55-.42-.85-.55,1.07-.52,1.84-1.13,2.3-1.84.37-.56.57-1.34.62-2.34h-1.96c-.2,0-.47,0-.82.02-.34.02-.56.03-.64.03h-.03c-.08,0-.13-.06-.15-.19-.02-.12-.04-.45-.07-1.01.44.03,1.01.05,1.72.05h2c0-.7,0-1.2,0-1.5-.01-.41-.05-.75-.12-1.03.62.03,1.07.07,1.35.14.1.03.15.07.15.14,0,.04-.02.11-.07.22-.06.12-.08.32-.08.61,0,.54,0,1.01,0,1.39Z"/>
      <path class="cls-1" d="m82,112.54c.53.08,1.26.12,2.19.12h3.27c.32,0,.73,0,1.24-.01.64-.01,1.01-.02,1.09-.02h.05c.09,0,.13.05.13.14,0,.16.01.32.01.48s0,.32-.01.48c0,.1-.05.15-.14.15h-.04c-1.01-.01-1.77-.02-2.26-.02h-3.65l-1.49.12c-.13,0-.21-.07-.23-.21-.06-.27-.11-.68-.15-1.23Z"/>
      <path class="cls-1" d="m94.21,108.95c.55,0,1,.04,1.33.12.12.03.18.08.18.16l-.07.43c0,.07.02.29.05.68.08.61.19,1.19.33,1.74.2-.11.45-.24.74-.4.34-.18.57-.31.7-.38.33-.19.56-.37.7-.54.31.32.56.64.74.95.05.07.07.14.07.21,0,.12-.07.18-.2.2-.25.04-.58.15-.98.31-1,.41-1.79.8-2.38,1.18-.8.53-1.2,1.04-1.2,1.54,0,.32.14.55.42.68.25.12.65.17,1.19.17,1.21,0,2.24-.08,3.1-.24.03,0,.05,0,.06,0,.06,0,.1.04.12.13.04.22.07.53.1.95,0,.1-.05.16-.18.17-.77.1-1.78.15-3.02.15-1.96,0-2.93-.65-2.93-1.95,0-.56.2-1.08.59-1.54.29-.34.74-.71,1.34-1.08-.23-.75-.41-1.58-.53-2.47-.07-.54-.16-.93-.27-1.18Z"/>
      <path class="cls-1" d="m103.94,108.99c.64.07,1.07.13,1.27.18.16.04.24.1.24.19,0,.05-.03.17-.1.34-.05.14-.1.55-.14,1.23-.1,1.57-.15,2.88-.15,3.93,0,.55.06.9.19,1.05.12.14.37.21.74.21.54,0,1.13-.17,1.78-.5.64-.33,1.23-.79,1.78-1.37.04.36.11.69.23.97.05.12.08.2.08.24,0,.09-.07.2-.2.32-.57.53-1.23.92-1.97,1.18-.62.22-1.25.34-1.87.34-.71,0-1.21-.17-1.5-.52-.27-.32-.41-.84-.41-1.55,0-.63.05-2.09.14-4.38,0-.34.01-.58.01-.7,0-.46-.04-.84-.12-1.15Z"/>
      <path class="cls-1" d="m112.33,110.52c.36-.01.9-.07,1.62-.17,2.73-.4,4.76-.69,6.09-.86.02,0,.04,0,.06,0,.09,0,.14.04.15.11.07.29.1.59.11.9,0,.1-.06.15-.19.15-.46.03-.87.1-1.24.22-.89.3-1.56.76-2.02,1.37-.38.5-.57,1.04-.57,1.62,0,1.31.9,2.02,2.7,2.13.15,0,.22.05.22.15,0,.32-.04.61-.11.87-.03.14-.09.21-.19.21-1.06,0-1.96-.29-2.68-.88-.71-.58-1.06-1.33-1.06-2.25,0-.74.19-1.39.58-1.95.31-.45.77-.87,1.37-1.26v-.02c-1.2.22-2.33.45-3.41.67-.35.08-.56.14-.64.16-.13.05-.2.08-.22.08-.09,0-.15-.05-.19-.15-.11-.22-.23-.58-.38-1.09Z"/>
      <path class="cls-1" d="m127.25,110.77c-.25,1.88-.68,3.34-1.27,4.37-.45.78-1.02,1.17-1.73,1.17-.51,0-.94-.26-1.3-.77-.33-.49-.5-1.1-.5-1.83,0-.99.38-1.87,1.14-2.64.87-.87,1.96-1.3,3.3-1.3s2.26.38,2.97,1.13c.59.63.89,1.43.89,2.39,0,1.84-1.04,3.07-3.13,3.7-.06.02-.11.02-.15.02-.1,0-.2-.07-.29-.21-.15-.23-.38-.44-.71-.64,1.04-.25,1.8-.6,2.28-1.04.52-.49.78-1.15.78-1.99,0-.68-.24-1.25-.71-1.71-.43-.43-.95-.64-1.56-.64h-.04Zm-1.18.06c-.72.15-1.3.45-1.73.92-.53.59-.79,1.22-.79,1.88,0,.47.08.84.25,1.12.13.22.28.33.44.33.28,0,.53-.21.76-.62.25-.45.47-1.03.68-1.74.19-.64.32-1.27.4-1.89Z"/>
      <path class="cls-1" d="m134.53,112.39c.36.31.65.6.89.87.3-.66.54-1.39.7-2.2h-1.44c-.43.92-1,1.76-1.72,2.55-.09.1-.16.15-.2.15s-.1-.07-.17-.2c-.12-.23-.29-.44-.5-.62,1.01-1.01,1.72-2.2,2.13-3.59.08-.27.12-.53.13-.8.46.08.8.15,1.04.22.1.03.15.08.15.14,0,.07-.03.13-.07.17-.05.05-.11.22-.2.52-.11.33-.17.51-.17.52h1.05c.13,0,.23-.02.31-.06.05-.03.1-.04.14-.04.1,0,.25.09.45.27.2.17.3.29.3.35,0,.04-.03.09-.1.17l-.06.1c.28.46.62.89,1.02,1.3v-2.15c0-.67-.03-1.19-.08-1.54.46.01.83.04,1.12.08.1,0,.15.04.15.1,0,.03-.02.1-.05.2-.05.12-.07.5-.07,1.13v3.07c.6.42,1.39.82,2.38,1.21-.19.24-.34.51-.45.8-.07.17-.13.25-.18.25-.04,0-.11-.03-.23-.08-.58-.27-1.08-.55-1.52-.85v1.46l.02,1.76c0,.05,0,.09-.02.1-.01,0-.04.01-.09.01h-.88c-.05,0-.08,0-.09-.02,0-.01-.02-.04-.02-.09l.02-1.76v-2.3c-.47-.44-.9-.94-1.27-1.5-.32,1.23-.82,2.3-1.5,3.23-.58.77-1.3,1.48-2.18,2.11-.13.1-.21.14-.24.14-.03,0-.11-.07-.22-.2-.15-.19-.34-.37-.59-.54,1.19-.71,2.11-1.59,2.77-2.66-.31-.37-.64-.71-1-1.04-.04-.04-.06-.07-.06-.09,0-.03.02-.07.06-.12l.42-.54s.07-.07.09-.07c.03,0,.06.02.1.06Z"/>
      <path class="cls-1" d="m143.64,117.81h-.86s-.08,0-.09-.02-.02-.04-.02-.1l.02-3.89v-2.02l-.02-2.78c0-.06,0-.09.02-.1.01,0,.04-.01.09-.01l1.35.02h5.51l1.35-.02c.06,0,.09,0,.1.02,0,.01.01.04.01.09l-.02,2.43v2.35l.02,3.89c0,.05,0,.09-.02.1-.01,0-.04.01-.09.01h-.87c-.06,0-.09,0-.1-.02,0-.01-.01-.04-.01-.09v-.48h-6.25v.49c0,.05,0,.09-.02.1-.01,0-.04.01-.09.01Zm.11-7.94v6.4h6.25v-6.4h-6.25Zm5.26,2.6c.05,0,.09,0,.1.02,0,.01.01.04.01.09v.67c0,.06,0,.09-.02.1-.01.01-.04.02-.09.02l-1.15-.02h-.53v1.35h.83l1.31-.02c.06,0,.1,0,.11.02,0,.01.01.04.01.09v.7s0,.08-.02.09c-.01.01-.05.02-.1.02l-1.31-.02h-2.56l-1.31.02c-.06,0-.1,0-.11-.02,0-.01-.01-.04-.01-.09v-.7c0-.05,0-.08.02-.09.01,0,.05-.02.1-.02l1.31.02h.7v-1.35h-.4l-1.17.02c-.06,0-.09,0-.1-.02-.01-.01-.02-.04-.02-.09v-.67c0-.05,0-.08.02-.09.01,0,.04-.02.09-.02l1.17.02h.4v-1.06h-.59l-1.29.02c-.07,0-.1-.04-.1-.11v-.68c0-.07.03-.11.1-.11l1.29.02h2.36l1.3-.02c.07,0,.1.04.1.11v.68c0,.08-.03.11-.1.11l-1.3-.02h-.74v1.06h.53l1.15-.02Zm-.35,1.01c.18.21.35.46.5.73.02.03.02.06.02.07,0,.03-.04.06-.11.09l-.44.23s-.08.03-.1.03c-.03,0-.07-.04-.1-.11-.13-.3-.28-.55-.47-.75-.02-.03-.04-.05-.04-.06s.04-.05.11-.09l.41-.21s.06-.02.08-.02c.03,0,.07.03.12.08Z"/>
      <path class="cls-1" d="m161.66,116.57c-.23.22-.42.49-.57.79-.08.16-.14.24-.18.24-.03,0-.11-.04-.23-.12-1.88-1.21-3.08-2.83-3.58-4.85-.54,2.16-1.77,3.78-3.67,4.86-.12.07-.2.1-.23.1-.05,0-.12-.08-.2-.24-.15-.24-.34-.47-.59-.68,1.38-.64,2.42-1.62,3.11-2.94.57-1.09.85-2.31.84-3.68-.01-.57-.04-1.01-.07-1.32.39.02.81.06,1.25.12.13.02.19.07.19.16,0,.06-.03.15-.1.25-.06.09-.08.32-.08.67,0,.08,0,.2,0,.36.23,1.59.72,2.91,1.46,3.95.66.92,1.55,1.69,2.68,2.31Z"/>
      <path class="cls-1" d="m166.86,113.3c-.21.2-.36.4-.47.58-.07.12-.12.18-.15.18s-.09-.06-.18-.17c-.32-.42-.58-.85-.77-1.28,0,1.18.02,2.4.04,3.67,0,.25.01.6.02,1.06,0,.2,0,.31,0,.35,0,.05,0,.08-.02.09-.01,0-.04.01-.09.01h-.85c-.05,0-.08,0-.09-.02,0-.01-.01-.04-.01-.09,0-.04,0-.29.01-.75.03-1.43.04-2.74.05-3.92-.27.92-.69,1.78-1.26,2.6-.08.1-.13.15-.16.15-.04,0-.08-.05-.11-.16-.12-.36-.24-.64-.36-.84.73-.87,1.31-1.97,1.73-3.3h-.29l-1.11.02c-.06,0-.1,0-.11-.02-.01-.01-.02-.04-.02-.09v-.75c0-.06,0-.09.03-.1.01-.01.05-.02.1-.02l1.11.02h.42v-.58c0-.6-.03-1.08-.08-1.44.37,0,.72.03,1.05.07.11.01.16.05.16.1,0,.04-.02.11-.07.22-.04.1-.06.44-.06,1.03v.6h.07l1.12-.02c.05,0,.09,0,.1.02.01.01.02.05.02.1v.75c0,.05,0,.08-.03.09,0,0-.04.01-.09.01l-1.08-.02c.27.59.75,1.21,1.43,1.84Zm-.94,1.96c1.37-.92,2.42-2.19,3.14-3.79h-.74l-1.28.02c-.05,0-.09,0-.1-.02,0-.01-.01-.04-.01-.09v-.8c0-.06,0-.09.02-.1.01-.01.04-.02.09-.02l1.28.02h1.11v-.56c0-.6-.03-1.08-.08-1.43.39,0,.75.03,1.08.07.11.01.16.04.16.1,0,.03-.02.1-.07.21-.04.1-.06.44-.06,1.03v.58l1.25-.02c.06,0,.09,0,.1.02.01.01.02.04.02.09v.8c0,.05,0,.08-.02.09-.01,0-.05.02-.1.02l-1.24-.02.03,2.96c0,.05,0,.44.02,1.15,0,.39.01.68.01.87,0,.28-.03.5-.08.64-.05.13-.14.25-.27.34-.23.16-.74.24-1.53.24-.07,0-.11,0-.13,0-.1,0-.16-.02-.19-.06-.02-.03-.05-.11-.08-.24-.09-.35-.2-.61-.33-.77.22.03.45.04.68.04.1,0,.21,0,.35,0,.23,0,.38-.03.45-.09.06-.05.09-.15.08-.3v-1.78c0-.06,0-.15,0-.28,0-.23,0-.79.03-1.67-.28.66-.68,1.31-1.19,1.94-.44.54-.91,1.01-1.43,1.41-.11.09-.18.13-.21.13-.04,0-.11-.07-.2-.2-.18-.24-.36-.43-.54-.56Z"/>
      <path class="cls-1" d="m174.14,115.07c.44,0,.8.16,1.09.48.25.28.38.6.38.98,0,.44-.16.8-.49,1.08-.28.25-.61.38-.99.38-.44,0-.8-.16-1.09-.48-.25-.28-.38-.6-.38-.98,0-.44.16-.8.49-1.09.28-.25.61-.38.99-.38Zm0,.62c-.25,0-.46.09-.63.27-.14.16-.21.35-.21.57,0,.25.09.46.27.63.16.14.35.21.57.21.25,0,.46-.09.63-.27.14-.16.21-.35.21-.57,0-.25-.09-.46-.27-.63-.16-.14-.35-.21-.57-.21Z"/>
      <path class="cls-1" d="m185.25,117.63h-.91s-.08,0-.09-.02c-.01-.01-.02-.04-.02-.09l.02-3.61v-1.96l-.02-2.65c0-.06,0-.09.02-.1.01-.01.04-.02.09-.02l1.4.02h3.48l1.4-.02c.05,0,.08,0,.09.02,0,.01.01.04.01.09l-.02,2.35v2.25l.02,3.57c0,.06,0,.09-.02.1-.01.01-.04.02-.09.02h-.9c-.06,0-.09,0-.1-.02,0-.01-.02-.04-.02-.09v-.5h-4.25v.55c0,.05,0,.08-.02.09-.01,0-.04.01-.09.01Zm.11-7.43v2.31h4.25v-2.31h-4.25Zm0,5.76h4.25v-2.45h-4.25v2.45Z"/>
      <path class="cls-1" d="m194.63,111.52l-1.3.02c-.05,0-.08,0-.09-.02,0-.01-.01-.04-.01-.09v-.82c0-.05,0-.08.02-.09.01,0,.04-.02.09-.02l1.3.02h2.36v-.68c0-.57-.02-1.01-.07-1.32.44,0,.81.03,1.11.07.1,0,.15.04.15.1,0,.01-.02.1-.06.27-.03.15-.05.43-.05.85v.71h2.53l1.31-.02c.05,0,.08,0,.09.02s.01.04.01.09v.82c0,.05,0,.08-.02.09-.01,0-.04.01-.09.01l-1.31-.02h-2.1c.93,1.59,2.22,2.8,3.86,3.62-.18.2-.35.44-.5.73-.08.16-.15.24-.19.24-.04,0-.11-.04-.21-.11-1.57-1.04-2.72-2.28-3.43-3.71,0,.02.01.93.04,2.74h.52l1.25-.02c.06,0,.09,0,.1.02.01.01.02.04.02.09v.77s0,.08-.02.09c-.01.01-.05.02-.1.02l-1.25-.02h-.5c0,.34,0,.73.02,1.16,0,.31,0,.49,0,.53,0,.07-.04.1-.11.1h-.94c-.08,0-.11-.04-.11-.1,0-.26,0-.82.03-1.69h-.44l-1.25.02c-.05,0-.08,0-.09-.02s-.01-.04-.01-.09v-.77c0-.05,0-.08.02-.09.01,0,.04-.01.09-.01l1.25.02h.45c.02-.87.03-1.74.03-2.63-.68,1.37-1.75,2.57-3.2,3.6-.11.08-.19.12-.24.12-.05,0-.12-.07-.19-.22-.15-.28-.32-.51-.53-.68.79-.43,1.52-.98,2.18-1.66.62-.63,1.12-1.31,1.52-2.04h-1.95Z"/>
      <path class="cls-1" d="m205.95,111.32c.1-.37.2-.79.3-1.28.07-.41.1-.78.1-1.12.5.11.9.22,1.21.33.11.03.16.1.16.2,0,.06-.02.11-.07.15-.08.11-.15.23-.2.39-.05.15-.11.37-.19.64-.08.25-.13.45-.17.57.25-.03.52-.04.81-.04.97,0,1.45.65,1.45,1.96,0,.61-.05,1.22-.16,1.84-.1.56-.23,1.01-.39,1.34-.29.63-.74.95-1.37.95-.48,0-.83-.05-1.05-.15-.12-.05-.18-.14-.18-.28-.04-.42-.1-.73-.19-.94.38.18.77.26,1.17.26.18,0,.32-.04.41-.13.08-.08.16-.22.24-.41.26-.7.4-1.54.4-2.53,0-.38-.05-.63-.14-.76-.09-.12-.23-.17-.44-.17-.22,0-.51.02-.85.07-.66,1.93-1.34,3.52-2.04,4.77-.04.08-.09.12-.15.12-.03,0-.07-.01-.11-.04-.31-.15-.55-.3-.7-.45-.05-.05-.08-.1-.08-.15,0-.04.01-.08.04-.11.8-1.39,1.42-2.72,1.86-3.98-.23.04-.56.09-.99.17-.18.04-.37.09-.56.16-.05.02-.09.02-.12.02-.1,0-.16-.05-.2-.16-.1-.25-.2-.6-.31-1.05.37,0,.82-.02,1.34-.07.37-.04.77-.09,1.2-.15Zm3.5-.08c.38-.26.65-.43.82-.52.03-.01.05-.02.07-.02.04,0,.08.02.12.07.77.72,1.33,1.55,1.68,2.47.02.04.02.07.02.09,0,.04-.02.08-.06.11-.19.18-.45.35-.76.51-.04.02-.07.03-.1.03-.07,0-.11-.04-.13-.11-.42-1.1-.97-1.98-1.66-2.63Zm.55-1.56l.54-.38s.04-.02.06-.02c.03,0,.06.02.09.04.35.27.67.63.97,1.09.02.03.03.05.03.07,0,.03-.02.06-.06.09l-.43.31s-.06.03-.08.03c-.03,0-.06-.02-.09-.06-.31-.48-.66-.87-1.03-1.17Zm.94-.67l.5-.37s.05-.02.06-.02c.02,0,.05.01.09.04.39.3.71.65.96,1.05.02.03.03.06.03.08,0,.04-.02.07-.06.1l-.41.32s-.06.03-.08.03c-.03,0-.06-.02-.09-.06-.28-.45-.62-.84-1.01-1.17Z"/>
      <path class="cls-1" d="m222.77,116.38c-.14.21-.23.47-.27.76-.03.17-.06.27-.09.29-.03.03-.13.04-.28.05-1.1.06-2.28.09-3.55.09-1.13,0-1.92-.09-2.38-.28-.4-.17-.73-.47-1-.91-.32.31-.67.61-1.05.9-.1.08-.16.14-.2.2-.04.06-.09.09-.15.09s-.1-.04-.14-.12c-.11-.2-.25-.52-.42-.95.24-.11.45-.22.61-.32.28-.18.57-.4.85-.65v-2.25h-.5l-.74.02c-.06,0-.09,0-.1-.02-.01-.01-.02-.05-.02-.1v-.77c0-.05,0-.08.03-.09.01,0,.05-.01.1-.01l.74.02h.64l.76-.02c.06,0,.09,0,.1.02s.01.04.01.09l-.02.97v2.17c.21.42.49.71.84.85.32.13.95.19,1.88.19,1.45,0,2.91-.07,4.36-.21Zm-8.36-7.56c.56.51,1,1.01,1.32,1.49.03.04.04.07.04.09,0,.02-.03.06-.09.11l-.57.49s-.09.07-.12.07c-.03,0-.05-.02-.08-.07-.38-.6-.81-1.13-1.29-1.57-.04-.03-.05-.06-.05-.07,0-.02.03-.06.09-.11l.54-.43c.05-.04.09-.06.12-.06.02,0,.05.02.09.05Zm1.06,2.86c.77-.79,1.34-1.62,1.7-2.51.11-.29.18-.51.21-.67.35.06.66.13.93.22.1.03.15.07.15.13,0,.05-.03.11-.1.16-.05.04-.12.14-.2.31l-.35.62h1.37c.18-.33.32-.62.42-.87.04-.13.09-.31.13-.53.37.06.7.13.97.21.1.04.14.08.14.13,0,.05-.03.1-.1.15-.1.09-.17.18-.21.27-.06.16-.17.37-.31.63h.67l1.24-.02c.06,0,.09,0,.1.02.01.01.02.04.02.09v.64c0,.05,0,.08-.03.09-.01,0-.05.02-.1.02l-1.24-.02h-.86v.83h.45l1.24-.02c.05,0,.09,0,.1.02,0,.01.02.04.02.09v.63c0,.05,0,.08-.03.09,0,0-.04.01-.09.01l-1.24-.02h-.45v.85h.45l1.24-.02c.05,0,.09,0,.1.02,0,.01.02.05.02.1v.61c0,.05,0,.08-.02.1s-.04.02-.1.02l-1.24-.02h-.45v.89h.82l1.35-.02c.06,0,.09,0,.1.02.01.01.02.04.02.09v.65c0,.05,0,.09-.02.1-.01.01-.04.02-.1.02l-1.35-.02h-2.76l-1.38.02c-.05,0-.08,0-.09-.02-.01-.01-.02-.05-.02-.1l.02-1.34v-2.66l-.29.37c-.1.12-.17.18-.2.18-.04,0-.11-.07-.21-.2-.12-.17-.27-.31-.44-.43Zm2.1-.06h1.51v-.83h-1.51v.83Zm0,1.67h1.51v-.85h-1.51v.85Zm0,1.7h1.51v-.89h-1.51v.89Z"/>
      <path class="cls-1" d="m223.37,112.69c1.07-.96,1.85-2.11,2.34-3.43.1-.24.16-.48.2-.71.34.09.67.19.99.33.12.04.17.09.17.15,0,.07-.03.12-.09.17-.07.05-.15.19-.25.44-.2.47-.41.91-.64,1.31v5.19l.02,1.54c0,.07-.04.1-.11.1h-.88c-.06,0-.09,0-.1-.02,0-.01-.01-.04-.01-.08l.02-1.54v-2.29c0-.27,0-.7.02-1.3-.34.44-.64.79-.9,1.06-.11.1-.19.15-.22.15-.05,0-.1-.07-.15-.22-.08-.26-.2-.54-.39-.83Zm8.14,2.07c.22.17.48.3.78.42.11.04.17.07.19.09.03.02.04.06.04.12,0,.02,0,.07,0,.15-.04.52-.11.91-.21,1.17-.09.22-.21.39-.38.51-.33.23-.94.35-1.84.35s-1.49-.07-1.76-.2c-.19-.09-.33-.22-.41-.4-.08-.17-.12-.41-.12-.71v-6.4c0-.53-.02-.92-.06-1.17.4.01.76.03,1.08.07.13.01.19.05.19.13,0,.05-.02.11-.06.19-.05.08-.07.31-.07.69v2.54c.63-.4,1.26-.89,1.88-1.49.23-.21.43-.44.6-.69.26.2.53.42.79.67.08.07.11.14.11.2,0,.07-.06.13-.17.16-.12.04-.29.17-.53.39-.83.74-1.72,1.4-2.67,1.97v2.41c0,.19.02.33.06.41.04.07.12.13.22.17.14.05.48.07,1.01.07s.85-.08,1.04-.25c.17-.14.27-.65.3-1.55Z"/>
      <path class="cls-1" d="m238.18,110.35c0-.1,0-.25,0-.47,0-.16,0-.28,0-.38-.02-.25-.06-.5-.12-.74.5.03.89.08,1.19.14.19.03.28.1.28.19,0,.05-.03.13-.09.23-.04.07-.06.17-.08.29,0,.04-.01.26-.02.65.91-.03,1.95-.05,3.12-.05.06,0,.1,0,.12.03s.03.06.03.12c0,.13.01.26.01.39s0,.25-.01.39c0,.09-.04.13-.13.13h-.04c-.61-.02-1.27-.03-1.96-.03-.42,0-.8,0-1.14,0,0,.85,0,1.47,0,1.89.1.27.15.61.15,1.01,0,1.39-.6,2.49-1.81,3.27-.2.13-.33.19-.4.19-.07,0-.17-.05-.3-.15-.21-.18-.47-.31-.77-.4.62-.27,1.11-.63,1.49-1.08.31-.36.51-.75.59-1.16-.19.27-.5.41-.95.41s-.79-.16-1.06-.47c-.24-.28-.36-.64-.36-1.09,0-.49.17-.88.52-1.16.28-.24.62-.36,1.02-.36.36,0,.62.07.77.2v-1.04c-1.48.08-2.65.19-3.52.31-.08,0-.18.03-.3.07-.09.03-.15.04-.17.04-.09,0-.14-.05-.17-.14-.07-.17-.15-.52-.25-1.02.1,0,.21.01.32.01.1,0,.41-.02.92-.05.54-.05,1.59-.11,3.15-.2Zm-.65,2.61c-.19,0-.35.06-.48.18s-.19.28-.19.48c0,.23.07.41.21.54.12.1.26.15.44.15.21,0,.39-.07.51-.2.12-.13.18-.29.18-.51s-.07-.38-.21-.5c-.12-.1-.27-.15-.46-.15Z"/>
      <path class="cls-1" d="m248.67,110.26c-.63.12-1.29.24-1.96.39-.18.04-.32.08-.43.12-.08.03-.15.05-.2.05-.1,0-.17-.06-.22-.17-.11-.21-.22-.57-.35-1.1.17.02.35.03.55.03.13,0,.26,0,.39-.01.7-.07,1.46-.19,2.3-.35.28-.06.47-.11.55-.15.09-.05.16-.08.19-.08.08,0,.16.03.23.08.27.21.5.42.68.65.08.09.11.17.11.25,0,.11-.06.19-.17.24-.12.06-.26.16-.45.32-.21.21-.59.59-1.15,1.15-.42.42-.76.76-1.04,1.02v.03c.55-.3,1.08-.46,1.62-.46.8,0,1.43.25,1.9.76.41.44.61,1,.61,1.68,0,.91-.36,1.62-1.08,2.12-.63.44-1.45.66-2.46.66-.69,0-1.21-.15-1.58-.45-.32-.26-.48-.61-.48-1.05,0-.37.16-.67.47-.92.27-.21.59-.32.96-.32.52,0,.94.14,1.28.43.3.25.51.61.63,1.06.38-.17.66-.39.82-.65.15-.24.22-.54.22-.89,0-.49-.17-.88-.5-1.16-.29-.24-.65-.37-1.09-.37-.89,0-1.75.36-2.6,1.08-.13.12-.42.41-.88.86-.08.08-.13.11-.17.11s-.09-.03-.15-.09c-.19-.16-.38-.38-.59-.66-.02-.03-.03-.05-.03-.08,0-.04.03-.09.08-.15.76-.61,1.56-1.36,2.4-2.24.69-.71,1.22-1.29,1.58-1.74Zm-.07,6.24c-.14-.58-.42-.87-.86-.87-.15,0-.27.04-.37.13-.08.07-.12.16-.12.26,0,.35.29.53.88.53.17,0,.33-.01.47-.04Z"/>
      <path class="cls-1" d="m261.17,111.79h-2.57c-.08.97-.25,1.78-.5,2.45-.3.78-.73,1.46-1.29,2.02-.47.48-1.06.91-1.78,1.3-.15.06-.23.09-.24.09-.06,0-.14-.07-.24-.21-.2-.27-.42-.46-.64-.59,1.64-.71,2.69-1.72,3.16-3.01.22-.61.36-1.29.43-2.04h-1.58l-1.36.02c-.06,0-.09,0-.1-.02-.01-.01-.02-.04-.02-.09v-.83c0-.05,0-.08.02-.09.01,0,.05-.01.1-.01l1.36.02h1.63v-.88c0-.51-.02-.96-.08-1.35.53.03.93.07,1.19.11.14.02.2.06.2.14,0,.07-.03.16-.09.25-.05.13-.08.42-.08.86,0,.38,0,.67-.01.86h2.13l1.39-.02c.08,0,.12.04.12.12-.01.2-.02.51-.02.91-.02,1.97-.13,3.46-.32,4.45-.1.51-.29.87-.59,1.07-.25.17-.62.26-1.11.27-.06,0-.12,0-.19,0-.23,0-.49-.01-.78-.04-.17-.01-.26-.04-.29-.08-.03-.03-.05-.13-.08-.28-.07-.34-.17-.6-.3-.8.52.09,1.03.13,1.53.13.41,0,.65-.23.74-.68.18-.99.26-2.34.26-4.04Z"/>
      <path class="cls-1" d="m264.08,113.31c.27-.11.57-.29.89-.55.41-.32,1.02-.85,1.82-1.57.31-.28.6-.43.88-.43.18,0,.33.03.46.09.11.05.25.15.42.28,1.38,1.11,2.11,1.69,2.19,1.74.61.44,1.41.93,2.4,1.49.08.03.12.08.12.14,0,.02,0,.05-.02.07-.14.37-.3.69-.5.96-.05.07-.09.1-.14.1s-.09-.02-.14-.05c-.49-.29-1.22-.81-2.19-1.56-.5-.38-1.21-.98-2.13-1.8-.16-.16-.31-.23-.45-.23-.08,0-.19.07-.35.21l-1.7,1.67c-.17.18-.29.33-.36.45-.05.08-.11.12-.18.12s-.13-.03-.19-.09c-.23-.23-.51-.58-.83-1.06Z"/>
    </g>
  </g>
</svg>