<svg xmlns="http://www.w3.org/2000/svg" xmlns:xlink="http://www.w3.org/1999/xlink" width="57.222" height="51.857" viewBox="0 0 57.222 51.857">
  <defs>
    <clipPath id="clip-path">
      <rect id="Rectangle_3350" data-name="Rectangle 3350" width="57.222" height="51.857" transform="translate(0 0)" fill="none"/>
    </clipPath>
  </defs>
  <g id="Group_8554" data-name="Group 8554" transform="translate(0 0)">
    <g id="Group_8556" data-name="Group 8556" clip-path="url(#clip-path)">
      <path id="Path_1454" data-name="Path 1454" d="M9.2,21.814a6.219,6.219,0,1,0-6.22-6.22,6.22,6.22,0,0,0,6.22,6.22" fill="#fff"/>
      <path id="Path_1455" data-name="Path 1455" d="M54.5,0H21.8a2.725,2.725,0,0,0-2.725,2.725V21.48A2.725,2.725,0,0,0,21.8,24.2h1.186a1.075,1.075,0,0,0-.549-2H21.8a.726.726,0,0,1-.725-.725V2.725A.726.726,0,0,1,21.8,2H54.5a.726.726,0,0,1,.725.725V21.48a.726.726,0,0,1-.725.725H37.173a1,1,0,0,0-.893,1.409l.009.021a.957.957,0,0,0,.894.57H54.5a2.725,2.725,0,0,0,2.725-2.725V2.725A2.725,2.725,0,0,0,54.5,0" fill="#fff"/>
      <path id="Path_1456" data-name="Path 1456" d="M33.255,24.034a1.007,1.007,0,0,0,.141-.163l5.17-7.8A1,1,0,0,0,36.9,14.967l-5.152,7.771a3.252,3.252,0,0,0-2.8.25L22.584,26.77a.993.993,0,0,1-.91.057c-1.614-.71-7.171-2.985-12.137-2.985A9.537,9.537,0,0,0,0,33.379V50.772a1,1,0,0,0,1,1H18.074a1,1,0,0,0,1-1V33.379c0-.272-.019-.54-.041-.807l3.646.929a1,1,0,0,0,.757-.11L32.171,28.2a3.058,3.058,0,0,0,1.084-4.165" fill="#fff"/>
      <path id="Path_1457" data-name="Path 1457" d="M25.2,7.131H51.091a1,1,0,0,0,0-2H25.2a1,1,0,0,0,0,2" fill="#fff"/>
      <path id="Path_1458" data-name="Path 1458" d="M25.2,12.581H44.279a1,1,0,0,0,0-2H25.2a1,1,0,0,0,0,2" fill="#fff"/>
      <path id="Path_1459" data-name="Path 1459" d="M25.2,18.031h6.131a1,1,0,0,0,0-2H25.2a1,1,0,0,0,0,2" fill="#fff"/>
      <path id="Path_1460" data-name="Path 1460" d="M27.589,38.829a4.172,4.172,0,1,0,4.172-4.172,4.172,4.172,0,0,0-4.172,4.172" fill="#fff"/>
      <path id="Path_1461" data-name="Path 1461" d="M52.794,38.829A4.172,4.172,0,1,0,48.622,43a4.172,4.172,0,0,0,4.172-4.172" fill="#fff"/>
      <path id="Path_1462" data-name="Path 1462" d="M31.761,44.705A7.154,7.154,0,0,0,24.7,50.722a1,1,0,0,0,1,1.136H37.828a1,1,0,0,0,1-1.136,7.154,7.154,0,0,0-7.063-6.017" fill="#fff"/>
      <path id="Path_1463" data-name="Path 1463" d="M48.621,44.705a7.154,7.154,0,0,0-7.063,6.017,1,1,0,0,0,1,1.136H54.688a1,1,0,0,0,1-1.136,7.154,7.154,0,0,0-7.063-6.017" fill="#fff"/>
    </g>
  </g>
</svg>
