<svg xmlns="http://www.w3.org/2000/svg" xmlns:xlink="http://www.w3.org/1999/xlink" width="48.168" height="59.7" viewBox="0 0 48.168 59.7">
  <defs>
    <clipPath id="clip-path">
      <rect id="Rectangle_3347" data-name="Rectangle 3347" width="48.168" height="59.7" transform="translate(0 0)" fill="none"/>
    </clipPath>
  </defs>
  <g id="Group_8549" data-name="Group 8549" transform="translate(0 0)" clip-path="url(#clip-path)">
    <path id="Path_1437" data-name="Path 1437" d="M28.711,16.2h-20a1,1,0,1,0,0,2h20a1,1,0,0,0,0-2" fill="#fff"/>
    <path id="Path_1438" data-name="Path 1438" d="M28.668,22.2h-20a1,1,0,0,0,0,2h20a1,1,0,0,0,0-2" fill="#fff"/>
    <path id="Path_1439" data-name="Path 1439" d="M28.668,28.2h-20a1,1,0,0,0,0,2h20a1,1,0,0,0,0-2" fill="#fff"/>
    <path id="Path_1440" data-name="Path 1440" d="M2,47.94V2H26.448l.22.22V8.886a2.168,2.168,0,0,0,2.168,2.168h6.587V31.738c.248-.012.493-.038.745-.038.423,0,.839.031,1.255.064V10.975a2,2,0,0,0-.586-1.414L27.862.586A2,2,0,0,0,26.448,0H2A2,2,0,0,0,0,2V47.94a2,2,0,0,0,2,2H20.343a16.07,16.07,0,0,1-.163-2Z" fill="#fff"/>
    <path id="Path_1441" data-name="Path 1441" d="M36.167,35.7a12,12,0,1,0,12,12,12,12,0,0,0-12-12m-.673,15.91H33.539l-1.048-4.458L31.465,51.61H29.516l-1.665-7.82h1.874l.9,4.9,1.074-4.9h1.6l1.09,4.9.9-4.9h1.869Zm8.171-3.338a3.4,3.4,0,0,1-2.248.685h-1.2V51.61H38.329V43.79H41.45a3.637,3.637,0,0,1,1.587.33,2.487,2.487,0,0,1,1.068.94,2.56,2.56,0,0,1,.379,1.383,2.263,2.263,0,0,1-.819,1.829" fill="#fff"/>
    <path id="Path_1442" data-name="Path 1442" d="M41.472,45.245H40.215V47.5H41.45a1.164,1.164,0,0,0,.835-.274,1.018,1.018,0,0,0,.287-.773,1.265,1.265,0,0,0-.294-.875,1.05,1.05,0,0,0-.806-.334" fill="#fff"/>
  </g>
</svg>
