<svg xmlns="http://www.w3.org/2000/svg" xmlns:xlink="http://www.w3.org/1999/xlink" width="313.768" height="39.59" viewBox="0 0 313.768 39.59">
  <defs>
    <clipPath id="clip-path">
      <rect id="Rectangle_120" data-name="Rectangle 120" width="313.768" height="39.59" fill="#fff"/>
    </clipPath>
  </defs>
  <g id="Group_715" data-name="Group 715" transform="translate(0 0)">
    <g id="Group_113" data-name="Group 113" transform="translate(0 0)" clip-path="url(#clip-path)">
      <path id="Path_273" data-name="Path 273" d="M16.087,28.7a1.629,1.629,0,0,0,1.686,1.753A1.665,1.665,0,0,0,19.494,28.7a6.322,6.322,0,0,0-1.28-3.736.531.531,0,0,0-.848,0,6.322,6.322,0,0,0-1.28,3.736" transform="translate(1.797 2.765)" fill="#fff"/>
      <path id="Path_274" data-name="Path 274" d="M12.994,21.844A12.757,12.757,0,0,1,19.1,23.4a1,1,0,0,0,.975,0,12.753,12.753,0,0,1,6.105-1.559,10.72,10.72,0,0,1,10.239,7.591.342.342,0,0,0,.627.069A19.8,19.8,0,1,0,2.28,29.015a.343.343,0,0,0,.628-.043,10.718,10.718,0,0,1,10.085-7.128m7.675-9.514A6.847,6.847,0,0,1,32.58,8.549a1.3,1.3,0,0,1-.967,2.172h-.089a1.27,1.27,0,0,1-.936-.422,4.2,4.2,0,1,0-3.107,7.019c.129,0,.257-.008.384-.019l.111-.012c.1-.012.191-.027.286-.044l.1-.018c.123-.027.246-.057.366-.094l.022-.008c.116-.036.228-.078.339-.123l.061-.027c.115-.049.226-.1.335-.161a4.1,4.1,0,0,0,1.6-1.559.315.315,0,0,0-.271-.477H28.808A1.328,1.328,0,0,1,27.5,13.2a1.442,1.442,0,0,1,1.37-1.079h4.476a.987.987,0,0,1,.988.987v.01a6.862,6.862,0,0,1-.308,2.033l0,.007c-.018.057-.042.111-.061.167a6.87,6.87,0,0,1-.8,1.618l-.009.013a6.917,6.917,0,0,1-1.835,1.837l-.031.021c-.162.109-.33.21-.5.306l-.074.041c-.18.1-.365.187-.554.267l-.018.009q-.292.122-.6.218l-.131.038c-.153.044-.308.084-.465.119q-.09.02-.18.037c-.139.026-.277.051-.417.066-.08.009-.159.021-.239.029-.209.019-.42.032-.635.032a6.863,6.863,0,0,1-6.811-7.644M12.782,6.262a6.825,6.825,0,0,1,5.181,2.38,1.269,1.269,0,0,1-.983,2.079h-.145a1.291,1.291,0,0,1-.953-.431,4.2,4.2,0,1,0-.283,5.937,1.375,1.375,0,0,1,.965-.359,1.329,1.329,0,0,1,.837,2.309A6.854,6.854,0,1,1,12.782,6.262" transform="translate(0 0)" fill="#fff"/>
      <path id="Path_275" data-name="Path 275" d="M25.795,22.386a9.824,9.824,0,0,0-3.8.667.386.386,0,0,0-.171.593,9.152,9.152,0,0,1,1.971,5.7,4.681,4.681,0,0,1-4.763,4.795,4.613,4.613,0,0,1-4.728-4.795,9.152,9.152,0,0,1,1.971-5.7.387.387,0,0,0-.172-.593,9.845,9.845,0,0,0-3.8-.667A7.644,7.644,0,0,0,4.8,30.046a1.883,1.883,0,0,0,.565,1.338,19.784,19.784,0,0,0,27.043.708,2.732,2.732,0,0,0,.9-2.047,7.644,7.644,0,0,0-7.511-7.66" transform="translate(0.536 2.5)" fill="#fff"/>
      <path id="Path_276" data-name="Path 276" d="M45.122,19.16v-.069a12.168,12.168,0,0,1,12.4-12.436A12.535,12.535,0,0,1,66.935,10.4l-2.714,3.126a9.565,9.565,0,0,0-6.732-2.988c-4.6,0-7.935,3.779-7.935,8.486v.068c0,4.707,3.332,8.555,7.935,8.555,2.955,0,4.844-1.2,6.9-3.126l2.714,2.748a12.41,12.41,0,0,1-9.756,4.259A12.094,12.094,0,0,1,45.122,19.16" transform="translate(5.04 0.743)" fill="#fff"/>
      <path id="Path_277" data-name="Path 277" d="M45.122,19.16v-.069a12.168,12.168,0,0,1,12.4-12.436A12.535,12.535,0,0,1,66.935,10.4l-2.714,3.126a9.565,9.565,0,0,0-6.732-2.988c-4.6,0-7.935,3.779-7.935,8.486v.068c0,4.707,3.332,8.555,7.935,8.555,2.955,0,4.844-1.2,6.9-3.126l2.714,2.748a12.41,12.41,0,0,1-9.756,4.259A12.094,12.094,0,0,1,45.122,19.16Z" transform="translate(5.04 0.743)" fill="#fff" stroke="#261f1c" stroke-linecap="round" stroke-linejoin="round" stroke-width="0.365"/>
      <path id="Path_278" data-name="Path 278" d="M78.229,6.872h3.915L92.725,31.09H88.259l-2.438-5.805H74.449L71.977,31.09H67.648Zm6.045,14.669-4.157-9.618L76,21.541Z" transform="translate(7.557 0.768)" fill="#fff"/>
      <path id="Path_279" data-name="Path 279" d="M78.229,6.872h3.915L92.725,31.09H88.259l-2.438-5.805H74.449L71.977,31.09H67.648Zm6.045,14.669-4.157-9.618L76,21.541Z" transform="translate(7.557 0.768)" fill="#fff" stroke="#261f1c" stroke-linecap="round" stroke-linejoin="round" stroke-width="0.365"/>
      <path id="Path_280" data-name="Path 280" d="M94.533,7.027h4.5L106.35,18.4l7.316-11.371h4.5V31.073h-4.226V13.829L106.35,25.164h-.138L98.69,13.9V31.073H94.533Z" transform="translate(10.56 0.785)" fill="#fff"/>
      <path id="Path_281" data-name="Path 281" d="M94.533,7.027h4.5L106.35,18.4l7.316-11.371h4.5V31.073h-4.226V13.829L106.35,25.164h-.138L98.69,13.9V31.073H94.533Z" transform="translate(10.56 0.785)" fill="#fff" stroke="#261f1c" stroke-linecap="round" stroke-linejoin="round" stroke-width="0.365"/>
      <path id="Path_282" data-name="Path 282" d="M129.289,10.943h-7.625V7.026h19.512v3.917h-7.626V31.073h-4.26Z" transform="translate(13.59 0.785)" fill="#fff"/>
      <path id="Path_283" data-name="Path 283" d="M129.289,10.943h-7.625V7.026h19.512v3.917h-7.626V31.073h-4.26Z" transform="translate(13.59 0.785)" fill="#fff" stroke="#261f1c" stroke-linecap="round" stroke-linejoin="round" stroke-width="0.365"/>
      <path id="Path_284" data-name="Path 284" d="M143.851,7.027h17.828v3.779h-13.6v6.252h12.058v3.779H148.075v6.458H161.85v3.779h-18Z" transform="translate(16.069 0.785)" fill="#fff"/>
      <path id="Path_285" data-name="Path 285" d="M143.851,7.027h17.828v3.779h-13.6v6.252h12.058v3.779H148.075v6.458H161.85v3.779h-18Z" transform="translate(16.069 0.785)" fill="#fff" stroke="#261f1c" stroke-linecap="round" stroke-linejoin="round" stroke-width="0.365"/>
      <path id="Path_286" data-name="Path 286" d="M164.215,19.16v-.069a12.168,12.168,0,0,1,12.4-12.436,12.536,12.536,0,0,1,9.413,3.744l-2.714,3.126a9.567,9.567,0,0,0-6.732-2.988c-4.6,0-7.935,3.779-7.935,8.486v.068c0,4.707,3.332,8.555,7.935,8.555,2.955,0,4.844-1.2,6.9-3.126l2.714,2.748a12.41,12.41,0,0,1-9.756,4.259A12.093,12.093,0,0,1,164.215,19.16" transform="translate(18.344 0.743)" fill="#fff"/>
      <path id="Path_287" data-name="Path 287" d="M164.215,19.16v-.069a12.168,12.168,0,0,1,12.4-12.436,12.536,12.536,0,0,1,9.413,3.744l-2.714,3.126a9.567,9.567,0,0,0-6.732-2.988c-4.6,0-7.935,3.779-7.935,8.486v.068c0,4.707,3.332,8.555,7.935,8.555,2.955,0,4.844-1.2,6.9-3.126l2.714,2.748a12.41,12.41,0,0,1-9.756,4.259A12.093,12.093,0,0,1,164.215,19.16Z" transform="translate(18.344 0.743)" fill="#fff" stroke="#261f1c" stroke-linecap="round" stroke-linejoin="round" stroke-width="0.365"/>
      <path id="Path_288" data-name="Path 288" d="M188.6,7.027h4.224v10h11.475v-10h4.224V31.073h-4.224V20.94H192.82V31.073H188.6Z" transform="translate(21.067 0.785)" fill="#fff"/>
      <path id="Path_289" data-name="Path 289" d="M188.6,7.027h4.224v10h11.475v-10h4.224V31.073h-4.224V20.94H192.82V31.073H188.6Z" transform="translate(21.067 0.785)" fill="#fff" stroke="#261f1c" stroke-linecap="round" stroke-linejoin="round" stroke-width="0.365"/>
      <path id="Path_290" data-name="Path 290" d="M231.944,31.331H222.76a7.851,7.851,0,0,1-7.851-7.851V14.435a7.85,7.85,0,0,1,7.85-7.851h12.795a.247.247,0,0,1,.247.248l-.844,2.734a.247.247,0,0,1-.247.247H222.76a4.623,4.623,0,0,0-4.624,4.622V23.48A4.623,4.623,0,0,0,222.76,28.1h9.184a1.074,1.074,0,0,0,1.074-1.075V21.145a.574.574,0,0,0-.574-.574h-6.96a.247.247,0,0,1-.247-.248V17.591a.247.247,0,0,1,.247-.248h6.961a3.8,3.8,0,0,1,3.8,3.8v5.884a4.3,4.3,0,0,1-4.3,4.3" transform="translate(24.006 0.735)" fill="#fff"/>
      <path id="Path_291" data-name="Path 291" d="M263.719,31.383h-2.734a.247.247,0,0,1-.247-.247V10.143a.332.332,0,0,0-.639-.125L254.747,23.28a4.624,4.624,0,0,1-4.023,2.953,4.462,4.462,0,0,1-4.346-2.8l-5.414-13.416a.329.329,0,0,0-.307-.207.332.332,0,0,0-.332.331V31.136a.247.247,0,0,1-.247.247h-2.734a.248.248,0,0,1-.247-.247V10.28a3.65,3.65,0,0,1,3.291-3.686,3.546,3.546,0,0,1,3.57,2.217l5.414,13.415a1.251,1.251,0,0,0,2.32,0l5.366-13.295A3.672,3.672,0,0,1,260.115,6.6a3.562,3.562,0,0,1,3.851,3.546V31.136a.247.247,0,0,1-.247.247" transform="translate(26.485 0.735)" fill="#fff"/>
      <path id="Path_292" data-name="Path 292" d="M278.637,31.331H264.909a.247.247,0,0,1-.247-.247l.844-2.734a.247.247,0,0,1,.247-.247h12.955a2.29,2.29,0,0,0,2.3-2.33,3.73,3.73,0,0,0-2.51-3.428l-.064-.023-9.405-3.714a6.949,6.949,0,0,1-4.631-6.485,5.583,5.583,0,0,1,5.594-5.539h13.522a.247.247,0,0,1,.247.248l-.844,2.734a.247.247,0,0,1-.247.247H269.918a2.29,2.29,0,0,0-2.3,2.331,3.722,3.722,0,0,0,2.495,3.426l.065.023,9.4,3.714a6.958,6.958,0,0,1,4.648,6.49,5.584,5.584,0,0,1-5.6,5.533" transform="translate(29.534 0.735)" fill="#fff"/>
    </g>
  </g>
</svg>
