<svg id="Group_1236" data-name="Group 1236" xmlns="http://www.w3.org/2000/svg" xmlns:xlink="http://www.w3.org/1999/xlink" width="120" height="120" viewBox="0 0 120 120">
  <defs>
    <clipPath id="clip-path">
      <rect id="Rectangle_526" data-name="Rectangle 526" width="120" height="120" fill="#0b54f7"/>
    </clipPath>
  </defs>
  <g id="Group_1235" data-name="Group 1235" clip-path="url(#clip-path)">
    <path id="Path_1057" data-name="Path 1057" d="M79.326,13H13.066a5.522,5.522,0,0,0-5.522,5.522v58.3a1.84,1.84,0,0,0,3.107,1.335L23.072,66.376h7.479V60.855H13.066V18.522h66.26V35.087h5.522V18.522A5.522,5.522,0,0,0,79.326,13" fill="#0b54f7"/>
    <path id="Path_1058" data-name="Path 1058" d="M106.934,39.688H40.674a5.522,5.522,0,0,0-5.522,5.522V87.542a5.522,5.522,0,0,0,5.522,5.522H96.928l12.421,11.778a1.841,1.841,0,0,0,3.107-1.335V45.21a5.522,5.522,0,0,0-5.522-5.522M57.7,71.9a5.522,5.522,0,1,1,5.522-5.522A5.522,5.522,0,0,1,57.7,71.9m16.1,0a5.522,5.522,0,1,1,5.521-5.522A5.522,5.522,0,0,1,73.8,71.9m10.583-5.522A5.521,5.521,0,1,1,89.909,71.9a5.522,5.522,0,0,1-5.522-5.522" fill="#0b54f7"/>
  </g>
</svg>
