<svg id="Group_1241" data-name="Group 1241" xmlns="http://www.w3.org/2000/svg" xmlns:xlink="http://www.w3.org/1999/xlink" width="120" height="120" viewBox="0 0 120 120">
  <defs>
    <clipPath id="clip-path">
      <rect id="Rectangle_529" data-name="Rectangle 529" width="120" height="120" fill="#0b54f7"/>
    </clipPath>
  </defs>
  <g id="Group_1240" data-name="Group 1240" clip-path="url(#clip-path)">
    <path id="Path_1067" data-name="Path 1067" d="M15,89.51,14.992,40.5H91.884l.006,20.01a25.211,25.211,0,0,1,5.99.78V24.49a5.988,5.988,0,0,0-5.99-5.99h-7.7V15a3.5,3.5,0,0,0-7,0v3.5H66.023V15a3.5,3.5,0,0,0-7,0v3.5H47.857V15a3.5,3.5,0,0,0-7,0v3.5H29.69V15a3.5,3.5,0,1,0-7,0v3.5h-7.7A5.988,5.988,0,0,0,9,24.49V89.51a5.988,5.988,0,0,0,5.99,5.99H66.41a25.442,25.442,0,0,1-1.29-6Z" fill="#0b54f7"/>
    <path id="Path_1068" data-name="Path 1068" d="M36,47.5H26a2,2,0,0,0-2,2v10a2,2,0,0,0,2,2H36a2,2,0,0,0,2-2v-10a2,2,0,0,0-2-2" fill="#0b54f7"/>
    <path id="Path_1069" data-name="Path 1069" d="M26,82.5H36a2,2,0,0,0,2-2v-10a2,2,0,0,0-2-2H26a2,2,0,0,0-2,2v10a2,2,0,0,0,2,2" fill="#0b54f7"/>
    <path id="Path_1070" data-name="Path 1070" d="M58.44,47.5h-10a2,2,0,0,0-2,2v10a2,2,0,0,0,2,2h10a2,2,0,0,0,2-2v-10a2,2,0,0,0-2-2" fill="#0b54f7"/>
    <path id="Path_1071" data-name="Path 1071" d="M80,47.5H70a2,2,0,0,0-2,2v10a2,2,0,0,0,2,2H80a2,2,0,0,0,2-2v-10a2,2,0,0,0-2-2" fill="#0b54f7"/>
    <path id="Path_1072" data-name="Path 1072" d="M48.44,82.5h10a2,2,0,0,0,2-2v-10a2,2,0,0,0-2-2h-10a2,2,0,0,0-2,2v10a2,2,0,0,0,2,2" fill="#0b54f7"/>
    <path id="Path_1073" data-name="Path 1073" d="M91.5,65.5A21.5,21.5,0,1,0,113,87,21.5,21.5,0,0,0,91.5,65.5m6.052,28.452H89.046a2.5,2.5,0,0,1-2.5-2.5v-12.2a2.5,2.5,0,0,1,5,0v9.7h6.006a2.5,2.5,0,0,1,0,5" fill="#0b54f7"/>
  </g>
</svg>
