<svg id="Group_1237" data-name="Group 1237" xmlns="http://www.w3.org/2000/svg" xmlns:xlink="http://www.w3.org/1999/xlink" width="120" height="120" viewBox="0 0 120 120">
  <defs>
    <clipPath id="clip-path">
      <rect id="Rectangle_528" data-name="Rectangle 528" width="120" height="120" fill="#0b54f7"/>
    </clipPath>
  </defs>
  <g id="Group_1239" data-name="Group 1239" clip-path="url(#clip-path)">
    <path id="Path_1063" data-name="Path 1063" d="M49.783,54.5H28.5a5.108,5.108,0,0,1-5.108-5.109V28.109A5.108,5.108,0,0,1,28.5,23H49.783a5.109,5.109,0,0,1,5.109,5.109V49.394A5.109,5.109,0,0,1,49.783,54.5" fill="#0b54f7"/>
    <path id="Path_1064" data-name="Path 1064" d="M91.5,54.5H70.217a5.108,5.108,0,0,1-5.108-5.109V28.109A5.108,5.108,0,0,1,70.217,23H91.5a5.109,5.109,0,0,1,5.109,5.109V49.394A5.109,5.109,0,0,1,91.5,54.5" fill="#0b54f7"/>
    <path id="Path_1065" data-name="Path 1065" d="M49.783,97.5H28.5a5.108,5.108,0,0,1-5.108-5.109V71.106A5.108,5.108,0,0,1,28.5,66H49.783a5.109,5.109,0,0,1,5.109,5.109V92.391A5.109,5.109,0,0,1,49.783,97.5" fill="#0b54f7"/>
    <path id="Path_1066" data-name="Path 1066" d="M91.5,97.5H70.217a5.108,5.108,0,0,1-5.108-5.109V71.106A5.108,5.108,0,0,1,70.217,66H91.5a5.109,5.109,0,0,1,5.109,5.109V92.391A5.109,5.109,0,0,1,91.5,97.5" fill="#0b54f7"/>
  </g>
</svg>
