<svg xmlns="http://www.w3.org/2000/svg" xmlns:xlink="http://www.w3.org/1999/xlink" width="120" height="120" viewBox="0 0 120 120">
  <defs>
    <clipPath id="clip-path">
      <rect id="Rectangle_530" data-name="Rectangle 530" width="120" height="120" fill="#0b54f7"/>
    </clipPath>
  </defs>
  <g id="Group_1242" data-name="Group 1242" clip-path="url(#clip-path)">
    <path id="Path_1074" data-name="Path 1074" d="M97,49H24c-3.31,0-6,2.38-6,5.31V66.69C18,69.62,20.69,72,24,72H97c3.31,0,6-2.38,6-5.31V54.31c0-2.93-2.69-5.31-6-5.31M31,65.5a5,5,0,1,1,5-5,5,5,0,0,1-5,5m63-3H62a2,2,0,0,1,0-4H94a2,2,0,0,1,0,4" fill="#0b54f7"/>
    <path id="Path_1075" data-name="Path 1075" d="M97,78H24c-3.31,0-6,2.38-6,5.31V95.69c0,2.93,2.69,5.31,6,5.31H97c3.31,0,6-2.38,6-5.31V83.31c0-2.93-2.69-5.31-6-5.31M31,94.5a5,5,0,1,1,5-5,5,5,0,0,1-5,5m63-3H62a2,2,0,0,1,0-4H94a2,2,0,0,1,0,4" fill="#0b54f7"/>
    <path id="Path_1076" data-name="Path 1076" d="M97,20H24c-3.31,0-6,2.38-6,5.31V37.69C18,40.62,20.69,43,24,43H97c3.31,0,6-2.38,6-5.31V25.31c0-2.93-2.69-5.31-6-5.31M31,36.5a5,5,0,1,1,5-5,5,5,0,0,1-5,5m63-3H62a2,2,0,0,1,0-4H94a2,2,0,0,1,0,4" fill="#0b54f7"/>
  </g>
</svg>
