<svg id="Group_1234" data-name="Group 1234" xmlns="http://www.w3.org/2000/svg" xmlns:xlink="http://www.w3.org/1999/xlink" width="120" height="120" viewBox="0 0 120 120">
  <defs>
    <clipPath id="clip-path">
      <rect id="Rectangle_525" data-name="Rectangle 525" width="120" height="120" fill="#0b54f7"/>
    </clipPath>
  </defs>
  <g id="Group_1233" data-name="Group 1233" clip-path="url(#clip-path)">
    <path id="Path_1054" data-name="Path 1054" d="M83.314,86.489A14.031,14.031,0,1,0,69.351,72.458,14,14,0,0,0,83.314,86.489" fill="#0b54f7"/>
    <path id="Path_1055" data-name="Path 1055" d="M86.459,41.514H82.787a2.747,2.747,0,0,1-2.6-1.929,57.5,57.5,0,0,0-3.321-7.979,2.765,2.765,0,0,1,.559-3.288l2.521-2.532a2.707,2.707,0,0,0,0-3.837L76.1,18.1a2.748,2.748,0,0,0-3.935.077l-2.532,2.532a2.737,2.737,0,0,1-3.2.471,56.267,56.267,0,0,0-7.98-3.321,2.761,2.761,0,0,1-1.929-2.609v-3.66a2.728,2.728,0,0,0-2.718-2.73H48.37a2.73,2.73,0,0,0-2.729,2.73v3.66a2.761,2.761,0,0,1-1.929,2.609,56.845,56.845,0,0,0-7.979,3.321,2.768,2.768,0,0,1-3.289-.57l-2.521-2.521a2.719,2.719,0,0,0-3.847.011l-3.847,3.847a2.745,2.745,0,0,0,.077,3.924l2.532,2.532a2.741,2.741,0,0,1,.471,3.2,56.3,56.3,0,0,0-3.321,7.979,2.75,2.75,0,0,1-2.609,1.929H15.718A2.718,2.718,0,0,0,13,44.233V49.68A2.718,2.718,0,0,0,15.718,52.4h3.661a2.752,2.752,0,0,1,2.609,1.929,56.268,56.268,0,0,0,3.321,7.98,2.8,2.8,0,0,1-.559,3.3l-2.532,2.521a2.716,2.716,0,0,0,.011,3.836l3.847,3.858A2.744,2.744,0,0,0,30,75.734L32.532,73.2a2.756,2.756,0,0,1,3.2-.471,56.906,56.906,0,0,0,7.979,3.332,2.746,2.746,0,0,1,1.929,2.6v3.672A2.72,2.72,0,0,0,48.37,85.05h5.437a2.718,2.718,0,0,0,2.718-2.718V78.66a2.746,2.746,0,0,1,1.929-2.6,54.31,54.31,0,0,0,5.294-2.05c-.044-.515-.066-1.03-.066-1.557A19.718,19.718,0,0,1,81.307,52.848h.011a2.641,2.641,0,0,1,1.469-.45h3.672a2.718,2.718,0,0,0,2.718-2.718V44.233a2.718,2.718,0,0,0-2.718-2.719m-35.217,16.4a10.95,10.95,0,1,1,10.95-10.95,10.953,10.953,0,0,1-10.95,10.95" fill="#0b54f7"/>
    <path id="Path_1056" data-name="Path 1056" d="M104.8,111.138a2.2,2.2,0,0,0,2.177-2.508c-1.4-9.563-11.544-16.955-23.662-16.955-12.088,0-22.073,7.354-23.618,16.885a2.21,2.21,0,0,0,2.166,2.578Z" fill="#0b54f7"/>
  </g>
</svg>
