<svg id="Component_3_1" data-name="Component 3 – 1" xmlns="http://www.w3.org/2000/svg" xmlns:xlink="http://www.w3.org/1999/xlink" width="720" height="400" viewBox="0 0 720 400">
  <defs>
    <clipPath id="clip-path">
      <rect id="Rectangle_37" data-name="Rectangle 37" width="132.942" height="132.942" fill="#0b54f7"/>
    </clipPath>
    <clipPath id="clip-path-2">
      <rect id="Rectangle_124" data-name="Rectangle 124" width="469.417" height="200.856" fill="#0b54f7"/>
    </clipPath>
  </defs>
  <rect id="Rectangle_34" data-name="Rectangle 34" width="720" height="400" rx="16" fill="#fff"/>
  <g id="Group_26" data-name="Group 26" transform="translate(538.058 140.186)">
    <g id="Group_25" data-name="Group 25" clip-path="url(#clip-path)">
      <path id="Path_205" data-name="Path 205" d="M0,66.47a66.471,66.471,0,1,1,66.47,66.472A66.471,66.471,0,0,1,0,66.47M60.08,95.743,93.168,69.952a5.584,5.584,0,0,0,0-8.809L60.08,35.353a5.584,5.584,0,0,0-9.018,4.4V91.339a5.585,5.585,0,0,0,9.018,4.4" transform="translate(0 0)" fill="#0b54f7"/>
    </g>
  </g>
  <g id="Group_116" data-name="Group 116" transform="translate(40.583 99.572)">
    <g id="Group_115" data-name="Group 115" clip-path="url(#clip-path-2)">
      <path id="Path_293" data-name="Path 293" d="M16.412,181.475a10.765,10.765,0,0,0-6.047,1.943,10.816,10.816,0,0,1,1.4-2.051l-1.728-1.89c-.513.27-.675.351-.917.459.135-2.105.188-2.645.269-3.266.3-.054.594-.081.594-.4s-.35-.351-.809-.378l-3.537-.243c.109,2.645.135,2.943.135,5.507a27.173,27.173,0,0,1-5.128.891L1.3,185.9a37.534,37.534,0,0,0,4.373-1.431v1.161A38.76,38.76,0,0,1,0,193.109L2.645,195.7c.432-.513,2.349-3.266,2.808-3.86-.136,5.183-.136,5.8-.27,8.125l3.806-.3c-.027-2.321-.027-3.266-.027-11.769,1.215-1.052,3.995-3.158,7.072-3.158a4.248,4.248,0,0,1,4.427,4.588c0,4.751-4.967,5.939-8.638,6.182a10.119,10.119,0,0,1,1.862,3.32c2.025-.3,10.312-1.511,10.312-9.69,0-6.046-4.616-7.666-7.585-7.666" fill="#0b54f7"/>
      <path id="Path_294" data-name="Path 294" d="M52.05,195.188a19.63,19.63,0,0,1-5.857.891c-1.242,0-4.536,0-4.536-1.431a3.2,3.2,0,0,1,.918-2l-3-1.106a7.2,7.2,0,0,0-1.187,3.617c0,4.022,5.507,4.237,8.044,4.237a34.327,34.327,0,0,0,5.641-.485,10.17,10.17,0,0,1-.162-1.89,10.625,10.625,0,0,1,.135-1.835" fill="#0b54f7"/>
      <path id="Path_295" data-name="Path 295" d="M47.245,188.331a16.048,16.048,0,0,1,3.968.432,29.494,29.494,0,0,1,.243-3.563,20.156,20.156,0,0,0-4-.3,35.488,35.488,0,0,0-6.046.486v3.4a54.231,54.231,0,0,1,5.83-.459" fill="#0b54f7"/>
      <path id="Path_296" data-name="Path 296" d="M45.005,182.582l-.432-3.59a19.083,19.083,0,0,1-4.966,1.377c.107-.432.62-2.592.755-3.078.539-.054.539-.351.539-.4,0-.189-.134-.3-.512-.378l-3.941-.918a51.151,51.151,0,0,1-.7,5.237c-1.835.162-3.346.162-3.859.162-1.134,0-1.971-.054-2.646-.109l.3,3.78c2.537-.055,3.7-.055,5.345-.216a42.337,42.337,0,0,1-6.857,13.766,23.462,23.462,0,0,1,3.456,1.754,61.159,61.159,0,0,0,7.179-16.06,39.025,39.025,0,0,0,6.344-1.323" fill="#0b54f7"/>
      <path id="Path_297" data-name="Path 297" d="M77.215,188.115c-1.106,2.375-5.183,7.855-9.771,7.855-2.511,0-2.943-1.809-2.943-6.452a82.594,82.594,0,0,1,.783-12.119c.216-.054.594-.189.594-.459,0-.3-.189-.324-.621-.378l-4.237-.594c.026.54.053.729.053,1.835,0,1.539-.3,9.043-.3,10.744,0,5.4.188,11.229,6.316,11.229,3.185,0,8.448-1.566,12.849-8.638a17.935,17.935,0,0,1-2.727-3.023" fill="#0b54f7"/>
      <path id="Path_298" data-name="Path 298" d="M108.21,195.188a19.63,19.63,0,0,1-5.857.891c-1.242,0-4.536,0-4.536-1.431a3.2,3.2,0,0,1,.918-2l-3-1.106a7.2,7.2,0,0,0-1.187,3.617c0,4.022,5.507,4.237,8.044,4.237a34.327,34.327,0,0,0,5.641-.485,10.17,10.17,0,0,1-.162-1.89,10.624,10.624,0,0,1,.135-1.835" fill="#0b54f7"/>
      <path id="Path_299" data-name="Path 299" d="M101.165,182.582l-.432-3.59a19.083,19.083,0,0,1-4.966,1.377c.107-.432.62-2.592.755-3.078.539-.054.539-.351.539-.4,0-.189-.134-.3-.512-.378l-3.941-.918a51.152,51.152,0,0,1-.7,5.237c-1.835.162-3.346.162-3.859.162-1.134,0-1.971-.054-2.646-.109l.3,3.78c2.537-.055,3.7-.055,5.345-.216a42.337,42.337,0,0,1-6.857,13.766,23.462,23.462,0,0,1,3.456,1.754,61.159,61.159,0,0,0,7.179-16.06,39.025,39.025,0,0,0,6.344-1.323" fill="#0b54f7"/>
      <path id="Path_300" data-name="Path 300" d="M103.4,188.331a16.048,16.048,0,0,1,3.968.432,29.5,29.5,0,0,1,.243-3.563,20.156,20.156,0,0,0-3.995-.3,35.488,35.488,0,0,0-6.046.486v3.4a54.231,54.231,0,0,1,5.83-.459" fill="#0b54f7"/>
      <path id="Path_301" data-name="Path 301" d="M128.57,185.794a15.616,15.616,0,0,0-7.559,2.132c1.162-2.834,1.648-4.156,1.783-4.534a47.123,47.123,0,0,0,11.121-2.322,9.909,9.909,0,0,1-.7-3.4,44.066,44.066,0,0,1-9.232,2.187c.135-.378.756-2.322.891-2.754.3-.027.621-.108.621-.378,0-.216-.19-.324-.54-.4l-3.725-.971a33.561,33.561,0,0,1-1.053,4.885,32.575,32.575,0,0,1-6.668-.513l.028,3.752a48.647,48.647,0,0,0,5.614.135,34.493,34.493,0,0,1-3.833,8.26l3.239,1.647a14.3,14.3,0,0,1,9.8-4.724c2.132,0,3.752.891,3.752,3.1,0,4.049-6.316,4.67-9.8,4.67a39.918,39.918,0,0,1-4.076-.243,14.46,14.46,0,0,1,.864,3.428,23.35,23.35,0,0,0,2.834.135c3.293,0,13.983-.4,13.983-7.882,0-1.242-.432-6.208-7.342-6.208" fill="#0b54f7"/>
      <path id="Path_302" data-name="Path 302" d="M163.587,175.024l-1.808,1.188a12.541,12.541,0,0,1,2.241,2.969c1.052-.756,1.187-.864,1.943-1.377a17.762,17.762,0,0,0-2.376-2.78" fill="#0b54f7"/>
      <path id="Path_303" data-name="Path 303" d="M151.737,181.178c.271-1.08.54-2.43.783-3.59.567-.054.7-.27.7-.459,0-.216-.215-.3-.512-.378l-3.86-1.188a47.747,47.747,0,0,1-.837,6.128c-.971.134-5.641,1.133-6.721,1.295l1.161,3.752a29.286,29.286,0,0,1,4.67-1.457,31.475,31.475,0,0,1-6.506,12.12,16.251,16.251,0,0,1,3.4,1.754,41.422,41.422,0,0,0,6.829-14.576,11.064,11.064,0,0,1,1.324-.135c2.59,0,2.59,2.753,2.59,3.887a15.068,15.068,0,0,1-.89,5.264c-.864,2.051-1.674,2.132-2.834,2.132a5.687,5.687,0,0,1-2.457-.567,12.836,12.836,0,0,1,.324,3.941,10.892,10.892,0,0,0,2.456.3c2.16,0,3.807-.7,5.183-3.347a17.072,17.072,0,0,0,1.674-7.45c0-6.829-3.375-7.612-6.479-7.423" fill="#0b54f7"/>
      <path id="Path_304" data-name="Path 304" d="M159.4,179.828l-2.537,1.458c2,1.97,4.238,4.913,4.238,6.316,0,.837-.486.972-1.971,1.377a23.4,23.4,0,0,1,1.754,3.05c1.809-.594,4.13-1.377,4.13-3.509,0-2.861-3.724-6.91-5.614-8.692" fill="#0b54f7"/>
      <path id="Path_305" data-name="Path 305" d="M163.317,179.4A19.844,19.844,0,0,0,161,176.671l-1.755,1.214a22.59,22.59,0,0,1,2.348,2.807,15.387,15.387,0,0,1,1.728-1.295" fill="#0b54f7"/>
      <path id="Path_306" data-name="Path 306" d="M177.361,187.359c0-.513.108-1.376.162-1.943-.513.242-.837.378-2.511,1V182.9H177.6v-2.969h-2.592v-3.455c.3-.108.675-.243.675-.54a.339.339,0,0,0-.378-.324l-3.265-.189v4.508h-3.483V182.9h3.483v4.454c-2.43.648-2.7.729-3.752.918l.566,3.428c.027.216.108.351.3.351.378,0,.513-.378.621-.729.729-.243,1.16-.378,2.268-.783v5.291c0,1.295,0,1.538-.946,1.538a9.543,9.543,0,0,1-1.727-.161,9.573,9.573,0,0,1,.837,3.1,2.96,2.96,0,0,0,.674.054c4.13,0,4.13-1.188,4.13-3.321v-7.611a19.239,19.239,0,0,0,2.457-1.107,4.208,4.208,0,0,1-.108-.972" fill="#0b54f7"/>
      <path id="Path_307" data-name="Path 307" d="M186.782,197.077v-3.05h4.805V191.22h-4.805V189.2h6.235V186.28H178.009V189.2h5.75v7.045a7.768,7.768,0,0,1-2.4-2.267c.081-.324.432-1.971.513-2.321.3-.081.675-.162.675-.486,0-.243-.216-.3-.406-.351l-3.184-.783a14.075,14.075,0,0,1-3.7,8.88,4.8,4.8,0,0,1,2.672,1.485,9.225,9.225,0,0,0,2.4-3.563c2.619,3.159,5.182,3.185,8.4,3.185a26.589,26.589,0,0,0,3.617-.162,7.775,7.775,0,0,1,1-3.266,23.45,23.45,0,0,1-4.994.567,14.863,14.863,0,0,1-1.565-.081" fill="#0b54f7"/>
      <path id="Path_308" data-name="Path 308" d="M178.927,185.335h12.9V176.13h-12.9Zm3.266-6.964h6.532v1.269h-6.532Zm0,3.266h6.532v1.4h-6.532Z" fill="#0b54f7"/>
      <path id="Path_309" data-name="Path 309" d="M215.725,192l-2.646,1.755a30.68,30.68,0,0,0,5.561,6.451,10.527,10.527,0,0,1,2.592-2.43A26.494,26.494,0,0,1,215.725,192" fill="#0b54f7"/>
      <path id="Path_310" data-name="Path 310" d="M211.136,193.892l-2.646-1.484a15.679,15.679,0,0,1-5.505,5.938,6.822,6.822,0,0,1,2.861,1.943,20.9,20.9,0,0,0,4.993-5.587c.594-.108.783-.162.783-.378,0-.162-.108-.216-.486-.432" fill="#0b54f7"/>
      <path id="Path_311" data-name="Path 311" d="M203.389,182.636c0-.162-.054-.243-.62-.432l-.486-.162c.864-1.619,1.592-3.32,2.24-4.859.459-.026.728-.054.728-.4,0-.189-.242-.378-.431-.433l-3.077-.971c-.486,1.862-2.646,7.639-6.262,11.256a5.292,5.292,0,0,1,2.294,2.267,23.572,23.572,0,0,0,1.7-2.159v13.5h3.348V183.149c.107-.054.188-.108.378-.216.134-.081.188-.135.188-.3" fill="#0b54f7"/>
      <path id="Path_312" data-name="Path 312" d="M216.993,183.634h3.483V180.5h-3.483V176.67c.135-.054.243-.108.459-.216a.354.354,0,0,0,.27-.35c0-.3-.324-.325-.729-.352l-3.239-.134V180.5h-2.888v-3.752a2.263,2.263,0,0,0,.432-.243c.108-.081.216-.135.216-.27,0-.3-.351-.351-.621-.378l-3.293-.242V180.5h-3.482v3.131H207.6v5.048h-3.941v3.131h17.6v-3.131h-4.265Zm-3.239,5.048h-2.888v-5.048h2.888Z" fill="#0b54f7"/>
      <path id="Path_313" data-name="Path 313" d="M248.744,178.478c-.323.028-1.215.081-9.123.4a14.593,14.593,0,0,1,.135-2.159c.269-.135.431-.216.431-.459,0-.189-.188-.243-.621-.3l-3.913-.486a30.09,30.09,0,0,1,.378,3.563c-9.312.54-10.339.594-11.229.594l.269,3.86a82.424,82.424,0,0,1,11.067-1.3c0,.594,0,.972-.027,2.106a3.469,3.469,0,0,0-1.133-.162c-2.861,0-4.724,2.186-4.724,5.507,0,1.808.594,5.128,3.887,5.128a3.792,3.792,0,0,0,2.591-.945c-.324.837-1.16,2.916-5.4,4.616a15.375,15.375,0,0,1,3.266,2.4,12.132,12.132,0,0,0,6.478-10.366,9.025,9.025,0,0,0-1.376-4.913c-.081-1.268-.027-3.049-.027-3.508,1.214-.055,3.967-.108,9.1.107a17.675,17.675,0,0,1-.108-2.375,7.7,7.7,0,0,1,.081-1.323m-13.793,13.551c-.459,0-1.674-.27-1.674-2.511,0-1.646.864-2.456,1.781-2.456,1.512,0,1.674,1.539,1.674,2.106,0,1.565-.7,2.861-1.781,2.861" fill="#0b54f7"/>
      <path id="Path_314" data-name="Path 314" d="M268.079,184.472a10.952,10.952,0,0,0-3.536.593c1.025-1.107,5.506-5.317,7.153-6.559l-1.863-2.483c-4.13,1.565-11.579,1.727-13.6,1.646l.594,3.617A76.075,76.075,0,0,0,265,180.261a92.983,92.983,0,0,1-11.77,11.283l2.754,2.7c3.806-3.941,6.533-6.775,11.256-6.775,3.941,0,4.859,2.726,4.859,4.292a3.889,3.889,0,0,1-2.4,3.752c-.621-3.185-3.7-4.266-5.749-4.266-2.807,0-4.913,1.728-4.913,4.05,0,2.564,2.4,4.534,6.56,4.534,4.4,0,10.122-2.483,10.122-8.367,0-4.643-3.644-6.991-7.639-6.991m-3,12.6c-1.323,0-2.808-.594-2.808-1.673,0-.621.487-1.215,1.485-1.215a2.872,2.872,0,0,1,2.942,2.672,6.668,6.668,0,0,1-1.619.216" fill="#0b54f7"/>
      <path id="Path_315" data-name="Path 315" d="M299.749,176.994c.135-.054.432-.189.432-.486,0-.189-.189-.243-.432-.27l-3.833-.216v5.561h-5.588v-4.427c.243-.135.433-.243.433-.432,0-.3-.325-.3-.568-.324l-3.562-.216v5.4h-5.237v3.563h5.237v6.37h3.7v-6.37h5.588a15.445,15.445,0,0,1-1.106,6.505,11.683,11.683,0,0,1-6.911,5.561,9.7,9.7,0,0,1,2.807,2.861,14.4,14.4,0,0,0,6.991-5.912c.675-1.133,2.052-3.347,2.052-9.015h4.913v-3.563h-4.913Z" fill="#0b54f7"/>
      <rect id="Rectangle_121" data-name="Rectangle 121" width="23.295" height="3.833" transform="translate(309.555 186.064)" fill="#0b54f7"/>
      <path id="Path_316" data-name="Path 316" d="M359.58,174.619l-1.809,1.512a18.752,18.752,0,0,1,2.808,2.7c.323-.324,1.188-1.08,1.781-1.593a21.057,21.057,0,0,0-2.78-2.618" fill="#0b54f7"/>
      <path id="Path_317" data-name="Path 317" d="M344.086,192.92v-4.4a39.666,39.666,0,0,0,14.253-5.209,4.215,4.215,0,0,0,.458.053c.4,0,.621-.108.621-.323a.463.463,0,0,0-.216-.324l-3.1-2.511c-2.267,1.917-7.531,4.238-12.012,4.967V177.21c.378-.162.648-.27.648-.54,0-.243-.27-.324-.512-.324l-3.914-.216V193.7c0,2.051.35,2.915.971,3.563,1.457,1.538,2.51,1.538,12.363,1.538,4.157,0,4.832-.053,5.56-.108a15.062,15.062,0,0,1,.513-3.671,103.192,103.192,0,0,1-10.608.513c-4.616,0-5.021-.108-5.021-2.618" fill="#0b54f7"/>
      <path id="Path_318" data-name="Path 318" d="M357.231,176.616l-1.781,1.512a26.848,26.848,0,0,1,2.834,2.672c.189-.189,1.215-1.134,1.727-1.512a25.9,25.9,0,0,0-2.78-2.672" fill="#0b54f7"/>
      <path id="Path_319" data-name="Path 319" d="M380.912,187.953a43.34,43.34,0,0,0,3.482-6.883,8.757,8.757,0,0,1,1.026-1.728l-1.836-1.97a7.313,7.313,0,0,1-1.862.216H368.01v3.428h12.173a23.772,23.772,0,0,1-14.657,15.035,9.726,9.726,0,0,1,2.565,3.158,31.619,31.619,0,0,0,10.8-8.422,36.934,36.934,0,0,1,7.666,8.044c.323-.378,1.835-2.051,2.78-3.077a61.207,61.207,0,0,0-8.422-7.8" fill="#0b54f7"/>
      <path id="Path_320" data-name="Path 320" d="M405.941,187.225c5.561-2.349,7.531-2.591,9.664-2.808l-1.431-4.022c-4.8,1.809-6.1,2.295-9.825,4.022a12.213,12.213,0,0,1-1.3-6.073c0-.837.054-1.457.162-2.753l-4.561.971a10.213,10.213,0,0,1,.62,2.646c.433,3.482.648,5.264,2.079,6.748-3.4,1.971-5.857,4.292-5.857,7.531a5.122,5.122,0,0,0,2.86,4.535c1.242.648,3.105,1.4,7.856,1.4a52.9,52.9,0,0,0,8.988-.81,12.252,12.252,0,0,1,.351-4.076,27.75,27.75,0,0,1-9.07,1.431c-4.886,0-7.018-.756-7.018-2.727,0-3.266,5.156-5.453,6.478-6.019" fill="#0b54f7"/>
      <path id="Path_321" data-name="Path 321" d="M425.951,192.272a21.307,21.307,0,0,1-.189-3.185,38.944,38.944,0,0,1,1.539-10.716c.35-.054.755-.135.755-.432,0-.189-.108-.3-.324-.378l-3.752-1.188a51.277,51.277,0,0,0-1.565,12.417,37.531,37.531,0,0,0,1.4,10.662l3.077-.594a13.384,13.384,0,0,1,2.242-7.018,9.758,9.758,0,0,1-1.728-2.294c-.217.378-1.215,2.294-1.458,2.726" fill="#0b54f7"/>
      <path id="Path_322" data-name="Path 322" d="M440.041,184.552c.783-.135,2.133-.351,4.319-.891v-3.482a25.986,25.986,0,0,1-4.238,1.053,31.38,31.38,0,0,1,.27-3.536c.27-.027.648-.108.648-.378,0-.162-.081-.3-.378-.351l-4.1-.674c0,.62-.027,5.1-.027,5.344-.485.027-1.215.081-2.321.081a29.918,29.918,0,0,1-3.347-.189v3.617c.566.027,1.079.054,1.862.054.81,0,2.187-.054,3.833-.189.027,2.375.216,4.67.3,5.723a11.083,11.083,0,0,0-1.134-.081c-2.915,0-5.56,1.484-5.56,4.184,0,1.835,1.377,4.237,5.29,4.237,1.188,0,5.345-.243,5.345-3.941a11.052,11.052,0,0,1,3.428,2.322c.189-.432,1.188-2.51,1.592-3.212a16.819,16.819,0,0,0-5.371-2.916,53.584,53.584,0,0,1-.405-6.775m-4.967,11.58c-1.106,0-1.889-.54-1.889-1.295,0-.594.513-1.35,2.187-1.35a4.391,4.391,0,0,1,1.916.351,4.848,4.848,0,0,1,.054.594c0,1.673-2.079,1.7-2.268,1.7" fill="#0b54f7"/>
      <path id="Path_323" data-name="Path 323" d="M461.967,176.346c-2.456,0-5.236.7-6.855,2.834a6.964,6.964,0,0,0-1.27,4h4.185c.107-1.781.512-3.4,3.778-3.4,1.4,0,3.455.3,3.455,2.159,0,.486,0,1.323-2.051,2.943-3,2.321-3.7,2.861-3.7,5.048v1.565h3.671v-.675c0-1.754.945-2.672,2.753-3.887,3.455-2.321,3.482-4.157,3.482-5.047,0-2.862-2.429-5.534-7.45-5.534" fill="#0b54f7"/>
      <rect id="Rectangle_122" data-name="Rectangle 122" width="4.103" height="4.238" transform="translate(459.295 193.972)" fill="#0b54f7"/>
      <path id="Path_324" data-name="Path 324" d="M118.207,66.723H101.1v8.3h9.734c2.291,5.154,4.366,9.663,9.234,14.745H84.994c5.082-5.654,7.23-9.162,10.88-15.031,1.146,0,2-.143,2-.859,0-.573-.645-.93-1.146-1.289l-7.515-4.938C82.489,81.039,75.832,86.479,66.885,93.136c1.646.857,3.936,2.29,6.872,6.871a70.947,70.947,0,0,0,9.878-8.732v7.086h9.448C91.937,113.392,81.845,119.333,70.75,123.2c4.581,3.794,5.655,6.084,6.3,7.587,9.3-4.151,23.55-12.026,24.766-32.425H113.77c-.073,1.574-.359,9.448-.5,11.166-1.289,12.1-2.577,12.1-7.444,12.1a45.318,45.318,0,0,1-6.3-.573A22.277,22.277,0,0,1,102.1,130.5c3.865.286,11.453.072,14.459-2.577,5.3-4.51,5.583-12.456,6.442-35.288a45.531,45.531,0,0,0,8.876,7.157c1.359-3.22,2.576-4.652,5.583-7.73-11.954-6.514-18.109-16.535-19.255-25.339" fill="#0b54f7"/>
      <path id="Path_325" data-name="Path 325" d="M200.311,83.543l-4.439,3.579a57.055,57.055,0,0,1,6.3,8.088,35.921,35.921,0,0,1,4.653-4.08,50.122,50.122,0,0,0-6.513-7.587" fill="#0b54f7"/>
      <path id="Path_326" data-name="Path 326" d="M193.439,88.84l-4.652,3.937a63.943,63.943,0,0,1,6.084,7.945,53.393,53.393,0,0,1,4.8-4.151c-1.647-2.434-5.226-6.585-6.228-7.731" fill="#0b54f7"/>
      <path id="Path_327" data-name="Path 327" d="M192.651,119.977c-15.175-1.146-21.044-6.585-21.044-14.96,0-13.1,15.89-27.773,33.785-27.7L203.531,67.08c-21.116,5.583-50.964,6.8-55.832,6.8a42.13,42.13,0,0,1-4.652-.215l1.36,11.524c6.943-1.789,28.058-4.223,32.64-4.509-9.592,7.373-15.032,15.6-15.032,25.2,0,16.248,15.246,22.476,26.126,24.909a52.715,52.715,0,0,1,4.51-10.808" fill="#0b54f7"/>
      <path id="Path_328" data-name="Path 328" d="M260.511,81.182c-3.794,0-9.377.787-16.034,5.154A28.708,28.708,0,0,1,248.2,80.9l-4.582-5.011c-1.359.716-1.789.931-2.433,1.217.358-5.583.5-7.015.716-8.661.788-.143,1.575-.215,1.575-1.074s-.931-.93-2.148-1l-9.377-.644c.287,7.015.359,7.8.359,14.6a72.109,72.109,0,0,1-13.6,2.362l1.718,10.236a99.318,99.318,0,0,0,11.6-3.794v3.078c-3.077,5.727-8.948,13.456-15.032,19.828l7.015,6.871c1.146-1.36,6.228-8.661,7.444-10.236-.357,13.743-.357,15.39-.715,21.546l10.092-.788c-.071-6.156-.071-8.661-.071-31.209,3.221-2.791,10.594-8.374,18.753-8.374,6.228,0,11.739,4.008,11.739,12.169,0,12.6-13.171,15.746-22.905,16.391a26.834,26.834,0,0,1,4.94,8.8c5.368-.787,27.342-4.008,27.342-25.7,0-16.033-12.24-20.328-20.113-20.328" fill="#0b54f7"/>
      <path id="Path_329" data-name="Path 329" d="M323.431,80.466c.357-1.432.931-3.65,2.147-9.305,1.5-.143,1.933-.716,1.933-1.217,0-.645-.716-.859-1.432-1.074l-10.164-3.221a105.24,105.24,0,0,1-2.291,15.891c-2.648.429-15.675,3.221-18.61,3.793l3.364,9.807c3.078-1.432,8.518-2.863,12.813-3.937a85.208,85.208,0,0,1-17.752,32.067,44.191,44.191,0,0,1,9.019,4.8c10.308-13.457,15.175-26.77,18.611-38.581.859-.072,2.218-.215,3.078-.215,2.863,0,6.943.716,6.943,8.661,0,8.733-2.577,16.463-4.724,18.9-1.289,1.5-2.649,2.147-5.154,2.147a13.513,13.513,0,0,1-6.657-1.574,49.155,49.155,0,0,1,.931,8.232,18.077,18.077,0,0,1-.144,2.218,37.8,37.8,0,0,0,7.3.859c5.3,0,8.374-2,10.665-5.01,3.435-4.581,7.015-15.032,7.015-25.769,0-18.181-11.74-17.68-16.893-17.465" fill="#0b54f7"/>
      <path id="Path_330" data-name="Path 330" d="M342.972,101.009a46.593,46.593,0,0,1,3.65,8.16,25.838,25.838,0,0,0,7.159-2.219c4.007-1.932,5.082-4.008,5.082-7.516,0-5.654-5.011-17.465-12.956-26.2l-7.445,4.724c9.521,10.593,10.451,18.324,10.451,19.111,0,2.72-3.293,3.436-5.941,3.937" fill="#0b54f7"/>
      <path id="Path_331" data-name="Path 331" d="M398.662,90.7c2.72-2.935,14.6-14.1,18.969-17.393l-4.939-6.586c-10.952,4.152-30.707,4.582-36.076,4.367l1.575,9.591c4.581-.357,15.461-1.36,21.688-2.72-4.08,5.369-23.55,24.623-31.208,29.92l7.3,7.158c10.093-10.45,17.322-17.966,29.849-17.966,10.45,0,12.883,7.23,12.883,11.381a10.312,10.312,0,0,1-6.37,9.95c-1.646-8.447-9.806-11.31-15.246-11.31-7.444,0-13.027,4.581-13.027,10.737,0,6.8,6.37,12.025,17.393,12.025,11.667,0,26.842-6.585,26.842-22.189,0-12.312-9.663-18.539-20.257-18.539a29.086,29.086,0,0,0-9.377,1.574m1.432,31.853c-3.508,0-7.444-1.575-7.444-4.438,0-1.646,1.288-3.221,3.936-3.221,4.153,0,7.158,2.649,7.8,7.086a17.672,17.672,0,0,1-4.3.573" fill="#0b54f7"/>
      <path id="Path_332" data-name="Path 332" d="M458.057,116.111h0a6.412,6.412,0,0,0-6.412,6.412v.422a6.412,6.412,0,0,0,12.824,0v-.422a6.412,6.412,0,0,0-6.412-6.412" fill="#0b54f7"/>
      <path id="Path_333" data-name="Path 333" d="M461.666,106.46l2.087-20.525c.011-.114.017-.228.017-.343V69.514a3.384,3.384,0,0,0-3.384-3.384h-4.658a3.384,3.384,0,0,0-3.384,3.384V85.587a3.2,3.2,0,0,0,.019.353l2.157,20.531a3.383,3.383,0,0,0,3.365,3.03h.415a3.384,3.384,0,0,0,3.366-3.041" fill="#0b54f7"/>
      <path id="Path_334" data-name="Path 334" d="M37.813,105.428c11.262-7.1,16.043-12.033,16.043-20.672,0-10.027-8.022-18.281-23.756-18.281-24.529,0-25.685,18.435-26,23.758h11.88c.386-7.019,2.544-13.962,14.115-13.962,5.63,0,11.955,2.083,11.955,8.562,0,4.628-1.619,6.711-12.958,14.27C10.045,111.753,3.951,115.841,3.1,128.953H54.4v-8.947h-35.4c3.932-4.7,7.1-7.173,18.82-14.578" fill="#0b54f7"/>
      <path id="Path_335" data-name="Path 335" d="M67.671,38.167a7.665,7.665,0,0,0-1.552-4.532.643.643,0,0,0-1.029,0,7.67,7.67,0,0,0-1.551,4.532,1.975,1.975,0,0,0,2.045,2.126,2.017,2.017,0,0,0,2.087-2.126" fill="#0b54f7"/>
      <path id="Path_336" data-name="Path 336" d="M45.374,35.14a13,13,0,0,1,12.233-8.646,15.468,15.468,0,0,1,7.407,1.891,1.218,1.218,0,0,0,1.182,0A15.467,15.467,0,0,1,73.6,26.494,13,13,0,0,1,86.02,35.7a.416.416,0,0,0,.761.084,24.011,24.011,0,1,0-42.168-.592.415.415,0,0,0,.761-.053M66.916,14.954a8.3,8.3,0,0,1,14.447-4.585A1.579,1.579,0,0,1,80.19,13h-.108a1.535,1.535,0,0,1-1.135-.512A5.093,5.093,0,1,0,75.178,21c.157,0,.312-.009.466-.023.045,0,.09-.01.134-.015.117-.014.232-.032.346-.053l.118-.022c.15-.032.3-.07.444-.115l.027-.009c.139-.044.276-.095.411-.151l.074-.032c.138-.059.274-.124.406-.195h0A4.958,4.958,0,0,0,79.549,18.5a.382.382,0,0,0-.329-.579H76.788a1.612,1.612,0,0,1-1.583-1.91,1.749,1.749,0,0,1,1.662-1.31H82.3a1.2,1.2,0,0,1,1.2,1.2v.012a8.305,8.305,0,0,1-.373,2.467l0,.008c-.021.069-.051.134-.074.2a8.309,8.309,0,0,1-.968,1.961l-.011.017a8.376,8.376,0,0,1-2.226,2.227l-.038.025c-.2.133-.4.255-.609.371-.03.016-.06.034-.091.05q-.327.177-.671.324l-.022.01c-.235.1-.477.187-.723.265-.052.017-.106.03-.159.045q-.278.083-.563.145c-.073.016-.146.03-.219.044-.167.032-.335.062-.5.081-.1.01-.192.025-.289.034-.255.023-.511.039-.771.039a8.326,8.326,0,0,1-8.262-9.272M57.351,7.595a8.279,8.279,0,0,1,6.284,2.886A1.539,1.539,0,0,1,62.443,13h-.176a1.567,1.567,0,0,1-1.156-.523,5.1,5.1,0,1,0-.344,7.2,1.669,1.669,0,0,1,1.171-.436,1.612,1.612,0,0,1,1.016,2.8,8.313,8.313,0,1,1-5.6-14.451" fill="#0b54f7"/>
      <path id="Path_337" data-name="Path 337" d="M62.031,30.994a11.921,11.921,0,0,0-4.6-.809,9.272,9.272,0,0,0-9.111,9.291A2.282,2.282,0,0,0,49,41.1a24,24,0,0,0,32.8.859,3.313,3.313,0,0,0,1.093-2.482,9.272,9.272,0,0,0-9.11-9.291,11.923,11.923,0,0,0-4.606.809.468.468,0,0,0-.209.718,11.1,11.1,0,0,1,2.391,6.911,5.678,5.678,0,0,1-5.777,5.815,5.594,5.594,0,0,1-5.734-5.815,11.1,11.1,0,0,1,2.391-6.911.468.468,0,0,0-.209-.718" fill="#0b54f7"/>
      <path id="Path_338" data-name="Path 338" d="M117.522,39.387a15.4,15.4,0,0,0,12.013-5.242.246.246,0,0,0,0-.343l-3.291-3.334a.247.247,0,0,0-.344-.007c-2.465,2.3-4.7,3.726-8.207,3.726-5.347,0-9.378-4.355-9.378-10.13v-.083c0-5.727,4.031-10.045,9.378-10.045,2.881,0,5.348,1.1,8,3.559a.209.209,0,0,0,.181.066.242.242,0,0,0,.172-.085l3.292-3.792a.246.246,0,0,0-.015-.339,15.418,15.418,0,0,0-11.588-4.61,14.973,14.973,0,0,0-15.287,15.329v.084a14.83,14.83,0,0,0,15.079,15.246" fill="#0b54f7"/>
      <path id="Path_339" data-name="Path 339" d="M154.943,31.845l2.894,6.891a.246.246,0,0,0,.227.151h5.416a.246.246,0,0,0,.226-.345L150.874,9.168a.251.251,0,0,0-.226-.148H145.9a.248.248,0,0,0-.227.148L132.839,38.542a.246.246,0,0,0,.225.345h5.25a.251.251,0,0,0,.228-.149l2.935-6.893Zm-11.38-5.033,4.628-10.8,4.666,10.8Z" fill="#0b54f7"/>
      <path id="Path_340" data-name="Path 340" d="M169.315,38.887h5.041a.246.246,0,0,0,.246-.246V18.619l8.675,12.992a.248.248,0,0,0,.205.109h.166a.245.245,0,0,0,.2-.109l8.758-13.077V38.641a.246.246,0,0,0,.246.246h5.126a.246.246,0,0,0,.246-.246V9.474a.246.246,0,0,0-.246-.246h-5.459a.246.246,0,0,0-.207.113l-8.668,13.47L174.98,9.341a.246.246,0,0,0-.207-.113h-5.458a.246.246,0,0,0-.246.246V38.641a.246.246,0,0,0,.246.246" fill="#0b54f7"/>
      <path id="Path_341" data-name="Path 341" d="M205.9,14.471h9v24.17a.246.246,0,0,0,.246.246h5.166a.246.246,0,0,0,.246-.246V14.471h9a.246.246,0,0,0,.246-.246V9.475a.246.246,0,0,0-.246-.246H205.9a.246.246,0,0,0-.246.246v4.75a.246.246,0,0,0,.246.246" fill="#0b54f7"/>
      <path id="Path_342" data-name="Path 342" d="M235.816,38.887h21.832a.246.246,0,0,0,.246-.246V34.057a.246.246,0,0,0-.246-.246H241.186V26.47h14.379a.246.246,0,0,0,.246-.246V21.641a.246.246,0,0,0-.246-.246H241.186V14.3H257.44a.246.246,0,0,0,.246-.246V9.474a.246.246,0,0,0-.246-.246H235.816a.246.246,0,0,0-.246.246V38.641a.246.246,0,0,0,.246.246" fill="#0b54f7"/>
      <path id="Path_343" data-name="Path 343" d="M278.108,39.387a15.4,15.4,0,0,0,12.011-5.242.246.246,0,0,0,0-.343l-3.292-3.334a.246.246,0,0,0-.343-.007c-2.465,2.3-4.7,3.726-8.207,3.726-5.347,0-9.379-4.355-9.379-10.13v-.083c0-5.727,4.032-10.045,9.379-10.045,2.881,0,5.348,1.1,8,3.559a.242.242,0,0,0,.181.066.248.248,0,0,0,.172-.085l3.291-3.792a.246.246,0,0,0-.016-.339,15.415,15.415,0,0,0-11.587-4.61,14.972,14.972,0,0,0-15.286,15.329v.084a14.83,14.83,0,0,0,15.079,15.246" fill="#0b54f7"/>
      <path id="Path_344" data-name="Path 344" d="M296.149,38.887h5.125a.246.246,0,0,0,.246-.246V26.6h13.425V38.641a.246.246,0,0,0,.246.246h5.124a.246.246,0,0,0,.246-.246V9.474a.246.246,0,0,0-.246-.246h-5.124a.246.246,0,0,0-.246.246V21.353H301.52V9.474a.246.246,0,0,0-.246-.246h-5.125a.246.246,0,0,0-.246.246V38.641a.246.246,0,0,0,.246.246" fill="#0b54f7"/>
      <path id="Path_345" data-name="Path 345" d="M341.154,38.893h11.139a5.218,5.218,0,0,0,5.218-5.218V26.538a4.61,4.61,0,0,0-4.61-4.61h-8.443a.3.3,0,0,0-.3.3v3.315a.3.3,0,0,0,.3.3H352.9a.7.7,0,0,1,.7.7v7.136a1.3,1.3,0,0,1-1.3,1.3H341.154a5.607,5.607,0,0,1-5.607-5.607V18.4a5.607,5.607,0,0,1,5.607-5.608h14.494a.3.3,0,0,0,.3-.3l1.024-3.315a.3.3,0,0,0-.3-.3H341.153a9.522,9.522,0,0,0-9.521,9.522V29.371a9.522,9.522,0,0,0,9.522,9.522" fill="#0b54f7"/>
      <path id="Path_346" data-name="Path 346" d="M365.868,12.793a.4.4,0,0,1,.373.251l6.566,16.271a5.411,5.411,0,0,0,5.271,3.395,5.611,5.611,0,0,0,4.88-3.581l6.491-16.085a.4.4,0,0,1,.775.151V38.657a.3.3,0,0,0,.3.3h3.315a.3.3,0,0,0,.3-.3V13.195a4.321,4.321,0,0,0-4.671-4.3,4.462,4.462,0,0,0-3.708,2.832l-6.508,16.127a1.518,1.518,0,0,1-2.814,0l-6.567-16.272a4.3,4.3,0,0,0-4.33-2.689,4.428,4.428,0,0,0-3.991,4.471v25.3a.3.3,0,0,0,.3.3h3.316a.3.3,0,0,0,.3-.3V13.195a.4.4,0,0,1,.4-.4" fill="#0b54f7"/>
      <path id="Path_347" data-name="Path 347" d="M403.972,23.46l11.407,4.505.078.029a4.523,4.523,0,0,1,3.046,4.159,2.778,2.778,0,0,1-2.786,2.825H400a.3.3,0,0,0-.3.3l-1.024,3.316a.3.3,0,0,0,.3.3h16.651a6.774,6.774,0,0,0,6.787-6.712,8.44,8.44,0,0,0-5.639-7.871l-11.406-4.5-.078-.029a4.513,4.513,0,0,1-3.026-4.156,2.778,2.778,0,0,1,2.786-2.827h15.461a.3.3,0,0,0,.3-.3l1.024-3.315a.3.3,0,0,0-.3-.3h-16.4a6.773,6.773,0,0,0-6.786,6.717,8.431,8.431,0,0,0,5.618,7.865" fill="#0b54f7"/>
      <rect id="Rectangle_123" data-name="Rectangle 123" width="466.314" height="6.319" transform="translate(1.524 149.228)" fill="#0b54f7"/>
    </g>
  </g>
</svg>
