<svg xmlns="http://www.w3.org/2000/svg" xmlns:xlink="http://www.w3.org/1999/xlink" width="334" height="208" viewBox="0 0 334 208">
  <defs>
    <clipPath id="clip-path">
      <rect id="Rectangle_124" data-name="Rectangle 124" width="284.348" height="121.668" fill="#0b54f7"/>
    </clipPath>
    <clipPath id="clip-path-2">
      <rect id="Rectangle_37" data-name="Rectangle 37" width="38.332" height="38.332" fill="#0b54f7"/>
    </clipPath>
  </defs>
  <g id="Group_1038" data-name="Group 1038" transform="translate(-21 -3386)">
    <rect id="Rectangle_34" data-name="Rectangle 34" width="334" height="208" rx="10" transform="translate(21 3386)" fill="#fff"/>
    <g id="Group_116" data-name="Group 116" transform="translate(46 3405.911)">
      <g id="Group_115" data-name="Group 115" clip-path="url(#clip-path)">
        <path id="Path_293" data-name="Path 293" d="M9.942,179.176a6.521,6.521,0,0,0-3.663,1.177,6.552,6.552,0,0,1,.85-1.242l-1.047-1.145c-.311.164-.409.213-.555.278.082-1.275.114-1.6.163-1.978.18-.033.36-.049.36-.245s-.212-.213-.49-.229l-2.143-.147c.066,1.6.082,1.783.082,3.336a16.459,16.459,0,0,1-3.106.54l.393,2.338a22.738,22.738,0,0,0,2.649-.867v.7A23.478,23.478,0,0,1,0,186.223l1.6,1.57c.262-.311,1.423-1.978,1.7-2.338-.082,3.14-.082,3.515-.164,4.922l2.305-.18c-.016-1.406-.016-1.978-.016-7.129a7.137,7.137,0,0,1,4.284-1.913,2.573,2.573,0,0,1,2.682,2.779c0,2.878-3.009,3.6-5.232,3.745a6.13,6.13,0,0,1,1.128,2.011c1.227-.18,6.246-.915,6.246-5.87a4.355,4.355,0,0,0-4.595-4.644" transform="translate(0 -69.248)" fill="#0b54f7"/>
        <path id="Path_294" data-name="Path 294" d="M46.665,193.751a11.891,11.891,0,0,1-3.548.54c-.752,0-2.748,0-2.748-.867a1.938,1.938,0,0,1,.556-1.21l-1.815-.67a4.364,4.364,0,0,0-.719,2.191c0,2.436,3.336,2.567,4.873,2.567a20.793,20.793,0,0,0,3.417-.294,6.16,6.16,0,0,1-.1-1.145,6.436,6.436,0,0,1,.082-1.112" transform="translate(-15.136 -75.517)" fill="#0b54f7"/>
        <path id="Path_295" data-name="Path 295" d="M44.947,186.979a9.72,9.72,0,0,1,2.4.262,17.867,17.867,0,0,1,.147-2.158,12.212,12.212,0,0,0-2.42-.18,21.5,21.5,0,0,0-3.662.294v2.06a32.849,32.849,0,0,1,3.532-.278" transform="translate(-16.328 -72.899)" fill="#0b54f7"/>
        <path id="Path_296" data-name="Path 296" d="M38.311,179.826l-.262-2.175a11.559,11.559,0,0,1-3.008.834c.065-.262.376-1.57.457-1.864.326-.033.326-.213.326-.245,0-.115-.081-.18-.31-.229l-2.387-.556a30.984,30.984,0,0,1-.425,3.172c-1.112.1-2.027.1-2.338.1-.687,0-1.194-.033-1.6-.066l.18,2.29c1.537-.033,2.24-.033,3.238-.131a25.646,25.646,0,0,1-4.154,8.339,14.21,14.21,0,0,1,2.093,1.062,37.047,37.047,0,0,0,4.349-9.728,23.64,23.64,0,0,0,3.843-.8" transform="translate(-11.049 -69.227)" fill="#0b54f7"/>
        <path id="Path_297" data-name="Path 297" d="M70.734,183.326c-.67,1.439-3.14,4.758-5.919,4.758-1.521,0-1.783-1.1-1.783-3.908a50.03,50.03,0,0,1,.474-7.341c.131-.033.36-.114.36-.278,0-.18-.114-.2-.376-.229l-2.567-.36c.016.327.032.442.032,1.112,0,.932-.179,5.478-.179,6.508,0,3.27.114,6.8,3.826,6.8,1.929,0,5.117-.949,7.783-5.232a10.865,10.865,0,0,1-1.652-1.831" transform="translate(-23.962 -69.376)" fill="#0b54f7"/>
        <path id="Path_298" data-name="Path 298" d="M102.825,193.751a11.891,11.891,0,0,1-3.548.54c-.752,0-2.748,0-2.748-.867a1.938,1.938,0,0,1,.556-1.21l-1.815-.67a4.364,4.364,0,0,0-.719,2.191c0,2.436,3.336,2.567,4.873,2.567a20.793,20.793,0,0,0,3.417-.294,6.16,6.16,0,0,1-.1-1.145,6.436,6.436,0,0,1,.082-1.112" transform="translate(-37.277 -75.517)" fill="#0b54f7"/>
        <path id="Path_299" data-name="Path 299" d="M94.471,179.826l-.262-2.175a11.559,11.559,0,0,1-3.008.834c.065-.262.376-1.57.457-1.864.327-.033.327-.213.327-.245,0-.115-.081-.18-.31-.229l-2.387-.556a30.99,30.99,0,0,1-.425,3.172c-1.112.1-2.027.1-2.338.1-.687,0-1.194-.033-1.6-.066l.18,2.29c1.537-.033,2.24-.033,3.238-.131a25.646,25.646,0,0,1-4.154,8.339,14.209,14.209,0,0,1,2.093,1.062,37.046,37.046,0,0,0,4.349-9.728,23.64,23.64,0,0,0,3.843-.8" transform="translate(-33.191 -69.227)" fill="#0b54f7"/>
        <path id="Path_300" data-name="Path 300" d="M101.106,186.979a9.72,9.72,0,0,1,2.4.262,17.867,17.867,0,0,1,.147-2.158,12.211,12.211,0,0,0-2.42-.18,21.5,21.5,0,0,0-3.662.294v2.06a32.849,32.849,0,0,1,3.532-.278" transform="translate(-38.469 -72.899)" fill="#0b54f7"/>
        <path id="Path_301" data-name="Path 301" d="M122.631,181.676a9.459,9.459,0,0,0-4.579,1.291c.7-1.717,1-2.517,1.08-2.746a28.545,28.545,0,0,0,6.736-1.407,6,6,0,0,1-.425-2.06,26.694,26.694,0,0,1-5.592,1.325c.082-.229.458-1.407.54-1.668.18-.016.376-.065.376-.229,0-.131-.115-.2-.327-.245l-2.256-.588a20.328,20.328,0,0,1-.638,2.959,19.732,19.732,0,0,1-4.039-.311l.017,2.273a29.469,29.469,0,0,0,3.4.082,20.9,20.9,0,0,1-2.322,5l1.962,1a8.66,8.66,0,0,1,5.936-2.862c1.291,0,2.273.54,2.273,1.88,0,2.453-3.826,2.829-5.936,2.829a24.178,24.178,0,0,1-2.469-.147,8.759,8.759,0,0,1,.523,2.077,14.147,14.147,0,0,0,1.717.082c1.995,0,8.47-.245,8.47-4.775,0-.752-.262-3.76-4.447-3.76" transform="translate(-44.751 -69.132)" fill="#0b54f7"/>
        <path id="Path_302" data-name="Path 302" d="M162.874,175.024l-1.1.72a7.6,7.6,0,0,1,1.357,1.8c.637-.458.719-.523,1.177-.834a10.757,10.757,0,0,0-1.439-1.684" transform="translate(-63.782 -69.004)" fill="#0b54f7"/>
        <path id="Path_303" data-name="Path 303" d="M147.352,178.964c.164-.654.327-1.472.474-2.175.343-.033.425-.164.425-.278,0-.131-.13-.18-.31-.229l-2.338-.72a28.925,28.925,0,0,1-.507,3.712c-.588.081-3.417.686-4.071.784l.7,2.273a17.741,17.741,0,0,1,2.829-.883,19.066,19.066,0,0,1-3.941,7.342,9.844,9.844,0,0,1,2.06,1.062,25.091,25.091,0,0,0,4.137-8.829,6.7,6.7,0,0,1,.8-.082c1.569,0,1.569,1.668,1.569,2.355a9.127,9.127,0,0,1-.539,3.189c-.523,1.242-1.014,1.291-1.717,1.291a3.445,3.445,0,0,1-1.488-.343,7.775,7.775,0,0,1,.2,2.387,6.6,6.6,0,0,0,1.488.18,3.183,3.183,0,0,0,3.14-2.027,10.341,10.341,0,0,0,1.014-4.513c0-4.137-2.044-4.611-3.925-4.5" transform="translate(-55.438 -69.216)" fill="#0b54f7"/>
        <path id="Path_304" data-name="Path 304" d="M158.4,179.828l-1.537.883c1.21,1.193,2.567,2.976,2.567,3.826,0,.507-.294.589-1.194.834a14.174,14.174,0,0,1,1.062,1.848c1.1-.36,2.5-.834,2.5-2.126,0-1.733-2.256-4.186-3.4-5.265" transform="translate(-61.845 -70.898)" fill="#0b54f7"/>
        <path id="Path_305" data-name="Path 305" d="M161.71,178.322a12.02,12.02,0,0,0-1.406-1.651l-1.063.735a13.682,13.682,0,0,1,1.422,1.7,9.32,9.32,0,0,1,1.047-.784" transform="translate(-62.781 -69.653)" fill="#0b54f7"/>
        <path id="Path_306" data-name="Path 306" d="M173.786,182.655c0-.311.065-.833.1-1.177-.311.147-.507.229-1.521.6v-2.126h1.57v-1.8h-1.57v-2.093c.18-.065.409-.147.409-.327a.205.205,0,0,0-.229-.2l-1.978-.114v2.731h-2.11v1.8h2.11v2.7c-1.472.393-1.636.442-2.273.556l.343,2.076c.016.131.065.213.18.213.229,0,.311-.229.376-.442.442-.147.7-.229,1.374-.474v3.205c0,.784,0,.932-.573.932a5.779,5.779,0,0,1-1.046-.1,5.8,5.8,0,0,1,.507,1.88,1.793,1.793,0,0,0,.408.033c2.5,0,2.5-.72,2.5-2.012v-4.61a11.656,11.656,0,0,0,1.488-.671,2.548,2.548,0,0,1-.065-.589" transform="translate(-66.35 -69.163)" fill="#0b54f7"/>
        <path id="Path_307" data-name="Path 307" d="M182.238,192.82v-1.848h2.911v-1.7h-2.911v-1.227h3.777V186.28h-9.091v1.766h3.483v4.267a4.706,4.706,0,0,1-1.456-1.373c.049-.2.262-1.194.311-1.406.18-.049.409-.1.409-.294,0-.147-.131-.18-.246-.213l-1.929-.474a8.526,8.526,0,0,1-2.24,5.379,2.905,2.905,0,0,1,1.619.9,5.588,5.588,0,0,0,1.455-2.158c1.586,1.914,3.139,1.929,5.085,1.929a16.107,16.107,0,0,0,2.191-.1,4.71,4.71,0,0,1,.605-1.978,14.2,14.2,0,0,1-3.025.343,9.009,9.009,0,0,1-.948-.049" transform="translate(-69.095 -73.442)" fill="#0b54f7"/>
        <path id="Path_308" data-name="Path 308" d="M178.927,181.706h7.815V176.13h-7.815Zm1.978-4.218h3.957v.769h-3.957Zm0,1.978h3.957v.85h-3.957Z" transform="translate(-70.543 -69.44)" fill="#0b54f7"/>
        <path id="Path_309" data-name="Path 309" d="M214.682,192l-1.6,1.063a18.585,18.585,0,0,0,3.369,3.908,6.377,6.377,0,0,1,1.57-1.472,16.047,16.047,0,0,1-3.336-3.5" transform="translate(-84.007 -75.697)" fill="#0b54f7"/>
        <path id="Path_310" data-name="Path 310" d="M207.922,193.307l-1.6-.9a9.5,9.5,0,0,1-3.335,3.6,4.133,4.133,0,0,1,1.733,1.177,12.662,12.662,0,0,0,3.025-3.384c.36-.065.474-.1.474-.229,0-.1-.065-.131-.294-.262" transform="translate(-80.028 -75.858)" fill="#0b54f7"/>
        <path id="Path_311" data-name="Path 311" d="M200.271,179.773c0-.1-.033-.147-.376-.262l-.294-.1c.523-.981.964-2.011,1.357-2.943.278-.016.441-.033.441-.245,0-.114-.147-.229-.261-.262l-1.864-.588a17.464,17.464,0,0,1-3.793,6.818,3.206,3.206,0,0,1,1.39,1.373,14.279,14.279,0,0,0,1.03-1.308v8.175h2.028v-10.35c.065-.033.114-.065.229-.131.081-.049.114-.082.114-.18" transform="translate(-77.069 -69.142)" fill="#0b54f7"/>
        <path id="Path_312" data-name="Path 312" d="M211.736,180.474h2.11v-1.9h-2.11v-2.322c.082-.033.147-.065.278-.131a.215.215,0,0,0,.164-.212c0-.18-.2-.2-.442-.213l-1.962-.081v2.959h-1.749V176.3a1.369,1.369,0,0,0,.262-.147c.065-.049.131-.082.131-.164,0-.18-.213-.213-.376-.229l-1.995-.147v2.959h-2.109v1.9h2.109v3.058h-2.387v1.9H214.32v-1.9h-2.584Zm-1.962,3.058h-1.749v-3.058h1.749Z" transform="translate(-80.293 -69.238)" fill="#0b54f7"/>
        <path id="Path_313" data-name="Path 313" d="M239.3,177.3c-.2.017-.736.049-5.526.245a8.842,8.842,0,0,1,.082-1.308c.163-.082.261-.131.261-.278,0-.114-.114-.147-.376-.18l-2.37-.294a18.222,18.222,0,0,1,.229,2.158c-5.641.327-6.263.36-6.8.36l.163,2.338a49.927,49.927,0,0,1,6.7-.785c0,.36,0,.589-.016,1.276a2.1,2.1,0,0,0-.686-.1c-1.733,0-2.862,1.324-2.862,3.336,0,1.1.36,3.106,2.355,3.106a2.3,2.3,0,0,0,1.569-.572c-.2.507-.7,1.766-3.27,2.8a9.314,9.314,0,0,1,1.978,1.456,7.349,7.349,0,0,0,3.924-6.279,5.467,5.467,0,0,0-.833-2.976c-.049-.768-.016-1.847-.016-2.125.735-.033,2.4-.065,5.51.065a10.705,10.705,0,0,1-.065-1.439,4.664,4.664,0,0,1,.049-.8m-8.355,8.208c-.278,0-1.014-.164-1.014-1.521,0-1,.523-1.488,1.079-1.488.916,0,1.014.932,1.014,1.276,0,.948-.425,1.733-1.079,1.733" transform="translate(-88.629 -69.184)" fill="#0b54f7"/>
        <path id="Path_314" data-name="Path 314" d="M262.226,181.141a6.635,6.635,0,0,0-2.142.359c.621-.671,3.335-3.221,4.333-3.973l-1.129-1.5c-2.5.948-7.014,1.046-8.241,1l.36,2.191a46.08,46.08,0,0,0,4.954-.621,56.325,56.325,0,0,1-7.13,6.835l1.668,1.635c2.305-2.387,3.957-4.1,6.818-4.1,2.387,0,2.943,1.651,2.943,2.6a2.356,2.356,0,0,1-1.456,2.273,3.407,3.407,0,0,0-3.482-2.584c-1.7,0-2.976,1.047-2.976,2.453,0,1.553,1.455,2.746,3.974,2.746,2.665,0,6.131-1.5,6.131-5.068,0-2.812-2.207-4.235-4.627-4.235m-1.815,7.635c-.8,0-1.7-.36-1.7-1.013,0-.376.3-.736.9-.736a1.74,1.74,0,0,1,1.782,1.619,4.04,4.04,0,0,1-.981.131" transform="translate(-99.838 -69.398)" fill="#0b54f7"/>
        <path id="Path_315" data-name="Path 315" d="M292.512,176.611c.082-.033.262-.114.262-.294,0-.114-.114-.147-.262-.164l-2.322-.131v3.369h-3.385v-2.682c.147-.082.262-.147.262-.262,0-.18-.2-.18-.344-.2l-2.158-.131v3.27h-3.172v2.158h3.172v3.859h2.239v-3.859h3.385a9.355,9.355,0,0,1-.67,3.94,7.077,7.077,0,0,1-4.186,3.369,5.878,5.878,0,0,1,1.7,1.733,8.725,8.725,0,0,0,4.235-3.581c.409-.686,1.243-2.027,1.243-5.461h2.976v-2.158h-2.976Z" transform="translate(-110.941 -69.397)" fill="#0b54f7"/>
        <rect id="Rectangle_121" data-name="Rectangle 121" width="14.111" height="2.322" transform="translate(187.512 112.708)" fill="#0b54f7"/>
        <path id="Path_316" data-name="Path 316" d="M358.867,174.619l-1.1.916a11.359,11.359,0,0,1,1.7,1.635c.2-.2.72-.654,1.079-.965a12.757,12.757,0,0,0-1.684-1.586" transform="translate(-141.052 -68.844)" fill="#0b54f7"/>
        <path id="Path_317" data-name="Path 317" d="M342.6,186.3v-2.665a24.028,24.028,0,0,0,8.634-3.155,2.556,2.556,0,0,0,.277.032c.245,0,.376-.065.376-.2a.28.28,0,0,0-.131-.2l-1.88-1.521a17.627,17.627,0,0,1-7.276,3.009v-4.824c.229-.1.393-.164.393-.327,0-.147-.164-.2-.31-.2l-2.371-.131v10.645a2.8,2.8,0,0,0,.588,2.158c.883.932,1.52.932,7.489.932,2.518,0,2.927-.032,3.368-.065a9.124,9.124,0,0,1,.311-2.224,62.506,62.506,0,0,1-6.426.311c-2.8,0-3.041-.065-3.041-1.586" transform="translate(-134.168 -69.44)" fill="#0b54f7"/>
        <path id="Path_318" data-name="Path 318" d="M356.529,176.616l-1.079.916a16.258,16.258,0,0,1,1.717,1.619c.114-.115.736-.687,1.046-.916a15.683,15.683,0,0,0-1.684-1.619" transform="translate(-140.137 -69.631)" fill="#0b54f7"/>
        <path id="Path_319" data-name="Path 319" d="M374.846,183.781a26.252,26.252,0,0,0,2.109-4.169,5.3,5.3,0,0,1,.622-1.047l-1.112-1.193a4.429,4.429,0,0,1-1.128.131h-8.306v2.076H374.4a14.4,14.4,0,0,1-8.878,9.107,5.891,5.891,0,0,1,1.554,1.913,19.152,19.152,0,0,0,6.54-5.1,22.372,22.372,0,0,1,4.644,4.873c.2-.229,1.112-1.242,1.684-1.864a37.074,37.074,0,0,0-5.1-4.725" transform="translate(-144.11 -69.93)" fill="#0b54f7"/>
        <path id="Path_320" data-name="Path 320" d="M401.823,182.638a17.32,17.32,0,0,1,5.854-1.7l-.867-2.436c-2.91,1.1-3.7,1.39-5.951,2.436a7.4,7.4,0,0,1-.785-3.679c0-.507.033-.883.1-1.668l-2.763.588a6.186,6.186,0,0,1,.376,1.6c.262,2.109.393,3.189,1.259,4.088-2.06,1.194-3.548,2.6-3.548,4.562a3.1,3.1,0,0,0,1.732,2.747c.752.393,1.881.85,4.759.85a32.043,32.043,0,0,0,5.444-.491,7.422,7.422,0,0,1,.213-2.469,16.809,16.809,0,0,1-5.494.867c-2.96,0-4.251-.458-4.251-1.652,0-1.978,3.123-3.3,3.924-3.646" transform="translate(-155.926 -69.227)" fill="#0b54f7"/>
        <path id="Path_321" data-name="Path 321" d="M424.557,186a12.906,12.906,0,0,1-.114-1.929,23.59,23.59,0,0,1,.932-6.491c.212-.033.457-.082.457-.262,0-.114-.065-.18-.2-.229l-2.273-.72a31.061,31.061,0,0,0-.948,7.522,22.734,22.734,0,0,0,.85,6.458l1.864-.36a8.107,8.107,0,0,1,1.358-4.251,5.912,5.912,0,0,1-1.047-1.39c-.131.229-.736,1.39-.883,1.651" transform="translate(-166.539 -69.536)" fill="#0b54f7"/>
        <path id="Path_322" data-name="Path 322" d="M436.146,181.3c.474-.082,1.292-.213,2.616-.54v-2.109a15.74,15.74,0,0,1-2.567.638,19,19,0,0,1,.164-2.142c.164-.016.392-.065.392-.229,0-.1-.049-.18-.229-.213l-2.485-.408c0,.376-.016,3.09-.016,3.237-.294.016-.736.049-1.406.049a18.128,18.128,0,0,1-2.027-.114v2.191c.343.016.654.033,1.128.033.491,0,1.325-.033,2.322-.114.016,1.439.131,2.829.18,3.467a6.713,6.713,0,0,0-.687-.049c-1.766,0-3.368.9-3.368,2.534,0,1.112.834,2.567,3.2,2.567.72,0,3.238-.147,3.238-2.387a6.694,6.694,0,0,1,2.077,1.407c.115-.262.72-1.52.964-1.946a10.188,10.188,0,0,0-3.253-1.766,32.452,32.452,0,0,1-.245-4.1m-3.009,7.015c-.67,0-1.144-.327-1.144-.784,0-.36.311-.818,1.325-.818a2.66,2.66,0,0,1,1.161.213,2.937,2.937,0,0,1,.033.36c0,1.013-1.259,1.03-1.374,1.03" transform="translate(-169.593 -69.504)" fill="#0b54f7"/>
        <path id="Path_323" data-name="Path 323" d="M458.764,176.346a5.111,5.111,0,0,0-4.152,1.717,4.219,4.219,0,0,0-.769,2.42h2.535c.065-1.079.31-2.06,2.289-2.06.85,0,2.093.18,2.093,1.308,0,.294,0,.8-1.242,1.783-1.815,1.406-2.24,1.733-2.24,3.058v.948H459.5v-.409c0-1.062.572-1.619,1.668-2.355,2.093-1.406,2.109-2.518,2.109-3.057,0-1.734-1.471-3.352-4.513-3.352" transform="translate(-178.929 -69.525)" fill="#0b54f7"/>
        <rect id="Rectangle_122" data-name="Rectangle 122" width="2.485" height="2.567" transform="translate(278.216 117.498)" fill="#0b54f7"/>
        <path id="Path_324" data-name="Path 324" d="M97.973,66.723H87.611v5.03h5.9A27.668,27.668,0,0,0,99.1,80.684H77.854a54.165,54.165,0,0,0,6.591-9.1c.694,0,1.215-.087,1.215-.52,0-.347-.391-.563-.694-.781l-4.552-2.991c-4.076,8.108-8.109,11.4-13.528,15.436a10.474,10.474,0,0,1,4.163,4.162A42.976,42.976,0,0,0,77.031,81.6v4.292h5.723c-.694,9.1-6.807,12.7-13.528,15.046,2.775,2.3,3.425,3.685,3.816,4.6,5.636-2.514,14.265-7.285,15-19.641h7.242c-.044.953-.217,5.723-.3,6.764-.781,7.328-1.561,7.328-4.509,7.328a27.451,27.451,0,0,1-3.816-.347,13.494,13.494,0,0,1,1.562,5.724c2.341.173,6.938.044,8.758-1.561,3.208-2.732,3.382-7.545,3.9-21.376a27.58,27.58,0,0,0,5.377,4.335,13.042,13.042,0,0,1,3.382-4.682C102.4,78.126,98.667,72.056,97.973,66.723" transform="translate(-26.37 -26.306)" fill="#0b54f7"/>
        <path id="Path_325" data-name="Path 325" d="M198.561,83.543l-2.689,2.168a34.558,34.558,0,0,1,3.816,4.9,21.758,21.758,0,0,1,2.819-2.471,30.362,30.362,0,0,0-3.945-4.6" transform="translate(-77.223 -32.937)" fill="#0b54f7"/>
        <path id="Path_326" data-name="Path 326" d="M191.6,88.84l-2.818,2.385a38.736,38.736,0,0,1,3.685,4.813,32.344,32.344,0,0,1,2.905-2.514c-1-1.474-3.166-3.989-3.773-4.683" transform="translate(-74.43 -35.025)" fill="#0b54f7"/>
        <path id="Path_327" data-name="Path 327" d="M173.094,99.122c-9.192-.694-12.747-3.989-12.747-9.062,0-7.935,9.625-16.823,20.465-16.78l-1.127-6.2c-12.791,3.382-30.871,4.119-33.82,4.119a25.52,25.52,0,0,1-2.818-.13l.824,6.981c4.206-1.084,17-2.558,19.772-2.731-5.81,4.466-9.106,9.452-9.106,15.262,0,9.842,9.235,13.615,15.826,15.089a31.932,31.932,0,0,1,2.732-6.547" transform="translate(-56.397 -26.447)" fill="#0b54f7"/>
        <path id="Path_328" data-name="Path 328" d="M243.353,75.086a17.281,17.281,0,0,0-9.713,3.122,17.388,17.388,0,0,1,2.255-3.3l-2.776-3.035c-.823.434-1.084.564-1.474.737.217-3.382.3-4.249.434-5.246.477-.087.954-.13.954-.651s-.564-.563-1.3-.607l-5.68-.39c.174,4.249.217,4.726.217,8.845A43.679,43.679,0,0,1,218.031,76l1.041,6.2a60.164,60.164,0,0,0,7.024-2.3v1.864a62.223,62.223,0,0,1-9.106,12.011l4.249,4.162c.694-.824,3.773-5.246,4.509-6.2-.216,8.325-.216,9.322-.433,13.051l6.113-.477c-.043-3.729-.043-5.246-.043-18.9,1.951-1.691,6.417-5.073,11.36-5.073,3.773,0,7.111,2.428,7.111,7.371,0,7.631-7.978,9.538-13.875,9.929a16.254,16.254,0,0,1,2.992,5.333c3.252-.477,16.562-2.428,16.562-15.566,0-9.712-7.414-12.314-12.183-12.314" transform="translate(-85.549 -25.911)" fill="#0b54f7"/>
        <path id="Path_329" data-name="Path 329" d="M311.607,74.624c.216-.867.564-2.211,1.3-5.636.91-.087,1.171-.434,1.171-.737,0-.391-.434-.52-.867-.651l-6.157-1.951a63.754,63.754,0,0,1-1.388,9.626c-1.6.26-9.5,1.951-11.273,2.3l2.038,5.941a51.75,51.75,0,0,1,7.761-2.385,51.614,51.614,0,0,1-10.753,19.424,26.768,26.768,0,0,1,5.463,2.905c6.244-8.152,9.192-16.216,11.274-23.37.52-.044,1.344-.13,1.865-.13,1.734,0,4.206.434,4.206,5.246,0,5.29-1.561,9.972-2.862,11.447a3.588,3.588,0,0,1-3.122,1.3A8.186,8.186,0,0,1,306.23,97a29.78,29.78,0,0,1,.564,4.987,10.949,10.949,0,0,1-.087,1.344,22.9,22.9,0,0,0,4.423.52,7.413,7.413,0,0,0,6.46-3.035c2.081-2.775,4.249-9.106,4.249-15.609,0-11.013-7.111-10.71-10.233-10.579" transform="translate(-115.689 -25.882)" fill="#0b54f7"/>
        <path id="Path_330" data-name="Path 330" d="M341.194,90.06A28.225,28.225,0,0,1,343.4,95a15.651,15.651,0,0,0,4.337-1.344c2.427-1.17,3.078-2.428,3.078-4.553,0-3.425-3.035-10.579-7.848-15.869l-4.51,2.862c5.767,6.417,6.331,11.1,6.331,11.576,0,1.648-1.995,2.081-3.6,2.385" transform="translate(-133.44 -28.874)" fill="#0b54f7"/>
        <path id="Path_331" data-name="Path 331" d="M386.838,81.247c1.648-1.778,8.846-8.542,11.49-10.536l-2.992-3.989c-6.634,2.515-18.6,2.776-21.853,2.645l.954,5.81a121.7,121.7,0,0,0,13.137-1.648c-2.471,3.252-14.265,14.915-18.9,18.124l4.423,4.336c6.114-6.33,10.493-10.883,18.081-10.883,6.33,0,7.8,4.38,7.8,6.894a6.246,6.246,0,0,1-3.859,6.027c-1-5.117-5.94-6.851-9.235-6.851-4.509,0-7.891,2.775-7.891,6.5,0,4.119,3.859,7.284,10.536,7.284,7.067,0,16.259-3.989,16.259-13.441,0-7.458-5.853-11.23-12.271-11.23a17.618,17.618,0,0,0-5.68.953m.867,19.295c-2.125,0-4.509-.954-4.509-2.688,0-1,.78-1.951,2.384-1.951a4.614,4.614,0,0,1,4.727,4.292,10.705,10.705,0,0,1-2.6.347" transform="translate(-145.35 -26.305)" fill="#0b54f7"/>
        <path id="Path_332" data-name="Path 332" d="M455.529,116.111h0A3.884,3.884,0,0,0,451.645,120v.256a3.884,3.884,0,1,0,7.768,0V120a3.884,3.884,0,0,0-3.884-3.884" transform="translate(-178.063 -45.777)" fill="#0b54f7"/>
        <path id="Path_333" data-name="Path 333" d="M457.991,90.56l1.264-12.433c.007-.069.01-.138.01-.208V68.18a2.05,2.05,0,0,0-2.05-2.05h-2.822a2.05,2.05,0,0,0-2.05,2.05v9.736a1.93,1.93,0,0,0,.012.214l1.307,12.437A2.049,2.049,0,0,0,455.7,92.4h.251a2.05,2.05,0,0,0,2.039-1.842" transform="translate(-178.338 -26.072)" fill="#0b54f7"/>
        <path id="Path_334" data-name="Path 334" d="M24.128,90.071c6.822-4.3,9.718-7.289,9.718-12.522,0-6.074-4.859-11.074-14.39-11.074C4.6,66.475,3.9,77.642,3.71,80.866h7.2c.234-4.252,1.541-8.457,8.55-8.457,3.41,0,7.242,1.262,7.242,5.186,0,2.8-.981,4.065-7.849,8.644C7.308,93.9,3.617,96.378,3.1,104.321H34.174V98.9H12.728c2.382-2.85,4.3-4.345,11.4-8.831" transform="translate(-1.223 -26.208)" fill="#0b54f7"/>
        <path id="Path_335" data-name="Path 335" d="M66.042,36.279a4.643,4.643,0,0,0-.94-2.745.39.39,0,0,0-.623,0,4.646,4.646,0,0,0-.94,2.745,1.2,1.2,0,0,0,1.239,1.288,1.222,1.222,0,0,0,1.264-1.288" transform="translate(-25.05 -13.159)" fill="#0b54f7"/>
        <path id="Path_336" data-name="Path 336" d="M43.983,21.286a7.876,7.876,0,0,1,7.41-5.237,9.37,9.37,0,0,1,4.487,1.145.738.738,0,0,0,.716,0,9.369,9.369,0,0,1,4.486-1.145A7.876,7.876,0,0,1,68.6,21.626a.252.252,0,0,0,.461.051,14.545,14.545,0,1,0-25.543-.359.252.252,0,0,0,.461-.032M57.032,9.058a5.031,5.031,0,0,1,8.751-2.777.957.957,0,0,1-.711,1.6h-.065a.93.93,0,0,1-.688-.31,3.085,3.085,0,1,0-2.283,5.157c.1,0,.189-.005.282-.014L62.4,12.7c.071-.008.141-.019.21-.032l.071-.013c.091-.019.181-.042.269-.07l.016-.005c.084-.027.167-.058.249-.091l.045-.019c.084-.036.166-.075.246-.118h0a3,3,0,0,0,1.178-1.144.231.231,0,0,0-.2-.351H63.012A.976.976,0,0,1,62.053,9.7a1.06,1.06,0,0,1,1.007-.794h3.289a.725.725,0,0,1,.725.725v.007a5.031,5.031,0,0,1-.226,1.494l0,0c-.013.042-.031.081-.045.123a5.033,5.033,0,0,1-.586,1.188l-.007.01a5.074,5.074,0,0,1-1.348,1.349l-.023.015c-.119.081-.243.154-.369.225l-.055.03q-.2.107-.406.2l-.013.006c-.142.061-.289.113-.438.161-.031.01-.064.018-.1.027q-.168.05-.341.088l-.133.027c-.1.019-.2.038-.306.049-.059.006-.116.015-.175.021-.154.014-.31.024-.467.024a5.043,5.043,0,0,1-5-5.616M51.238,4.6a5.015,5.015,0,0,1,3.807,1.748.932.932,0,0,1-.722,1.528h-.107a.949.949,0,0,1-.7-.317,3.087,3.087,0,1,0-.208,4.362,1.011,1.011,0,0,1,.709-.264.976.976,0,0,1,.615,1.7A5.036,5.036,0,1,1,51.238,4.6" transform="translate(-16.498 0)" fill="#0b54f7"/>
        <path id="Path_337" data-name="Path 337" d="M56.623,30.675a7.221,7.221,0,0,0-2.789-.49,5.617,5.617,0,0,0-5.519,5.628,1.382,1.382,0,0,0,.415.983,14.536,14.536,0,0,0,19.869.52,2.007,2.007,0,0,0,.662-1.5,5.617,5.617,0,0,0-5.518-5.628,7.222,7.222,0,0,0-2.79.49.284.284,0,0,0-.127.435A6.727,6.727,0,0,1,62.274,35.3a3.439,3.439,0,0,1-3.5,3.522A3.389,3.389,0,0,1,55.3,35.3a6.727,6.727,0,0,1,1.448-4.186.283.283,0,0,0-.127-.435" transform="translate(-19.048 -11.9)" fill="#0b54f7"/>
        <path id="Path_338" data-name="Path 338" d="M111.577,27.3a9.33,9.33,0,0,0,7.277-3.175.149.149,0,0,0,0-.208l-1.994-2.02a.15.15,0,0,0-.208,0,6.779,6.779,0,0,1-4.971,2.257c-3.239,0-5.681-2.638-5.681-6.136v-.05a5.763,5.763,0,0,1,5.681-6.085,6.847,6.847,0,0,1,4.845,2.156.127.127,0,0,0,.11.04.147.147,0,0,0,.1-.051l1.994-2.3a.149.149,0,0,0-.009-.205A9.339,9.339,0,0,0,111.7,8.728a9.07,9.07,0,0,0-9.26,9.285v.051a8.983,8.983,0,0,0,9.134,9.235" transform="translate(-40.389 -3.441)" fill="#0b54f7"/>
        <path id="Path_339" data-name="Path 339" d="M146.22,22.846l1.753,4.174a.149.149,0,0,0,.137.091h3.281a.149.149,0,0,0,.137-.209L143.755,9.11a.152.152,0,0,0-.137-.09h-2.877a.15.15,0,0,0-.137.09L132.831,26.9a.149.149,0,0,0,.136.209h3.18a.152.152,0,0,0,.138-.09l1.778-4.175ZM139.327,19.8l2.8-6.541,2.826,6.541Z" transform="translate(-52.364 -3.556)" fill="#0b54f7"/>
        <path id="Path_340" data-name="Path 340" d="M169.218,27.194h3.054a.149.149,0,0,0,.149-.149V14.917l5.255,7.87a.15.15,0,0,0,.124.066h.1a.148.148,0,0,0,.124-.066l5.305-7.921v12.18a.149.149,0,0,0,.149.149h3.105a.149.149,0,0,0,.149-.149V9.377a.149.149,0,0,0-.149-.149h-3.307a.149.149,0,0,0-.125.068L177.9,17.456,172.65,9.3a.149.149,0,0,0-.125-.068h-3.306a.149.149,0,0,0-.149.149V27.045a.149.149,0,0,0,.149.149" transform="translate(-66.656 -3.638)" fill="#0b54f7"/>
        <path id="Path_341" data-name="Path 341" d="M205.8,12.4h5.454V27.045a.149.149,0,0,0,.149.149h3.129a.149.149,0,0,0,.149-.149V12.4h5.454a.149.149,0,0,0,.149-.149V9.378a.149.149,0,0,0-.149-.149H205.8a.149.149,0,0,0-.149.149v2.877a.149.149,0,0,0,.149.149" transform="translate(-81.079 -3.639)" fill="#0b54f7"/>
        <path id="Path_342" data-name="Path 342" d="M235.719,27.194h13.225a.149.149,0,0,0,.149-.149V24.268a.149.149,0,0,0-.149-.149h-9.972V19.672h8.71a.149.149,0,0,0,.149-.149V16.747a.149.149,0,0,0-.149-.149h-8.71V12.3h9.846a.149.149,0,0,0,.149-.149V9.377a.149.149,0,0,0-.149-.149h-13.1a.149.149,0,0,0-.149.149V27.045a.149.149,0,0,0,.149.149" transform="translate(-92.874 -3.638)" fill="#0b54f7"/>
        <path id="Path_343" data-name="Path 343" d="M272.163,27.3a9.328,9.328,0,0,0,7.276-3.175.149.149,0,0,0,0-.208l-1.994-2.02a.149.149,0,0,0-.208,0,6.78,6.78,0,0,1-4.971,2.257c-3.239,0-5.681-2.638-5.681-6.136v-.05a5.764,5.764,0,0,1,5.681-6.085,6.849,6.849,0,0,1,4.846,2.156.147.147,0,0,0,.11.04.15.15,0,0,0,.1-.051l1.993-2.3a.149.149,0,0,0-.01-.205,9.338,9.338,0,0,0-7.019-2.792,9.069,9.069,0,0,0-9.259,9.285v.051a8.983,8.983,0,0,0,9.134,9.235" transform="translate(-103.7 -3.441)" fill="#0b54f7"/>
        <path id="Path_344" data-name="Path 344" d="M296.052,27.194h3.1a.149.149,0,0,0,.149-.149v-7.3h8.132v7.3a.149.149,0,0,0,.149.149h3.1a.149.149,0,0,0,.149-.149V9.377a.149.149,0,0,0-.149-.149h-3.1a.149.149,0,0,0-.149.149v7.2h-8.132v-7.2a.149.149,0,0,0-.149-.149h-3.1a.149.149,0,0,0-.149.149V27.045a.149.149,0,0,0,.149.149" transform="translate(-116.661 -3.638)" fill="#0b54f7"/>
        <path id="Path_345" data-name="Path 345" d="M337.4,27.059h6.747a3.161,3.161,0,0,0,3.161-3.161V19.575a2.793,2.793,0,0,0-2.792-2.792H339.4a.181.181,0,0,0-.182.182v2.008a.181.181,0,0,0,.182.182h5.114a.421.421,0,0,1,.422.422V23.9a.789.789,0,0,1-.789.789H337.4a3.4,3.4,0,0,1-3.4-3.4V14.647a3.4,3.4,0,0,1,3.4-3.4h8.78a.182.182,0,0,0,.182-.182l.62-2.008a.182.182,0,0,0-.182-.182h-9.4a5.768,5.768,0,0,0-5.767,5.768v6.646a5.768,5.768,0,0,0,5.768,5.768" transform="translate(-130.747 -3.5)" fill="#0b54f7"/>
        <path id="Path_346" data-name="Path 346" d="M364.166,11.249a.242.242,0,0,1,.226.152l3.977,9.856a3.278,3.278,0,0,0,3.193,2.057,3.4,3.4,0,0,0,2.956-2.169L378.45,11.4a.244.244,0,0,1,.469.091V26.916a.181.181,0,0,0,.182.182h2.008a.181.181,0,0,0,.182-.182V11.493a2.618,2.618,0,0,0-2.829-2.607,2.7,2.7,0,0,0-2.246,1.715l-3.942,9.769a.919.919,0,0,1-1.7,0l-3.978-9.857a2.605,2.605,0,0,0-2.623-1.629,2.682,2.682,0,0,0-2.418,2.708V26.916a.182.182,0,0,0,.182.182h2.009a.182.182,0,0,0,.182-.182V11.493a.244.244,0,0,1,.244-.244" transform="translate(-142.542 -3.5)" fill="#0b54f7"/>
        <path id="Path_347" data-name="Path 347" d="M401.757,17.711l6.91,2.729.047.018a2.74,2.74,0,0,1,1.845,2.519,1.683,1.683,0,0,1-1.688,1.711h-9.518a.181.181,0,0,0-.181.181l-.62,2.009a.182.182,0,0,0,.182.182H408.82a4.1,4.1,0,0,0,4.111-4.066,5.112,5.112,0,0,0-3.416-4.768L402.606,15.5l-.047-.018a2.734,2.734,0,0,1-1.833-2.517,1.683,1.683,0,0,1,1.688-1.712h9.365a.182.182,0,0,0,.181-.182l.62-2.008a.181.181,0,0,0-.181-.182h-9.935a4.1,4.1,0,0,0-4.111,4.069,5.107,5.107,0,0,0,3.4,4.764" transform="translate(-157.052 -3.5)" fill="#0b54f7"/>
        <rect id="Rectangle_123" data-name="Rectangle 123" width="282.468" height="3.828" transform="translate(0.923 90.394)" fill="#0b54f7"/>
      </g>
    </g>
    <g id="Group_645" data-name="Group 645" transform="translate(251.086 3543.5)" style="mix-blend-mode: multiply;isolation: isolate">
      <g id="Group_25" data-name="Group 25" transform="translate(0 0)" clip-path="url(#clip-path-2)">
        <path id="Path_205" data-name="Path 205" d="M0,19.166A19.166,19.166,0,1,1,19.166,38.332,19.166,19.166,0,0,1,0,19.166m17.323,8.44,9.541-7.437a1.61,1.61,0,0,0,0-2.54l-9.541-7.436a1.61,1.61,0,0,0-2.6,1.27V26.336a1.61,1.61,0,0,0,2.6,1.27" transform="translate(0 0)" fill="#0b54f7"/>
      </g>
    </g>
    <g id="Group_647" data-name="Group 647" transform="translate(-538 2238.653)">
      <text id="PLAY_VIDEO" data-name="PLAY VIDEO" transform="translate(627.584 1311.013)" fill="#2e2e2e" font-size="20" font-family="Montserrat-SemiBold, Montserrat" font-weight="600" letter-spacing="0.1em"><tspan x="0" y="19">PLAY VIDEO</tspan></text>
    </g>
  </g>
</svg>
