<svg xmlns="http://www.w3.org/2000/svg" width="170.829" height="39.31" viewBox="0 0 170.829 39.31">
  <g id="グループ_9235" data-name="グループ 9235" transform="translate(-285.961 -177.742)">
    <path id="パス_4361" data-name="パス 4361" d="M381.707,185.286v5.493H371.43v25.929h-5.54V190.779H355.613v-5.493Z" transform="translate(-24.323 -2.634)" fill="#0099d9"/>
    <path id="パス_4362" data-name="パス 4362" d="M397.6,207.244v4.749h-9.021v-4.749Z" transform="translate(-35.833 -10.302)" fill="#0099d9"/>
    <path id="パス_4363" data-name="パス 4363" d="M426.34,185.286c7.075,0,10.1,4.376,10.1,9.4,0,3.91-1.862,8.1-6.656,9.45l7.313,12.569H431l-7.169-12.149h-8.2a.693.693,0,0,0-.791.791v11.358H409.35v-12.43c0-3.537,1.489-4.981,4.934-4.981h12.244a4.069,4.069,0,0,0,4.374-4.376c0-2.234-1.35-4.143-4.374-4.143H409.49v-5.493Z" transform="translate(-43.087 -2.634)" fill="#0099d9"/>
    <path id="パス_4364" data-name="パス 4364" d="M506.679,185.286l8.9,11.592,9.334-11.591H531.2l-12.432,15.455,12.516,15.966H525.09l-9.635-12.476-9.893,12.476h-6.28l12.992-16.386-11.786-15.036Z" transform="translate(-74.492 -2.634)" fill="#0099d9"/>
    <g id="グループ_9234" data-name="グループ 9234" transform="translate(285.961 177.742)">
      <path id="パス_4365" data-name="パス 4365" d="M324.174,183.526a1.409,1.409,0,1,0,1.409,1.409,1.409,1.409,0,0,0-1.409-1.409Z" transform="translate(-298.813 -179.762)" fill="#0099d9"/>
      <path id="パス_4366" data-name="パス 4366" d="M318.6,195.212a1.3,1.3,0,0,0-.267-1.237c-.809-1.134-2.327-1.274-3.233-1.358-.174-.017-.393-.037-.465-.055-.247-.063-.572-.159-.856-.247l.066-1.322c1.268.144,3.588.385,5.822.487a5.35,5.35,0,0,0,4.494-1.984c1.334-1.68,1.652-4.086.9-6.775-1.069-3.8-4.495-5.516-9.647-4.831a16.656,16.656,0,0,0-1.965.385,2.888,2.888,0,0,1-1.726.082h0c-1.416-.354-3.422.234-5.5,1.617-1.822,1.214-1.925,2.549-2.069,4.4-.031.4-.066.84-.119,1.331a14.411,14.411,0,0,0,.426,4.918c.055.245.121.534.15.715a15.147,15.147,0,0,1-1.6,1.143c-1.055.7-2.5,1.655-4.3,3.059-3.084,2.4-3.41,4.81-3.724,7.137a15.975,15.975,0,0,1-.607,2.989c-.743,2.23-5.591,1.277-7.231.766a.9.9,0,0,0-.9,1.512c.517.5,5.13,4.882,8.241,4.882a19.249,19.249,0,0,0,6.507-1.643,14.319,14.319,0,0,0-.375,1.847c-.318,2.327.325,2.951,1.707,3.334.127.035.263.073.408.121a4.856,4.856,0,0,0,1.537.224,11.433,11.433,0,0,0,3.837-.813,1.411,1.411,0,0,0,.838-1.5,11.061,11.061,0,1,0,9.661-19.185Zm-15.3,19.558c-.176-.058-.341-.1-.5-.148s-.388-.108-.42-.118a2.649,2.649,0,0,1,.022-1.228,12.47,12.47,0,0,1,.612-2.524c.187-.551.38-1.119-.086-1.587a.983.983,0,0,0-.724-.293,1.723,1.723,0,0,0-.551.1c-.184.061-.48.181-.86.335a19.269,19.269,0,0,1-6.317,1.707c-1.1,0-2.832-1.015-4.4-2.189,2.354.2,5.183-.114,6.008-2.591a17.465,17.465,0,0,0,.683-3.318c.3-2.24.544-4.01,3.044-5.956,1.749-1.36,3.16-2.3,4.189-2.978,1.667-1.105,2.428-1.61,2.428-2.512a6.219,6.219,0,0,0-.209-1.252,12.833,12.833,0,0,1-.393-4.32c.056-.514.093-.974.125-1.391.134-1.723.179-2.3,1.269-3.031,1.6-1.068,3.155-1.592,4.054-1.368a4.607,4.607,0,0,0,2.6-.08,14.8,14.8,0,0,1,1.769-.348c4.268-.569,6.849.618,7.667,3.528.595,2.116.393,3.948-.569,5.162a3.486,3.486,0,0,1-3,1.3c-3.207-.146-6.607-.586-6.641-.59a.9.9,0,0,0-1.02.851l-.149,2.985a.9.9,0,0,0,.621.9c.037.012.828.274,1.439.44a2.074,2.074,0,0,0-1.389.517,1.408,1.408,0,0,0-.4.87,11.03,11.03,0,0,0-4.984,16.885,2.861,2.861,0,0,0-.118,1.552c.009.071.021.159.029.24a7.065,7.065,0,0,1-3.831.443Zm12.826.483a9.261,9.261,0,1,1,9.261-9.261,9.261,9.261,0,0,1-9.261,9.261Z" transform="translate(-285.961 -177.742)" fill="#0099d9"/>
      <g id="グループ_9233" data-name="グループ 9233" transform="translate(21.692 19.811)">
        <g id="グループ_9231" data-name="グループ 9231" transform="translate(0 8.061)">
          <path id="パス_4367" data-name="パス 4367" d="M321.072,221.324h-1.4a.377.377,0,1,1,0-.754h1.4a.377.377,0,1,1,0,.754Z" transform="translate(-319.285 -220.57)" fill="#0099d9"/>
          <path id="パス_4368" data-name="パス 4368" d="M343.741,221.324h-1.4a.377.377,0,1,1,0-.754h1.4a.377.377,0,1,1,0,.754Z" transform="translate(-327.201 -220.57)" fill="#0099d9"/>
        </g>
        <g id="グループ_9232" data-name="グループ 9232" transform="translate(8.089 0)">
          <path id="パス_4369" data-name="パス 4369" d="M332.1,232.993a.376.376,0,0,1-.377-.377v-1.4a.377.377,0,0,1,.754,0v1.4a.376.376,0,0,1-.376.377Z" transform="translate(-331.721 -216.103)" fill="#0099d9"/>
          <path id="パス_4370" data-name="パス 4370" d="M332.1,210.325a.377.377,0,0,1-.377-.377v-1.4a.377.377,0,0,1,.754,0v1.4A.377.377,0,0,1,332.1,210.325Z" transform="translate(-331.721 -208.188)" fill="#0099d9"/>
        </g>
      </g>
      <path id="パス_4371" data-name="パス 4371" d="M336.964,224.753l-2.449-2.453a2.213,2.213,0,0,1-1.056,1.055l2.451,2.452a.746.746,0,0,0,1.056-1.056Z" transform="translate(-302.548 -193.301)" fill="#0099d9" fill-rule="evenodd"/>
      <path id="パス_4372" data-name="パス 4372" d="M336.395,209.686a.748.748,0,0,0-1.019.273l-2.763,4.785a2.2,2.2,0,0,1,1.289.752l2.766-4.791A.748.748,0,0,0,336.395,209.686Z" transform="translate(-302.252 -188.863)" fill="#0099d9" fill-rule="evenodd"/>
      <path id="パス_4373" data-name="パス 4373" d="M331.215,218.587a1.477,1.477,0,1,1-1.477,1.477A1.477,1.477,0,0,1,331.215,218.587Z" transform="translate(-301.248 -192.005)" fill="#0099d9" fill-rule="evenodd"/>
    </g>
    <rect id="長方形_23081" data-name="長方形 23081" width="25.591" height="5.493" transform="translate(396.866 208.58)" fill="#0099d9"/>
    <rect id="長方形_23082" data-name="長方形 23082" width="25.539" height="5.493" transform="translate(396.866 182.651)" fill="#0099d9"/>
    <rect id="長方形_23083" data-name="長方形 23083" width="25.278" height="4.981" transform="translate(396.866 195.825)" fill="#0099d9"/>
  </g>
</svg>
