<?xml version="1.0" encoding="UTF-8"?><svg id="_イヤー_1" xmlns="http://www.w3.org/2000/svg" xmlns:xlink="http://www.w3.org/1999/xlink" viewBox="0 0 440.54 237.96"><defs><style>.cls-1{fill:#1e272c;}.cls-2{fill:#48b9bd;}.cls-3{fill:#231916;font-family:MyriadConceptRoman-SemiboldSemiCondensed, 'Myriad Variable Concept';font-size:30.63px;font-variation-settings:'wght' 600, 'wdth' 90;font-weight:700;letter-spacing:.05em;}.cls-4{fill:#23a4da;}.cls-5{fill:#2eb7eb;fill-rule:evenodd;}.cls-6{fill:#35bce0;isolation:isolate;opacity:.84;}.cls-7{fill:url(#_称未設定グラデーション_2);}</style><linearGradient id="_称未設定グラデーション_2" x1="207.49" y1="31.39" x2="243.66" y2="31.13" gradientTransform="translate(0 240.6) scale(1 -1)" gradientUnits="userSpaceOnUse"><stop offset="0" stop-color="#40b2e7"/><stop offset="1" stop-color="#3079bf"/></linearGradient></defs><g><path class="cls-2" d="M282.48,82.13l-69.05-14.12V5.13C213.43,2.26,211.02,0,208.21,0h-7.04c-2.81,0-5.02,2.26-5.02,5.13V164.15c0,2.87,2.21,5.13,5.02,5.13h7.04c2.81,0,5.23-2.26,5.23-5.13V85.31l69.05,14.12c2.87,.59,5.13-1.36,5.13-4.18v-7.04c0-2.81-2.26-5.49-5.13-6.07Z"/><path class="cls-4" d="M142.19,18.7h-26.57V5.13C115.61,2.26,113.2,0,110.38,0h-7.04c-2.81,0-5.02,2.26-5.02,5.13v13.57H54.44V5.13C54.44,2.26,52.02,0,49.21,0h-7.04C39.36,0,37.15,2.26,37.15,5.13v13.57H5.13c-2.87,0-5.13,2.41-5.13,5.23v7.04c0,2.81,2.26,5.02,5.13,5.02H142.19c2.87,0,5.13-2.21,5.13-5.02v-7.04c0-2.81-2.26-5.23-5.13-5.23Z"/><path class="cls-4" d="M104.73,119.7V53.36c0-2.87-2.41-5.13-5.23-5.13h-7.04c-2.81,0-5.02,2.26-5.02,5.13V119.7c0,2.87,2.21,5.13,5.02,5.13h7.04c2.81,0,5.23-2.26,5.23-5.13Z"/><path class="cls-4" d="M135.89,48.62h-6.84c-3.01,0-5.22,2.26-5.22,5.13v75.12c0,8.41-1.21,14.57-4.62,18.47-3.42,3.49-7.64,5.13-12.46,5.13h-5.43c-2.81,0-5.23,2.26-5.23,5.13v6.57c0,2.87,2.41,5.13,5.23,5.13h5.63c11.06,0,19.5-4.31,25.33-11.08,5.22-6.15,8.64-14.16,8.64-27.09V53.75c0-2.87-2.01-5.13-5.02-5.13Z"/><path class="cls-4" d="M39.72,48.23c-11.06,0-20.1,4.31-25.93,11.08-5.43,6.16-8.64,14.16-8.64,27.09v77.76c0,2.87,2.21,5.13,5.02,5.13h7.04c2.82,0,5.23-2.26,5.23-5.13V87.83c0-8.41,1.21-14.57,4.82-18.47,3.22-3.49,7.84-5.13,12.46-5.13s9.04,1.64,12.26,5.13c3.61,3.69,4.87,9.43,5,17.17h-19.17c-2.87,0-5.13,2.21-5.13,5.02v7.04c0,2.81,2.26,5.23,5.13,5.23h19.19v12.05h-19.19c-2.87,0-5.13,2.21-5.13,5.02v7.04c0,2.81,2.26,5.23,5.13,5.23h19.05c-.39,6.23-1.7,10.98-4.54,14.17-3.45,3.49-7.73,5.13-12.61,5.13h-1.76c-2.85,0-5.29,2.26-5.29,5.13v6.57c0,2.87,2.44,5.13,5.29,5.13h1.97c11.18,0,19.73-4.31,25.62-11.08,5.09-5.92,8.45-13.6,8.69-25.69h.05v-46.12c0-12.93-3.42-20.93-8.64-27.09-6.03-6.77-14.87-11.08-25.93-11.08Z"/><path class="cls-2" d="M435.93,71.13h-44.48c-2.55,0-4.61,2.06-4.61,4.61v8.06c0,2.55,2.06,4.61,4.61,4.61h19.74l-60.5,61.13c-.87,.87-2.05,1.37-3.28,1.37h-6.1c-1.02,0-1.84-.83-1.84-1.84V4.61c0-2.55-2.06-4.61-4.61-4.61h-8.06c-2.55,0-4.61,2.06-4.61,4.61V163.59c0,2.55,2.06,4.61,4.61,4.61h25.9c2.46,0,4.82-.98,6.55-2.73l64-64.67v19.44c0,2.55,2.06,4.61,4.61,4.61h8.06c2.55,0,4.61-2.06,4.61-4.61v-44.48c0-2.55-2.06-4.61-4.61-4.61Z"/></g><g><path class="cls-7" d="M207.49,209.29c0-3.58,1.06-7.08,3.04-10.05,1.99-2.98,4.81-5.3,8.11-6.67,3.3-1.37,6.94-1.73,10.45-1.03,3.51,.7,6.73,2.42,9.26,4.95,2.53,2.53,4.25,5.75,4.95,9.26,.7,3.51,.34,7.15-1.03,10.45-1.37,3.31-3.69,6.13-6.66,8.12-2.97,1.99-6.47,3.05-10.05,3.05h-18.09v-18.07Z"/><path class="cls-6" d="M252.96,217.49c.65,.37,1.18,.91,1.56,1.55,.37,.64,.57,1.38,.57,2.12s-.2,1.48-.57,2.12c-.37,.64-.91,1.18-1.56,1.55l-21.79,12.55c-2.83,1.63-6.38-.41-6.38-3.67v-25.1c0-3.26,3.54-5.31,6.38-3.67l21.79,12.55Z"/><path class="cls-5" d="M243.45,212.02c-.22,1.43-.61,2.83-1.17,4.17-1.37,3.31-3.69,6.13-6.66,8.12-2.97,1.99-6.47,3.05-10.05,3.05h-.79v-18.74c0-3.26,3.54-5.31,6.38-3.67l12.29,7.08Z"/><path class="cls-1" d="M268.56,199.26l7.39,17.81c.02,.06,.07,.11,.12,.15,.06,.04,.12,.06,.19,.06,.07,0,.13-.02,.19-.06,.06-.04,.1-.09,.12-.15l7.49-17.82c.04-.11,.12-.2,.22-.27,.1-.07,.21-.1,.33-.1h3.4c.1,0,.19,.02,.28,.07,.09,.05,.16,.11,.21,.19,.05,.08,.09,.17,.1,.27s0,.19-.04,.28l-11.37,26.55c-.08,.2-.22,.37-.4,.48-.18,.12-.39,.18-.6,.18-.21,0-.42-.07-.6-.19-.18-.12-.32-.29-.4-.49l-11.11-26.55c-.04-.09-.05-.19-.04-.28,0-.1,.04-.19,.1-.27,.05-.08,.13-.15,.21-.19,.09-.05,.18-.07,.28-.07h3.41c.12,0,.23,.04,.33,.1,.1,.07,.17,.16,.22,.27Z"/><path class="cls-1" d="M288.01,198.89c.1,0,.19,.02,.28,.07,.09,.05,.16,.11,.21,.19s.09,.17,.1,.27c0,.1,0,.19-.04,.28l-11.37,26.55c-.08,.2-.22,.37-.4,.48-.18,.12-.39,.18-.6,.18-.21,0-.42-.07-.6-.19-.18-.12-.32-.29-.4-.49l-11.11-26.55c-.04-.09-.05-.19-.04-.28,0-.1,.04-.19,.1-.27,.05-.08,.13-.15,.21-.19,.09-.05,.18-.07,.28-.07h3.41c.12,0,.23,.04,.33,.1,.1,.07,.17,.16,.22,.27l7.39,17.81c.02,.06,.07,.11,.12,.15,.06,.04,.12,.06,.19,.06,.07,0,.13-.02,.19-.06,.06-.04,.1-.09,.12-.15l7.49-17.82c.04-.11,.12-.2,.22-.27,.1-.07,.21-.1,.33-.1h3.4Zm0-.25h-3.4c-.17,0-.33,.05-.47,.14-.14,.09-.25,.23-.31,.38l-7.49,17.82s-.02,.03-.03,.04c-.01,0-.03,.01-.04,.01-.02,0-.03,0-.04-.01-.01,0-.02-.02-.03-.04l-7.39-17.81c-.06-.16-.17-.29-.31-.39-.14-.09-.3-.14-.47-.14h-3.41c-.14,0-.27,.03-.4,.1-.12,.06-.23,.16-.3,.27-.08,.11-.12,.25-.14,.38-.01,.14,0,.28,.06,.4l11.11,26.55c.1,.24,.27,.45,.49,.6,.22,.15,.48,.23,.74,.23,.26,0,.52-.08,.74-.22,.22-.15,.39-.35,.49-.6l11.37-26.55c.05-.13,.07-.27,.06-.41-.01-.14-.06-.27-.14-.39-.08-.12-.18-.21-.3-.28-.12-.07-.26-.1-.4-.1Z"/><path class="cls-1" d="M291.73,201.24c0-.71,.3-1.38,.8-1.88,.5-.5,1.18-.78,1.88-.78,.36,0,.71,.06,1.04,.2,.33,.14,.62,.34,.87,.59,.25,.24,.46,.54,.59,.86,.14,.33,.2,.68,.19,1.03,0,.36-.06,.71-.2,1.04-.13,.33-.34,.63-.59,.87-.24,.26-.54,.46-.86,.59-.32,.14-.68,.2-1.03,.2-.36,0-.71-.07-1.04-.21-.33-.14-.63-.34-.88-.59-.25-.25-.45-.55-.58-.88-.13-.33-.2-.68-.2-1.04Zm4.76,8.02v16.7c0,.16-.06,.31-.17,.42-.11,.11-.26,.17-.42,.17h-3.12c-.16,0-.31-.06-.42-.17-.11-.11-.17-.26-.17-.42v-16.7c0-.16,.06-.31,.17-.42,.11-.11,.26-.17,.42-.17h3.12c.16,0,.31,.06,.42,.17,.11,.11,.17,.26,.17,.42h0Z"/><path class="cls-1" d="M294.41,198.58c.36,0,.71,.06,1.04,.2,.33,.14,.62,.34,.87,.59,.26,.24,.46,.54,.59,.86,.14,.33,.2,.68,.19,1.03,0,.36-.06,.71-.2,1.04-.13,.33-.34,.63-.59,.87-.24,.26-.54,.46-.86,.59-.32,.14-.68,.2-1.03,.2-.36,0-.71-.07-1.04-.21-.33-.14-.63-.34-.88-.59-.25-.25-.45-.55-.58-.88-.13-.33-.2-.68-.2-1.04,0-.71,.3-1.38,.8-1.88,.5-.5,1.18-.78,1.88-.78h0Zm1.49,10.09c.08,0,.15,.02,.23,.04,.07,.03,.14,.07,.19,.13,.05,.05,.1,.12,.13,.19,.03,.07,.04,.15,.04,.23v16.7c0,.08-.01,.15-.04,.23-.03,.07-.07,.14-.13,.19-.06,.05-.12,.1-.19,.13-.07,.03-.15,.04-.23,.04h-3.12c-.08,0-.15-.02-.23-.04-.07-.03-.14-.07-.19-.13-.05-.05-.1-.12-.13-.19-.03-.07-.04-.15-.04-.23v-16.7c0-.08,.02-.15,.04-.23,.03-.07,.07-.14,.13-.19,.05-.05,.12-.1,.19-.13,.07-.03,.15-.04,.23-.04h3.12Zm-1.49-10.35c-.77,0-1.52,.31-2.06,.86-.55,.55-.86,1.28-.87,2.06,0,.39,.07,.78,.22,1.14,.15,.36,.36,.69,.64,.96,.27,.28,.6,.5,.96,.64,.36,.15,.75,.23,1.13,.23,.39,0,.77-.07,1.13-.22,.36-.15,.68-.37,.95-.65,.28-.27,.5-.6,.65-.95,.15-.36,.22-.74,.22-1.13,0-.39-.07-.77-.22-1.13-.15-.36-.37-.68-.65-.95-.27-.28-.6-.5-.95-.65s-.75-.22-1.13-.22h0Zm1.49,10.09h-3.12c-.22,0-.44,.09-.6,.25-.16,.16-.25,.37-.25,.6v16.7c0,.22,.09,.44,.25,.6,.16,.16,.37,.25,.6,.25h3.12c.22,0,.44-.09,.6-.25,.16-.16,.25-.37,.25-.6v-16.7c0-.22-.09-.44-.25-.6-.16-.16-.37-.25-.6-.25h0Z"/><path class="cls-1" d="M315.51,201.51h2.97c.16,0,.31,.06,.42,.17,.11,.11,.17,.26,.17,.42v23.86c0,.16-.06,.31-.17,.42-.11,.11-.26,.17-.42,.17h-2.97c-.16,0-.31-.06-.42-.17-.11-.11-.17-.26-.17-.42v-.89s0-.06-.03-.09c-.02-.03-.04-.05-.07-.06-.03-.01-.06-.02-.1-.01-.03,0-.06,.02-.09,.04-1.56,1.41-3.31,2.12-5.25,2.12-2.45,0-4.48-.89-6.1-2.68-1.6-1.82-2.4-4.1-2.4-6.83s.8-4.89,2.4-6.68c1.59-1.8,3.59-2.7,6-2.7,1.97,0,3.75,.76,5.33,2.28,.02,.02,.06,.04,.09,.04,.03,0,.07,0,.1-.01,.03-.01,.06-.03,.08-.06,.02-.03,.03-.06,.03-.09v-8.24c0-.16,.06-.31,.17-.42,.11-.11,.26-.17,.42-.17Zm-10.39,16.04c0,1.71,.46,3.11,1.38,4.18,.43,.52,.98,.94,1.6,1.22,.62,.28,1.29,.42,1.97,.41,1.53,0,2.77-.53,3.71-1.58,.94-1.09,1.41-2.47,1.41-4.15s-.47-3.06-1.41-4.15c-.94-1.06-2.17-1.6-3.67-1.6-.68-.01-1.35,.13-1.96,.41-.62,.28-1.16,.69-1.6,1.21-.94,1.09-1.41,2.43-1.41,4.04Z"/><path class="cls-1" d="M318.48,201.51c.08,0,.15,.02,.23,.04,.07,.03,.14,.07,.19,.13,.05,.05,.1,.12,.13,.19,.03,.07,.05,.15,.05,.23v23.86c0,.08-.01,.15-.05,.23-.03,.07-.07,.14-.13,.19-.06,.05-.12,.1-.19,.13-.07,.03-.15,.04-.23,.04h-2.97c-.08,0-.15-.02-.22-.04-.07-.03-.14-.07-.19-.13-.06-.05-.1-.12-.13-.19-.03-.07-.04-.15-.04-.23v-.89s0-.04-.01-.07c0-.02-.02-.04-.04-.06-.01-.02-.03-.03-.06-.04-.02,0-.04-.01-.06-.01-.04,0-.08,.02-.11,.04-1.56,1.41-3.31,2.12-5.25,2.12-2.45,0-4.48-.89-6.1-2.68-1.6-1.82-2.4-4.1-2.4-6.83s.8-4.89,2.4-6.68c1.59-1.8,3.59-2.7,6-2.7,1.97,0,3.75,.76,5.33,2.28,.03,.03,.07,.05,.12,.05,.02,0,.04,0,.06-.01,.02,0,.04-.02,.06-.04,.02-.02,.03-.03,.04-.06,0-.02,.01-.04,.01-.07v-8.24c0-.08,.02-.15,.04-.23,.03-.07,.07-.14,.13-.19,.06-.05,.12-.1,.19-.13,.07-.03,.15-.04,.22-.04h2.97Zm-8.43,21.86c1.53,0,2.77-.53,3.71-1.58,.94-1.09,1.41-2.47,1.41-4.15,0-1.68-.47-3.06-1.41-4.15-.94-1.06-2.17-1.6-3.67-1.6-.68-.01-1.35,.13-1.96,.41s-1.16,.69-1.6,1.21c-.94,1.09-1.41,2.43-1.41,4.04,0,1.71,.46,3.11,1.38,4.18,.43,.52,.98,.94,1.6,1.22,.62,.28,1.29,.42,1.97,.41Zm8.43-22.11h-2.97c-.22,0-.44,.09-.6,.25-.16,.16-.25,.37-.25,.6v8.04c-1.59-1.47-3.39-2.22-5.36-2.22-1.17-.02-2.34,.22-3.41,.7-1.07,.48-2.02,1.19-2.79,2.09-1.64,1.82-2.47,4.13-2.47,6.85s.83,5.13,2.47,6.99c1.66,1.84,3.78,2.77,6.29,2.77,1.94,0,3.71-.69,5.27-2.06v.7c0,.22,.09,.44,.25,.6,.16,.16,.37,.25,.6,.25h2.97c.22,0,.44-.09,.6-.25,.16-.16,.25-.37,.25-.6v-23.86c0-.22-.09-.44-.25-.6-.16-.16-.37-.25-.6-.25Zm-8.43,21.86c-.64,.02-1.28-.12-1.86-.38-.58-.27-1.1-.66-1.51-1.16-.87-1.02-1.32-2.37-1.32-4.02,0-1.53,.46-2.83,1.35-3.87,.41-.49,.93-.88,1.51-1.15,.58-.26,1.22-.39,1.86-.38,1.44,0,2.58,.49,3.48,1.51,.89,1.03,1.35,2.37,1.35,3.98s-.46,2.94-1.35,3.98c-.9,1-2.05,1.49-3.52,1.49Z"/><path class="cls-1" d="M339.67,218.58h-12.05s-.05,0-.07,.01c-.02,0-.04,.02-.06,.04-.02,.02-.03,.04-.04,.06,0,.02-.01,.05,0,.07,.14,1.38,.61,2.49,1.42,3.32,.85,.86,1.93,1.28,3.25,1.28,1.03,0,1.88-.24,2.55-.73,.58-.43,1.24-1.18,1.96-2.26,.08-.12,.21-.21,.35-.25,.14-.03,.29-.01,.43,.06l2.47,1.38c.07,.04,.13,.09,.18,.16,.05,.06,.09,.14,.1,.21,.02,.08,.02,.16,.01,.24-.01,.08-.04,.15-.08,.22-.41,.65-.87,1.26-1.38,1.83-.56,.63-1.21,1.17-1.93,1.61-.69,.42-1.44,.74-2.22,.93-.85,.2-1.72,.3-2.59,.29-2.67,0-4.81-.86-6.43-2.57-1.62-1.72-2.42-4.01-2.42-6.86s.78-5.11,2.35-6.86c1.58-1.72,3.67-2.59,6.28-2.59s4.71,.84,6.24,2.51c1.52,1.66,2.28,3.97,2.28,6.92v.4c0,.15-.07,.3-.18,.41-.11,.11-.26,.17-.41,.17Zm-3.89-3.38s.05,0,.08-.02c.02-.01,.04-.03,.06-.05,.02-.02,.03-.05,.03-.07,0-.03,0-.05,0-.08-.61-2.06-1.98-3.09-4.11-3.09-.48,0-.96,.07-1.41,.23-.44,.15-.84,.37-1.2,.66-.36,.29-.68,.64-.93,1.04-.23,.36-.4,.75-.53,1.16,0,.03,0,.05,0,.08,0,.03,.01,.05,.03,.07,.02,.02,.04,.04,.06,.05,.02,.01,.05,.02,.08,.02h7.85Z"/><path class="cls-1" d="M331.75,208.17c2.63,0,4.71,.84,6.24,2.51,1.52,1.66,2.28,3.97,2.28,6.92v.4c0,.15-.07,.3-.18,.41-.11,.11-.26,.17-.41,.17h-12.05s-.05,0-.07,.01c-.02,0-.04,.02-.06,.04-.02,.02-.03,.04-.04,.06,0,.02-.01,.05,0,.07,.14,1.38,.61,2.49,1.42,3.32,.85,.86,1.93,1.28,3.25,1.28,1.03,0,1.88-.24,2.55-.73,.58-.43,1.24-1.18,1.96-2.26,.05-.08,.13-.15,.21-.19,.09-.05,.18-.07,.28-.07,.1,0,.2,.03,.29,.07l2.47,1.38c.07,.04,.13,.09,.18,.16,.05,.06,.09,.14,.1,.21,.02,.08,.02,.16,.01,.24-.01,.08-.04,.15-.08,.22-.41,.65-.87,1.26-1.38,1.83-.56,.62-1.21,1.17-1.93,1.61-.69,.42-1.44,.74-2.22,.93-.85,.2-1.72,.3-2.59,.29-2.67,0-4.81-.86-6.43-2.57-1.62-1.72-2.42-4.01-2.42-6.86s.78-5.11,2.35-6.86c1.58-1.72,3.67-2.59,6.28-2.59h0Zm-3.82,7.03h7.85s.05,0,.08-.02c.02-.01,.04-.03,.06-.05,.02-.02,.03-.05,.03-.07,0-.03,0-.05,0-.08-.61-2.06-1.98-3.09-4.11-3.09-.48,0-.96,.07-1.41,.23-.44,.15-.84,.37-1.2,.66-.36,.29-.68,.64-.93,1.04-.23,.36-.4,.75-.53,1.16,0,.03,0,.05,0,.08,0,.03,.01,.05,.03,.07s.04,.04,.06,.05c.02,.01,.05,.02,.08,.02h0Zm3.82-7.28c-2.67,0-4.85,.9-6.47,2.67-1.6,1.79-2.42,4.16-2.42,7.03s.84,5.27,2.49,7.04c1.66,1.76,3.88,2.65,6.61,2.65,.89,0,1.78-.09,2.65-.3,.81-.2,1.58-.52,2.29-.96,.73-.46,1.4-1.02,1.98-1.66,.52-.58,.99-1.2,1.41-1.86,.06-.1,.1-.21,.12-.32,.02-.11,.01-.23-.02-.34-.03-.11-.08-.22-.15-.31-.07-.09-.16-.17-.26-.22l-2.47-1.38c-.18-.1-.4-.13-.61-.08-.21,.05-.39,.17-.5,.35-.71,1.05-1.35,1.79-1.9,2.2-.62,.45-1.43,.68-2.4,.68-1.24,0-2.28-.41-3.07-1.21-.74-.77-1.19-1.8-1.34-3.07h11.96c.22,0,.43-.09,.59-.24,.16-.15,.25-.36,.25-.58v-.4c0-3-.78-5.39-2.34-7.09-1.57-1.72-3.74-2.6-6.43-2.6h0Zm-3.7,7.03c.11-.35,.27-.68,.46-.98,.23-.37,.53-.7,.87-.97,.34-.27,.72-.48,1.13-.62,.43-.15,.88-.22,1.33-.22,1.98,0,3.24,.91,3.83,2.79h-7.62Z"/><path class="cls-1" d="M343.43,217.48c-.02-1.23,.22-2.45,.69-3.59,.48-1.13,1.18-2.16,2.08-3,1.85-1.81,4.1-2.72,6.76-2.72,2.67,0,4.93,.91,6.79,2.73,1.84,1.82,2.75,4.06,2.75,6.72s-.92,4.92-2.77,6.73c-1.86,1.8-4.14,2.7-6.85,2.7s-4.93-.92-6.74-2.75c-1.81-1.81-2.72-4.09-2.72-6.83Zm4.22,.07c0,1.79,.48,3.2,1.43,4.24,.98,1.05,2.27,1.58,3.88,1.58,1.62,0,2.91-.52,3.87-1.56,.97-1.04,1.45-2.43,1.45-4.17,0-1.74-.48-3.13-1.45-4.17-.98-1.05-2.27-1.58-3.87-1.58s-2.86,.53-3.84,1.58c-.98,1.05-1.47,2.41-1.47,4.07h0Z"/><path class="cls-1" d="M352.96,208.17c2.67,0,4.93,.91,6.79,2.73,1.84,1.82,2.75,4.06,2.75,6.72s-.92,4.92-2.77,6.73c-1.86,1.8-4.14,2.7-6.85,2.7s-4.93-.92-6.74-2.75c-1.81-1.81-2.72-4.09-2.72-6.83-.02-1.23,.22-2.45,.69-3.58,.48-1.13,1.18-2.16,2.08-3,1.85-1.81,4.1-2.72,6.76-2.72h0Zm0,15.19c1.62,0,2.91-.52,3.87-1.56,.97-1.04,1.45-2.43,1.45-4.17,0-1.74-.48-3.13-1.45-4.17-.98-1.05-2.27-1.58-3.87-1.58s-2.86,.53-3.84,1.58c-.98,1.05-1.47,2.41-1.47,4.07,0,1.79,.48,3.2,1.43,4.24,.98,1.05,2.27,1.58,3.88,1.58h0Zm0-15.45c-2.71,0-5.05,.94-6.94,2.79-.92,.87-1.64,1.92-2.13,3.09-.49,1.16-.73,2.42-.72,3.68,0,2.8,.94,5.15,2.79,7.01,1.85,1.88,4.18,2.83,6.92,2.83s5.12-.93,7.03-2.77c1.89-1.85,2.85-4.18,2.85-6.92s-.95-5.03-2.83-6.9c-1.9-1.86-4.25-2.81-6.97-2.81h0Zm0,15.19c-1.52,0-2.76-.5-3.69-1.5-.9-.98-1.36-2.35-1.36-4.07,0-1.59,.47-2.9,1.4-3.9,.92-.99,2.15-1.5,3.65-1.5s2.76,.5,3.69,1.5c.92,.99,1.38,2.33,1.38,3.99s-.46,3.01-1.38,3.99c-.91,.98-2.15,1.48-3.69,1.48h0Z"/><path class="cls-1" d="M383.2,203.59l-2.46,1.41c-.13,.08-.29,.1-.43,.07-.15-.03-.28-.12-.36-.25-.54-.83-1.06-1.38-1.56-1.67-.61-.38-1.4-.57-2.37-.57-1.19,0-2.17,.33-2.96,.98-.37,.28-.67,.65-.88,1.07-.2,.42-.31,.88-.3,1.35,0,1.34,1.03,2.42,3.08,3.24l2.83,1.12c2.3,.9,3.99,2,5.05,3.3,1.06,1.3,1.6,2.89,1.6,4.78,0,2.53-.87,4.62-2.61,6.27-1.75,1.66-3.92,2.49-6.52,2.49-2.46,0-4.49-.71-6.1-2.12-1.47-1.31-2.42-3.12-2.86-5.42-.03-.15,0-.3,.09-.42,.09-.12,.22-.21,.36-.24l3.16-.68c.08-.02,.16-.02,.24,0,.08,.01,.15,.04,.22,.09,.07,.04,.12,.1,.17,.17,.04,.07,.07,.14,.09,.22,.2,1.29,.52,2.21,.94,2.75,.88,1.19,2.17,1.78,3.86,1.78,1.33,0,2.44-.43,3.32-1.3,.88-.87,1.32-1.96,1.32-3.29,0-.5-.07-1-.23-1.47-.16-.45-.4-.87-.72-1.23-.37-.41-.79-.76-1.26-1.05-.59-.36-1.2-.68-1.84-.93l-2.74-1.1c-3.88-1.59-5.82-3.92-5.82-6.98,0-2.07,.81-3.79,2.44-5.18,1.63-1.4,3.65-2.1,6.08-2.1,3.09,0,5.53,1.38,7.34,4.13,.04,.06,.07,.14,.08,.21,.01,.08,0,.15,0,.23-.02,.07-.05,.15-.1,.21-.05,.06-.11,.11-.17,.15Z"/><path class="cls-1" d="M376.06,198.67c3.09,0,5.53,1.38,7.34,4.13,.04,.06,.07,.14,.08,.21,.01,.08,0,.15,0,.23-.02,.07-.05,.15-.1,.21-.05,.06-.1,.11-.17,.15l-2.46,1.41c-.09,.05-.2,.08-.3,.08-.1,0-.19-.02-.28-.07-.09-.05-.16-.11-.21-.19-.54-.83-1.06-1.38-1.56-1.67-.61-.38-1.4-.57-2.37-.57-1.19,0-2.17,.33-2.96,.98-.37,.28-.67,.65-.87,1.07-.2,.42-.31,.88-.3,1.35,0,1.34,1.03,2.42,3.08,3.24l2.83,1.12c2.3,.9,3.99,2,5.05,3.3,1.06,1.3,1.6,2.89,1.6,4.78,0,2.53-.87,4.62-2.61,6.27-1.75,1.66-3.92,2.49-6.52,2.49-2.46,0-4.49-.71-6.1-2.12-1.47-1.31-2.42-3.12-2.86-5.42-.03-.15,0-.3,.09-.42,.09-.12,.22-.21,.36-.24l3.16-.68s.08-.01,.13-.01c.14,0,.27,.05,.38,.13,.11,.09,.18,.21,.2,.35,.2,1.29,.52,2.21,.94,2.75,.88,1.19,2.17,1.78,3.86,1.78,1.33,0,2.44-.43,3.32-1.3,.88-.87,1.32-1.96,1.32-3.29,0-.5-.07-1-.23-1.47-.16-.45-.4-.87-.72-1.23-.37-.41-.79-.76-1.26-1.05-.59-.36-1.2-.68-1.84-.94l-2.74-1.1c-3.88-1.59-5.82-3.92-5.82-6.98,0-2.07,.81-3.79,2.44-5.18,1.63-1.4,3.65-2.1,6.08-2.1h0Zm0-.25c-2.48,0-4.58,.73-6.25,2.16-1.68,1.43-2.53,3.24-2.53,5.37,0,3.16,2.01,5.58,5.98,7.21l2.74,1.1c.62,.25,1.22,.56,1.79,.91,.45,.27,.85,.61,1.2,1,.29,.34,.52,.73,.67,1.15,.15,.45,.22,.92,.22,1.39,0,1.26-.42,2.31-1.25,3.12-.83,.81-1.88,1.23-3.14,1.23-1.62,0-2.81-.55-3.65-1.68-.4-.51-.7-1.39-.9-2.64-.04-.19-.14-.37-.29-.5-.15-.13-.35-.2-.54-.19-.06,0-.12,0-.18,.02l-3.16,.68c-.21,.04-.4,.16-.52,.34-.12,.18-.17,.4-.13,.61,.45,2.34,1.44,4.21,2.94,5.56,1.65,1.45,3.75,2.18,6.27,2.18,2.65,0,4.9-.86,6.7-2.56,1.78-1.69,2.68-3.86,2.68-6.45,0-1.94-.56-3.6-1.65-4.94-1.09-1.33-2.82-2.46-5.15-3.38l-2.83-1.12c-1.94-.77-2.93-1.79-2.93-3.01,0-.43,.09-.86,.27-1.25s.47-.73,.81-.99c.73-.61,1.67-.92,2.79-.92,.91,0,1.66,.18,2.23,.53h0c.46,.27,.96,.8,1.48,1.59,.08,.12,.18,.21,.31,.28,.12,.07,.26,.1,.4,.1,.15,0,.3-.04,.43-.11l2.46-1.41c.1-.05,.18-.13,.25-.22,.07-.09,.12-.19,.14-.3,.03-.11,.03-.22,.01-.33-.02-.11-.06-.21-.12-.3-1.85-2.81-4.39-4.24-7.56-4.24h0Z"/><path class="cls-1" d="M393.57,212.69v13.26c0,.16-.06,.31-.17,.42-.11,.11-.26,.17-.42,.17h-2.95c-.16,0-.31-.06-.42-.17-.11-.11-.17-.26-.17-.42v-13.26s-.02-.09-.05-.12c-.03-.03-.08-.05-.12-.05h-1.17c-.16,0-.31-.06-.42-.17-.11-.11-.17-.26-.17-.42v-2.68c0-.16,.06-.31,.17-.42,.11-.11,.26-.17,.42-.17h1.17s.04,0,.07-.01c.02,0,.04-.02,.06-.04,.01-.02,.03-.03,.04-.06,0-.02,.01-.04,.01-.06v-5.11c0-.16,.06-.31,.17-.42,.11-.11,.26-.17,.42-.17h2.95c.16,0,.31,.06,.42,.17,.11,.11,.17,.26,.17,.42v5.11s0,.04,.01,.06c0,.02,.02,.04,.04,.06,.02,.02,.04,.03,.06,.04,.02,0,.04,.01,.07,.01h2.45c.16,0,.31,.06,.42,.17,.11,.11,.17,.26,.17,.42v2.68c0,.16-.06,.31-.17,.42-.11,.11-.26,.17-.42,.17h-2.45s-.04,0-.07,.01c-.02,0-.04,.02-.06,.04-.01,.02-.03,.03-.04,.06,0,.02-.01,.04-.01,.06Z"/><path class="cls-1" d="M392.98,202.8c.08,0,.15,.02,.23,.04,.07,.03,.14,.07,.19,.13,.06,.05,.1,.12,.13,.19,.03,.07,.04,.15,.04,.23v5.11s.02,.09,.05,.12c.03,.03,.08,.05,.12,.05h2.45c.08,0,.15,.02,.23,.04,.07,.03,.14,.07,.19,.13,.05,.05,.1,.12,.13,.19,.03,.07,.04,.15,.04,.23v2.68c0,.08-.01,.15-.04,.23-.03,.07-.07,.14-.13,.19-.06,.05-.12,.1-.19,.13-.07,.03-.15,.04-.23,.04h-2.45s-.09,.02-.12,.05c-.03,.03-.05,.07-.05,.12v13.26c0,.08-.02,.15-.04,.23-.03,.07-.07,.14-.13,.19-.05,.05-.12,.1-.19,.13-.07,.03-.15,.04-.23,.04h-2.95c-.08,0-.15-.02-.23-.04-.07-.03-.14-.07-.19-.13-.06-.05-.1-.12-.13-.19-.03-.07-.04-.15-.04-.23v-13.26s-.02-.09-.05-.12c-.03-.03-.08-.05-.12-.05h-1.17c-.08,0-.15-.02-.23-.04-.07-.03-.14-.07-.19-.13-.06-.05-.1-.12-.13-.19-.03-.07-.04-.15-.04-.23v-2.68c0-.08,.01-.15,.04-.23,.03-.07,.07-.14,.13-.19,.05-.05,.12-.1,.19-.13,.07-.03,.15-.04,.23-.04h1.17s.09-.02,.12-.05c.03-.03,.05-.08,.05-.12v-5.11c0-.08,.02-.15,.04-.23,.03-.07,.07-.14,.13-.19,.05-.05,.12-.1,.19-.13,.07-.03,.15-.04,.23-.04h2.95Zm0-.25h-2.95c-.22,0-.44,.09-.6,.25-.16,.16-.25,.37-.25,.6v5.03h-1.09c-.22,0-.44,.09-.6,.25-.16,.16-.25,.37-.25,.6v2.68c0,.22,.09,.44,.25,.6,.16,.16,.37,.25,.6,.25h1.09v13.18c0,.22,.09,.44,.25,.6,.16,.16,.37,.25,.6,.25h2.95c.22,0,.44-.09,.6-.25,.16-.16,.25-.37,.25-.6v-13.18h2.37c.22,0,.44-.09,.6-.25,.16-.16,.25-.37,.25-.6v-2.68c0-.22-.09-.44-.25-.6-.16-.16-.37-.25-.6-.25h-2.37v-5.03c0-.22-.09-.44-.25-.6-.16-.16-.37-.25-.6-.25Z"/><path class="cls-1" d="M415.48,218.58h-12.07s-.04,0-.06,.01c-.02,0-.04,.02-.05,.04-.01,.02-.02,.03-.03,.05,0,.02,0,.04,0,.06,.13,1.39,.61,2.5,1.42,3.34,.85,.86,1.93,1.28,3.25,1.28,1.03,0,1.88-.24,2.55-.73,.58-.43,1.24-1.18,1.96-2.26,.08-.12,.21-.21,.35-.25,.14-.03,.3-.01,.43,.06l2.47,1.38c.07,.04,.13,.09,.18,.16,.05,.06,.08,.14,.1,.21,.02,.08,.02,.16,.01,.24s-.04,.15-.08,.22c-.41,.65-.87,1.26-1.38,1.83-.57,.63-1.21,1.17-1.93,1.61-.69,.42-1.44,.74-2.22,.93-.85,.2-1.72,.3-2.59,.29-2.67,0-4.81-.86-6.43-2.57-1.62-1.72-2.42-4.01-2.42-6.86s.78-5.11,2.35-6.86c1.58-1.72,3.67-2.59,6.28-2.59s4.71,.84,6.24,2.51c1.52,1.66,2.28,3.97,2.28,6.92v.4c-.01,.15-.07,.3-.18,.41-.11,.11-.26,.17-.41,.17Zm-3.66-3.38c-.58-2.2-1.96-3.3-4.17-3.3-.48,0-.96,.07-1.41,.23-.44,.15-.84,.37-1.2,.66-.37,.29-.68,.64-.93,1.04-.24,.37-.42,.78-.54,1.2,0,.02,0,.04,0,.06,0,.02,.01,.04,.03,.06,.01,.02,.03,.03,.05,.04,.02,0,.04,.01,.06,.01h8.12Z"/><path class="cls-1" d="M407.56,208.17c2.63,0,4.71,.84,6.24,2.51,1.52,1.66,2.28,3.97,2.28,6.92v.4c-.01,.15-.07,.3-.18,.41-.11,.11-.26,.17-.41,.17h-12.07s-.04,0-.06,.01c-.02,0-.04,.02-.05,.04-.01,.02-.02,.03-.03,.05,0,.02,0,.04,0,.06,.13,1.39,.61,2.5,1.42,3.34,.85,.86,1.93,1.28,3.25,1.28,1.03,0,1.88-.24,2.55-.73,.58-.43,1.24-1.18,1.96-2.26,.05-.08,.13-.15,.21-.19,.09-.05,.18-.07,.28-.07,.1,0,.2,.03,.28,.07l2.47,1.38c.07,.04,.13,.09,.18,.16,.05,.06,.08,.14,.1,.21,.02,.08,.02,.16,.01,.24s-.04,.15-.08,.22c-.41,.65-.87,1.26-1.38,1.83-.57,.63-1.21,1.17-1.93,1.61-.69,.42-1.44,.74-2.22,.93-.85,.2-1.72,.3-2.59,.29-2.67,0-4.81-.86-6.43-2.57-1.62-1.72-2.42-4.01-2.42-6.86s.78-5.11,2.35-6.86c1.58-1.72,3.67-2.59,6.28-2.59h0Zm-3.86,7.03h8.12c-.58-2.2-1.96-3.3-4.17-3.3-.48,0-.96,.07-1.41,.23-.44,.15-.84,.37-1.2,.66-.37,.29-.68,.64-.93,1.04-.24,.37-.42,.78-.54,1.2,0,.02,0,.04,0,.06,0,.02,.01,.04,.03,.06,.01,.02,.03,.03,.05,.04,.02,0,.04,.01,.06,.01Zm3.86-7.28c-2.67,0-4.85,.9-6.47,2.67-1.6,1.79-2.42,4.16-2.42,7.03s.84,5.27,2.49,7.04c1.66,1.76,3.88,2.65,6.61,2.65,.89,0,1.78-.09,2.65-.3,.81-.2,1.58-.52,2.29-.96,.73-.46,1.4-1.02,1.98-1.66,.52-.58,.99-1.2,1.41-1.86,.06-.1,.1-.21,.12-.32,.02-.11,.01-.23-.01-.34s-.08-.22-.15-.31c-.07-.09-.16-.17-.26-.22l-2.47-1.38c-.19-.1-.4-.13-.61-.08-.21,.05-.39,.18-.5,.35-.71,1.05-1.34,1.79-1.9,2.2-.62,.45-1.43,.68-2.4,.68-1.25,0-2.28-.41-3.07-1.21-.74-.77-1.19-1.8-1.33-3.07h11.96c.22,0,.43-.09,.59-.24,.16-.15,.25-.36,.25-.58v-.4c0-3-.78-5.39-2.34-7.09-1.57-1.72-3.74-2.6-6.43-2.6h0Zm-3.7,7.03c.11-.35,.27-.68,.46-.98,.23-.37,.53-.7,.87-.97,.34-.27,.72-.48,1.13-.62,.43-.15,.88-.22,1.33-.22,1.98,0,3.24,.91,3.83,2.79h-7.62Z"/><path class="cls-1" d="M422.78,232.36h-2.95c-.16,0-.31-.06-.42-.17-.11-.11-.17-.26-.17-.42v-22.52c0-.16,.06-.31,.17-.42,.11-.11,.26-.17,.42-.17h2.95c.16,0,.31,.06,.42,.17,.11,.11,.17,.26,.17,.42v.97s0,.06,.03,.09c.02,.03,.04,.05,.07,.06,.03,.01,.06,.02,.09,.01,.03,0,.06-.02,.08-.04,1.56-1.45,3.32-2.18,5.27-2.18,2.46,0,4.49,.91,6.08,2.72,1.62,1.8,2.42,4.07,2.42,6.81s-.8,4.91-2.4,6.7c-1.59,1.77-3.6,2.66-6.02,2.66-1.96,0-3.74-.74-5.31-2.21-.03-.02-.06-.04-.09-.05-.03,0-.07,0-.1,.01-.03,.01-.06,.04-.08,.07-.02,.03-.03,.06-.03,.1v6.8c0,.16-.06,.31-.17,.42-.11,.11-.26,.17-.42,.17Zm10.41-14.65c0-1.71-.46-3.11-1.4-4.18-.43-.52-.98-.94-1.59-1.22-.62-.28-1.29-.42-1.97-.41-1.52,0-2.75,.53-3.69,1.58-.94,1.05-1.41,2.43-1.41,4.15s.47,3.06,1.41,4.15c.93,1.06,2.15,1.6,3.67,1.6,.67,.01,1.34-.12,1.96-.4,.61-.28,1.16-.69,1.59-1.21,.95-1.08,1.43-2.42,1.43-4.04Z"/><path class="cls-1" d="M428.91,208.17c2.46,0,4.49,.91,6.08,2.72,1.62,1.8,2.42,4.07,2.42,6.81s-.8,4.91-2.4,6.7c-1.59,1.77-3.6,2.66-6.02,2.66-1.96,0-3.74-.74-5.31-2.21-.03-.03-.08-.05-.12-.05-.03,0-.05,0-.07,.01-.02,0-.04,.02-.06,.04-.02,.02-.03,.04-.04,.06,0,.02-.01,.05-.01,.07v6.8c0,.08-.01,.15-.05,.23-.03,.07-.07,.14-.13,.19-.05,.05-.12,.1-.19,.13-.07,.03-.15,.04-.23,.04h-2.95c-.08,0-.15-.02-.23-.04-.07-.03-.14-.07-.19-.13-.05-.05-.1-.12-.13-.19-.03-.07-.05-.15-.05-.23v-22.52c0-.08,.01-.15,.05-.23,.03-.07,.07-.14,.13-.19,.05-.05,.12-.1,.19-.13,.07-.03,.15-.04,.23-.04h2.95c.16,0,.31,.06,.42,.17,.11,.11,.17,.26,.17,.42v.97s0,.04,.01,.06c0,.02,.02,.04,.03,.05,.02,.02,.03,.03,.05,.04,.02,0,.04,.01,.06,.01,.04,0,.08-.02,.11-.04,1.56-1.45,3.32-2.18,5.27-2.18h0Zm-.7,15.19c.67,.02,1.34-.12,1.96-.4,.61-.28,1.16-.69,1.59-1.21,.96-1.08,1.43-2.42,1.43-4.04,0-1.71-.46-3.11-1.4-4.18-.43-.52-.98-.94-1.59-1.22-.62-.28-1.29-.42-1.97-.41-1.52,0-2.75,.53-3.69,1.58-.94,1.05-1.41,2.43-1.41,4.15,0,1.68,.47,3.06,1.41,4.15,.93,1.06,2.15,1.6,3.67,1.6Zm.7-15.45c-1.95,0-3.73,.71-5.29,2.1v-.77c0-.22-.09-.44-.25-.6-.16-.16-.37-.25-.6-.25h-2.95c-.22,0-.44,.09-.6,.25-.16,.16-.25,.37-.25,.6v22.52c0,.22,.09,.44,.25,.6,.16,.16,.37,.25,.6,.25h2.95c.22,0,.44-.09,.6-.25,.16-.16,.25-.37,.25-.6v-6.63c1.59,1.44,3.39,2.17,5.36,2.17,2.49,0,4.58-.92,6.21-2.75,1.64-1.83,2.47-4.14,2.47-6.87s-.84-5.14-2.49-6.98c-1.63-1.86-3.74-2.8-6.27-2.8h0Zm-.7,15.19c-1.46,0-2.59-.49-3.48-1.51-.9-1.03-1.35-2.37-1.35-3.98s.45-2.98,1.35-3.98c.9-1,2.05-1.49,3.5-1.49,.64-.01,1.28,.12,1.86,.38s1.1,.66,1.51,1.16c.88,1.02,1.33,2.38,1.33,4.02,0,1.54-.46,2.84-1.37,3.87-.41,.49-.92,.89-1.5,1.15-.58,.26-1.21,.39-1.85,.38Z"/></g><text class="cls-3" transform="translate(135.77 226.85)"><tspan x="0" y="0">with</tspan></text></svg>