<svg id="Group_740" data-name="Group 740" xmlns="http://www.w3.org/2000/svg" width="177.537" height="68.229" viewBox="0 0 177.537 68.229">
  <path id="Path_779" data-name="Path 779" d="M230.942,33.1l-27.828-5.69V2.067A2.1,2.1,0,0,0,201.01,0h-2.837a2.027,2.027,0,0,0-2.023,2.067V66.154a2.027,2.027,0,0,0,2.023,2.067h2.837a2.1,2.1,0,0,0,2.108-2.067V34.381l27.828,5.69a1.657,1.657,0,0,0,2.067-1.685V35.549a2.611,2.611,0,0,0-2.067-2.446Z" transform="translate(-117.1)" fill="#48b9bd"/>
  <path id="Path_780" data-name="Path 780" d="M57.3,7.536H46.6V2.067A2.1,2.1,0,0,0,44.484,0H41.647a2.027,2.027,0,0,0-2.023,2.067V7.536H21.94V2.067A2.1,2.1,0,0,0,19.832,0H16.995a2.027,2.027,0,0,0-2.023,2.067V7.536H2.067A2.1,2.1,0,0,0,0,9.644v2.837A2.027,2.027,0,0,0,2.067,14.5H57.3a2.027,2.027,0,0,0,2.067-2.023V9.644A2.1,2.1,0,0,0,57.3,7.536Z" fill="#23a4da"/>
  <path id="Path_781" data-name="Path 781" d="M94.408,77.033V50.3A2.1,2.1,0,0,0,92.3,48.23H89.463A2.027,2.027,0,0,0,87.44,50.3V77.033A2.027,2.027,0,0,0,89.463,79.1H92.3A2.1,2.1,0,0,0,94.408,77.033Z" transform="translate(-52.201 -28.793)" fill="#23a4da"/>
  <path id="Path_782" data-name="Path 782" d="M112.13,48.62h-2.757a2.045,2.045,0,0,0-2.1,2.067V80.961c0,3.389-.488,5.872-1.862,7.444a6.771,6.771,0,0,1-5.021,2.067H98.2A2.1,2.1,0,0,0,96.09,92.54v2.648A2.1,2.1,0,0,0,98.2,97.255h2.269a12.965,12.965,0,0,0,10.208-4.465c2.1-2.478,3.482-5.707,3.482-10.917V50.687a1.979,1.979,0,0,0-2.027-2.067Z" transform="translate(-57.365 -29.026)" fill="#23a4da"/>
  <path id="Path_783" data-name="Path 783" d="M19.082,48.23A13.487,13.487,0,0,0,8.632,52.7C6.444,55.178,5.15,58.4,5.15,63.613V94.951a2.027,2.027,0,0,0,2.023,2.067H10.01a2.1,2.1,0,0,0,2.108-2.067V64.189c0-3.389.488-5.872,1.943-7.444a6.771,6.771,0,0,1,5.021-2.067,6.6,6.6,0,0,1,4.941,2.067c1.455,1.487,1.963,3.8,2.015,6.92H18.312a2.027,2.027,0,0,0-2.067,2.023v2.837a2.1,2.1,0,0,0,2.067,2.108h7.734v4.856H18.312a2.027,2.027,0,0,0-2.067,2.023V80.35a2.1,2.1,0,0,0,2.067,2.108H25.99c-.157,2.511-.685,4.425-1.83,5.711a6.886,6.886,0,0,1-5.082,2.067h-.709A2.109,2.109,0,0,0,16.237,92.3v2.648a2.109,2.109,0,0,0,2.132,2.067h.794a13.179,13.179,0,0,0,10.325-4.465c2.051-2.386,3.405-5.481,3.5-10.353h.02V63.613c0-5.211-1.378-8.435-3.482-10.917A13.608,13.608,0,0,0,19.082,48.23Z" transform="translate(-3.075 -28.793)" fill="#23a4da"/>
  <path id="Path_784" data-name="Path 784" d="M368.028,28.666H350.1a1.856,1.856,0,0,0-1.858,1.858v3.248A1.856,1.856,0,0,0,350.1,35.63h7.955L333.676,60.266a1.874,1.874,0,0,1-1.322.552H329.9a.742.742,0,0,1-.742-.742V1.858A1.856,1.856,0,0,0,327.3,0h-3.248a1.856,1.856,0,0,0-1.858,1.858v64.07a1.856,1.856,0,0,0,1.858,1.858h10.438a3.711,3.711,0,0,0,2.64-1.1l25.793-26.063v7.834a1.856,1.856,0,0,0,1.858,1.858h3.248a1.856,1.856,0,0,0,1.858-1.858V30.532a1.856,1.856,0,0,0-1.858-1.858Z" transform="translate(-192.345)" fill="#48b9bd"/>
</svg>
