<svg xmlns="http://www.w3.org/2000/svg" xmlns:xlink="http://www.w3.org/1999/xlink" width="333" height="42.017" viewBox="0 0 333 42.017">
  <defs>
    <clipPath id="clip-path">
      <rect id="Rectangle_120" data-name="Rectangle 120" width="333" height="42.017" fill="none"/>
    </clipPath>
  </defs>
  <g id="Group_388" data-name="Group 388" transform="translate(0 0)">
    <g id="Group_113" data-name="Group 113" transform="translate(0 0)" clip-path="url(#clip-path)">
      <path id="Path_273" data-name="Path 273" d="M16.087,28.944a1.729,1.729,0,0,0,1.79,1.861A1.767,1.767,0,0,0,19.7,28.944a6.709,6.709,0,0,0-1.358-3.965.563.563,0,0,0-.9,0,6.709,6.709,0,0,0-1.358,3.965" transform="translate(2.893 4.452)" fill="#0022e4"/>
      <path id="Path_274" data-name="Path 274" d="M13.79,23.183a13.539,13.539,0,0,1,6.481,1.654,1.062,1.062,0,0,0,1.035,0,13.535,13.535,0,0,1,6.48-1.654,11.377,11.377,0,0,1,10.866,8.056.363.363,0,0,0,.665.073,21.01,21.01,0,1,0-36.9-.518.364.364,0,0,0,.667-.046,11.375,11.375,0,0,1,10.7-7.565m8.146-10.1A7.266,7.266,0,0,1,34.577,9.073a1.382,1.382,0,0,1-1.026,2.305h-.094a1.348,1.348,0,0,1-.993-.448,4.456,4.456,0,1,0-3.3,7.45c.137,0,.273-.008.407-.02l.118-.013c.1-.013.2-.028.3-.047l.1-.019c.131-.028.261-.06.388-.1l.024-.008c.123-.038.242-.083.36-.131l.065-.028c.122-.052.24-.109.355-.171a4.356,4.356,0,0,0,1.7-1.654.335.335,0,0,0-.288-.506H30.573a1.41,1.41,0,0,1-1.385-1.672,1.53,1.53,0,0,1,1.454-1.146h4.75a1.048,1.048,0,0,1,1.049,1.048v.011a7.282,7.282,0,0,1-.327,2.158l0,.007c-.019.06-.045.118-.065.177a7.292,7.292,0,0,1-.847,1.717l-.009.014a7.341,7.341,0,0,1-1.948,1.949l-.033.022c-.172.116-.35.223-.533.324l-.079.044c-.191.1-.387.2-.588.283l-.019.009q-.31.129-.632.231l-.139.04c-.163.047-.327.09-.493.126q-.1.021-.191.039c-.147.027-.294.054-.442.07-.085.009-.169.022-.254.031-.222.02-.446.034-.674.034a7.284,7.284,0,0,1-7.229-8.113m-8.37-6.44a7.243,7.243,0,0,1,5.5,2.526,1.347,1.347,0,0,1-1.043,2.206h-.153a1.37,1.37,0,0,1-1.011-.458,4.46,4.46,0,1,0-.3,6.3,1.46,1.46,0,0,1,1.024-.381,1.41,1.41,0,0,1,.888,2.451,7.274,7.274,0,1,1-4.9-12.644" transform="translate(0 0)" fill="#0022e4"/>
      <path id="Path_275" data-name="Path 275" d="M27.082,22.386a10.426,10.426,0,0,0-4.03.708.41.41,0,0,0-.182.629,9.713,9.713,0,0,1,2.092,6.047,4.968,4.968,0,0,1-5.054,5.089,4.9,4.9,0,0,1-5.018-5.089,9.713,9.713,0,0,1,2.092-6.047.41.41,0,0,0-.183-.629,10.448,10.448,0,0,0-4.03-.708A8.113,8.113,0,0,0,4.8,30.515a2,2,0,0,0,.6,1.421,21,21,0,0,0,28.7.752,2.9,2.9,0,0,0,.956-2.172,8.113,8.113,0,0,0-7.971-8.129" transform="translate(0.863 4.026)" fill="#0022e4"/>
      <path id="Path_276" data-name="Path 276" d="M45.122,19.927v-.073a12.914,12.914,0,0,1,13.161-13.2,13.3,13.3,0,0,1,9.989,3.974l-2.88,3.318a10.152,10.152,0,0,0-7.145-3.171c-4.886,0-8.422,4.01-8.422,9.006v.072c0,5,3.536,9.079,8.422,9.079,3.136,0,5.141-1.277,7.328-3.318l2.88,2.917A13.17,13.17,0,0,1,58.1,33.052,12.835,12.835,0,0,1,45.122,19.927" transform="translate(8.115 1.197)" fill="#261f1c"/>
      <path id="Path_277" data-name="Path 277" d="M45.122,19.927v-.073a12.914,12.914,0,0,1,13.161-13.2,13.3,13.3,0,0,1,9.989,3.974l-2.88,3.318a10.152,10.152,0,0,0-7.145-3.171c-4.886,0-8.422,4.01-8.422,9.006v.072c0,5,3.536,9.079,8.422,9.079,3.136,0,5.141-1.277,7.328-3.318l2.88,2.917A13.17,13.17,0,0,1,58.1,33.052,12.835,12.835,0,0,1,45.122,19.927Z" transform="translate(8.115 1.197)" fill="none" stroke="#261f1c" stroke-linecap="round" stroke-linejoin="round" stroke-width="0.365"/>
      <path id="Path_278" data-name="Path 278" d="M78.878,6.872h4.155l11.229,25.7H89.522l-2.587-6.161H74.866l-2.624,6.161H67.648ZM85.294,22.44,80.882,12.232,76.507,22.44Z" transform="translate(12.166 1.236)" fill="#261f1c"/>
      <path id="Path_279" data-name="Path 279" d="M78.878,6.872h4.155l11.229,25.7H89.522l-2.587-6.161H74.866l-2.624,6.161H67.648ZM85.294,22.44,80.882,12.232,76.507,22.44Z" transform="translate(12.166 1.236)" fill="none" stroke="#261f1c" stroke-linecap="round" stroke-linejoin="round" stroke-width="0.365"/>
      <path id="Path_280" data-name="Path 280" d="M94.533,7.027h4.776l7.766,12.067,7.765-12.067h4.777v25.52h-4.485v-18.3l-8.057,12.03h-.146L98.944,14.318V32.547H94.533Z" transform="translate(17.001 1.264)" fill="#261f1c"/>
      <path id="Path_281" data-name="Path 281" d="M94.533,7.027h4.776l7.766,12.067,7.765-12.067h4.777v25.52h-4.485v-18.3l-8.057,12.03h-.146L98.944,14.318V32.547H94.533Z" transform="translate(17.001 1.264)" fill="none" stroke="#261f1c" stroke-linecap="round" stroke-linejoin="round" stroke-width="0.365"/>
      <path id="Path_282" data-name="Path 282" d="M129.757,11.183h-8.093V7.026h20.707v4.157h-8.094V32.547h-4.521Z" transform="translate(21.881 1.264)" fill="#261f1c"/>
      <path id="Path_283" data-name="Path 283" d="M129.757,11.183h-8.093V7.026h20.707v4.157h-8.094V32.547h-4.521Z" transform="translate(21.881 1.264)" fill="none" stroke="#261f1c" stroke-linecap="round" stroke-linejoin="round" stroke-width="0.365"/>
      <path id="Path_284" data-name="Path 284" d="M143.851,7.027h18.921v4.01H148.334v6.635h12.8v4.01h-12.8v6.854h14.619v4.01h-19.1Z" transform="translate(25.871 1.264)" fill="#261f1c"/>
      <path id="Path_285" data-name="Path 285" d="M143.851,7.027h18.921v4.01H148.334v6.635h12.8v4.01h-12.8v6.854h14.619v4.01h-19.1Z" transform="translate(25.871 1.264)" fill="none" stroke="#261f1c" stroke-linecap="round" stroke-linejoin="round" stroke-width="0.365"/>
      <path id="Path_286" data-name="Path 286" d="M164.215,19.927v-.073a12.914,12.914,0,0,1,13.16-13.2,13.3,13.3,0,0,1,9.99,3.974l-2.88,3.318a10.154,10.154,0,0,0-7.145-3.171c-4.886,0-8.422,4.01-8.422,9.006v.072c0,5,3.536,9.079,8.422,9.079,3.136,0,5.141-1.277,7.328-3.318l2.88,2.917a13.17,13.17,0,0,1-10.354,4.52,12.834,12.834,0,0,1-12.978-13.125" transform="translate(29.534 1.197)" fill="#261f1c"/>
      <path id="Path_287" data-name="Path 287" d="M164.215,19.927v-.073a12.914,12.914,0,0,1,13.16-13.2,13.3,13.3,0,0,1,9.99,3.974l-2.88,3.318a10.154,10.154,0,0,0-7.145-3.171c-4.886,0-8.422,4.01-8.422,9.006v.072c0,5,3.536,9.079,8.422,9.079,3.136,0,5.141-1.277,7.328-3.318l2.88,2.917a13.17,13.17,0,0,1-10.354,4.52A12.834,12.834,0,0,1,164.215,19.927Z" transform="translate(29.534 1.197)" fill="none" stroke="#261f1c" stroke-linecap="round" stroke-linejoin="round" stroke-width="0.365"/>
      <path id="Path_288" data-name="Path 288" d="M188.6,7.027h4.483V17.636h12.178V7.027h4.483v25.52h-4.483V21.792H193.079V32.547H188.6Z" transform="translate(33.918 1.264)" fill="#261f1c"/>
      <path id="Path_289" data-name="Path 289" d="M188.6,7.027h4.483V17.636h12.178V7.027h4.483v25.52h-4.483V21.792H193.079V32.547H188.6Z" transform="translate(33.918 1.264)" fill="none" stroke="#261f1c" stroke-linecap="round" stroke-linejoin="round" stroke-width="0.365"/>
      <path id="Path_290" data-name="Path 290" d="M232.988,32.847h-9.747a8.332,8.332,0,0,1-8.332-8.332v-9.6a8.331,8.331,0,0,1,8.331-8.332h13.579a.262.262,0,0,1,.262.263l-.9,2.9a.262.262,0,0,1-.262.262H223.241a4.907,4.907,0,0,0-4.907,4.906v9.6a4.907,4.907,0,0,0,4.907,4.907h9.747a1.14,1.14,0,0,0,1.14-1.141V22.038a.609.609,0,0,0-.609-.609h-7.387a.262.262,0,0,1-.262-.263v-2.9a.262.262,0,0,1,.262-.263h7.388a4.034,4.034,0,0,1,4.034,4.034v6.245a4.566,4.566,0,0,1-4.566,4.566" transform="translate(38.651 1.184)" fill="#0022e4"/>
      <path id="Path_291" data-name="Path 291" d="M265.351,32.9h-2.9a.262.262,0,0,1-.262-.262V10.361a.352.352,0,0,0-.678-.132L255.829,24.3a4.908,4.908,0,0,1-4.27,3.134,4.735,4.735,0,0,1-4.612-2.97L241.2,10.229a.349.349,0,0,0-.326-.219.353.353,0,0,0-.353.352v22.28a.262.262,0,0,1-.262.262h-2.9a.263.263,0,0,1-.262-.262V10.507a3.874,3.874,0,0,1,3.492-3.912,3.764,3.764,0,0,1,3.789,2.353l5.746,14.237a1.328,1.328,0,0,0,2.462,0l5.7-14.11A3.9,3.9,0,0,1,261.526,6.6a3.78,3.78,0,0,1,4.087,3.764v22.28a.262.262,0,0,1-.262.262" transform="translate(42.641 1.184)" fill="#0022e4"/>
      <path id="Path_292" data-name="Path 292" d="M279.51,32.847H264.94a.262.262,0,0,1-.262-.262l.9-2.9a.262.262,0,0,1,.262-.262h13.749a2.43,2.43,0,0,0,2.438-2.473,3.959,3.959,0,0,0-2.664-3.639l-.068-.025-9.982-3.942a7.375,7.375,0,0,1-4.915-6.882,5.925,5.925,0,0,1,5.937-5.878h14.351a.262.262,0,0,1,.262.263l-.9,2.9a.262.262,0,0,1-.262.262H270.257a2.431,2.431,0,0,0-2.438,2.474,3.95,3.95,0,0,0,2.648,3.636l.068.025,9.98,3.942a7.384,7.384,0,0,1,4.933,6.888,5.926,5.926,0,0,1-5.938,5.872" transform="translate(47.55 1.184)" fill="#0022e4"/>
    </g>
  </g>
</svg>
