<svg xmlns="http://www.w3.org/2000/svg" xmlns:xlink="http://www.w3.org/1999/xlink" width="428.568" height="54.075" viewBox="0 0 428.568 54.075">
  <defs>
    <clipPath id="clip-path">
      <rect id="Rectangle_120" data-name="Rectangle 120" width="428.568" height="54.075" fill="none"/>
    </clipPath>
  </defs>
  <g id="Group_388" data-name="Group 388" transform="translate(0 0)">
    <g id="Group_113" data-name="Group 113" transform="translate(0 0)" clip-path="url(#clip-path)">
      <path id="Path_273" data-name="Path 273" d="M16.087,30.146a2.225,2.225,0,0,0,2.3,2.395,2.274,2.274,0,0,0,2.351-2.395,8.635,8.635,0,0,0-1.748-5.1.725.725,0,0,0-1.159,0,8.635,8.635,0,0,0-1.748,5.1" transform="translate(8.34 12.833)" fill="#0022e4"/>
      <path id="Path_274" data-name="Path 274" d="M17.748,29.836a17.425,17.425,0,0,1,8.341,2.129,1.367,1.367,0,0,0,1.332,0,17.419,17.419,0,0,1,8.339-2.129A14.642,14.642,0,0,1,49.744,40.2a.468.468,0,0,0,.856.094,27.039,27.039,0,1,0-47.487-.667.468.468,0,0,0,.858-.059,14.639,14.639,0,0,1,13.775-9.736M28.231,16.841A9.352,9.352,0,0,1,44.5,11.677a1.779,1.779,0,0,1-1.321,2.967h-.121a1.735,1.735,0,0,1-1.279-.577,5.735,5.735,0,1,0-4.244,9.587c.176,0,.351-.011.524-.026.052,0,.1-.011.152-.017.131-.017.261-.036.39-.061.044-.008.088-.015.132-.024.169-.036.336-.077.5-.129l.03-.011c.158-.049.311-.106.463-.169l.084-.036c.156-.067.308-.14.457-.22a5.607,5.607,0,0,0,2.191-2.129.431.431,0,0,0-.371-.651H39.348a1.814,1.814,0,0,1-1.783-2.152,1.97,1.97,0,0,1,1.871-1.474h6.113A1.349,1.349,0,0,1,46.9,17.9v.014a9.373,9.373,0,0,1-.421,2.777l0,.009c-.024.077-.058.152-.084.228a9.384,9.384,0,0,1-1.09,2.209l-.012.018a9.448,9.448,0,0,1-2.507,2.508l-.043.029c-.222.149-.451.287-.686.418-.035.018-.068.038-.1.056-.246.132-.5.255-.756.364l-.024.012q-.4.166-.814.3c-.059.018-.12.033-.179.052-.21.061-.421.115-.635.162q-.123.027-.246.05c-.19.035-.378.07-.569.09-.109.012-.217.029-.326.039-.285.026-.574.044-.867.044a9.374,9.374,0,0,1-9.3-10.441M17.459,8.553A9.322,9.322,0,0,1,24.535,11.8a1.733,1.733,0,0,1-1.342,2.84H23a1.763,1.763,0,0,1-1.3-.589,5.739,5.739,0,1,0-.387,8.109,1.879,1.879,0,0,1,1.318-.49,1.815,1.815,0,0,1,1.143,3.154A9.361,9.361,0,1,1,17.459,8.553" transform="translate(0 0)" fill="#0022e4"/>
      <path id="Path_275" data-name="Path 275" d="M33.478,22.386a13.418,13.418,0,0,0-5.187.911.528.528,0,0,0-.234.809,12.5,12.5,0,0,1,2.692,7.782,6.394,6.394,0,0,1-6.505,6.549,6.3,6.3,0,0,1-6.458-6.549,12.5,12.5,0,0,1,2.692-7.782.528.528,0,0,0-.235-.809,13.446,13.446,0,0,0-5.187-.911A10.441,10.441,0,0,0,4.8,32.849a2.572,2.572,0,0,0,.771,1.828,27.023,27.023,0,0,0,36.938.967,3.732,3.732,0,0,0,1.23-2.8A10.441,10.441,0,0,0,33.478,22.386" transform="translate(2.487 11.605)" fill="#0022e4"/>
      <path id="Path_276" data-name="Path 276" d="M45.122,23.736v-.094A16.621,16.621,0,0,1,62.06,6.656,17.121,17.121,0,0,1,74.916,11.77l-3.707,4.27c-2.627-2.439-5.442-4.082-9.2-4.082-6.288,0-10.839,5.161-10.839,11.59v.093c0,6.429,4.551,11.684,10.839,11.684,4.036,0,6.616-1.643,9.431-4.27l3.707,3.754c-3.426,3.565-7.179,5.817-13.326,5.817a16.518,16.518,0,0,1-16.7-16.891" transform="translate(23.394 3.451)" fill="#261f1c"/>
      <path id="Path_277" data-name="Path 277" d="M45.122,23.736v-.094A16.621,16.621,0,0,1,62.06,6.656,17.121,17.121,0,0,1,74.916,11.77l-3.707,4.27c-2.627-2.439-5.442-4.082-9.2-4.082-6.288,0-10.839,5.161-10.839,11.59v.093c0,6.429,4.551,11.684,10.839,11.684,4.036,0,6.616-1.643,9.431-4.27l3.707,3.754c-3.426,3.565-7.179,5.817-13.326,5.817A16.518,16.518,0,0,1,45.122,23.736Z" transform="translate(23.394 3.451)" fill="none" stroke="#261f1c" stroke-linecap="round" stroke-linejoin="round" stroke-width="0.365"/>
      <path id="Path_278" data-name="Path 278" d="M82.1,6.872h5.348L101.9,39.951H95.8l-3.33-7.929H76.938l-3.377,7.929H67.648Zm8.257,20.036L84.68,13.77,79.05,26.908Z" transform="translate(35.072 3.563)" fill="#261f1c"/>
      <path id="Path_279" data-name="Path 279" d="M82.1,6.872h5.348L101.9,39.951H95.8l-3.33-7.929H76.938l-3.377,7.929H67.648Zm8.257,20.036L84.68,13.77,79.05,26.908Z" transform="translate(35.072 3.563)" fill="none" stroke="#261f1c" stroke-linecap="round" stroke-linejoin="round" stroke-width="0.365"/>
      <path id="Path_280" data-name="Path 280" d="M94.533,7.027h6.147l9.994,15.531,9.993-15.531h6.148V39.871h-5.772V16.318L110.674,31.8h-.188L100.21,16.411v23.46H94.533Z" transform="translate(49.011 3.643)" fill="#261f1c"/>
      <path id="Path_281" data-name="Path 281" d="M94.533,7.027h6.147l9.994,15.531,9.993-15.531h6.148V39.871h-5.772V16.318L110.674,31.8h-.188L100.21,16.411v23.46H94.533Z" transform="translate(49.011 3.643)" fill="none" stroke="#261f1c" stroke-linecap="round" stroke-linejoin="round" stroke-width="0.365"/>
      <path id="Path_282" data-name="Path 282" d="M132.079,12.376H121.664V7.026h26.65v5.35H137.9v27.5h-5.819Z" transform="translate(63.077 3.643)" fill="#261f1c"/>
      <path id="Path_283" data-name="Path 283" d="M132.079,12.376H121.664V7.026h26.65v5.35H137.9v27.5h-5.819Z" transform="translate(63.077 3.643)" fill="none" stroke="#261f1c" stroke-linecap="round" stroke-linejoin="round" stroke-width="0.365"/>
      <path id="Path_284" data-name="Path 284" d="M143.851,7.027H168.2v5.161H149.621v8.54H166.09v5.161H149.621v8.821h18.815v5.161H143.851Z" transform="translate(74.58 3.643)" fill="#261f1c"/>
      <path id="Path_285" data-name="Path 285" d="M143.851,7.027H168.2v5.161H149.621v8.54H166.09v5.161H149.621v8.821h18.815v5.161H143.851Z" transform="translate(74.58 3.643)" fill="none" stroke="#261f1c" stroke-linecap="round" stroke-linejoin="round" stroke-width="0.365"/>
      <path id="Path_286" data-name="Path 286" d="M164.215,23.736v-.094A16.62,16.62,0,0,1,181.152,6.656a17.122,17.122,0,0,1,12.857,5.114L190.3,16.04c-2.627-2.439-5.444-4.082-9.2-4.082-6.288,0-10.839,5.161-10.839,11.59v.093c0,6.429,4.551,11.684,10.839,11.684,4.036,0,6.616-1.643,9.431-4.27l3.707,3.754c-3.426,3.565-7.179,5.817-13.326,5.817a16.517,16.517,0,0,1-16.7-16.891" transform="translate(85.138 3.451)" fill="#261f1c"/>
      <path id="Path_287" data-name="Path 287" d="M164.215,23.736v-.094A16.62,16.62,0,0,1,181.152,6.656a17.122,17.122,0,0,1,12.857,5.114L190.3,16.04c-2.627-2.439-5.444-4.082-9.2-4.082-6.288,0-10.839,5.161-10.839,11.59v.093c0,6.429,4.551,11.684,10.839,11.684,4.036,0,6.616-1.643,9.431-4.27l3.707,3.754c-3.426,3.565-7.179,5.817-13.326,5.817A16.517,16.517,0,0,1,164.215,23.736Z" transform="translate(85.138 3.451)" fill="none" stroke="#261f1c" stroke-linecap="round" stroke-linejoin="round" stroke-width="0.365"/>
      <path id="Path_288" data-name="Path 288" d="M188.6,7.027h5.77V20.681h15.673V7.027h5.77V39.871h-5.77V26.03H194.365V39.871H188.6Z" transform="translate(97.777 3.643)" fill="#261f1c"/>
      <path id="Path_289" data-name="Path 289" d="M188.6,7.027h5.77V20.681h15.673V7.027h5.77V39.871h-5.77V26.03H194.365V39.871H188.6Z" transform="translate(97.777 3.643)" fill="none" stroke="#261f1c" stroke-linecap="round" stroke-linejoin="round" stroke-width="0.365"/>
      <path id="Path_290" data-name="Path 290" d="M238.176,40.385H225.632a10.724,10.724,0,0,1-10.723-10.723V17.307A10.722,10.722,0,0,1,225.631,6.584h17.476a.338.338,0,0,1,.337.339l-1.153,3.734a.337.337,0,0,1-.337.337H225.632a6.315,6.315,0,0,0-6.315,6.314V29.661a6.315,6.315,0,0,0,6.315,6.315h12.544a1.467,1.467,0,0,0,1.467-1.468V26.473a.784.784,0,0,0-.784-.784h-9.507a.338.338,0,0,1-.337-.339V21.618a.338.338,0,0,1,.337-.339h9.508a5.192,5.192,0,0,1,5.192,5.192v8.037a5.876,5.876,0,0,1-5.876,5.876" transform="translate(111.42 3.413)" fill="#0022e4"/>
      <path id="Path_291" data-name="Path 291" d="M273.459,40.456h-3.734a.337.337,0,0,1-.337-.337V11.445a.453.453,0,0,0-.873-.17L261.2,29.388a6.316,6.316,0,0,1-5.5,4.033,6.094,6.094,0,0,1-5.936-3.822l-7.395-18.325a.449.449,0,0,0-.419-.282.454.454,0,0,0-.454.452V40.119a.337.337,0,0,1-.337.337h-3.734a.338.338,0,0,1-.337-.337V11.633A4.986,4.986,0,0,1,241.593,6.6a4.844,4.844,0,0,1,4.876,3.028l7.395,18.323a1.709,1.709,0,0,0,3.169,0l7.33-18.159A5.015,5.015,0,0,1,268.536,6.6a4.865,4.865,0,0,1,5.26,4.844V40.119a.337.337,0,0,1-.337.337" transform="translate(122.924 3.413)" fill="#0022e4"/>
      <path id="Path_292" data-name="Path 292" d="M283.849,40.385H265.1a.337.337,0,0,1-.337-.337l1.152-3.734a.337.337,0,0,1,.337-.337h17.695a3.128,3.128,0,0,0,3.137-3.183,5.1,5.1,0,0,0-3.429-4.683l-.088-.032-12.846-5.073a9.491,9.491,0,0,1-6.326-8.857,7.625,7.625,0,0,1,7.641-7.565H290.5a.338.338,0,0,1,.337.339l-1.152,3.734a.337.337,0,0,1-.337.337H271.94a3.128,3.128,0,0,0-3.137,3.184,5.084,5.084,0,0,0,3.407,4.68l.088.032,12.845,5.073a9.5,9.5,0,0,1,6.349,8.865,7.627,7.627,0,0,1-7.642,7.557" transform="translate(137.075 3.413)" fill="#0022e4"/>
    </g>
  </g>
</svg>
