<svg xmlns="http://www.w3.org/2000/svg" width="395" height="100" viewBox="0 0 395 100">
  <g id="Group_1232" data-name="Group 1232" transform="translate(-390 -1722)">
    <path id="Path_845" data-name="Path 845" d="M0,0H395V100H0Z" transform="translate(390 1722)" fill="#00b392"/>
    <g id="Group_1230" data-name="Group 1230" transform="translate(2 179.019)">
      <g id="Group_776" data-name="Group 776" transform="translate(495.712 1570.853)">
        <g id="Group_774" data-name="Group 774">
          <path id="Path_813" data-name="Path 813" d="M112.271,13.284v9.624h-2.046V15.179a9.361,9.361,0,0,1-1.819,1.743l-.606-2.2a19.615,19.615,0,0,0,2.576-2.273,15.813,15.813,0,0,0,1.97-2.728l1.591.985A13.57,13.57,0,0,1,112.271,13.284Zm-3.334-2.576-.758-1.743A22.381,22.381,0,0,0,110.6,7.222,17.152,17.152,0,0,0,112.5,5.1l1.591.909a14.951,14.951,0,0,1-2.273,2.576A21.792,21.792,0,0,1,108.937,10.708Zm17.278.3v1.819h-3.031v7.047a4.011,4.011,0,0,1-.455,2.425,3.723,3.723,0,0,1-2.349.455c-.53,0-1.516-.076-2.955-.152l-.076-1.819c1.212.076,2.122.076,2.728.076a1.544,1.544,0,0,0,.834-.152,1.693,1.693,0,0,0,.152-.909V12.829h-6.669V11.011h11.822Zm-11.14-3.259V5.934h10.23V7.752Z" transform="translate(-107.8 -4.873)" fill="#fff"/>
          <path id="Path_814" data-name="Path 814" d="M139.555,19.625a3.28,3.28,0,0,1,.379-.076.812.812,0,0,0,.455-.152c.152-.076.3-.076.379-.152V8.183H136.9V6.364h8.79V8.183h-2.88v3.941h2.122A31.161,31.161,0,0,0,147.512,5l1.97.227c-.152.834-.379,1.667-.606,2.576h6.365V9.623h-1.212c-.3,3.713-1.137,6.593-2.5,8.487a12.747,12.747,0,0,0,3.713,2.955l-.985,1.591a13.33,13.33,0,0,1-4.016-3.183,18.346,18.346,0,0,1-5.532,3.183l-1.061-1.591a14.982,14.982,0,0,0,5.456-3.107,16.723,16.723,0,0,1-1.97-5.608q-.682,1.364-1.364,2.5l-1.137-.909H142.89v4.774c1.212-.379,2.122-.758,2.88-1.061l.152,1.819a66.349,66.349,0,0,1-9.169,2.728l-.152-1.819a3.409,3.409,0,0,0,.606-.152c.227-.076.455-.076.53-.152V10.3h1.819v9.321Zm10.836-3.41a15.032,15.032,0,0,0,1.667-6.669H148.27c-.227.53-.379,1.061-.53,1.44l1.212-.152A17.731,17.731,0,0,0,150.392,16.215Z" transform="translate(-114.776 -4.848)" fill="#fff"/>
          <path id="Path_815" data-name="Path 815" d="M176.079,14.2h7.729v1.44H166.227V14.2h7.729v-.53h-6.669V12.3h6.669v-.53h-6.062V10.483h6.062V9.877H166V8.21h7.881V7.6h-6.062V6.088h6.062V4.8H176V6.088h5.987V8.21h1.97V9.877h-1.97v1.894H176v.53h6.669v1.364H176v.53Zm5.911,1.97v6.669h-2.122v-.758h-9.851v.758h-2.122V16.167Zm-11.973,2.349h9.851v-.758h-9.851Zm0,1.288v.834h9.851V19.8Zm6.062-12.2V8.21h3.941V7.6Zm0,2.273v.606h3.941V9.877Z" transform="translate(-121.897 -4.8)" fill="#fff"/>
          <path id="Path_816" data-name="Path 816" d="M205.024,20.45h6.441v1.819h-15.08V20.45h6.441V12.644H195.4V10.826h7.426V5.9h2.122v4.926h7.426v1.819h-7.426V20.45Z" transform="translate(-129.017 -5.066)" fill="#fff"/>
          <path id="Path_817" data-name="Path 817" d="M241.608,15.836v1.591H240.32v3.486h-2.046v-.985H233.8v.455c0,1.061-.152,1.743-.455,1.97a4.976,4.976,0,0,1-2.425.379c-.53,0-1.516,0-2.88-.076l-.076-1.667c1.516.076,2.425.076,2.728.076.455,0,.682,0,.758-.076s.076-.227.076-.455v-.606h-6.972V18.413h6.972V17.352H223.8V15.761h7.729v-.909h-6.972V13.336h6.972v-.758h-6.214V8.637h6.214V7.88h-7.578V6.212h7.578V5H233.8V6.212h7.578V7.8H233.8v.758h6.214V12.5H233.8v.758h6.517v2.576Zm-14.171-4.7h4.168V10.077h-4.168Zm6.441,0h4.168V10.077h-4.168Zm0,4.7h4.471v-.985h-4.471Zm0,2.652h4.471V17.428h-4.471Z" transform="translate(-135.896 -4.848)" fill="#fff"/>
          <path id="Path_818" data-name="Path 818" d="M261.066,11.365l-1.44-1.061A14.866,14.866,0,0,0,262.658,5l1.819.227a9.942,9.942,0,0,1-.379,1.137h6.365V8.031h-.909a8.885,8.885,0,0,1-2.2,3.562,15.243,15.243,0,0,0,3.334,1.364l-.682,1.819a15.63,15.63,0,0,1-4.244-1.894,9.053,9.053,0,0,1-1.667.909h1.743a13.877,13.877,0,0,1-.152,1.591h4.092c0,1.667,0,2.955-.076,3.865a6.845,6.845,0,0,1-.455,2.122c-.227.53-.455.834-.758.909a3.02,3.02,0,0,1-1.288.227c-.606,0-1.516-.076-2.652-.152l-.076-1.743c.909.076,1.667.152,2.122.152a.926.926,0,0,0,.682-.227,2.587,2.587,0,0,0,.379-.985,9.726,9.726,0,0,0,.152-2.349h-2.5a8.8,8.8,0,0,1-5.759,5.683l-1.061-1.516a10.3,10.3,0,0,0,3.031-1.743,5.8,5.8,0,0,0,1.667-2.349h-2.88V15.533h3.334c.076-.455.076-.909.152-1.44a21.422,21.422,0,0,1-2.349.834l-.455-1.212A19.66,19.66,0,0,1,259.1,17.5l-1.212-.758v3.107a10.777,10.777,0,0,1-.152,1.97c-.076.379-.227.682-.455.758a2.441,2.441,0,0,1-1.212.152c-.3,0-1.061,0-2.2-.076l-.152-1.743c.909.076,1.44.076,1.591.076.3,0,.455-.076.455-.152a2.633,2.633,0,0,0,.076-.985V16.67a19.19,19.19,0,0,1-2.652,3.865L252.2,18.64a20.328,20.328,0,0,0,3.334-5.077H252.5V11.744h3.259c-.909-1.061-1.743-1.894-2.425-2.576l1.212-1.137,1.97,1.97a26.342,26.342,0,0,0,1.97-2.273h-5.532V5.909h7.729V7.652a31.142,31.142,0,0,1-2.955,3.637l.379.379h2.8v1.44a14.536,14.536,0,0,0,3.259-1.364,10.084,10.084,0,0,1-1.743-2.273A9.363,9.363,0,0,1,261.066,11.365Zm-3.183,4.623a19.829,19.829,0,0,0,1.288-2.5h-1.288Zm7.957-5.38a6.487,6.487,0,0,0,1.743-2.5h-3.637A8.406,8.406,0,0,0,265.84,10.608Z" transform="translate(-142.775 -4.848)" fill="#fff"/>
          <path id="Path_819" data-name="Path 819" d="M282.688,9.592h7.351v6.972h-5.38A15.271,15.271,0,0,1,283.219,23L281.4,22.02a14.17,14.17,0,0,0,.985-3.183,35.832,35.832,0,0,0,.3-4.774ZM281.855,8V6.182h8.639V8Zm2.88,6.82h3.486V11.259h-3.486Zm8.563-3.486h6.062v1.819h-1.895v9.7h-1.97v-9.7h-2.273a22.365,22.365,0,0,1-1.061,5.532,12.91,12.91,0,0,1-2.349,3.865L288.3,21.338a12.14,12.14,0,0,0,2.5-5.153,45.617,45.617,0,0,0,.682-9.321A26.366,26.366,0,0,0,298.526,5.5l.53,1.819a28.533,28.533,0,0,1-5.608,1.212C293.373,9.744,293.373,10.729,293.3,11.335Z" transform="translate(-149.847 -4.97)" fill="#fff"/>
        </g>
        <g id="Group_775" data-name="Group 775" transform="translate(0.834 24.174)">
          <path id="Path_820" data-name="Path 820" d="M116.478,36.852l2.576-.152.3,3.941,7.805-.3.076,2.2-7.729.227.455,5.532,8.108-.3.076,2.2-7.957.379.53,6.062-2.576.152-.53-6.214-8.639.3-.076-2.2,8.487-.3-.455-5.456-6.972.227-.076-2.2,6.9-.227Z" transform="translate(-108.9 -36.7)" fill="#fff"/>
          <path id="Path_821" data-name="Path 821" d="M148.289,42.355l2.425-.455.682,3.713,9.245-1.894.455,2.2a12.408,12.408,0,0,1-1.516,3.789A11.743,11.743,0,0,1,157,52.812L155.185,51.3a11.242,11.242,0,0,0,3.259-4.85L151.7,47.811l1.667,9.472-2.425.455-1.667-9.4-4.319.909-.455-2.2,4.4-.909Z" transform="translate(-117.523 -37.959)" fill="#fff"/>
          <path id="Path_822" data-name="Path 822" d="M183.5,37.5l2.5.455a110.55,110.55,0,0,1-4.471,14.928c3.941-.3,7.578-.682,10.912-1.212-1.137-2.349-2.046-4.244-2.8-5.683l2.273-1.061c1.743,3.486,3.41,6.9,4.85,10.154l-2.349.985A8.667,8.667,0,0,0,193.957,55c-.227-.53-.379-.909-.53-1.212a161.6,161.6,0,0,1-17.05,1.667l-.076-2.2c.53,0,1.288-.076,2.425-.152A110.159,110.159,0,0,0,183.5,37.5Z" transform="translate(-125.225 -36.894)" fill="#fff"/>
          <path id="Path_823" data-name="Path 823" d="M210.576,44.69h19.93v2.2h-7.881a10.126,10.126,0,0,1-1.97,6.517,10.451,10.451,0,0,1-6.138,3.334l-.758-2.2a8.866,8.866,0,0,0,4.774-2.576,8.353,8.353,0,0,0,1.44-5H210.5V44.69Zm2.652-4.092V38.4h14.55v2.2Z" transform="translate(-133.508 -37.112)" fill="#fff"/>
          <path id="Path_824" data-name="Path 824" d="M247.6,44.261l2.2-.455c.53,1.894,1.137,4.016,1.667,6.214l-2.273.53C248.737,48.429,248.206,46.383,247.6,44.261ZM260.558,43.2l2.349.152c-.076,4.774-1.061,8.26-2.88,10.382s-4.85,3.486-9.169,3.941l-.455-2.122a26.1,26.1,0,0,0,4.774-1.137,7.475,7.475,0,0,0,3.031-2.2,8.719,8.719,0,0,0,1.743-3.562A25.923,25.923,0,0,0,260.558,43.2Zm-7.881.455,2.273-.455c.53,1.819,1.061,3.941,1.667,6.441l-2.273.455C253.89,48.05,253.359,45.928,252.677,43.655Z" transform="translate(-142.494 -38.274)" fill="#fff"/>
          <path id="Path_825" data-name="Path 825" d="M294.329,41.347h-8.487a18.048,18.048,0,0,1-4.7,6.972L279.4,46.8a19.835,19.835,0,0,0,3.41-4.547A17.361,17.361,0,0,0,284.4,36.8l2.425.152a11.127,11.127,0,0,1-.379,2.2h10.533V39.6c0,5.3-1.213,9.245-3.713,11.9-2.5,2.576-6.441,4.092-11.9,4.547l-.379-2.2c4.547-.455,7.881-1.591,9.927-3.486C293.04,48.394,294.177,45.439,294.329,41.347Z" transform="translate(-150.196 -36.724)" fill="#fff"/>
        </g>
      </g>
      <g id="Group_777" data-name="Group 777" transform="translate(417.659 1582.672)">
        <path id="Path_826" data-name="Path 826" d="M31.171,22.937H33.9a1.552,1.552,0,0,0,1.667-1.667V11.722A1.989,1.989,0,0,0,33.445,9.6H6.77A1.831,1.831,0,0,0,4.8,11.57V44.458a1.8,1.8,0,0,0,1.97,1.97H33.9a1.532,1.532,0,0,0,1.667-1.591V42.185A1.591,1.591,0,0,0,33.9,40.518H10.862V15.511H29.58v5.835A1.511,1.511,0,0,0,31.171,22.937Z" transform="translate(-4.8 -17.781)" fill="#fff"/>
        <path id="Path_827" data-name="Path 827" d="M83.236,9.6H54.667A1.612,1.612,0,0,0,53,11.343v2.5a1.612,1.612,0,0,0,1.667,1.743H65.731V45.065A1.516,1.516,0,0,0,67.4,46.732H70.05a1.591,1.591,0,0,0,1.667-1.667V15.587H83.16a1.574,1.574,0,0,0,1.667-1.743v-2.5A1.519,1.519,0,0,0,83.236,9.6Z" transform="translate(-16.475 -17.781)" fill="#fff"/>
      </g>
    </g>
    <g id="Group_1231" data-name="Group 1231" transform="translate(-5 175)">
      <path id="Path_842" data-name="Path 842" d="M5,0H15.487L24.78,12.362,15.487,24.44H5l9.292-12.067Z" transform="translate(702.608 1594.688)" fill="#fff"/>
      <path id="Path_843" data-name="Path 843" d="M5,0H15.487L24.78,12.362,15.487,24.44H5l9.292-12.067Z" transform="translate(722.389 1594.688)" fill="#fff"/>
      <path id="Path_844" data-name="Path 844" d="M5,0H15.487L24.78,12.362,15.487,24.44H5l9.292-12.067Z" transform="translate(742.168 1594.688)" fill="#fff"/>
      <text id="こちらから" transform="translate(703 1586)" fill="#fff" font-size="12" font-family="YuGothicUI-Bold, Yu Gothic UI" font-weight="700"><tspan x="0" y="0">こちらから</tspan></text>
    </g>
    <g id="Rectangle_489" data-name="Rectangle 489" transform="translate(395 1727)" fill="none" stroke="#fff" stroke-width="1">
      <rect width="385" height="90" stroke="none"/>
      <rect x="0.5" y="0.5" width="384" height="89" fill="none"/>
    </g>
  </g>
</svg>
