<svg id="Group_157" data-name="Group 157" xmlns="http://www.w3.org/2000/svg" xmlns:xlink="http://www.w3.org/1999/xlink" width="141.02" height="147.923" viewBox="0 0 141.02 147.923">
  <defs>
    <clipPath id="clip-path">
      <rect id="Rectangle_152" data-name="Rectangle 152" width="141.02" height="147.923" fill="none"/>
    </clipPath>
  </defs>
  <g id="Group_156" data-name="Group 156" clip-path="url(#clip-path)">
    <path id="Path_327" data-name="Path 327" d="M85.476,69.049a.89.89,0,0,1,.714-.771,21.812,21.812,0,0,0,8.835-4.4,1.165,1.165,0,0,1-.017-.164l-.051-2.094a12.828,12.828,0,0,1-3.867,2.7,13.97,13.97,0,0,1-10.9.343,15.157,15.157,0,0,1-5.239-3.711v2.012a1.043,1.043,0,0,1-.073.393,23.04,23.04,0,0,0,9.495,4.914,1.089,1.089,0,0,1,.735.882h.357a.884.884,0,0,1,.016-.106" transform="translate(-10.696 -8.708)" fill="#fff"/>
    <path id="Path_328" data-name="Path 328" d="M86.715,70.527h-.357a.986.986,0,0,1-.128.609l-2.571,4.658,1.682,2.861a18.576,18.576,0,0,1,2.393,0l1.683-2.861-2.571-4.658a.982.982,0,0,1-.13-.609" transform="translate(-11.951 -10.075)" fill="#d0d0d0"/>
    <path id="Path_329" data-name="Path 329" d="M78.526,102.109a.8.8,0,0,1-.3-.782,184.594,184.594,0,0,1,3.649-20.719,1.1,1.1,0,0,1,.078-.224l-1.238-2.106-.759,1.371a1.023,1.023,0,0,1-1.388.364l-5.324-3.832a1.053,1.053,0,0,1-.37-1.252,11.27,11.27,0,0,0-1.794-1.45l5.571,27.338a1.06,1.06,0,0,1-.957,1.262c.121.434.262.857.418,1.273h2.121a9.077,9.077,0,0,1,.289-1.243" transform="translate(-10.155 -10.497)" fill="#fff"/>
    <path id="Path_330" data-name="Path 330" d="M90.41,102.59a179.737,179.737,0,0,0-3.555-20.084,2.335,2.335,0,0,0-1.85,0,179.933,179.933,0,0,0-3.555,20.084,1.126,1.126,0,0,1-1.273.956,1.141,1.141,0,0,1-.459-.174,9.1,9.1,0,0,0-.291,1.244H92.262c-.116-.37-.231-.747-.343-1.121a1.129,1.129,0,0,1-1.45-.669,1.11,1.11,0,0,1-.059-.235" transform="translate(-11.347 -11.759)" fill="#d0d0d0"/>
    <path id="Path_331" data-name="Path 331" d="M67.992,29.436c.6-.343,1.164-.762,1.747-1.177a1.114,1.114,0,0,1,.655-1.87c2.409-.31,4.055-2.871,5.229-4.748,1.137-1.823,1.865-3.943,3.1-5.689a7.843,7.843,0,0,1,10.587-2.192.984.984,0,0,1,.44,1.077,6.039,6.039,0,0,0,1.183.151.862.862,0,0,1,1.2-.715c.054.021.106.044.159.066l.007-.01-.007.01c4.841,2.065,1.238,9.533,5.694,11.8a.99.99,0,0,1-.208,1.81,2.457,2.457,0,0,0,1.6.988,1.052,1.052,0,0,1,.969-1.016,2.992,2.992,0,0,1,.372-.005q.068-.351.108-.708c-.74.409-1.886-.118-1.489-1.071a20.589,20.589,0,0,0,.921-10.023c-.352-2.863-2.039-7.873-5.589-7.869a1.02,1.02,0,0,1-.818-1.6c-.2-.15-.4-.3-.6-.446a1.044,1.044,0,0,1-1.907.638A10.141,10.141,0,0,0,84.3,2.516a13.116,13.116,0,0,0-8.612,1.911A22.307,22.307,0,0,0,69.231,10.7c-1.641,2.249-3.381,4.371-6.189,5.114h-.015a3.456,3.456,0,0,0,1.714,1.011c.063-.16.128-.32.2-.476.461-.987,1.752-.434,1.851.459.048-.015.1-.031.141-.049q-.069.026-.141.049a1.045,1.045,0,0,1-.1.565c-1.2,2.56-.343,6.364,1.015,8.716a1.009,1.009,0,0,1-.754,1.5c.04.107.079.215.117.325h.036a1.093,1.093,0,0,1,.97,1.2,1.106,1.106,0,0,1-.084.317" transform="translate(-9.004 -0.345)" fill="#d0d0d0"/>
    <path id="Path_332" data-name="Path 332" d="M100.657,31.972a1.124,1.124,0,0,1-.246-.006c-.029.072-.059.144-.086.215.03-.071.06-.143.086-.215a.885.885,0,0,1-.724-1.007,2.457,2.457,0,0,1-1.6-.988.99.99,0,0,1-.815-.058c-2.323-1.179-3.078-3.639-3.429-6.047-.227-1.572-.111-4.9-1.941-5.61a1.071,1.071,0,0,1-.66-1.242,6.039,6.039,0,0,1-1.183-.151.952.952,0,0,1-1.464.675,5.649,5.649,0,0,0-5.859-.238,7.959,7.959,0,0,0-3.105,3.851c-1.827,3.686-4.371,8.707-8.924,9.293a.837.837,0,0,1-.655-.159c-.583.415-1.151.836-1.747,1.177a.828.828,0,0,1-.891.514,1.274,1.274,0,0,0-.243,0q-.194.063-.4.111c-1.022.471-1.571,2.229-1.533,3.189a6.382,6.382,0,0,0,1.011,2.934c.295.5,1.126,1.959,1.873,2.118-.04-.3-.08-.608-.12-.912-.171-1.293,1.861-1.276,2.029,0,.476,3.6.875,7.359,2.667,10.587,1.739,3.132,4.67,5.978,8.2,6.9a12.131,12.131,0,0,0,9.686-1.714,11.494,11.494,0,0,0,2.964-2.926.859.859,0,0,1,.291-.429c2.751-4.226,3.2-10.071,3.912-14.835.193-1.286,2.148-.738,1.957.539-.137.917-.267,1.84-.4,2.763a1.05,1.05,0,0,1,.362.033c.838.218,1.886-1.669,2.219-2.255a6.255,6.255,0,0,0,.929-2.8c.048-1.146-.74-3.426-2.168-3.306m-23.117,3.4a1.015,1.015,0,1,1,.985-.985,1.014,1.014,0,0,1-.985.985m3.271,6.835a27.424,27.424,0,0,0,2.062-5.053c.424-1.229,2.384-.7,1.957.539a38.208,38.208,0,0,1-1.814,4.7c.5.348,1,.7,1.511,1.029,1.1.7.086,2.453-1.024,1.752-.793-.5-1.535-1.076-2.329-1.578a1.034,1.034,0,0,1-.367-1.386Zm6.086,7.33a5.262,5.262,0,0,1-6.262,0c-1.062-.746-.046-2.5,1.024-1.752a3.342,3.342,0,0,0,4.214,0c1.092-.727,2.107,1.029,1.024,1.752m3.086-14.164a1.015,1.015,0,1,1,.971-.972,1.014,1.014,0,0,1-.971.972Z" transform="translate(-9.32 -2.371)" fill="#fff"/>
    <path id="Path_333" data-name="Path 333" d="M67.431,34.54a1.269,1.269,0,0,0-.4.111c.135-.032.266-.069.4-.111" transform="translate(-9.577 -4.934)" fill="#64c8e6"/>
    <path id="Path_334" data-name="Path 334" d="M37.06,109.53c-.117-1.852-.548-3.943.7-5.519s2.936-1.557,4.695-1.557H69.2c-.157-.416-.3-.839-.418-1.273a.864.864,0,0,1-1-.705l0-.017-.857-4.191L61.008,67.21a8.747,8.747,0,0,1-2.378,1.016,1.076,1.076,0,0,1,.032.484L56.531,82.346c-.2,1.286-2.157.738-1.957-.54l2.045-13.089c-.453.1-.907.214-1.356.343a1.12,1.12,0,0,1-.337,1.547,1.093,1.093,0,0,1-.169.089c-5.683,2.261-12.429,4.228-16.171,9.422a35.587,35.587,0,0,0-4.21,8.662q-1.869,5.071-3.583,10.2Q27.334,109.3,24.466,119.8c-.912,3.343-2.184,6.977-1.585,10.481.514,3.012,2.646,5.358,5.069,7.069a48.158,48.158,0,0,0,10.044,4.9,1.115,1.115,0,0,1,.235,1.916c.343.194.7.369,1.047.539l-.9-14.265ZM54.221,85.574a38.4,38.4,0,0,0,7.7-2.329c1.185-.521,2.217,1.228,1.024,1.752a39.475,39.475,0,0,1-6.982,2.271l5.72,11.861c.565,1.172-1.185,2.2-1.752,1.024L53.614,87.065a1.029,1.029,0,0,1,.607-1.488Zm-10.943-.522c.956,4.965,1.465,10,2.421,14.965.246,1.278-1.714,1.821-1.957.539-.956-4.965-1.465-10-2.421-14.965-.246-1.275,1.708-1.817,1.957-.537Zm-6.85,37.311a15.379,15.379,0,0,0-3.857,2.629,20.15,20.15,0,0,0-2.8,3.771c-.686,1.108-2.444.086-1.752-1.024a22.467,22.467,0,0,1,3.118-4.185,17.155,17.155,0,0,1,4.264-2.946c1.162-.6,2.187,1.156,1.029,1.757Z" transform="translate(-3.247 -9.601)" fill="#d0d0d0"/>
    <path id="Path_335" data-name="Path 335" d="M105.232,66.913l-.063.307a1.453,1.453,0,0,0,.228.1,1.453,1.453,0,0,1-.228-.1l-.792,3.885-5.964,29.26a.918.918,0,0,1-1.4.6q-.243.7-.5,1.4h17.362c3.857,0,7.714-.045,11.571,0a4.2,4.2,0,0,1,4.272,4.127,4.329,4.329,0,0,1-.027.548l-.387,6.144q-.724,11.485-1.449,22.978-.2,3.185-.4,6.37a1.048,1.048,0,0,1,.477-.369c4.7-1.872,10.292-3.879,13.411-8.085,2.358-3.179,2.006-6.963,1.114-10.61-.967-3.943-2.116-7.857-3.272-11.751q-3.45-11.629-7.635-23.025c-1.25-3.392-2.628-6.909-5.013-9.686a19.343,19.343,0,0,0-5.449-4,70.029,70.029,0,0,0-9.657-4.4,1.057,1.057,0,0,1-.654-1.286c-.384-.108-.767-.223-1.14-.366l1.994,12.76c.2,1.28-1.755,1.826-1.957.54l-2.131-13.636a1.043,1.043,0,0,1,.257-.883c-.85-.373-1.7-.784-2.552-1.206a1.1,1.1,0,0,1-.012.385m25.619,53.394a15.854,15.854,0,0,1,7.029,7.352c.563,1.173-1.187,2.2-1.752,1.024a14.074,14.074,0,0,0-6.3-6.624c-1.169-.588-.141-2.334,1.023-1.752ZM119.408,99.925c.951-4.959,1.311-10.006,2.262-14.965.246-1.286,2.2-.736,1.957.539-.951,4.959-1.311,10.006-2.262,14.965-.247,1.281-2.2.735-1.957-.539M111.98,85.482a1.028,1.028,0,0,1,.7,1.277,1.062,1.062,0,0,1-.09.213l-6.312,13.089c-.567,1.177-2.314.147-1.752-1.024l5.72-11.861a39.476,39.476,0,0,1-6.982-2.271c-1.194-.525-.16-2.272,1.024-1.752a38.368,38.368,0,0,0,7.7,2.327Z" transform="translate(-13.787 -9.504)" fill="#d0d0d0"/>
    <path id="Path_336" data-name="Path 336" d="M98.971,76.137l-5.326,3.835a1.021,1.021,0,0,1-1.388-.364L91.5,78.237,90.26,80.342a1.1,1.1,0,0,1,.078.224,184.593,184.593,0,0,1,3.649,20.719.791.791,0,0,1-.525.9c.116.375.231.752.343,1.121h1.807q.262-.7.5-1.4a1.015,1.015,0,0,1-.556-1.138l.857-4.191,4.773-23.42c-.61.565-1.246,1.114-1.893,1.617a1.065,1.065,0,0,1-.326,1.356" transform="translate(-12.894 -10.452)" fill="#fff"/>
    <path id="Path_337" data-name="Path 337" d="M102.662,63.641a11.259,11.259,0,0,0-1.377-1.543.991.991,0,0,1-.206,1.011,23.314,23.314,0,0,1-10.925,6.95L92.4,74.114a.906.906,0,0,1,.063.113l1,1.8L97.933,72.8a.869.869,0,0,1,1.35.393c.647-.506,1.286-1.053,1.893-1.617l1.191-5.84a.85.85,0,0,1,.843-.729,7.241,7.241,0,0,0-.548-1.37" transform="translate(-12.879 -8.871)" fill="#fff"/>
    <path id="Path_338" data-name="Path 338" d="M69.567,65.9l.857,4.191.392,1.923a11.27,11.27,0,0,1,1.794,1.45A.886.886,0,0,1,74,72.96l4.478,3.224,1-1.8a.926.926,0,0,1,.065-.117L81.8,70.189a22.688,22.688,0,0,1-10.94-6.925c-.021-.026-.035-.052-.053-.078a24.3,24.3,0,0,1-1.594,2.133.884.884,0,0,1,.357.577" transform="translate(-9.887 -9.027)" fill="#fff"/>
    <path id="Path_339" data-name="Path 339" d="M119.6,111.779c-.72-1.34-2.328-1.084-3.6-1.084H87.834l-.027.063.027-.063H55.8c-3.939,0-7.877-.021-11.816,0a2.272,2.272,0,0,0-2.014.867,3.014,3.014,0,0,0-.322,2.081l.417,6.606q.716,11.344,1.431,22.687.423,6.7.845,13.406a.851.851,0,0,1-.454.857.923.923,0,0,1,.635.915v2.1c0,.808.191,1.44,1.089,1.473.407.015.818,0,1.226,0h68.51a5.45,5.45,0,0,0,.669,0c1.386-.171.9-2.577.9-3.57a.921.921,0,0,1-.881.549h-.12c-2.81.2-5.711,0-8.526,0H45.809a1.015,1.015,0,0,1,0-2.029h.12c2.81-.2,5.711,0,8.526,0h61.579a.96.96,0,0,1,.981.938c0,.028,0,.057,0,.086a.923.923,0,0,1,.537-.465.851.851,0,0,1-.454-.857q.031-.5.063-.993.57-9.045,1.141-18.091l1.322-20.963.165-2.623a3.377,3.377,0,0,0-.183-1.893M83.335,138.056a3.384,3.384,0,0,1-4.219,0c-2.931-2.355-.209-6.957,3.275-5.778a.992.992,0,0,1,.7.936.891.891,0,0,1,1.02.477A3.428,3.428,0,0,1,83.335,138.056Z" transform="translate(-5.941 -15.811)" fill="#ebebeb"/>
    <path id="Path_340" data-name="Path 340" d="M85.441,40.461a27.425,27.425,0,0,1-2.062,5.053,1.033,1.033,0,0,0,.364,1.389c.793.5,1.536,1.076,2.329,1.578,1.107.7,2.126-1.055,1.024-1.752-.514-.327-1.011-.686-1.511-1.029A38.208,38.208,0,0,0,87.4,41c.426-1.237-1.533-1.768-1.958-.542" transform="translate(-11.892 -5.681)" fill="#323232"/>
    <path id="Path_341" data-name="Path 341" d="M83.125,54.7a5.259,5.259,0,0,0,6.262,0c1.082-.72.067-2.478-1.024-1.752a3.342,3.342,0,0,1-4.214,0c-1.071-.753-2.086,1.006-1.024,1.752" transform="translate(-11.811 -7.538)" fill="#323232"/>
    <path id="Path_342" data-name="Path 342" d="M79.42,38.163a1.015,1.015,0,1,0-.985-.985,1.014,1.014,0,0,0,.985.985" transform="translate(-11.205 -5.162)" fill="#323232"/>
    <path id="Path_343" data-name="Path 343" d="M93.938,38.163a1.015,1.015,0,1,0-.985-.985,1.014,1.014,0,0,0,.985.985" transform="translate(-13.279 -5.162)" fill="#323232"/>
    <path id="Path_344" data-name="Path 344" d="M54.932,69.308a11.083,11.083,0,0,0-1.6.582,11.083,11.083,0,0,1,1.6-.582.8.8,0,0,0-1.046-.321C48.531,71.118,42.459,72.96,38.3,77.165a25.524,25.524,0,0,0-5.081,8.389C31.8,89,30.605,92.543,29.4,96.065q-3.759,10.945-6.85,22.1c-.98,3.537-2.267,7.252-2.157,10.971a11.877,11.877,0,0,0,3.925,8.364c3.543,3.347,8.349,5.175,12.81,6.954a.826.826,0,0,0,.771-.041,7.364,7.364,0,0,1-1-.662,7.364,7.364,0,0,0,1,.662,1.114,1.114,0,0,0-.235-1.916,48.034,48.034,0,0,1-10.044-4.9c-2.422-1.714-4.554-4.056-5.069-7.069-.6-3.5.673-7.14,1.585-10.481Q27,109.551,30.458,99.23q1.719-5.124,3.583-10.2a35.572,35.572,0,0,1,4.21-8.662C42,75.174,48.74,73.207,54.422,70.946a1.12,1.12,0,0,0,.509-1.638" transform="translate(-2.912 -9.844)" fill="#323232"/>
    <path id="Path_345" data-name="Path 345" d="M32,132.441a22.468,22.468,0,0,0-3.118,4.185c-.692,1.114,1.064,2.133,1.752,1.024a20.15,20.15,0,0,1,2.8-3.771,15.379,15.379,0,0,1,3.857-2.629c1.16-.6.135-2.353-1.024-1.752A17.164,17.164,0,0,0,32,132.441" transform="translate(-4.103 -18.482)" fill="#323232"/>
    <path id="Path_346" data-name="Path 346" d="M44.417,88.447c.956,4.965,1.465,10,2.421,14.965.247,1.281,2.2.739,1.957-.539-.956-4.965-1.465-10-2.421-14.965-.249-1.281-2.2-.739-1.957.539" transform="translate(-6.342 -12.454)" fill="#323232"/>
    <path id="Path_347" data-name="Path 347" d="M137.013,128.206c-.162-4.107-1.629-8.205-2.737-12.131q-3.529-12.468-7.9-24.676a56.861,56.861,0,0,0-4.61-10.758,17.657,17.657,0,0,0-5.731-5.792,63.686,63.686,0,0,0-12.251-5.859.869.869,0,0,0-1.193.672,10.247,10.247,0,0,1,2.338.838,10.247,10.247,0,0,0-2.338-.838,1.057,1.057,0,0,0,.654,1.286,70.03,70.03,0,0,1,9.657,4.4,19.343,19.343,0,0,1,5.449,4c2.385,2.775,3.763,6.293,5.013,9.686q4.2,11.381,7.635,23.025c1.155,3.894,2.3,7.805,3.272,11.751.893,3.646,1.245,7.43-1.114,10.61-3.119,4.206-8.714,6.213-13.411,8.085a1.048,1.048,0,0,0-.477.369l.4-6.37q.724-11.485,1.449-22.978l.387-6.144a4.2,4.2,0,0,0-4.245-4.675c-3.857-.045-7.714,0-11.571,0H88.329c-.257.676-.526,1.353-.825,2.029H115.67c1.273,0,2.881-.257,3.6,1.084a3.375,3.375,0,0,1,.187,1.892l-.165,2.623-1.322,20.964q-.571,9.045-1.141,18.091-.032.5-.063.993a.851.851,0,0,0,.454.857.923.923,0,0,0-.537.465.96.96,0,0,0-.894-1.022c-.028,0-.057,0-.086,0H54.122c-2.815,0-5.716-.2-8.526,0h-.12a1.015,1.015,0,0,0,0,2.029H107.06c2.815,0,5.716.2,8.526,0h.12a.921.921,0,0,0,.881-.549c0,.993.489,3.4-.9,3.57a5.456,5.456,0,0,1-.669,0H46.506c-.407,0-.818.015-1.226,0-.9-.033-1.089-.664-1.089-1.473v-2.1a.923.923,0,0,0-.635-.915.851.851,0,0,0,.454-.857q-.423-6.7-.845-13.406-.716-11.344-1.431-22.687l-.417-6.606a3.014,3.014,0,0,1,.322-2.081,2.272,2.272,0,0,1,2.014-.867c3.939-.021,7.877,0,11.816,0H87.5c.3-.676.571-1.353.825-2.029H86.523c.115.369.231.732.343,1.077-.116-.343-.231-.709-.343-1.077H73.688a3.151,3.151,0,0,0-.009.875,3.151,3.151,0,0,1,.009-.875H71.566c.214.57.453,1.129.692,1.687-.239-.558-.477-1.114-.692-1.687H44.813c-1.759,0-3.459-.011-4.695,1.557s-.813,3.667-.7,5.519l1.319,20.914.9,14.265c.412.2.818.4,1.195.626-.377-.226-.783-.429-1.195-.626l.277,4.4.065,1.029a1,1,0,0,0,.692.911.92.92,0,0,0-.514.863c0,1.543-.343,3.547.857,4.749a3.251,3.251,0,0,0,2.385.857c1.347.012,2.7,0,4.044,0h65.334c.294,0,.591.012.886,0,1.971-.086,2.947-1.594,2.947-3.423v-2.183a.92.92,0,0,0-.514-.863,1,1,0,0,0,.693-.912l.4-6.321a.809.809,0,0,0,1.067.412l.024-.011c4.371-1.743,9.051-3.532,12.579-6.741a11.979,11.979,0,0,0,4.15-9.516" transform="translate(-5.608 -9.846)" fill="#323232"/>
    <path id="Path_348" data-name="Path 348" d="M135.293,131a14.072,14.072,0,0,1,6.305,6.627c.565,1.177,2.314.148,1.752-1.024a15.854,15.854,0,0,0-7.029-7.352c-1.168-.585-2.2,1.165-1.029,1.749" transform="translate(-19.254 -18.447)" fill="#323232"/>
    <path id="Path_349" data-name="Path 349" d="M125.178,103.411c.951-4.959,1.311-10.006,2.262-14.965.244-1.276-1.714-1.822-1.957-.539-.951,4.959-1.311,10.006-2.262,14.965-.244,1.276,1.711,1.822,1.957.539" transform="translate(-17.6 -12.454)" fill="#323232"/>
    <path id="Path_350" data-name="Path 350" d="M88.741,138.62a1.041,1.041,0,0,1-.129-.424,1.017,1.017,0,0,1-.375-.056,1.4,1.4,0,0,0-1.785.525,1.343,1.343,0,1,0,2.291-.045Z" transform="translate(-12.324 -19.715)" fill="#fff"/>
    <path id="Path_351" data-name="Path 351" d="M89.139,136.783a.992.992,0,0,0-.7-.936c-3.485-1.179-6.207,3.423-3.275,5.778a3.384,3.384,0,0,0,4.219,0,3.429,3.429,0,0,0,.771-4.365.891.891,0,0,0-1.017-.477m-2.726,3.257a1.355,1.355,0,0,1-.3-1.709,1.4,1.4,0,0,1,1.785-.525,1.017,1.017,0,0,0,.375.056,1.042,1.042,0,0,0,.129.424,1.35,1.35,0,0,1-1.993,1.751Z" transform="translate(-11.989 -19.38)" fill="#323232"/>
    <path id="Path_352" data-name="Path 352" d="M67.74,34.449a.828.828,0,0,0,.891-.514,6.161,6.161,0,0,1-1.133.514,1.274,1.274,0,0,1,.243,0" transform="translate(-9.642 -4.848)" fill="#323232"/>
    <path id="Path_353" data-name="Path 353" d="M106.4,32.166a1.052,1.052,0,0,0-.969,1.016,2.534,2.534,0,0,0,.634.005,2.534,2.534,0,0,1-.634-.005.885.885,0,0,0,.723,1.007,10.974,10.974,0,0,0,.618-2.029,2.834,2.834,0,0,0-.372.006" transform="translate(-15.059 -4.594)" fill="#323232"/>
    <path id="Path_354" data-name="Path 354" d="M100.69,32.161a10.974,10.974,0,0,1-.618,2.029,1.123,1.123,0,0,0,.246.006c1.428-.12,2.216,2.16,2.171,3.3a6.255,6.255,0,0,1-.929,2.8c-.337.586-1.381,2.473-2.219,2.255a1.049,1.049,0,0,0-.362-.033c.134-.923.262-1.845.4-2.763.191-1.277-1.764-1.828-1.957-.539-.714,4.764-1.161,10.611-3.912,14.835a.859.859,0,0,0-.291.429A11.494,11.494,0,0,1,90.254,57.4a12.131,12.131,0,0,1-9.686,1.714c-3.53-.918-6.46-3.764-8.2-6.9C70.577,49,70.177,45.234,69.7,41.636c-.171-1.276-2.2-1.293-2.029,0q.06.455.12.912c-.747-.159-1.578-1.623-1.873-2.118A6.382,6.382,0,0,1,64.909,37.5c-.037-.958.514-2.719,1.533-3.189a4.256,4.256,0,0,1-.549.1,4.256,4.256,0,0,0,.549-.1,1.269,1.269,0,0,1,.4-.111,6.161,6.161,0,0,0,1.133-.514,1.093,1.093,0,0,0-.891-1.519h-.036a4.515,4.515,0,0,0,.675,1.428,4.515,4.515,0,0,1-.675-1.428c-2.708-.2-4.335,3.355-4.144,5.637a9.218,9.218,0,0,0,1.886,4.58c.816,1.108,1.869,2.275,3.286,2.2a27.149,27.149,0,0,0,2.057,7.7,17.158,17.158,0,0,0,1.077,1.952v2.98c-.817-.62-1.955.606-1.309,1.53.349-.5.7-.985,1.07-1.416-.369.429-.72.918-1.07,1.416.018.026.033.052.053.078a22.691,22.691,0,0,0,10.94,6.927l-2.253,4.077a.881.881,0,0,0-.065.118l-1,1.8L73.1,68.525a.886.886,0,0,0-1.395.5,8.6,8.6,0,0,0,2.307,1.7,8.6,8.6,0,0,1-2.307-1.7,1.053,1.053,0,0,0,.37,1.252L77.4,74.112a1.022,1.022,0,0,0,1.389-.364l.759-1.371,1.238,2.105a1.1,1.1,0,0,0-.078.224,184.6,184.6,0,0,0-3.649,20.719.8.8,0,0,0,.3.782,5.212,5.212,0,0,0,.308-2.143,5.212,5.212,0,0,1-.308,2.143,1.126,1.126,0,0,0,1.732-.782,179.964,179.964,0,0,1,3.555-20.084,2.335,2.335,0,0,1,1.85,0,179.737,179.737,0,0,1,3.555,20.084,1.129,1.129,0,0,0,1.5.907c-.171-.568-.35-1.131-.525-1.656.171.525.35,1.089.525,1.656a.792.792,0,0,0,.525-.9,184.6,184.6,0,0,0-3.649-20.719,1.1,1.1,0,0,0-.078-.224l1.238-2.105.759,1.371a1.021,1.021,0,0,0,1.388.364l5.326-3.835a1.065,1.065,0,0,0,.326-1.359,19.936,19.936,0,0,1-1.693,1.2,19.936,19.936,0,0,0,1.693-1.2.867.867,0,0,0-1.35-.393l-4.478,3.224-1-1.8a.961.961,0,0,0-.063-.112l-2.241-4.056a23.314,23.314,0,0,0,10.925-6.95.991.991,0,0,0,.206-1.011,1.717,1.717,0,0,0-.651-.28,1.717,1.717,0,0,1,.651.28.959.959,0,0,0-1.641-.429c-.153.171-.309.343-.465.51l-.071-2.867a17.762,17.762,0,0,0,1.457-2.79,34.461,34.461,0,0,0,2.018-7.779,1.116,1.116,0,0,0,.118.038c1.688.438,2.9-.881,3.811-2.123A9.218,9.218,0,0,0,104.5,37.8c.186-2.189-1.3-5.537-3.807-5.643m-16.214,32a.89.89,0,0,0-.714.771.941.941,0,0,0-.017.11.987.987,0,0,0,.125.609l2.571,4.658-1.683,2.861a18.576,18.576,0,0,0-2.393,0l-1.682-2.861,2.571-4.658a.987.987,0,0,0,.128-.609,1.089,1.089,0,0,0-.735-.882,23.04,23.04,0,0,1-9.495-4.914,1.043,1.043,0,0,0,.073-.393V56.845a15.156,15.156,0,0,0,5.239,3.711,13.97,13.97,0,0,0,10.9-.343,12.828,12.828,0,0,0,3.867-2.7l.051,2.094a1.164,1.164,0,0,0,.017.164,21.82,21.82,0,0,1-8.829,4.393Z" transform="translate(-8.983 -4.594)" fill="#323232"/>
    <path id="Path_355" data-name="Path 355" d="M68.937,65.647a1.073,1.073,0,0,0-1.6,1.119l.042.2a6.155,6.155,0,0,0,.566-.409,6.022,6.022,0,0,0,.988-.915" transform="translate(-9.618 -9.357)" fill="#323232"/>
    <path id="Path_356" data-name="Path 356" d="M74.856,99.459a10.377,10.377,0,0,0,.31,1.505,1.057,1.057,0,0,0,.975-1.132,1.093,1.093,0,0,0-.018-.129L70.553,72.364a5.106,5.106,0,0,0-.567-.3,5.106,5.106,0,0,1,.567.3l-.392-1.923L69.3,66.25a.889.889,0,0,0-.361-.579,6.067,6.067,0,0,1-.989.915,6.155,6.155,0,0,1-.566.409L73.31,96.052l.857,4.191a.863.863,0,0,0,.981.725l.017,0a10.407,10.407,0,0,1-.309-1.508" transform="translate(-9.627 -9.382)" fill="#323232"/>
    <path id="Path_357" data-name="Path 357" d="M59.885,81.981c-.2,1.278,1.755,1.828,1.957.539l2.13-13.637a1.076,1.076,0,0,0-.032-.484c-.657.187-1.333.333-2.011.491Z" transform="translate(-8.553 -9.771)" fill="#323232"/>
    <path id="Path_358" data-name="Path 358" d="M62.358,68.214l-.086.546c.678-.157,1.354-.3,2.011-.49-.277-.91-1.752-1.167-1.925-.056" transform="translate(-8.896 -9.64)" fill="#323232"/>
    <path id="Path_359" data-name="Path 359" d="M67.043,85.905a38.421,38.421,0,0,1-7.7,2.329,1.028,1.028,0,0,0-.7,1.277,1.063,1.063,0,0,0,.09.213l6.312,13.089c.567,1.176,2.314.148,1.752-1.024l-5.72-11.861a39.475,39.475,0,0,0,6.982-2.271c1.191-.525.16-2.273-1.025-1.752" transform="translate(-8.373 -12.258)" fill="#323232"/>
    <path id="Path_360" data-name="Path 360" d="M105.65,65.952l.857.429a1.1,1.1,0,0,0-1.124-.885,2.543,2.543,0,0,0,1.051,1.575c.021-.1.041-.2.063-.307a1.071,1.071,0,0,0,.01-.384Z" transform="translate(-15.055 -9.356)" fill="#323232"/>
    <path id="Path_361" data-name="Path 361" d="M104.1,65.5a.85.85,0,0,0-.843.729l-1.191,5.84c.37-.343.731-.692,1.08-1.041-.349.349-.71.7-1.08,1.041L97.3,95.487l-.857,4.191A1.014,1.014,0,0,0,97,100.816c.231-.663.453-1.327.674-1.99-.221.663-.442,1.327-.674,1.99a.918.918,0,0,0,1.4-.6l5.964-29.26.792-3.885A2.547,2.547,0,0,1,104.1,65.5" transform="translate(-13.774 -9.357)" fill="#323232"/>
    <path id="Path_362" data-name="Path 362" d="M111.464,69.09a5.29,5.29,0,0,1-1.189-.621,5.29,5.29,0,0,0,1.189.621l-.137-.876c-.145-.923-1.193-.9-1.7-.343.486.213.973.416,1.457.6-.486-.183-.973-.384-1.457-.6a1.043,1.043,0,0,0-.257.883L111.5,82.39c.2,1.286,2.157.74,1.957-.54q-1-6.381-1.994-12.76" transform="translate(-15.622 -9.64)" fill="#323232"/>
    <path id="Path_363" data-name="Path 363" d="M107.311,102.813l6.312-13.089a1.028,1.028,0,0,0-.393-1.4,1.015,1.015,0,0,0-.213-.09,38.421,38.421,0,0,1-7.7-2.329c-1.185-.52-2.218,1.227-1.024,1.752a39.475,39.475,0,0,0,6.982,2.271l-5.72,11.861c-.566,1.171,1.183,2.2,1.751,1.024" transform="translate(-14.824 -12.258)" fill="#323232"/>
    <path id="Path_364" data-name="Path 364" d="M90.373,15.454a7.843,7.843,0,0,0-10.587,2.192c-1.235,1.749-1.963,3.867-3.1,5.69-1.171,1.877-2.816,4.438-5.229,4.748a1.114,1.114,0,0,0-.655,1.87,15.508,15.508,0,0,1,1.451-.943,15.508,15.508,0,0,0-1.451.943.837.837,0,0,0,.655.159c4.554-.586,7.1-5.607,8.924-9.293a7.962,7.962,0,0,1,3.105-3.852,5.649,5.649,0,0,1,5.859.238.953.953,0,0,0,1.464-.675l-.5-.1.5.1a.983.983,0,0,0-.437-1.076" transform="translate(-10.071 -2.039)" fill="#323232"/>
    <path id="Path_365" data-name="Path 365" d="M80.523.147c-5.1.7-9.4,4.033-12.429,8.047-1.61,2.133-3.06,4.6-5.812,5.319a1.015,1.015,0,0,0,.525,1.959,2.427,2.427,0,0,1-.559-1.083,2.427,2.427,0,0,0,.559,1.083h.015c2.808-.738,4.547-2.865,6.189-5.114a22.307,22.307,0,0,1,6.456-6.275A13.116,13.116,0,0,1,84.08,2.171a10.141,10.141,0,0,1,7.045,4.32,1.043,1.043,0,0,0,1.907-.638,3.7,3.7,0,0,1-.955-1,3.7,3.7,0,0,0,.955,1,1.007,1.007,0,0,0-.155-.387A12.685,12.685,0,0,0,80.523.147" transform="translate(-8.795 0)" fill="#323232"/>
    <path id="Path_366" data-name="Path 366" d="M96.937,16.3c-.052-.022-.1-.045-.159-.066a.863.863,0,0,0-1.133.451.88.88,0,0,0-.067.264,1.465,1.465,0,0,0,1.359-.649" transform="translate(-13.654 -2.309)" fill="#323232"/>
    <path id="Path_367" data-name="Path 367" d="M102.626,28.121c-4.457-2.264-.853-9.731-5.694-11.8a1.465,1.465,0,0,1-1.358.649,1.071,1.071,0,0,0,.66,1.242c1.831.71,1.714,4.038,1.941,5.61.348,2.408,1.1,4.868,3.429,6.047a.99.99,0,0,0,.815.058,8.089,8.089,0,0,1-1.014-1.847,8.089,8.089,0,0,0,1.014,1.847.99.99,0,0,0,.207-1.81" transform="translate(-13.649 -2.332)" fill="#323232"/>
    <path id="Path_368" data-name="Path 368" d="M107.2,15.446c-.643-3.657-3.149-8.608-7.433-8.6a.923.923,0,0,0-.818.429,5.643,5.643,0,0,1,1.086.989,5.643,5.643,0,0,0-1.086-.989,1.021,1.021,0,0,0,.818,1.6c3.549,0,5.236,5.007,5.589,7.869a20.588,20.588,0,0,1-.921,10.023c-.393.953.75,1.48,1.489,1.071a7.351,7.351,0,0,0,0-1.714,7.351,7.351,0,0,1,0,1.714,1.056,1.056,0,0,0,.468-.532c1.471-3.563,1.468-8.107.809-11.853" transform="translate(-14.111 -0.977)" fill="#323232"/>
    <path id="Path_369" data-name="Path 369" d="M67.071,19.05c-.1-.892-1.389-1.446-1.851-.459-.073.156-.139.315-.2.476a3.748,3.748,0,0,0,2.051-.016" transform="translate(-9.289 -2.581)" fill="#323232"/>
    <path id="Path_370" data-name="Path 370" d="M67.886,28.492c-1.361-2.351-2.211-6.156-1.015-8.716a1.045,1.045,0,0,0,.1-.565,3.748,3.748,0,0,1-2.051.016c-1.245,3.209-.459,7.394,1.215,10.286a.918.918,0,0,0,1,.474A2.128,2.128,0,0,0,66.1,28.7a2.128,2.128,0,0,1,1.035,1.29,1.008,1.008,0,0,0,.754-1.495" transform="translate(-9.187 -2.744)" fill="#323232"/>
    <path id="Path_371" data-name="Path 371" d="M2.771,94.228,6.99,96.762a1.015,1.015,0,0,0,1.046-1.738L3.817,92.489a1.015,1.015,0,1,0-1.046,1.739" transform="translate(-0.326 -13.192)" fill="#d0d0d0"/>
    <path id="Path_372" data-name="Path 372" d="M8.872,87.794,11.259,92.1a1.016,1.016,0,0,0,1.768-1L10.641,86.8a1.016,1.016,0,0,0-1.768,1" transform="translate(-1.252 -12.331)" fill="#d0d0d0"/>
    <path id="Path_373" data-name="Path 373" d="M.95,102.926l4.922.086a1.016,1.016,0,0,0,.05-2.029L1,100.9a1.016,1.016,0,0,0-.05,2.029" transform="translate(0 -14.414)" fill="#d0d0d0"/>
    <path id="Path_374" data-name="Path 374" d="M16.03,148.369h2.878a.943.943,0,0,0-.969-.857H7.975a1.015,1.015,0,0,0,0,2.029H17.94a.977.977,0,0,0,.969-1.173Z" transform="translate(-0.998 -21.073)" fill="#323232"/>
    <path id="Path_375" data-name="Path 375" d="M161.671,147.513h-9.2a.943.943,0,0,0-.969.857h11.143a.943.943,0,0,0-.969-.857" transform="translate(-21.643 -21.073)" fill="#323232"/>
    <path id="Path_376" data-name="Path 376" d="M151.495,148.512a.977.977,0,0,0,.969,1.173h9.207a.977.977,0,0,0,.969-1.173Z" transform="translate(-21.639 -21.216)" fill="#323232"/>
  </g>
</svg>
