<svg id="グループ_9235" data-name="グループ 9235" xmlns="http://www.w3.org/2000/svg" width="182.408" height="41.507" viewBox="0 0 182.408 41.507">
  <path id="パス_4361" data-name="パス 4361" d="M383.475,185.286v5.783H372.5v27.3h-5.915v-27.3H355.613v-5.783Z" transform="translate(-307.211 -180.044)" fill="#fff"/>
  <path id="パス_4362" data-name="パス 4362" d="M398.208,207.244v5.071h-9.633v-5.071Z" transform="translate(-317.268 -187.003)" fill="#fff"/>
  <path id="パス_4363" data-name="パス 4363" d="M427.492,185.286c7.555,0,10.785,4.607,10.785,9.9,0,4.117-1.988,8.528-7.107,9.95l7.809,13.234h-6.513l-7.655-12.792h-8.75a.747.747,0,0,0-.637.205.723.723,0,0,0-.208.628V218.37H409.35V205.283c0-3.724,1.59-5.244,5.268-5.244h13.074a4.312,4.312,0,0,0,4.671-4.607c0-2.353-1.441-4.362-4.671-4.362H409.5v-5.783Z" transform="translate(-323.606 -180.044)" fill="#fff"/>
  <path id="パス_4364" data-name="パス 4364" d="M507.18,185.286l9.507,12.206,9.966-12.2h6.707l-13.275,16.272,13.365,16.811h-6.612l-10.288-13.136L505.987,218.37h-6.706l13.872-17.253-12.585-15.831Z" transform="translate(-351.043 -180.044)" fill="#fff"/>
  <g id="グループ_9234" data-name="グループ 9234" transform="translate(0 0)">
    <path id="パス_4365" data-name="パス 4365" d="M324.269,183.526a1.5,1.5,0,1,0,1.5,1.5,1.5,1.5,0,0,0-1.5-1.5Z" transform="translate(-297.189 -179.507)" fill="#fff"/>
    <path id="パス_4366" data-name="パス 4366" d="M320.807,196.188a1.366,1.366,0,0,0-.285-1.306c-.864-1.2-2.485-1.346-3.452-1.433-.186-.018-.419-.039-.5-.058-.264-.066-.611-.168-.915-.261l.07-1.4c1.354.152,3.832.407,6.216.514a5.741,5.741,0,0,0,4.8-2.1c1.424-1.774,1.764-4.314.956-7.154-1.142-4.014-4.8-5.824-10.3-5.1a17.956,17.956,0,0,0-2.1.407,3.117,3.117,0,0,1-1.843.087h0c-1.512-.374-3.654.247-5.869,1.708-1.945,1.282-2.056,2.691-2.209,4.642-.033.422-.07.887-.128,1.406a15.053,15.053,0,0,0,.455,5.193c.059.258.129.564.16.755a16.177,16.177,0,0,1-1.712,1.207c-1.127.738-2.669,1.747-4.594,3.23-3.293,2.532-3.642,5.079-3.976,7.536a16.7,16.7,0,0,1-.648,3.156c-.794,2.354-5.97,1.349-7.722.809a.97.97,0,0,0-1.117.424.947.947,0,0,0,.158,1.173c.552.528,5.477,5.155,8.8,5.155A20.739,20.739,0,0,0,302,213.05a14.977,14.977,0,0,0-.4,1.95c-.339,2.457.347,3.115,1.822,3.52.135.037.28.077.436.127a5.24,5.24,0,0,0,1.641.236,12.326,12.326,0,0,0,4.1-.858,1.487,1.487,0,0,0,.9-1.584,11.917,11.917,0,0,0,13.345,1.376,11.638,11.638,0,0,0-3.029-21.634Zm-16.339,20.651c-.188-.062-.364-.109-.529-.157s-.414-.114-.448-.125a2.767,2.767,0,0,1,.024-1.3,13.048,13.048,0,0,1,.653-2.665c.2-.582.406-1.182-.092-1.676a1.055,1.055,0,0,0-.773-.309,1.857,1.857,0,0,0-.588.109c-.2.064-.513.191-.918.354-1.569.63-4.489,1.8-6.745,1.8-1.179,0-3.024-1.071-4.7-2.312,2.513.215,5.534-.121,6.416-2.735a18.266,18.266,0,0,0,.73-3.5c.324-2.366.58-4.234,3.25-6.288,1.868-1.436,3.374-2.424,4.473-3.144,1.78-1.167,2.593-1.7,2.593-2.652a6.506,6.506,0,0,0-.224-1.322,13.4,13.4,0,0,1-.42-4.562c.06-.542.1-1.029.134-1.469.143-1.82.191-2.432,1.355-3.2,1.712-1.128,3.369-1.681,4.329-1.444a4.972,4.972,0,0,0,2.776-.085,15.968,15.968,0,0,1,1.889-.368c4.557-.6,7.313.652,8.187,3.725.635,2.234.419,4.169-.607,5.45a3.741,3.741,0,0,1-3.2,1.375c-3.424-.154-7.054-.619-7.091-.623a.973.973,0,0,0-.743.214.951.951,0,0,0-.346.685l-.159,3.152a.954.954,0,0,0,.663.954c.04.013.884.289,1.536.464a2.23,2.23,0,0,0-1.483.546,1.48,1.48,0,0,0-.431.919,11.7,11.7,0,0,0-7.15,7.6,11.541,11.541,0,0,0,1.828,10.224,2.989,2.989,0,0,0-.126,1.638c.01.075.022.168.032.253a7.623,7.623,0,0,1-4.091.467Zm13.7.51a9.779,9.779,0,1,1,9.889-9.779,9.834,9.834,0,0,1-9.889,9.779Z" transform="translate(-285.962 -177.742)" fill="#fff"/>
    <g id="グループ_9233" data-name="グループ 9233" transform="translate(23.162 20.686)">
      <g id="グループ_9231" data-name="グループ 9231" transform="translate(0 8.608)">
        <path id="パス_4367" data-name="パス 4367" d="M321.194,221.375H319.7a.4.4,0,1,1,0-.8h1.491a.4.4,0,1,1,0,.8Z" transform="translate(-319.285 -220.57)" fill="#fff"/>
        <path id="パス_4368" data-name="パス 4368" d="M343.863,221.375h-1.491a.4.4,0,1,1,0-.8h1.491a.4.4,0,1,1,0,.8Z" transform="translate(-326.201 -220.57)" fill="#fff"/>
      </g>
      <g id="グループ_9232" data-name="グループ 9232" transform="translate(8.637 0)">
        <path id="パス_4369" data-name="パス 4369" d="M332.124,233.137a.4.4,0,0,1-.4-.4v-1.491a.4.4,0,0,1,.8,0v1.491a.4.4,0,0,1-.4.4Z" transform="translate(-331.721 -215.104)" fill="#fff"/>
        <path id="パス_4370" data-name="パス 4370" d="M332.124,210.469a.4.4,0,0,1-.4-.4v-1.491a.4.4,0,0,1,.8,0v1.491A.4.4,0,0,1,332.124,210.469Z" transform="translate(-331.721 -208.188)" fill="#fff"/>
      </g>
    </g>
    <path id="パス_4371" data-name="パス 4371" d="M337.2,224.919l-2.615-2.619a2.363,2.363,0,0,1-1.127,1.127l2.617,2.618a.8.8,0,0,0,1.127-1.127Z" transform="translate(-300.453 -191.717)" fill="#fff" fill-rule="evenodd"/>
    <path id="パス_4372" data-name="パス 4372" d="M336.651,209.693a.8.8,0,0,0-1.088.292l-2.951,5.109a2.348,2.348,0,0,1,1.377.8l2.954-5.116A.8.8,0,0,0,336.651,209.693Z" transform="translate(-300.194 -187.748)" fill="#fff" fill-rule="evenodd"/>
    <path id="パス_4373" data-name="パス 4373" d="M331.315,218.587a1.577,1.577,0,1,1-1.577,1.577A1.577,1.577,0,0,1,331.315,218.587Z" transform="translate(-299.317 -190.546)" fill="#fff" fill-rule="evenodd"/>
  </g>
  <rect id="長方形_23081" data-name="長方形 23081" width="27.326" height="5.865" transform="translate(118.422 32.46)" fill="#fff"/>
  <rect id="長方形_23082" data-name="長方形 23082" width="27.27" height="5.865" transform="translate(118.422 5.242)" fill="#fff"/>
  <rect id="長方形_23083" data-name="長方形 23083" width="26.991" height="5.318" transform="translate(118.422 19.062)" fill="#fff"/>
</svg>
