<svg xmlns="http://www.w3.org/2000/svg" xmlns:xlink="http://www.w3.org/1999/xlink" width="166.616" height="97.897" viewBox="0 0 166.616 97.897">
  <defs>
    <clipPath id="clip-path">
      <rect id="Rectangle_194" data-name="Rectangle 194" width="166.616" height="97.897" transform="translate(0 0)" fill="none"/>
    </clipPath>
    <clipPath id="clip-path-2">
      <rect id="Rectangle_193" data-name="Rectangle 193" width="22.11" height="41.217" transform="translate(60.382 32.862)" fill="none"/>
    </clipPath>
  </defs>
  <g id="Group_239" data-name="Group 239" transform="translate(0 0)">
    <g id="Group_238" data-name="Group 238" clip-path="url(#clip-path)">
      <path id="Path_611" data-name="Path 611" d="M142.73,89.967l-13.067-6.6a1.108,1.108,0,0,1-.553-.965V17.2c0-1.439-.16-2.823-1.6-3.584a3.414,3.414,0,0,0-1.6-.361c-.554-.007-1.109,0-1.663,0h-87.5c-5.458,0-10.918-.053-16.376,0a3.11,3.11,0,0,0-3.262,2.95l0,.071c-.026.623,0,1.253,0,1.876V82.4a1.108,1.108,0,0,1-.553.965l-13.181,6.6a1.167,1.167,0,0,1-1.645-.749A2.7,2.7,0,0,0,.472,90.242a1.757,1.757,0,0,0-.248.8,1.137,1.137,0,0,1,2.011.679v3.794c1.54-.077,3.153.068,4.666.068H142.183V93.242a1.068,1.068,0,0,1,1.051-1.086,1.022,1.022,0,0,1,.175.011V90.082a1.118,1.118,0,0,1-.679-.115M21.272,18.86c.023-1.17.82-1.648,1.881-1.648h98.439c.865,0,2.116-.2,2.631.656a1.062,1.062,0,0,1,.21.661v63.2a1.134,1.134,0,0,1-1.117,1.117h-.177c-4.061.166-8.164,0-12.227,0H22.393a1.134,1.134,0,0,1-1.117-1.117V23.356c0-1.5-.03-3,0-4.5M63.042,91.6H7.972a1.118,1.118,0,0,1,0-2.235H63.041a1.118,1.118,0,1,1,0,2.236Zm75.658,0H78.532a2.068,2.068,0,0,1-.259.86,2.784,2.784,0,0,1-2.323,1.327c-.85.044-1.713,0-2.564,0H66.3a1.118,1.118,0,0,1,0-2.235H75.5a4.606,4.606,0,0,0,.563-.028.7.7,0,0,0,.251-.129c0-.044-.007-.086-.008-.118-.008-.264,0-.53,0-.795a1.134,1.134,0,0,1,1.117-1.117H138.7a1.123,1.123,0,0,1,1.145,1.118A1.106,1.106,0,0,1,138.7,91.6Z" fill="#fff"/>
      <path id="Path_612" data-name="Path 612" d="M143.858,88.037l-12.514-6.322V22.083c0-1.937.06-3.884,0-5.82a5.358,5.358,0,0,0-5.371-5.246c-5.218-.123-10.455,0-15.674,0H21.812c-.518,0-1.039-.013-1.557,0a5.361,5.361,0,0,0-5.378,5.231c-.064,1.929,0,3.872,0,5.8V81.715L2.244,88.039a.945.945,0,0,0-.517,1.181,2.155,2.155,0,0,1,1.2-.1,2.155,2.155,0,0,0-1.2.1,1.169,1.169,0,0,0,1.645.749l13.186-6.6a1.108,1.108,0,0,0,.553-.965V18.15c0-.623-.026-1.253,0-1.876a3.11,3.11,0,0,1,3.194-3.024l.071,0c5.457-.053,10.918,0,16.376,0h87.5c.554,0,1.109-.007,1.663,0a3.414,3.414,0,0,1,1.6.361c1.438.761,1.6,2.145,1.6,3.584V82.4a1.108,1.108,0,0,0,.553.965l13.067,6.6a1.12,1.12,0,0,0,.68.119c.931-.137,1.491-1.516.443-2.045" fill="#323232"/>
      <path id="Path_613" data-name="Path 613" d="M22.756,19.471l.034-.026c-.142-.017-.177.079-.034.026" fill="#fff"/>
      <path id="Path_614" data-name="Path 614" d="M23.51,18.677a.242.242,0,0,0,.006.065c.12-.332-.042-.27-.006-.065" fill="#fff"/>
      <path id="Path_615" data-name="Path 615" d="M21.278,66.549V81.725A1.134,1.134,0,0,0,22.4,82.842h88.518c4.063,0,8.166.166,12.227,0h.177a1.134,1.134,0,0,0,1.117-1.117v-63.2a1.062,1.062,0,0,0-.21-.661c-.515-.856-1.766-.656-2.631-.656H23.157c-1.061,0-1.858.478-1.881,1.648-.029,1.5,0,3,0,4.5V66.549Zm2.241-47.807a.235.235,0,0,0-.006-.065c-.035-.2.123-.267,0,.066Zm-.726.7-.034.026c-.146.055-.11-.04.032-.023Zm.72,40.888V19.447H118.99c1,0,2.158.143,3.211.079V80.607H26.512c-.951,0-2-.112-3-.082Z" fill="#323232"/>
      <path id="Path_616" data-name="Path 616" d="M143.41,92.17h0a1.069,1.069,0,0,0-1.215.9,1.127,1.127,0,0,0-.011.174V95.58H6.9c-1.513,0-3.126-.145-4.666-.068V91.719A1.137,1.137,0,0,0,.224,91.04c-.057.85.418,1.7.248,2.549.17-.85-.3-1.7-.248-2.549A1.061,1.061,0,0,0,0,91.719V96.7a1.135,1.135,0,0,0,1.117,1.118H125.85c5.725,0,11.483.18,17.2,0h.244a1.134,1.134,0,0,0,1.118-1.118V93.245a1.045,1.045,0,0,0-1.007-1.075" fill="#323232"/>
      <path id="Path_617" data-name="Path 617" d="M7.976,91.6H63.045a1.118,1.118,0,0,0,0-2.235H7.976a1.118,1.118,0,0,0,0,2.235" fill="#323232"/>
      <path id="Path_618" data-name="Path 618" d="M66.3,93.786h7.088c.85,0,1.714.044,2.564,0a2.784,2.784,0,0,0,2.323-1.327,2.063,2.063,0,0,0,.259-.859H138.7a1.118,1.118,0,0,0,0-2.235H77.426a1.134,1.134,0,0,0-1.117,1.117c0,.264-.008.53,0,.794a.653.653,0,0,0,.008.118.7.7,0,0,1-.251.129,4.606,4.606,0,0,1-.563.028H66.3a1.118,1.118,0,0,0,0,2.235" fill="#323232"/>
      <g id="Group_237" data-name="Group 237" style="isolation: isolate">
        <g id="Group_236" data-name="Group 236">
          <g id="Group_235" data-name="Group 235" clip-path="url(#clip-path-2)">
            <g id="Group_234" data-name="Group 234" style="isolation: isolate">
              <g id="Group_233" data-name="Group 233">
                <g id="Group_232" data-name="Group 232" clip-path="url(#clip-path-2)">
                  <text id="_" data-name="¥" transform="translate(60.382 61.901)" font-size="33" font-family="SegoeUI, Segoe UI"><tspan x="0" y="0">¥</tspan></text>
                </g>
              </g>
            </g>
          </g>
        </g>
      </g>
      <path id="Path_619" data-name="Path 619" d="M147.2,21.5l-9.555-9.556a1.47,1.47,0,0,1,0-2.079l2.079-2.08a1.47,1.47,0,0,1,2.079,0l6.437,6.442L162.027.431a1.47,1.47,0,0,1,2.079,0l2.079,2.079a1.47,1.47,0,0,1,0,2.079L149.279,21.5a1.47,1.47,0,0,1-2.079,0h0" fill="#c42d2d"/>
    </g>
  </g>
</svg>
