<svg xmlns="http://www.w3.org/2000/svg" xmlns:xlink="http://www.w3.org/1999/xlink" width="123.25" height="114.221" viewBox="0 0 123.25 114.221">
  <defs>
    <clipPath id="clip-path">
      <rect width="123.25" height="114.221" fill="none"/>
    </clipPath>
  </defs>
  <g id="Repeat_Grid_1" data-name="Repeat Grid 1" clip-path="url(#clip-path)">
    <g id="Group_8326" data-name="Group 8326">
      <g id="Group_159" data-name="Group 159" clip-path="url(#clip-path)">
        <path id="Path_377" data-name="Path 377" d="M4.193,44.018l3.4,3.4a.993.993,0,0,0,1.4-1.4l-3.4-3.4a.993.993,0,0,0-1.4,1.4" transform="translate(-0.309 -3.333)" fill="#ffdc50"/>
        <path id="Path_378" data-name="Path 378" d="M10.973,39.645l1.246,4.649a.993.993,0,0,0,1.914-.528l-1.246-4.649a.993.993,0,0,0-1.914.528" transform="translate(-0.861 -3.024)" fill="#ffdc50"/>
        <path id="Path_379" data-name="Path 379" d="M.695,51.309l4.649,1.246a.993.993,0,0,0,.528-1.914L1.223,49.4a.993.993,0,0,0-.528,1.914" transform="translate(0 -3.885)" fill="#ffdc50"/>
        <path id="Path_380" data-name="Path 380" d="M12.425,84.219a1.057,1.057,0,0,1-.14.173l.14.141Z" transform="translate(-0.967 -6.628)" fill="#ffdc50"/>
        <path id="Path_381" data-name="Path 381" d="M11.976,84.373a.8.8,0,0,1-1.106.075c-.662-.482-1.774-.839-2.32,0-.493.758.073,1.594.639,2.1.728.645,1.493,1.254,2.24,1.88a.808.808,0,0,1,.24,1.025,3.093,3.093,0,0,1,.442.049V84.514Z" transform="translate(-0.658 -6.607)" fill="#fff"/>
        <path id="Path_382" data-name="Path 382" d="M14.338,111.458a3.22,3.22,0,0,1-.753.14c.1.1.193.211.285.319a1.087,1.087,0,0,1,.468-.459" transform="translate(-1.069 -8.772)" fill="#ffdc50"/>
        <path id="Path_383" data-name="Path 383" d="M98.732,28.765a1,1,0,0,1-1.285-1.188,26.71,26.71,0,0,0,.572-10.649c-.434-3.024-1.643-6.738-4.907-7.37.063.109.127.215.184.325-.061-.11-.125-.217-.184-.325a5.152,5.152,0,0,0-.849-.092,1.014,1.014,0,0,1-.472-1.885,12.9,12.9,0,0,0-1.187-1.34.945.945,0,0,1-1.326-.164,1.066,1.066,0,0,1-.08-.122c-1.626-2.809-4.911-3.729-7.977-3.77a20.11,20.11,0,0,0-16.548,8.977c-3.068,4.569-3.168,10.575-1.4,15.685A.9.9,0,0,1,62.742,28a.878.878,0,0,1-.327.054c.024.24.043.481.07.72a1.075,1.075,0,0,1,.849,1.263,1,1,0,0,1-.051.178,10.4,10.4,0,0,0,2.549-.63,1.051,1.051,0,0,1,.306-1.454,1.119,1.119,0,0,1,.21-.105,20.776,20.776,0,0,0,6.982-4.782c2.081-1.959,3.986-4.091,5.916-6.195.865-.943,2.265.461,1.4,1.4-1.4,1.523-2.822,3.157-4.33,4.723h1.768a.821.821,0,0,1,.614-.987c.029-.006.058-.012.088-.016,3.81-.674,7.058-2.4,8.731-6.038.534-1.16,2.244-.151,1.714,1a11.342,11.342,0,0,1-.645,1.2c.241.35.475.708.714,1.06.264-.881,1.843-.748,1.95.373a10.144,10.144,0,0,0,4.215,7.211,1.106,1.106,0,0,1-.078,1.787c.309.347.617.711.955,1.034a1,1,0,0,1,.8-.508,3.194,3.194,0,0,1,1.551.233,3.458,3.458,0,0,0,.041-.755" transform="translate(-4.889 -0.172)" fill="#ffda2b"/>
        <path id="Path_384" data-name="Path 384" d="M96.947,32.653c-.89.087-1.151-.859-.8-1.474-.338-.322-.645-.686-.955-1.034a.775.775,0,0,1-.921-.074,12.346,12.346,0,0,1-5.2-8.925.981.981,0,0,1,.033-.373c-.238-.353-.472-.71-.714-1.06-2.016,3.281-5.448,5.076-9.269,5.753A1.058,1.058,0,0,1,77.9,24.6c0-.015-.006-.03-.007-.046H76.129c-2.748,2.85-5.779,5.47-9.441,6.764a.829.829,0,0,1-1.043-.355,10.4,10.4,0,0,1-2.549.63.8.8,0,0,1-.885.53c-1.106-.1-1.8,1.106-2.167,2a5.13,5.13,0,0,0-.271,2.862,5.5,5.5,0,0,0,3.414,4.441c-.012-.087-.023-.173-.034-.26-.171-1.251,1.741-1.787,1.914-.528.446,3.26.657,6.663,1.89,9.749a15.292,15.292,0,0,0,6.4,7.334,13.47,13.47,0,0,0,10.007,1.168A11.7,11.7,0,0,0,90.7,53.479c1.521-2.622,2.2-5.652,2.985-8.55a.985.985,0,0,1,1.217-.675,1,1,0,0,1,.378.206c.01-.283.015-.566.017-.849-.944-.369-.4-2.015.765-1.852.756.106,1.466-.812,1.826-1.345A8.877,8.877,0,0,0,99.123,37.5c.382-1.619.276-5.087-2.176-4.85m-23.98,1.588a.993.993,0,1,1,.95-.949.993.993,0,0,1-.95.949m4.017,7.008a48.67,48.67,0,0,0,2.605-5.3c.521-1.165,2.23-.155,1.714,1-.674,1.506-1.342,3.04-2.141,4.494.574.4,1.14.808,1.731,1.181,1.079.68.082,2.4-1,1.714-.87-.553-1.681-1.18-2.551-1.728A1.013,1.013,0,0,1,76.983,41.249Zm6.6,8.595a6.123,6.123,0,0,1-7.107-.165c-1.035-.737-.042-2.453,1-1.714a4.228,4.228,0,0,0,5.1.165c1.069-.708,2.061,1.011,1,1.711Zm3.014-15.6a.992.992,0,1,1,.993-.992A.993.993,0,0,1,86.6,34.241Z" transform="translate(-4.697 -1.551)" fill="#fff"/>
        <path id="Path_385" data-name="Path 385" d="M65.339,68.343a27.079,27.079,0,0,0,30.359.076.855.855,0,0,1,1.2.166.838.838,0,0,1,.091.15,6.051,6.051,0,0,0,.637-.71c-1.44-.508-2.873-1.035-4.258-1.648s-1.738-3.138-2.072-4.47q-.217-.865-.4-1.738a15.339,15.339,0,0,1-18.939,1.972,18.6,18.6,0,0,1-2.467-2,17.153,17.153,0,0,1-.743,3.307c-.276.842-.591,1.668-.91,2.495s-.461,1.226-1.326,1.481l-2.32.684a2.433,2.433,0,0,0,.092.276.816.816,0,0,1,1.063-.036" transform="translate(-5.051 -4.733)" fill="#fff"/>
        <path id="Path_386" data-name="Path 386" d="M123.179,108.83c-.6-6.012-1.29-12.027-2.319-17.982a73.554,73.554,0,0,0-1.658-7.638,23.02,23.02,0,0,0-.888-2.621,6.126,6.126,0,0,0-1-1.668c-1.954-2.079-4.9-3.357-7.439-4.539-3.385-1.576-6.872-2.927-10.367-4.238-1.348-.5-2.722-.968-4.091-1.451a6.052,6.052,0,0,1-.637.71,1.027,1.027,0,0,1-.287,1.4,29.021,29.021,0,0,1-32.361-.076,1.06,1.06,0,0,1-.062-1.675,2.625,2.625,0,0,1-.092-.276c-5.933,1.75-11.865,3.492-17.775,5.32a.936.936,0,0,1-1.216-.938,14.8,14.8,0,0,0-4.217,1.684V85.054a3.366,3.366,0,0,1,3.367,1.621c1.06,1.631.515,3.57-.038,5.278a17.169,17.169,0,0,0-.942,5.143c-.019,1.813.157,3.626.178,5.436a13.176,13.176,0,0,1-2.729,8.86,12.843,12.843,0,0,0-2.409,3.257c0,.011-.006.01-.006.006v.018a2.943,2.943,0,0,0,.006.382q.008.579.018,1.158.025,1.7.051,3.4H71.391c-2.716-4.437-7.715-7.084-12.242-9.409-1.262-.645-2.8-1.29-3.447-2.646a3.208,3.208,0,0,1,.581-3.5,1.666,1.666,0,0,1,.141-.13c-1.642-.987-2.748-2.358-2.124-4.44a2.8,2.8,0,0,1,1.644-1.914,3.464,3.464,0,0,1-.679-2.351A3.769,3.769,0,0,1,56.37,92.65c-1.305-.526-2.606-1.067-3.89-1.645a7.3,7.3,0,0,1-3.092-1.943,3.476,3.476,0,0,1,.966-4.821c.06-.041.121-.078.182-.114,1.208-.628,2.471-.053,3.646.346a218.535,218.535,0,0,1,23.049,8.945c.949-1.069.786-3.258.847-4.493.055-1.124.19-2.243.338-3.358a9.9,9.9,0,0,1,.553-2.764,3.574,3.574,0,0,1,3.886-2.273,3.408,3.408,0,0,1,2.275,2.988,22.38,22.38,0,0,1-.046,5,24.791,24.791,0,0,0,.887,6.806A114.367,114.367,0,0,1,88.4,108.389c.24,2.027.006,4.064.369,6.081.313,1.737.794,3.437,1.252,5.142h34.093c-.249-3.593-.574-7.19-.93-10.781" transform="translate(-2.848 -5.406)" fill="#ffda2b"/>
        <path id="Path_387" data-name="Path 387" d="M87.761,110.632c-.109-1.456-.382-2.889-.621-4.33-.461-2.77-.907-5.484-1.579-8.215a29.813,29.813,0,0,1-1.216-8.392c.076-1.7.666-3.93-.184-5.535-.433-.82-1.29-.561-1.816.086a5.151,5.151,0,0,0-.722,2.645c-.266,2-.184,4.054-.513,6.039-.193,1.171-1.025,4.183-2.744,3.787a13.209,13.209,0,0,1-2.162-.99q-1.081-.482-2.171-.942c-1.682-.711-3.377-1.391-5.077-2.057q-4.975-1.95-10.013-3.747-1.848-.662-3.7-1.3a9.321,9.321,0,0,0-2.124-.689c-1.212-.08-1.361,1.762-.592,2.367a11.847,11.847,0,0,0,2.513,1.25c2,.888,4.036,1.715,6.081,2.511.342.063.682.148,1.013.243a32.543,32.543,0,0,1,5.608,2.254c1,.5.287,2.2-.765,1.813q-3.2-1.179-6.386-2.421a2.828,2.828,0,0,0-1.059.031,1.584,1.584,0,0,0-1.017,2l0,.012c.261,1.113,2.487,1.566,3.395,1.927,1.268.5,2.545.983,3.8,1.509,1.149.48.686,2.368-.528,1.914s-2.471-.8-3.7-1.215c-1.046-.35-3.493-1.578-4.03.012-.572,1.7,1.5,2.359,2.712,2.849,1.29.521,2.6.965,3.891,1.474,1.159.461.726,2.28-.528,1.914-.143-.041-.36-.126-.625-.231-.664-.233-1.445-.479-2.247-.763-1.154-.263-2.16-.17-2.012,1.136.13,1.153,2.119,1.781,3.007,2.233,1.212.617,2.4,1.255,3.566,1.956A37.547,37.547,0,0,1,71.254,116a16.643,16.643,0,0,1,3.628,4.791H89.209a40.816,40.816,0,0,1-1.34-6.18c-.146-1.318-.007-2.646-.107-3.975" transform="translate(-4.097 -6.583)" fill="#fff"/>
        <path id="Path_388" data-name="Path 388" d="M38.647,89.137c-.417-.514-.933-.79-1.493-.369a.836.836,0,0,1-.073.049v13.959a8.8,8.8,0,0,1-.323,3.7,3.443,3.443,0,0,1-3.212,1.924c-4.355.064-8.715,0-13.071,0-1.443,0-2.9.053-4.34,0a1.133,1.133,0,0,1-.068.092,3.286,3.286,0,0,1-1.365,1.063.906.906,0,0,1,1.013.454A37.5,37.5,0,0,0,19.1,114.5a3.052,3.052,0,0,1,.405,2.051l.1,4.631H32.587l-.053-3.572c-.007-.487-.063-1-.022-1.488a6.088,6.088,0,0,1,1.633-2.9,26.419,26.419,0,0,0,2.133-2.721,10.278,10.278,0,0,0,1.353-4.691c.184-3.251-.441-6.507.079-9.742.263-1.635.921-3.138,1.261-4.747a2.477,2.477,0,0,0-.324-2.191" transform="translate(-1.157 -6.97)" fill="#fff"/>
        <path id="Path_389" data-name="Path 389" d="M81.055,37.288a48.67,48.67,0,0,1-2.605,5.3,1.013,1.013,0,0,0,.356,1.357c.87.553,1.681,1.18,2.551,1.728,1.083.684,2.08-1.033,1-1.714-.591-.369-1.157-.783-1.731-1.181.8-1.451,1.467-2.988,2.141-4.494.518-1.155-1.191-2.166-1.713-1" transform="translate(-6.164 -2.894)" fill="#323232"/>
        <path id="Path_390" data-name="Path 390" d="M83.982,50.53a4.23,4.23,0,0,1-5.1-.165c-1.044-.737-2.036.98-1,1.714a6.123,6.123,0,0,0,7.107.165c1.059-.7.066-2.423-1-1.714" transform="translate(-6.095 -3.95)" fill="#323232"/>
        <path id="Path_391" data-name="Path 391" d="M74.02,33.328a.993.993,0,1,0,.949.949.993.993,0,0,0-.949-.949" transform="translate(-5.751 -2.623)" fill="#323232"/>
        <path id="Path_392" data-name="Path 392" d="M88.818,33.328a.993.993,0,1,0,.949.949.993.993,0,0,0-.949-.949" transform="translate(-6.915 -2.623)" fill="#323232"/>
        <path id="Path_393" data-name="Path 393" d="M124.154,92.456a76.467,76.467,0,0,0-2.959-14.35,9.143,9.143,0,0,0-2.416-4.054,29.482,29.482,0,0,0-7.206-4.3C105.4,66.874,98.931,64.794,92.608,62.3A25.96,25.96,0,0,1,90.874,55.8c1.791-2.846,2.58-6.239,3.452-9.451a.9.9,0,0,0-.319-1,11.2,11.2,0,0,1-.379,2.713,11.2,11.2,0,0,0,.379-2.713.983.983,0,0,0-1.388.091.972.972,0,0,0-.206.378c-.789,2.9-1.464,5.928-2.985,8.55A11.7,11.7,0,0,1,82.1,59.782a13.466,13.466,0,0,1-10.007-1.168,15.291,15.291,0,0,1-6.4-7.334c-1.234-3.086-1.445-6.489-1.89-9.749-.172-1.259-2.085-.723-1.914.528.012.087.023.173.034.26A5.5,5.5,0,0,1,58.5,37.877a5.13,5.13,0,0,1,.271-2.862c.369-.894,1.062-2.1,2.167-2a.8.8,0,0,0,.885-.531,3,3,0,0,1-1.536-.293,3,3,0,0,0,1.536.293,1.077,1.077,0,0,0-.622-1.39,1.066,1.066,0,0,0-.176-.051,4.378,4.378,0,0,0,.254,1.148,4.378,4.378,0,0,1-.254-1.148c-.029,0-.056-.01-.087-.013-3.213-.288-4.739,4.068-4.46,6.626.331,3.04,2.343,6.22,5.552,6.736a1.124,1.124,0,0,0,.147.013,30.476,30.476,0,0,0,1.548,7.288A16.732,16.732,0,0,0,66,55.746a1.05,1.05,0,0,0-.022.24,19.211,19.211,0,0,1-1.728,7.263c-6.7,1.857-13.345,3.917-19.985,5.972a.949.949,0,0,0-.692.975c.288-.092.572-.192.848-.3-.276.111-.56.208-.848.3a.937.937,0,0,0,.89.981.924.924,0,0,0,.329-.042c5.909-1.829,11.842-3.573,17.775-5.32a2.628,2.628,0,0,1-.092-.683,2.628,2.628,0,0,0,.092.683l2.32-.684c.864-.255,1.013-.66,1.326-1.481s.636-1.653.91-2.495a17.155,17.155,0,0,0,.743-3.307,18.528,18.528,0,0,0,2.467,2,15.339,15.339,0,0,0,18.939-1.972q.184.872.4,1.738c.334,1.332.695,3.86,2.072,4.47S94.564,65.227,96,65.735a5.528,5.528,0,0,0,.4-.605,5.528,5.528,0,0,1-.4.605c1.368.482,2.743.947,4.091,1.451,3.5,1.307,6.983,2.658,10.367,4.238,2.539,1.183,5.484,2.46,7.439,4.539a6.126,6.126,0,0,1,1,1.668,23.02,23.02,0,0,1,.888,2.621,73.555,73.555,0,0,1,1.658,7.638c1.032,5.955,1.723,11.969,2.319,17.982.356,3.593.681,7.186.93,10.788h1.984c-.564-8.094-1.382-16.18-2.525-24.2" transform="translate(-3.429 -2.441)" fill="#323232"/>
        <path id="Path_394" data-name="Path 394" d="M94.756,9.914a5.152,5.152,0,0,1,.849.092,17.444,17.444,0,0,0-1.32-1.98,1.013,1.013,0,0,0,.472,1.888" transform="translate(-7.381 -0.632)" fill="#323232"/>
        <path id="Path_395" data-name="Path 395" d="M102.724,19.267c-.194-3.218-.829-6.885-3.148-9.305A6.737,6.737,0,0,0,94.8,7.928a.962.962,0,0,0-.472.1A17.44,17.44,0,0,1,95.652,10c3.264.636,4.473,4.35,4.907,7.37a26.71,26.71,0,0,1-.572,10.649,1,1,0,0,0,1.284,1.188,11.315,11.315,0,0,1-.074-2.021,11.315,11.315,0,0,0,.074,2.021.9.9,0,0,0,.628-.661,28.833,28.833,0,0,0,.825-9.284" transform="translate(-7.424 -0.624)" fill="#323232"/>
        <path id="Path_396" data-name="Path 396" d="M90.749,4.786C87.421-.964,79.033-.742,73.588,1.352c-7.3,2.813-13.359,9.566-13.586,17.6a23.659,23.659,0,0,0,1.2,8.258.992.992,0,0,0,1.051.677,4.776,4.776,0,0,0-.271-1.307,4.776,4.776,0,0,1,.271,1.307.9.9,0,0,0,.917-.878.881.881,0,0,0-.054-.327c-1.77-5.11-1.67-11.115,1.4-15.685A20.11,20.11,0,0,1,81.059,2.017c3.066.04,6.35.96,7.977,3.77a.943.943,0,0,0,1.284.366.955.955,0,0,0,.122-.08,11.11,11.11,0,0,0-1.079-.927,11.11,11.11,0,0,1,1.079.927.934.934,0,0,0,.31-1.283l0,0" transform="translate(-4.721 0)" fill="#323232"/>
        <path id="Path_397" data-name="Path 397" d="M97.784,28.4a10.144,10.144,0,0,1-4.215-7.211c-.1-1.122-1.686-1.254-1.95-.373a10.6,10.6,0,0,0,1.819,2.194,10.6,10.6,0,0,1-1.819-2.194.981.981,0,0,0-.033.373,12.35,12.35,0,0,0,5.2,8.925.775.775,0,0,0,.921.074,6.025,6.025,0,0,0-1.094-1.027A6.025,6.025,0,0,1,97.7,30.183a1.106,1.106,0,0,0,.313-1.532,1.121,1.121,0,0,0-.234-.255" transform="translate(-7.208 -1.593)" fill="#323232"/>
        <path id="Path_398" data-name="Path 398" d="M88.882,17.278c-1.673,3.634-4.92,5.365-8.731,6.038a.822.822,0,0,0-.717.915c0,.029.009.059.016.088a1.059,1.059,0,0,0,1.183.919l.046-.007c3.822-.676,7.253-2.471,9.269-5.753a13.33,13.33,0,0,0-.841-1.112,13.33,13.33,0,0,1,.841,1.112,11.346,11.346,0,0,0,.645-1.2c.531-1.153-1.176-2.161-1.711-1" transform="translate(-6.251 -1.319)" fill="#323232"/>
        <path id="Path_399" data-name="Path 399" d="M79.552,18.289c-1.935,2.1-3.834,4.238-5.916,6.195a20.776,20.776,0,0,1-6.982,4.782,1.052,1.052,0,0,0-.516,1.559c.3-.092.59-.184.875-.259-.287.072-.579.162-.875.259a.829.829,0,0,0,1.043.355c3.662-1.294,6.692-3.915,9.441-6.764,1.51-1.566,2.935-3.2,4.33-4.723.864-.941-.535-2.347-1.4-1.4" transform="translate(-5.192 -1.415)" fill="#323232"/>
        <path id="Path_400" data-name="Path 400" d="M103.8,34.249a4.617,4.617,0,0,0-2.3-2.413,1.451,1.451,0,0,1-.626.992,1.451,1.451,0,0,0,.626-.992,3.194,3.194,0,0,0-1.551-.233,1,1,0,0,0-.8.508,3.423,3.423,0,0,0,1.523.916,3.423,3.423,0,0,1-1.523-.916c-.355.618-.092,1.566.8,1.474,2.452-.239,2.558,3.231,2.173,4.848a8.877,8.877,0,0,1-1.239,2.913c-.36.534-1.07,1.452-1.826,1.346-1.162-.163-1.709,1.479-.765,1.852v0a1.054,1.054,0,0,0,.237.062c3.188.447,5.006-3.286,5.56-5.887a7.15,7.15,0,0,0-.286-4.469" transform="translate(-7.698 -2.486)" fill="#323232"/>
        <path id="Path_401" data-name="Path 401" d="M94.233,71.082a8.014,8.014,0,0,0,2.73-1.658.856.856,0,0,0-1.14-.407.92.92,0,0,0-.15.091,27.079,27.079,0,0,1-30.359-.076.817.817,0,0,0-1.063.039,5.318,5.318,0,0,0,1.8,2.014,5.309,5.309,0,0,1-1.8-2.019,1.064,1.064,0,0,0,.062,1.675,29.021,29.021,0,0,0,32.361.076,1.027,1.027,0,0,0,.287-1.4,8.025,8.025,0,0,1-2.729,1.662" transform="translate(-5.027 -5.419)" fill="#323232"/>
        <path id="Path_402" data-name="Path 402" d="M89.472,109.4a114.364,114.364,0,0,0-2.424-13.069,24.8,24.8,0,0,1-.887-6.807,22.379,22.379,0,0,0,.046-5,3.408,3.408,0,0,0-2.275-2.988,3.576,3.576,0,0,0-3.886,2.273,9.9,9.9,0,0,0-.553,2.764c-.148,1.115-.283,2.234-.338,3.358-.061,1.235.1,3.424-.847,4.493a218.614,218.614,0,0,0-23.049-8.945c-1.175-.4-2.439-.976-3.646-.346a3.477,3.477,0,0,0-1.262,4.753c.037.062.075.123.114.182a7.3,7.3,0,0,0,3.092,1.943c1.283.578,2.58,1.118,3.89,1.645a3.769,3.769,0,0,0-1.106,2.574,3.458,3.458,0,0,0,.679,2.351,2.8,2.8,0,0,0-1.644,1.914c-.624,2.082.482,3.453,2.124,4.44-.047.041-.092.084-.141.13a3.208,3.208,0,0,0-.581,3.5c.645,1.361,2.185,2,3.447,2.646,4.527,2.325,9.526,4.975,12.242,9.409h2.248a16.643,16.643,0,0,0-3.628-4.791,37.547,37.547,0,0,0-6.036-4.238c-1.165-.7-2.355-1.34-3.566-1.957-.887-.451-2.877-1.081-3.007-2.233-.147-1.306.859-1.4,2.012-1.136.8.284,1.583.53,2.247.763.264.1.482.189.625.231,1.253.369,1.687-1.455.528-1.914-1.29-.51-2.6-.954-3.891-1.474-1.211-.49-3.285-1.153-2.712-2.849.537-1.59,2.983-.362,4.03-.012,1.232.413,2.487.759,3.7,1.215s1.676-1.434.528-1.914c-1.258-.526-2.535-1.007-3.8-1.509-.9-.358-3.132-.814-3.395-1.927a1.584,1.584,0,0,1,1-2l.012,0a2.827,2.827,0,0,1,1.059-.031q3.18,1.244,6.386,2.421c1.051.386,1.768-1.311.765-1.813A32.542,32.542,0,0,0,61.965,93.2c-.334-.092-.674-.184-1.013-.243-2.046-.8-4.079-1.623-6.081-2.511a11.847,11.847,0,0,1-2.513-1.25c-.768-.6-.62-2.447.592-2.367a9.368,9.368,0,0,1,2.124.689q1.857.636,3.7,1.3,5.032,1.8,10.013,3.747c1.7.666,3.4,1.346,5.077,2.057q1.09.46,2.171.942a13.131,13.131,0,0,0,2.162.99c1.719.4,2.55-2.616,2.744-3.787.328-1.988.247-4.035.513-6.039a5.151,5.151,0,0,1,.722-2.645c.522-.645,1.382-.9,1.816-.086.849,1.6.26,3.831.184,5.535A29.813,29.813,0,0,0,85.4,97.924c.673,2.731,1.119,5.445,1.579,8.215.239,1.437.511,2.872.621,4.33.1,1.329-.039,2.656.107,3.983a40.817,40.817,0,0,0,1.34,6.18H91.1c-.461-1.7-.939-3.409-1.252-5.142-.369-2.026-.135-4.062-.375-6.089" transform="translate(-3.926 -6.411)" fill="#323232"/>
        <path id="Path_403" data-name="Path 403" d="M35.087,70.483V68.075c-.1-1.785-2.516-1.347-3.731-1.347H18.907c-.977,0-1.994-.082-2.968,0-1.29.109-1.348,1.186-1.348,2.2v1.554ZM21.674,67.332H28a.993.993,0,0,1,0,1.984h-6.33a.993.993,0,0,1,0-1.984" transform="translate(-1.148 -5.248)" fill="#fff"/>
        <path id="Path_404" data-name="Path 404" d="M16.954,93.039a3.132,3.132,0,0,1-2.364,3.013v.236a7.434,7.434,0,0,1,1.625,1.166,3.058,3.058,0,0,1,.563,3.1H35.086V72.962h-20.5V89.63c1.216.825,2.4,1.913,2.363,3.409" transform="translate(-1.148 -5.742)" fill="#ffda2b"/>
        <path id="Path_405" data-name="Path 405" d="M33.314,105.064H15.029a3.98,3.98,0,0,1,1.2,1.165,3.126,3.126,0,0,1,.461,1.486H28.8c1.554,0,3.11.026,4.665,0,1.625-.027,1.715-1.361,1.68-2.651Z" transform="translate(-1.183 -8.269)" fill="#fff"/>
        <path id="Path_406" data-name="Path 406" d="M22.2,69.372h6.333a.993.993,0,0,0,0-1.984H22.2a.993.993,0,0,0,0,1.984" transform="translate(-1.672 -5.304)" fill="#323232"/>
        <path id="Path_407" data-name="Path 407" d="M12.747,99.751c-.814-.522-1.908-1.523-2.715-.369-.9,1.29.668,1.951,1.534,2.509.8.513,2.008,1.618,2.8.416.8-1.387-.653-1.937-1.615-2.557" transform="translate(-0.768 -7.78)" fill="#fff"/>
        <path id="Path_408" data-name="Path 408" d="M12.958,106.358c-.7-.476-1.634-1.021-2.288-.113-.728,1.013.29,1.712,1.021,2.211.7.477,1.765,1.258,2.445.22.661-1.165-.352-1.76-1.178-2.318" transform="translate(-0.82 -8.323)" fill="#fff"/>
        <path id="Path_409" data-name="Path 409" d="M12.625,95.494a1.242,1.242,0,0,0,1.644-.121,1.22,1.22,0,0,0,.219-1.438,3.8,3.8,0,0,0-1.085-.9,13.4,13.4,0,0,0-1.1-.791c-.953-.546-2.386.474-1.843,1.573.346.69,1.558,1.243,2.161,1.674" transform="translate(-0.814 -7.248)" fill="#fff"/>
        <path id="Path_410" data-name="Path 410" d="M36.413,84.726V74.512a5.266,5.266,0,0,0-.889.792,5.266,5.266,0,0,1,.889-.792v-6.48a1.753,1.753,0,0,0-.023-.354,3.4,3.4,0,0,0-3.308-3.1c-.319-.013-.64,0-.958,0H18.638a24.416,24.416,0,0,0-3.893.052c-3.317.548-2.8,4.209-2.8,6.68V81.44a1.09,1.09,0,0,0-.24-.238c-2.377-1.729-6.06-.158-5.4,3.04.373,1.82,2.226,2.933,3.559,4.054h.006a3.336,3.336,0,0,0-1.794,2.745c-.087,1.484.93,2.39,2.035,3.17A3.354,3.354,0,0,0,8.042,95.68a3.2,3.2,0,0,0,.24,3.822,8.39,8.39,0,0,0,1.785,1.264,2.982,2.982,0,0,0-1.438,1.228,3.249,3.249,0,0,0-.088,3.278,5.279,5.279,0,0,0,1.82,1.645,4.41,4.41,0,0,0,2.251.989,3.158,3.158,0,0,0,.4-.006,6.584,6.584,0,0,0-.7-.651,6.584,6.584,0,0,1,.7.651,3.22,3.22,0,0,0,.753-.14,1.088,1.088,0,0,0-.469.461c.485.57.9,1.189,1.4,1.808-.495-.619-.913-1.237-1.4-1.808a.9.9,0,0,0,.044.9,28.407,28.407,0,0,0,3.5,4.676q.059,2.747.12,5.494h1.984l-.1-4.631a3.052,3.052,0,0,0-.405-2.051,37.5,37.5,0,0,1-3.388-4.489.906.906,0,0,0-1.013-.454A3.286,3.286,0,0,0,15.4,106.6a1.134,1.134,0,0,0,.068-.092c1.443.049,2.9,0,4.34,0,4.356,0,8.716.064,13.071,0a3.443,3.443,0,0,0,3.211-1.924,8.8,8.8,0,0,0,.323-3.7V86.923c.024-.016.049-.031.073-.049.561-.419,1.076-.144,1.493.369a2.475,2.475,0,0,1,.326,2.188c-.339,1.61-1,3.112-1.261,4.747-.52,3.235.107,6.491-.079,9.742a10.29,10.29,0,0,1-1.353,4.691,26.419,26.419,0,0,1-2.133,2.721,6.088,6.088,0,0,0-1.633,2.9c-.041.486.015,1,.022,1.488l.053,3.572h1.984q-.025-1.7-.051-3.4-.008-.579-.018-1.158a2.943,2.943,0,0,1-.006-.382v-.018s0,0,.006-.006a12.843,12.843,0,0,1,2.409-3.257,13.176,13.176,0,0,0,2.729-8.86c-.021-1.813-.2-3.626-.178-5.436a17.177,17.177,0,0,1,.948-5.144c.553-1.708,1.1-3.647.038-5.278a3.366,3.366,0,0,0-3.371-1.621M13.934,68.758c0-1.013.055-2.091,1.348-2.2.975-.082,1.991,0,2.968,0H30.7c1.215,0,3.628-.439,3.731,1.347v2.408h-20.5Zm0,6.173V72.3h20.5V99.889H16.12a3.058,3.058,0,0,0-.563-3.1,7.434,7.434,0,0,0-1.625-1.166v-.236A3.132,3.132,0,0,0,16.3,92.374c.041-1.5-1.147-2.584-2.364-3.409ZM9.027,85.011c-.567-.5-1.131-1.338-.639-2.1.545-.839,1.658-.482,2.32,0a.8.8,0,0,0,1.106-.074,1.7,1.7,0,0,1-.494-.79,1.7,1.7,0,0,0,.494.79,1.057,1.057,0,0,0,.14-.173v.314a1.817,1.817,0,0,1,.557.855,1.817,1.817,0,0,0-.557-.855v4.984a3.092,3.092,0,0,0-.442-.049.809.809,0,0,0-.24-1.025c-.751-.626-1.516-1.234-2.244-1.88Zm2.956,5.067a13.4,13.4,0,0,1,1.1.791,3.8,3.8,0,0,1,1.085.9,1.219,1.219,0,0,1-.219,1.438,1.242,1.242,0,0,1-1.644.121c-.6-.436-1.815-.988-2.158-1.674-.548-1.1.885-2.121,1.838-1.574Zm1.824,15.351c-.679,1.036-1.742.257-2.445-.22-.731-.5-1.75-1.2-1.021-2.211.653-.907,1.586-.363,2.288.113.825.564,1.839,1.154,1.177,2.316Zm.276-5.818c-.787,1.2-2,.1-2.8-.416-.866-.553-2.435-1.217-1.534-2.509.808-1.158,1.9-.158,2.715.369.962.614,2.417,1.165,1.615,2.556Zm18.691,4.914c-1.553.026-3.11,0-4.664,0H16a3.126,3.126,0,0,0-.461-1.486,3.98,3.98,0,0,0-1.2-1.165H34.456c.033,1.29-.053,2.624-1.681,2.651Z" transform="translate(-0.49 -5.078)" fill="#323232"/>
      </g>
    </g>
  </g>
</svg>
