<svg id="Group_8538" data-name="Group 8538" xmlns="http://www.w3.org/2000/svg" xmlns:xlink="http://www.w3.org/1999/xlink" width="154.379" height="129.108" viewBox="0 0 154.379 129.108">
  <defs>
    <clipPath id="clip-path">
      <rect id="Rectangle_3325" data-name="Rectangle 3325" width="154.379" height="129.108" fill="none"/>
    </clipPath>
    <clipPath id="clip-path-3">
      <rect id="Rectangle_3310" data-name="Rectangle 3310" width="102.505" height="59.335" fill="none"/>
    </clipPath>
    <clipPath id="clip-path-5">
      <rect id="Rectangle_3312" data-name="Rectangle 3312" width="78.356" height="52.075" fill="none"/>
    </clipPath>
    <clipPath id="clip-path-6">
      <rect id="Rectangle_3313" data-name="Rectangle 3313" width="22.086" height="19.798" fill="none"/>
    </clipPath>
    <clipPath id="clip-path-13">
      <rect id="Rectangle_3320" data-name="Rectangle 3320" width="102.506" height="59.335" fill="none"/>
    </clipPath>
  </defs>
  <g id="Group_8520" data-name="Group 8520" clip-path="url(#clip-path)">
    <g id="Group_8485" data-name="Group 8485">
      <g id="Group_8484" data-name="Group 8484" clip-path="url(#clip-path)">
        <path id="Path_26034" data-name="Path 26034" d="M151.511,77.924l1.684-.979.1-23.751L130.565,40.071,116.105,17.66l-13.56,2.914L90.88,2.494,73.128,6.308l-6.922-4-14.972,8.7L36.872,14.1l2.468,3.826L25.565,25.929l-.1,23.751,1.785,1.031-1.684.979,1.638.946L15.237,55.206l2.469,3.826L3.93,67.038l-.1,23.75,1.785,1.031L3.93,92.8l61.864,35.718,31.392-18.243,4.806-.4-.247-2.245,4.69-2.725-1.785-1.031,1.684-.979.017-3.955,6.3,3.64L144.047,84.33l4.806-.4-.247-2.245,4.69-2.725Z" transform="translate(-1.424 -0.859)" fill="none" stroke="#eaeaea" stroke-miterlimit="10" stroke-width="4"/>
        <g id="Group_8483" data-name="Group 8483" transform="translate(49.367 42.378)" opacity="0.2">
          <g id="Group_8482" data-name="Group 8482">
            <g id="Group_8481" data-name="Group 8481" clip-path="url(#clip-path-3)">
              <path id="Path_26035" data-name="Path 26035" d="M181.09,103.177l-40.641,23.618L78.585,91.077,119.226,67.46Z" transform="translate(-78.585 -67.46)" fill="#343538"/>
            </g>
          </g>
        </g>
      </g>
    </g>
    <path id="Path_26036" data-name="Path 26036" d="M181.09,62.171,140.449,85.789,78.585,50.071l40.641-23.618Z" transform="translate(-29.218 -9.835)" fill="#fff"/>
    <path id="Path_26037" data-name="Path 26037" d="M217.645,83.31l-.1,23.751L176.9,130.679l.1-23.751Z" transform="translate(-65.773 -30.975)" fill="#d0d0d0"/>
    <path id="Path_26038" data-name="Path 26038" d="M200.269,133.488l-15.31,8.978L206.8,132.009Z" transform="translate(-68.768 -49.081)" fill="#b4b4b4"/>
    <path id="Path_26039" data-name="Path 26039" d="M140.389,99.767l-.1,23.751L78.424,87.8l.1-23.751Z" transform="translate(-29.158 -23.814)" fill="#dfdfdf"/>
    <path id="Path_26040" data-name="Path 26040" d="M90.857,89.266,118.6,102.483,90.857,92.026Z" transform="translate(-33.781 -33.189)" fill="#d0d0d0"/>
    <path id="Path_26041" data-name="Path 26041" d="M214.569,92.907l-18.038,10.483,16,1.771Z" transform="translate(-73.07 -34.543)" fill="#e5e5e5"/>
    <g id="Group_8493" data-name="Group 8493">
      <g id="Group_8492" data-name="Group 8492" clip-path="url(#clip-path)">
        <g id="Group_8488" data-name="Group 8488" transform="translate(63.868 21.381)" opacity="0.2">
          <g id="Group_8487" data-name="Group 8487">
            <g id="Group_8486" data-name="Group 8486" clip-path="url(#clip-path-5)">
              <path id="Path_26042" data-name="Path 26042" d="M109.964,39.642l-8.3,4.821,17.274,26.773L144.707,86.11l13.681-2.939L180.024,70.6,168.531,52.784,136.059,34.036Z" transform="translate(-101.668 -34.036)" fill="#343538"/>
            </g>
          </g>
        </g>
        <g id="Group_8491" data-name="Group 8491" transform="translate(84.82 60.382)" opacity="0.2">
          <g id="Group_8490" data-name="Group 8490">
            <g id="Group_8489" data-name="Group 8489" clip-path="url(#clip-path-6)">
              <path id="Path_26043" data-name="Path 26043" d="M135.02,96.119l13.006,19.8,9.081-6.724Z" transform="translate(-135.02 -96.119)" fill="#343538"/>
            </g>
          </g>
        </g>
      </g>
    </g>
    <path id="Path_26044" data-name="Path 26044" d="M150.592,26.744l-54.008,11.6,30.562,47.367L159.37,78.79l18.039-10.483Z" transform="translate(-35.91 -9.943)" fill="#fff"/>
    <path id="Path_26045" data-name="Path 26045" d="M95.079,91.285,84.7,86.32v6.155Z" transform="translate(-31.491 -32.094)" fill="#fff"/>
    <path id="Path_26046" data-name="Path 26046" d="M209.33,129.36l15.147-8.454.781,7.113Z" transform="translate(-77.829 -44.953)" fill="#fff"/>
    <g id="Group_8498" data-name="Group 8498">
      <g id="Group_8497" data-name="Group 8497" clip-path="url(#clip-path)">
        <g id="Group_8496" data-name="Group 8496" transform="translate(2.507 68.321)" opacity="0.2">
          <g id="Group_8495" data-name="Group 8495">
            <g id="Group_8494" data-name="Group 8494" clip-path="url(#clip-path-3)">
              <path id="Path_26047" data-name="Path 26047" d="M106.5,144.474,65.855,168.092,3.99,132.374l40.641-23.618Z" transform="translate(-3.99 -108.757)" fill="#343538"/>
            </g>
          </g>
        </g>
      </g>
    </g>
    <path id="Path_26048" data-name="Path 26048" d="M106.5,103.468,65.855,127.086,3.99,91.368,44.631,67.75Z" transform="translate(-1.484 -25.19)" fill="#fff"/>
    <path id="Path_26049" data-name="Path 26049" d="M143.05,124.607l-.1,23.751-40.641,23.618.1-23.751Z" transform="translate(-38.038 -46.329)" fill="#d0d0d0"/>
    <path id="Path_26050" data-name="Path 26050" d="M125.674,174.785l-15.31,8.978L132.2,173.306Z" transform="translate(-41.033 -64.435)" fill="#b4b4b4"/>
    <path id="Path_26051" data-name="Path 26051" d="M65.795,141.064l-.1,23.751L3.829,129.1l.1-23.751Z" transform="translate(-1.424 -39.168)" fill="#dfdfdf"/>
    <path id="Path_26052" data-name="Path 26052" d="M16.262,130.563,44.006,143.78,16.262,133.323Z" transform="translate(-6.046 -48.543)" fill="#d0d0d0"/>
    <path id="Path_26053" data-name="Path 26053" d="M139.974,134.2l-18.038,10.483,16,1.771Z" transform="translate(-45.336 -49.897)" fill="#e5e5e5"/>
    <g id="Group_8506" data-name="Group 8506">
      <g id="Group_8505" data-name="Group 8505" clip-path="url(#clip-path)">
        <g id="Group_8501" data-name="Group 8501" transform="translate(17.008 47.324)" opacity="0.2">
          <g id="Group_8500" data-name="Group 8500">
            <g id="Group_8499" data-name="Group 8499" clip-path="url(#clip-path-5)">
              <path id="Path_26054" data-name="Path 26054" d="M35.369,80.939l-8.3,4.821,17.274,26.773,25.764,14.874,13.681-2.939,21.636-12.574L93.936,94.081,61.464,75.333Z" transform="translate(-27.074 -75.333)" fill="#343538"/>
            </g>
          </g>
        </g>
        <g id="Group_8504" data-name="Group 8504" transform="translate(37.959 86.325)" opacity="0.2">
          <g id="Group_8503" data-name="Group 8503">
            <g id="Group_8502" data-name="Group 8502" clip-path="url(#clip-path-6)">
              <path id="Path_26055" data-name="Path 26055" d="M60.425,137.416l13.006,19.8,9.081-6.724Z" transform="translate(-60.425 -137.416)" fill="#343538"/>
            </g>
          </g>
        </g>
      </g>
    </g>
    <path id="Path_26056" data-name="Path 26056" d="M76,68.041l-54.008,11.6,30.562,47.367,32.224-6.924L102.814,109.6Z" transform="translate(-8.176 -25.298)" fill="#fff"/>
    <path id="Path_26057" data-name="Path 26057" d="M20.484,132.582l-10.379-4.964v6.155Z" transform="translate(-3.757 -47.448)" fill="#fff"/>
    <path id="Path_26058" data-name="Path 26058" d="M134.736,170.657l15.147-8.454.781,7.113Z" transform="translate(-50.095 -60.307)" fill="#fff"/>
    <g id="Group_8511" data-name="Group 8511">
      <g id="Group_8510" data-name="Group 8510" clip-path="url(#clip-path)">
        <g id="Group_8509" data-name="Group 8509" transform="translate(24.141 27.212)" opacity="0.2">
          <g id="Group_8508" data-name="Group 8508">
            <g id="Group_8507" data-name="Group 8507" clip-path="url(#clip-path-13)">
              <path id="Path_26059" data-name="Path 26059" d="M140.935,79.035l-40.641,23.618L38.43,66.935,79.07,43.318Z" transform="translate(-38.43 -43.318)" fill="#343538"/>
            </g>
          </g>
        </g>
      </g>
    </g>
    <path id="Path_26060" data-name="Path 26060" d="M140.935,38.029,100.294,61.647,38.43,25.929,79.07,2.311Z" transform="translate(-14.288 -0.859)" fill="#fff"/>
    <path id="Path_26061" data-name="Path 26061" d="M177.49,59.168l-.1,23.751-40.641,23.618.1-23.751Z" transform="translate(-50.843 -21.999)" fill="#d0d0d0"/>
    <path id="Path_26062" data-name="Path 26062" d="M160.113,109.346l-15.31,8.978,21.841-10.457Z" transform="translate(-53.838 -40.105)" fill="#b4b4b4"/>
    <path id="Path_26063" data-name="Path 26063" d="M100.234,75.625l-.1,23.751L38.268,63.658l.1-23.751Z" transform="translate(-14.228 -14.838)" fill="#dfdfdf"/>
    <path id="Path_26064" data-name="Path 26064" d="M50.7,65.124,78.445,78.341,50.7,67.884Z" transform="translate(-18.851 -24.213)" fill="#d0d0d0"/>
    <path id="Path_26065" data-name="Path 26065" d="M174.413,68.765,156.375,79.247l16,1.771Z" transform="translate(-58.14 -25.567)" fill="#e5e5e5"/>
    <g id="Group_8519" data-name="Group 8519">
      <g id="Group_8518" data-name="Group 8518" clip-path="url(#clip-path)">
        <g id="Group_8514" data-name="Group 8514" transform="translate(38.643 6.215)" opacity="0.2">
          <g id="Group_8513" data-name="Group 8513">
            <g id="Group_8512" data-name="Group 8512" clip-path="url(#clip-path-5)">
              <path id="Path_26066" data-name="Path 26066" d="M69.809,15.5l-8.3,4.821L78.788,47.094l25.764,14.875,13.681-2.939,21.636-12.574L128.376,28.642,95.9,9.894Z" transform="translate(-61.513 -9.894)" fill="#343538"/>
            </g>
          </g>
        </g>
        <g id="Group_8517" data-name="Group 8517" transform="translate(59.594 45.216)" opacity="0.2">
          <g id="Group_8516" data-name="Group 8516">
            <g id="Group_8515" data-name="Group 8515" clip-path="url(#clip-path-6)">
              <path id="Path_26067" data-name="Path 26067" d="M94.865,71.977l13.006,19.8,9.081-6.724Z" transform="translate(-94.865 -71.977)" fill="#343538"/>
            </g>
          </g>
        </g>
      </g>
    </g>
    <path id="Path_26068" data-name="Path 26068" d="M110.436,2.6l-54.008,11.6L86.991,61.572l32.224-6.924,18.039-10.483Z" transform="translate(-20.98 -0.967)" fill="#fff"/>
    <path id="Path_26069" data-name="Path 26069" d="M54.924,67.143,44.545,62.178v6.155Z" transform="translate(-16.562 -23.118)" fill="#fff"/>
    <path id="Path_26070" data-name="Path 26070" d="M169.175,105.218l15.147-8.454.781,7.113Z" transform="translate(-62.899 -35.977)" fill="#fff"/>
  </g>
</svg>
