<svg id="グループ_9235" data-name="グループ 9235" xmlns="http://www.w3.org/2000/svg" width="238.29" height="54.223" viewBox="0 0 238.29 54.223">
  <path id="パス_4361" data-name="パス 4361" d="M392.011,185.286v7.555H377.676v35.665h-7.727V192.841H355.613v-7.555Z" transform="translate(-292.383 -178.438)" fill="#fff"/>
  <path id="パス_4362" data-name="パス 4362" d="M401.159,207.244v6.624H388.575v-6.624Z" transform="translate(-295.422 -180.802)" fill="#fff"/>
  <path id="パス_4363" data-name="パス 4363" d="M433.049,185.286c9.869,0,14.09,6.019,14.09,12.934,0,5.378-2.6,11.141-9.285,13l10.2,17.288h-8.509l-10-16.711H418.116a.975.975,0,0,0-.832.268.945.945,0,0,0-.272.821v15.623H409.35v-17.1c0-4.865,2.077-6.851,6.882-6.851h17.079c4.35,0,6.1-2.946,6.1-6.019s-1.883-5.7-6.1-5.7H409.545v-7.555Z" transform="translate(-297.337 -178.438)" fill="#fff"/>
  <path id="パス_4364" data-name="パス 4364" d="M509.6,185.286l12.42,15.945,13.02-15.944H543.8l-17.341,21.258,17.459,21.961h-8.638l-13.44-17.161-13.8,17.16h-8.761L517.4,205.967l-16.441-20.681Z" transform="translate(-305.63 -178.438)" fill="#fff"/>
  <g id="グループ_9234" data-name="グループ 9234" transform="translate(0 0)">
    <path id="パス_4365" data-name="パス 4365" d="M324.73,183.526a1.965,1.965,0,1,0,1.965,1.965,1.965,1.965,0,0,0-1.965-1.965Z" transform="translate(-289.354 -178.276)" fill="#fff"/>
    <path id="パス_4366" data-name="パス 4366" d="M331.483,201.839a1.785,1.785,0,0,0-.372-1.706c-1.129-1.564-3.247-1.758-4.509-1.873-.243-.023-.548-.051-.649-.076-.345-.086-.8-.219-1.195-.34l.092-1.823c1.768.2,5.005.531,8.121.671a7.5,7.5,0,0,0,6.269-2.737c1.861-2.317,2.3-5.636,1.249-9.346-1.491-5.244-6.27-7.608-13.457-6.663a23.46,23.46,0,0,0-2.741.531,4.072,4.072,0,0,1-2.408.113h0c-1.975-.489-4.773.323-7.668,2.231-2.541,1.675-2.685,3.516-2.886,6.064-.043.551-.092,1.159-.167,1.836a19.664,19.664,0,0,0,.594,6.784c.077.337.169.737.209.987a21.135,21.135,0,0,1-2.237,1.577c-1.472.964-3.486,2.283-6,4.219-4.3,3.307-4.757,6.635-5.194,9.845a21.813,21.813,0,0,1-.846,4.123c-1.037,3.076-7.8,1.762-10.087,1.057a1.268,1.268,0,0,0-1.46.554,1.237,1.237,0,0,0,.207,1.532c.721.689,7.155,6.734,11.5,6.734,3.112,0,6.771-1.352,9.076-2.267a19.565,19.565,0,0,0-.523,2.548c-.443,3.21.454,4.07,2.381,4.6.177.048.366.1.569.166a6.845,6.845,0,0,0,2.144.309,16.1,16.1,0,0,0,5.352-1.121,1.943,1.943,0,0,0,1.169-2.069,15.568,15.568,0,0,0,17.434,1.8,15.2,15.2,0,0,0-3.957-28.261Zm-21.345,26.978c-.245-.081-.475-.143-.691-.2s-.541-.148-.586-.163a3.614,3.614,0,0,1,.031-1.694,17.047,17.047,0,0,1,.853-3.481c.26-.76.53-1.544-.12-2.189a1.378,1.378,0,0,0-1.01-.4,2.425,2.425,0,0,0-.768.143c-.257.084-.67.25-1.2.462-2.05.823-5.865,2.354-8.812,2.354-1.54,0-3.95-1.4-6.143-3.02,3.283.281,7.23-.158,8.381-3.573a23.856,23.856,0,0,0,.953-4.577c.423-3.09.758-5.532,4.246-8.215,2.44-1.876,4.408-3.166,5.844-4.108,2.325-1.525,3.387-2.22,3.387-3.465a8.5,8.5,0,0,0-.292-1.727,17.511,17.511,0,0,1-.548-5.959c.079-.708.129-1.344.175-1.919.187-2.377.25-3.178,1.77-4.181,2.236-1.473,4.4-2.2,5.655-1.887a6.5,6.5,0,0,0,3.627-.111,20.867,20.867,0,0,1,2.467-.48c5.953-.785,9.553.852,10.7,4.866.83,2.919.548,5.446-.794,7.12a4.887,4.887,0,0,1-4.179,1.8c-4.473-.2-9.216-.808-9.263-.814a1.271,1.271,0,0,0-.971.279,1.242,1.242,0,0,0-.451.9l-.208,4.118a1.247,1.247,0,0,0,.866,1.246c.052.017,1.154.378,2.007.606a2.913,2.913,0,0,0-1.938.713,1.934,1.934,0,0,0-.563,1.2,15.284,15.284,0,0,0-9.34,9.934,15.077,15.077,0,0,0,2.388,13.357,3.9,3.9,0,0,0-.165,2.14c.013.1.029.219.041.331-1.4.494-3.853,1.1-5.345.611Zm17.892.666a12.775,12.775,0,1,1,12.919-12.774,12.847,12.847,0,0,1-12.919,12.774Z" transform="translate(-285.961 -177.742)" fill="#fff"/>
    <g id="グループ_9233" data-name="グループ 9233" transform="translate(30.258 27.023)">
      <g id="グループ_9231" data-name="グループ 9231" transform="translate(0 11.245)">
        <path id="パス_4367" data-name="パス 4367" d="M321.778,221.622H319.83a.526.526,0,1,1,0-1.051h1.948a.526.526,0,1,1,0,1.051Z" transform="translate(-319.285 -220.57)" fill="#fff"/>
        <path id="パス_4368" data-name="パス 4368" d="M344.447,221.622H342.5a.526.526,0,1,1,0-1.051h1.948a.526.526,0,1,1,0,1.051Z" transform="translate(-321.375 -220.57)" fill="#fff"/>
      </g>
      <g id="グループ_9232" data-name="グループ 9232" transform="translate(11.283 0)">
        <path id="パス_4369" data-name="パス 4369" d="M332.247,233.836a.525.525,0,0,1-.526-.526v-1.948a.526.526,0,0,1,1.051,0v1.948a.525.525,0,0,1-.525.526Z" transform="translate(-331.721 -210.278)" fill="#fff"/>
        <path id="パス_4370" data-name="パス 4370" d="M332.247,211.168a.526.526,0,0,1-.526-.526v-1.948a.526.526,0,0,1,1.051,0v1.948A.526.526,0,0,1,332.247,211.168Z" transform="translate(-331.721 -208.188)" fill="#fff"/>
      </g>
    </g>
    <path id="パス_4371" data-name="パス 4371" d="M338.347,225.722l-3.416-3.422a3.087,3.087,0,0,1-1.472,1.472l3.419,3.42a1.041,1.041,0,0,0,1.472-1.472Z" transform="translate(-290.341 -182.348)" fill="#fff" fill-rule="evenodd"/>
    <path id="パス_4372" data-name="パス 4372" d="M337.889,209.725a1.044,1.044,0,0,0-1.422.381l-3.855,6.675a3.068,3.068,0,0,1,1.8,1.048l3.859-6.683A1.044,1.044,0,0,0,337.889,209.725Z" transform="translate(-290.262 -181.058)" fill="#fff" fill-rule="evenodd"/>
    <path id="パス_4373" data-name="パス 4373" d="M331.8,218.587a2.06,2.06,0,1,1-2.06,2.06A2.06,2.06,0,0,1,331.8,218.587Z" transform="translate(-289.997 -181.955)" fill="#fff" fill-rule="evenodd"/>
  </g>
  <rect id="長方形_23081" data-name="長方形 23081" width="35.697" height="7.662" transform="translate(154.702 42.405)" fill="#fff"/>
  <rect id="長方形_23082" data-name="長方形 23082" width="35.624" height="7.662" transform="translate(154.702 6.848)" fill="#fff"/>
  <rect id="長方形_23083" data-name="長方形 23083" width="35.26" height="6.947" transform="translate(154.702 24.902)" fill="#fff"/>
</svg>
