<svg id="Group_8340" data-name="Group 8340" xmlns="http://www.w3.org/2000/svg" xmlns:xlink="http://www.w3.org/1999/xlink" width="130.651" height="114.164" viewBox="0 0 130.651 114.164">
  <defs>
    <clipPath id="clip-path">
      <rect id="Rectangle_162" data-name="Rectangle 162" width="130.651" height="114.164" fill="none"/>
    </clipPath>
  </defs>
  <g id="Group_176" data-name="Group 176" clip-path="url(#clip-path)">
    <path id="Path_449" data-name="Path 449" d="M4.251,56.084,7.59,59.422a.974.974,0,0,0,1.377-1.377L5.628,54.707a.974.974,0,0,0-1.377,1.377" transform="translate(-0.437 -5.962)" fill="#64c8e6"/>
    <path id="Path_450" data-name="Path 450" d="M11.142,51.661l1.222,4.56a.974.974,0,0,0,1.877-.517l-1.222-4.56a.974.974,0,0,0-1.877.517" transform="translate(-1.217 -5.526)" fill="#64c8e6"/>
    <path id="Path_451" data-name="Path 451" d="M.687,63.475,5.247,64.7a.974.974,0,0,0,.517-1.877L1.2,61.6a.974.974,0,0,0-.517,1.877Z" transform="translate(0 -6.742)" fill="#64c8e6"/>
    <path id="Path_452" data-name="Path 452" d="M49.946,93.772a3.951,3.951,0,0,1-.669.116c-1.1.094-2.208.183-3.311.274A12.2,12.2,0,0,0,42.3,97.67a1.052,1.052,0,0,1-.294.267c-.81.5-2.048-.366-1.387-1.252a22.234,22.234,0,0,1,1.888-2.242c-5.543.445-11.09.854-16.634,1.292l-4.631.366-.267.022c.1.245.2.486.306.729a1.016,1.016,0,0,1,.947.925,89.871,89.871,0,0,1,.165,12.34.988.988,0,0,1-1.2.923v1.323A10.248,10.248,0,0,0,25.1,113.59a31.5,31.5,0,0,0,6.243.334,30.535,30.535,0,0,0,6.022-.735,10.816,10.816,0,0,0,2.654-.88c-.006-.118-.013-.238-.02-.356a.939.939,0,0,1-1.129-.929v-2.55a.918.918,0,0,1,.895-.94c.023,0,.045,0,.068,0,0-.1.007-.2.011-.3a22.671,22.671,0,0,1-2.867.858c-1.222.279-1.738-1.6-.517-1.877a17.779,17.779,0,0,0,8.126-4.027.941.941,0,0,1,.072-.061c.058-.089.113-.178.169-.267.864-1.379,1.525-2.884,2.52-4.185a5.98,5.98,0,0,1,1.455-1.35,6.83,6.83,0,0,0,1.666-1.223c.4-.5-.028-1.038-.525-1.334" transform="translate(-2.297 -10.269)" fill="#fff"/>
    <path id="Path_453" data-name="Path 453" d="M92.394,69.637a.853.853,0,0,1,.685-.742,23.07,23.07,0,0,0,9.4-4.694,1.072,1.072,0,0,1-.028-.213q-.032-.992-.063-1.984a15.091,15.091,0,0,1-18.155,1.514,18.21,18.21,0,0,1-3.144-2.709V63.2a.982.982,0,0,1-.1.441A24.354,24.354,0,0,0,91.1,68.895a.884.884,0,0,1,.66.659.87.87,0,0,1,.048.363c.189,0,.375-.009.559-.025a.876.876,0,0,1,.022-.255" transform="translate(-8.869 -6.659)" fill="#fff"/>
    <path id="Path_454" data-name="Path 454" d="M93.35,71.01c-.184.016-.37.025-.559.025a.994.994,0,0,1-.127.407l-2.744,4.965,1.834,3.117a18.513,18.513,0,0,1,2.63,0l1.834-3.117-2.744-4.965a.982.982,0,0,1-.123-.432" transform="translate(-9.847 -7.776)" fill="#64c8e6"/>
    <path id="Path_455" data-name="Path 455" d="M100.916,123.492a58.25,58.25,0,0,1-1.8-7.9c-.143-1.3-.008-2.6-.105-3.907-.107-1.425-.375-2.834-.609-4.244-.451-2.718-.891-5.38-1.549-8.059a29.277,29.277,0,0,1-1.192-8.233c.075-1.671.653-3.855-.178-5.432-.363-.687-1.031-.6-1.538-.166.031.078.063.156.089.235-.03-.079-.062-.157-.089-.235a1.9,1.9,0,0,0-.243.25,5.05,5.05,0,0,0-.712,2.595c-.261,1.965-.178,3.973-.5,5.924-.19,1.148-1.005,4.1-2.692,3.714a12.889,12.889,0,0,1-2.121-.972q-1.059-.474-2.129-.925l-.509-.213a4.765,4.765,0,0,1-.148.566,4.765,4.765,0,0,0,.148-.566Q82.8,94.994,80.56,94.12q-4.882-1.914-9.822-3.675Q68.925,89.8,67.1,89.168a9.165,9.165,0,0,0-2.084-.676c-1.19-.078-1.336,1.729-.581,2.322A11.638,11.638,0,0,0,66.9,92.04c1.965.871,3.959,1.683,5.966,2.463.336.061.669.145,1,.239a32.014,32.014,0,0,1,5.5,2.212c.98.492.281,2.158-.75,1.781q-3.144-1.157-6.266-2.375a2.775,2.775,0,0,0-1.039.03,1.554,1.554,0,0,0-1,1.957l0,.012c.256,1.092,2.444,1.539,3.33,1.891,1.247.492,2.493.964,3.73,1.48,1.126.471.673,2.322-.517,1.877s-2.423-.787-3.631-1.192c-1.026-.344-3.426-1.548-3.953.012-.562,1.663,1.474,2.315,2.661,2.794,1.262.511,2.551.947,3.817,1.447,1.137.445.712,2.237-.517,1.877-.14-.041-.356-.125-.613-.226-.652-.229-1.418-.47-2.2-.749-1.132-.258-2.118-.167-1.974,1.115.127,1.13,2.08,1.747,2.95,2.191,1.189.606,2.356,1.231,3.5,1.919a36.888,36.888,0,0,1,5.921,4.16,16.664,16.664,0,0,1,4.192,6.079.887.887,0,0,1,.069.46Z" transform="translate(-7.006 -9.331)" fill="#fff"/>
    <path id="Path_456" data-name="Path 456" d="M80.31,73.7l4.809,3.46,1.105-2a.894.894,0,0,1,.076-.137l2.427-4.391a23.882,23.882,0,0,1-11.616-7.32,1,1,0,0,1-.233-.549c-.936.464-1.5,1.672-2.137,2.743a.9.9,0,0,1,.846.681l.73,2.493,1.258,4.3a7.352,7.352,0,0,1,1.545.917.8.8,0,0,1,1.1-.262.77.77,0,0,1,.089.063" transform="translate(-8.184 -6.873)" fill="#fff"/>
    <path id="Path_457" data-name="Path 457" d="M108.26,63.085a1.073,1.073,0,0,1-.173.267,24.486,24.486,0,0,1-11.6,7.345L98.9,75.066a.914.914,0,0,1,.073.133l1.106,2,4.809-3.46a.837.837,0,0,1,1.172.161.851.851,0,0,1,.126.24c.52-.463,1.041-.943,1.561-1.381l1.858-6.529a.9.9,0,0,1,.852-.684,27.431,27.431,0,0,0-2.2-2.462" transform="translate(-10.566 -6.908)" fill="#fff"/>
    <path id="Path_458" data-name="Path 458" d="M92.527,95.662c.931-1.048.771-3.2.831-4.408.054-1.1.186-2.2.331-3.295a9.731,9.731,0,0,1,.544-2.707,4.2,4.2,0,0,1,1.527-1.8q-.223-.45-.456-.9a.857.857,0,0,1-.325.145.828.828,0,0,1-.943.241,5.528,5.528,0,0,0-1.181-.259A5.439,5.439,0,0,0,91.8,82.9q-1.183,5.016-2.1,10.088a.92.92,0,0,1-1.647.329c-.03.1-.056.2-.079.3q2.3.984,4.558,2.045" transform="translate(-9.633 -9.04)" fill="#64c8e6"/>
    <path id="Path_459" data-name="Path 459" d="M86.867,92.709c.023-.1.049-.2.079-.3a.98.98,0,0,1-.23-.846q.923-5.1,2.113-10.139a1.021,1.021,0,0,1,.1-.267l-1.425-2.418-.883,1.6a.979.979,0,0,1-1.336.349l-5.621-4.046a1.04,1.04,0,0,1-.227-1.454l.02-.027a7.352,7.352,0,0,0-1.545-.917l3.878,13.252a.934.934,0,0,1-.628,1.161.924.924,0,0,1-.3.038c.2.623.436,1.247.684,1.858,1.792.7,3.565,1.411,5.319,2.159" transform="translate(-8.532 -8.13)" fill="#fff"/>
    <path id="Path_460" data-name="Path 460" d="M42.358,114.521a.971.971,0,0,1-.242.7c-1.02,1.2-2.807,1.716-4.274,2.078a32.758,32.758,0,0,1-6.723.849,33.553,33.553,0,0,1-6.96-.438,10.244,10.244,0,0,1-4.97-2,1.067,1.067,0,0,1-.154-.163L18.879,126.7H42.6V115.27a.9.9,0,0,1,.3-.705,2.415,2.415,0,0,0-.543-.044" transform="translate(-2.067 -12.541)" fill="#64c8e6"/>
    <path id="Path_461" data-name="Path 461" d="M82.724,121.45c-2.288-5.493-7.916-8.483-12.95-11.069-1.238-.636-2.751-1.261-3.384-2.6a3.146,3.146,0,0,1,.57-3.437,1.537,1.537,0,0,1,.138-.127c-1.611-.968-2.7-2.315-2.084-4.355a2.742,2.742,0,0,1,1.613-1.877,3.393,3.393,0,0,1-.666-2.306,3.7,3.7,0,0,1,1.083-2.525c-1.281-.516-2.557-1.046-3.816-1.613a7.151,7.151,0,0,1-3.033-1.907,3.411,3.411,0,0,1,.947-4.729c.059-.039.118-.076.179-.111,1.184-.617,2.424-.052,3.577.34,4.253,1.443,8.526,2.939,12.74,4.576-.248-.612-.485-1.23-.684-1.858a.911.911,0,0,1-.949-.682l-.73-2.493L70.139,67.127a.958.958,0,0,1-.021-.486c-1.081-.327-2.186.484-3.143,1.2a1.024,1.024,0,0,1,.546,1.08L65.274,83.311c-.193,1.236-2.069.712-1.877-.517L65.56,68.95c-.659.414-1.237.944-1.87,1.378a.979.979,0,0,1-.5,1.291.862.862,0,0,1-.1.038A62.14,62.14,0,0,0,53.2,76.22c.2,2.5.351,5.014.549,7.514.121,1.532.284,3.067.364,4.6a2.477,2.477,0,0,1-.235,1.247,3.373,3.373,0,0,1,.865,1.247c.832,2.048-1.219,3.232-2.638,4.2-1.7,1.163-2.395,3.527-3.506,5.193a1.076,1.076,0,0,1-.178.208,1.048,1.048,0,0,1-.134.153,18.247,18.247,0,0,1-6.118,3.669c0,.1-.008.2-.011.3a.922.922,0,0,1,.982.857c0,.028,0,.055,0,.083v2.55a.9.9,0,0,1-.817.929c.006.118.013.238.02.356a3.316,3.316,0,0,0,.947-.742c.623-.735,1.574-.089,1.619.679a2.441,2.441,0,0,1,.54.044.988.988,0,0,1,1.642.706v11.431Z" transform="translate(-4.617 -7.289)" fill="#64c8e6"/>
    <path id="Path_462" data-name="Path 462" d="M108.066,32.875c-.99.1-1.186-1.109-.608-1.671a6.746,6.746,0,0,1-1.308-1,1,1,0,0,1-1.321.487l-.036-.018c-2.454-1.24-3.22-3.86-3.581-6.395-.241-1.7-.131-5.157-2.106-5.916a1.028,1.028,0,0,1-.623-1.225c-.471-.11-.943-.16-1.414-.32a.931.931,0,0,1-1.425.8,6.055,6.055,0,0,0-6.127-.337c-1.774.948-2.6,2.443-3.457,4.167-1.9,3.842-4.577,9.178-9.341,9.775a.878.878,0,0,1-.461-.055,10.029,10.029,0,0,1-1.384.638.79.79,0,0,1-.879.552c-1.084-.1-1.763,1.086-2.126,1.959a5.03,5.03,0,0,0-.267,2.807,5.4,5.4,0,0,0,3.349,4.36c-.012-.089-.022-.17-.034-.255-.167-1.227,1.708-1.753,1.877-.517.437,3.2.644,6.536,1.854,9.563a15,15,0,0,0,6.283,7.2,13.214,13.214,0,0,0,9.817,1.146,11.475,11.475,0,0,0,7.188-5.309c1.492-2.572,2.155-5.544,2.928-8.387a.89.89,0,0,1,.972-.685,7.316,7.316,0,0,1,.356-.768,1.054,1.054,0,0,1,1-1.655c.742.1,1.437-.8,1.791-1.32a8.726,8.726,0,0,0,1.215-2.858c.377-1.589.272-4.992-2.134-4.758M84.542,34.434a.974.974,0,1,1,.931-.931.974.974,0,0,1-.931.931m3.94,6.875a47.624,47.624,0,0,0,2.556-5.2c.511-1.143,2.189-.151,1.68.98-.662,1.477-1.316,2.985-2.1,4.408.564.39,1.118.793,1.7,1.158,1.058.668.08,2.351-.98,1.681-.853-.534-1.649-1.158-2.5-1.692a.99.99,0,0,1-.348-1.336Zm6.477,8.431a6.008,6.008,0,0,1-6.972-.162c-1.015-.72-.041-2.4.98-1.68a4.149,4.149,0,0,0,5.007.162C95.024,47.36,96,49.052,94.959,49.739Zm2.956-15.306a.973.973,0,1,1,.985-.973A.974.974,0,0,1,97.916,34.434Z" transform="translate(-7.831 -1.818)" fill="#fff"/>
    <path id="Path_463" data-name="Path 463" d="M107.1,27.35c1.336-3.232,1.4-7.213.972-10.641-.383-3.06-2.2-8.378-5.99-8.363a.973.973,0,0,1-.813-1.482c-.26-.2-.521-.4-.786-.592a1,1,0,0,1-1.824.64,10.561,10.561,0,0,0-6.474-4.4C87.2,1.309,82.194,3.529,78.608,6.937a50.4,50.4,0,0,0-4.621,5.61,10.412,10.412,0,0,1-4.72,3.622,7.069,7.069,0,0,1,1.636.712c.618-.838,2.073.1,1.574,1.158-1.283,2.728-.386,6.787,1.069,9.295a.933.933,0,0,1-.316,1.281.973.973,0,0,1-.129.065l.067.15a3.142,3.142,0,0,1,.579,0,1.051,1.051,0,0,1,.933,1.157,1.035,1.035,0,0,1-.054.238,9.981,9.981,0,0,0,1.384-.638,1.039,1.039,0,0,1,.461-1.891c2.507-.314,4.228-2.9,5.464-4.845.712-1.129,1.36-2.3,1.959-3.5a22.938,22.938,0,0,1,1.382-2.633,8.176,8.176,0,0,1,11.1-2.363.937.937,0,0,1,.445.882c.471.159.943.209,1.414.32a.823.823,0,0,1,.92-.712.809.809,0,0,1,.224.061c5.313,2.042,1.385,10.1,6.152,12.507a.846.846,0,0,1,.423,1.12.9.9,0,0,1-.048.092,6.746,6.746,0,0,0,1.308,1,.99.99,0,0,1,.608-.275,3.141,3.141,0,0,1,.419-.01v-.853c-.679.148-1.473-.339-1.143-1.137" transform="translate(-7.585 -0.239)" fill="#64c8e6"/>
    <path id="Path_464" data-name="Path 464" d="M141.567,121.395q-.061-.334-.117-.668a1.035,1.035,0,0,1-1.5-.832c-.173-2.5-.389-5.006-.618-7.507-.427-4.669-.922-9.334-1.541-13.981a111.035,111.035,0,0,0-2.418-13.425,18.838,18.838,0,0,0-1.467-4.185,5.012,5.012,0,0,0-1.252-1.537,23.327,23.327,0,0,0-3.194-2.464,69.491,69.491,0,0,0-11.179-5.9A.811.811,0,0,1,118,69.569a10.766,10.766,0,0,0-1.191-.32l2.109,13.494c.191,1.227-1.684,1.752-1.877.517l-2.248-14.389a1,1,0,0,1,.234-.831,8.6,8.6,0,0,0-3.206-1.978.877.877,0,0,1,.351,1.011l-.922,3.238L104.8,92.955a.922.922,0,0,1-1.124.663l-.01,0-.934,2.179a111.886,111.886,0,0,1,2.363,12.755c.235,1.992.005,3.987.363,5.966.393,2.171,1.051,4.286,1.59,6.422a.982.982,0,0,1,.012.46Zm-35.777-9.5,1.541-3.047L117.667,88.4a41.4,41.4,0,0,1-7.434-2.4c-1.145-.5-.153-2.181.98-1.68a40.507,40.507,0,0,0,8.144,2.468.985.985,0,0,1,.67,1.222,1,1,0,0,1-.088.208L118.4,91.264l-10.93,21.622c-.563,1.115-2.242.128-1.678-.988" transform="translate(-11.25 -7.234)" fill="#64c8e6"/>
    <path id="Path_465" data-name="Path 465" d="M102.21,93.3l.922-3.238,4.588-16.118c-.52.438-1.041.918-1.561,1.381a1.018,1.018,0,0,1-.321,1.282l-5.621,4.046a.979.979,0,0,1-1.336-.349L98,78.7l-1.526,2.6a.99.99,0,0,1-.267.3q.234.453.456.9a2.9,2.9,0,0,1,2.285-.431,3.341,3.341,0,0,1,2.232,2.932,21.917,21.917,0,0,1-.045,4.9,24.312,24.312,0,0,0,.87,6.679l.014.063.934-2.179a.917.917,0,0,1-.768-1.046.867.867,0,0,1,.028-.125" transform="translate(-10.535 -8.097)" fill="#fff"/>
    <path id="Path_466" data-name="Path 466" d="M86.774,123.2a16.668,16.668,0,0,0-4.192-6.079,36.831,36.831,0,0,0-5.921-4.16c-1.143-.688-2.31-1.314-3.5-1.919-.87-.445-2.822-1.06-2.95-2.19-.145-1.281.842-1.372,1.974-1.115.787.279,1.553.519,2.2.749.259.1.473.185.613.226,1.23.356,1.655-1.425.517-1.877-1.265-.5-2.555-.936-3.817-1.447-1.187-.481-3.223-1.13-2.661-2.794.527-1.56,2.926-.356,3.953-.012,1.208.4,2.436.745,3.631,1.192s1.644-1.405.517-1.877c-1.234-.516-2.487-.988-3.73-1.48-.89-.352-3.075-.8-3.33-1.891a1.553,1.553,0,0,1,.981-1.965l.012,0a2.775,2.775,0,0,1,1.039-.03q3.116,1.22,6.266,2.375c1.031.378,1.734-1.287.75-1.781a31.941,31.941,0,0,0-5.5-2.212c-.329-.089-.662-.178-1-.239-2.007-.78-4-1.592-5.966-2.463A11.638,11.638,0,0,1,64.2,90.978c-.754-.593-.608-2.4.581-2.322a9.122,9.122,0,0,1,2.084.676q1.822.624,3.633,1.276,4.936,1.77,9.822,3.675,2.245.88,4.471,1.805c.135-.672.153-1.344.308-2.016-1.754-.75-3.527-1.464-5.31-2.155.328.808.671,1.6.962,2.4-.29-.8-.634-1.595-.962-2.4-4.215-1.636-8.488-3.133-12.74-4.576-1.152-.391-2.393-.956-3.577-.34a3.411,3.411,0,0,0-1.238,4.662c.035.061.072.12.111.179a7.151,7.151,0,0,0,3.033,1.907c1.259.566,2.534,1.1,3.816,1.613a3.7,3.7,0,0,0-1.083,2.525,3.389,3.389,0,0,0,.666,2.306,2.742,2.742,0,0,0-1.613,1.877c-.612,2.042.473,3.384,2.084,4.355-.046.041-.089.083-.138.127a3.146,3.146,0,0,0-.57,3.437c.631,1.336,2.143,1.959,3.384,2.6,5.034,2.582,10.662,5.575,12.95,11.069h1.971a.879.879,0,0,0-.074-.458" transform="translate(-6.765 -9.497)" fill="#323232"/>
    <path id="Path_467" data-name="Path 467" d="M95.723,83.566a4.2,4.2,0,0,0-1.527,1.8,9.732,9.732,0,0,0-.544,2.707c-.145,1.094-.277,2.192-.331,3.295-.06,1.212.1,3.359-.831,4.408q-2.255-1.069-4.558-2.043c-.155.672-.172,1.344-.308,2.016.17.071.34.141.509.213q1.069.453,2.129.925a12.889,12.889,0,0,0,2.121.972c1.686.388,2.5-2.566,2.692-3.714.322-1.95.242-3.958.5-5.924a5.05,5.05,0,0,1,.712-2.595,1.9,1.9,0,0,1,.243-.25c-.247-.623-.52-1.218-.811-1.809" transform="translate(-9.595 -9.151)" fill="#323232"/>
    <path id="Path_468" data-name="Path 468" d="M106.393,122.789c-.541-2.137-1.2-4.251-1.59-6.422-.356-1.98-.128-3.973-.363-5.966a111.884,111.884,0,0,0-2.363-12.755l-.473,1.1.473-1.1-.014-.063a24.308,24.308,0,0,1-.87-6.679,21.917,21.917,0,0,0,.045-4.9,3.343,3.343,0,0,0-2.232-2.932,2.907,2.907,0,0,0-2.285.431c.291.59.565,1.185.808,1.807.507-.435,1.175-.521,1.538.166.833,1.574.255,3.758.178,5.432a29.277,29.277,0,0,0,1.192,8.233c.66,2.679,1.1,5.343,1.549,8.059.234,1.411.5,2.817.609,4.244.1,1.3-.038,2.606.105,3.907a58.249,58.249,0,0,0,1.8,7.9h1.9a.985.985,0,0,0-.012-.464" transform="translate(-10.591 -9.089)" fill="#323232"/>
    <path id="Path_469" data-name="Path 469" d="M93.11,38.441a47.718,47.718,0,0,1-2.556,5.2.99.99,0,0,0,.349,1.336c.853.534,1.649,1.158,2.5,1.692,1.062.671,2.04-1.013.98-1.681-.58-.366-1.134-.768-1.7-1.158.784-1.425,1.439-2.931,2.1-4.408.51-1.135-1.167-2.128-1.678-.984" transform="translate(-9.902 -4.154)" fill="#323232"/>
    <path id="Path_470" data-name="Path 470" d="M89.959,53.406a6.008,6.008,0,0,0,6.972.162c1.039-.689.066-2.376-.98-1.68a4.149,4.149,0,0,1-5.007-.162c-1.024-.724-2,.959-.985,1.68" transform="translate(-9.804 -5.645)" fill="#323232"/>
    <path id="Path_471" data-name="Path 471" d="M86.03,36.387a.974.974,0,1,0-.931-.931.974.974,0,0,0,.931.931" transform="translate(-9.319 -3.771)" fill="#323232"/>
    <path id="Path_472" data-name="Path 472" d="M101.048,36.387a.974.974,0,1,0-.931-.931.974.974,0,0,0,.931.931" transform="translate(-10.963 -3.771)" fill="#323232"/>
    <path id="Path_473" data-name="Path 473" d="M143.145,120.078c.043.342.1.684.153,1.026a.811.811,0,0,0,.445-.832q-.7-10.142-2-20.244a132.013,132.013,0,0,0-2.416-14.257,28.342,28.342,0,0,0-1.563-4.9A10.365,10.365,0,0,0,134.4,77a59.447,59.447,0,0,0-13.292-7.415,1.053,1.053,0,0,0-1.265.356,14.21,14.21,0,0,1,3.056,1.471,14.21,14.21,0,0,0-3.056-1.471.81.81,0,0,0,0,1.147.8.8,0,0,0,.28.182,69.49,69.49,0,0,1,11.179,5.9,23.383,23.383,0,0,1,3.194,2.464,5.015,5.015,0,0,1,1.253,1.537,18.9,18.9,0,0,1,1.467,4.185,111.035,111.035,0,0,1,2.418,13.425c.623,4.647,1.114,9.313,1.541,13.981.229,2.5.445,5,.618,7.507a1.035,1.035,0,0,0,1.5.832c-.057-.339-.11-.682-.152-1.024" transform="translate(-13.098 -7.611)" fill="#323232"/>
    <path id="Path_474" data-name="Path 474" d="M116.09,35.283a4.045,4.045,0,0,0-3.363-2.606,3.142,3.142,0,0,0-.419.01.99.99,0,0,0-.608.275,3.884,3.884,0,0,0,.833.356,3.884,3.884,0,0,1-.833-.356c-.578.563-.381,1.768.608,1.671,2.4-.234,2.51,3.169,2.132,4.756a8.725,8.725,0,0,1-1.215,2.858c-.356.524-1.05,1.425-1.791,1.32a1.053,1.053,0,0,0-1,1.655c.112-.213.231-.419.35-.617-.119.2-.237.4-.35.617a.843.843,0,0,0,.485.222c3.127.439,4.911-3.223,5.454-5.775a7.014,7.014,0,0,0-.281-4.387" transform="translate(-12.071 -3.578)" fill="#323232"/>
    <path id="Path_475" data-name="Path 475" d="M74.613,65.848a1,1,0,0,0-1.053.712,1.857,1.857,0,0,1,.445.2,8.13,8.13,0,0,0,.607-.914" transform="translate(-8.055 -7.21)" fill="#323232"/>
    <path id="Path_476" data-name="Path 476" d="M79.9,85.419a10.778,10.778,0,0,0,.5,2.359.933.933,0,0,0,.966-.9.924.924,0,0,0-.038-.3L77.438,73.326a4.836,4.836,0,0,0-.465-.17,4.836,4.836,0,0,1,.465.17l-1.258-4.3-.73-2.493a.9.9,0,0,0-.846-.681,8.152,8.152,0,0,1-.61.914,2.451,2.451,0,0,1,.445.356,2.451,2.451,0,0,0-.445-.356c-.045.056-.09.111-.136.164.046-.053.092-.108.136-.164a1.857,1.857,0,0,0-.445-.2.958.958,0,0,0,.021.486L78.706,84.6l.73,2.493a.912.912,0,0,0,.949.682,10.734,10.734,0,0,1-.489-2.36" transform="translate(-8.052 -7.211)" fill="#323232"/>
    <path id="Path_477" data-name="Path 477" d="M105.6,45.928a3.637,3.637,0,0,0-.267,1.924,3.637,3.637,0,0,1,.267-1.924.89.89,0,0,0-.972.685c-.773,2.842-1.435,5.815-2.928,8.387a11.473,11.473,0,0,1-7.185,5.311A13.212,13.212,0,0,1,84.7,59.164a15,15,0,0,1-6.283-7.2C77.2,48.941,77,45.6,76.559,42.406c-.169-1.235-2.048-.712-1.877.517.012.089.022.17.034.255a5.4,5.4,0,0,1-3.349-4.356,5.03,5.03,0,0,1,.267-2.807c.363-.876,1.042-2.06,2.126-1.959a.791.791,0,0,0,.879-.552c-.281.111-.564.222-.839.339.275-.118.557-.228.839-.339A1.049,1.049,0,0,0,74,32.164a1.035,1.035,0,0,0-.238-.054,3.142,3.142,0,0,0-.579,0c.207.464.413.931.623,1.345-.207-.413-.413-.881-.623-1.345-2.761.251-4.053,4.15-3.8,6.5.325,2.981,2.3,6.1,5.446,6.607a1.127,1.127,0,0,0,.144.012,29.877,29.877,0,0,0,1.514,7.149,16.164,16.164,0,0,0,1.385,2.753v3.43c-.654-.745-1.664.028-1.586.854a2.079,2.079,0,0,1,1.6-.073,2.079,2.079,0,0,0-1.6.073,1,1,0,0,0,.233.549,23.882,23.882,0,0,0,11.616,7.32L85.71,71.675a.894.894,0,0,0-.076.137l-1.105,2-4.809-3.46a.8.8,0,0,0-1.128.112.875.875,0,0,0-.062.088,13.854,13.854,0,0,0,3.051,2.028,13.854,13.854,0,0,1-3.051-2.028,1.041,1.041,0,0,0,.183,1.461l.025.019,5.623,4.04a.979.979,0,0,0,1.336-.349l.883-1.6L88,76.543a1.022,1.022,0,0,0-.1.267q-1.19,5.041-2.113,10.139a.98.98,0,0,0,.23.846,3.9,3.9,0,0,1,.243-.623,3.9,3.9,0,0,0-.243.623.92.92,0,0,0,1.647-.329q.918-5.076,2.1-10.088a5.374,5.374,0,0,1,1.058-.222,5.529,5.529,0,0,1,1.181.259.828.828,0,0,0,.943-.241.857.857,0,0,0,.325-.145c-.256-.5-.52-1-.785-1.533.267.529.528,1.034.785,1.533a1,1,0,0,0,.267-.3l1.526-2.6.882,1.6a.979.979,0,0,0,1.336.349l5.621-4.046a1.018,1.018,0,0,0,.321-1.282c-.335.3-.669.589-1,.857.335-.267.669-.558,1-.857a.837.837,0,0,0-1.057-.53.819.819,0,0,0-.248.132l-4.809,3.46-1.106-2a.913.913,0,0,0-.073-.133l-2.414-4.369a24.484,24.484,0,0,0,11.6-7.345,1.073,1.073,0,0,0,.173-.267q-.367-.373-.739-.744.37.37.739.744c.4-.9-.8-1.966-1.549-1.11-.216.247-.437.486-.662.721q-.039-1.2-.076-2.389a1.041,1.041,0,0,0-.044-.267c1.87-2.841,2.661-6.271,3.543-9.513a.949.949,0,0,0-.653-1.173.968.968,0,0,0-.262-.037M93.841,66.734a7.16,7.16,0,0,0-2.746.015.973.973,0,0,0,.125.432l2.745,4.965L92.13,75.264a18.513,18.513,0,0,0-2.63,0l-1.834-3.117,2.744-4.965a.993.993,0,0,0,.126-.407,4.186,4.186,0,0,1-.588-.039,4.186,4.186,0,0,0,.588.039.87.87,0,0,0-.048-.363.884.884,0,0,0-.66-.659A24.354,24.354,0,0,1,79.717,60.5a.978.978,0,0,0,.1-.44v-2.39a18.172,18.172,0,0,0,3.144,2.709,15.091,15.091,0,0,0,18.155-1.514l.063,1.984a1.063,1.063,0,0,0,.028.213,23.07,23.07,0,0,1-9.4,4.694.853.853,0,0,0-.685.742.885.885,0,0,0-.021.256,7.147,7.147,0,0,1,2.747-.018Z" transform="translate(-7.594 -3.515)" fill="#323232"/>
    <path id="Path_478" data-name="Path 478" d="M68.255,68.545l-.089.545a4.3,4.3,0,0,1,1.363-.585,4.3,4.3,0,0,0-1.363.585L66,82.934c-.191,1.225,1.684,1.753,1.877.517l2.248-14.389a1.024,1.024,0,0,0-.546-1.08,10.65,10.65,0,0,1-1.027.718,10.65,10.65,0,0,0,1.027-.718.843.843,0,0,0-1.328.563" transform="translate(-7.226 -7.427)" fill="#323232"/>
    <path id="Path_479" data-name="Path 479" d="M112.526,65.987a.357.357,0,0,0-.15-.021c.051,0,.1.015.15.021" transform="translate(-12.306 -7.224)" fill="#323232"/>
    <path id="Path_480" data-name="Path 480" d="M112.5,65.974c-.05-.006-.1-.017-.149-.021a.351.351,0,0,1,.149.021c.119.016.236.036.349.062a1.115,1.115,0,0,0-.673-.191c.114.147.224.3.334.445-.077-.135.087-.266-.01-.316" transform="translate(-12.284 -7.21)" fill="#323232"/>
    <path id="Path_481" data-name="Path 481" d="M111.837,66.038c-.113-.026-.23-.046-.349-.062.1.05-.068.178.009.319l.037.049-.037-.049c-.11-.151-.22-.3-.334-.445a.9.9,0,0,0-.852.684l-1.858,6.529c.118-.1.237-.2.356-.292-.118.094-.237.192-.356.292L103.865,89.18l-.922,3.238a.918.918,0,0,0,.609,1.147.979.979,0,0,0,.134.03l.719-1.677-.719,1.677a.922.922,0,0,0,1.131-.65l0-.01,6.446-22.644.922-3.238a.878.878,0,0,0-.351-1.016" transform="translate(-11.268 -7.211)" fill="#323232"/>
    <path id="Path_482" data-name="Path 482" d="M112.554,66.349a.219.219,0,0,0,.037.049Z" transform="translate(-12.325 -7.266)" fill="#323232"/>
    <path id="Path_483" data-name="Path 483" d="M118.287,69.442a9.894,9.894,0,0,0-1.009-.156,9.894,9.894,0,0,1,1.009.156l-.14-.89c-.14-.89-1.163-.865-1.643-.313a6.682,6.682,0,0,0,1.358.858,6.682,6.682,0,0,1-1.358-.858,1,1,0,0,0-.233.831l2.248,14.389c.192,1.234,2.069.712,1.877-.517Z" transform="translate(-12.731 -7.43)" fill="#323232"/>
    <path id="Path_484" data-name="Path 484" d="M119.721,89.016a40.477,40.477,0,0,1-8.139-2.465c-1.136-.5-2.127,1.176-.98,1.68a41.4,41.4,0,0,0,7.434,2.4L107.7,111.083l-1.541,3.047c-.564,1.116,1.115,2.1,1.68.98L118.763,93.5l1.541-3.047a.984.984,0,0,0-.369-1.343.924.924,0,0,0-.214-.091" transform="translate(-11.613 -9.468)" fill="#323232"/>
    <path id="Path_485" data-name="Path 485" d="M96.75,16.14a2.968,2.968,0,0,0,.843.441.937.937,0,0,0-.445-.882,8.176,8.176,0,0,0-11.1,2.363A22.938,22.938,0,0,0,84.666,20.7c-.6,1.193-1.247,2.368-1.959,3.5-1.236,1.948-2.957,4.531-5.464,4.845a1.039,1.039,0,0,0-.461,1.891,2.913,2.913,0,0,0,1.282-1.358,2.913,2.913,0,0,1-1.282,1.358.878.878,0,0,0,.461.055c4.764-.6,7.438-5.932,9.341-9.775.854-1.724,1.683-3.218,3.457-4.167a6.055,6.055,0,0,1,6.127.337.931.931,0,0,0,1.425-.8,2.968,2.968,0,0,1-.844-.439" transform="translate(-8.358 -1.584)" fill="#323232"/>
    <path id="Path_486" data-name="Path 486" d="M100.26,6.034a5.842,5.842,0,0,0-1.973-1.015,5.842,5.842,0,0,1,1.973,1.015.979.979,0,0,0-.142-.342A13.3,13.3,0,0,0,87.073.141C81.673.907,77.175,4.5,74,8.759c-1.657,2.226-3.2,4.726-6.055,5.469a.974.974,0,0,0,.517,1.877c.2-.052.392-.113.582-.178a6.753,6.753,0,0,0-.93-.2,6.753,6.753,0,0,1,.93.2,10.412,10.412,0,0,0,4.72-3.622A50.313,50.313,0,0,1,78.382,6.7c3.585-3.408,8.6-5.627,13.573-4.421a10.563,10.563,0,0,1,6.474,4.4,1,1,0,0,0,1.831-.638" transform="translate(-7.365 0)" fill="#323232"/>
    <path id="Path_487" data-name="Path 487" d="M109.088,28.968c-4.767-2.4-.84-10.465-6.152-12.507a.823.823,0,0,0-1.143.651l.078.019-.078-.019a1.028,1.028,0,0,0,.623,1.225c1.975.76,1.865,4.216,2.106,5.916.356,2.533,1.126,5.154,3.581,6.395a1,1,0,0,0,1.339-.434c.006-.012.012-.023.018-.036-.405-.383-.786-.793-1.168-1.175.381.381.763.793,1.168,1.175a.847.847,0,0,0-.372-1.211" transform="translate(-11.143 -1.795)" fill="#323232"/>
    <path id="Path_488" data-name="Path 488" d="M113.755,15.985C113.1,12.166,110.49,6.9,106,6.919a.89.89,0,0,0-.813.465,12.188,12.188,0,0,0,1.329.923,12.188,12.188,0,0,1-1.329-.923A.974.974,0,0,0,106,8.866c3.794-.015,5.61,5.3,5.99,8.363.428,3.425.366,7.409-.972,10.641-.33.8.463,1.285,1.143,1.135a1.014,1.014,0,0,0,.735-.618,18.561,18.561,0,0,0,1.151-5.808,27.714,27.714,0,0,0-.287-6.594" transform="translate(-11.502 -0.758)" fill="#323232"/>
    <path id="Path_489" data-name="Path 489" d="M73.631,29.1c-1.456-2.508-2.354-6.567-1.069-9.295.5-1.061-.957-2-1.574-1.158a8.037,8.037,0,0,1,.939.645,8.037,8.037,0,0,0-.939-.645,1.092,1.092,0,0,0-.106.178c-1.6,3.4-.767,8.1,1.069,11.26a.909.909,0,0,0,1.232.366l0,0c-.16-.356-.321-.712-.482-1.037.16.321.321.676.482,1.037a.933.933,0,0,0,.514-1.216.951.951,0,0,0-.068-.134" transform="translate(-7.669 -2.006)" fill="#323232"/>
    <path id="Path_490" data-name="Path 490" d="M60.815,70.1a4.911,4.911,0,0,1-1.051.568,4.911,4.911,0,0,0,1.051-.568.864.864,0,0,0-1.086-.558l-.032.011a59.545,59.545,0,0,0-9.552,4.337q-.071-.765-.152-1.531a2.315,2.315,0,0,0-2.013-2.18,1,1,0,0,0-.34-.029,1.09,1.09,0,0,0-.222.018l-3.492.276a3.559,3.559,0,0,0,.434-1.352,1.086,1.086,0,0,0,.016-.186,1.268,1.268,0,0,0,0-.142c-.018-1.611-.333-3.365-2.013-4.03a3.169,3.169,0,0,0-4.444,2.048,7.245,7.245,0,0,0-.142,1.1,3.182,3.182,0,0,0-2.761-1.59,3.269,3.269,0,0,0-2.475,1.158,3.156,3.156,0,0,0-2.46-1.158,3.319,3.319,0,0,0-3.23,2.772,3.228,3.228,0,0,0-3.021-2.114,3.317,3.317,0,0,0-3.276,3.277,3.2,3.2,0,0,0,.686,1.98c-1.057.081-2.112.172-3.163.285a2.305,2.305,0,0,0-2.183,1.964,5.653,5.653,0,0,0,.042,1.208l.453,5.737.534,6.8c.089,1.123-.051,2.86.616,3.834.721,1.053,1.809.98,2.883.89a4.352,4.352,0,0,1-.364-1.614,4.352,4.352,0,0,0,.364,1.614l.267-.022,4.631-.366c5.543-.438,11.089-.85,16.634-1.292a22.233,22.233,0,0,0-1.888,2.242c-.663.886.577,1.746,1.387,1.251a1.052,1.052,0,0,0,.294-.267,12.2,12.2,0,0,1,3.665-3.508c1.1-.089,2.208-.178,3.311-.274a3.95,3.95,0,0,0,.669-.116c.5.3.921.83.525,1.336A6.813,6.813,0,0,1,48.25,93.13,5.962,5.962,0,0,0,46.8,94.48c-.995,1.3-1.656,2.8-2.52,4.185-.056.089-.111.178-.169.267-.024.02-.048.039-.072.061a17.779,17.779,0,0,1-8.133,4.013c-1.221.279-.7,2.156.517,1.877a22.671,22.671,0,0,0,2.867-.858c.009-.219.02-.438.037-.658-.017.219-.028.439-.037.658a18.239,18.239,0,0,0,6.118-3.669,1.1,1.1,0,0,0,.134-.153,1.046,1.046,0,0,0,.178-.208c1.11-1.665,1.8-4.03,3.506-5.193,1.419-.968,3.473-2.153,2.638-4.2a3.373,3.373,0,0,0-.865-1.247,2.477,2.477,0,0,0,.235-1.247c-.079-1.534-.243-3.07-.364-4.6-.2-2.5-.349-5.01-.549-7.514a62.175,62.175,0,0,1,9.889-4.563.98.98,0,0,0,.647-1.225c-.011-.035-.024-.069-.038-.1M39.878,66.96c.325-.743,1.644-.718,2.146-.165a3.247,3.247,0,0,1,.4,2.11,1.341,1.341,0,0,1-2.558.522,4.167,4.167,0,0,1,.008-2.468Zm-1.7,3.332a3.446,3.446,0,0,0,.336.58l-.558.044a3.618,3.618,0,0,0,.223-.624Zm-1.833-.728a1.33,1.33,0,1,1-1.33-1.331,1.33,1.33,0,0,1,1.33,1.331Zm-4.936,0a1.33,1.33,0,1,1-1.327-1.328A1.33,1.33,0,0,1,31.4,69.564Zm-4.376,1.191a3.29,3.29,0,0,0,.614.98l-1,.079a3.629,3.629,0,0,0,.385-1.06Zm-1.875-.534a1.33,1.33,0,1,1-1.33-1.33,1.33,1.33,0,0,1,1.33,1.33Zm23.717,18.5a21.854,21.854,0,0,1-2.972.235l-5.406.427L27.475,90.41l-5.219.412a17.391,17.391,0,0,1-2.66.21c-.813-.067-.595-1.14-.649-1.818l-.458-5.794L18,77.2c-.037-.463-.5-2.468.028-2.761a2.066,2.066,0,0,1,.649-.052l1.494-.118,4.9-.387,22.107-1.747.461-.037c.534.012.428.54.459.931l.163,2.067.5,6.363q.223,2.812.445,5.622c.053.578.34,1.492-.334,1.644Z" transform="translate(-1.739 -7.059)" fill="#323232"/>
    <path id="Path_491" data-name="Path 491" d="M42.038,109.226a.918.918,0,0,0-.962.872c0,.023,0,.045,0,.068v2.554a.938.938,0,0,0,1.129.929c-.085-1.476-.2-2.949-.167-4.422" transform="translate(-4.498 -11.961)" fill="#323232"/>
    <path id="Path_492" data-name="Path 492" d="M42.154,109.226c-.037,1.473.083,2.946.167,4.419a.9.9,0,0,0,.817-.929v-2.55a.921.921,0,0,0-.9-.941c-.028,0-.055,0-.083,0" transform="translate(-4.615 -11.961)" fill="#323232"/>
    <path id="Path_493" data-name="Path 493" d="M42.118,114.4a3.329,3.329,0,0,0-.952.17,3.329,3.329,0,0,1,.952-.17c-.045-.769-1-1.414-1.619-.679a3.3,3.3,0,0,1-.947.742c.032.623.056,1.24.056,1.86,0-.623-.023-1.24-.056-1.86a10.816,10.816,0,0,1-2.654.88,30.535,30.535,0,0,1-6.022.735,31.5,31.5,0,0,1-6.243-.334,10.264,10.264,0,0,1-3.906-1.226,4.05,4.05,0,0,1-.4-.3,1.037,1.037,0,0,0-1.6.356.991.991,0,0,0-1.87.413q-.08,5.8-.161,11.6h1.947l.155-11.153a1.067,1.067,0,0,0,.154.163,10.252,10.252,0,0,0,4.97,2,33.553,33.553,0,0,0,6.96.438,32.758,32.758,0,0,0,6.723-.849c1.468-.362,3.256-.876,4.274-2.078a.974.974,0,0,0,.246-.7" transform="translate(-1.828 -12.417)" fill="#323232"/>
    <path id="Path_494" data-name="Path 494" d="M45.813,114.538a1.213,1.213,0,0,1,1.065,1.345,1.286,1.286,0,0,1-.026.144,1.213,1.213,0,0,0-.895-1.463,1.111,1.111,0,0,0-.144-.026.9.9,0,0,0-.3.705v11.431h1.947V115.246a.987.987,0,0,0-1.642-.708" transform="translate(-4.983 -12.515)" fill="#323232"/>
    <path id="Path_495" data-name="Path 495" d="M32.988,70.031a1.33,1.33,0,1,0-1.3,1.3,1.33,1.33,0,0,0,1.3-1.3" transform="translate(-3.321 -7.527)" fill="#fff"/>
    <path id="Path_496" data-name="Path 496" d="M38.53,70.031a1.33,1.33,0,1,0-1.3,1.3,1.33,1.33,0,0,0,1.3-1.3" transform="translate(-3.928 -7.527)" fill="#fff"/>
    <path id="Path_497" data-name="Path 497" d="M42.806,67.195a4.164,4.164,0,0,0-.008,2.468,1.341,1.341,0,0,0,2.558-.522,3.252,3.252,0,0,0-.4-2.11c-.5-.552-1.818-.578-2.146.165" transform="translate(-4.667 -7.296)" fill="#fff"/>
    <path id="Path_498" data-name="Path 498" d="M25.967,70.77a1.33,1.33,0,1,0-1.3,1.3,1.33,1.33,0,0,0,1.3-1.3" transform="translate(-2.552 -7.608)" fill="#fff"/>
    <path id="Path_499" data-name="Path 499" d="M22.143,98.156a1.016,1.016,0,0,0-.947-.925,4.927,4.927,0,0,1,.5,1.939,4.927,4.927,0,0,0-.5-1.939.837.837,0,0,0-1,.925,89.871,89.871,0,0,1,.165,12.34.851.851,0,0,0,.75.923.99.99,0,0,0,1.175-.76,1.008,1.008,0,0,0,.021-.163,89.872,89.872,0,0,0-.165-12.34" transform="translate(-2.211 -10.645)" fill="#323232"/>
    <path id="Path_500" data-name="Path 500" d="M46.133,89.893a21.854,21.854,0,0,0,2.972-.235c.674-.151.383-1.069.337-1.641Q49.22,85.2,49,82.395l-.5-6.363-.163-2.067c-.031-.391.071-.919-.459-.931l-.461.036L25.3,74.819l-4.9.387-1.494.118a2.066,2.066,0,0,0-.649.052c-.527.292-.066,2.3-.028,2.761l.492,6.225q.228,2.9.458,5.794c.053.679-.164,1.752.649,1.818a17.389,17.389,0,0,0,2.66-.21l5.219-.412,13.015-1.03ZM20.56,78.4l-1.2-.534a.4.4,0,0,1-.055-.7l1.105-.712a.4.4,0,0,1,.549.118.4.4,0,0,1,.062.185l.1,1.247a.4.4,0,0,1-.557.394m1.484,10.824c-1.247.1-1.24-1.848,0-1.947l3.066-.243,21.461-1.7c1.247-.1,1.24,1.848,0,1.947l-3.065.243Z" transform="translate(-1.972 -7.998)" fill="#64c8e6"/>
    <path id="Path_501" data-name="Path 501" d="M21.152,77.173a.4.4,0,0,0-.612-.3l-1.105.712a.4.4,0,0,0-.118.549.391.391,0,0,0,.174.149l1.2.534a.4.4,0,0,0,.524-.2.391.391,0,0,0,.033-.191Z" transform="translate(-2.108 -8.411)" fill="#323232"/>
    <path id="Path_502" data-name="Path 502" d="M46.951,86.841l-21.461,1.7-3.066.243c-1.24.1-1.247,2.048,0,1.947l21.461-1.7,3.065-.243c1.24-.1,1.252-2.049,0-1.947" transform="translate(-2.353 -9.509)" fill="#323232"/>
  </g>
</svg>
