<svg xmlns="http://www.w3.org/2000/svg" xmlns:xlink="http://www.w3.org/1999/xlink" width="98.108" height="153.857" viewBox="0 0 98.108 153.857">
  <defs>
    <clipPath id="clip-path">
      <rect id="Rectangle_3327" data-name="Rectangle 3327" width="51.253" height="132.848" fill="none"/>
    </clipPath>
  </defs>
  <g id="Group_8539" data-name="Group 8539" transform="translate(-919.878 -2605)">
    <ellipse id="Ellipse_80" data-name="Ellipse 80" cx="43.624" cy="22.976" rx="43.624" ry="22.976" transform="translate(937.092 2683.568) rotate(22)" opacity="0.1"/>
    <g id="Group_8524" data-name="Group 8524" transform="translate(943.963 2605)">
      <path id="Path_26094" data-name="Path 26094" d="M.927,136.678.891,149.521l3.377-1.963L4.3,134.715Z" transform="translate(-0.723 -109.346)" fill="#c6c9cf"/>
      <g id="Group_8525" data-name="Group 8525">
        <g id="Group_8524-2" data-name="Group 8524" clip-path="url(#clip-path)">
          <path id="Path_26095" data-name="Path 26095" d="M17.458,557.389l-3.377,1.963a16.352,16.352,0,0,0,5.893,6.475l3.377-1.963a16.353,16.353,0,0,1-5.893-6.475" transform="translate(-11.429 -452.424)" fill="#c6c9cf"/>
          <path id="Path_26096" data-name="Path 26096" d="M9.1,526.828a15.546,15.546,0,0,1-1.939-7.09L3.785,521.7a15.543,15.543,0,0,0,1.939,7.09L9.1,526.828" transform="translate(-3.072 -421.863)" fill="#c6c9cf"/>
          <path id="Path_26097" data-name="Path 26097" d="M20.13,537.91l3.377-1.963a12.942,12.942,0,0,1-5.864-10.157l-3.377,1.963A12.942,12.942,0,0,0,20.13,537.91" transform="translate(-11.579 -426.776)" fill="#030303"/>
          <path id="Path_26098" data-name="Path 26098" d="M75.606,611.189l3.377-1.963L48.751,591.772l-3.377,1.963Z" transform="translate(-36.829 -480.331)" fill="#c6c9cf"/>
          <path id="Path_26099" data-name="Path 26099" d="M75.64,599.143l3.377-1.963L48.784,579.725l-3.377,1.963Z" transform="translate(-36.856 -470.553)" fill="#030303"/>
          <path id="Path_26100" data-name="Path 26100" d="M214.885,685.009c-1.429.83-3.407.713-5.591-.547l-3.377,1.963c2.184,1.261,4.162,1.378,5.591.547l3.377-1.963" transform="translate(-167.14 -555.567)" fill="#c6c9cf"/>
          <path id="Path_26101" data-name="Path 26101" d="M213.491,672.834c-1.069.609-2.542.518-4.163-.418l-3.377,1.963c1.622.936,3.095,1.027,4.164.418l3.377-1.963" transform="translate(-167.166 -545.789)" fill="#030303"/>
          <path id="Path_26102" data-name="Path 26102" d="M231.458,674.574l-.021.012-3.377,1.963.021-.012,3.377-1.963" transform="translate(-185.113 -547.541)" fill="#030303"/>
          <path id="Path_26103" data-name="Path 26103" d="M228.168,660.289l3.377-1.963c1.057-.614,1.713-1.918,1.718-3.77l-3.377,1.963c-.005,1.852-.661,3.156-1.718,3.77" transform="translate(-185.2 -531.293)" fill="#242424"/>
          <path id="Path_26104" data-name="Path 26104" d="M235.6,667.609l3.377-1.963c1.41-.82,2.285-2.563,2.292-5.04l-3.377,1.963c-.007,2.477-.882,4.22-2.292,5.04" transform="translate(-191.235 -536.204)" fill="#030303"/>
          <path id="Path_26105" data-name="Path 26105" d="M15.913,32.591h0a6.061,6.061,0,0,0-.27,1.854l3.377-1.963a6.062,6.062,0,0,1,.271-1.855l-3.377,1.962" transform="translate(-12.696 -24.861)" fill="#030303"/>
          <path id="Path_26106" data-name="Path 26106" d="M20.6,28.654l-3.377,1.963q-.077.179-.139.372h0l3.377-1.962q.063-.193.139-.372" transform="translate(-13.863 -23.258)" fill="#030303"/>
          <path id="Path_26107" data-name="Path 26107" d="M21.2,28.074q.029-.068.06-.134L17.879,29.9c-.021.044-.041.089-.06.134l2.444-1.42.467-.271.122-.071.179-.1.057-.033a.447.447,0,0,0,.109-.063" transform="translate(-14.463 -22.678)" fill="#030303"/>
          <path id="Path_26108" data-name="Path 26108" d="M10.83,7.666,7.453,9.629c-1.41.82-2.285,2.562-2.292,5.039l3.377-1.963c.007-2.477.881-4.22,2.292-5.039" transform="translate(-4.189 -6.222)" fill="#c6c9cf"/>
          <path id="Path_26109" data-name="Path 26109" d="M21.517,21.867a3.132,3.132,0,0,1,1.248-1.409l-3.377,1.963A3.134,3.134,0,0,0,18.14,23.83l3.377-1.963" transform="translate(-14.724 -16.605)" fill="#030303"/>
          <path id="Path_26110" data-name="Path 26110" d="M28.143,18.743l-3.377,1.963c1.07-.622,2.552-.536,4.184.407l3.377-1.963c-1.633-.942-3.114-1.028-4.184-.406" transform="translate(-20.102 -14.891)" fill="#242424"/>
          <path id="Path_26111" data-name="Path 26111" d="M20.709,5.378,17.332,7.341c1.429-.83,3.407-.713,5.591.548L26.3,5.926c-2.184-1.261-4.162-1.378-5.591-.547" transform="translate(-14.068 -3.935)" fill="#030303"/>
          <path id="Path_26112" data-name="Path 26112" d="M70.572,50.274l3.377-1.963a5.3,5.3,0,0,1-2.405-4.165l-3.377,1.963a5.3,5.3,0,0,0,2.405,4.165" transform="translate(-55.33 -35.833)" fill="#242424"/>
          <path id="Path_26113" data-name="Path 26113" d="M50.979,26.886l3.377-1.963-3.994-2.306L46.985,24.58Z" transform="translate(-38.137 -18.358)" fill="#242424"/>
          <path id="Path_26114" data-name="Path 26114" d="M68.167,38.574l3.377-1.963.005-1.748-3.377,1.963Z" transform="translate(-55.33 -28.298)" fill="#242424"/>
          <path id="Path_26115" data-name="Path 26115" d="M68.195,34.636l3.377-1.963,0-.508L68.2,34.128Z" transform="translate(-55.353 -26.108)" fill="#030303"/>
          <path id="Path_26116" data-name="Path 26116" d="M98.358,78.284l3.377-1.963L84.317,66.264,80.94,68.227Z" transform="translate(-65.698 -53.786)" fill="#242424"/>
          <path id="Path_26117" data-name="Path 26117" d="M105.238,70a.617.617,0,0,1-.617-.062L101.244,71.9a.617.617,0,0,0,.617.062L105.238,70" transform="translate(-82.178 -56.77)" fill="#030303"/>
          <path id="Path_26118" data-name="Path 26118" d="M100.009,59.543a.61.61,0,0,1,.254-.559l-3.377,1.963a.61.61,0,0,0-.254.559,1.914,1.914,0,0,0,.869,1.5l3.377-1.963a1.914,1.914,0,0,1-.869-1.5" transform="translate(-78.435 -47.876)" fill="#030303"/>
          <path id="Path_26119" data-name="Path 26119" d="M107.9,70.263l0,0-3.377,1.963,0,0,3.377-1.963" transform="translate(-84.837 -57.031)" fill="#030303"/>
          <path id="Path_26120" data-name="Path 26120" d="M101.359,58.73l-3.377,1.963a.615.615,0,0,1,.62.061l3.377-1.963a.615.615,0,0,0-.62-.061" transform="translate(-79.53 -47.622)" fill="#3a3a3b"/>
          <path id="Path_26121" data-name="Path 26121" d="M101.888,63.332l3.377-1.963a.61.61,0,0,0,.254-.559,1.915,1.915,0,0,0-.869-1.5l-3.377,1.963a1.915,1.915,0,0,1,.869,1.5.61.61,0,0,1-.254.559" transform="translate(-82.202 -48.138)" fill="#3a3a3b"/>
          <path id="Path_26122" data-name="Path 26122" d="M118.4,71.239a.281.281,0,0,1,.117-.257l-3.377,1.963a.282.282,0,0,0-.117.257.882.882,0,0,0,.4.693l3.377-1.963a.88.88,0,0,1-.4-.693" transform="translate(-93.366 -57.615)" fill="#030303"/>
          <path id="Path_26123" data-name="Path 26123" d="M119.026,70.866l-3.377,1.963a.283.283,0,0,1,.285.028l3.377-1.963a.283.283,0,0,0-.285-.028" transform="translate(-93.87 -57.499)" fill="#3a3a3b"/>
          <path id="Path_26124" data-name="Path 26124" d="M120.943,80.179l3.377-1.963-3.792-2.19L117.15,77.99Z" transform="translate(-95.089 -61.71)" fill="#030303"/>
          <path id="Path_26125" data-name="Path 26125" d="M140.952,87.682a.283.283,0,0,1-.285-.028l-3.377,1.963a.283.283,0,0,0,.285.028l3.377-1.963" transform="translate(-111.435 -71.147)" fill="#030303"/>
          <path id="Path_26126" data-name="Path 26126" d="M120.957,75.283l3.377-1.963-3.792-2.19-3.377,1.963Z" transform="translate(-95.1 -57.736)" fill="#3a3a3b"/>
          <path id="Path_26127" data-name="Path 26127" d="M137.585,85.67l3.377-1.963a.281.281,0,0,0,.117-.257.881.881,0,0,0-.4-.693L137.3,84.72a.881.881,0,0,1,.4.693.281.281,0,0,1-.117.257" transform="translate(-111.446 -67.173)" fill="#3a3a3b"/>
          <path id="Path_26128" data-name="Path 26128" d="M178.53,119.836a1.7,1.7,0,0,1-1.717-.168l-3.377,1.963a1.7,1.7,0,0,0,1.717.168l3.377-1.963" transform="translate(-140.775 -97.133)" fill="#242424"/>
          <path id="Path_26129" data-name="Path 26129" d="M182.552,115.854l3.377-1.963a1.689,1.689,0,0,0,.7-1.547l-3.377,1.963a1.688,1.688,0,0,1-.7,1.547" transform="translate(-148.175 -91.188)" fill="#030303"/>
          <path id="Path_26130" data-name="Path 26130" d="M190.311,107.33l3.377-1.963-3.995-2.306-3.377,1.963Z" transform="translate(-151.23 -83.653)" fill="#242424"/>
          <path id="Path_26131" data-name="Path 26131" d="M186.29,106.772l3.377-1.963.005-1.748-3.377,1.963Z" transform="translate(-151.208 -83.653)" fill="#030303"/>
          <path id="Path_26132" data-name="Path 26132" d="M90.446,46.97l3.377-1.963L71.579,32.165,68.2,34.128Z" transform="translate(-55.358 -26.108)" fill="#030303"/>
          <path id="Path_26133" data-name="Path 26133" d="M186.316,102.834l3.377-1.963,0-.508-3.377,1.963Z" transform="translate(-151.23 -81.463)" fill="#030303"/>
          <path id="Path_26134" data-name="Path 26134" d="M252.588,273.912l-.024,8.464.656.379.024-8.464Z" transform="translate(-205.002 -222.33)" fill="#c6c9cf"/>
          <path id="Path_26135" data-name="Path 26135" d="M248.032,177.255l3.377-1.963-.027,9.4-2.662,1.547-.012,4.19-.01,3.436-.024,8.464-.006,1.97h0l-.024,8.464,2.662-1.547-.157,55.47-3.377,1.963Z" transform="translate(-201.113 -142.282)" fill="#030303"/>
          <path id="Path_26136" data-name="Path 26136" d="M239.524,172.344l-.253,89.1-1.981,1.151.259-91.392,3.377-1.963-.006,2.29Z" transform="translate(-192.605 -137.371)" fill="#242424"/>
          <path id="Path_26137" data-name="Path 26137" d="M77.253,29.988l3.377-1.963L50.4,10.571,47.02,12.533Z" transform="translate(-38.165 -8.58)" fill="#030303"/>
          <path id="Path_26138" data-name="Path 26138" d="M213.392,127.426l3.377-1.963a12.943,12.943,0,0,0-5.864-10.157l-3.377,1.963a12.942,12.942,0,0,1,5.864,10.157" transform="translate(-168.447 -93.593)" fill="#242424"/>
          <path id="Path_26139" data-name="Path 26139" d="M215.4,118.788l3.377-1.963c.014-4.986-3.491-11.059-7.831-13.565l-3.377,1.963c4.34,2.506,7.845,8.579,7.831,13.565" transform="translate(-168.476 -83.815)" fill="#030303"/>
          <path id="Path_26140" data-name="Path 26140" d="M0,107.886c-.015,5.43,3.816,12.067,8.542,14.795l30.233,17.455c4.725,2.728,8.583.531,8.6-4.9l.16-56.3.024-8.464.006-1.97.024-8.464.01-3.436.012-4.19.024-8.571c.015-5.43-3.817-12.067-8.542-14.8L8.857,11.595c-4.726-2.728-8.583-.53-8.6,4.9Zm.713.411L.972,16.906c.014-4.986,3.543-7,7.883-4.492L39.087,29.869c4.339,2.505,7.845,8.579,7.831,13.564l-.259,91.392c-.014,4.986-3.543,7-7.883,4.492L8.544,121.863C4.2,119.357.7,113.284.713,108.3" transform="translate(0 -8.46)" fill="#c6c9cf"/>
          <path id="Path_26141" data-name="Path 26141" d="M3.786,129.069l3.377-1.963L7.416,38l-1.4.812a6.068,6.068,0,0,1,.271-1.855q.063-.193.139-.372.029-.068.06-.134c.047-.1.1-.2.153-.288l-2.6,1.509ZM6.429,36.59l.993-.577-.993.577" transform="translate(-3.073 -29.231)" fill="#c6c9cf"/>
          <path id="Path_26142" data-name="Path 26142" d="M14.525,32.935c.011-3.727,2.658-5.237,5.9-3.364l3.994,2.306-.005,1.748a5.3,5.3,0,0,0,2.405,4.166L44.24,47.847c1.332.769,2.416.152,2.42-1.379l0-1.748,3.995,2.306a12.943,12.943,0,0,1,5.864,10.157l-.259,91.392c-.011,3.728-2.658,5.237-5.9,3.364L20.13,134.484a12.942,12.942,0,0,1-5.864-10.157Z" transform="translate(-11.579 -23.349)" fill="#97e1f7"/>
          <path id="Path_26143" data-name="Path 26143" d="M68.167,44.843a5.3,5.3,0,0,0,2.405,4.165L87.991,59.065c1.332.769,2.416.152,2.42-1.379l.005-1.748,0-.508L68.173,42.587V43.1Zm8.825,5.311c0-.255.181-.357.4-.229l3.792,2.189a.881.881,0,0,1,.4.693c0,.255-.181.357-.4.229l-3.792-2.189a.882.882,0,0,1-.4-.693M73.527,48.2c0-.553.392-.776.874-.5a1.915,1.915,0,0,1,.869,1.5c0,.553-.393.776-.874.5a1.913,1.913,0,0,1-.868-1.5" transform="translate(-55.33 -34.567)" fill="#030303"/>
          <path id="Path_26144" data-name="Path 26144" d="M115.43,81.316c-.222-.128-.4-.025-.4.229a.881.881,0,0,0,.4.693l3.792,2.189c.221.128.4.025.4-.229a.881.881,0,0,0-.4-.693Z" transform="translate(-93.366 -65.959)" fill="#3a3a3b"/>
          <path id="Path_26145" data-name="Path 26145" d="M3.785,112.233c-.014,4.986,3.492,11.059,7.832,13.564l30.233,17.455c4.34,2.506,7.868.494,7.882-4.492l.259-91.393C50,42.382,46.5,36.309,42.16,33.8L11.926,16.349c-4.34-2.506-7.869-.494-7.883,4.492Zm1.974,1.14L6.018,21.98c.011-3.727,2.658-5.237,5.9-3.364l3.994,2.306,0-.508L38.16,33.258l0,.507,3.995,2.306a12.943,12.943,0,0,1,5.864,10.157l-.259,91.393c-.011,3.728-2.658,5.236-5.9,3.363L11.623,123.529a12.943,12.943,0,0,1-5.864-10.157" transform="translate(-3.072 -12.395)" fill="#030303"/>
          <path id="Path_26146" data-name="Path 26146" d="M97.505,69.212c-.482-.278-.873-.055-.874.5a1.914,1.914,0,0,0,.869,1.5c.481.278.873.055.874-.5a1.915,1.915,0,0,0-.869-1.5" transform="translate(-78.434 -56.082)" fill="#3a3a3b"/>
          <path id="Path_26147" data-name="Path 26147" d="M244.412,177.479l-.024,8.571-.012,4.19-.01,3.436-.024,8.464-.006,1.97-.024,8.464-.16,56.3c-.008,2.7-.963,4.6-2.5,5.492l-3.377,1.963c1.539-.895,2.495-2.794,2.5-5.492l.16-56.3.024-8.464.005-1.97.024-8.464L241,192.2l.012-4.19.024-8.571Z" transform="translate(-193.402 -144.057)" fill="#afb0b8"/>
          <path id="Path_26148" data-name="Path 26148" d="M18.041.58c1.559-.906,3.717-.781,6.1.592L54.37,18.627c4.725,2.728,8.557,9.365,8.542,14.8l-3.377,1.963c.015-5.43-3.817-12.067-8.542-14.795L20.76,3.135c-2.378-1.373-4.536-1.5-6.1-.592Z" transform="translate(-11.903 0)" fill="#c6c9cf"/>
          <path id="Path_26149" data-name="Path 26149" d="M255.751,246.723l.545.317a.893.893,0,0,1-.372-.818l-.545-.317a.894.894,0,0,0,.372.818" transform="translate(-207.287 -199.597)" fill="#babdc2"/>
          <path id="Path_26150" data-name="Path 26150" d="M255.9,239.546l-.545-.317,0,1.257.545.317Z" transform="translate(-207.271 -194.179)" fill="#babdc2"/>
          <path id="Path_26151" data-name="Path 26151" d="M263.568,227l-.545-.317a.9.9,0,0,0-.908.089l.545.317a.9.9,0,0,1,.909-.089" transform="translate(-212.755 -183.926)" fill="#babdc2"/>
          <path id="Path_26152" data-name="Path 26152" d="M257.177,227.845l-.545-.317a2.8,2.8,0,0,0-1.272,2.2l.545.317a2.8,2.8,0,0,1,1.272-2.2" transform="translate(-207.272 -184.681)" fill="#babdc2"/>
          <path id="Path_26153" data-name="Path 26153" d="M255.93,309.916l.545.317a.893.893,0,0,1-.372-.818l-.545-.317a.893.893,0,0,0,.372.818" transform="translate(-207.432 -250.89)" fill="#babdc2"/>
          <path id="Path_26154" data-name="Path 26154" d="M256.019,280.042l-.545-.317.016,5.531.545.316Z" transform="translate(-207.364 -227.048)" fill="#babdc2"/>
          <path id="Path_26155" data-name="Path 26155" d="M263.682,267.5l-.545-.317a.9.9,0,0,0-.908.089l.545.317a.9.9,0,0,1,.908-.089" transform="translate(-212.847 -216.797)" fill="#babdc2"/>
          <path id="Path_26156" data-name="Path 26156" d="M257.292,268.343l-.545-.317a2.8,2.8,0,0,0-1.272,2.2l.545.317a2.8,2.8,0,0,1,1.272-2.2" transform="translate(-207.365 -217.552)" fill="#babdc2"/>
          <path id="Path_26157" data-name="Path 26157" d="M256.087,365.32l.545.317a.894.894,0,0,1-.372-.819l-.545-.317a.894.894,0,0,0,.372.819" transform="translate(-207.56 -295.86)" fill="#babdc2"/>
          <path id="Path_26158" data-name="Path 26158" d="M256.176,335.448l-.545-.317.016,5.531.545.317Z" transform="translate(-207.492 -272.021)" fill="#babdc2"/>
          <path id="Path_26159" data-name="Path 26159" d="M263.839,322.905l-.545-.317a.9.9,0,0,0-.908.089l.545.317a.9.9,0,0,1,.908-.089" transform="translate(-212.974 -261.77)" fill="#babdc2"/>
          <path id="Path_26160" data-name="Path 26160" d="M257.449,323.749l-.545-.317a2.8,2.8,0,0,0-1.272,2.2l.545.317a2.8,2.8,0,0,1,1.272-2.2" transform="translate(-207.492 -262.525)" fill="#babdc2"/>
          <path id="Path_26161" data-name="Path 26161" d="M259.525,228.454a2.8,2.8,0,0,0-1.272,2.2l0,1.257c0,.81.576,1.137,1.28.73a2.8,2.8,0,0,0,1.272-2.2l0-1.257c0-.81-.576-1.137-1.281-.73" transform="translate(-209.62 -185.29)" fill="#d2d5db"/>
          <path id="Path_26162" data-name="Path 26162" d="M259.64,268.952a2.8,2.8,0,0,0-1.272,2.2l.016,5.531c0,.81.576,1.136,1.28.73a2.8,2.8,0,0,0,1.272-2.2l-.016-5.531c0-.81-.575-1.136-1.281-.729" transform="translate(-209.713 -218.162)" fill="#d2d5db"/>
          <path id="Path_26163" data-name="Path 26163" d="M259.8,324.358a2.8,2.8,0,0,0-1.272,2.2l.016,5.531c0,.81.576,1.137,1.28.73a2.8,2.8,0,0,0,1.272-2.2l-.016-5.531c0-.81-.576-1.136-1.281-.729" transform="translate(-209.841 -263.134)" fill="#d2d5db"/>
        </g>
      </g>
      <path id="Path_26164" data-name="Path 26164" d="M111.578,319.848l.826,1.328-4.491,2.427-4.462-7.6.83-.372,3.638,5.623Z" transform="translate(-83.969 -256.196)" fill="#cecece"/>
      <path id="Path_26165" data-name="Path 26165" d="M66.636,322.778l10.557,16.977L47.065,322.36l10.618-4.751,4.462,7.6Z" transform="translate(-38.202 -257.798)" fill="#ededed"/>
      <path id="Path_26166" data-name="Path 26166" d="M77.535,239.6l-11.447,4.413-3.658,1.41L58.791,239.8,47.406,222.2Z" transform="translate(-38.479 -180.36)" fill="#ededed"/>
      <path id="Path_26167" data-name="Path 26167" d="M150.992,320.313l10.621-5.741-.064,22.717Z" transform="translate(-122.558 -255.334)" fill="#fff"/>
      <path id="Path_26168" data-name="Path 26168" d="M146.608,318.986l11.447-4.413-10.621,5.741Z" transform="translate(-118.999 -255.334)" fill="#d6d6d6"/>
      <path id="Path_26169" data-name="Path 26169" d="M57.961,240.171,47.407,222.2,58.791,239.8Z" transform="translate(-38.479 -180.36)" fill="#d6d6d6"/>
      <path id="Path_26170" data-name="Path 26170" d="M47.129,222.2,57.683,240.17l-10.618,4.751Z" transform="translate(-38.201 -180.36)" fill="#fff"/>
      <g id="Group_8527" data-name="Group 8527">
        <g id="Group_8526" data-name="Group 8526" clip-path="url(#clip-path)">
          <path id="Path_26171" data-name="Path 26171" d="M61.347,394.594l-.011,3.857-15.772-9.106a3.688,3.688,0,0,1-1.673-2.9c0-1.065.757-1.495,1.684-.96Z" transform="translate(-35.626 -312.707)" fill="#54d15f"/>
          <path id="Path_26172" data-name="Path 26172" d="M71.807,405.762a3.687,3.687,0,0,1,1.673,2.9c0,1.065-.757,1.495-1.684.959L45.564,394.474a3.688,3.688,0,0,1-1.673-2.9,3.688,3.688,0,0,0,1.673,2.9l15.772,9.106.011-3.857Z" transform="translate(-35.626 -317.836)" fill="#ededed"/>
        </g>
      </g>
    </g>
  </g>
</svg>
