<svg xmlns="http://www.w3.org/2000/svg" xmlns:xlink="http://www.w3.org/1999/xlink" width="160" height="160" viewBox="0 0 160 160">
  <defs>
    <clipPath id="clip-path">
      <rect id="Rectangle_3296" data-name="Rectangle 3296" width="84" height="83" fill="none"/>
    </clipPath>
  </defs>
  <g id="Group_8560" data-name="Group 8560" transform="translate(-1300 -1003)">
    <rect id="Rectangle_135" data-name="Rectangle 135" width="160" height="160" rx="12" transform="translate(1300 1003)" fill="#f0f4ff"/>
    <g id="Group_8422" data-name="Group 8422" transform="translate(1338 1042)">
      <g id="Group_8421" data-name="Group 8421" clip-path="url(#clip-path)">
        <path id="Path_25893" data-name="Path 25893" d="M39,29A10,10,0,1,1,29,19,10,10,0,0,1,39,29" fill="#4874ff"/>
        <circle id="Ellipse_63" data-name="Ellipse 63" cx="10" cy="10" r="10" transform="translate(19 19)" fill="none" stroke="#0022e4" stroke-miterlimit="10" stroke-width="2"/>
        <path id="Path_25894" data-name="Path 25894" d="M7,68V58c0-7.168,9.869-13,22-13s22,5.832,22,13V68Z" fill="#4874ff"/>
        <path id="Path_25895" data-name="Path 25895" d="M29,46c11.383,0,21,5.495,21,12v9H8V58c0-6.505,9.617-12,21-12m0-2C16.3,44,6,50.268,6,58V69H52V58c0-7.732-10.3-14-23-14" fill="#0022e4"/>
        <path id="Path_25896" data-name="Path 25896" d="M63,31A15,15,0,1,1,78,16,15.017,15.017,0,0,1,63,31" fill="#fff"/>
        <path id="Path_25897" data-name="Path 25897" d="M63,2A14,14,0,1,1,49,16,14,14,0,0,1,63,2m0-2A16,16,0,1,0,79,16,16.019,16.019,0,0,0,63,0" fill="#0022e4"/>
        <line id="Line_31" data-name="Line 31" x1="6" y1="5" transform="translate(57 13)" fill="none" stroke="#0022e4" stroke-linecap="round" stroke-miterlimit="10" stroke-width="2"/>
        <line id="Line_32" data-name="Line 32" y1="8" x2="8" transform="translate(63 10)" fill="none" stroke="#0022e4" stroke-linecap="round" stroke-miterlimit="10" stroke-width="2"/>
        <path id="Path_25898" data-name="Path 25898" d="M53,16a1,1,0,1,1-1-1,1,1,0,0,1,1,1" fill="#0022e4"/>
        <path id="Path_25899" data-name="Path 25899" d="M75,16a1,1,0,1,1-1-1,1,1,0,0,1,1,1" fill="#0022e4"/>
        <path id="Path_25900" data-name="Path 25900" d="M63,6a1,1,0,1,1,1-1,1,1,0,0,1-1,1" fill="#0022e4"/>
        <path id="Path_25901" data-name="Path 25901" d="M63,28a1,1,0,1,1,1-1,1,1,0,0,1-1,1" fill="#0022e4"/>
        <path id="Path_25902" data-name="Path 25902" d="M22,68a1,1,0,0,1-1-1V65a1,1,0,0,1,1-1H36.1l6.92-22.3a1,1,0,0,1,.955-.7H77.785a1,1,0,0,1,.955,1.3l-7.759,25a1,1,0,0,1-.955.7Z" fill="#fff"/>
        <path id="Path_25903" data-name="Path 25903" d="M77.785,42h0L70.026,67H22V65H36.835l.437-1.407L43.973,42Zm0-2H43.973a2,2,0,0,0-1.91,1.407L35.362,63H22a2,2,0,0,0-2,2v2a2,2,0,0,0,2,2H70.026a2,2,0,0,0,1.91-1.407l7.759-25A2,2,0,0,0,77.785,40" fill="#0022e4"/>
        <rect id="Rectangle_3295" data-name="Rectangle 3295" width="82" height="7" rx="1" transform="translate(1 68)" fill="#a1c0ff"/>
        <path id="Path_25904" data-name="Path 25904" d="M82,74H2V69H82Zm0-7H2a2,2,0,0,0-2,2v5a2,2,0,0,0,2,2H82a2,2,0,0,0,2-2V69a2,2,0,0,0-2-2" fill="#0022e4"/>
        <path id="Path_25905" data-name="Path 25905" d="M57,59a4,4,0,1,1,4-4,4,4,0,0,1-4,4" fill="#4874ff"/>
        <path id="Path_25906" data-name="Path 25906" d="M57,52a3,3,0,1,1-3,3,3,3,0,0,1,3-3m0-2a5,5,0,1,0,5,5,5,5,0,0,0-5-5" fill="#0022e4"/>
        <path id="Path_25907" data-name="Path 25907" d="M7,83V75H78v8" fill="#4874ff"/>
        <path id="Path_25908" data-name="Path 25908" d="M7,83V75H78v8" fill="none" stroke="#0022e4" stroke-miterlimit="10" stroke-width="2"/>
      </g>
    </g>
  </g>
</svg>
