<svg xmlns="http://www.w3.org/2000/svg" xmlns:xlink="http://www.w3.org/1999/xlink" width="160" height="160" viewBox="0 0 160 160">
  <defs>
    <clipPath id="clip-path">
      <rect id="Rectangle_3284" data-name="Rectangle 3284" width="93.896" height="71.739" fill="none"/>
    </clipPath>
  </defs>
  <g id="Group_8558" data-name="Group 8558" transform="translate(-740 -1003)">
    <rect id="Rectangle_133" data-name="Rectangle 133" width="160" height="160" rx="12" transform="translate(740 1003)" fill="#f0f4ff"/>
    <g id="Group_8418" data-name="Group 8418" transform="translate(773 1047)">
      <g id="Group_8417" data-name="Group 8417" clip-path="url(#clip-path)">
        <path id="Rectangle_3283" data-name="Rectangle 3283" d="M5.541,0H80.46A5.54,5.54,0,0,1,86,5.54V55.487a5.54,5.54,0,0,1-5.54,5.54H5.541A5.541,5.541,0,0,1,0,55.486V5.541A5.541,5.541,0,0,1,5.541,0Z" transform="translate(1 1)" fill="#4874ff"/>
        <path id="Path_25867" data-name="Path 25867" d="M81.46,2A4.541,4.541,0,0,1,86,6.541V56.486a4.541,4.541,0,0,1-4.54,4.541H6.541A4.54,4.54,0,0,1,2,56.486V6.541A4.54,4.54,0,0,1,6.541,2Zm0-2H6.541A6.548,6.548,0,0,0,0,6.541V56.486a6.548,6.548,0,0,0,6.54,6.541H81.46A6.548,6.548,0,0,0,88,56.486V6.541A6.548,6.548,0,0,0,81.46,0" fill="#0022e4"/>
        <path id="Path_25868" data-name="Path 25868" d="M40,46.014H15a2,2,0,0,1-2-2v-25a2,2,0,0,1,2-2H40a2,2,0,0,1,2,2v25a2,2,0,0,1-2,2" fill="#fff"/>
        <path id="Path_25869" data-name="Path 25869" d="M32,26.014a5,5,0,1,1-5-5,5,5,0,0,1,5,5" fill="#4874ff"/>
        <circle id="Ellipse_62" data-name="Ellipse 62" cx="5" cy="5" r="5" transform="translate(22 21.014)" fill="none" stroke="#0022e4" stroke-miterlimit="10" stroke-width="2"/>
        <path id="Path_25870" data-name="Path 25870" d="M18.556,44.014a8.944,8.944,0,0,1,17.888,0" fill="#4874ff"/>
        <path id="Path_25871" data-name="Path 25871" d="M18.556,44.014a8.944,8.944,0,0,1,17.888,0" fill="none" stroke="#0022e4" stroke-miterlimit="10" stroke-width="2"/>
        <path id="Path_25872" data-name="Path 25872" d="M40,17.014a2,2,0,0,1,2,2v25a2,2,0,0,1-2,2H15a2,2,0,0,1-2-2v-25a2,2,0,0,1,2-2Zm0-2H15a4,4,0,0,0-4,4v25a4,4,0,0,0,4,4H40a4,4,0,0,0,4-4v-25a4,4,0,0,0-4-4" fill="#0022e4"/>
        <line id="Line_11" data-name="Line 11" x2="26.95" transform="translate(50 23.514)" fill="#fff"/>
        <line id="Line_12" data-name="Line 12" x2="26.95" transform="translate(50 23.514)" fill="none" stroke="#0022e4" stroke-linecap="round" stroke-miterlimit="10" stroke-width="2"/>
        <line id="Line_13" data-name="Line 13" x2="26.95" transform="translate(50 31.514)" fill="#fff"/>
        <line id="Line_14" data-name="Line 14" x2="26.95" transform="translate(50 31.514)" fill="none" stroke="#0022e4" stroke-linecap="round" stroke-miterlimit="10" stroke-width="2"/>
        <line id="Line_15" data-name="Line 15" x2="14" transform="translate(50 39.514)" fill="#fff"/>
        <line id="Line_16" data-name="Line 16" x2="14" transform="translate(50 39.514)" fill="none" stroke="#0022e4" stroke-linecap="round" stroke-miterlimit="10" stroke-width="2"/>
        <path id="Path_25873" data-name="Path 25873" d="M72.222,42.123l-12.93,22.4a4.146,4.146,0,0,0,3.591,6.219h25.86a4.146,4.146,0,0,0,3.591-6.219L79.4,42.123a4.148,4.148,0,0,0-7.182,0" fill="#fff"/>
        <path id="Path_25874" data-name="Path 25874" d="M72.222,42.123l-12.93,22.4a4.146,4.146,0,0,0,3.591,6.219h25.86a4.146,4.146,0,0,0,3.591-6.219L79.4,42.123A4.148,4.148,0,0,0,72.222,42.123Z" fill="none" stroke="#0022e4" stroke-miterlimit="10" stroke-width="2"/>
        <path id="Path_25875" data-name="Path 25875" d="M77.813,63.68a2,2,0,1,1-2-2,2,2,0,0,1,2,2" fill="#0022e4"/>
        <path id="Path_25876" data-name="Path 25876" d="M77.813,48.9c0,.992-.279,10.775-2,10.775-1.646,0-2-9.783-2-10.775a2.012,2.012,0,0,1,4,0" fill="#0022e4"/>
      </g>
    </g>
  </g>
</svg>
