<svg xmlns="http://www.w3.org/2000/svg" xmlns:xlink="http://www.w3.org/1999/xlink" width="99.838" height="146.229" viewBox="0 0 99.838 146.229">
  <defs>
    <clipPath id="clip-path">
      <rect id="Rectangle_3326" data-name="Rectangle 3326" width="99.838" height="129.31" fill="none"/>
    </clipPath>
  </defs>
  <g id="Group_8540" data-name="Group 8540" transform="translate(-1294 -2604.764)">
    <ellipse id="Ellipse_81" data-name="Ellipse 81" cx="35.183" cy="17.36" rx="35.183" ry="17.36" transform="translate(1318.054 2692.442) rotate(22)" opacity="0.1"/>
    <g id="Group_8528" data-name="Group 8528" transform="translate(1294 2604.764)">
      <g id="Group_8522" data-name="Group 8522" clip-path="url(#clip-path)">
        <path id="Path_26071" data-name="Path 26071" d="M96.769,122.814a2.771,2.771,0,0,1-1.391-.4L5.623,70.6a4.7,4.7,0,0,1-2.193-3.8l.155-54.648a2.324,2.324,0,0,1,2.28-2.5,2.766,2.766,0,0,1,1.389.4L97.01,61.861a4.7,4.7,0,0,1,2.193,3.8l-.155,54.649a2.324,2.324,0,0,1-2.279,2.5Z" transform="translate(-2.423 -6.814)" fill="#343439"/>
        <path id="Path_26072" data-name="Path 26072" d="M10.053,14.843c-.808-.466-1.466-.091-1.469.837L8.429,70.329a3.216,3.216,0,0,0,1.459,2.528l89.755,51.82c.808.466,1.466.094,1.469-.837l.155-54.649a3.219,3.219,0,0,0-1.459-2.528Z" transform="translate(-5.956 -10.346)" fill="#29292c"/>
        <path id="Path_26073" data-name="Path 26073" d="M10.053,14.843c-.808-.466-1.466-.091-1.469.837L8.429,70.329a3.216,3.216,0,0,0,1.459,2.528l89.755,51.82c.808.466,1.466.094,1.469-.837l.155-54.649a3.219,3.219,0,0,0-1.459-2.528Z" transform="translate(-5.956 -10.346)" fill="#202021"/>
        <path id="Path_26074" data-name="Path 26074" d="M16.713,79.046a1.084,1.084,0,0,1-.286-.509l.149-52.257,87.71,50.639a1.087,1.087,0,0,1,.286.511l-.149,52.255Z" transform="translate(-11.607 -18.568)" fill="#fff"/>
        <path id="Path_26075" data-name="Path 26075" d="M128.816,385.689l12.044-9.537-.007,1.286-12.058,9.6-29.2-16.884v-1.336Z" transform="translate(-70.368 -260.589)" fill="#bfbfbf"/>
        <path id="Path_26076" data-name="Path 26076" d="M140.86,359.155l-12.044,9.537L99.595,351.821l15.622-7.06Z" transform="translate(-70.369 -243.591)" fill="#d6d6d6"/>
        <path id="Path_26077" data-name="Path 26077" d="M220.451,355.741l2.423-1.12-1.044-15.107-2.423,1.12Z" transform="translate(-155.022 -239.884)" fill="#d6d6d6"/>
        <path id="Path_26078" data-name="Path 26078" d="M155.175,308.124l-1.35,13.724,20.289,11.714-1.044-15.107Z" transform="translate(-108.685 -217.705)" fill="#b7b8b8"/>
        <path id="Path_26079" data-name="Path 26079" d="M57.84,250.044l36.783,21.237c1.618.934,2.932.185,2.938-1.674l.193-68.1-.171,60.256L.022,205.433,0,213.28a6.43,6.43,0,0,0,2.919,5.055l37.027,21.378Z" transform="translate(0 -142.373)" fill="#b7b8b8"/>
        <path id="Path_26080" data-name="Path 26080" d="M330.407,267.847h0l.193-68.1,2.084-.731-.193,67.492a2.1,2.1,0,0,1-.854,1.879l-2.084,1.342a2.1,2.1,0,0,0,.854-1.879" transform="translate(-232.846 -140.613)" fill="#ccc"/>
        <path id="Path_26081" data-name="Path 26081" d="M5,.975A1.3,1.3,0,0,0,3.567.928L5.307.2A2.112,2.112,0,0,1,7.392.4l-1.74.731C5.549,1.073,5.1,1.021,5,.975" transform="translate(-2.52 0)" fill="#343438"/>
        <path id="Path_26082" data-name="Path 26082" d="M102.374,55.046l2.084-.731L12.41,1.369l-1.74.73Z" transform="translate(-7.538 -0.967)" fill="#343438"/>
        <path id="Path_26083" data-name="Path 26083" d="M325.965,186.5a6.759,6.759,0,0,0-2.2-3.569,4.54,4.54,0,0,0-.59-.409l2.084-.73a6.347,6.347,0,0,1,2.919,5.053l-2.084.731a4.753,4.753,0,0,0-.129-1.076" transform="translate(-228.34 -128.447)" fill="#343438"/>
        <path id="Path_26084" data-name="Path 26084" d="M.076,64.819l97.561,56.327,2.084-1.418.171-59.568-2.084.731a6.43,6.43,0,0,0-2.919-5.053L3.185,2.891C1.567,1.957.252,2.706.247,4.563Zm2.451-3.077L2.682,7.093c0-.928.661-1.3,1.469-.837l89.755,51.82A3.219,3.219,0,0,1,95.366,60.6l-.155,54.649c0,.931-.661,1.3-1.469.837L3.987,64.27a3.215,3.215,0,0,1-1.46-2.528" transform="translate(-0.054 -1.759)" fill="#343439"/>
        <path id="Path_26085" data-name="Path 26085" d="M96.523,114.272a1.165,1.165,0,0,1,.4.428c.224.387.223.8,0,.932l-3.8,2.168-1.877-3.251c-.224-.387-.223-.8,0-.933a.408.408,0,0,1,.406.041,1.167,1.167,0,0,1,.4.427l1.068,1.851,2.99-1.7a.407.407,0,0,1,.406.04" transform="translate(-64.351 -80.249)" fill="#fff"/>
        <path id="Path_26086" data-name="Path 26086" d="M94.761,101.9a1.385,1.385,0,0,1,.629,1.089l-.022,7.93c0,.4-.285.562-.633.361l-6.9-3.984a1.385,1.385,0,0,1-.629-1.09l.023-7.93c0-.4.284-.562.633-.361Zm-.572,2.606c.225-.127.227-.545,0-.932a1.164,1.164,0,0,0-.4-.428.407.407,0,0,0-.406-.041l-2.99,1.7-1.068-1.851a1.165,1.165,0,0,0-.4-.427.408.408,0,0,0-.406-.041c-.225.128-.227.546,0,.933l1.877,3.251,3.8-2.168" transform="translate(-61.614 -69.12)" fill="#f07011"/>
        <path id="Path_26087" data-name="Path 26087" d="M161.79,152.92a2.292,2.292,0,0,1,1.04,1.8c0,.662-.471.929-1.047.6l-29.559-17.066a2.292,2.292,0,0,1-1.04-1.8c0-.663.471-.929,1.047-.6Z" transform="translate(-92.688 -95.887)" fill="#939393"/>
        <path id="Path_26088" data-name="Path 26088" d="M96.379,160.737a1.163,1.163,0,0,1,.405.428c.224.387.223.8,0,.932l-3.8,2.168L91.1,161.013c-.224-.387-.223-.8,0-.932a.408.408,0,0,1,.406.041,1.168,1.168,0,0,1,.4.428l1.068,1.85,2.99-1.7a.408.408,0,0,1,.406.041" transform="translate(-64.25 -113.079)" fill="#fff"/>
        <path id="Path_26089" data-name="Path 26089" d="M94.617,148.361a1.385,1.385,0,0,1,.629,1.089l-.022,7.93c0,.4-.285.562-.633.361l-6.9-3.984a1.385,1.385,0,0,1-.629-1.09l.023-7.93c0-.4.284-.562.633-.361Zm-.572,2.606c.225-.127.227-.545,0-.932a1.168,1.168,0,0,0-.405-.428.408.408,0,0,0-.406-.041l-2.99,1.7-1.068-1.85a1.163,1.163,0,0,0-.4-.428.406.406,0,0,0-.406-.041c-.225.127-.227.545,0,.932l1.877,3.251,3.8-2.168" transform="translate(-61.512 -101.948)" fill="#f07011"/>
        <path id="Path_26090" data-name="Path 26090" d="M161.646,199.383a2.292,2.292,0,0,1,1.04,1.8c0,.662-.471.929-1.047.6L132.08,184.715a2.293,2.293,0,0,1-1.04-1.8c0-.663.471-.929,1.047-.6Z" transform="translate(-92.586 -128.715)" fill="#939393"/>
        <path id="Path_26091" data-name="Path 26091" d="M96.232,208.573a1.167,1.167,0,0,1,.4.427c.224.388.223.806,0,.933l-3.8,2.168-1.877-3.251c-.224-.387-.223-.8,0-.933a.408.408,0,0,1,.406.041,1.167,1.167,0,0,1,.4.427l1.068,1.85,2.99-1.7a.408.408,0,0,1,.406.041" transform="translate(-64.145 -146.877)" fill="#fff"/>
        <path id="Path_26092" data-name="Path 26092" d="M94.47,196.2a1.387,1.387,0,0,1,.629,1.089l-.022,7.931c0,.4-.285.562-.633.361l-6.9-3.984a1.385,1.385,0,0,1-.629-1.09l.023-7.93c0-.4.284-.562.633-.361ZM93.9,198.8c.225-.127.227-.545,0-.933a1.167,1.167,0,0,0-.4-.427.408.408,0,0,0-.406-.041l-2.99,1.7-1.068-1.85a1.167,1.167,0,0,0-.4-.427.408.408,0,0,0-.406-.041c-.225.128-.227.546,0,.933l1.877,3.251,3.8-2.168" transform="translate(-61.408 -135.746)" fill="#f07011"/>
        <path id="Path_26093" data-name="Path 26093" d="M161.5,247.219a2.293,2.293,0,0,1,1.04,1.8c0,.662-.471.929-1.047.6l-29.559-17.066a2.293,2.293,0,0,1-1.04-1.8c0-.663.471-.93,1.047-.6Z" transform="translate(-92.483 -162.514)" fill="#939393"/>
      </g>
    </g>
  </g>
</svg>
