<svg xmlns="http://www.w3.org/2000/svg" xmlns:xlink="http://www.w3.org/1999/xlink" width="166.616" height="97.895" viewBox="0 0 166.616 97.895">
  <defs>
    <clipPath id="clip-path">
      <rect id="Rectangle_191" data-name="Rectangle 191" width="166.616" height="97.895" transform="translate(0 0)" fill="none"/>
    </clipPath>
  </defs>
  <g id="Group_8349" data-name="Group 8349" transform="translate(-877 -5054)">
    <g id="Group_230" data-name="Group 230" transform="translate(877 5054)">
      <g id="Group_229" data-name="Group 229" clip-path="url(#clip-path)">
        <path id="Path_593" data-name="Path 593" d="M142.731,89.967l-13.067-6.6a1.108,1.108,0,0,1-.553-.965V17.2c0-1.439-.16-2.823-1.6-3.584a3.414,3.414,0,0,0-1.6-.361c-.554-.007-1.109,0-1.664,0H36.755c-5.458,0-10.918-.053-16.375,0a3.11,3.11,0,0,0-3.262,2.95l0,.071c-.026.623,0,1.252,0,1.876V82.4a1.108,1.108,0,0,1-.553.965L3.376,89.97a1.18,1.18,0,0,1-1.68-.9A2.977,2.977,0,0,0,.317,90.946a1.135,1.135,0,0,1,1.919.778v3.794c1.54-.077,3.153.068,4.666.068H142.184V93.242a1.083,1.083,0,0,1,1.075-1.091,1.06,1.06,0,0,1,.274.033V90.057a1.1,1.1,0,0,1-.8-.09M21.276,18.86c.023-1.17.82-1.648,1.881-1.648h98.436c.865,0,2.116-.2,2.631.656a1.062,1.062,0,0,1,.21.661v63.2a1.134,1.134,0,0,1-1.117,1.117h-.176c-4.061.166-8.164,0-12.227,0H22.393a1.134,1.134,0,0,1-1.117-1.117V23.356c0-1.5-.03-3,0-4.5M63.046,91.6H7.977a1.118,1.118,0,0,1,0-2.235H63.046a1.123,1.123,0,1,1,0,2.245V91.6Zm75.658,0H78.532a2.068,2.068,0,0,1-.259.86,2.784,2.784,0,0,1-2.323,1.327c-.85.044-1.713,0-2.564,0H66.3a1.118,1.118,0,0,1,0-2.235H75.5a4.606,4.606,0,0,0,.563-.028.706.706,0,0,0,.251-.129c0-.044-.007-.086-.008-.118-.008-.264,0-.53,0-.795a1.134,1.134,0,0,1,1.117-1.117H138.7a1.12,1.12,0,1,1,0,2.24v0Z" fill="#fff"/>
        <path id="Path_594" data-name="Path 594" d="M143.859,88.037l-12.514-6.321V22.083c0-1.937.06-3.884,0-5.82a5.358,5.358,0,0,0-5.371-5.246c-5.218-.123-10.455,0-15.674,0H21.812c-.519,0-1.039-.013-1.557,0a5.361,5.361,0,0,0-5.378,5.231c-.064,1.929,0,3.872,0,5.8V81.715L2.244,88.039a.937.937,0,0,0-.552,1.028,4.238,4.238,0,0,1,.789-.393,4.238,4.238,0,0,0-.789.393,1.179,1.179,0,0,0,1.33,1.006,1.2,1.2,0,0,0,.35-.106l13.186-6.6a1.108,1.108,0,0,0,.553-.965V18.15c0-.623-.026-1.253,0-1.876a3.11,3.11,0,0,1,3.194-3.024l.071,0c5.457-.053,10.918,0,16.376,0h87.5c.554,0,1.109-.007,1.663,0a3.414,3.414,0,0,1,1.6.361c1.437.761,1.6,2.145,1.6,3.584V82.4a1.108,1.108,0,0,0,.553.965l13.067,6.6a1.115,1.115,0,0,0,1.124-1.926" fill="#323232"/>
        <path id="Path_595" data-name="Path 595" d="M23.511,18.677a.242.242,0,0,0,.006.065c.12-.332-.042-.27-.006-.065" fill="#fff"/>
        <path id="Path_596" data-name="Path 596" d="M22.757,19.471l.034-.026c-.142-.017-.177.079-.034.026" fill="#fff"/>
        <path id="Path_597" data-name="Path 597" d="M21.279,66.549V81.725A1.134,1.134,0,0,0,22.4,82.842h88.518c4.063,0,8.166.166,12.227,0h.177a1.134,1.134,0,0,0,1.117-1.117v-63.2a1.062,1.062,0,0,0-.21-.661c-.515-.856-1.766-.656-2.631-.656H23.158c-1.061,0-1.858.478-1.881,1.648-.03,1.5,0,3,0,4.5V66.549ZM23.52,18.742c0-.022,0-.043-.006-.065-.035-.2.123-.267,0,.066Zm-.726.7-.034.026c-.146.055-.11-.04.032-.023Zm.72,40.888V19.447H118.99c1,0,2.158.143,3.211.079V80.607H26.516c-.951,0-2.005-.112-3-.082Z" fill="#323232"/>
        <path id="Path_598" data-name="Path 598" d="M143.533,92.188h0a1.083,1.083,0,0,0-1.316.784,1.054,1.054,0,0,0-.033.274v2.336H6.9c-1.513,0-3.126-.145-4.666-.068v-3.8a1.135,1.135,0,0,0-1.92-.778,3.093,3.093,0,0,0,.157,1.754A3.093,3.093,0,0,1,.316,90.94,1.034,1.034,0,0,0,0,91.718V96.7a1.134,1.134,0,0,0,1.117,1.117H125.851c5.725,0,11.483.18,17.205,0h.244a1.134,1.134,0,0,0,1.117-1.117V93.244a1.032,1.032,0,0,0-.884-1.056" fill="#323232"/>
        <path id="Path_599" data-name="Path 599" d="M7.977,91.6H63.046a1.118,1.118,0,0,0,0-2.235H7.977a1.118,1.118,0,0,0,0,2.235" fill="#323232"/>
        <path id="Path_600" data-name="Path 600" d="M66.3,93.786h7.088c.85,0,1.714.044,2.564,0a2.784,2.784,0,0,0,2.323-1.327,2.063,2.063,0,0,0,.259-.859H138.7a1.118,1.118,0,0,0,0-2.235H77.426a1.134,1.134,0,0,0-1.117,1.117c0,.264-.008.53,0,.794,0,.032.005.074.008.118a.7.7,0,0,1-.251.129,4.606,4.606,0,0,1-.563.028H66.3a1.12,1.12,0,0,0,0,2.235" fill="#323232"/>
        <path id="Path_601" data-name="Path 601" d="M46.718,56.8A9.687,9.687,0,1,0,35.9,53.781,9.789,9.789,0,0,0,46.718,56.8m-6.364-8.83,1.894,1.5L47.1,44.1c.967-1.07,2.543.516,1.58,1.58l-5.512,6.1a1.14,1.14,0,0,1-1.58,0l-2.815-2.228c-1.127-.9.464-2.463,1.58-1.583" fill="#64c8e6"/>
        <path id="Path_602" data-name="Path 602" d="M45.869,59.355a12.045,12.045,0,0,0,9.478-11.536c0-.043.005-.086.005-.132a11.921,11.921,0,1,0-9.483,11.668M35.069,42.8A9.688,9.688,0,1,1,35.9,53.782,9.686,9.686,0,0,1,35.069,42.8Z" fill="#323232"/>
        <path id="Path_603" data-name="Path 603" d="M38.775,49.552l2.815,2.229a1.14,1.14,0,0,0,1.58,0l5.512-6.1c.962-1.065-.614-2.65-1.581-1.58L42.248,49.47l-1.894-1.5c-1.115-.882-2.707.689-1.579,1.582" fill="#fff"/>
        <path id="Path_604" data-name="Path 604" d="M75.927,56.8a9.687,9.687,0,1,0-10.82-3.021A9.789,9.789,0,0,0,75.927,56.8m-6.363-8.83,1.893,1.5L76.31,44.1c.967-1.07,2.543.516,1.58,1.58l-5.512,6.1a1.142,1.142,0,0,1-1.581,0l-2.814-2.228c-1.13-.9.462-2.463,1.578-1.583Z" fill="#64c8e6"/>
        <path id="Path_605" data-name="Path 605" d="M75.076,59.355a12.048,12.048,0,0,0,9.482-11.54,1.161,1.161,0,0,0,0-.132,11.92,11.92,0,1,0-9.482,11.668ZM64.276,42.8a9.688,9.688,0,1,1,.829,10.983A9.686,9.686,0,0,1,64.276,42.8" fill="#323232"/>
        <path id="Path_606" data-name="Path 606" d="M67.98,49.552l2.814,2.229a1.142,1.142,0,0,0,1.581,0l5.512-6.1c.962-1.065-.613-2.65-1.58-1.58L71.454,49.47l-1.893-1.5c-1.117-.882-2.711.689-1.581,1.582" fill="#fff"/>
        <path id="Path_607" data-name="Path 607" d="M105.132,56.8a9.687,9.687,0,1,0-10.82-3.021,9.791,9.791,0,0,0,10.82,3.021m-6.364-8.83,1.894,1.5,4.853-5.369c.967-1.07,2.543.516,1.58,1.58l-5.512,6.1a1.14,1.14,0,0,1-1.58,0l-2.815-2.228c-1.128-.9.466-2.463,1.58-1.583" fill="#64c8e6"/>
        <path id="Path_608" data-name="Path 608" d="M104.284,59.355a12.045,12.045,0,0,0,9.478-11.536q0-.066,0-.132a11.921,11.921,0,1,0-9.483,11.668ZM93.484,42.8a9.688,9.688,0,1,1,.829,10.983A9.686,9.686,0,0,1,93.484,42.8" fill="#323232"/>
        <path id="Path_609" data-name="Path 609" d="M97.188,49.552,100,51.781a1.142,1.142,0,0,0,1.581,0l5.512-6.1c.962-1.065-.613-2.65-1.58-1.58l-4.853,5.369-1.894-1.5c-1.116-.882-2.708.689-1.58,1.582" fill="#fff"/>
        <path id="Path_610" data-name="Path 610" d="M147.2,21.5l-9.555-9.556a1.47,1.47,0,0,1,0-2.079l2.079-2.08a1.47,1.47,0,0,1,2.079,0l6.437,6.442L162.028.431a1.47,1.47,0,0,1,2.079,0l2.079,2.079a1.47,1.47,0,0,1,0,2.079L149.28,21.5a1.47,1.47,0,0,1-2.079,0h0" fill="#c42d2d"/>
      </g>
    </g>
  </g>
</svg>
