<svg xmlns="http://www.w3.org/2000/svg" xmlns:xlink="http://www.w3.org/1999/xlink" width="160" height="160" viewBox="0 0 160 160">
  <defs>
    <clipPath id="clip-path">
      <rect id="Rectangle_3294" data-name="Rectangle 3294" width="88" height="83.333" transform="translate(0 0)" fill="none"/>
    </clipPath>
  </defs>
  <g id="Group_8559" data-name="Group 8559" transform="translate(-1020 -1003)">
    <rect id="Rectangle_134" data-name="Rectangle 134" width="160" height="160" rx="12" transform="translate(1020 1003)" fill="#f0f4ff"/>
    <g id="Group_8420" data-name="Group 8420" transform="translate(1056 1041)">
      <g id="Group_8419" data-name="Group 8419" clip-path="url(#clip-path)">
        <path id="Rectangle_3285" data-name="Rectangle 3285" d="M5.131,0H73.869A5.131,5.131,0,0,1,79,5.131V58.868A5.132,5.132,0,0,1,73.868,64H5.131A5.131,5.131,0,0,1,0,58.869V5.131A5.131,5.131,0,0,1,5.131,0Z" transform="translate(1 4.333)" fill="#4874ff"/>
        <path id="Path_25877" data-name="Path 25877" d="M74.869,5.333A4.131,4.131,0,0,1,79,9.464V63.2a4.131,4.131,0,0,1-4.131,4.131H6.131A4.132,4.132,0,0,1,2,63.2V9.464A4.132,4.132,0,0,1,6.131,5.333Zm0-2H6.131A6.138,6.138,0,0,0,0,9.464V63.2a6.138,6.138,0,0,0,6.131,6.131H74.869A6.137,6.137,0,0,0,81,63.2V9.464a6.137,6.137,0,0,0-6.131-6.131" fill="#0022e4"/>
        <path id="Path_25878" data-name="Path 25878" d="M79,17.333H2V9.464A4.132,4.132,0,0,1,6.131,5.333H74.869A4.132,4.132,0,0,1,79,9.464Z" fill="#a1c0ff"/>
        <line id="Line_17" data-name="Line 17" x2="79" transform="translate(1 17.245)" fill="#4874ff"/>
        <line id="Line_18" data-name="Line 18" x2="79" transform="translate(1 17.245)" fill="none" stroke="#0022e4" stroke-miterlimit="10" stroke-width="2"/>
        <line id="Line_19" data-name="Line 19" y2="6.667" transform="translate(68 1)" fill="#4874ff"/>
        <line id="Line_20" data-name="Line 20" y2="6.667" transform="translate(68 1)" fill="none" stroke="#0022e4" stroke-linecap="round" stroke-miterlimit="10" stroke-width="2"/>
        <line id="Line_21" data-name="Line 21" y2="6.667" transform="translate(15 1)" fill="#4874ff"/>
        <line id="Line_22" data-name="Line 22" y2="6.667" transform="translate(15 1)" fill="none" stroke="#0022e4" stroke-linecap="round" stroke-miterlimit="10" stroke-width="2"/>
        <line id="Line_23" data-name="Line 23" y2="6.667" transform="translate(54.75 1)" fill="#4874ff"/>
        <line id="Line_24" data-name="Line 24" y2="6.667" transform="translate(54.75 1)" fill="none" stroke="#0022e4" stroke-linecap="round" stroke-miterlimit="10" stroke-width="2"/>
        <line id="Line_25" data-name="Line 25" y2="6.667" transform="translate(28.25 1)" fill="#4874ff"/>
        <line id="Line_26" data-name="Line 26" y2="6.667" transform="translate(28.25 1)" fill="none" stroke="#0022e4" stroke-linecap="round" stroke-miterlimit="10" stroke-width="2"/>
        <line id="Line_27" data-name="Line 27" y2="6.667" transform="translate(41.5 1)" fill="#4874ff"/>
        <line id="Line_28" data-name="Line 28" y2="6.667" transform="translate(41.5 1)" fill="none" stroke="#0022e4" stroke-linecap="round" stroke-miterlimit="10" stroke-width="2"/>
        <path id="Path_25879" data-name="Path 25879" d="M45,33.333H36a2,2,0,0,1-2-2v-3a2,2,0,0,1,2-2h9a2,2,0,0,1,2,2v3a2,2,0,0,1-2,2" fill="#4874ff"/>
        <rect id="Rectangle_3286" data-name="Rectangle 3286" width="13" height="7" rx="2" transform="translate(34 26.333)" fill="none" stroke="#0022e4" stroke-miterlimit="10" stroke-width="2"/>
        <path id="Path_25880" data-name="Path 25880" d="M67.5,33.333h-9a2,2,0,0,1-2-2v-3a2,2,0,0,1,2-2h9a2,2,0,0,1,2,2v3a2,2,0,0,1-2,2" fill="#fff"/>
        <rect id="Rectangle_3287" data-name="Rectangle 3287" width="13" height="7" rx="2" transform="translate(56.5 26.333)" fill="none" stroke="#0022e4" stroke-miterlimit="10" stroke-width="2"/>
        <path id="Path_25881" data-name="Path 25881" d="M22.5,33.333h-9a2,2,0,0,1-2-2v-3a2,2,0,0,1,2-2h9a2,2,0,0,1,2,2v3a2,2,0,0,1-2,2" fill="#fff"/>
        <rect id="Rectangle_3288" data-name="Rectangle 3288" width="13" height="7" rx="2" transform="translate(11.5 26.333)" fill="none" stroke="#0022e4" stroke-miterlimit="10" stroke-width="2"/>
        <path id="Path_25882" data-name="Path 25882" d="M45,46.333H36a2,2,0,0,1-2-2v-3a2,2,0,0,1,2-2h9a2,2,0,0,1,2,2v3a2,2,0,0,1-2,2" fill="#fff"/>
        <rect id="Rectangle_3289" data-name="Rectangle 3289" width="13" height="7" rx="2" transform="translate(34 39.333)" fill="none" stroke="#0022e4" stroke-miterlimit="10" stroke-width="2"/>
        <path id="Path_25883" data-name="Path 25883" d="M67.5,46.333h-9a2,2,0,0,1-2-2v-3a2,2,0,0,1,2-2h9a2,2,0,0,1,2,2v3a2,2,0,0,1-2,2" fill="#fff"/>
        <rect id="Rectangle_3290" data-name="Rectangle 3290" width="13" height="7" rx="2" transform="translate(56.5 39.333)" fill="none" stroke="#0022e4" stroke-miterlimit="10" stroke-width="2"/>
        <path id="Path_25884" data-name="Path 25884" d="M22.5,46.333h-9a2,2,0,0,1-2-2v-3a2,2,0,0,1,2-2h9a2,2,0,0,1,2,2v3a2,2,0,0,1-2,2" fill="#4874ff"/>
        <rect id="Rectangle_3291" data-name="Rectangle 3291" width="13" height="7" rx="2" transform="translate(11.5 39.333)" fill="none" stroke="#0022e4" stroke-miterlimit="10" stroke-width="2"/>
        <path id="Path_25885" data-name="Path 25885" d="M45,59.333H36a2,2,0,0,1-2-2v-3a2,2,0,0,1,2-2h9a2,2,0,0,1,2,2v3a2,2,0,0,1-2,2" fill="#4874ff"/>
        <rect id="Rectangle_3292" data-name="Rectangle 3292" width="13" height="7" rx="2" transform="translate(34 52.333)" fill="none" stroke="#0022e4" stroke-miterlimit="10" stroke-width="2"/>
        <path id="Path_25886" data-name="Path 25886" d="M22.5,59.333h-9a2,2,0,0,1-2-2v-3a2,2,0,0,1,2-2h9a2,2,0,0,1,2,2v3a2,2,0,0,1-2,2" fill="#fff"/>
        <rect id="Rectangle_3293" data-name="Rectangle 3293" width="13" height="7" rx="2" transform="translate(11.5 52.333)" fill="none" stroke="#0022e4" stroke-miterlimit="10" stroke-width="2"/>
        <path id="Path_25887" data-name="Path 25887" d="M72,82.333a15,15,0,1,1,15-15,15.017,15.017,0,0,1-15,15" fill="#fff"/>
        <path id="Path_25888" data-name="Path 25888" d="M72,53.333a14,14,0,1,1-14,14,14,14,0,0,1,14-14m0-2a16,16,0,1,0,16,16,16.019,16.019,0,0,0-16-16" fill="#0022e4"/>
        <line id="Line_29" data-name="Line 29" x1="6" y1="5" transform="translate(66 64.333)" fill="none" stroke="#0022e4" stroke-linecap="round" stroke-miterlimit="10" stroke-width="2"/>
        <line id="Line_30" data-name="Line 30" y1="8" x2="8" transform="translate(72 61.333)" fill="none" stroke="#0022e4" stroke-linecap="round" stroke-miterlimit="10" stroke-width="2"/>
        <path id="Path_25889" data-name="Path 25889" d="M62,67.333a1,1,0,1,1-1-1,1,1,0,0,1,1,1" fill="#0022e4"/>
        <path id="Path_25890" data-name="Path 25890" d="M84,67.333a1,1,0,1,1-1-1,1,1,0,0,1,1,1" fill="#0022e4"/>
        <path id="Path_25891" data-name="Path 25891" d="M72,57.333a1,1,0,1,1,1-1,1,1,0,0,1-1,1" fill="#0022e4"/>
        <path id="Path_25892" data-name="Path 25892" d="M72,79.333a1,1,0,1,1,1-1,1,1,0,0,1-1,1" fill="#0022e4"/>
      </g>
    </g>
  </g>
</svg>
