<svg id="グループ_9235" data-name="グループ 9235" xmlns="http://www.w3.org/2000/svg" width="317.116" height="72.159" viewBox="0 0 317.116 72.159">
  <path id="パス_4361" data-name="パス 4361" d="M404.052,185.286V195.34H384.975V242.8H374.691V195.34H355.613V185.286Z" transform="translate(-271.467 -176.172)" fill="#0099d9"/>
  <path id="パス_4362" data-name="パス 4362" d="M405.322,207.244v8.816H388.575v-8.816Z" transform="translate(-264.607 -172.055)" fill="#0099d9"/>
  <path id="パス_4363" data-name="パス 4363" d="M440.889,185.286c13.134,0,18.751,8.01,18.751,17.212,0,7.157-3.456,14.826-12.356,17.3L460.859,242.8H449.536l-13.308-22.239H421.015a1.3,1.3,0,0,0-1.107.356,1.258,1.258,0,0,0-.361,1.092V242.8h-10.2V220.05c0-6.475,2.764-9.117,9.158-9.117h22.729c5.788,0,8.121-3.92,8.121-8.01s-2.506-7.583-8.121-7.583H409.609V185.286Z" transform="translate(-260.283 -176.172)" fill="#0099d9"/>
  <path id="パス_4364" data-name="パス 4364" d="M513.014,185.286l16.528,21.22,17.327-21.218h11.66l-23.078,28.29L558.686,242.8H547.191l-17.886-22.837L510.94,242.8H499.281L523.4,212.809l-21.879-27.523Z" transform="translate(-241.57 -176.172)" fill="#0099d9"/>
  <g id="グループ_9234" data-name="グループ 9234" transform="translate(0 0)">
    <path id="パス_4365" data-name="パス 4365" d="M325.38,183.526A2.615,2.615,0,1,0,328,186.141a2.615,2.615,0,0,0-2.615-2.615Z" transform="translate(-278.302 -176.539)" fill="#0099d9"/>
    <path id="パス_4366" data-name="パス 4366" d="M346.541,209.81a2.375,2.375,0,0,0-.5-2.27c-1.5-2.082-4.321-2.339-6-2.492-.324-.03-.729-.067-.864-.1-.459-.115-1.062-.291-1.59-.453l.122-2.427c2.353.265,6.661.707,10.807.893a9.98,9.98,0,0,0,8.342-3.643c2.476-3.084,3.066-7.5,1.662-12.437-1.984-6.978-8.344-10.125-17.909-8.867a31.227,31.227,0,0,0-3.648.707,5.419,5.419,0,0,1-3.2.151h0c-2.628-.65-6.352.43-10.2,2.969-3.381,2.229-3.573,4.679-3.84,8.07-.058.734-.122,1.542-.222,2.444a26.169,26.169,0,0,0,.791,9.028c.1.449.225.981.278,1.313a28.126,28.126,0,0,1-2.976,2.1c-1.959,1.283-4.639,3.038-7.986,5.615-5.724,4.4-6.331,8.829-6.913,13.1A29.032,29.032,0,0,1,301.564,229c-1.38,4.093-10.38,2.345-13.424,1.407a1.687,1.687,0,0,0-1.943.737,1.646,1.646,0,0,0,.275,2.039c.96.917,9.522,8.962,15.3,8.962,4.141,0,9.011-1.8,12.079-3.016a26.036,26.036,0,0,0-.7,3.39c-.59,4.272.6,5.416,3.168,6.12.235.065.488.134.757.221a9.11,9.11,0,0,0,2.853.411,21.43,21.43,0,0,0,7.123-1.492,2.586,2.586,0,0,0,1.556-2.753,20.718,20.718,0,0,0,23.2,2.392,20.233,20.233,0,0,0-5.266-37.61Zm-28.406,35.9c-.326-.107-.633-.19-.92-.272-.3-.083-.72-.2-.78-.217a4.81,4.81,0,0,1,.041-2.254,22.683,22.683,0,0,1,1.136-4.633c.347-1.011.706-2.054-.159-2.914a1.835,1.835,0,0,0-1.344-.537,3.228,3.228,0,0,0-1.023.19c-.342.112-.892.332-1.6.615-2.728,1.1-7.8,3.133-11.727,3.133-2.05,0-5.257-1.863-8.175-4.019,4.369.374,9.621-.21,11.153-4.756a31.746,31.746,0,0,0,1.268-6.091c.563-4.113,1.009-7.362,5.65-10.932,3.247-2.5,5.866-4.213,7.777-5.467,3.094-2.029,4.508-2.955,4.508-4.611a11.311,11.311,0,0,0-.389-2.3,23.3,23.3,0,0,1-.73-7.93c.1-.943.172-1.789.232-2.554.249-3.163.332-4.229,2.356-5.563,2.976-1.96,5.857-2.923,7.526-2.511a8.644,8.644,0,0,0,4.826-.147,27.769,27.769,0,0,1,3.283-.639c7.923-1.044,12.714,1.134,14.233,6.476,1.1,3.884.729,7.248-1.056,9.475a6.5,6.5,0,0,1-5.561,2.391c-5.953-.268-12.264-1.076-12.328-1.083a1.692,1.692,0,0,0-1.293.372,1.653,1.653,0,0,0-.6,1.191l-.276,5.48a1.659,1.659,0,0,0,1.152,1.659c.069.023,1.536.5,2.671.807a3.876,3.876,0,0,0-2.579.949,2.574,2.574,0,0,0-.75,1.6,20.34,20.34,0,0,0-12.43,13.22,20.065,20.065,0,0,0,3.178,17.775,5.2,5.2,0,0,0-.22,2.848c.017.13.038.291.055.441-1.864.658-5.128,1.463-7.113.813Zm23.81.887a17,17,0,1,1,17.192-17,17.1,17.1,0,0,1-17.192,17Z" transform="translate(-285.961 -177.742)" fill="#0099d9"/>
    <g id="グループ_9233" data-name="グループ 9233" transform="translate(40.267 35.963)">
      <g id="グループ_9231" data-name="グループ 9231" transform="translate(0 14.964)">
        <path id="パス_4367" data-name="パス 4367" d="M322.6,221.97h-2.592a.7.7,0,1,1,0-1.4H322.6a.7.7,0,1,1,0,1.4Z" transform="translate(-319.285 -220.57)" fill="#0099d9"/>
        <path id="パス_4368" data-name="パス 4368" d="M345.272,221.97H342.68a.7.7,0,1,1,0-1.4h2.592a.7.7,0,1,1,0,1.4Z" transform="translate(-314.567 -220.57)" fill="#0099d9"/>
      </g>
      <g id="グループ_9232" data-name="グループ 9232" transform="translate(15.016 0)">
        <path id="パス_4369" data-name="パス 4369" d="M332.421,234.822a.7.7,0,0,1-.7-.7V231.53a.7.7,0,0,1,1.4,0v2.592a.7.7,0,0,1-.7.7Z" transform="translate(-331.721 -203.47)" fill="#0099d9"/>
        <path id="パス_4370" data-name="パス 4370" d="M332.421,212.154a.7.7,0,0,1-.7-.7v-2.592a.7.7,0,0,1,1.4,0v2.592A.7.7,0,0,1,332.421,212.154Z" transform="translate(-331.721 -208.188)" fill="#0099d9"/>
      </g>
    </g>
    <path id="パス_4371" data-name="パス 4371" d="M339.965,226.854l-4.546-4.554a4.109,4.109,0,0,1-1.959,1.959l4.55,4.551a1.386,1.386,0,0,0,1.959-1.959Z" transform="translate(-276.078 -169.132)" fill="#0099d9" fill-rule="evenodd"/>
    <path id="パス_4372" data-name="パス 4372" d="M339.634,209.771a1.389,1.389,0,0,0-1.892.507l-5.13,8.883a4.083,4.083,0,0,1,2.394,1.4l5.136-8.894A1.389,1.389,0,0,0,339.634,209.771Z" transform="translate(-276.253 -171.62)" fill="#0099d9" fill-rule="evenodd"/>
    <path id="パス_4373" data-name="パス 4373" d="M332.479,218.587a2.741,2.741,0,1,1-2.741,2.741A2.741,2.741,0,0,1,332.479,218.587Z" transform="translate(-276.851 -169.837)" fill="#0099d9" fill-rule="evenodd"/>
  </g>
  <rect id="長方形_23081" data-name="長方形 23081" width="47.505" height="10.196" transform="translate(205.877 56.432)" fill="#0099d9"/>
  <rect id="長方形_23082" data-name="長方形 23082" width="47.408" height="10.196" transform="translate(205.877 9.113)" fill="#0099d9"/>
  <rect id="長方形_23083" data-name="長方形 23083" width="46.924" height="9.246" transform="translate(205.877 33.14)" fill="#0099d9"/>
</svg>
