<svg id="Group_278" data-name="Group 278" xmlns="http://www.w3.org/2000/svg" xmlns:xlink="http://www.w3.org/1999/xlink" width="32" height="20.996" viewBox="0 0 32 20.996">
  <defs>
    <clipPath id="clip-path">
      <rect id="Rectangle_210" data-name="Rectangle 210" width="32" height="20.996" fill="#fc6e02"/>
    </clipPath>
  </defs>
  <g id="Group_277" data-name="Group 277" clip-path="url(#clip-path)">
    <path id="Path_623" data-name="Path 623" d="M0,0V3.274A18.867,18.867,0,0,1,6.883,4.56q.568.225,1.1.481a17.443,17.443,0,0,1,2.605-1A19.155,19.155,0,0,1,16,3.274,18.875,18.875,0,0,1,22.913,4.56q.568.225,1.1.481a17.456,17.456,0,0,1,2.605-1A19.164,19.164,0,0,1,32,3.274V0Z" fill="#fc6e02"/>
    <path id="Path_624" data-name="Path 624" d="M320.59,122.977a3.978,3.978,0,0,0,6.2,3.3,3.97,3.97,0,0,0,1.755-3.3,3.393,3.393,0,0,0-.256-1.251,5.512,5.512,0,0,0-.792-1.349,10.058,10.058,0,0,0-2.931-2.443,10.815,10.815,0,0,0-2.407,1.84,5.979,5.979,0,0,0-1.37,2.1,3.322,3.322,0,0,0-.2,1.106" transform="translate(-300.553 -110.563)" fill="#fc6e02"/>
    <path id="Path_625" data-name="Path 625" d="M27.908,87.822a8.024,8.024,0,0,1,1.828,2.841,5.386,5.386,0,0,1,.318,1.792,6.04,6.04,0,1,1-12.081,0,5.729,5.729,0,0,1,.693-2.648,9.007,9.007,0,0,1,1.824-2.351,12.554,12.554,0,0,1,1.308-1.07c-.316-.116-.64-.224-.973-.323A17.111,17.111,0,0,0,16,85.377a16.875,16.875,0,0,0-5.8,1.008,12.1,12.1,0,0,1,1.679,1.437,8.029,8.029,0,0,1,1.828,2.841,5.38,5.38,0,0,1,.319,1.792,6.04,6.04,0,1,1-12.081,0,5.731,5.731,0,0,1,.692-2.648,9.009,9.009,0,0,1,1.825-2.351,12.519,12.519,0,0,1,1.308-1.07c-.316-.116-.64-.224-.973-.323A17.118,17.118,0,0,0,0,85.377v15.66H32V85.377a16.879,16.879,0,0,0-5.771,1.008,12.092,12.092,0,0,1,1.679,1.437" transform="translate(0 -80.041)" fill="#fc6e02"/>
    <path id="Path_626" data-name="Path 626" d="M64.118,122.977a3.978,3.978,0,0,0,6.2,3.3,3.972,3.972,0,0,0,1.755-3.3,3.4,3.4,0,0,0-.256-1.251,5.531,5.531,0,0,0-.791-1.349,10.066,10.066,0,0,0-2.931-2.443,10.805,10.805,0,0,0-2.406,1.84,5.977,5.977,0,0,0-1.37,2.1,3.317,3.317,0,0,0-.2,1.106" transform="translate(-60.111 -110.563)" fill="#fc6e02"/>
  </g>
</svg>
