<svg xmlns="http://www.w3.org/2000/svg" xmlns:xlink="http://www.w3.org/1999/xlink" width="334.544" height="455.417" viewBox="0 0 334.544 455.417">
  <defs>
    <clipPath id="clip-path">
      <rect id="Rectangle_3308" data-name="Rectangle 3308" width="334.544" height="455.417" fill="none"/>
    </clipPath>
  </defs>
  <g id="bg" transform="translate(-187.162 -876.792)">
    <g id="Group_8557" data-name="Group 8557" transform="translate(0 581)">
      <g id="Group_8478" data-name="Group 8478" transform="translate(187.162 295.795)" opacity="0.5">
        <g id="Group_8476" data-name="Group 8476" transform="translate(0 -0.003)" clip-path="url(#clip-path)">
          <path id="Path_26017" data-name="Path 26017" d="M318.757,1163.675l-.1-.063a46.184,46.184,0,0,0-25.992-7.6,16.83,16.83,0,0,1-8.734-1.447q-.388-.2-.736-.43a5.867,5.867,0,0,1-2.77-3.916,2.264,2.264,0,0,1,1.286-2.243l8.295-5.184a16.585,16.585,0,0,0,3.938-1.842l.032-.021,57.691-37.66-65.539-41.349a5.172,5.172,0,0,0-3.1-.688,11.637,11.637,0,0,0-5.391,1.618q-.287.186-.545.392a4.861,4.861,0,0,0-1.87,4.888c.056.293,1.23,7.239-10,14.527l-.1.062a49.153,49.153,0,0,1-24.487,7.244c-9.078.342-17.45-1.588-23.576-5.434s-9.273-9.148-8.858-14.929c.413-5.758,4.307-11.3,10.967-15.624l.085-.056a40.47,40.47,0,0,1,22.785-6.622,14.743,14.743,0,0,0,7.655-1.256q.34-.178.645-.376a5.14,5.14,0,0,0,2.432-3.427,1.984,1.984,0,0,0-1.123-1.967l-60.072-37.513-.579.375-1.1.712L158.321,1024.3l.028.017-25.87,16.887-.013.009a7.209,7.209,0,0,1-3.846,1.119c-2.951-.005-5.306-.65-6.817-1.86a4.95,4.95,0,0,1-1.468-5.711c.116-.359,2.659-8.893-9.839-16.625-15.246-9.433-41.044-8.374-57.567,2.349l-.1.065c-16.52,10.785-17.528,27.247-2.252,36.7a42.758,42.758,0,0,0,26.417,5.8c3.643-.532,6.847-.256,9.022.78a4.9,4.9,0,0,1,3.107,4.281,3.056,3.056,0,0,1-1.669,2.481l-64.2,41.872-.577.376,60,37.08a2.4,2.4,0,0,1,1.373,2.352,6.128,6.128,0,0,1-2.916,4.147q-.346.224-.731.428a17.68,17.68,0,0,1-9.172,1.545,48.4,48.4,0,0,0-27.154,7.978l-.113.073c-16.52,10.784-17.53,27.248-2.25,36.7,15.246,9.433,41.042,8.373,57.567-2.349l.1-.065c13.512-8.821,12.006-17.186,11.934-17.538a5.788,5.788,0,0,1,2.184-5.869,8.287,8.287,0,0,1,.692-.5,13.96,13.96,0,0,1,6.406-1.939,6.244,6.244,0,0,1,3.738.81l58.846,36.445.874.541,62.462-40.773a12.785,12.785,0,0,1,5.5,1.79q.327.213.622.448a5.547,5.547,0,0,1,2.125,5.582c-.064.334-1.417,8.259,11.389,16.6l.109.071c7.652,4.952,17.573,7.9,27.934,8.31s19.917-1.782,26.916-6.161,10.6-10.424,10.135-17.023c-.461-6.572-4.9-12.907-12.489-17.851" transform="translate(-17.125 -757.268)" fill="#d8d8d8"/>
          <path id="Path_26018" data-name="Path 26018" d="M296.08,1141l-.1-.063a46.193,46.193,0,0,0-25.992-7.6,16.827,16.827,0,0,1-8.735-1.447q-.388-.2-.736-.43a5.866,5.866,0,0,1-2.77-3.916,2.264,2.264,0,0,1,1.285-2.243l8.295-5.184a16.6,16.6,0,0,0,3.938-1.843l.032-.021,57.691-37.66-65.539-41.349a5.174,5.174,0,0,0-3.1-.688,11.644,11.644,0,0,0-5.391,1.617q-.287.186-.545.392a4.861,4.861,0,0,0-1.87,4.889c.056.292,1.23,7.238-10,14.527l-.1.062a49.154,49.154,0,0,1-24.487,7.244c-9.078.341-17.45-1.588-23.576-5.434s-9.273-9.148-8.858-14.929c.413-5.758,4.307-11.3,10.967-15.624l.085-.056a40.471,40.471,0,0,1,22.785-6.622,14.746,14.746,0,0,0,7.655-1.256q.34-.178.645-.376a5.138,5.138,0,0,0,2.432-3.427,1.983,1.983,0,0,0-1.123-1.967L168.9,980.083l-.579.375-1.1.712-31.577,20.453.028.017-25.87,16.887-.013.009a7.2,7.2,0,0,1-3.846,1.119c-2.951-.005-5.306-.65-6.817-1.86a4.95,4.95,0,0,1-1.468-5.711c.116-.359,2.659-8.893-9.839-16.625-15.246-9.434-41.044-8.374-57.567,2.349l-.1.065c-16.52,10.785-17.528,27.247-2.252,36.7a42.758,42.758,0,0,0,26.417,5.8c3.643-.532,6.847-.256,9.022.78a4.9,4.9,0,0,1,3.107,4.281,3.056,3.056,0,0,1-1.669,2.482l-64.2,41.872-.577.376,60,37.08a2.4,2.4,0,0,1,1.373,2.353,6.127,6.127,0,0,1-2.916,4.147q-.346.225-.731.428a17.679,17.679,0,0,1-9.172,1.545A48.393,48.393,0,0,0,21.4,1143.7l-.112.073c-16.52,10.784-17.53,27.248-2.25,36.7,15.246,9.434,41.042,8.373,57.567-2.349l.1-.065c13.512-8.821,12.006-17.186,11.935-17.538a5.789,5.789,0,0,1,2.184-5.869,8.458,8.458,0,0,1,.692-.5,13.957,13.957,0,0,1,6.406-1.938,6.241,6.241,0,0,1,3.738.81l58.846,36.445.874.541,62.462-40.773a12.785,12.785,0,0,1,5.5,1.79q.327.213.622.448a5.548,5.548,0,0,1,2.125,5.583c-.064.334-1.417,8.26,11.389,16.6l.108.071c7.652,4.952,17.573,7.9,27.934,8.31s19.917-1.782,26.916-6.161,10.6-10.424,10.135-17.022c-.461-6.572-4.9-12.907-12.489-17.851" transform="translate(0 -740.143)" fill="#1f94d3"/>
          <path id="Path_26019" data-name="Path 26019" d="M658.9,237.732a24.4,24.4,0,0,1,2.29-8.561,15.985,15.985,0,0,1,2.946-4.087,7.014,7.014,0,0,1,3.614-2.482,4.473,4.473,0,0,1,.711,4.182c-1.611,4.651-5.07,11.357-9.561,10.948" transform="translate(-497.589 -168.104)" fill="#004486"/>
          <path id="Path_26020" data-name="Path 26020" d="M513.565,194.394a56.353,56.353,0,0,0,2.545,6.986s4.061,6.592,3.311,17.149c3.178-1.807,5.541-1.407,9.376-.69a58.58,58.58,0,0,1,9.246,3.025,27.268,27.268,0,0,0,.67-6.342l5.833-.389s6.615-10.041,7-13.223c.335-2.774,1.75-16.527,1.75-16.527s-3.924-13.507-9.31-17.827S527.43,164,521.2,166.968a17.707,17.707,0,0,0-9.6,11.884c-.752,4.1.3,8.881,1.968,15.542" transform="translate(-386.163 -123.826)" fill="#fff"/>
          <path id="Path_26021" data-name="Path 26021" d="M598.716,1490.744c2.337.916,15.566,2.831,15.566,2.831l14.337,1.568c4.3.82,5.1,4.452,4.18,6.694-1.065,2.608-7.722,4.891-12.317,6.008a22.349,22.349,0,0,1-7.115.362c-2.064-.218-4.3-1.261-6.512-1.085a4.744,4.744,0,0,0-3.859,2.291,60.1,60.1,0,0,1-10.036-.333c-3.647-.672-4.132-11.565-1.6-19.844Z" transform="translate(-445.39 -1124.646)" fill="#072951"/>
          <path id="Path_26022" data-name="Path 26022" d="M474.25,1400.091c2.571,1.349,17.555,2.844,17.555,2.844l11.226,1.074c2.786.289,5.241,2.42,3.9,4.881-1.555,2.863-6.178,4.859-9.567,6.15a77.814,77.814,0,0,1-10.25,3.124c-2.878.57-4.762-.427-6.345.1-1.738.575-1.66,1.952-2.765,3.769-7.857,2.354-10.093.606-12.366-1.036-3.961-2.861-.125-15-.125-15Z" transform="translate(-350.293 -1057.326)" fill="#072951"/>
          <path id="Path_26023" data-name="Path 26023" d="M469.1,772.948c.608-18.535,4.384-26.309,4.384-26.309s.31,1.45,5.15,5.2c-.511-5.166-.228-9.808,1.187-13.34,3.936-9.828,24.657-12.588,24.657-12.588,5.8,3.012,22.159,12.676,25.256,25.6,6.368,26.574,1.058,66.017-.7,84.324-1.245,12.979-7.984,79.325-7.984,79.325-1.6,9.283-17.492,8.49-22.861,1.256-.8-24.5-2.571-119.864-2.571-119.864-.142,2.687-.294,5.582-.452,8.709-.469,9.285-1.393,39.43-2.251,47.442-2.141,20-2.474,42.558-4.682,44.431-6.645,5.637-14.644,6.094-20.952,1.234,0,0,1.645-120.2,1.816-125.424" transform="translate(-352.886 -548.198)" fill="#004486"/>
          <path id="Path_26024" data-name="Path 26024" d="M559.371,377.724c-1.315-.28-2.642-.477-3.966-.7l-.734-.346a79.243,79.243,0,0,0-9.626-4.032c-2.288-.738-3.226-.889-5.513-1.643-.209-2.642-.465-4.467.7-5.283,8.5-.408,17.438,4.344,19.613,5.62,1.8,1.055,3,4.932,2.7,7.251-1.05-.322-2.1-.64-3.17-.868" transform="translate(-407.31 -276.168)" fill="#fff"/>
          <path id="Path_26025" data-name="Path 26025" d="M542.256,157.825l.659-4.829s-4.089-11.906-4.922-12.684c0,0-9.14-3.233-16.5-3.454-10.119.844-19.017,11.51-19.017,11.51l-.979,18.3s5.616,15.615,9.912,23.1c2.676.3,8.555.858,8.555.858l7.32-7.653,2.61-8.043s-1.722-5.176.446-6.4c1.332-.754,2.016-.039,3.072,1.07.621.652.878,4.253.878,4.253l2.395-3.592.171-8.894Z" transform="translate(-378.721 -103.352)" fill="#072951"/>
          <path id="Path_26026" data-name="Path 26026" d="M612.375,256.032,608.9,261.21a49.549,49.549,0,0,0,3.722,5.583l3.4-2.508L615.045,260Z" transform="translate(-459.829 -193.351)" fill="#fff"/>
          <path id="Path_26027" data-name="Path 26027" d="M657.641,243.045a30.98,30.98,0,0,1,3.192-8.808c1.228-2.008,4.87-3.988,4.87-3.988l1.585,2.637-1.8,7.887-6.147,2.264Z" transform="translate(-496.64 -173.88)" fill="#fff"/>
          <path id="Path_26028" data-name="Path 26028" d="M613.661,217.22c-2.5-1.455-5.506-4.446-9.009-6.313-2.625-.605-6.364.071-8.376-.776s-5.171-1.183-3.85-2.574,5.322-.712,5.322-.712a34.411,34.411,0,0,1-4.209-2.96c-1.609-1.418-2.716-2.53-2.948-3.263-.345-1.1.459-2.494,1.632-2.105-.308-1.064.209-2.671,1.555-2.461,1,.693.866-1.608,2.686-.73.821-.63,1.469-.956,3.266-.5,2.782.7,7.312,3.771,9.805,5.491s10.723,10.215,11.09,10.672-4.157,1.694-4.157,1.694Z" transform="translate(-445.944 -146.967)" fill="#fff"/>
          <path id="Path_26029" data-name="Path 26029" d="M662.114,245.067l-4.473-1.978c4.5-4.1,8.514-8.61,8.078-12.781l3.483,2.38c-1.282,1.976-5.331,9.691-7.088,12.38" transform="translate(-496.64 -173.924)" fill="#fff"/>
          <path id="Path_26030" data-name="Path 26030" d="M719.751,258.457C707.535,250.209,668.2,222.7,668.2,222.7c-.557,7.422-3.887,13.262-8.665,15.122,0,0,26.582,21.462,48.713,34.345,15.9,9.255,22.894-6.019,11.5-13.709" transform="translate(-498.07 -168.178)" fill="#004486"/>
          <path id="Path_26031" data-name="Path 26031" d="M614.949,414.23l53.565-27.183c5.912-3.349,8.221-7.3,4.606-14.343-1.923-3.747-5.874-4.947-14.207-2.75-16.434,4.332-33.415,9.938-58.144,17.455-17.645,5.363-.854,30.143,14.18,26.82" transform="translate(-447.981 -278.556)" fill="#004486"/>
          <path id="Path_26032" data-name="Path 26032" d="M469.579,408.075c-.4-5.146.279-4.014-3.072-8.642-2.338-3.228-4.453-4.9-8.46-7.458a24.6,24.6,0,0,0-4.117-2.079c-.637-3.313-1.274-5.606-3.567-7.135-2.372-1.582-13.482-7.8-23.444-7.39-1.363.818-2.1,2.752-3.826,4.973a49.327,49.327,0,0,0-6.847,4.621,41.221,41.221,0,0,0-10.852,12.22,32.247,32.247,0,0,0-3.345,7.687c-1.8,6.888-7.243,31.95-9.6,42.863a11.1,11.1,0,0,0,2.162,9.249l13.118,14.9a474.526,474.526,0,0,1-.618,47.591c.69,14.447,17.669,17.374,25.282,18.094,22.254,2.1,37.76-13.546,41.51-17.79,3.649-23.72-3.215-97.274-4.325-111.7" transform="translate(-296.183 -283.459)" fill="#004486"/>
          <path id="Path_26033" data-name="Path 26033" d="M297.879,48.23a6.12,6.12,0,0,1-4.613-1.735,9.029,9.029,0,0,1-4.327-1.117,10.078,10.078,0,0,1-3.492-3.045,17.14,17.14,0,0,1-9.026-.078c-3.413-1.064-5.434-3.926-5.614-7.9l-.784.219c-5.468,1.5-9.57,1.457-12.191-.142a6.356,6.356,0,0,1-2.934-4.321,9.577,9.577,0,0,1,1.106-6.319,31.483,31.483,0,0,1,4.139-5.7c3.2-3.692,7.258-6.489,11.178-9.192l.164-.113c10.875-7.5,20.466-10.16,29.323-8.126l-.453,1.972c-8.388-1.926-17.2.559-27.722,7.819l-.164.113c-3.817,2.632-7.764,5.354-10.8,8.853a29.676,29.676,0,0,0-3.876,5.32,7.563,7.563,0,0,0-.917,4.963,4.353,4.353,0,0,0,2.007,3.009c2.1,1.278,5.761,1.25,10.6-.082q.7-.194,1.4-.4c.492-3.921,2.891-7.472,7.294-10.813A75,75,0,0,1,291.061,13.4l.406-.2c3.82-1.875,8.041-3.588,10.383-2.081a3.452,3.452,0,0,1,1.443,3.262c-.07,2.411-2.762,5.044-5.1,7.068a37.712,37.712,0,0,1-6.742,4.511,98.5,98.5,0,0,1-18.632,7.8c0,2.4.731,5.476,4.206,6.56a14.874,14.874,0,0,0,7.482.169,5.107,5.107,0,0,1-.224-1.006,9.772,9.772,0,0,1,5.585-9.447c1.235-.635,7.109-2.232,9.523-.309a2.8,2.8,0,0,1,.879,3.082,5.243,5.243,0,0,1-1.746,2.507,31.56,31.56,0,0,1-10.973,6.419,8.377,8.377,0,0,0,2.339,1.853,7.509,7.509,0,0,0,2.45.81c-.085-1.407.747-3.136,3.427-4.166,2.464-.947,3.816-.233,4.26.751.648,1.436-.567,3.308-2.955,4.552a8.7,8.7,0,0,1-.926.416,6.8,6.8,0,0,0,3.407.077l.4,1.984a10.544,10.544,0,0,1-2.071.215m-.015-6.417a3.95,3.95,0,0,0-1.371.312c-1.455.559-2.252,1.4-2.127,2.237a6.344,6.344,0,0,0,1.771-.618c1.5-.78,1.993-1.607,2.035-1.894a1.039,1.039,0,0,0-.308-.037m-1.91-10.978a14.257,14.257,0,0,0-5.161,1,7.76,7.76,0,0,0-4.5,7.44,3.132,3.132,0,0,0,.171.7,29.431,29.431,0,0,0,10.7-6.161,3.543,3.543,0,0,0,1.146-1.51c.181-.712-.062-.907-.179-1a3.732,3.732,0,0,0-2.175-.479m3.652-18.284c-1.476,0-3.9.825-7.248,2.466l-.421.205a72.977,72.977,0,0,0-12.53,7.8c-3.637,2.76-5.7,5.52-6.357,8.548a96.216,96.216,0,0,0,17.427-7.389,35.821,35.821,0,0,0,6.391-4.267c2.886-2.5,4.367-4.381,4.4-5.6.033-1.149-.38-1.415-.516-1.5a2.109,2.109,0,0,0-1.149-.269" transform="translate(-192.373 0.003)" fill="#fff"/>
        </g>
      </g>
    </g>
  </g>
</svg>
