<svg id="Group_273" data-name="Group 273" xmlns="http://www.w3.org/2000/svg" xmlns:xlink="http://www.w3.org/1999/xlink" width="16" height="12.444" viewBox="0 0 16 12.444">
  <defs>
    <clipPath id="clip-path">
      <rect id="Rectangle_209" data-name="Rectangle 209" width="16" height="12.444" fill="#fff"/>
    </clipPath>
  </defs>
  <g id="Group_273-2" data-name="Group 273" clip-path="url(#clip-path)">
    <path id="Path_621" data-name="Path 621" d="M7.576,6.747c.429.236.437.236.866,0l7.564-4.16A2.352,2.352,0,0,0,13.343,0H2.676A2.352,2.352,0,0,0,.012,2.587Z" transform="translate(-0.009 0)" fill="#fff"/>
    <path id="Path_622" data-name="Path 622" d="M9.29,24.456a2.662,2.662,0,0,1-1.29.4,2.661,2.661,0,0,1-1.29-.4L0,20.765v5.163a2.365,2.365,0,0,0,2.667,2.667H13.333A2.365,2.365,0,0,0,16,25.928V20.765Z" transform="translate(0 -16.151)" fill="#fff"/>
  </g>
</svg>
