<svg id="Group_114" data-name="Group 114" xmlns="http://www.w3.org/2000/svg" xmlns:xlink="http://www.w3.org/1999/xlink" width="317.017" height="40" viewBox="0 0 317.017 40">
  <defs>
    <clipPath id="clip-path">
      <rect id="Rectangle_120" data-name="Rectangle 120" width="317.017" height="40" fill="none" stroke="rgba(0,0,0,0)" stroke-width="1"/>
    </clipPath>
  </defs>
  <g id="Group_113" data-name="Group 113" clip-path="url(#clip-path)">
    <path id="Path_273" data-name="Path 273" d="M16.087,28.743a1.646,1.646,0,0,0,1.7,1.771,1.682,1.682,0,0,0,1.739-1.771,6.387,6.387,0,0,0-1.293-3.775.536.536,0,0,0-.857,0,6.387,6.387,0,0,0-1.293,3.775" transform="translate(1.982 3.05)" fill="#0022e4" stroke="rgba(0,0,0,0)" stroke-width="1"/>
    <path id="Path_274" data-name="Path 274" d="M13.128,22.07a12.889,12.889,0,0,1,6.17,1.575,1.011,1.011,0,0,0,.985,0,12.885,12.885,0,0,1,6.169-1.575A10.831,10.831,0,0,1,36.8,29.739a.346.346,0,0,0,.633.07A20,20,0,1,0,2.3,29.316a.346.346,0,0,0,.635-.044,10.829,10.829,0,0,1,10.19-7.2m7.755-9.612a6.918,6.918,0,0,1,12.034-3.82,1.316,1.316,0,0,1-.977,2.195h-.09a1.283,1.283,0,0,1-.946-.427A4.242,4.242,0,1,0,27.765,17.5c.13,0,.259-.008.388-.019l.112-.012c.1-.012.193-.027.289-.045l.1-.018c.125-.027.248-.057.37-.1l.022-.008c.117-.036.23-.079.343-.125l.062-.027c.116-.049.228-.1.338-.163a4.147,4.147,0,0,0,1.621-1.575.318.318,0,0,0-.274-.482H29.106a1.342,1.342,0,0,1-1.319-1.592,1.457,1.457,0,0,1,1.384-1.091h4.522a1,1,0,0,1,1,1v.01a6.933,6.933,0,0,1-.311,2.054l0,.007c-.018.057-.043.112-.062.168a6.941,6.941,0,0,1-.806,1.634l-.009.013a6.988,6.988,0,0,1-1.854,1.856l-.031.021c-.164.11-.334.212-.508.309l-.075.042c-.182.1-.368.189-.559.27l-.018.009q-.295.123-.6.22l-.133.038c-.155.045-.311.085-.47.12q-.091.02-.182.037c-.14.026-.28.052-.421.066-.081.009-.161.021-.241.029-.211.019-.425.033-.641.033a6.934,6.934,0,0,1-6.882-7.723M12.915,6.327a6.9,6.9,0,0,1,5.234,2.4,1.282,1.282,0,0,1-.993,2.1H17.01a1.3,1.3,0,0,1-.963-.436,4.246,4.246,0,1,0-.286,6,1.39,1.39,0,0,1,.975-.363,1.342,1.342,0,0,1,.846,2.333A6.925,6.925,0,1,1,12.915,6.327" transform="translate(0 0)" fill="#0022e4" stroke="rgba(0,0,0,0)" stroke-width="1"/>
    <path id="Path_275" data-name="Path 275" d="M26.012,22.386a9.926,9.926,0,0,0-3.837.674.39.39,0,0,0-.173.6,9.247,9.247,0,0,1,1.991,5.756,4.73,4.73,0,0,1-4.812,4.844A4.661,4.661,0,0,1,14.4,29.415,9.247,9.247,0,0,1,16.4,23.659a.391.391,0,0,0-.174-.6,9.946,9.946,0,0,0-3.837-.674A7.724,7.724,0,0,0,4.8,30.125a1.9,1.9,0,0,0,.571,1.352,19.989,19.989,0,0,0,27.323.715,2.761,2.761,0,0,0,.91-2.068,7.724,7.724,0,0,0-7.588-7.739" transform="translate(0.591 2.758)" fill="#0022e4" stroke="rgba(0,0,0,0)" stroke-width="1"/>
    <path id="Path_276" data-name="Path 276" d="M45.122,19.29v-.07A12.294,12.294,0,0,1,57.651,6.656a12.664,12.664,0,0,1,9.509,3.783L64.419,13.6a9.664,9.664,0,0,0-6.8-3.019c-4.651,0-8.018,3.818-8.018,8.574v.069c0,4.756,3.366,8.643,8.018,8.643,2.986,0,4.894-1.215,6.976-3.158l2.742,2.777a12.538,12.538,0,0,1-9.857,4.3A12.219,12.219,0,0,1,45.122,19.29" transform="translate(5.56 0.82)" fill="#261f1c" stroke="rgba(0,0,0,0)" stroke-width="1"/>
    <path id="Path_277" data-name="Path 277" d="M45.122,19.29v-.07A12.294,12.294,0,0,1,57.651,6.656a12.664,12.664,0,0,1,9.509,3.783L64.419,13.6a9.664,9.664,0,0,0-6.8-3.019c-4.651,0-8.018,3.818-8.018,8.574v.069c0,4.756,3.366,8.643,8.018,8.643,2.986,0,4.894-1.215,6.976-3.158l2.742,2.777a12.538,12.538,0,0,1-9.857,4.3A12.219,12.219,0,0,1,45.122,19.29Z" transform="translate(5.56 0.82)" fill="none" stroke="#261f1c" stroke-linecap="round" stroke-linejoin="round" stroke-width="0.365"/>
    <path id="Path_278" data-name="Path 278" d="M78.339,6.872h3.956l10.69,24.469H88.472l-2.463-5.865H74.52l-2.5,5.865H67.648Zm6.108,14.821-4.2-9.718-4.165,9.718Z" transform="translate(8.335 0.847)" fill="#261f1c" stroke="rgba(0,0,0,0)" stroke-width="1"/>
    <path id="Path_279" data-name="Path 279" d="M78.339,6.872h3.956l10.69,24.469H88.472l-2.463-5.865H74.52l-2.5,5.865H67.648Zm6.108,14.821-4.2-9.718-4.165,9.718Z" transform="translate(8.335 0.847)" fill="none" stroke="#261f1c" stroke-linecap="round" stroke-linejoin="round" stroke-width="0.365"/>
    <path id="Path_280" data-name="Path 280" d="M94.533,7.027H99.08l7.393,11.488,7.392-11.488h4.548v24.3h-4.269V13.9l-7.67,11.452h-.139l-7.6-11.384V31.322h-4.2Z" transform="translate(11.648 0.866)" fill="#261f1c" stroke="rgba(0,0,0,0)" stroke-width="1"/>
    <path id="Path_281" data-name="Path 281" d="M94.533,7.027H99.08l7.393,11.488,7.392-11.488h4.548v24.3h-4.269V13.9l-7.67,11.452h-.139l-7.6-11.384V31.322h-4.2Z" transform="translate(11.648 0.866)" fill="none" stroke="#261f1c" stroke-linecap="round" stroke-linejoin="round" stroke-width="0.365"/>
    <path id="Path_282" data-name="Path 282" d="M129.368,10.983h-7.7V7.026h19.714v3.957h-7.705V31.323h-4.3Z" transform="translate(14.991 0.866)" fill="#261f1c" stroke="rgba(0,0,0,0)" stroke-width="1"/>
    <path id="Path_283" data-name="Path 283" d="M129.368,10.983h-7.7V7.026h19.714v3.957h-7.705V31.323h-4.3Z" transform="translate(14.991 0.866)" fill="none" stroke="#261f1c" stroke-linecap="round" stroke-linejoin="round" stroke-width="0.365"/>
    <path id="Path_284" data-name="Path 284" d="M143.851,7.027h18.013v3.818H148.119v6.317H160.3v3.818H148.119V27.5h13.918v3.818H143.851Z" transform="translate(17.725 0.866)" fill="#261f1c" stroke="rgba(0,0,0,0)" stroke-width="1"/>
    <path id="Path_285" data-name="Path 285" d="M143.851,7.027h18.013v3.818H148.119v6.317H160.3v3.818H148.119V27.5h13.918v3.818H143.851Z" transform="translate(17.725 0.866)" fill="none" stroke="#261f1c" stroke-linecap="round" stroke-linejoin="round" stroke-width="0.365"/>
    <path id="Path_286" data-name="Path 286" d="M164.215,19.29v-.07A12.294,12.294,0,0,1,176.743,6.656a12.665,12.665,0,0,1,9.51,3.783L183.512,13.6a9.666,9.666,0,0,0-6.8-3.019c-4.651,0-8.018,3.818-8.018,8.574v.069c0,4.756,3.366,8.643,8.018,8.643,2.986,0,4.894-1.215,6.976-3.158l2.742,2.777a12.538,12.538,0,0,1-9.857,4.3A12.218,12.218,0,0,1,164.215,19.29" transform="translate(20.234 0.82)" fill="#261f1c" stroke="rgba(0,0,0,0)" stroke-width="1"/>
    <path id="Path_287" data-name="Path 287" d="M164.215,19.29v-.07A12.294,12.294,0,0,1,176.743,6.656a12.665,12.665,0,0,1,9.51,3.783L183.512,13.6a9.666,9.666,0,0,0-6.8-3.019c-4.651,0-8.018,3.818-8.018,8.574v.069c0,4.756,3.366,8.643,8.018,8.643,2.986,0,4.894-1.215,6.976-3.158l2.742,2.777a12.538,12.538,0,0,1-9.857,4.3A12.218,12.218,0,0,1,164.215,19.29Z" transform="translate(20.234 0.82)" fill="none" stroke="#261f1c" stroke-linecap="round" stroke-linejoin="round" stroke-width="0.365"/>
    <path id="Path_288" data-name="Path 288" d="M188.6,7.027h4.268v10.1h11.594V7.027h4.268v24.3h-4.268V21.084H192.863V31.322H188.6Z" transform="translate(23.238 0.866)" fill="#261f1c" stroke="rgba(0,0,0,0)" stroke-width="1"/>
    <path id="Path_289" data-name="Path 289" d="M188.6,7.027h4.268v10.1h11.594V7.027h4.268v24.3h-4.268V21.084H192.863V31.322H188.6Z" transform="translate(23.238 0.866)" fill="none" stroke="#261f1c" stroke-linecap="round" stroke-linejoin="round" stroke-width="0.365"/>
    <path id="Path_290" data-name="Path 290" d="M232.12,31.587h-9.279a7.932,7.932,0,0,1-7.932-7.932V14.516a7.932,7.932,0,0,1,7.931-7.932h12.927a.25.25,0,0,1,.249.25L235.164,9.6a.249.249,0,0,1-.249.249H222.841a4.671,4.671,0,0,0-4.671,4.67v9.138a4.671,4.671,0,0,0,4.671,4.671h9.279a1.085,1.085,0,0,0,1.085-1.086V21.3a.58.58,0,0,0-.58-.58h-7.032a.25.25,0,0,1-.249-.25V17.7a.25.25,0,0,1,.249-.25h7.034a3.841,3.841,0,0,1,3.84,3.84V27.24a4.347,4.347,0,0,1-4.347,4.347" transform="translate(26.48 0.811)" fill="#0022e4" stroke="rgba(0,0,0,0)" stroke-width="1"/>
    <path id="Path_291" data-name="Path 291" d="M263.995,31.64h-2.762a.25.25,0,0,1-.249-.249V10.179a.335.335,0,0,0-.646-.126l-5.407,13.4a4.672,4.672,0,0,1-4.065,2.983,4.508,4.508,0,0,1-4.391-2.827L241,10.054a.332.332,0,0,0-.31-.209.336.336,0,0,0-.336.335V31.39a.25.25,0,0,1-.249.249h-2.762a.25.25,0,0,1-.249-.249V10.319a3.688,3.688,0,0,1,3.325-3.725,3.583,3.583,0,0,1,3.607,2.24l5.47,13.554a1.264,1.264,0,0,0,2.344,0l5.422-13.433A3.71,3.71,0,0,1,260.353,6.6a3.6,3.6,0,0,1,3.891,3.583V31.39a.25.25,0,0,1-.249.249" transform="translate(29.215 0.811)" fill="#0022e4" stroke="rgba(0,0,0,0)" stroke-width="1"/>
    <path id="Path_292" data-name="Path 292" d="M278.785,31.587H264.914a.249.249,0,0,1-.249-.249l.853-2.762a.25.25,0,0,1,.249-.249h13.089a2.314,2.314,0,0,0,2.32-2.354,3.769,3.769,0,0,0-2.536-3.464l-.065-.024-9.5-3.753a7.021,7.021,0,0,1-4.679-6.552,5.64,5.64,0,0,1,5.652-5.6h13.662a.25.25,0,0,1,.249.25L283.1,9.6a.25.25,0,0,1-.249.249H269.975a2.314,2.314,0,0,0-2.321,2.355,3.761,3.761,0,0,0,2.52,3.462l.065.024,9.5,3.753a7.03,7.03,0,0,1,4.7,6.557,5.642,5.642,0,0,1-5.653,5.59" transform="translate(32.578 0.811)" fill="#0022e4" stroke="rgba(0,0,0,0)" stroke-width="1"/>
  </g>
</svg>
