<svg xmlns="http://www.w3.org/2000/svg" xmlns:xlink="http://www.w3.org/1999/xlink" width="33.745" height="90.221" viewBox="0 0 33.745 90.221">
  <defs>
    <clipPath id="clip-path">
      <rect id="Rectangle_125" data-name="Rectangle 125" width="33.745" height="90.221" fill="#fff"/>
    </clipPath>
  </defs>
  <g id="Group_131" data-name="Group 131" clip-path="url(#clip-path)">
    <path id="Path_299" data-name="Path 299" d="M263.07,682.929c-1.127,4.831-6.194,6.805-6.194,6.805s-.483-5.981.44-9.107,4.621-7.688,4.621-7.688,2.261,5.159,1.134,9.989" transform="translate(-256.307 -603.044)" fill="#fff"/>
    <path id="Path_300" data-name="Path 300" d="M156.607,803.9s-3.954,4.948-9.56,5.951c-3.55.635-9.945-.884-9.945-.884s5.258-4.271,10.5-5.342a18.208,18.208,0,0,1,9.007.275" transform="translate(-137.102 -719.784)" fill="#fff"/>
    <path id="Path_301" data-name="Path 301" d="M197.623,582.469a12.237,12.237,0,0,1-3.551,7.177s-1.8-4.242-1.43-7.685a41.36,41.36,0,0,1,2.554-8.721s2.92,4.793,2.427,9.229" transform="translate(-183.937 -513.7)" fill="#fff"/>
    <path id="Path_302" data-name="Path 302" d="M68.413,696.65a17.123,17.123,0,0,1,7.737-6.694c5.474-2.459,9.092-1.692,9.092-1.692s-3.211,5.513-6.556,7.576-10.273.81-10.273.81" transform="translate(-58.602 -616.675)" fill="#fff"/>
    <path id="Path_303" data-name="Path 303" d="M140.518,484.854a26.784,26.784,0,0,1,1.121-7.21,8.8,8.8,0,0,1,3.488,6.169c.534,4.284-1.954,8.635-1.954,8.635s-2.466-4.821-2.656-7.594" transform="translate(-126.05 -428.033)" fill="#fff"/>
    <path id="Path_304" data-name="Path 304" d="M13.792,559.96a18.41,18.41,0,0,1,8.053-8.14,21.234,21.234,0,0,1,6.687-2.261s-2.338,6.84-5.728,9.278-9.011,1.123-9.011,1.123" transform="translate(3.781 -492.478)" fill="#fff"/>
    <path id="Path_305" data-name="Path 305" d="M111.2,380.185a27.318,27.318,0,0,1-1.192-7.146,8.673,8.673,0,0,1,5.1,4.749c1.809,3.878.867,8.745.867,8.745s-3.744-3.79-4.773-6.348" transform="translate(-93.896 -334.293)" fill="#fff"/>
    <path id="Path_306" data-name="Path 306" d="M0,407.727a18.966,18.966,0,0,1,4.952-9.977,18.054,18.054,0,0,1,5.486-4.13s-.071,7.031-2.458,10.318S0,407.727,0,407.727" transform="translate(23.308 -352.736)" fill="#fff"/>
    <path id="Path_307" data-name="Path 307" d="M109.91,279.925a25.125,25.125,0,0,1-2.359-6.25A7.859,7.859,0,0,1,113.006,277c2.329,3.169,2.354,7.762,2.354,7.762s-4.061-2.719-5.449-4.841" transform="translate(-92.785 -245.249)" fill="#fff"/>
    <path id="Path_308" data-name="Path 308" d="M24.541,275.8a16.185,16.185,0,0,1,2.387-9.381c2.377-3.664,3.845-4.475,3.845-4.475s1.16,6.022-.254,9.243-5.978,4.614-5.978,4.614" transform="translate(-0.021 -234.74)" fill="#fff"/>
    <path id="Path_309" data-name="Path 309" d="M123.282,187.722a7.207,7.207,0,0,1,5.681,1.663c2.833,2.287,3.926,6.425,3.926,6.425s-4.286-1.455-6.028-3.029a23.1,23.1,0,0,1-3.578-5.06" transform="translate(-111.948 -168.154)" fill="#fff"/>
    <path id="Path_310" data-name="Path 310" d="M70.106,156.9a13.776,13.776,0,0,1-1.789-8.873,19.1,19.1,0,0,1,1.405-5.355s3.4,4.579,3.513,7.872-3.13,6.356-3.13,6.356" transform="translate(-46.574 -127.853)" fill="#fff"/>
    <path id="Path_311" data-name="Path 311" d="M166.618,125.27a18.934,18.934,0,0,1-4.071-3.162,5.988,5.988,0,0,1,4.941-.1,11.427,11.427,0,0,1,4.676,4.171s-3.776-.089-5.545-.913" transform="translate(-155.302 -108.913)" fill="#fff"/>
    <path id="Path_312" data-name="Path 312" d="M124.839,70.251a21.531,21.531,0,0,1,.2-4.664s3.575,3.124,4.252,5.808-1.427,5.811-1.427,5.811a11,11,0,0,1-3.024-6.955" transform="translate(-108.644 -58.775)" fill="#fff"/>
    <path id="Path_313" data-name="Path 313" d="M217.242,76.265a7.611,7.611,0,0,1,3.681,2.1,12.777,12.777,0,0,1-3.814.206,12.611,12.611,0,0,1-3.141-1.511,4.1,4.1,0,0,1,3.274-.79" transform="translate(-209.402 -68.288)" fill="#fff"/>
    <path id="Path_314" data-name="Path 314" d="M192.287,30.148a15.863,15.863,0,0,1-.559-3.137s2.828,1.516,3.674,3.2-.083,4.095-.083,4.095a7.575,7.575,0,0,1-3.031-4.154" transform="translate(-181.926 -24.205)" fill="#fff"/>
    <path id="Path_315" data-name="Path 315" d="M246.711,3.6A9.868,9.868,0,0,1,244.523.011a6.529,6.529,0,0,1,4.622,1.52,4.836,4.836,0,0,1,1.391,4.1A11.912,11.912,0,0,1,246.711,3.6" transform="translate(-242.234 0.001)" fill="#fff"/>
  </g>
</svg>
