<svg xmlns="http://www.w3.org/2000/svg" xmlns:xlink="http://www.w3.org/1999/xlink" width="234.974" height="91.63" viewBox="0 0 234.974 91.63">
  <defs>
    <linearGradient id="linear-gradient" x1="0.5" y1="0.758" x2="0.5" y2="0.206" gradientUnits="objectBoundingBox">
      <stop offset="0" stop-color="#ffff4d"/>
      <stop offset="1" stop-color="#fff"/>
    </linearGradient>
    <filter id="Path_318" x="0" y="0" width="234.974" height="91.63" filterUnits="userSpaceOnUse">
      <feOffset dy="1" input="SourceAlpha"/>
      <feGaussianBlur stdDeviation="2" result="blur"/>
      <feFlood flood-opacity="0.161"/>
      <feComposite operator="in" in2="blur"/>
      <feComposite in="SourceGraphic"/>
    </filter>
  </defs>
  <g transform="matrix(1, 0, 0, 1, 0, 0)" filter="url(#Path_318)">
    <path id="Path_318-2" data-name="Path 318" d="M22.256-65.067a33.826,33.826,0,0,1,3.811-.531q1.833-.145,3.57-.145a26.366,26.366,0,0,1,9.794,1.689,20.65,20.65,0,0,1,7.14,4.608A19.131,19.131,0,0,1,50.939-52.6a23.824,23.824,0,0,1,1.472,8.419,25.808,25.808,0,0,1-2,10.3,23.944,23.944,0,0,1-5.572,8.033,25.039,25.039,0,0,1-8.516,5.235A30.573,30.573,0,0,1,25.489-18.75a28.781,28.781,0,0,1-6.537-.724,31.5,31.5,0,0,1-5.838-1.954,31.231,31.231,0,0,1-5.042-2.847,33.329,33.329,0,0,1-4.2-3.45L8.506-33.9a5.036,5.036,0,0,1,1.689-1.472,4.4,4.4,0,0,1,2.075-.507,5.07,5.07,0,0,1,2.726.8q1.279.8,2.8,1.737a20.821,20.821,0,0,0,3.546,1.713,14.185,14.185,0,0,0,5.018.772,12.037,12.037,0,0,0,5.114-.989,9.18,9.18,0,0,0,3.45-2.7,11.045,11.045,0,0,0,1.93-4,19.181,19.181,0,0,0,.6-4.9q0-5.114-2.895-7.792t-8.2-2.678a25.09,25.09,0,0,0-9.263,1.785L7.831-54.646l5.983-35.172H49.805v6.176a7.741,7.741,0,0,1-.482,2.8,5.7,5.7,0,0,1-1.52,2.2A6.975,6.975,0,0,1,45.077-77.2a14.218,14.218,0,0,1-4.053.507H24.235ZM54.117-12.353a1.594,1.594,0,0,1-.639-1.277,1.214,1.214,0,0,1,.2-.624,2.65,2.65,0,0,1,.493-.6q.348-.348.813-.856t.929-1.118a10.177,10.177,0,0,0,.856-1.335,6.585,6.585,0,0,0,.6-1.538,4.961,4.961,0,0,1-1.8-.493,4.588,4.588,0,0,1-1.393-1.059,4.741,4.741,0,0,1-.9-1.509,5.319,5.319,0,0,1-.319-1.872,4.271,4.271,0,0,1,.348-1.727,4.067,4.067,0,0,1,1-1.393,4.948,4.948,0,0,1,1.538-.943,5.392,5.392,0,0,1,1.988-.348,5.281,5.281,0,0,1,2.264.45,4.563,4.563,0,0,1,1.6,1.219,5.034,5.034,0,0,1,.943,1.771,7.188,7.188,0,0,1,.3,2.1,11.365,11.365,0,0,1-.464,3.091A15.616,15.616,0,0,1,61.1-17.113a19.652,19.652,0,0,1-2.279,3.251,18.719,18.719,0,0,1-3.135,2.9Zm60.8-42.341a57.166,57.166,0,0,1-1.978,15.97,32.776,32.776,0,0,1-5.476,11.193,22.084,22.084,0,0,1-8.3,6.61,24.934,24.934,0,0,1-10.4,2.171,24.606,24.606,0,0,1-10.349-2.171,21.99,21.99,0,0,1-8.226-6.61,32.732,32.732,0,0,1-5.428-11.193,57.831,57.831,0,0,1-1.954-15.97,57.831,57.831,0,0,1,1.954-15.97,32.732,32.732,0,0,1,5.428-11.193,21.767,21.767,0,0,1,8.226-6.586A24.841,24.841,0,0,1,88.767-90.59a25.173,25.173,0,0,1,10.4,2.147,21.861,21.861,0,0,1,8.3,6.586,32.776,32.776,0,0,1,5.476,11.193A57.166,57.166,0,0,1,114.917-54.694Zm-15.439,0a63.716,63.716,0,0,0-.917-11.941,24.478,24.478,0,0,0-2.436-7.309,8.834,8.834,0,0,0-3.45-3.643,8.487,8.487,0,0,0-3.908-.989,8.344,8.344,0,0,0-3.884.989,8.618,8.618,0,0,0-3.377,3.643,25.115,25.115,0,0,0-2.364,7.309,65.4,65.4,0,0,0-.893,11.941,65.321,65.321,0,0,0,.893,11.965,25.452,25.452,0,0,0,2.364,7.309,8.6,8.6,0,0,0,3.377,3.667,8.344,8.344,0,0,0,3.884.989,8.487,8.487,0,0,0,3.908-.989,8.813,8.813,0,0,0,3.45-3.667,24.8,24.8,0,0,0,2.436-7.309A63.641,63.641,0,0,0,99.478-54.694Zm71.4,0a57.166,57.166,0,0,1-1.978,15.97,32.777,32.777,0,0,1-5.476,11.193,22.084,22.084,0,0,1-8.3,6.61,24.934,24.934,0,0,1-10.4,2.171,24.606,24.606,0,0,1-10.349-2.171,21.99,21.99,0,0,1-8.226-6.61,32.732,32.732,0,0,1-5.428-11.193,57.832,57.832,0,0,1-1.954-15.97,57.832,57.832,0,0,1,1.954-15.97,32.732,32.732,0,0,1,5.428-11.193,21.767,21.767,0,0,1,8.226-6.586,24.841,24.841,0,0,1,10.349-2.147,25.173,25.173,0,0,1,10.4,2.147,21.861,21.861,0,0,1,8.3,6.586A32.777,32.777,0,0,1,168.9-70.664,57.166,57.166,0,0,1,170.883-54.694Zm-15.439,0a63.715,63.715,0,0,0-.917-11.941,24.477,24.477,0,0,0-2.436-7.309,8.834,8.834,0,0,0-3.45-3.643,8.487,8.487,0,0,0-3.908-.989,8.344,8.344,0,0,0-3.884.989,8.618,8.618,0,0,0-3.377,3.643,25.114,25.114,0,0,0-2.364,7.309,65.4,65.4,0,0,0-.893,11.941,65.32,65.32,0,0,0,.893,11.965,25.451,25.451,0,0,0,2.364,7.309,8.6,8.6,0,0,0,3.377,3.667,8.344,8.344,0,0,0,3.884.989,8.487,8.487,0,0,0,3.908-.989,8.813,8.813,0,0,0,3.45-3.667,24.8,24.8,0,0,0,2.436-7.309A63.64,63.64,0,0,0,155.444-54.694Zm71.4,0a57.166,57.166,0,0,1-1.978,15.97,32.777,32.777,0,0,1-5.476,11.193,22.084,22.084,0,0,1-8.3,6.61,24.934,24.934,0,0,1-10.4,2.171,24.606,24.606,0,0,1-10.349-2.171,21.99,21.99,0,0,1-8.226-6.61A32.731,32.731,0,0,1,176.7-38.724a57.832,57.832,0,0,1-1.954-15.97,57.831,57.831,0,0,1,1.954-15.97,32.731,32.731,0,0,1,5.428-11.193,21.767,21.767,0,0,1,8.226-6.586A24.841,24.841,0,0,1,200.7-90.59a25.173,25.173,0,0,1,10.4,2.147,21.861,21.861,0,0,1,8.3,6.586,32.777,32.777,0,0,1,5.476,11.193A57.166,57.166,0,0,1,226.849-54.694Zm-15.439,0a63.714,63.714,0,0,0-.917-11.941,24.477,24.477,0,0,0-2.436-7.309,8.834,8.834,0,0,0-3.45-3.643,8.487,8.487,0,0,0-3.908-.989,8.344,8.344,0,0,0-3.884.989,8.618,8.618,0,0,0-3.377,3.643,25.114,25.114,0,0,0-2.364,7.309,65.4,65.4,0,0,0-.893,11.941,65.32,65.32,0,0,0,.893,11.965,25.451,25.451,0,0,0,2.364,7.309,8.6,8.6,0,0,0,3.377,3.667,8.344,8.344,0,0,0,3.884.989,8.487,8.487,0,0,0,3.908-.989,8.813,8.813,0,0,0,3.45-3.667,24.8,24.8,0,0,0,2.436-7.309A63.639,63.639,0,0,0,211.41-54.694Z" transform="translate(2.13 95.59)" fill="url(#linear-gradient)"/>
  </g>
</svg>
