<svg xmlns="http://www.w3.org/2000/svg" xmlns:xlink="http://www.w3.org/1999/xlink" width="156.417" height="84.489" viewBox="0 0 156.417 84.489">
  <defs>
    <clipPath id="clip-path">
      <rect id="Rectangle_3232" data-name="Rectangle 3232" width="156.417" height="84.489" fill="none"/>
    </clipPath>
    <clipPath id="clip-path-3">
      <rect id="Rectangle_3230" data-name="Rectangle 3230" width="10.759" height="11.927" fill="none"/>
    </clipPath>
  </defs>
  <g id="Group_8377" data-name="Group 8377" clip-path="url(#clip-path)">
    <g id="Group_8376" data-name="Group 8376">
      <g id="Group_8375" data-name="Group 8375" clip-path="url(#clip-path)">
        <path id="Path_25364" data-name="Path 25364" d="M226.8,29.162l-24.517-5.014V1.821A1.846,1.846,0,0,0,200.432,0h-2.5a1.786,1.786,0,0,0-1.782,1.821V58.284a1.786,1.786,0,0,0,1.782,1.821h2.5a1.849,1.849,0,0,0,1.857-1.821V30.291L226.806,35.3a1.46,1.46,0,0,0,1.822-1.484v-2.5a2.3,2.3,0,0,0-1.822-2.155Z" transform="translate(-126.504)" fill="#fff"/>
        <path id="Path_25365" data-name="Path 25365" d="M50.487,6.64H41.053V1.821A1.852,1.852,0,0,0,39.192,0h-2.5A1.786,1.786,0,0,0,34.91,1.821V6.64H19.33V1.821A1.849,1.849,0,0,0,17.473,0h-2.5a1.786,1.786,0,0,0-1.782,1.821V6.64H1.821A1.847,1.847,0,0,0,0,8.5V11a1.786,1.786,0,0,0,1.821,1.782H50.487A1.786,1.786,0,0,0,52.308,11V8.5A1.849,1.849,0,0,0,50.487,6.64" fill="#fff"/>
        <path id="Path_25366" data-name="Path 25366" d="M93.579,73.607V50.051a1.847,1.847,0,0,0-1.857-1.821h-2.5a1.786,1.786,0,0,0-1.782,1.821V73.607a1.786,1.786,0,0,0,1.782,1.821h2.5a1.849,1.849,0,0,0,1.857-1.821" transform="translate(-56.393 -31.105)" fill="#fff"/>
        <path id="Path_25367" data-name="Path 25367" d="M110.222,48.62h-2.429a1.8,1.8,0,0,0-1.853,1.821V77.114c0,2.986-.43,5.173-1.64,6.558a5.965,5.965,0,0,1-4.424,1.821H97.947a1.849,1.849,0,0,0-1.857,1.821v2.333a1.847,1.847,0,0,0,1.857,1.821h2a11.423,11.423,0,0,0,8.994-3.934c1.853-2.184,3.068-5.028,3.068-9.619V50.441a1.743,1.743,0,0,0-1.782-1.821Z" transform="translate(-61.972 -31.357)" fill="#fff"/>
        <path id="Path_25368" data-name="Path 25368" d="M17.425,48.23a11.883,11.883,0,0,0-9.207,3.934C6.29,54.351,5.15,57.192,5.15,61.783v27.61a1.786,1.786,0,0,0,1.782,1.821h2.5a1.847,1.847,0,0,0,1.857-1.821v-27.1c0-2.986.43-5.173,1.711-6.558a5.965,5.965,0,0,1,4.424-1.821,5.81,5.81,0,0,1,4.353,1.821c1.282,1.31,1.729,3.348,1.775,6.1H16.746a1.786,1.786,0,0,0-1.821,1.782v2.5a1.849,1.849,0,0,0,1.821,1.857H23.56v4.279H16.746a1.786,1.786,0,0,0-1.821,1.782v2.5a1.849,1.849,0,0,0,1.821,1.857H23.51A8.164,8.164,0,0,1,21.9,83.417a6.067,6.067,0,0,1-4.477,1.821H16.8a1.858,1.858,0,0,0-1.878,1.821v2.333A1.858,1.858,0,0,0,16.8,91.214h.7a11.612,11.612,0,0,0,9.1-3.934c1.807-2.1,3-4.829,3.086-9.122H29.7V61.783c0-4.591-1.214-7.432-3.068-9.619a11.991,11.991,0,0,0-9.207-3.934Z" transform="translate(-3.321 -31.105)" fill="#fff"/>
        <path id="Path_25369" data-name="Path 25369" d="M362.575,25.256H346.782a1.635,1.635,0,0,0-1.637,1.637v2.862a1.635,1.635,0,0,0,1.637,1.637h7.009L332.309,53.1a1.651,1.651,0,0,1-1.165.486h-2.166a.654.654,0,0,1-.653-.653V1.637A1.635,1.635,0,0,0,326.689,0h-2.862a1.635,1.635,0,0,0-1.637,1.637V58.085a1.635,1.635,0,0,0,1.637,1.637h9.2a3.269,3.269,0,0,0,2.326-.969l22.724-22.962v6.9a1.635,1.635,0,0,0,1.637,1.637h2.862a1.635,1.635,0,0,0,1.637-1.637V26.9a1.635,1.635,0,0,0-1.637-1.637Z" transform="translate(-207.791)" fill="#fff"/>
        <path id="Path_25370" data-name="Path 25370" d="M207.477,197.618a6.417,6.417,0,1,1,6.416,6.42H207.47v-6.416Z" transform="translate(-133.804 -123.306)" fill="#fff"/>
        <g id="Group_8374" data-name="Group 8374" transform="translate(79.815 72.562)" opacity="0.84" style="isolation: isolate">
          <g id="Group_8373" data-name="Group 8373">
            <g id="Group_8372" data-name="Group 8372" clip-path="url(#clip-path-3)">
              <path id="Path_25371" data-name="Path 25371" d="M234.792,209.024a1.5,1.5,0,0,1,.554,2.056,1.5,1.5,0,0,1-.554.55l-7.737,4.456a1.511,1.511,0,0,1-2.265-1.3v-8.912a1.509,1.509,0,0,1,2.265-1.3Z" transform="translate(-224.79 -204.362)" fill="#fff"/>
            </g>
          </g>
        </g>
        <path id="Path_25372" data-name="Path 25372" d="M231.409,207.088a6.337,6.337,0,0,1-.415,1.481,6.421,6.421,0,0,1-5.933,3.966h-.281v-6.654a1.509,1.509,0,0,1,2.265-1.3l4.364,2.514Z" transform="translate(-144.968 -131.807)" fill="#fff" fill-rule="evenodd"/>
        <path id="Path_25373" data-name="Path 25373" d="M265.643,199l2.624,6.324a.124.124,0,0,0,.043.053.117.117,0,0,0,.135,0,.1.1,0,0,0,.043-.053L271.146,199a.2.2,0,0,1,.078-.1.2.2,0,0,1,.117-.035h1.207a.209.209,0,0,1,.174.092.223.223,0,0,1,.035.1.189.189,0,0,1-.014.1l-4.037,9.427a.353.353,0,0,1-.142.17.378.378,0,0,1-.426,0,.378.378,0,0,1-.142-.174l-3.945-9.427a.2.2,0,0,1-.014-.1.159.159,0,0,1,.036-.1.193.193,0,0,1,.075-.067.2.2,0,0,1,.1-.025h1.211a.211.211,0,0,1,.2.131Z" transform="translate(-170.286 -128.251)" fill="#fff"/>
        <path id="Path_25374" data-name="Path 25374" d="M272.381,198.716a.209.209,0,0,1,.174.092.224.224,0,0,1,.036.1.233.233,0,0,1-.014.1l-4.037,9.427a.353.353,0,0,1-.142.17.378.378,0,0,1-.426,0,.379.379,0,0,1-.142-.174L263.884,199a.2.2,0,0,1-.014-.1.159.159,0,0,1,.036-.1.194.194,0,0,1,.075-.067.2.2,0,0,1,.1-.025h1.211a.211.211,0,0,1,.2.131l2.624,6.324a.124.124,0,0,0,.043.053.117.117,0,0,0,.135,0,.1.1,0,0,0,.043-.053l2.659-6.327a.2.2,0,0,1,.078-.1.2.2,0,0,1,.117-.035h1.207Zm0-.089h-1.207a.306.306,0,0,0-.167.05.292.292,0,0,0-.11.135l-2.659,6.327a.149.149,0,0,1-.011.014l-.014,0c-.007,0-.011,0-.014,0s-.007-.007-.011-.014l-2.624-6.324a.3.3,0,0,0-.11-.138.306.306,0,0,0-.167-.05h-1.211a.291.291,0,0,0-.142.035.278.278,0,0,0-.107.1.311.311,0,0,0-.05.135.273.273,0,0,0,.021.142l3.945,9.427a.484.484,0,0,0,.174.213.469.469,0,0,0,.263.082.494.494,0,0,0,.263-.078.465.465,0,0,0,.174-.213l4.037-9.427a.339.339,0,0,0,.021-.146.285.285,0,0,0-.05-.138.317.317,0,0,0-.107-.1.281.281,0,0,0-.142-.035Z" transform="translate(-170.118 -128.097)" fill="#fff"/>
        <path id="Path_25375" data-name="Path 25375" d="M291.724,199.524a.958.958,0,0,1,.952-.944.937.937,0,0,1,.369.071.971.971,0,0,1,.309.209.9.9,0,0,1,.209.305.869.869,0,0,1,.067.366.937.937,0,0,1-.071.369.883.883,0,0,1-.21.309.854.854,0,0,1-.305.209.919.919,0,0,1-.366.071.94.94,0,0,1-.369-.075.986.986,0,0,1-.312-.209.92.92,0,0,1-.206-.312,1,1,0,0,1-.071-.369Zm1.69,2.848v5.93a.206.206,0,0,1-.209.209H292.1a.206.206,0,0,1-.21-.209v-5.93a.206.206,0,0,1,.21-.209H293.2a.206.206,0,0,1,.209.209" transform="translate(-188.14 -128.071)" fill="#fff"/>
        <path id="Path_25376" data-name="Path 25376" d="M292.52,198.406a.937.937,0,0,1,.369.071.972.972,0,0,1,.309.209.855.855,0,0,1,.209.305.869.869,0,0,1,.067.366.937.937,0,0,1-.071.369.883.883,0,0,1-.21.309.854.854,0,0,1-.305.21.92.92,0,0,1-.366.071.94.94,0,0,1-.369-.075.986.986,0,0,1-.312-.21.92.92,0,0,1-.206-.312,1,1,0,0,1-.071-.369.958.958,0,0,1,.952-.945Zm.529,3.583a.328.328,0,0,1,.082.014.176.176,0,0,1,.067.046.228.228,0,0,1,.046.067.208.208,0,0,1,.014.082v5.93a.22.22,0,0,1-.014.082.176.176,0,0,1-.046.067.284.284,0,0,1-.067.046.208.208,0,0,1-.082.014h-1.108a.328.328,0,0,1-.082-.014.176.176,0,0,1-.067-.046.227.227,0,0,1-.046-.067.208.208,0,0,1-.014-.082V202.2a.327.327,0,0,1,.014-.082.177.177,0,0,1,.046-.067.228.228,0,0,1,.067-.046.208.208,0,0,1,.082-.014Zm-.529-3.675a1.029,1.029,0,0,0-.731.305,1.041,1.041,0,0,0-.231,1.136,1.007,1.007,0,0,0,.227.341.957.957,0,0,0,.341.227,1.052,1.052,0,0,0,.4.082,1.036,1.036,0,0,0,.4-.078,1,1,0,0,0,.337-.231,1.048,1.048,0,0,0,.231-1.14,1,1,0,0,0-.231-.337,1.009,1.009,0,0,0-.739-.309Zm.529,3.583h-1.108a.3.3,0,0,0-.213.089.3.3,0,0,0-.089.213v5.93a.3.3,0,0,0,.089.213.3.3,0,0,0,.213.089h1.108a.3.3,0,0,0,.213-.089.3.3,0,0,0,.089-.213V202.2a.3.3,0,0,0-.089-.213.3.3,0,0,0-.213-.089" transform="translate(-187.985 -127.897)" fill="#fff"/>
        <path id="Path_25377" data-name="Path 25377" d="M306.075,201.51h1.055a.206.206,0,0,1,.209.209v8.472a.206.206,0,0,1-.209.209h-1.055a.206.206,0,0,1-.21-.209v-.316a.053.053,0,0,0-.011-.032.048.048,0,0,0-.025-.021.058.058,0,0,0-.035,0,.064.064,0,0,0-.032.014,2.712,2.712,0,0,1-1.864.753,2.8,2.8,0,0,1-2.166-.952,3.542,3.542,0,0,1-.852-2.425,3.387,3.387,0,0,1,.852-2.372,2.722,2.722,0,0,1,2.13-.959,2.666,2.666,0,0,1,1.892.81.053.053,0,0,0,.032.014.121.121,0,0,0,.035,0,.055.055,0,0,0,.028-.021.057.057,0,0,0,.011-.032v-2.926a.206.206,0,0,1,.21-.209Zm-3.689,5.7a2.2,2.2,0,0,0,.49,1.484,1.586,1.586,0,0,0,.568.433,1.638,1.638,0,0,0,.7.146,1.686,1.686,0,0,0,1.317-.561,2.419,2.419,0,0,0,0-2.947,1.666,1.666,0,0,0-1.3-.568,1.626,1.626,0,0,0-1.264.575,2.115,2.115,0,0,0-.5,1.434Z" transform="translate(-194.048 -129.961)" fill="#fff"/>
        <path id="Path_25378" data-name="Path 25378" d="M306.968,201.349a.329.329,0,0,1,.082.014.176.176,0,0,1,.067.046.227.227,0,0,1,.046.067.211.211,0,0,1,.018.082v8.472a.17.17,0,0,1-.018.082.176.176,0,0,1-.046.067.284.284,0,0,1-.067.046.208.208,0,0,1-.082.014h-1.055a.277.277,0,0,1-.078-.014.222.222,0,0,1-.114-.114.208.208,0,0,1-.014-.082v-.316a.1.1,0,0,0,0-.025c0-.007-.007-.014-.014-.021a.033.033,0,0,0-.021-.014c-.007,0-.014,0-.021,0a.075.075,0,0,0-.039.014,2.712,2.712,0,0,1-1.864.753,2.8,2.8,0,0,1-2.166-.952,3.542,3.542,0,0,1-.852-2.425,3.387,3.387,0,0,1,.852-2.372,2.722,2.722,0,0,1,2.13-.959,2.666,2.666,0,0,1,1.892.81.059.059,0,0,0,.043.018.045.045,0,0,0,.021,0c.007,0,.014-.007.021-.014a.045.045,0,0,0,.014-.021c0-.007,0-.014,0-.025v-2.926a.33.33,0,0,1,.014-.082.176.176,0,0,1,.046-.067.284.284,0,0,1,.067-.046.2.2,0,0,1,.078-.014h1.055Zm-2.993,7.762a1.686,1.686,0,0,0,1.317-.561,2.419,2.419,0,0,0,0-2.947,1.666,1.666,0,0,0-1.3-.568,1.612,1.612,0,0,0-.7.146,1.639,1.639,0,0,0-.568.43,2.115,2.115,0,0,0-.5,1.434,2.2,2.2,0,0,0,.49,1.484,1.586,1.586,0,0,0,.568.433,1.638,1.638,0,0,0,.7.146Zm2.993-7.851h-1.055a.3.3,0,0,0-.213.089.3.3,0,0,0-.089.213v2.855a2.748,2.748,0,0,0-1.9-.788,2.831,2.831,0,0,0-2.2.991,3.516,3.516,0,0,0-.877,2.432,3.669,3.669,0,0,0,.877,2.482,2.894,2.894,0,0,0,2.233.984,2.772,2.772,0,0,0,1.871-.731v.249a.3.3,0,0,0,.089.213.3.3,0,0,0,.213.089h1.055a.3.3,0,0,0,.213-.089.3.3,0,0,0,.089-.213v-8.472a.3.3,0,0,0-.089-.213.3.3,0,0,0-.213-.089m-2.993,7.762a1.5,1.5,0,0,1-1.2-.547,2.133,2.133,0,0,1-.469-1.427,2.05,2.05,0,0,1,.479-1.374,1.64,1.64,0,0,1,2.432-.007,2.323,2.323,0,0,1,0,2.826,1.588,1.588,0,0,1-1.25.529Z" transform="translate(-193.886 -129.799)" fill="#fff"/>
        <path id="Path_25379" data-name="Path 25379" d="M329,211.866h-4.279a.08.08,0,0,0-.025,0c-.007,0-.014.007-.021.014a.074.074,0,0,0-.014.021c0,.007,0,.018,0,.025a1.905,1.905,0,0,0,.5,1.179,1.549,1.549,0,0,0,1.154.454,1.493,1.493,0,0,0,.905-.259,3.26,3.26,0,0,0,.7-.8.225.225,0,0,1,.124-.089.232.232,0,0,1,.153.021l.877.49a.194.194,0,0,1,.064.057.161.161,0,0,1,.035.075.23.23,0,0,1,0,.085.207.207,0,0,1-.028.078,4.867,4.867,0,0,1-.49.65,3.025,3.025,0,0,1-.685.572,2.793,2.793,0,0,1-.788.33,3.825,3.825,0,0,1-.92.1,3,3,0,0,1-2.283-.913,3.408,3.408,0,0,1-.859-2.436,3.492,3.492,0,0,1,.834-2.436,3.181,3.181,0,0,1,4.445-.028,3.505,3.505,0,0,1,.81,2.457v.142a.211.211,0,0,1-.064.146.207.207,0,0,1-.146.06Zm-1.381-1.2a.061.061,0,0,0,.028-.007.094.094,0,0,0,.021-.018.038.038,0,0,0,.011-.025v-.028a1.393,1.393,0,0,0-1.459-1.1,1.5,1.5,0,0,0-.5.082,1.388,1.388,0,0,0-.426.234,1.493,1.493,0,0,0-.33.369,1.73,1.73,0,0,0-.188.412v.028a.032.032,0,0,0,.011.025.094.094,0,0,0,.021.018.067.067,0,0,0,.028.007h2.784Z" transform="translate(-208.391 -134.256)" fill="#fff"/>
        <path id="Path_25380" data-name="Path 25380" d="M326.017,208.009a2.858,2.858,0,0,1,2.216.891,3.505,3.505,0,0,1,.81,2.457v.142a.211.211,0,0,1-.064.146.207.207,0,0,1-.146.06h-4.279a.08.08,0,0,0-.025,0c-.007,0-.014.007-.021.014a.075.075,0,0,0-.014.021c0,.007,0,.018,0,.025a1.905,1.905,0,0,0,.5,1.179,1.549,1.549,0,0,0,1.154.454,1.494,1.494,0,0,0,.905-.259,3.262,3.262,0,0,0,.7-.8.194.194,0,0,1,.075-.067.2.2,0,0,1,.1-.025.258.258,0,0,1,.1.025l.877.49a.2.2,0,0,1,.064.057.162.162,0,0,1,.035.075.229.229,0,0,1,0,.085.207.207,0,0,1-.028.078,4.864,4.864,0,0,1-.49.65,3.12,3.12,0,0,1-.685.572,2.794,2.794,0,0,1-.788.33,3.826,3.826,0,0,1-.92.1,3,3,0,0,1-2.283-.913,3.408,3.408,0,0,1-.859-2.436,3.492,3.492,0,0,1,.834-2.436,2.884,2.884,0,0,1,2.23-.92Zm-1.356,2.5h2.787a.061.061,0,0,0,.028-.007.094.094,0,0,0,.021-.018.038.038,0,0,0,.011-.025v-.028a1.393,1.393,0,0,0-1.459-1.1,1.5,1.5,0,0,0-.5.082,1.387,1.387,0,0,0-.426.234,1.493,1.493,0,0,0-.33.369,1.731,1.731,0,0,0-.188.412v.028a.032.032,0,0,0,.011.025.1.1,0,0,0,.021.018.067.067,0,0,0,.028.007Zm1.356-2.585a2.98,2.98,0,0,0-2.3.948,3.625,3.625,0,0,0-.859,2.5,3.553,3.553,0,0,0,.884,2.5,3.086,3.086,0,0,0,2.347.941,4.006,4.006,0,0,0,.941-.107,2.824,2.824,0,0,0,.813-.341,3.388,3.388,0,0,0,.7-.589,5.046,5.046,0,0,0,.5-.66.34.34,0,0,0,.043-.114.278.278,0,0,0-.007-.121.317.317,0,0,0-.053-.11.278.278,0,0,0-.092-.078l-.877-.49a.3.3,0,0,0-.217-.028.28.28,0,0,0-.177.124,3.307,3.307,0,0,1-.675.781,1.424,1.424,0,0,1-.852.241,1.477,1.477,0,0,1-1.09-.43,1.838,1.838,0,0,1-.476-1.09h4.247a.308.308,0,0,0,.209-.085.282.282,0,0,0,.089-.206v-.142a3.6,3.6,0,0,0-.831-2.517,2.956,2.956,0,0,0-2.283-.923Zm-1.314,2.5a1.487,1.487,0,0,1,.163-.348,1.363,1.363,0,0,1,.309-.344,1.343,1.343,0,0,1,.4-.22,1.432,1.432,0,0,1,.472-.078,1.292,1.292,0,0,1,1.36.991Z" transform="translate(-208.223 -134.095)" fill="#fff"/>
        <path id="Path_25381" data-name="Path 25381" d="M343.424,211.476a3.208,3.208,0,0,1,.245-1.275,3.124,3.124,0,0,1,.739-1.065,3.474,3.474,0,0,1,4.811,0,3.4,3.4,0,0,1-.007,4.776,3.362,3.362,0,0,1-2.432.959,3.218,3.218,0,0,1-2.393-.976,3.292,3.292,0,0,1-.966-2.425Zm1.5.025a2.146,2.146,0,0,0,.508,1.505,1.977,1.977,0,0,0,2.752.007,2.386,2.386,0,0,0,0-2.961,1.793,1.793,0,0,0-1.374-.561,1.77,1.77,0,0,0-1.363.561,2.035,2.035,0,0,0-.522,1.445Z" transform="translate(-221.483 -134.256)" fill="#fff"/>
        <path id="Path_25382" data-name="Path 25382" d="M346.646,208a3.316,3.316,0,0,1,2.411.969,3.4,3.4,0,0,1-.007,4.776,3.362,3.362,0,0,1-2.432.959,3.218,3.218,0,0,1-2.393-.976,3.291,3.291,0,0,1-.966-2.425,3.179,3.179,0,0,1,.245-1.271,3.124,3.124,0,0,1,.738-1.065,3.3,3.3,0,0,1,2.4-.966Zm0,5.393a1.779,1.779,0,0,0,1.374-.554,2.386,2.386,0,0,0,0-2.961,1.793,1.793,0,0,0-1.374-.561,1.77,1.77,0,0,0-1.363.561,2.035,2.035,0,0,0-.522,1.445,2.146,2.146,0,0,0,.508,1.505,1.8,1.8,0,0,0,1.378.561Zm0-5.486a3.409,3.409,0,0,0-2.464.991,3.215,3.215,0,0,0-.756,1.1,3.3,3.3,0,0,0-.256,1.307,3.4,3.4,0,0,0,.991,2.489,3.323,3.323,0,0,0,2.457,1,3.485,3.485,0,0,0,2.5-.984,3.489,3.489,0,0,0,.007-4.907A3.425,3.425,0,0,0,346.646,207.91Zm0,5.393a1.71,1.71,0,0,1-1.31-.533,2.066,2.066,0,0,1-.483-1.445,1.959,1.959,0,0,1,.5-1.385,1.7,1.7,0,0,1,1.3-.533,1.72,1.72,0,0,1,1.31.533,2.293,2.293,0,0,1,0,2.833,1.709,1.709,0,0,1-1.31.525Z" transform="translate(-221.322 -134.088)" fill="#fff"/>
        <path id="Path_25383" data-name="Path 25383" d="M372.326,200.423l-.873.5a.211.211,0,0,1-.153.025.194.194,0,0,1-.128-.089,1.81,1.81,0,0,0-.554-.593,1.571,1.571,0,0,0-.842-.2,1.6,1.6,0,0,0-1.051.348,1.083,1.083,0,0,0-.312.38,1.064,1.064,0,0,0-.107.479q0,.714,1.094,1.15l1,.4a4.276,4.276,0,0,1,1.793,1.172,2.6,2.6,0,0,1,.568,1.7,2.936,2.936,0,0,1-.927,2.226,3.232,3.232,0,0,1-2.315.884,3.167,3.167,0,0,1-2.166-.753,3.322,3.322,0,0,1-1.016-1.924.185.185,0,0,1,.032-.149.223.223,0,0,1,.128-.085l1.122-.241a.173.173,0,0,1,.085,0,.166.166,0,0,1,.078.032.2.2,0,0,1,.06.06.3.3,0,0,1,.032.078,2.19,2.19,0,0,0,.334.976,1.772,1.772,0,0,0,2.549.17,1.57,1.57,0,0,0,.469-1.168,1.622,1.622,0,0,0-.082-.522,1.323,1.323,0,0,0-.256-.437,2.05,2.05,0,0,0-.447-.373,4.174,4.174,0,0,0-.653-.33l-.973-.391q-2.066-.847-2.066-2.478a2.317,2.317,0,0,1,.866-1.839,3.193,3.193,0,0,1,2.159-.746,2.976,2.976,0,0,1,2.606,1.466.19.19,0,0,1,.028.075.629.629,0,0,1,0,.082.207.207,0,0,1-.035.075.283.283,0,0,1-.06.053Z" transform="translate(-236.264 -128.135)" fill="#fff"/>
        <path id="Path_25384" data-name="Path 25384" d="M369.641,198.5a2.976,2.976,0,0,1,2.606,1.466.192.192,0,0,1,.028.075.634.634,0,0,1,0,.082.207.207,0,0,1-.036.075.217.217,0,0,1-.06.053l-.873.5a.228.228,0,0,1-.107.028.209.209,0,0,1-.174-.092,1.81,1.81,0,0,0-.554-.593,1.571,1.571,0,0,0-.841-.2,1.6,1.6,0,0,0-1.051.348,1.036,1.036,0,0,0-.309.38,1.063,1.063,0,0,0-.107.479q0,.714,1.094,1.15l1,.4a4.276,4.276,0,0,1,1.793,1.172,2.6,2.6,0,0,1,.568,1.7,2.936,2.936,0,0,1-.927,2.226,3.232,3.232,0,0,1-2.315.884,3.167,3.167,0,0,1-2.166-.753,3.322,3.322,0,0,1-1.016-1.924.185.185,0,0,1,.032-.149.223.223,0,0,1,.128-.085l1.122-.241s.028,0,.046,0a.229.229,0,0,1,.135.046.194.194,0,0,1,.071.124,2.189,2.189,0,0,0,.334.976,1.772,1.772,0,0,0,2.549.17,1.57,1.57,0,0,0,.469-1.168A1.621,1.621,0,0,0,371,205.1a1.323,1.323,0,0,0-.256-.437,2.049,2.049,0,0,0-.447-.373,4.527,4.527,0,0,0-.653-.334l-.973-.391q-2.066-.847-2.066-2.478a2.317,2.317,0,0,1,.866-1.839,3.193,3.193,0,0,1,2.159-.746Zm0-.089a3.307,3.307,0,0,0-2.219.767,2.415,2.415,0,0,0-.9,1.907c0,1.122.714,1.981,2.123,2.56l.973.391a4.276,4.276,0,0,1,.636.323,1.859,1.859,0,0,1,.426.355,1.311,1.311,0,0,1,.238.408,1.56,1.56,0,0,1,.078.494,1.487,1.487,0,0,1-.444,1.108,1.537,1.537,0,0,1-1.115.437,1.5,1.5,0,0,1-1.3-.6,2.118,2.118,0,0,1-.32-.937.324.324,0,0,0-.1-.178.276.276,0,0,0-.192-.067.2.2,0,0,0-.064.007l-1.122.241a.286.286,0,0,0-.185.121.294.294,0,0,0-.046.217,3.452,3.452,0,0,0,1.044,1.974,3.256,3.256,0,0,0,2.226.774,3.344,3.344,0,0,0,2.379-.909,3.035,3.035,0,0,0,.952-2.29,2.7,2.7,0,0,0-.586-1.754,4.416,4.416,0,0,0-1.829-1.2l-1-.4c-.689-.273-1.04-.636-1.04-1.069a1.062,1.062,0,0,1,.1-.444.953.953,0,0,1,.288-.352,1.7,1.7,0,0,1,1.782-.138,1.783,1.783,0,0,1,.526.565.3.3,0,0,0,.11.1.281.281,0,0,0,.142.036.325.325,0,0,0,.153-.039l.873-.5a.267.267,0,0,0,.089-.078.245.245,0,0,0,.05-.107.262.262,0,0,0,0-.117.281.281,0,0,0-.043-.107,3.077,3.077,0,0,0-2.684-1.505Z" transform="translate(-236.114 -127.961)" fill="#fff"/>
        <path id="Path_25385" data-name="Path 25385" d="M389.662,206.305v4.708a.206.206,0,0,1-.21.209H388.4a.206.206,0,0,1-.21-.209v-4.708a.118.118,0,0,0-.018-.043.065.065,0,0,0-.043-.018h-.415a.206.206,0,0,1-.21-.21v-.952a.206.206,0,0,1,.21-.209h.415a.094.094,0,0,0,.025,0c.007,0,.014-.007.021-.014s.011-.011.014-.021,0-.014,0-.021V203a.206.206,0,0,1,.21-.209h1.047a.206.206,0,0,1,.21.209v1.814a.063.063,0,0,0,0,.021c0,.007.007.014.014.021a.073.073,0,0,0,.021.014c.007,0,.014,0,.025,0h.87a.206.206,0,0,1,.209.209v.952a.206.206,0,0,1-.209.21h-.87a.094.094,0,0,0-.025,0c-.007,0-.014.007-.021.014s-.011.011-.014.021,0,.014,0,.021Z" transform="translate(-249.918 -130.786)" fill="#fff"/>
        <path id="Path_25386" data-name="Path 25386" d="M389.278,202.639a.329.329,0,0,1,.082.014.222.222,0,0,1,.114.114.209.209,0,0,1,.014.082v1.814a.119.119,0,0,0,.018.043.066.066,0,0,0,.043.018h.87a.329.329,0,0,1,.082.014.176.176,0,0,1,.067.046.227.227,0,0,1,.046.067.208.208,0,0,1,.014.082v.952a.219.219,0,0,1-.014.082.176.176,0,0,1-.046.067.285.285,0,0,1-.067.046.208.208,0,0,1-.082.014h-.87a.119.119,0,0,0-.043.018.059.059,0,0,0-.018.043v4.708a.328.328,0,0,1-.014.082.177.177,0,0,1-.046.067.228.228,0,0,1-.067.046.208.208,0,0,1-.082.014h-1.047a.328.328,0,0,1-.082-.014.221.221,0,0,1-.114-.114.208.208,0,0,1-.014-.082v-4.708a.119.119,0,0,0-.018-.043.066.066,0,0,0-.043-.018h-.415a.329.329,0,0,1-.082-.014.221.221,0,0,1-.114-.114.208.208,0,0,1-.014-.082v-.952a.219.219,0,0,1,.014-.082.176.176,0,0,1,.046-.067.228.228,0,0,1,.068-.046.208.208,0,0,1,.082-.014h.415a.119.119,0,0,0,.043-.018.065.065,0,0,0,.018-.043v-1.814a.327.327,0,0,1,.014-.082.176.176,0,0,1,.046-.067.228.228,0,0,1,.067-.046.208.208,0,0,1,.082-.014Zm0-.089h-1.047a.3.3,0,0,0-.213.089.3.3,0,0,0-.089.213v1.786h-.387a.3.3,0,0,0-.213.089.3.3,0,0,0-.089.213v.952a.3.3,0,0,0,.089.213.3.3,0,0,0,.213.089h.387v4.68a.3.3,0,0,0,.089.213.3.3,0,0,0,.213.089h1.047a.3.3,0,0,0,.213-.089.3.3,0,0,0,.089-.213v-4.68h.842a.3.3,0,0,0,.213-.089.3.3,0,0,0,.089-.213v-.952a.3.3,0,0,0-.089-.213.3.3,0,0,0-.213-.089h-.842v-1.786a.3.3,0,0,0-.089-.213A.3.3,0,0,0,389.278,202.55Z" transform="translate(-249.744 -130.631)" fill="#fff"/>
        <path id="Path_25387" data-name="Path 25387" d="M404.813,211.866h-4.286a.063.063,0,0,0-.021,0,.024.024,0,0,0-.018.014c0,.007-.007.011-.011.018v.021a1.906,1.906,0,0,0,.5,1.186,1.549,1.549,0,0,0,1.154.454,1.493,1.493,0,0,0,.905-.259,3.259,3.259,0,0,0,.7-.8.226.226,0,0,1,.124-.089.229.229,0,0,1,.153.021l.877.49a.2.2,0,0,1,.064.057.205.205,0,0,1,.035.075.23.23,0,0,1,0,.085.208.208,0,0,1-.028.078,4.867,4.867,0,0,1-.49.65,3.105,3.105,0,0,1-.685.572,2.793,2.793,0,0,1-.788.33,3.826,3.826,0,0,1-.92.1,3,3,0,0,1-2.283-.913,3.408,3.408,0,0,1-.859-2.436,3.492,3.492,0,0,1,.834-2.436,3.181,3.181,0,0,1,4.445-.028,3.505,3.505,0,0,1,.81,2.457v.142a.228.228,0,0,1-.064.146.207.207,0,0,1-.146.06Zm-1.3-1.2a1.405,1.405,0,0,0-1.481-1.172,1.5,1.5,0,0,0-.5.082,1.387,1.387,0,0,0-.426.234,1.426,1.426,0,0,0-.33.369,1.586,1.586,0,0,0-.192.426v.021a.031.031,0,0,0,.011.021.036.036,0,0,0,.018.014c.007,0,.014,0,.021,0h2.88Z" transform="translate(-257.29 -134.256)" fill="#fff"/>
        <path id="Path_25388" data-name="Path 25388" d="M401.827,208.009a2.858,2.858,0,0,1,2.216.891,3.505,3.505,0,0,1,.81,2.457v.142a.228.228,0,0,1-.064.146.207.207,0,0,1-.146.06h-4.286a.062.062,0,0,0-.021,0,.024.024,0,0,0-.018.014c0,.007-.007.011-.011.018v.021a1.906,1.906,0,0,0,.5,1.186,1.549,1.549,0,0,0,1.154.454,1.494,1.494,0,0,0,.905-.259,3.262,3.262,0,0,0,.7-.8.194.194,0,0,1,.075-.067.2.2,0,0,1,.1-.025.229.229,0,0,1,.1.025l.877.49a.2.2,0,0,1,.064.057.205.205,0,0,1,.035.075.231.231,0,0,1,0,.085.208.208,0,0,1-.028.078,4.867,4.867,0,0,1-.49.65,3.106,3.106,0,0,1-.685.572,2.794,2.794,0,0,1-.788.33,3.826,3.826,0,0,1-.92.1,3,3,0,0,1-2.283-.913,3.408,3.408,0,0,1-.859-2.436,3.492,3.492,0,0,1,.834-2.436,2.884,2.884,0,0,1,2.23-.92Zm-1.371,2.5h2.883a1.405,1.405,0,0,0-1.481-1.172,1.5,1.5,0,0,0-.5.082,1.388,1.388,0,0,0-.426.234,1.426,1.426,0,0,0-.33.369,1.586,1.586,0,0,0-.192.426v.021a.031.031,0,0,0,.011.021.036.036,0,0,0,.018.014c.007,0,.014,0,.021,0Zm1.371-2.585a2.98,2.98,0,0,0-2.3.948,3.625,3.625,0,0,0-.859,2.5,3.553,3.553,0,0,0,.884,2.5,3.086,3.086,0,0,0,2.347.941,4.006,4.006,0,0,0,.941-.107,2.824,2.824,0,0,0,.813-.341,3.388,3.388,0,0,0,.7-.589,5.046,5.046,0,0,0,.5-.66.34.34,0,0,0,.043-.114.345.345,0,0,0,0-.121.265.265,0,0,0-.053-.11.278.278,0,0,0-.092-.078l-.877-.49a.306.306,0,0,0-.217-.028.293.293,0,0,0-.178.124,3.228,3.228,0,0,1-.675.781,1.424,1.424,0,0,1-.852.241,1.471,1.471,0,0,1-1.09-.43,1.814,1.814,0,0,1-.472-1.09h4.247a.308.308,0,0,0,.209-.085.282.282,0,0,0,.089-.206v-.142a3.6,3.6,0,0,0-.831-2.517,2.956,2.956,0,0,0-2.283-.923Zm-1.314,2.5a1.487,1.487,0,0,1,.163-.348,1.36,1.36,0,0,1,.309-.344,1.342,1.342,0,0,1,.4-.22,1.432,1.432,0,0,1,.472-.078,1.292,1.292,0,0,1,1.36.991Z" transform="translate(-257.116 -134.095)" fill="#fff"/>
        <path id="Path_25389" data-name="Path 25389" d="M420.5,216.753h-1.047a.206.206,0,0,1-.21-.209v-8a.206.206,0,0,1,.21-.209H420.5a.206.206,0,0,1,.209.209v.344a.052.052,0,0,0,.011.032.048.048,0,0,0,.025.021.05.05,0,0,0,.032,0,.044.044,0,0,0,.028-.014,2.683,2.683,0,0,1,1.871-.774,2.749,2.749,0,0,1,2.159.966,3.476,3.476,0,0,1,.859,2.418,3.4,3.4,0,0,1-.852,2.379,2.753,2.753,0,0,1-2.137.944,2.7,2.7,0,0,1-1.885-.785.145.145,0,0,0-.032-.018.12.12,0,0,0-.036,0,.063.063,0,0,0-.028.025.06.06,0,0,0-.011.036v2.414a.206.206,0,0,1-.21.209Zm3.7-5.2a2.169,2.169,0,0,0-.5-1.484,1.6,1.6,0,0,0-.565-.433,1.638,1.638,0,0,0-.7-.146,1.676,1.676,0,0,0-1.31.561,2.124,2.124,0,0,0-.5,1.474,2.149,2.149,0,0,0,.5,1.474,1.651,1.651,0,0,0,1.3.568,1.63,1.63,0,0,0,.7-.142,1.6,1.6,0,0,0,.565-.43,2.09,2.09,0,0,0,.508-1.434Z" transform="translate(-270.382 -134.249)" fill="#fff"/>
        <path id="Path_25390" data-name="Path 25390" d="M422.5,208a2.749,2.749,0,0,1,2.159.966,3.476,3.476,0,0,1,.859,2.418,3.4,3.4,0,0,1-.852,2.379,2.753,2.753,0,0,1-2.138.944,2.7,2.7,0,0,1-1.885-.785.066.066,0,0,0-.043-.018.053.053,0,0,0-.025,0c-.007,0-.014.007-.021.014a.075.075,0,0,0-.014.021c0,.007,0,.018,0,.025v2.414a.17.17,0,0,1-.018.082.176.176,0,0,1-.046.067.228.228,0,0,1-.068.046.208.208,0,0,1-.082.014h-1.047a.328.328,0,0,1-.082-.014.176.176,0,0,1-.067-.046.227.227,0,0,1-.046-.067.211.211,0,0,1-.018-.082v-8a.17.17,0,0,1,.018-.082.177.177,0,0,1,.046-.067.227.227,0,0,1,.067-.046.208.208,0,0,1,.082-.014h1.047a.206.206,0,0,1,.209.21v.344a.062.062,0,0,0,0,.021.03.03,0,0,0,.011.018.062.062,0,0,0,.018.014c.007,0,.014,0,.021,0a.074.074,0,0,0,.039-.014A2.683,2.683,0,0,1,422.5,208Zm-.249,5.393a1.578,1.578,0,0,0,.7-.142,1.6,1.6,0,0,0,.565-.43,2.073,2.073,0,0,0,.508-1.434,2.169,2.169,0,0,0-.5-1.484,1.6,1.6,0,0,0-.565-.433,1.637,1.637,0,0,0-.7-.146,1.676,1.676,0,0,0-1.31.561,2.124,2.124,0,0,0-.5,1.474,2.173,2.173,0,0,0,.5,1.474,1.651,1.651,0,0,0,1.3.568Zm.249-5.486a2.765,2.765,0,0,0-1.878.746v-.273a.3.3,0,0,0-.089-.213.3.3,0,0,0-.213-.089h-1.047a.3.3,0,0,0-.213.089.3.3,0,0,0-.089.213v8a.3.3,0,0,0,.089.213.3.3,0,0,0,.213.089h1.047a.3.3,0,0,0,.213-.089.3.3,0,0,0,.089-.213v-2.354a2.776,2.776,0,0,0,1.9.77,2.835,2.835,0,0,0,2.2-.976,3.534,3.534,0,0,0,.877-2.439,3.628,3.628,0,0,0-.884-2.478,2.839,2.839,0,0,0-2.226-.994Zm-.249,5.393a1.542,1.542,0,0,1-1.236-.536,2.323,2.323,0,0,1,0-2.826,1.583,1.583,0,0,1,1.243-.529,1.561,1.561,0,0,1,.66.135,1.48,1.48,0,0,1,.536.412,2.122,2.122,0,0,1,.472,1.427,2.007,2.007,0,0,1-.486,1.374,1.5,1.5,0,0,1-.533.408A1.545,1.545,0,0,1,422.251,213.3Z" transform="translate(-270.208 -134.082)" fill="#fff"/>
        <path id="Path_25391" data-name="Path 25391" d="M137.689,216.605l-1.784-5.64h1.45l1.057,3.7.972-3.7h1.439l.94,3.7,1.078-3.7h1.471l-1.811,5.64h-1.434l-.972-3.627-.956,3.627Z" transform="translate(-87.649 -136.059)" fill="#fff"/>
        <path id="Path_25392" data-name="Path 25392" d="M163.325,204.924h1.492V206.3h-1.492Zm0,2.145h1.492v5.64h-1.492Z" transform="translate(-105.334 -132.162)" fill="#fff"/>
        <path id="Path_25393" data-name="Path 25393" d="M174.834,207.349v1.19h-1.02v2.273a5.623,5.623,0,0,0,.029.8.328.328,0,0,0,.133.189.422.422,0,0,0,.252.074,1.933,1.933,0,0,0,.6-.143l.127,1.158a2.964,2.964,0,0,1-1.179.223,1.871,1.871,0,0,1-.728-.136,1.061,1.061,0,0,1-.475-.35,1.382,1.382,0,0,1-.21-.582,7.278,7.278,0,0,1-.048-1.051v-2.458h-.685v-1.19h.685v-1.12l1.5-.871v1.991Z" transform="translate(-110.691 -132.442)" fill="#fff"/>
        <path id="Path_25394" data-name="Path 25394" d="M186.575,204.924v2.863a2.236,2.236,0,0,1,2.655-.653,1.519,1.519,0,0,1,.624.489,1.771,1.771,0,0,1,.287.658,5.879,5.879,0,0,1,.077,1.121v3.309h-1.492V209.73a4.419,4.419,0,0,0-.085-1.126.742.742,0,0,0-.3-.38.966.966,0,0,0-.539-.141,1.238,1.238,0,0,0-.664.18,1.047,1.047,0,0,0-.428.544,3.256,3.256,0,0,0-.135,1.076v2.825h-1.492v-7.785Z" transform="translate(-119.366 -132.162)" fill="#fff"/>
      </g>
    </g>
  </g>
</svg>
