<svg xmlns="http://www.w3.org/2000/svg" xmlns:xlink="http://www.w3.org/1999/xlink" width="205" height="110.731" viewBox="0 0 205 110.731">
  <defs>
    <clipPath id="clip-path">
      <rect id="Rectangle_3237" data-name="Rectangle 3237" width="205" height="110.731" fill="none"/>
    </clipPath>
    <clipPath id="clip-path-3">
      <path id="Path_25401" data-name="Path 25401" d="M212.668,191.833a8.419,8.419,0,0,0-5.189,7.781l-.009,0v8.409h8.418a8.418,8.418,0,1,0-3.22-16.194" transform="translate(-207.47 -191.191)" fill="none"/>
    </clipPath>
    <linearGradient id="linear-gradient" x1="-5.695" y1="1.279" x2="-5.667" y2="1.279" gradientUnits="objectBoundingBox">
      <stop offset="0" stop-color="#40b2e7"/>
      <stop offset="1" stop-color="#3079bf"/>
    </linearGradient>
    <clipPath id="clip-path-5">
      <rect id="Rectangle_3235" data-name="Rectangle 3235" width="14.1" height="15.631" fill="none"/>
    </clipPath>
  </defs>
  <g id="Group_8389" data-name="Group 8389" clip-path="url(#clip-path)">
    <g id="Group_8381" data-name="Group 8381">
      <g id="Group_8380" data-name="Group 8380" clip-path="url(#clip-path)">
        <path id="Path_25395" data-name="Path 25395" d="M236.324,38.219l-32.132-6.571V2.387A2.419,2.419,0,0,0,201.762,0h-3.276a2.34,2.34,0,0,0-2.336,2.387v74a2.34,2.34,0,0,0,2.336,2.387h3.276a2.423,2.423,0,0,0,2.434-2.387V39.7l32.132,6.571a1.913,1.913,0,0,0,2.387-1.945V41.048a3.014,3.014,0,0,0-2.387-2.825Z" transform="translate(-104.872)" fill="#48b9bd"/>
        <path id="Path_25396" data-name="Path 25396" d="M66.168,8.7H53.8V2.387A2.427,2.427,0,0,0,51.365,0H48.089a2.34,2.34,0,0,0-2.336,2.387V8.7H25.334V2.387A2.423,2.423,0,0,0,22.9,0H19.624a2.34,2.34,0,0,0-2.336,2.387V8.7H2.387A2.42,2.42,0,0,0,0,11.136v3.276a2.34,2.34,0,0,0,2.387,2.336H66.168a2.34,2.34,0,0,0,2.387-2.336V11.136A2.423,2.423,0,0,0,66.168,8.7" fill="#23a4da"/>
        <path id="Path_25397" data-name="Path 25397" d="M95.486,81.488V50.617a2.42,2.42,0,0,0-2.434-2.387H89.776a2.34,2.34,0,0,0-2.336,2.387V81.488a2.34,2.34,0,0,0,2.336,2.387h3.276a2.423,2.423,0,0,0,2.434-2.387" transform="translate(-46.75 -25.786)" fill="#23a4da"/>
        <path id="Path_25398" data-name="Path 25398" d="M114.611,48.62h-3.183A2.361,2.361,0,0,0,109,51.007V85.964c0,3.914-.563,6.78-2.15,8.595a7.818,7.818,0,0,1-5.8,2.387H98.524a2.423,2.423,0,0,0-2.434,2.387v3.057a2.42,2.42,0,0,0,2.434,2.387h2.62a14.971,14.971,0,0,0,11.787-5.156c2.429-2.862,4.021-6.589,4.021-12.606V51.007a2.284,2.284,0,0,0-2.336-2.387Z" transform="translate(-51.375 -25.995)" fill="#23a4da"/>
        <path id="Path_25399" data-name="Path 25399" d="M21.237,48.23A15.573,15.573,0,0,0,9.171,53.386C6.644,56.253,5.15,59.975,5.15,65.992v36.186a2.34,2.34,0,0,0,2.336,2.387h3.276a2.42,2.42,0,0,0,2.434-2.387V66.658c0-3.914.563-6.78,2.243-8.595a7.818,7.818,0,0,1,5.8-2.387,7.615,7.615,0,0,1,5.705,2.387c1.68,1.717,2.266,4.388,2.327,7.99H20.348a2.34,2.34,0,0,0-2.387,2.336v3.276A2.423,2.423,0,0,0,20.348,74.1h8.93v5.607h-8.93a2.34,2.34,0,0,0-2.387,2.336v3.276a2.423,2.423,0,0,0,2.387,2.434h8.865c-.181,2.9-.791,5.11-2.113,6.594a7.951,7.951,0,0,1-5.868,2.387h-.819a2.435,2.435,0,0,0-2.462,2.387v3.057a2.435,2.435,0,0,0,2.462,2.387h.917a15.218,15.218,0,0,0,11.922-5.156c2.369-2.755,3.932-6.329,4.044-11.955h.023V65.992c0-6.017-1.591-9.74-4.021-12.606A15.716,15.716,0,0,0,21.232,48.23Z" transform="translate(-2.753 -25.786)" fill="#23a4da"/>
        <path id="Path_25400" data-name="Path 25400" d="M375.119,33.1h-20.7a2.143,2.143,0,0,0-2.145,2.145V39a2.143,2.143,0,0,0,2.145,2.145h9.186L335.452,69.588a2.164,2.164,0,0,1-1.526.638h-2.839a.857.857,0,0,1-.856-.856V2.145A2.143,2.143,0,0,0,328.086,0h-3.751a2.143,2.143,0,0,0-2.145,2.145V76.126a2.143,2.143,0,0,0,2.145,2.145h12.053A4.285,4.285,0,0,0,339.436,77l29.782-30.094v9.046a2.143,2.143,0,0,0,2.145,2.145h3.751a2.143,2.143,0,0,0,2.145-2.145v-20.7a2.143,2.143,0,0,0-2.145-2.145Z" transform="translate(-172.259)" fill="#48b9bd"/>
      </g>
    </g>
    <g id="Group_8383" data-name="Group 8383" transform="translate(96.546 88.97)">
      <g id="Group_8382" data-name="Group 8382" clip-path="url(#clip-path-3)">
        <rect id="Rectangle_3234" data-name="Rectangle 3234" width="16.958" height="17.12" transform="translate(-0.121 16.835) rotate(-89.588)" fill="url(#linear-gradient)"/>
      </g>
    </g>
    <g id="Group_8388" data-name="Group 8388">
      <g id="Group_8387" data-name="Group 8387" clip-path="url(#clip-path)">
        <g id="Group_8386" data-name="Group 8386" transform="translate(104.606 95.1)" opacity="0.84" style="isolation: isolate">
          <g id="Group_8385" data-name="Group 8385">
            <g id="Group_8384" data-name="Group 8384" clip-path="url(#clip-path-5)">
              <path id="Path_25402" data-name="Path 25402" d="M237.9,210.471a1.967,1.967,0,0,1,.726,2.694,1.963,1.963,0,0,1-.726.721l-10.14,5.84a1.98,1.98,0,0,1-2.969-1.708v-11.68a1.978,1.978,0,0,1,2.969-1.708Z" transform="translate(-224.79 -204.362)" fill="#35bce0"/>
            </g>
          </g>
        </g>
        <path id="Path_25403" data-name="Path 25403" d="M233.468,207.931a8.3,8.3,0,0,1-.544,1.941,8.416,8.416,0,0,1-7.776,5.2h-.368v-8.721a1.978,1.978,0,0,1,2.969-1.708l5.719,3.295Z" transform="translate(-120.179 -109.268)" fill="#2eb7eb" fill-rule="evenodd"/>
        <path id="Path_25404" data-name="Path 25404" d="M266.141,199.046l3.439,8.288a.162.162,0,0,0,.056.07.154.154,0,0,0,.177,0,.135.135,0,0,0,.056-.07l3.485-8.293a.268.268,0,0,1,.1-.126.26.26,0,0,1,.154-.047h1.582a.274.274,0,0,1,.228.121.294.294,0,0,1,.047.126.248.248,0,0,1-.019.13L270.157,211.6a.462.462,0,0,1-.186.223.5.5,0,0,1-.558,0,.5.5,0,0,1-.186-.228l-5.17-12.355a.255.255,0,0,1-.019-.13.209.209,0,0,1,.047-.126.254.254,0,0,1,.1-.088.258.258,0,0,1,.13-.033H265.9a.276.276,0,0,1,.256.172Z" transform="translate(-141.167 -106.321)" fill="#1e272c"/>
        <path id="Path_25405" data-name="Path 25405" d="M275.054,198.746a.274.274,0,0,1,.228.121.293.293,0,0,1,.047.126.306.306,0,0,1-.019.13l-5.291,12.355a.462.462,0,0,1-.186.223.5.5,0,0,1-.558,0,.5.5,0,0,1-.186-.228l-5.17-12.355a.255.255,0,0,1-.019-.13.209.209,0,0,1,.047-.126.254.254,0,0,1,.1-.088.258.258,0,0,1,.13-.033h1.587a.276.276,0,0,1,.256.172l3.439,8.288a.163.163,0,0,0,.056.07.154.154,0,0,0,.177,0,.135.135,0,0,0,.056-.07l3.485-8.293a.268.268,0,0,1,.1-.126.26.26,0,0,1,.154-.047h1.582Zm0-.116h-1.582a.4.4,0,0,0-.219.065.382.382,0,0,0-.144.177l-3.485,8.293a.189.189,0,0,1-.014.019s-.014,0-.019,0-.014,0-.019,0-.009-.009-.014-.019l-3.439-8.288a.394.394,0,0,0-.144-.182.4.4,0,0,0-.219-.065h-1.587a.38.38,0,0,0-.186.047.363.363,0,0,0-.14.126.407.407,0,0,0-.065.177.357.357,0,0,0,.028.186l5.17,12.355a.634.634,0,0,0,.228.279.614.614,0,0,0,.344.107.648.648,0,0,0,.344-.1.61.61,0,0,0,.228-.279l5.291-12.355a.444.444,0,0,0,.028-.191.373.373,0,0,0-.065-.182.415.415,0,0,0-.14-.13.369.369,0,0,0-.186-.047Z" transform="translate(-141.029 -106.192)" fill="#1e272c"/>
        <path id="Path_25406" data-name="Path 25406" d="M291.725,199.818a1.255,1.255,0,0,1,1.247-1.238,1.228,1.228,0,0,1,.484.093,1.272,1.272,0,0,1,.4.275,1.182,1.182,0,0,1,.275.4,1.139,1.139,0,0,1,.088.479,1.228,1.228,0,0,1-.093.484,1.157,1.157,0,0,1-.275.4,1.12,1.12,0,0,1-.4.275,1.206,1.206,0,0,1-.479.093,1.232,1.232,0,0,1-.484-.1,1.293,1.293,0,0,1-.41-.275,1.207,1.207,0,0,1-.27-.41,1.317,1.317,0,0,1-.093-.484Zm2.215,3.732v7.771a.27.27,0,0,1-.275.275h-1.452a.27.27,0,0,1-.275-.275V203.55a.27.27,0,0,1,.275-.275h1.452a.27.27,0,0,1,.275.275" transform="translate(-155.969 -106.171)" fill="#1e272c"/>
        <path id="Path_25407" data-name="Path 25407" d="M292.843,198.436a1.228,1.228,0,0,1,.484.093,1.272,1.272,0,0,1,.4.275,1.12,1.12,0,0,1,.275.4,1.14,1.14,0,0,1,.088.479,1.228,1.228,0,0,1-.093.484,1.158,1.158,0,0,1-.275.4,1.12,1.12,0,0,1-.4.275,1.205,1.205,0,0,1-.479.093,1.232,1.232,0,0,1-.484-.1,1.293,1.293,0,0,1-.41-.275,1.208,1.208,0,0,1-.27-.41,1.316,1.316,0,0,1-.093-.484,1.255,1.255,0,0,1,1.247-1.238Zm.693,4.7a.431.431,0,0,1,.107.019.231.231,0,0,1,.088.061.3.3,0,0,1,.061.088.273.273,0,0,1,.019.107v7.771a.288.288,0,0,1-.019.107.231.231,0,0,1-.061.088.372.372,0,0,1-.088.06.273.273,0,0,1-.107.019h-1.452a.431.431,0,0,1-.107-.019.232.232,0,0,1-.088-.06.3.3,0,0,1-.06-.088.273.273,0,0,1-.019-.107v-7.771a.431.431,0,0,1,.019-.107.231.231,0,0,1,.06-.088.3.3,0,0,1,.088-.061.273.273,0,0,1,.107-.019Zm-.693-4.816a1.349,1.349,0,0,0-.959.4,1.365,1.365,0,0,0-.3,1.489,1.32,1.32,0,0,0,.3.447,1.256,1.256,0,0,0,.447.3,1.379,1.379,0,0,0,.526.107,1.357,1.357,0,0,0,.526-.1,1.314,1.314,0,0,0,.442-.3,1.373,1.373,0,0,0,.3-1.494,1.314,1.314,0,0,0-.3-.442,1.323,1.323,0,0,0-.968-.4Zm.693,4.7h-1.452a.4.4,0,0,0-.279.116.391.391,0,0,0-.116.279v7.771a.4.4,0,0,0,.116.279.39.39,0,0,0,.279.116h1.452a.4.4,0,0,0,.279-.116.39.39,0,0,0,.116-.279v-7.771a.4.4,0,0,0-.116-.279.391.391,0,0,0-.279-.116" transform="translate(-155.84 -106.027)" fill="#1e272c"/>
        <path id="Path_25408" data-name="Path 25408" d="M307.688,201.51h1.382a.27.27,0,0,1,.275.275v11.1a.27.27,0,0,1-.275.275h-1.382a.27.27,0,0,1-.275-.275v-.414a.069.069,0,0,0-.014-.042.062.062,0,0,0-.033-.028.077.077,0,0,0-.047,0,.084.084,0,0,0-.042.019,3.555,3.555,0,0,1-2.443.987A3.663,3.663,0,0,1,302,212.157a4.641,4.641,0,0,1-1.117-3.178A4.439,4.439,0,0,1,302,205.87a3.567,3.567,0,0,1,2.792-1.256,3.494,3.494,0,0,1,2.48,1.061.069.069,0,0,0,.042.019.158.158,0,0,0,.047,0,.072.072,0,0,0,.037-.028.075.075,0,0,0,.014-.042v-3.834a.27.27,0,0,1,.275-.275Zm-4.835,7.464a2.884,2.884,0,0,0,.642,1.945,2.079,2.079,0,0,0,.745.568,2.147,2.147,0,0,0,.917.191,2.21,2.21,0,0,0,1.726-.735,3.17,3.17,0,0,0,0-3.862,2.184,2.184,0,0,0-1.708-.745,2.131,2.131,0,0,0-1.657.754,2.772,2.772,0,0,0-.656,1.88Z" transform="translate(-160.866 -107.738)" fill="#1e272c"/>
        <path id="Path_25409" data-name="Path 25409" d="M308.936,201.376a.43.43,0,0,1,.107.019.231.231,0,0,1,.088.06.3.3,0,0,1,.06.088.276.276,0,0,1,.023.107v11.1a.223.223,0,0,1-.023.107.231.231,0,0,1-.06.088.375.375,0,0,1-.088.06.273.273,0,0,1-.107.019h-1.382a.363.363,0,0,1-.1-.019.291.291,0,0,1-.149-.149.273.273,0,0,1-.019-.107v-.414a.124.124,0,0,0,0-.033c0-.009-.009-.019-.019-.028a.043.043,0,0,0-.028-.019c-.009,0-.019,0-.028,0a.1.1,0,0,0-.051.019,3.555,3.555,0,0,1-2.443.987,3.663,3.663,0,0,1-2.839-1.247,4.642,4.642,0,0,1-1.117-3.178,4.439,4.439,0,0,1,1.117-3.108,3.567,3.567,0,0,1,2.792-1.256,3.494,3.494,0,0,1,2.48,1.061.077.077,0,0,0,.056.023.059.059,0,0,0,.028,0c.009,0,.019-.009.028-.019a.059.059,0,0,0,.019-.028c0-.009,0-.019,0-.033v-3.834a.43.43,0,0,1,.019-.107.231.231,0,0,1,.061-.088.374.374,0,0,1,.088-.06.266.266,0,0,1,.1-.019h1.382Zm-3.923,10.173a2.21,2.21,0,0,0,1.726-.735,3.17,3.17,0,0,0,0-3.862,2.184,2.184,0,0,0-1.708-.745,2.112,2.112,0,0,0-.912.191,2.149,2.149,0,0,0-.745.563,2.772,2.772,0,0,0-.656,1.88,2.884,2.884,0,0,0,.642,1.945,2.078,2.078,0,0,0,.745.568,2.147,2.147,0,0,0,.917.191Zm3.923-10.289h-1.382a.4.4,0,0,0-.279.116.391.391,0,0,0-.116.279V205.4a3.6,3.6,0,0,0-2.494-1.033,3.71,3.71,0,0,0-2.885,1.3,4.608,4.608,0,0,0-1.149,3.188,4.808,4.808,0,0,0,1.149,3.253,3.792,3.792,0,0,0,2.927,1.289,3.633,3.633,0,0,0,2.452-.959v.326a.4.4,0,0,0,.116.279.391.391,0,0,0,.279.116h1.382a.4.4,0,0,0,.279-.116.391.391,0,0,0,.116-.279v-11.1a.4.4,0,0,0-.116-.279.391.391,0,0,0-.279-.116m-3.923,10.173a1.968,1.968,0,0,1-1.568-.717,2.8,2.8,0,0,1-.614-1.871,2.687,2.687,0,0,1,.628-1.8,2.149,2.149,0,0,1,3.188-.009,3.044,3.044,0,0,1,0,3.7,2.081,2.081,0,0,1-1.638.693Z" transform="translate(-160.732 -107.604)" fill="#1e272c"/>
        <path id="Path_25410" data-name="Path 25410" d="M330.822,213.014h-5.607a.105.105,0,0,0-.033,0c-.009,0-.019.009-.028.019a.1.1,0,0,0-.019.028c0,.009,0,.023,0,.033a2.5,2.5,0,0,0,.661,1.545,2.03,2.03,0,0,0,1.512.6,1.958,1.958,0,0,0,1.187-.34,4.275,4.275,0,0,0,.912-1.052.3.3,0,0,1,.163-.116.3.3,0,0,1,.2.028l1.149.642a.255.255,0,0,1,.084.074.211.211,0,0,1,.047.1.3.3,0,0,1,0,.112.271.271,0,0,1-.037.1,6.375,6.375,0,0,1-.642.852,3.967,3.967,0,0,1-.9.749,3.661,3.661,0,0,1-1.033.433,5.014,5.014,0,0,1-1.205.135,3.929,3.929,0,0,1-2.992-1.2,4.466,4.466,0,0,1-1.126-3.192,4.577,4.577,0,0,1,1.094-3.192,4.169,4.169,0,0,1,5.826-.037,4.594,4.594,0,0,1,1.061,3.22v.186a.276.276,0,0,1-.084.191.271.271,0,0,1-.191.079Zm-1.81-1.573a.08.08,0,0,0,.037-.009.122.122,0,0,0,.028-.023.05.05,0,0,0,.014-.033v-.037a1.825,1.825,0,0,0-1.913-1.438,1.96,1.96,0,0,0-.656.107,1.819,1.819,0,0,0-.558.307,1.957,1.957,0,0,0-.433.484,2.267,2.267,0,0,0-.247.54v.037a.042.042,0,0,0,.014.033.123.123,0,0,0,.028.023.088.088,0,0,0,.037.009h3.648Z" transform="translate(-172.757 -111.298)" fill="#1e272c"/>
        <path id="Path_25411" data-name="Path 25411" d="M327,208.036a3.745,3.745,0,0,1,2.9,1.168,4.594,4.594,0,0,1,1.061,3.22v.186a.276.276,0,0,1-.084.191.272.272,0,0,1-.191.079H325.08a.1.1,0,0,0-.033,0c-.009,0-.019.009-.028.019a.1.1,0,0,0-.019.028c0,.009,0,.023,0,.033a2.5,2.5,0,0,0,.661,1.545,2.03,2.03,0,0,0,1.512.6,1.957,1.957,0,0,0,1.187-.34,4.275,4.275,0,0,0,.912-1.052.254.254,0,0,1,.1-.088.258.258,0,0,1,.13-.033.339.339,0,0,1,.135.033l1.149.642a.255.255,0,0,1,.084.074.211.211,0,0,1,.047.1.3.3,0,0,1,0,.112.271.271,0,0,1-.037.1,6.376,6.376,0,0,1-.642.852,4.092,4.092,0,0,1-.9.749,3.661,3.661,0,0,1-1.033.433,5.013,5.013,0,0,1-1.205.135,3.929,3.929,0,0,1-2.992-1.2,4.466,4.466,0,0,1-1.126-3.192,4.577,4.577,0,0,1,1.094-3.192A3.78,3.78,0,0,1,327,208.036Zm-1.778,3.271h3.653a.08.08,0,0,0,.037-.009.122.122,0,0,0,.028-.023.05.05,0,0,0,.014-.033v-.037a1.825,1.825,0,0,0-1.913-1.438,1.959,1.959,0,0,0-.656.107,1.819,1.819,0,0,0-.558.307,1.958,1.958,0,0,0-.433.484,2.269,2.269,0,0,0-.247.54v.037a.042.042,0,0,0,.014.033.124.124,0,0,0,.028.023.088.088,0,0,0,.037.009ZM327,207.92a3.906,3.906,0,0,0-3.011,1.242,4.751,4.751,0,0,0-1.126,3.271,4.657,4.657,0,0,0,1.159,3.276,4.045,4.045,0,0,0,3.076,1.233,5.25,5.25,0,0,0,1.233-.14,3.7,3.7,0,0,0,1.066-.447,4.441,4.441,0,0,0,.921-.772,6.614,6.614,0,0,0,.656-.866.447.447,0,0,0,.056-.149.365.365,0,0,0-.009-.158.416.416,0,0,0-.07-.144.365.365,0,0,0-.121-.1l-1.149-.642a.4.4,0,0,0-.284-.037.367.367,0,0,0-.233.163,4.335,4.335,0,0,1-.884,1.024,1.865,1.865,0,0,1-1.117.316,1.936,1.936,0,0,1-1.429-.563,2.409,2.409,0,0,1-.624-1.429h5.566a.4.4,0,0,0,.275-.112.37.37,0,0,0,.116-.27v-.186a4.719,4.719,0,0,0-1.089-3.3,3.874,3.874,0,0,0-2.992-1.21Zm-1.722,3.271a1.949,1.949,0,0,1,.214-.456,1.783,1.783,0,0,1,.4-.451,1.758,1.758,0,0,1,.526-.289,1.877,1.877,0,0,1,.619-.1,1.694,1.694,0,0,1,1.782,1.3Z" transform="translate(-172.618 -111.165)" fill="#1e272c"/>
        <path id="Path_25412" data-name="Path 25412" d="M343.425,212.5a4.205,4.205,0,0,1,.321-1.671,4.094,4.094,0,0,1,.968-1.4,4.553,4.553,0,0,1,6.305,0,4.455,4.455,0,0,1-.009,6.259,4.406,4.406,0,0,1-3.188,1.256,4.217,4.217,0,0,1-3.136-1.28,4.314,4.314,0,0,1-1.266-3.178Zm1.964.033a2.812,2.812,0,0,0,.665,1.973,2.591,2.591,0,0,0,3.606.009,3.128,3.128,0,0,0,0-3.881,2.35,2.35,0,0,0-1.8-.735,2.319,2.319,0,0,0-1.787.735,2.667,2.667,0,0,0-.684,1.894Z" transform="translate(-183.61 -111.298)" fill="#1e272c"/>
        <path id="Path_25413" data-name="Path 25413" d="M347.726,208.031a4.347,4.347,0,0,1,3.16,1.27,4.455,4.455,0,0,1-.009,6.259,4.406,4.406,0,0,1-3.188,1.256,4.217,4.217,0,0,1-3.136-1.28,4.314,4.314,0,0,1-1.266-3.178,4.167,4.167,0,0,1,.321-1.666,4.094,4.094,0,0,1,.968-1.4,4.329,4.329,0,0,1,3.146-1.266Zm0,7.069a2.332,2.332,0,0,0,1.8-.726,3.128,3.128,0,0,0,0-3.881,2.35,2.35,0,0,0-1.8-.735,2.319,2.319,0,0,0-1.787.735,2.667,2.667,0,0,0-.684,1.894,2.812,2.812,0,0,0,.665,1.973,2.353,2.353,0,0,0,1.806.735Zm0-7.19a4.467,4.467,0,0,0-3.229,1.3,4.213,4.213,0,0,0-.991,1.438,4.322,4.322,0,0,0-.335,1.712,4.452,4.452,0,0,0,1.3,3.262,4.355,4.355,0,0,0,3.22,1.317,4.568,4.568,0,0,0,3.271-1.289,4.573,4.573,0,0,0,.009-6.431A4.489,4.489,0,0,0,347.726,207.91Zm0,7.069a2.241,2.241,0,0,1-1.717-.7,2.707,2.707,0,0,1-.633-1.894,2.568,2.568,0,0,1,.651-1.815,2.223,2.223,0,0,1,1.7-.7,2.255,2.255,0,0,1,1.717.7,3.005,3.005,0,0,1,0,3.713,2.24,2.24,0,0,1-1.717.689Z" transform="translate(-183.476 -111.159)" fill="#1e272c"/>
        <path id="Path_25414" data-name="Path 25414" d="M374.185,200.965l-1.145.656a.277.277,0,0,1-.2.033.255.255,0,0,1-.168-.116,2.372,2.372,0,0,0-.726-.777,2.058,2.058,0,0,0-1.1-.265,2.092,2.092,0,0,0-1.377.456,1.42,1.42,0,0,0-.41.5,1.393,1.393,0,0,0-.14.628q0,.935,1.433,1.508l1.317.521a5.6,5.6,0,0,1,2.35,1.536,3.406,3.406,0,0,1,.745,2.224,3.848,3.848,0,0,1-1.215,2.918,4.236,4.236,0,0,1-3.034,1.159,4.151,4.151,0,0,1-2.839-.987,4.354,4.354,0,0,1-1.331-2.522.242.242,0,0,1,.042-.2.292.292,0,0,1,.167-.112l1.471-.316a.226.226,0,0,1,.112,0,.218.218,0,0,1,.1.042.256.256,0,0,1,.079.079.4.4,0,0,1,.042.1,2.869,2.869,0,0,0,.437,1.28,2.322,2.322,0,0,0,3.341.223,2.059,2.059,0,0,0,.614-1.531,2.123,2.123,0,0,0-.107-.684,1.732,1.732,0,0,0-.335-.572,2.684,2.684,0,0,0-.586-.489,5.468,5.468,0,0,0-.856-.433l-1.275-.512q-2.708-1.11-2.708-3.248a3.036,3.036,0,0,1,1.135-2.411,4.184,4.184,0,0,1,2.829-.977,3.9,3.9,0,0,1,3.416,1.922.25.25,0,0,1,.037.1.824.824,0,0,1,0,.107.271.271,0,0,1-.047.1.37.37,0,0,1-.079.07Z" transform="translate(-195.864 -106.225)" fill="#1e272c"/>
        <path id="Path_25415" data-name="Path 25415" d="M370.738,198.531a3.9,3.9,0,0,1,3.416,1.922.251.251,0,0,1,.037.1.824.824,0,0,1,0,.107.271.271,0,0,1-.047.1.286.286,0,0,1-.079.07l-1.145.656a.3.3,0,0,1-.14.037.274.274,0,0,1-.228-.121,2.372,2.372,0,0,0-.726-.777,2.059,2.059,0,0,0-1.1-.265,2.092,2.092,0,0,0-1.377.456,1.359,1.359,0,0,0-.4.5,1.393,1.393,0,0,0-.14.628q0,.935,1.433,1.508l1.317.521a5.6,5.6,0,0,1,2.35,1.536,3.406,3.406,0,0,1,.745,2.224,3.848,3.848,0,0,1-1.215,2.918A4.235,4.235,0,0,1,370.4,211.8a4.151,4.151,0,0,1-2.839-.987,4.353,4.353,0,0,1-1.331-2.522.242.242,0,0,1,.042-.2.292.292,0,0,1,.168-.112l1.47-.316s.037,0,.061,0a.3.3,0,0,1,.177.061.254.254,0,0,1,.093.163,2.869,2.869,0,0,0,.437,1.28,2.322,2.322,0,0,0,3.341.223,2.058,2.058,0,0,0,.614-1.531,2.124,2.124,0,0,0-.107-.684,1.734,1.734,0,0,0-.335-.572,2.685,2.685,0,0,0-.586-.489,5.932,5.932,0,0,0-.856-.437l-1.275-.512q-2.708-1.11-2.708-3.248a3.036,3.036,0,0,1,1.135-2.411,4.184,4.184,0,0,1,2.829-.977Zm0-.116a4.334,4.334,0,0,0-2.908,1.005,3.165,3.165,0,0,0-1.177,2.5c0,1.47.935,2.6,2.783,3.355l1.275.512a5.6,5.6,0,0,1,.833.423,2.436,2.436,0,0,1,.558.465,1.717,1.717,0,0,1,.312.535,2.043,2.043,0,0,1,.1.647,1.949,1.949,0,0,1-.582,1.452,2.015,2.015,0,0,1-1.461.572,1.966,1.966,0,0,1-1.7-.782,2.776,2.776,0,0,1-.419-1.229.425.425,0,0,0-.135-.233.362.362,0,0,0-.251-.088.257.257,0,0,0-.084.009l-1.47.316a.374.374,0,0,0-.242.158.385.385,0,0,0-.06.284,4.524,4.524,0,0,0,1.368,2.587,4.268,4.268,0,0,0,2.918,1.014,4.382,4.382,0,0,0,3.118-1.191,3.977,3.977,0,0,0,1.247-3,3.541,3.541,0,0,0-.768-2.3,5.788,5.788,0,0,0-2.4-1.573l-1.317-.521c-.9-.358-1.363-.833-1.363-1.4a1.392,1.392,0,0,1,.126-.582,1.249,1.249,0,0,1,.377-.461,2.234,2.234,0,0,1,2.336-.182,2.336,2.336,0,0,1,.689.74.389.389,0,0,0,.144.13.369.369,0,0,0,.186.047.426.426,0,0,0,.2-.051l1.145-.656a.35.35,0,0,0,.116-.1.321.321,0,0,0,.065-.14.343.343,0,0,0,0-.154.367.367,0,0,0-.056-.14,4.033,4.033,0,0,0-3.518-1.973Z" transform="translate(-195.739 -106.08)" fill="#1e272c"/>
        <path id="Path_25416" data-name="Path 25416" d="M390.33,207.4v6.171a.27.27,0,0,1-.275.275h-1.373a.27.27,0,0,1-.275-.275V207.4a.155.155,0,0,0-.023-.056.086.086,0,0,0-.056-.023h-.544a.27.27,0,0,1-.275-.275V205.8a.27.27,0,0,1,.275-.275h.544a.123.123,0,0,0,.033,0c.009,0,.019-.009.028-.019s.014-.014.019-.028,0-.019,0-.028v-2.378a.27.27,0,0,1,.275-.275h1.373a.27.27,0,0,1,.275.275v2.378a.082.082,0,0,0,0,.028c0,.009.009.019.019.028a.1.1,0,0,0,.028.019c.009,0,.019,0,.033,0h1.14a.27.27,0,0,1,.275.275v1.247a.27.27,0,0,1-.275.275h-1.14a.123.123,0,0,0-.033,0c-.009,0-.019.009-.028.019s-.014.014-.019.028,0,.019,0,.028Z" transform="translate(-207.183 -108.422)" fill="#1e272c"/>
        <path id="Path_25417" data-name="Path 25417" d="M389.911,202.666a.431.431,0,0,1,.107.019.291.291,0,0,1,.149.149.273.273,0,0,1,.019.107v2.378a.156.156,0,0,0,.023.056.086.086,0,0,0,.056.023h1.14a.431.431,0,0,1,.107.019.23.23,0,0,1,.088.061.3.3,0,0,1,.06.088.272.272,0,0,1,.019.107v1.247a.288.288,0,0,1-.019.107.231.231,0,0,1-.06.088.372.372,0,0,1-.088.06.273.273,0,0,1-.107.019h-1.14a.156.156,0,0,0-.056.023.077.077,0,0,0-.023.056v6.171a.432.432,0,0,1-.019.107.231.231,0,0,1-.061.088.3.3,0,0,1-.088.061.273.273,0,0,1-.107.019h-1.373a.431.431,0,0,1-.107-.019.29.29,0,0,1-.149-.149.273.273,0,0,1-.019-.107v-6.171a.156.156,0,0,0-.023-.056.086.086,0,0,0-.056-.023h-.544a.431.431,0,0,1-.107-.019.291.291,0,0,1-.149-.149.273.273,0,0,1-.019-.107v-1.247a.289.289,0,0,1,.019-.107.232.232,0,0,1,.061-.088.3.3,0,0,1,.088-.061.273.273,0,0,1,.107-.019h.544a.156.156,0,0,0,.056-.023.086.086,0,0,0,.023-.056v-2.378a.429.429,0,0,1,.019-.107.231.231,0,0,1,.06-.088.3.3,0,0,1,.088-.061.273.273,0,0,1,.107-.019Zm0-.116h-1.373a.4.4,0,0,0-.279.116.391.391,0,0,0-.116.279v2.341h-.507a.4.4,0,0,0-.279.116.39.39,0,0,0-.116.279v1.247a.4.4,0,0,0,.116.279.39.39,0,0,0,.279.116h.507v6.133a.4.4,0,0,0,.116.279.391.391,0,0,0,.279.116h1.373a.4.4,0,0,0,.279-.116.39.39,0,0,0,.116-.279v-6.133h1.1a.4.4,0,0,0,.279-.116.391.391,0,0,0,.116-.279v-1.247a.4.4,0,0,0-.116-.279.39.39,0,0,0-.279-.116h-1.1v-2.341a.4.4,0,0,0-.116-.279A.39.39,0,0,0,389.911,202.55Z" transform="translate(-207.038 -108.294)" fill="#1e272c"/>
        <path id="Path_25418" data-name="Path 25418" d="M406.637,213.014H401.02a.082.082,0,0,0-.028,0,.031.031,0,0,0-.023.019c0,.009-.009.014-.014.023v.028a2.5,2.5,0,0,0,.661,1.554,2.03,2.03,0,0,0,1.512.6,1.957,1.957,0,0,0,1.187-.34,4.274,4.274,0,0,0,.912-1.052.3.3,0,0,1,.163-.116.3.3,0,0,1,.2.028l1.149.642a.256.256,0,0,1,.084.074.27.27,0,0,1,.047.1.3.3,0,0,1,0,.112.271.271,0,0,1-.037.1,6.378,6.378,0,0,1-.642.852,4.071,4.071,0,0,1-.9.749,3.662,3.662,0,0,1-1.033.433,5.014,5.014,0,0,1-1.205.135,3.929,3.929,0,0,1-2.992-1.2,4.466,4.466,0,0,1-1.126-3.192,4.577,4.577,0,0,1,1.094-3.192,4.169,4.169,0,0,1,5.826-.037,4.594,4.594,0,0,1,1.061,3.22v.186a.3.3,0,0,1-.084.191.272.272,0,0,1-.191.079Zm-1.7-1.573a1.842,1.842,0,0,0-1.941-1.536,1.96,1.96,0,0,0-.656.107,1.819,1.819,0,0,0-.558.307,1.869,1.869,0,0,0-.433.484,2.078,2.078,0,0,0-.251.558v.028a.04.04,0,0,0,.014.028.047.047,0,0,0,.023.019c.009,0,.019,0,.028,0h3.774Z" transform="translate(-213.294 -111.298)" fill="#1e272c"/>
        <path id="Path_25419" data-name="Path 25419" d="M402.807,208.036a3.745,3.745,0,0,1,2.9,1.168,4.594,4.594,0,0,1,1.061,3.22v.186a.3.3,0,0,1-.084.191.271.271,0,0,1-.191.079H400.88a.082.082,0,0,0-.028,0,.031.031,0,0,0-.023.019c0,.009-.009.014-.014.023v.028a2.5,2.5,0,0,0,.661,1.554,2.03,2.03,0,0,0,1.512.6,1.957,1.957,0,0,0,1.187-.34,4.273,4.273,0,0,0,.912-1.052.254.254,0,0,1,.1-.088.259.259,0,0,1,.13-.033.3.3,0,0,1,.13.033l1.149.642a.256.256,0,0,1,.084.074.27.27,0,0,1,.047.1.3.3,0,0,1,0,.112.272.272,0,0,1-.037.1,6.374,6.374,0,0,1-.642.852,4.071,4.071,0,0,1-.9.749,3.662,3.662,0,0,1-1.033.433,5.013,5.013,0,0,1-1.205.135,3.929,3.929,0,0,1-2.992-1.2,4.466,4.466,0,0,1-1.126-3.192,4.577,4.577,0,0,1,1.094-3.192,3.78,3.78,0,0,1,2.922-1.205Zm-1.8,3.271h3.779a1.842,1.842,0,0,0-1.941-1.536,1.959,1.959,0,0,0-.656.107,1.818,1.818,0,0,0-.558.307,1.869,1.869,0,0,0-.433.484,2.078,2.078,0,0,0-.251.558v.028a.04.04,0,0,0,.014.028.047.047,0,0,0,.023.019c.009,0,.019,0,.028,0Zm1.8-3.388a3.905,3.905,0,0,0-3.011,1.242,4.751,4.751,0,0,0-1.126,3.271,4.657,4.657,0,0,0,1.159,3.276,4.044,4.044,0,0,0,3.076,1.233,5.249,5.249,0,0,0,1.233-.14,3.7,3.7,0,0,0,1.066-.447,4.44,4.44,0,0,0,.921-.772,6.608,6.608,0,0,0,.656-.866.445.445,0,0,0,.056-.149.452.452,0,0,0,0-.158.347.347,0,0,0-.07-.144.365.365,0,0,0-.121-.1l-1.149-.642a.4.4,0,0,0-.284-.037.385.385,0,0,0-.233.163,4.23,4.23,0,0,1-.884,1.024,1.865,1.865,0,0,1-1.117.316,1.928,1.928,0,0,1-1.429-.563,2.377,2.377,0,0,1-.619-1.429h5.566a.4.4,0,0,0,.275-.112.37.37,0,0,0,.116-.27v-.186a4.719,4.719,0,0,0-1.089-3.3,3.874,3.874,0,0,0-2.992-1.21Zm-1.722,3.271a1.95,1.95,0,0,1,.214-.456,1.783,1.783,0,0,1,.4-.451,1.757,1.757,0,0,1,.526-.289,1.877,1.877,0,0,1,.619-.1,1.694,1.694,0,0,1,1.782,1.3Z" transform="translate(-213.149 -111.165)" fill="#1e272c"/>
        <path id="Path_25420" data-name="Path 25420" d="M420.887,219.421h-1.373a.27.27,0,0,1-.275-.275v-10.48a.27.27,0,0,1,.275-.275h1.373a.27.27,0,0,1,.275.275v.451a.069.069,0,0,0,.014.042.063.063,0,0,0,.033.028.066.066,0,0,0,.042,0,.057.057,0,0,0,.037-.019,3.516,3.516,0,0,1,2.452-1.014,3.6,3.6,0,0,1,2.829,1.266,4.556,4.556,0,0,1,1.126,3.169,4.455,4.455,0,0,1-1.117,3.118,3.608,3.608,0,0,1-2.8,1.238,3.534,3.534,0,0,1-2.471-1.028.189.189,0,0,0-.042-.023.158.158,0,0,0-.047,0,.083.083,0,0,0-.037.033.079.079,0,0,0-.014.047v3.164a.27.27,0,0,1-.275.275Zm4.844-6.817a2.842,2.842,0,0,0-.651-1.945,2.1,2.1,0,0,0-.74-.568,2.147,2.147,0,0,0-.917-.191,2.2,2.2,0,0,0-1.717.735,2.784,2.784,0,0,0-.656,1.931,2.816,2.816,0,0,0,.656,1.931,2.164,2.164,0,0,0,1.708.745,2.136,2.136,0,0,0,.912-.186,2.09,2.09,0,0,0,.74-.563,2.74,2.74,0,0,0,.665-1.88Z" transform="translate(-224.147 -111.293)" fill="#1e272c"/>
        <path id="Path_25421" data-name="Path 25421" d="M423.6,208.026a3.6,3.6,0,0,1,2.829,1.266,4.556,4.556,0,0,1,1.126,3.169,4.455,4.455,0,0,1-1.117,3.118,3.608,3.608,0,0,1-2.8,1.238,3.534,3.534,0,0,1-2.471-1.028.086.086,0,0,0-.056-.023.069.069,0,0,0-.033,0c-.009,0-.019.009-.028.019a.1.1,0,0,0-.019.028c0,.009,0,.023,0,.033v3.164a.223.223,0,0,1-.023.107.232.232,0,0,1-.06.088.3.3,0,0,1-.088.06.273.273,0,0,1-.107.019H419.37a.43.43,0,0,1-.107-.019.231.231,0,0,1-.088-.06.3.3,0,0,1-.061-.088.276.276,0,0,1-.023-.107v-10.48a.223.223,0,0,1,.023-.107.231.231,0,0,1,.061-.088.3.3,0,0,1,.088-.061.273.273,0,0,1,.107-.019h1.373a.27.27,0,0,1,.275.275v.451a.082.082,0,0,0,0,.028.039.039,0,0,0,.014.023.081.081,0,0,0,.023.019c.009,0,.019,0,.028,0a.1.1,0,0,0,.051-.019,3.516,3.516,0,0,1,2.452-1.014Zm-.326,7.069a2.069,2.069,0,0,0,.912-.186,2.09,2.09,0,0,0,.74-.563,2.717,2.717,0,0,0,.665-1.88,2.842,2.842,0,0,0-.651-1.945,2.1,2.1,0,0,0-.74-.568,2.147,2.147,0,0,0-.917-.191,2.2,2.2,0,0,0-1.717.735,2.784,2.784,0,0,0-.656,1.931,2.849,2.849,0,0,0,.656,1.931,2.164,2.164,0,0,0,1.708.745Zm.326-7.19a3.624,3.624,0,0,0-2.462.977v-.358a.4.4,0,0,0-.116-.279.391.391,0,0,0-.279-.116h-1.373a.4.4,0,0,0-.279.116.391.391,0,0,0-.116.279V219a.4.4,0,0,0,.116.279.391.391,0,0,0,.279.116h1.373a.4.4,0,0,0,.279-.116.391.391,0,0,0,.116-.279v-3.085a3.638,3.638,0,0,0,2.494,1.01,3.716,3.716,0,0,0,2.89-1.28,4.632,4.632,0,0,0,1.149-3.2,4.755,4.755,0,0,0-1.159-3.248,3.722,3.722,0,0,0-2.918-1.3Zm-.326,7.069a2.021,2.021,0,0,1-1.619-.7,3.044,3.044,0,0,1,0-3.7,2.075,2.075,0,0,1,1.629-.693,2.046,2.046,0,0,1,.866.177,1.939,1.939,0,0,1,.7.54,2.782,2.782,0,0,1,.619,1.871,2.63,2.63,0,0,1-.638,1.8,1.962,1.962,0,0,1-.7.535A2.025,2.025,0,0,1,423.27,214.973Z" transform="translate(-224.003 -111.154)" fill="#1e272c"/>
        <path id="Path_25422" data-name="Path 25422" d="M138.243,218.357l-2.338-7.392h1.9l1.385,4.844,1.274-4.844h1.886l1.232,4.844,1.412-4.844h1.928l-2.373,7.392h-1.879L141.4,213.6l-1.253,4.754Z" transform="translate(-72.662 -112.793)" fill="#231916"/>
        <path id="Path_25423" data-name="Path 25423" d="M163.325,204.924h1.956v1.81h-1.956Zm0,2.811h1.956v7.392h-1.956Z" transform="translate(-87.322 -109.563)" fill="#231916"/>
        <path id="Path_25424" data-name="Path 25424" d="M175.829,207.968v1.559h-1.336v2.979a7.371,7.371,0,0,0,.039,1.054.43.43,0,0,0,.174.247.553.553,0,0,0,.33.1,2.533,2.533,0,0,0,.786-.188l.167,1.517a3.886,3.886,0,0,1-1.545.293,2.452,2.452,0,0,1-.953-.178,1.391,1.391,0,0,1-.623-.459,1.812,1.812,0,0,1-.275-.762,9.54,9.54,0,0,1-.062-1.378v-3.222h-.9v-1.559h.9V206.5l1.962-1.142v2.61Z" transform="translate(-91.763 -109.795)" fill="#231916"/>
        <path id="Path_25425" data-name="Path 25425" d="M187.039,204.924v3.752a2.931,2.931,0,0,1,3.48-.856,1.991,1.991,0,0,1,.818.64,2.32,2.32,0,0,1,.376.863,7.7,7.7,0,0,1,.1,1.469v4.336h-1.956v-3.9a5.79,5.79,0,0,0-.111-1.475.973.973,0,0,0-.393-.5,1.266,1.266,0,0,0-.706-.184,1.622,1.622,0,0,0-.87.236,1.372,1.372,0,0,0-.56.713,4.268,4.268,0,0,0-.177,1.41v3.7h-1.956v-10.2Z" transform="translate(-98.955 -109.563)" fill="#231916"/>
      </g>
    </g>
  </g>
</svg>
