<svg xmlns="http://www.w3.org/2000/svg" xmlns:xlink="http://www.w3.org/1999/xlink" width="160" height="160" viewBox="0 0 160 160">
  <defs>
    <clipPath id="clip-path">
      <rect id="Rectangle_3299" data-name="Rectangle 3299" width="94" height="77.267" transform="translate(0 0)" fill="none"/>
    </clipPath>
  </defs>
  <g id="Group_8560" data-name="Group 8560" transform="translate(-1300 -1034)">
    <rect id="Rectangle_135" data-name="Rectangle 135" width="160" height="160" rx="12" transform="translate(1300 1034)" fill="#f0f4ff"/>
    <g id="Group_8428" data-name="Group 8428" transform="translate(1333 1075)">
      <g id="Group_8427" data-name="Group 8427" clip-path="url(#clip-path)">
        <path id="Path_25922" data-name="Path 25922" d="M71.156,38H47a5.006,5.006,0,0,1-5-5V6a5.006,5.006,0,0,1,5-5H88a5.006,5.006,0,0,1,5,5V33a5.006,5.006,0,0,1-5,5H83.5V49.267Z" fill="#4874ff"/>
        <path id="Path_25923" data-name="Path 25923" d="M88,2a4,4,0,0,1,4,4V33a4,4,0,0,1-4,4H82.5V47L71.543,37H47a4,4,0,0,1-4-4V6a4,4,0,0,1,4-4Zm0-2H47a6.007,6.007,0,0,0-6,6V33a6.007,6.007,0,0,0,6,6H70.768l10.384,9.477L84.5,51.533V39H88a6.007,6.007,0,0,0,6-6V6a6.007,6.007,0,0,0-6-6" fill="#0022e4"/>
        <path id="Path_25924" data-name="Path 25924" d="M48,27H5a4,4,0,0,0-4,4V61a4,4,0,0,0,4,4h5.5V75L21.457,65H48a4,4,0,0,0,4-4V31a4,4,0,0,0-4-4" fill="#fff"/>
        <path id="Path_25925" data-name="Path 25925" d="M48,27H5a4,4,0,0,0-4,4V61a4,4,0,0,0,4,4h5.5V75L21.457,65H48a4,4,0,0,0,4-4V31A4,4,0,0,0,48,27Z" fill="none" stroke="#0022e4" stroke-miterlimit="10" stroke-width="2"/>
        <path id="Path_25926" data-name="Path 25926" d="M35.843,54.408H32.7a1.375,1.375,0,0,1-.853-.246,1.552,1.552,0,0,1-.491-.63l-1.032-3.048H23.675l-1.032,3.048a1.456,1.456,0,0,1-.473.606,1.323,1.323,0,0,1-.846.27H18.156l6.767-17.484h4.153ZM29.4,47.724l-1.62-4.788q-.18-.456-.384-1.074c-.137-.412-.272-.858-.408-1.338q-.18.732-.384,1.356t-.385,1.08l-1.607,4.764Z" fill="#0022e4"/>
        <path id="Path_25927" data-name="Path 25927" d="M71.684,15.694c-.08.2-.2.56-.34.921a5.239,5.239,0,0,1,3.78,4.94c0,2.781-1.54,5.642-6.541,6.382L67,25.436c3.96-.44,5.141-2.42,5.141-4.021a2.575,2.575,0,0,0-1.62-2.4A14.9,14.9,0,0,1,66.5,24.776c.141.48.28.94.441,1.4L64.182,27c-.08-.2-.14-.44-.22-.68a7.161,7.161,0,0,1-2.9.68c-1.541,0-2.862-.92-2.862-3.12,0-2.541,2.041-5.241,4.822-6.581.04-.741.1-1.5.18-2.221h-.32c-1.16,0-2.7-.1-3.681-.14l-.08-2.74a32.577,32.577,0,0,0,3.861.279h.48l.08-.8a9.575,9.575,0,0,0,.06-1.32l3.1.08c-.139.46-.219.82-.3,1.16-.06.26-.121.541-.161.82a31.545,31.545,0,0,0,6.581-.859l.021,2.74a54.788,54.788,0,0,1-6.981.7q-.062.72-.121,1.44a12.56,12.56,0,0,1,2.761-.3h.12a10.679,10.679,0,0,0,.16-1.12Zm-8.322,7.922A29.463,29.463,0,0,1,63,20.195a4.53,4.53,0,0,0-1.98,3.041c0,.54.2.84.78.84a3.572,3.572,0,0,0,1.56-.46m4.481-5.041a9.742,9.742,0,0,0-2.181.36,26.874,26.874,0,0,0,.18,2.7,11.155,11.155,0,0,0,2-3.061" fill="#fff"/>
      </g>
    </g>
  </g>
</svg>
