<svg xmlns="http://www.w3.org/2000/svg" xmlns:xlink="http://www.w3.org/1999/xlink" width="160" height="160" viewBox="0 0 160 160">
  <defs>
    <clipPath id="clip-path">
      <rect id="Rectangle_3298" data-name="Rectangle 3298" width="71.878" height="78.08" transform="translate(0 0)" fill="none"/>
    </clipPath>
  </defs>
  <g id="Group_8558" data-name="Group 8558" transform="translate(-740 -1034)">
    <rect id="Rectangle_133" data-name="Rectangle 133" width="160" height="160" rx="12" transform="translate(740 1034)" fill="#f0f4ff"/>
    <g id="Group_8426" data-name="Group 8426" transform="translate(784 1075)">
      <g id="Group_8425" data-name="Group 8425" clip-path="url(#clip-path)">
        <path id="Path_25918" data-name="Path 25918" d="M35.63,40.244a7.424,7.424,0,0,1-3.686-.979c-7.175-4.12-13.755-11.747-17.21-17.026-4.2-6.418-4.1-13.222.276-17.756A11.434,11.434,0,0,1,23.219,1h.109A12.133,12.133,0,0,1,31.86,4.509a25.791,25.791,0,0,1,2.514,3.033,1.33,1.33,0,0,0,1.1.627,1.408,1.408,0,0,0,1.215-.621A19.9,19.9,0,0,1,39.2,4.515,12.168,12.168,0,0,1,47.749,1a11.493,11.493,0,0,1,8.309,3.482c4.371,4.534,4.476,11.338.275,17.756-1.847,2.823-8.542,12.4-17.136,17.095a7.448,7.448,0,0,1-3.567.91" fill="#fff"/>
        <path id="Path_25919" data-name="Path 25919" d="M23.328,2a11.133,11.133,0,0,1,7.826,3.216A25.007,25.007,0,0,1,33.545,8.1a2.321,2.321,0,0,0,1.931,1.068c.028,0,.056,0,.084,0A2.364,2.364,0,0,0,37.528,8.1,18.832,18.832,0,0,1,39.9,5.23,11.17,11.17,0,0,1,47.751,2h.089a10.445,10.445,0,0,1,7.5,3.175c4.029,4.181,4.09,10.509.158,16.515-1.956,2.99-8.454,12.219-16.778,16.765a6.439,6.439,0,0,1-6.275-.059C25.9,34.642,19.462,27.636,15.571,21.691c-3.931-6.006-3.87-12.334.158-16.515A10.447,10.447,0,0,1,23.228,2h.1m0-2h-.071A12.461,12.461,0,0,0,14.29,3.788c-4.712,4.889-4.862,12.169-.392,19,3.683,5.63,10.228,13.143,17.549,17.345a8.441,8.441,0,0,0,8.23.081c8.794-4.8,15.613-14.552,17.493-17.426,4.47-6.829,4.32-14.109-.392-19A12.428,12.428,0,0,0,47.859,0h-.108a13.184,13.184,0,0,0-9.266,3.816A20.6,20.6,0,0,0,35.853,7a.365.365,0,0,1-.307.167h-.059a.357.357,0,0,1-.282-.184A27.248,27.248,0,0,0,32.569,3.8,13.15,13.15,0,0,0,23.328,0" fill="#0022e4"/>
        <path id="Path_25920" data-name="Path 25920" d="M3.216,47.469.979,66.647,25.95,76.7H39.1l12.837-7.578,19.486-18.4-1.706-2.882-4-1L57.346,51.8,47.6,55.047l-2.165-2.165-9.9-.525L25.776,51.1,22.7,48.552l-4.331-2.166h-8.8Z" fill="#4874ff"/>
        <path id="Path_25921" data-name="Path 25921" d="M31.594,78.08a17.117,17.117,0,0,1-4.947-.548c-1.006-.34-2.118-.695-3.29-1.069l-.273-.087C19.718,75.3,15.9,74.083,12.72,72.692,9.386,71.234,2.507,69,.98,69a.977.977,0,1,1,0-1.953c2.305,0,9.829,2.678,12.522,3.856,3.107,1.357,6.863,2.554,10.176,3.611l.108.034c1.319.421,2.457.785,3.484,1.133a14.4,14.4,0,0,0,4.194.456c3.955,0,9.334-.752,11.49-2.01,8.057-4.709,21.812-17.862,25.995-22.1,1.008-1.022,1.249-2.019.679-2.805a3.384,3.384,0,0,0-2.695-1.1,6.14,6.14,0,0,0-2.743.693c-.605.3-1.315.667-2.1,1.074l-.252.13a92.184,92.184,0,0,1-12.028,5.5l-.179.087-.181.21-.045.062.007.076c.222,2.2-.956,3.886-3.6,5.154-3.784,1.815-9.128,2.031-14.3,2.241-1.1.044-2.17.088-3.21.148a1,1,0,0,1-1.03-.924.983.983,0,0,1,.924-1.029c1.016-.055,2.071-.1,3.137-.142,5.025-.205,10.216-.418,13.628-2.055,1.766-.846,2.629-1.859,2.5-2.931a3.017,3.017,0,0,0-.369-.835s-.21-.419-.228-.46a3.806,3.806,0,0,0-1.869-1.447c-1.469-.162-4.329-.291-7.094-.416-5.721-.26-9.274-.444-10.376-.818a15.255,15.255,0,0,1-3.264-2c-1.672-1.188-3.748-2.664-5.276-3.012a22.949,22.949,0,0,0-4.487-.346c-3.191,0-7.432.377-9.767,1.435a.967.967,0,0,1-.4.088.978.978,0,0,1-.4-1.869c2.225-1.007,6.149-1.608,10.5-1.608a25.125,25.125,0,0,1,4.993.4c1.913.432,4.062,1.96,5.957,3.308A16.6,16.6,0,0,0,28.145,50.6c.967.314,6.049.545,9.76.713,2.96.134,5.756.259,7.265.425a5.294,5.294,0,0,1,3,1.864l.175.143.186.068.058.015.056-.017a83.513,83.513,0,0,0,12.249-5.5l.261-.135c.864-.447,1.564-.809,2.166-1.108a8.111,8.111,0,0,1,3.626-.909,5.19,5.19,0,0,1,4.262,1.918c.9,1.238,1.14,3.288-.872,5.323-4.231,4.286-18.166,17.6-26.4,22.412C41.392,77.3,35.8,78.08,31.594,78.08" fill="#0022e4"/>
      </g>
    </g>
  </g>
</svg>
