<svg xmlns="http://www.w3.org/2000/svg" xmlns:xlink="http://www.w3.org/1999/xlink" width="24" height="24" viewBox="0 0 24 24">
  <defs>
    <clipPath id="clip-path">
      <rect width="24" height="24" fill="none"/>
    </clipPath>
  </defs>
  <g id="Repeat_Grid_1" data-name="Repeat Grid 1" clip-path="url(#clip-path)">
    <g id="Group_269" data-name="Group 269">
      <g id="Group_268" data-name="Group 268" transform="translate(0 0)" clip-path="url(#clip-path)">
        <path id="Path_620" data-name="Path 620" d="M6.326,8.238c-.226.226-.31.921.011,1.966a11.725,11.725,0,0,0,2.938,4.522A11.724,11.724,0,0,0,13.8,17.663c1.044.321,1.74.237,1.966.011l1.53-1.53A2.071,2.071,0,0,1,20.4,15.8l2.162,1.376q2.634,1.675.426,3.88L21.66,22.392C18.4,25.65,11.273,23.8,5.736,18.264S-1.65,5.6,1.607,2.34L2.94,1.007q2.207-2.207,3.88.426L8.2,3.6a2.071,2.071,0,0,1-.342,3.113Z" transform="translate(0 0)" fill="#353535"/>
      </g>
    </g>
  </g>
</svg>
