<svg xmlns="http://www.w3.org/2000/svg" width="288" height="263" viewBox="0 0 288 263">
  <g id="Group_8557" data-name="Group 8557" transform="translate(-444 -4743)">
    <rect id="Rectangle_3260" data-name="Rectangle 3260" width="288" height="263" rx="12" transform="translate(444 4743)" fill="#f7f7f7"/>
    <g id="lqp_logo" transform="translate(195.413 4575.852)">
      <path id="Path_25941" data-name="Path 25941" d="M313.6,260.936V343.31s-.1.944.21,1.178c.274.207.668.249,1.671.336,1.72.146,65.29,6.014,65.29,6.014V266.124l-8.295-.746V245.36a1.2,1.2,0,0,0-.4-.9,1.156,1.156,0,0,0-1.1-.268l-55.582,14.186s-1.2.207-1.519.626a2.778,2.778,0,0,0-.267,1.5Z" transform="translate(0 0)" fill="#1a1311"/>
      <g id="Group_8456" data-name="Group 8456" transform="translate(314.824 251.38)">
        <g id="Group_8433" data-name="Group 8433" transform="translate(70.848 15.346)">
          <path id="Path_25942" data-name="Path 25942" d="M457.792,308.562a1.5,1.5,0,0,1-.156-.008l-13.145-1.121a1.559,1.559,0,0,1-1.5-1.634,1.454,1.454,0,0,1,1.5-1.544,1.4,1.4,0,0,1,.173.007c.164.014.315.02.452.02a1.961,1.961,0,0,0,.558-.059,1.373,1.373,0,0,0,.034-.329V288.614c0-.248,0-.66-1.276-.769a1.558,1.558,0,0,1-1.5-1.633,1.456,1.456,0,0,1,1.5-1.543,1.568,1.568,0,0,1,.172.009l6.465.55a1.555,1.555,0,0,1,1.5,1.633A1.52,1.52,0,0,1,450.9,288.4c-.183-.014-.356-.024-.509-.024a1.748,1.748,0,0,0-.679.09,1.058,1.058,0,0,0-.037.319V304.06a2.82,2.82,0,0,0,.037.533,5.17,5.17,0,0,0,1.208.2l2.683.228c1.635.138,3.044-.886,4.312-3.154A1.507,1.507,0,0,1,460,301.25a1.562,1.562,0,0,1,.8,2l-1.607,4.374a1.5,1.5,0,0,1-1.4.928Z" transform="translate(-442.928 -284.667)" fill="#1a1311"/>
        </g>
        <g id="Group_8434" data-name="Group 8434" transform="translate(70.831 77.234)">
          <path id="Path_25943" data-name="Path 25943" d="M451.1,419.023h-.175l-6.53-.557a1.559,1.559,0,0,1-1.5-1.634,1.456,1.456,0,0,1,1.5-1.543,1.43,1.43,0,0,1,.174.007c.146.013.287.02.417.02.837,0,.837-.2.837-.37V399.635c0-.208,0-.63-1.365-.75a1.554,1.554,0,0,1-1.5-1.63,1.453,1.453,0,0,1,1.5-1.544,1.4,1.4,0,0,1,.173.007l9.15.78a8.015,8.015,0,0,1,4.487,1.844,6.135,6.135,0,0,1,2.471,4.987,5.678,5.678,0,0,1-2.137,4.749,7.092,7.092,0,0,1-5.105,1.342l-3.786-.324v6.009c0,.189,0,.634,1.4.752a1.555,1.555,0,0,1,1.5,1.631,1.451,1.451,0,0,1-1.5,1.543Zm-1.4-13.114,3.745.321c.109.008.22.013.325.013h0a2.539,2.539,0,0,0,1.837-.712,3.225,3.225,0,0,0,.86-2.465,3.139,3.139,0,0,0-1.036-2.35,3.429,3.429,0,0,0-2.219-1.09l-2.44-.209c-.435-.037-.79-.058-1.06-.058-.006.109-.011.247-.011.424Z" transform="translate(-442.898 -395.71)" fill="#1a1311"/>
        </g>
        <path id="Path_25944" data-name="Path 25944" d="M416.452,377.046c-1.187,1.01-2.5,2.339-3.878,3.723-5.868,5.87-13.9,13.906-28.065,13.906h-.075c-5.069-.011-9.338-2.381-12.9-7.194l2.106-1.971c2.84,3.942,6.357,6.336,10.8,6.344h.071c13,0,20.244-7.252,26.071-13.082,1.343-1.342,2.671-2.67,3.881-3.721,0,0,.541.653,1.069,1.187a8.23,8.23,0,0,0,.919.807Z" transform="translate(-340.474 -309.33)" fill="#0092e5"/>
        <g id="Group_8441" data-name="Group 8441" transform="translate(90.553 16.21)">
          <g id="Group_8435" data-name="Group 8435" transform="translate(0 9.73)">
            <path id="Path_25945" data-name="Path 25945" d="M481.119,316.277a3.292,3.292,0,0,1-1.453-.318,2.375,2.375,0,0,1-1.371-2.312c0-1.425.974-2.776,2.9-4.037a18.7,18.7,0,0,1,3.368-1.662v-.831a1.461,1.461,0,0,0-.323-.972.809.809,0,0,0-.9-.325,2.306,2.306,0,0,0-1.134.461c-.208.172-.319.334-.319.454a2.034,2.034,0,0,1-.489,1.4,1.931,1.931,0,0,1-1.15.655,1.387,1.387,0,0,1-1.095-.28,1.5,1.5,0,0,1-.532-1.27,2.917,2.917,0,0,1,1.592-2.32,7.069,7.069,0,0,1,2.757-1.1c.215-.036.43-.063.643-.08.189-.015.356-.023.531-.023a2.752,2.752,0,0,1,3.1,2.991l.012,5.706a2.658,2.658,0,0,0,.045.513.6.6,0,0,1,.051-.034,1.06,1.06,0,0,1,.627-.223.9.9,0,0,1,.78.463.95.95,0,0,1-.271,1.369,3.724,3.724,0,0,1-1.764.87,1.869,1.869,0,0,1-.99-.076,1.614,1.614,0,0,1-.8-.676,6.613,6.613,0,0,1-3.106,1.6,4.391,4.391,0,0,1-.712.061Zm3.45-6.13a11.845,11.845,0,0,0-1.963,1.158c-.968.725-1.46,1.4-1.46,2.018,0,.389.094.559.633.559h0a2.555,2.555,0,0,0,.262-.013,4.47,4.47,0,0,0,2.531-1.662v-2.055Z" transform="translate(-478.29 -303.69)" fill="#1a1311"/>
          </g>
          <g id="Group_8436" data-name="Group 8436" transform="translate(10.509 2.979)">
            <path id="Path_25946" data-name="Path 25946" d="M499.841,309.15h-.059a.934.934,0,0,1-.9-.965l-.026-13a3.319,3.319,0,0,0-.036-.562,4.786,4.786,0,0,0-.573.064.881.881,0,0,1-1.092-.831,1.05,1.05,0,0,1,.619-1.1l2.287-1.091a.98.98,0,0,1,.915.025.92.92,0,0,1,.5.845l.009,4.98a5.115,5.115,0,0,1,2.493-1.13,3.722,3.722,0,0,1,3.732,1.394,6.1,6.1,0,0,1,1.216,3.892,8.04,8.04,0,0,1-1.218,4.564,4.986,4.986,0,0,1-3.452,2.249,4.106,4.106,0,0,1-3.119-.684l-.3.681a1.077,1.077,0,0,1-.991.682Zm4.376-10.52a2.128,2.128,0,0,0-.374.032,3.073,3.073,0,0,0-2.354,2.512l.009,3.8c0,.119,0,.468.684.921a2.137,2.137,0,0,0,1.607.356,2.316,2.316,0,0,0,1.555-1.265,5.317,5.317,0,0,0,.727-2.776,6.432,6.432,0,0,0-.419-2.5,1.478,1.478,0,0,0-1.433-1.079Z" transform="translate(-497.141 -291.555)" fill="#1a1311"/>
          </g>
          <g id="Group_8437" data-name="Group 8437" transform="translate(23.762 5.738)">
            <path id="Path_25947" data-name="Path 25947" d="M525.48,308.944a4.037,4.037,0,0,1-3.054-1.355,5.773,5.773,0,0,1-1.5-4.069,7.518,7.518,0,0,1,1.444-4.476A5.652,5.652,0,0,1,526.1,296.6a4.135,4.135,0,0,1,3.939,1.354,5.8,5.8,0,0,1,1.448,4.023,7.513,7.513,0,0,1-1.337,4.311,5.673,5.673,0,0,1-3.837,2.588,5.053,5.053,0,0,1-.831.069Zm1.187-10.343a2.354,2.354,0,0,0-.372.031,2.5,2.5,0,0,0-1.817,1.345,6.513,6.513,0,0,0-.72,3.268,5.094,5.094,0,0,0,.7,2.935,1.544,1.544,0,0,0,1.662.661,2.511,2.511,0,0,0,1.833-1.388,6.479,6.479,0,0,0,.679-3.2,5.2,5.2,0,0,0-.7-2.962,1.456,1.456,0,0,0-1.273-.69Z" transform="translate(-520.924 -296.519)" fill="#1a1311"/>
          </g>
          <g id="Group_8438" data-name="Group 8438" transform="translate(35.573 3.638)">
            <path id="Path_25948" data-name="Path 25948" d="M543.055,305.581a.927.927,0,0,1-.7-.277.95.95,0,0,1-.237-.737,1.052,1.052,0,0,1,.93-1.035l.366-.06c.519-.084.519-.284.519-.461l-.012-6.121c0-.148-.007-.262-.014-.343-.135.012-.338.033-.641.082a1.407,1.407,0,0,1-.2.019.887.887,0,0,1-.912-.818,1.02,1.02,0,0,1,.628-1.138l2.394-1.132a.99.99,0,0,1,.937.029.94.94,0,0,1,.475.819v.284a5.376,5.376,0,0,1,2.951-1.92,1.694,1.694,0,0,1,1.261.254,1.333,1.333,0,0,1,.62,1.14,1.709,1.709,0,0,1-.467,1.2,1.737,1.737,0,0,1-1.014.581,1.98,1.98,0,0,1-1.02-.154,1.093,1.093,0,0,0-.366-.1.665.665,0,0,0-.281.167,7.918,7.918,0,0,0-1.679,2.157l.009,4.767a1.325,1.325,0,0,0,.411.049,4.666,4.666,0,0,0,.727-.071.886.886,0,0,1,1.121.95,1.051,1.051,0,0,1-.927,1.091l-4.868.786Z" transform="translate(-542.114 -292.741)" fill="#1a1311"/>
          </g>
          <g id="Group_8439" data-name="Group 8439" transform="translate(46.898 0)">
            <path id="Path_25949" data-name="Path 25949" d="M563.611,293.554a.892.892,0,0,1-.755-.429.974.974,0,0,1,.237-1.354,3.317,3.317,0,0,0,1.126-1.263,1.74,1.74,0,0,1-1.126-.418,1.827,1.827,0,0,1-.66-1.447,2.409,2.409,0,0,1,1.983-2.345,1.692,1.692,0,0,1,2.094,1.226l.036.087a3.867,3.867,0,0,1,.166,1.164,5.5,5.5,0,0,1-2.375,4.475l-.074.065a1.055,1.055,0,0,1-.643.237Z" transform="translate(-562.433 -286.237)" fill="#1a1311"/>
          </g>
          <g id="Group_8440" data-name="Group 8440" transform="translate(53.223 0.975)">
            <path id="Path_25950" data-name="Path 25950" d="M575.757,300.643a.93.93,0,0,1-.873-.6l-1.018-2.53a1.035,1.035,0,0,1,.475-1.316.94.94,0,0,1,1.362.272,4.111,4.111,0,0,0,1.479,1.393l.61.264a2.78,2.78,0,0,0,1.355.049,1.941,1.941,0,0,0,.831-.427,1.325,1.325,0,0,0,.54-1.069.728.728,0,0,0-.438-.733,6.1,6.1,0,0,0-1.893-.38,8.387,8.387,0,0,1-2.673-.623,2.686,2.686,0,0,1-1.494-2.562,3.89,3.89,0,0,1,1.174-2.837,4.021,4.021,0,0,1,2.211-1.187,5.088,5.088,0,0,1,2.183.153,1.039,1.039,0,0,1,.784-.526.916.916,0,0,1,.217-.023.889.889,0,0,1,.831.55l1.061,2.3a1.045,1.045,0,0,1-.4,1.316.95.95,0,0,1-1.4-.2,3.6,3.6,0,0,0-2.043-1.511,1.959,1.959,0,0,0-.874-.056,1.452,1.452,0,0,0-1.324,1.484.482.482,0,0,0,.347.579,6.871,6.871,0,0,0,1.938.363,8.346,8.346,0,0,1,2.709.594,2.777,2.777,0,0,1,1.6,2.663,4.011,4.011,0,0,1-1.024,2.7,4.32,4.32,0,0,1-2.558,1.456,5.249,5.249,0,0,1-2.676-.214,1.152,1.152,0,0,1-.788.644,1.112,1.112,0,0,1-.223.024Z" transform="translate(-573.787 -287.96)" fill="#1a1311"/>
          </g>
        </g>
        <g id="Group_8448" data-name="Group 8448" transform="translate(95.485 45.948)">
          <g id="Group_8442" data-name="Group 8442" transform="translate(0 9.493)">
            <path id="Path_25951" data-name="Path 25951" d="M491.627,369.525a3.13,3.13,0,0,1-1.49-.356,3.38,3.38,0,0,1-1.552-3.263V360.52l-.328.053a.892.892,0,0,1-1.114-.831,1.053,1.053,0,0,1,.679-1.147l2-.831a1,1,0,0,1,.894.051.94.94,0,0,1,.475.841v6.649c0,1.937.719,1.937.991,1.937a2.269,2.269,0,0,0,.283-.021,4.148,4.148,0,0,0,1.868-1.09l.883-.876v-5.58a1.4,1.4,0,0,0-.015-.227c-.1.012-.237.03-.459.076l-.273.043a.9.9,0,0,1-1.115-.831,1.068,1.068,0,0,1,.712-1.155l2.406-.9a1,1,0,0,1,.885.072.943.943,0,0,1,.439.831v8.529a1.08,1.08,0,0,0,.119.007h0a2.591,2.591,0,0,0,.414-.038,1.174,1.174,0,0,1,.209-.017.888.888,0,0,1,.911.963,1.047,1.047,0,0,1-.927,1.085l-2.189.356a.908.908,0,0,1-.9-.281.833.833,0,0,1-.14-.223,6.489,6.489,0,0,1-2.991,1.5,4.329,4.329,0,0,1-.678.059Z" transform="translate(-487.132 -356.607)" fill="#1a1311"/>
          </g>
          <g id="Group_8443" data-name="Group 8443" transform="translate(13.669 7.851)">
            <path id="Path_25952" data-name="Path 25952" d="M514.5,366.261a3.325,3.325,0,0,1-1.46-.319,2.382,2.382,0,0,1-1.365-2.316c0-1.418.978-2.774,2.912-4.03a18.906,18.906,0,0,1,3.368-1.656v-.831a1.445,1.445,0,0,0-.323-.972.8.8,0,0,0-.893-.328,2.336,2.336,0,0,0-1.134.456c-.207.173-.322.335-.322.455a2.034,2.034,0,0,1-.49,1.4,1.942,1.942,0,0,1-1.151.655,1.382,1.382,0,0,1-1.094-.285,1.5,1.5,0,0,1-.528-1.272,2.918,2.918,0,0,1,1.595-2.314,7.054,7.054,0,0,1,2.764-1.1c.211-.036.426-.061.639-.081.183-.014.356-.02.52-.02a2.756,2.756,0,0,1,3.112,3v5.709a2.3,2.3,0,0,0,.044.51c.013-.008.029-.02.047-.031a1.056,1.056,0,0,1,.627-.221.9.9,0,0,1,.781.463.95.95,0,0,1-.275,1.37,3.749,3.749,0,0,1-1.763.866,1.871,1.871,0,0,1-.993-.078,1.608,1.608,0,0,1-.8-.677,6.613,6.613,0,0,1-3.111,1.6,4.438,4.438,0,0,1-.712.057Zm3.456-6.122a11.675,11.675,0,0,0-1.964,1.153c-.972.722-1.468,1.4-1.468,2.018,0,.387.094.559.636.559a2.085,2.085,0,0,0,.259-.014,4.464,4.464,0,0,0,2.536-1.662v-2.054Z" transform="translate(-511.665 -353.679)" fill="#1a1311"/>
          </g>
          <g id="Group_8444" data-name="Group 8444" transform="translate(25.592 0.948)">
            <path id="Path_25953" data-name="Path 25953" d="M534,358.83a.918.918,0,0,1-.7-.281.942.942,0,0,1-.237-.739,1.047,1.047,0,0,1,.931-1.032c.328-.053.5-.164.5-.615V344.84c0-.306-.012-.493-.021-.6a2.146,2.146,0,0,0-.285.031.9.9,0,0,1-1.11-.793,1.084,1.084,0,0,1,.649-1.173l2.032-.931a.976.976,0,0,1,.938.046.936.936,0,0,1,.446.813v13.763a1.194,1.194,0,0,0,.018.23,1.975,1.975,0,0,0,.449-.032.887.887,0,0,1,1.12.95,1.049,1.049,0,0,1-.932,1.089l-3.791.6Z" transform="translate(-533.055 -341.272)" fill="#1a1311"/>
          </g>
          <g id="Group_8445" data-name="Group 8445" transform="translate(32.379 0)">
            <path id="Path_25954" data-name="Path 25954" d="M546.178,356.954a.926.926,0,0,1-.7-.278.957.957,0,0,1-.238-.741,1.044,1.044,0,0,1,.929-1.028c.5-.083.5-.283.5-.458v-6.1c0-.273-.009-.46-.02-.584-.094.007-.188.019-.291.034a.9.9,0,0,1-1.109-.765,1.09,1.09,0,0,1,.647-1.178l2.033-.93a.985.985,0,0,1,.914.019.933.933,0,0,1,.475.839v8.54c-.026,0,.012.021.156.021h0a1.9,1.9,0,0,0,.315-.029.887.887,0,0,1,1.12.95,1.047,1.047,0,0,1-.933,1.088l-3.791.6Zm1.561-13.911a1.489,1.489,0,0,1-.988-.365,1.534,1.534,0,0,1-.524-1.187,1.957,1.957,0,0,1,1.622-1.89,1.534,1.534,0,0,1,1.809,1.523,1.856,1.856,0,0,1-.475,1.232,1.885,1.885,0,0,1-1.147.658,1.847,1.847,0,0,1-.3.026Z" transform="translate(-545.235 -339.576)" fill="#1a1311"/>
          </g>
          <g id="Group_8446" data-name="Group 8446" transform="translate(38.824 1.159)">
            <path id="Path_25955" data-name="Path 25955" d="M560.547,356.734a2.486,2.486,0,0,1-.335-.023c-.712-.1-1.874-.555-1.874-2.5V347.47l-.42.064a.887.887,0,0,1-1.115-.831,1.069,1.069,0,0,1,.727-1.142,1.709,1.709,0,0,0,.62-.531,3.388,3.388,0,0,0,.7-2.246,1.069,1.069,0,0,1,.93-1.111,1.145,1.145,0,0,1,.2-.018.9.9,0,0,1,.914.987v2.346l2.219-.356a1.436,1.436,0,0,1,.209-.017.888.888,0,0,1,.909.964,1.049,1.049,0,0,1-.927,1.089l-2.409.389v6.174c0,.772.145,1.164.433,1.164a.68.68,0,0,0,.128-.014,2.174,2.174,0,0,0,.831-.356,2.12,2.12,0,0,0,.571-.475,1,1,0,0,1,.874-.532,1.134,1.134,0,0,1,.462.107.987.987,0,0,1,.528.6,1.041,1.041,0,0,1-.16.839,4.324,4.324,0,0,1-1.456,1.329,5.479,5.479,0,0,1-2.009.8,3.406,3.406,0,0,1-.546.048Z" transform="translate(-556.796 -341.654)" fill="#1a1311"/>
          </g>
          <g id="Group_8447" data-name="Group 8447" transform="translate(48.145 1.796)">
            <path id="Path_25956" data-name="Path 25956" d="M576.151,358.832a1.814,1.814,0,0,1-1.135-.363,1.338,1.338,0,0,1-.594-1.117,1.51,1.51,0,0,1,1.367-1.6,2.276,2.276,0,0,1,1.218.266,1.73,1.73,0,0,0,.553.182c-.017,0,.4-.18,1.053-2.125l-3.374-7.116a2.7,2.7,0,0,0-.274-.5.941.941,0,0,1-.1,0,1.75,1.75,0,0,0-.222.019.9.9,0,0,1-.9-.279.982.982,0,0,1-.224-.665,1.051,1.051,0,0,1,.932-1.088l3.706-.6a.886.886,0,0,1,1.12.95,1.052,1.052,0,0,1-.931,1.088,4.269,4.269,0,0,0-.575.128l2.117,4.547,1.77-4.855a3.541,3.541,0,0,0,.107-.366,3.977,3.977,0,0,0-.541.055,1.234,1.234,0,0,1-.208.019.888.888,0,0,1-.911-.964,1.047,1.047,0,0,1,.93-1.086l3.428-.558a1.132,1.132,0,0,1,.209-.017.889.889,0,0,1,.911.964,1.047,1.047,0,0,1-.927,1.085l-.119.02a.618.618,0,0,0-.356.148,3.973,3.973,0,0,0-.605,1.283c-2.822,8.156-3.468,9.629-3.71,10.027a7.416,7.416,0,0,1-1.012,1.369,4.093,4.093,0,0,1-2.249,1.12,2.8,2.8,0,0,1-.451.038Z" transform="translate(-573.523 -342.784)" fill="#1a1311"/>
          </g>
        </g>
        <g id="Group_8455" data-name="Group 8455" transform="translate(88.409 79.049)">
          <g id="Group_8449" data-name="Group 8449" transform="translate(0 9.422)">
            <path id="Path_25957" data-name="Path 25957" d="M475.371,428.661a.92.92,0,0,1-.691-.273.968.968,0,0,1-.237-.741,1.04,1.04,0,0,1,.917-1.033l.356-.057c.487-.08.487-.272.487-.454V419.98a3.343,3.343,0,0,0-.014-.344c-.126.008-.318.031-.594.077a.881.881,0,0,1-1.1-.807,1.018,1.018,0,0,1,.614-1.13l2.319-1.114a.963.963,0,0,1,.94.038.933.933,0,0,1,.456.818v.247a5.116,5.116,0,0,1,2.839-1.86,1.627,1.627,0,0,1,1.243.267,1.345,1.345,0,0,1,.594,1.138,1.72,1.72,0,0,1-.45,1.187,1.67,1.67,0,0,1-1,.582,1.868,1.868,0,0,1-1.008-.165,1,1,0,0,0-.342-.1.629.629,0,0,0-.251.157,7.816,7.816,0,0,0-1.628,2.144v4.778a1.219,1.219,0,0,0,.4.049,4.377,4.377,0,0,0,.679-.064,1.315,1.315,0,0,1,.2-.015.885.885,0,0,1,.9.965,1.04,1.04,0,0,1-.915,1.084l-4.713.752Z" transform="translate(-474.438 -415.875)" fill="#1a1311"/>
          </g>
          <g id="Group_8450" data-name="Group 8450" transform="translate(8.769 8.146)">
            <path id="Path_25958" data-name="Path 25958" d="M494.623,426.007a3.9,3.9,0,0,1-3.006-1.386,5.922,5.922,0,0,1-1.438-4.07,7.662,7.662,0,0,1,1.408-4.462,5.431,5.431,0,0,1,3.627-2.424,3.975,3.975,0,0,1,3.833,1.389,5.936,5.936,0,0,1,1.39,4.023,7.631,7.631,0,0,1-1.306,4.3,5.462,5.462,0,0,1-3.733,2.567,4.731,4.731,0,0,1-.778.068Zm1.121-10.337a2.184,2.184,0,0,0-.343.028,2.394,2.394,0,0,0-1.741,1.32,6.723,6.723,0,0,0-.712,3.271,5.259,5.259,0,0,0,.68,2.948,1.457,1.457,0,0,0,1.58.665,2.389,2.389,0,0,0,1.757-1.364,6.669,6.669,0,0,0,.664-3.206,5.4,5.4,0,0,0-.667-2.975,1.387,1.387,0,0,0-1.224-.695Z" transform="translate(-490.175 -413.592)" fill="#1a1311"/>
          </g>
          <g id="Group_8451" data-name="Group 8451" transform="translate(19.079 5.628)">
            <path id="Path_25959" data-name="Path 25959" d="M511.953,425.473a4.774,4.774,0,0,1-2.3-.448,1.781,1.781,0,0,1-.975-1.634,3,3,0,0,1,1.508-2.325,1.61,1.61,0,0,1-.616-1.317,2.519,2.519,0,0,1,1.01-1.838,3.588,3.588,0,0,1-1.146-2.813,4.822,4.822,0,0,1,1.407-3.365,5.5,5.5,0,0,1,2.6-1.6,4.056,4.056,0,0,1,2.933.317c.224-.214.392-.373.508-.475a4.009,4.009,0,0,1,1.291-.785,1.513,1.513,0,0,1,1.812.519,1.4,1.4,0,0,1,.307.9,1.836,1.836,0,0,1-.3.994,1.529,1.529,0,0,1-.788.666,1.5,1.5,0,0,1-1.048-.024,3.762,3.762,0,0,1,.356,1.643,4.692,4.692,0,0,1-1.435,3.33,5.308,5.308,0,0,1-3.021,1.642,4.523,4.523,0,0,1-1.432.013.181.181,0,0,0-.04.033,13.229,13.229,0,0,0,1.815,0,12.457,12.457,0,0,1,3.125.108,2.2,2.2,0,0,1,1.923,2.221,3.206,3.206,0,0,1-1.425,2.547,8.286,8.286,0,0,1-3.805,1.495c-.463.074-.772.119-.928.128-.465.044-.92.069-1.326.069Zm1.631-3.955c-.216.1-.509.226-.877.392-1.146.566-1.457,1-1.457,1.164,0,.293.725.324,1.035.324a7.664,7.664,0,0,0,.785-.045c.342-.026.646-.062.926-.1,1.3-.21,2.85-.655,2.85-1.574,0-.095-.269-.18-.527-.22a14.724,14.724,0,0,0-2.383.045l-.348.018Zm.692-9.456H514.2a1.981,1.981,0,0,0-.218.015,1.891,1.891,0,0,0-1.129.748,3.1,3.1,0,0,0-.649,2.011c0,2.008.88,2.008,1.306,2.008h0c.049,0,.1-.006.146-.006a1.444,1.444,0,0,0,.211-.014,1.993,1.993,0,0,0,1.344-.839,3.014,3.014,0,0,0,.544-1.844,2.473,2.473,0,0,0-.469-1.593,1.218,1.218,0,0,0-1.006-.487Z" transform="translate(-508.673 -409.072)" fill="#1a1311"/>
          </g>
          <g id="Group_8452" data-name="Group 8452" transform="translate(31.523 4.303)">
            <path id="Path_25960" data-name="Path 25960" d="M531.932,419.483a.918.918,0,0,1-.69-.274.972.972,0,0,1-.237-.746,1.041,1.041,0,0,1,.914-1.031l.356-.058c.488-.078.488-.268.488-.452V410.8c0-.148-.008-.264-.011-.348-.131.009-.319.032-.6.077a.876.876,0,0,1-1.1-.809,1.025,1.025,0,0,1,.613-1.129l2.32-1.113a.962.962,0,0,1,.936.033.95.95,0,0,1,.459.818v.253a5.119,5.119,0,0,1,2.839-1.864,1.633,1.633,0,0,1,1.243.266,1.349,1.349,0,0,1,.594,1.141,1.814,1.814,0,0,1-1.45,1.77,1.915,1.915,0,0,1-1.007-.166.973.973,0,0,0-.341-.1.587.587,0,0,0-.25.154,7.859,7.859,0,0,0-1.629,2.144v4.774a1.069,1.069,0,0,0,.4.052,4.191,4.191,0,0,0,.678-.065,1.29,1.29,0,0,1,.2-.013.883.883,0,0,1,.9.964,1.041,1.041,0,0,1-.918,1.085l-4.713.753Z" transform="translate(-530.999 -406.692)" fill="#1a1311"/>
          </g>
          <g id="Group_8453" data-name="Group 8453" transform="translate(41.069 2.983)">
            <path id="Path_25961" data-name="Path 25961" d="M550.913,416.906a3.142,3.142,0,0,1-1.449-.331,2.4,2.4,0,0,1-1.324-2.316c0-1.416.95-2.765,2.821-4.012a18.258,18.258,0,0,1,3.257-1.638v-.837a1.5,1.5,0,0,0-.317-.983.753.753,0,0,0-.838-.326,2.172,2.172,0,0,0-1.083.445c-.119.1-.307.291-.307.458a2.087,2.087,0,0,1-.475,1.39,1.875,1.875,0,0,1-1.132.655,1.333,1.333,0,0,1-1.083-.3,1.515,1.515,0,0,1-.511-1.263,2.911,2.911,0,0,1,1.544-2.308,6.682,6.682,0,0,1,2.683-1.088c.208-.033.419-.059.628-.076.165-.012.323-.019.475-.019a2.731,2.731,0,0,1,3.059,3.012v5.706a2.372,2.372,0,0,0,.039.5.039.039,0,0,1,.012-.008,1.052,1.052,0,0,1,.623-.224.892.892,0,0,1,.776.475.966.966,0,0,1-.267,1.356,3.55,3.55,0,0,1-1.725.864,1.859,1.859,0,0,1-.977-.084,1.606,1.606,0,0,1-.767-.665,6.292,6.292,0,0,1-3,1.567,4.515,4.515,0,0,1-.668.053Zm3.305-6.092a11.288,11.288,0,0,0-1.864,1.126c-.938.712-1.415,1.394-1.415,2.01,0,.4.084.565.607.565a1.785,1.785,0,0,0,.237-.014,4.267,4.267,0,0,0,2.435-1.634Z" transform="translate(-548.135 -404.339)" fill="#1a1311"/>
          </g>
          <g id="Group_8454" data-name="Group 8454" transform="translate(51.705 0)">
            <path id="Path_25962" data-name="Path 25962" d="M568.078,412.8a.838.838,0,0,1-.628-.266.969.969,0,0,1-.218-.785,1.035,1.035,0,0,1,.914-1.01c.356-.056.43-.15.437-.157a1.756,1.756,0,0,0,.025-.338v-6.029c0-.3-.01-.492-.021-.606a2.086,2.086,0,0,0-.254.028.885.885,0,0,1-1.1-.831,1.069,1.069,0,0,1,.635-1.134l1.969-.919a.961.961,0,0,1,.917.023.928.928,0,0,1,.424.574c.1-.087.214-.176.327-.264a4.868,4.868,0,0,1,1.961-1.015,4.292,4.292,0,0,1,1.662-.014,2.558,2.558,0,0,1,1.473,1,9.574,9.574,0,0,1,1.662-1.413,3.88,3.88,0,0,1,1.534-.622,2.935,2.935,0,0,1,1.883.273,3.012,3.012,0,0,1,1.56,2.92v5.892a.594.594,0,0,0,.013.141c.119-.007.237-.024.4-.048a.9.9,0,0,1,1.1.861.99.99,0,0,1-.848,1.162l-3.67.594a.9.9,0,0,1-.892-.29,1.012,1.012,0,0,1-.214-.659,1.044,1.044,0,0,1,.915-1.088,4.035,4.035,0,0,0,.617-.138v-5.33c0-1.948-.679-1.948-.936-1.948a1.673,1.673,0,0,0-.253.021c-.439.074-1.174.475-2.2,1.95v5.837a2.085,2.085,0,0,0,.524-.027.887.887,0,0,1,1.1.893,1.06,1.06,0,0,1-.753,1.107l-.1.025-3.918.638a.887.887,0,0,1-.887-.29.994.994,0,0,1-.215-.66,1.039,1.039,0,0,1,.915-1.085,6.1,6.1,0,0,0,.695-.146,2.072,2.072,0,0,0,.057-.557v-4.787c0-1.946-.691-1.946-.95-1.946a1.831,1.831,0,0,0-.259.024,3.049,3.049,0,0,0-1.47.938,7.873,7.873,0,0,0-.8.853v5.926a1.185,1.185,0,0,0,.007.128,2.358,2.358,0,0,0,.423-.037,1.025,1.025,0,0,1,.2-.015.886.886,0,0,1,.9.965,1.042,1.042,0,0,1-.918,1.085l-3.562.576a1.1,1.1,0,0,1-.188.018Z" transform="translate(-567.218 -398.972)" fill="#1a1311"/>
          </g>
        </g>
        <path id="Path_25963" data-name="Path 25963" d="M328.574,261.012c-1.526-2.48-3.387-3.878-5.755-3.878h-.1a6.611,6.611,0,0,0-4.938,2.028,8.074,8.074,0,0,0-1.975,5.105l2.923-.748a4.884,4.884,0,0,1,1.117-2.44,3.856,3.856,0,0,1,2.922-1.128h.046a3.722,3.722,0,0,1,2.883,1.793" transform="translate(-315.802 -257.132)" fill="#0092e5"/>
        <path id="Path_25964" data-name="Path 25964" d="M463.453,352.539c0,6.593-4.55,11.491-10.162,10.938s-10.159-6.345-10.159-12.942,4.547-11.493,10.159-10.94S463.453,345.942,463.453,352.539Zm-10.162-9.633c-3.168-.311-5.737,3.3-5.737,8.065s2.569,8.88,5.737,9.192,5.737-3.3,5.737-8.06-2.567-8.884-5.738-9.2Z" transform="translate(-372.169 -293.616)" fill="#1a1311"/>
        <path id="Path_25965" data-name="Path 25965" d="M456,372.55a4.473,4.473,0,0,1,1.729-.372c3.154,0,3.953,1.573,4.964,3.562.855,1.674,1.915,3.758,4.693,3.758a4.519,4.519,0,0,0,3.562-1.506,7.32,7.32,0,0,0,1.276-5.335,1.408,1.408,0,0,0-2.79.386,4.666,4.666,0,0,1-.619,3.1,1.712,1.712,0,0,1-1.432.534c-.964,0-1.34-.575-2.178-2.22-1.036-2.036-2.6-5.105-7.48-5.105a7.361,7.361,0,0,0-3.714,1.012,11.336,11.336,0,0,0,.831,1.134A5.785,5.785,0,0,0,456,372.55Z" transform="translate(-376.986 -306.81)" fill="#0092e5"/>
      </g>
      <path id="Path_25966" data-name="Path 25966" d="M317.958,262.9v81.389l26.812-13.118s2-.867,3.681-5.472a40.788,40.788,0,0,0,1.844-11.7c.027-1.187-.008-2.661,0-3.511s-.458-1.6,2.187-1.964a84.9,84.9,0,0,0,8.847-1.4c4.367-.95,8.179-1.789,9.151-2.778s1.527-2.844,1.527-7.955V249.114Z" transform="translate(-1.932 -2.198)" fill="#fff"/>
      <path id="Path_25967" data-name="Path 25967" d="M377.662,371.942,393.075,355.5s-4.463,1.08-7.308,1.544-6.612.977-6.612.977a63.3,63.3,0,0,1-.316,7.43C378.448,368.334,377.662,371.942,377.662,371.942Z" transform="translate(-28.363 -49.295)" fill="#fff"/>
    </g>
  </g>
</svg>
