<?xml version="1.0" encoding="UTF-8"?>
<svg id="_レイヤー_2" data-name="レイヤー 2" xmlns="http://www.w3.org/2000/svg" viewBox="0 0 710 143.31">
  <defs>
    <style>
      .cls-1 {
        fill: #e3e3e3;
      }

      .cls-2 {
        fill: #f7b200;
      }

      .cls-3 {
        fill: none;
        stroke: #fff;
        stroke-miterlimit: 10;
        stroke-width: 3px;
      }

      .cls-4 {
        fill: #5c5c5c;
      }

      .cls-5 {
        fill: #dbdcdc;
      }

      .cls-6 {
        fill: #231815;
      }

      .cls-7 {
        fill: #fff;
      }

      .cls-8 {
        fill: #878787;
      }

      .cls-9 {
        fill: #71c6d2;
      }
    </style>
  </defs>
  <g id="_レイヤー_1-2" data-name="レイヤー 1">
    <line class="cls-3" x1="710" y1="141.81" y2="141.81"/>
    <g>
      <path class="cls-5" d="M47.09,17.65s0,0,0,0c-.01,0-.02,0-.04-.01-.04-.01-.08-.03-.12-.04-.08-.03-.16-.05-.25-.06-.02,0-.04,0-.06-.01-.05,0-.04,0,.02,0-.04-.01-.09,0-.13-.01-.08,0-.17,0-.25,0-.04,0-.08,0-.13,0,0,0,0,0-.01,0,0,0-.02,0-.03,0-.07.01-.13.03-.19.05-.59,1.31-.95,2.71-1.15,4.13-.22,1.56-.31,3.2-.21,4.78.08,1.21.39,2.56-.53,3.53-.4.41-.9.71-1.33,1.08-.48.42-.77.97-.87,1.6-.22,1.26.18,2.89,1.02,3.87.86,1,2.26.93,3.28.21,1.14-.8,1.51-2.25,1.51-3.57,0-1.58-.5-3.09-.82-4.62-.76-3.59-.08-7.16.69-10.69-.13-.09-.26-.17-.4-.24Z"/>
      <g>
        <path class="cls-9" d="M59.24,120.52c.77-.02,1.54-.05,2.31-.09-.96-4.75.32-10.18,3.74-13.72.15-.15.31-.29.49-.42-1.22-.14-2.44-.28-3.66-.43-.09.01-.18,0-.25-.03-.06,0-.12-.02-.18-.02-.18.29-.71.33-.8-.1,0,0,0,0,0,0-4.24-.55-8.47-1.17-12.68-1.87-1.88-.32-3.76-.65-5.63-1-.27-.05-.35-.27-.31-.47-3.05-.71-6.31-.14-8.95,1.57-.48.31-.93-.45-.45-.76,2.07-1.34,4.51-2.02,6.96-1.98-.05-.06-.08-.14-.09-.24-.09-.91-.42-1.79-.95-2.54-.53-.76-1.25-1.2-1.95-1.78-.78-.64-.86-1.5-.96-2.44-.11-1.08-.24-2.15-.41-3.22-.64-4.15-1.68-8.24-3.11-12.2-.81-2.23-1.74-4.41-2.79-6.54-.25-.51.52-.96.77-.45,1.89,3.83,3.41,7.84,4.51,11.97.56,2.08,1.02,4.19,1.37,6.32.17,1.03.31,2.07.44,3.11.12,1,0,2.18.86,2.87.8.63,1.54,1.16,2.11,2.03.57.86.89,1.85.99,2.87.01.11-.02.2-.06.27.89.06,1.77.22,2.62.47.22.06.31.24.31.41,5.71,1.05,11.44,1.94,17.19,2.69-1.85-8.1-3.54-16.26-6.95-23.9-.95-2.14-2.02-4.22-3.21-6.24-.06-.1-.07-.2-.06-.29-1.48-1.45-3.06-2.8-4.72-4.08-1.51-1.16-3.02-2.35-4.11-3.93-1.01-1.46-1.53-3.22-1.59-4.98-.01-.34,0-.68.03-1.02-.04.07-.08.15-.13.22-.63,1-1.48,1.83-2.46,2.51-.53.37-1.09.67-1.67.94,1.71.6,3.32,1.43,4.78,2.48.15.02.3.12.37.27.26.2.53.41.78.62.44.37-.19.99-.63.62-.14-.12-.28-.23-.42-.34-.61,1.15-1.28,2.26-2.01,3.33,1.21.84,2.41,1.69,3.62,2.53,1.21.85,2.4,1.68,3.52,2.65,1.42,1.23,2.74,2.59,3.93,4.04,1.36,1.67,2.56,3.45,3.58,5.35.27.5-.5.95-.77.45-1.76-3.28-4.08-6.25-6.85-8.75-1.81-1.64-3.86-2.97-5.86-4.37-.67-.47-1.34-.94-2.01-1.41-.18-.13-.31-.4-.16-.6.85-1.2,1.61-2.45,2.29-3.75-1.51-1.07-3.18-1.9-4.95-2.46-.13-.04-.22-.13-.27-.22-1.54.57-3.17.91-4.77,1.23-.51.1-.74-.51-.34-.81,1.11-.81.66-2.54.61-3.67-.06-1.4.42-2.74.9-4.04.1-.26.2-.52.31-.78-1.43.91-2.91,1.75-4.43,2.5-1.63.8-3.32,1.43-4.99,2.15-.23.1-.45.21-.67.33.39.29.74.7,1.03,1,.69.71,1.36,1.44,2.01,2.19.16.18.18.45,0,.62-.16.16-.47.18-.63,0-.57-.66-1.15-1.3-1.75-1.93-.3-.31-.6-.61-.9-.92-.12-.12-.23-.24-.37-.33-.09-.06-.23-.13-.28-.1,0,0,0,0,0,0-1.8,1.21-3.11,2.98-3.8,5.1-.81,2.51-.86,5.19-.79,7.8.08,3.11.18,6.23.54,9.32.82,7.17,2.81,14.17,5.49,20.86.68,1.7,1.41,3.38,2.18,5.04.38.82.77,1.65,1.17,2.46.34.68.7,1.38,1.19,1.97,1.15,1.37,3.09,1.54,4.74,1.93,1.86.45,3.71.89,5.57,1.31,7.38,1.67,14.88,2.98,22.48,2.83Z"/>
        <path class="cls-9" d="M63.28,36.27c.07-.05.16-.08.24-.07.11,0,.23.04.31.13.08.08.14.19.13.31-.01.25-.05.51-.1.76-.06.27-.13.6-.39.75-.31.18-.71.03-.86-.29-.06-.13-.1-.27-.1-.42,0-.12.03-.25.06-.37.08-.26.23-.5.44-.68.07-.07.16-.1.26-.12Z"/>
        <path class="cls-9" d="M70.37,37.88c.07-.07.16-.1.26-.12.07-.05.16-.08.24-.07.11,0,.23.04.31.13.08.08.14.19.13.31-.01.25-.05.51-.1.76-.06.27-.13.6-.39.75-.31.18-.71.03-.86-.29-.06-.13-.1-.27-.1-.42,0-.12.03-.25.06-.37.08-.26.23-.5.44-.68Z"/>
        <path class="cls-9" d="M65.4,45.07c-.54-.18-.31-1.04.24-.85.62.21,1.33.34,1.99.23.31-.05.32-.15.32-.44,0-.38,0-.76,0-1.13,0-1.47.01-2.94.02-4.41,0-.57.89-.57.89,0,0,1.76-.02,3.52-.03,5.29,0,.35.04.74-.16,1.05-.18.28-.51.44-.83.49-.81.15-1.67.03-2.45-.23Z"/>
        <path class="cls-9" d="M65.52,34.41c-1.24-.76-2.8-.56-4.18-.38-.24.03-.44-.22-.44-.44,0-.26.21-.41.44-.44,1.55-.2,3.24-.35,4.63.5.49.3.04,1.06-.45.76Z"/>
        <path class="cls-9" d="M60.4,46.66c1.1.31,2.2.63,3.31.93,1.09.29,2.19.52,3.33.46.57-.03.57.85,0,.88-.01,0-.02,0-.03,0-.02.06-.06.12-.12.18-.62.54-1.3,1.01-2.05,1.37-.69.33-1.46.64-2.22.36-.7-.26-1.19-.84-1.61-1.43-.49-.68-.86-1.42-1.14-2.21-.12-.32.24-.63.55-.54Z"/>
        <path class="cls-9" d="M62.85,49.99c.57.24,1.23-.12,1.74-.38.4-.21.79-.45,1.15-.72-.72-.08-1.44-.23-2.14-.42-.85-.22-1.7-.47-2.55-.71.16.33.34.65.55.96.32.47.71,1.03,1.25,1.27Z"/>
        <path class="cls-9" d="M38.01,83.46c.05-.41.12-.83.59-.94.52-.12,1.19.03,1.72.07,2.27.17,4.53.5,6.75.97.26-.08.59.06.57.4-.07,1.5-.16,3-.28,4.5-.02.22-.19.47-.44.44-2.95-.34-5.87-.83-8.76-1.47-.08-.02-.14-.05-.18-.09-.19-.03-.35-.17-.32-.42.12-1.15.24-2.31.37-3.46Z"/>
        <path class="cls-9" d="M38.91,83.35s0-.03,0,0h0Z"/>
        <path class="cls-7" d="M39.54,83.42c-.21-.01-.43-.03-.64-.03,0,.02,0,.04,0,.08,0,.14-.03.29-.05.43-.1.91-.19,1.81-.29,2.72,2.62.58,5.27,1.03,7.94,1.35.09-1.19.17-2.39.22-3.58-1.89-.39-3.8-.69-5.73-.86-.49-.04-.97-.08-1.46-.11Z"/>
        <path class="cls-9" d="M92.22,98.15c-1.5.3-2.65,1.42-3.54,2.59-.97,1.27-1.83,2.86-1.57,4.51.09.56-.77.79-.86.23-.3-1.91.52-3.69,1.66-5.19,1.03-1.35,2.34-2.65,4.07-3,.56-.11.8.74.24.85Z"/>
        <path class="cls-9" d="M94.27,115.91c7.26.75,14.56,1.22,21.86,1.42.57.02.57.9,0,.88-7.3-.2-14.59-.67-21.86-1.42-.56-.06-.57-.94,0-.88Z"/>
        <path class="cls-9" d="M69.95,57.28s0,0,0,0c-.04.05-.01.02,0,0Z"/>
        <path class="cls-8" d="M69.06,55.66c-.55-.02-1.13.11-1.67.2-.33.05-.66.11-.98.19-.03,0-.08.03-.12.03.05.06.06.3.07.37.07.3.15.6.25.89.05.15.1.31.17.45,0,.01.02.04.03.06,0,0,.02,0,.03,0,.53,0,1.06,0,1.59-.04.07,0,.14-.01.21-.02,0,0,.07,0,.08-.01.02,0,.03,0,.05,0,.15-.03.3-.05.44-.09.06-.02.13-.04.19-.06.02,0,.12-.05.13-.05.05-.02.09-.04.14-.07.02-.01.04-.02.06-.04,0,0,.05-.03.07-.04.02-.02.07-.06.08-.07.02-.02.04-.04.06-.06.02-.04.04-.07.06-.11,0,0,.04-.12.04-.15,0,0,0,0,0,0,0,0,0,0,0,0,0-.03,0-.06,0-.09,0-.02,0-.14,0-.15-.03-.16-.07-.33-.14-.48-.16-.36-.45-.63-.85-.64Z"/>
        <path class="cls-9" d="M35.35,37.36c-.69,3.74-.61,7.57-1.19,11.32-.24,1.55-.54,3.09-.81,4.64.49-.5,1.06-.92,1.75-1.19.07-.03.14-.05.21-.07.21-.81.34-1.64.44-2.46.06-.47.1-.94.16-1.42.04-.4.01-.96.32-1.27.36-.37.88-.18,1.31-.09.47.1.95.21,1.42.34.85.23,1.67.51,2.48.85,1.05-2.43,1.61-5.05,1.64-7.72,0-.05,0-.09.02-.13-.31-.13-.62-.28-.91-.47-2.05-1.32-2.85-3.76-2.63-6.1.09-.99.38-1.97.85-2.83,0-.01-.01-.02-.02-.04-.23-.66-.46-1.32-.65-1.99-2.59,2.07-3.8,5.47-4.38,8.62Z"/>
        <path class="cls-8" d="M45.77,40.82s0-.01,0-.02c0,0,0,0,0,0,0,0,0,0,0,0,0-.02.01-.02,0,.01,0,.01,0,.02,0,.04,0-.02.02.07.02.08,0,0,0,0,0,0,0,.01.01.02.02.04.02.03.04.06.06.09-.06-.09.04.03.05.04,0,0,0,0,0,.01,0,0,0,0,.01,0,.02.01.05.03.07.04-.02-.01.1.04.12.04,0,0,.07.01.08.02.1.01.2.01.3,0,0,0,.07,0,.09,0,.06,0,.11-.02.17-.03.09-.02.18-.04.27-.07.07-.02.15-.05.22-.07.01,0,.07-.03.08-.04.04-.02.08-.04.12-.07.01,0,.04-.03.05-.04.03-.03.06-.06.1-.09.01-.01.01-.01.02-.01,0,0,0,0,0-.02,0-.01.03-.07.04-.08,0-.02.01-.04.01-.05,0,0,0,0,0,0,0,0,0,0,0,0,0-.02.01-.11,0-.12,0,.02,0,.04,0,.06,0-.02,0-.04-.01-.06,0-.01,0-.01,0-.02,0-.01-.01-.03-.02-.04,0,0,0,0,0,0,0,0,0,0,0,0,0,0,0,0-.02,0-.14-.05-.26-.17-.3-.32-.49.21-1,.34-1.53.4.01.09,0,.19-.04.29Z"/>
        <path class="cls-4" d="M47.36,39.14c1.79-.97,2.6-2.89,2.51-4.86-.05-.99-.32-1.99-.7-2.91-.29-.7-.69-1.38-1.26-1.89.61,2.62,1.29,5.92-1.07,7.82-.97.78-2.34,1.17-3.54.68-1.33-.54-2-2-2.29-3.31-.29-1.33-.22-2.87.74-3.93.42-.46.98-.78,1.44-1.19.2-.18.33-.37.42-.57-3.56,1.37-4.38,7.01-1.57,9.52,1.45,1.3,3.59,1.56,5.31.63Z"/>
        <path class="cls-8" d="M47.09,17.65s0,0,0,0c-.01,0-.02,0-.04-.01-.04-.01-.08-.03-.12-.04-.08-.03-.16-.05-.25-.06-.02,0-.04,0-.06-.01-.05,0-.04,0,.02,0-.04-.01-.09,0-.13-.01-.08,0-.17,0-.25,0-.04,0-.08,0-.13,0,0,0,0,0-.01,0,0,0-.02,0-.03,0-.07.01-.13.03-.19.05-.59,1.31-.95,2.71-1.15,4.13-.22,1.56-.31,3.2-.21,4.78.08,1.21.39,2.56-.53,3.53-.4.41-.9.71-1.33,1.08-.48.42-.77.97-.87,1.6-.22,1.26.18,2.89,1.02,3.87.86,1,2.26.93,3.28.21,1.14-.8,1.51-2.25,1.51-3.57,0-1.58-.5-3.09-.82-4.62-.76-3.59-.08-7.16.69-10.69-.13-.09-.26-.17-.4-.24Z"/>
        <path class="cls-9" d="M41.01,22.63c-.62,1.2-.94,2.45-.83,3.8.09,1.17.45,2.31.84,3.43.69-.87,1.62-1.53,2.75-1.85,0-.06,0-.12,0-.18-.04-.89-.13-1.76-.12-2.64,0-1.01.05-2.02.17-3.03.19-1.67.57-3.3,1.24-4.83-1.62,1.54-3.02,3.33-4.04,5.31Z"/>
        <path class="cls-8" d="M51.74,11.71c-2.33,1-4.22,2.81-5.57,4.92.54-.04,1.1.09,1.57.36,2.39-3.62,6.71-5.74,11.04-5.52-2.25-.84-4.82-.71-7.03.24Z"/>
        <path class="cls-9" d="M74.16,31.04c.13-2.13-.14-4.27-.74-6.32-1.2-4.05-3.79-7.82-7.35-10.17-1.65-1.09-3.56-1.99-5.55-2.31-.09.17-.26.29-.5.25-4.47-.8-9.25,1.34-11.65,5.15.03.07.04.16.02.25-.75,3.43-1.42,6.88-.75,10.36.05,0,.1.02.15.05,1.05.61,1.78,1.65,2.25,2.8.07-.09.18-.15.33-.15,2,.03,3.69-1.24,5.18-2.42.39-.3.94.06.7.53-.43.85-.89,1.68-1.38,2.49,3.85-3.07,5.96-7.81,7.5-12.39.18-.54,1.04-.31.86.23-1.56,4.64-3.7,9.39-7.49,12.58,4.05-1.28,7.59-4.07,9.71-7.74.72-1.25,1.46-2.72,1.38-4.2-.04-.08-.07-.17-.11-.25-.21-.43.3-.81.61-.62.16.01.3.11.32.32.01.1.02.19.02.29,2.21,4.89,1.68,10.34,1.07,15.52,0,0,0,0,0,0,.03-.1.09-.18.2-.25.57-.34,1.15-.68,1.46-1.28.3-.59.38-1.29.46-1.93.19-1.49.2-3,.07-4.5-.05-.57.84-.56.89,0,.15,1.7.1,3.4-.15,5.08-.1.7-.24,1.43-.64,2.03-.26.39-.6.68-.98.94.78-.12,1.52-.54,1.94-1.21.39-.61.59-1.36.75-2.06.17-.76.25-1.54.24-2.32,0-.57.88-.57.89,0,0,.91-.09,1.83-.31,2.71-.2.81-.46,1.69-.97,2.36-.13.17-.28.32-.44.47.01.02.03.03.04.05.08.12.16.25.24.37,1.48-.82,1.63-3.27,1.71-4.71Z"/>
        <path class="cls-7" d="M62.49,53.72c1.41-1.28,2.76-2.64,4.14-3.96,1.3-1.24,2.61-2.52,3.46-4.12.97-1.82,1.26-3.91,1.21-5.95,0-.08.02-.16.05-.22.1-1,.27-1.99.5-2.96,0-.01.01-.02.01-.03,0,0,0,0,0-.01,0,0,0,0,0,0-.13-.21-.27-.42-.4-.63-.94.51-2.11.64-3.1.26-.13-.05-.24-.14-.29-.26-.14-.06-.23-.18-.21-.38.53-4.52,1.09-9.34-.35-13.72-.18.7-.47,1.39-.8,2.05-.58,1.16-1.29,2.24-2.11,3.24-1.65,2.02-3.77,3.69-6.12,4.83-1.33.65-2.74,1.13-4.19,1.42-.1.02-.19,0-.27-.02-.15.09-.29.19-.45.28-.37.21-.86-.23-.61-.6.56-.83,1.09-1.68,1.59-2.55-1.25.84-2.61,1.48-4.17,1.46-.02,0-.05,0-.07,0,.18.58.31,1.18.39,1.74.31,2.29-.43,4.68-2.4,6.03-.06.04-.12.07-.17.11.28.19.44.5.46.85.02.45-.24.83-.6,1.08-.34.24-.79.36-1.2.42-.51.07-1.03.02-1.44-.32-.18-.15-.32-.37-.4-.6-.06-.21-.06-.4,0-.6-.33-.01-.66-.06-.98-.13-.06,3.57-1.05,7.08-2.84,10.18.74.28,1.69.25,2.41.26.78.01,1.67-.09,2.44.07.63.13.89.72,1.17,1.23.63,1.15,1.16,2.36,1.93,3.42.78,1.06,1.91,1.68,3.08,2.24.68.33,1.37.63,2.03.97.06.03.11.06.17.09.15.07.18.12.23-.03.01-.04.02-.08.02-.13-.27.11-.64-.01-.62-.38.1-2,1-3.78,2.27-5.28-1-.74-1.89-1.61-2.65-2.64-.34-.46.43-.9.77-.45,1.04,1.4,2.4,2.55,3.94,3.38.68.36,1.38.76,2.12.99.85.28,1.44-.06,2.07-.64Z"/>
        <path class="cls-2" d="M59.37,57.04c-.13-.31-.4-.57-.6-.83-.49-.62-.98-1.25-1.47-1.87-.15-.19-.12-.4-.02-.56-.11-.06-.21-.13-.32-.2-.76.88-1.39,1.87-1.76,2.95.14.06.25.18.25.38,0,.45,0,.89,0,1.34,0,.34.04.72-.08,1.05-.28.81-1.09.56-1.66.26-1.34-.69-2.78-1.21-4.01-2.09-1.18-.86-1.91-2.11-2.58-3.37-.34-.65-.66-1.3-1.03-1.93-.09-.16-.14-.27-.31-.34-.2-.08-.51-.04-.72-.05-.52,0-1.04-.02-1.55-.03-1.45-.03-3.28-.03-4.1-1.45-.28-.49.48-.94.77-.45.06.1.12.18.19.26.25-.43.48-.87.69-1.31-.72-.3-1.45-.56-2.2-.76-.4-.11-.8-.21-1.2-.3-.21-.05-.42-.09-.62-.13,0,0-.1-.02-.18-.03,0,.02,0,.04,0,.06-.13.81-.17,1.65-.28,2.46-.08.58-.17,1.16-.3,1.74,1.19-.14,2.43.12,3.58.38.2.04.3.18.31.34.21-.02.41-.02.63-.02.57.02.57.9,0,.88-2.77-.09-4.67,2.25-6.19,4.22-.15.19-.38.29-.61.16-.19-.11-.31-.42-.16-.6,1.31-1.69,2.85-3.56,4.89-4.32-.93-.18-1.88-.27-2.78-.08-.09.07-.21.1-.33.09-.35.11-.68.26-1.01.49-.65.45-1.14,1.07-1.55,1.76-.02.12-.07.2-.15.25-.24.43-.44.89-.63,1.33-.63,1.54-1.24,3.14-1.11,4.83.08,1.03.18,2.13-.22,3.03,2.09-.45,4.18-1,5.97-2.2.97-.65,1.79-1.47,2.38-2.47.62-1.05,1.04-2.21,1.75-3.22.04-.05.08-.1.13-.13.16-.29.33-.58.52-.85.32-.46,1.09-.02.77.45-2,2.86-2.05,6.85-.06,9.74,1.06,1.54,2.59,2.69,4.06,3.82,1.53,1.18,3.02,2.41,4.4,3.75,1.34,1.31,2.59,2.71,3.76,4.17.33-3.09.39-6.21.13-9.3-.13-1.55-.24-3.22-.92-4.65-.6-1.26-1.66-2.15-2.79-2.94-1.22-.85-2.51-1.63-3.54-2.73-.06-.06-.09-.13-.11-.19-.22.03-.4-.12-.48-.32-.42-1.05-.99-2.05-1.67-2.97-.08-.11-.16-.21-.24-.32,0-.01-.07-.07-.13-.14-.06.11-.11.22-.16.33-.23.53-.38,1.1-.46,1.68-.04.24-.34.37-.55.31-.25-.07-.35-.31-.31-.54.11-.7.32-1.38.61-2.02.14-.31.33-.64.68-.72.43-.1.71.21.95.51.88,1.11,1.59,2.33,2.12,3.64.12-.02.25.01.36.13,1.87,2.01,4.76,2.95,6.2,5.37.19.33.35.67.49,1.01.05,0,.1,0,.15.02,1.02.31,2.27.29,3.21-.25.2-.12.89-.54.89-.8,0-.09-.15-.28-.2-.36-.16-.26-.35-.5-.48-.78-.57-1.21.17-2.41.73-3.46.19-.35.41-.72.25-1.12Z"/>
        <path class="cls-2" d="M61.69,104.92c.47-5.23.7-10.49.56-15.74-.15-5.46-.69-10.93-1.86-16.28-.61-2.82-1.41-5.6-2.41-8.3-.9.32-1.93.36-2.86.15.2.8.31,1.62.4,2.44.19,1.8.28,3.62.27,5.43-.01,2.05-.16,4.1-.42,6.14-.06.44-.55.59-.83.22-.6-.8-1.24-1.57-1.9-2.32,1.53,2.9,2.83,5.91,3.93,8.99,1.43,3.99,2.46,8.08,3.41,12.21.54,2.35,1.08,4.7,1.62,7.04.03,0,.05,0,.08.01Z"/>
        <path class="cls-9" d="M44.77,53.96s-.01-.02-.01-.02c0,.01,0,.02.01.02Z"/>
        <path class="cls-9" d="M97.94,98.23c-.85-.43-1.72-.82-2.54-1.29-.67-.39-1.26-.91-1.52-1.65-.06-.17-.09-.36-.11-.54,0-.11.03-.4-.02-.44-.09-.06-.52-.03-.67-.04-.27-.03-.55-.05-.82-.08-.26-.02-.4-.23-.42-.44-5.87-7.14-9.9-15.49-15.08-23.09-.73-1.07-1.48-2.12-2.26-3.15-.59-.78-1.48-1.95-2.59-1.86.45.88.84,1.8,1.11,2.76.31,1.11.47,2.25.59,3.39.06.56-.83.56-.89,0-.22-2.16-.74-4.19-1.78-6.11,0,0,0-.01,0-.02-.03,0-.06-.01-.09-.02-.12-.02-.21-.08-.26-.16-2.34-.88-4.67-1.79-6.93-2.83,1.26.99,2.53,1.97,3.83,2.9.24.17.29.46.09.69-1.05,1.2-1.98,2.5-2.77,3.87,1.11.78,2.19,1.6,3.24,2.46.27.22.53.44.79.67.25.21.56.43.75.7.37.54,0,1.16-.18,1.7-.97,2.85-1.63,5.8-1.97,8.79-.06.56-.95.56-.89,0,.31-2.72.86-5.42,1.68-8.03.1-.3.19-.61.3-.91.06-.17.11-.33.17-.49.04-.11.18-.35.16-.47-.04-.26-.46-.5-.65-.66-.26-.22-.53-.45-.79-.67-.98-.81-2-1.57-3.04-2.3-.15.28-.29.55-.42.84-.25.51-1.01.07-.77-.45.91-1.9,2.07-3.67,3.43-5.28-2.54-1.86-4.98-3.85-7.47-5.77-.07.33-.08.68.06,1,.13.3.37.56.53.84.22.37.34.76.11,1.15-.22.39-.65.74-1.05.98,1.85,4.99,2.99,10.2,3.65,15.47.69,5.51.85,11.08.68,16.63-.09,2.91-.28,5.82-.55,8.72,1.81.22,3.62.43,5.43.63.29.03.43.28.42.51,1.05.06,2.1.18,3.14.35-.25-4.04.51-7.98,1.27-11.93,0-.05,0-.11.03-.15.62-3.19,1.24-6.39,1.33-9.64.06-2.05-.12-4.09-.65-6.07-.15-.55.71-.78.86-.23,1.41,5.3.4,10.66-.63,15.97,1.7,2.23,3.49,4.4,5.44,6.42,1,1.04,2.07,1.99,3.09,3,.48.47.91.98,1.3,1.53.36.5.7.98,1.28,1.23.02,0,.04.02.06.03,1.63-.43,3.19-1.09,4.72-1.79-.07-.12-.1-.27-.03-.43,1.08-2.54,3.67-3.96,6.23-4.67.74-.2,1.49-.36,2.24-.5.43-.08.94-.23,1.42-.27-.09-.05-.19-.09-.28-.14-.44-.22-.87-.44-1.31-.66Z"/>
        <path class="cls-7" d="M100.59,100.23c-.16.01-.3-.09-.38-.23-.07-.03-.13-.06-.2-.07-.31-.09-.69.04-1,.1-.34.06-.67.12-1.01.18-.7.13-1.39.29-2.07.48-2.15.62-4.26,1.76-5.32,3.77.11-.05.22-.1.33-.15,1.21-.55,2.43-1.1,3.64-1.65,1.03-.47,2.12-.99,3.27-.65.16.05.25.15.29.27,0,0,0,0,0,0,.03-.09.09-.16.2-.22.64-.35,1.3-.74,1.98-1,.49-.19.9-.07,1.32.12-.03-.03-.05-.06-.08-.08-.28-.26-.61-.61-.97-.87Z"/>
        <path class="cls-7" d="M102.2,102.43c-.48-.23-1.11-.73-1.64-.51-.38.16-.75.35-1.12.55,1.15.17,2.31.34,3.46.51.21.03.41.06.62.09-.44-.21-.88-.43-1.31-.64Z"/>
        <path class="cls-7" d="M108.74,105.73c-.24-.33-.47-.73-.81-.97-.33-.24-.77-.27-1.16-.33-.42-.06-.84-.12-1.25-.18-.84-.12-1.67-.24-2.51-.37-1.73-.25-3.46-.51-5.19-.76-.19-.03-.29-.14-.31-.28-1.12-.26-2.33.52-3.31.96-1.16.52-2.32,1.05-3.48,1.57-2.14.96-4.29,1.96-6.61,2.4-.13.02-.24,0-.33-.06,0,0,0,0,0,0-3.93.23-7.88.2-11.81-.08-1.6,1.4-2.55,3.42-2.98,5.47-.14.64-.23,1.32-.25,2,4.07-.19,8.14-.5,12.19-.91.06,0,.12-.02.19-.03.19-.03.35.06.45.18,5.04,1.16,10.95,1.33,14.9-2.53.17-.17.38-.15.54-.05,1.01.03,2.02-.01,3.02-.12.1-.12.25-.2.44-.16,1.27.25,2.6.54,3.59,1.43.55.49.91,1.15,1.48,1.63.51.44,1.13.74,1.78.9.3.07.7.18,1.01.12.19-.03.18-.04.06-.21-.13-.17-.3-.33-.45-.49-.53-.57-1.07-1.13-1.62-1.67-1.11-1.09-2.27-2.12-3.49-3.1-.33-.27-.63-.51-1.05-.6-.47-.09-.95-.13-1.42-.19-.93-.12-1.87-.25-2.8-.37-.56-.07-.57-.96,0-.88.96.13,1.93.26,2.89.38.81.11,1.71.11,2.41.57.05-.1.14-.18.26-.2.72-.13,1.44-.25,2.16-.38.19-.22.6-.25.75.05.06.05.11.11.13.2.01.06.01.12,0,.18.14.37.36.7.65.98.17.16.36.3.56.41.22.12.47.18.66.34.43.34.55,1.02.79,1.49.26.51.56,1.01.92,1.46.33.4.71.77,1.17,1.02.23.12.48.21.74.23.12,0,.54.04.6-.13.02-.05-.07-.22-.09-.26-.07-.17-.16-.33-.23-.49-.14-.29-.27-.58-.41-.87-.29-.62-.58-1.24-.88-1.86-.03-.07-.05-.14-.05-.2,0-.01-.02-.02-.02-.03-.79-1.14-1.58-2.28-2.36-3.43-.38-.55-.74-1.13-1.15-1.66-.43-.55-1.1-.36-1.71-.3-2.75.23-5.52.19-8.27-.11-.56-.06-.57-.94,0-.88,3,.33,5.96.27,8.96.05.57-.04,1.1.05,1.52.47.48.48.83,1.14,1.21,1.69.86,1.24,1.71,2.48,2.57,3.72.06.08.08.17.08.24.24.5.48,1,.72,1.5.09-.05.19-.06.32-.03.28.09,1.22.34.9-.26-.21-.38-.54-.74-.81-1.09-.51-.69-1.01-1.37-1.52-2.06s-1.01-1.37-1.52-2.06c-.25-.34-.51-.69-.76-1.03Z"/>
        <path class="cls-7" d="M71.09,117.76s-.02-.05-.02-.08c0-.62.05-1.23.13-1.84-.81.05-1.63.09-2.44.13.01.16.03.32.06.48.1.61.35,1.25.91,1.59.44.27,1.12.22,1.36-.28Z"/>
        <path class="cls-7" d="M117.75,104.62c-.28.33-.69.51-1.05.73-.04.02-.08.05-.12.08-.02.01-.03.02-.05.03-.08.07-.15.13-.21.21-.01.02-.02.03-.03.05-.01.02-.02.04-.03.05,0,0,0,0,0,.01-.01.03-.02.07-.03.1,0,0,0,0,0,.01.08,0,.16.02.24.03.6.05,1.2.05,1.79.1.47.04.96.14,1.31.49.57.57.46,1.31.08,1.91.31-.03.61-.06.92-.09.18-.64.37-1.27.55-1.91-.07.02-.14.02-.23,0-.45-.12-.87-.32-1.25-.59-.37-.25-.7-.55-1.07-.79-.26-.17-.53-.3-.81-.42Z"/>
        <path class="cls-9" d="M120.24,109.43c.02-.06.04-.12.05-.18-.35.04-.7.07-1.04.11-.11.01-.24-.06-.31-.13-.01-.01-.03-.03-.04-.05-.07.05-.14.1-.22.14.51.04,1.02.07,1.53.11.01,0,.02,0,.03,0Z"/>
        <path class="cls-7" d="M113.38,110.52c1.21.07,2.4-.17,3.48-.69-.35-.06-.68-.22-1.04-.36-1.04-.4-2.18-.12-3.28-.09.28.38.56.75.84,1.13Z"/>
        <path class="cls-7" d="M115.01,101.04c-.83,1-1.69,1.96-2.62,2.87-.46.45-.92.9-1.41,1.31-.35.29-.71.49-1.14.5.25.34.51.68.76,1.03.43.58.85,1.15,1.28,1.73,1.23.13,2.46-.24,3.69,0,.61.12,1.19.62,1.83.45.52-.14,1.22-.51,1.52-.97.35-.53.05-.96-.51-1.04-.61-.1-1.25-.06-1.87-.11-1.39-.12-2.76-.35-4.12-.69-.55-.14-.32-.99.24-.85.89.22,1.78.4,2.68.52.06-.48.41-.87.8-1.14.18-.12.37-.22.56-.33.05-.03.09-.06.14-.08,0,0,0,0,0,0-.3-.12-.59-.25-.87-.41-.5-.28-.05-1.04.45-.76.81.46,1.72.69,2.51,1.17.74.45,1.32,1.09,2.18,1.33.09.02.15.07.2.12.17-.6.35-1.21.52-1.81-.11.06-.25.06-.39-.04-1.1-.8-2.21-1.6-3.31-2.4-.52-.38-1.05-.87-1.67-1.08-.67-.23-1.07.21-1.47.69Z"/>
        <path class="cls-7" d="M120.33,101.22c-.37-.17-.73-.35-1.11-.51-.27-.12-.58-.22-.89-.23.04.03.08.06.11.08,1.15.84,2.3,1.67,3.45,2.51.06.04.1.09.13.14.1-.35.2-.71.3-1.06-.67-.31-1.34-.62-2.01-.93Z"/>
        <path class="cls-1" d="M149.52,110.4c.06-.47.21-.93.34-1.38.28-1,.57-2,.86-2.99.91-3.07,1.85-6.14,2.79-9.2,1.13-3.66,2.26-7.33,3.41-10.99,1-3.2,2-6.39,3.01-9.59.53-1.68,1.03-3.36,1.6-5.03-.09-.18-.06-.41.18-.52.25-.12.17-.52.02-.71-.26-.3-.77-.3-1.14-.33-.18-.01-.36-.02-.54-.04-.61-.05-1.21-.1-1.82-.15-1.97-.17-3.94-.36-5.91-.54-4.6-.43-9.21-.88-13.81-1.3-1.36-.12-2.72-.27-4.08-.35-.06.02-.13.03-.21.02-1.01-.14-1.52,1.22-1.72,1.96-.11.4-.2.81-.3,1.22-.07.26-.14.52-.21.79-.29,1.04-.58,2.08-.87,3.12-1.01,3.61-2.03,7.22-3.05,10.83-1.27,4.49-2.54,8.99-3.83,13.48-.3,1.05-.6,2.1-.9,3.15.02.11,0,.22-.05.31-.02.03-.04.05-.07.07-.81,2.83-1.62,5.66-2.45,8.48-.63,2.15-1.19,4.33-1.94,6.44-.01.03-.03.07-.04.1.17-.04.35-.08.52-.12.77-.18,1.54-.34,2.31-.5,2.42-.51,4.84-1,7.26-1.49,5.15-1.03,10.3-2.05,15.46-3.04.78-.15,1.55-.3,2.33-.45.85-.16,2.23-.16,2.61-1.04.05-.11.12-.19.21-.23Z"/>
        <path class="cls-1" d="M85.85,116.75c.35.13.7.26,1.07.34.52.11,1.05.2,1.58.28,1.05.16,2.1.26,3.15.35,2.11.18,4.23.32,6.34.46,4.28.28,8.57.51,12.86.69,2.34.1,4.68.18,7.02.25.04-.12.13-.22.3-.25,3.52-.66,7.03-1.4,10.55-2.1,5.41-1.09,10.82-2.17,16.21-3.32.88-.19,1.76-.38,2.64-.58.24-.06.48-.11.71-.18.04-.01.08-.02.12-.03.1-.16.18-.31.17-.46-.41.13-.86.2-1.29.28-.57.1-1.13.21-1.7.32-2.18.42-4.35.84-6.53,1.27-5.39,1.06-10.79,2.11-16.17,3.24-.99.21-1.99.42-2.98.64-.31.07-.61.14-.91.22-.1.02-.19.05-.29.08-.06.02-.26.1-.06.01-.46.2-.86-.36-.6-.66-.13-.09-.2-.24-.11-.44.24-.57.4-1.19.58-1.79.39-1.28.77-2.57,1.15-3.86.12-.4.23-.79.34-1.19-.64-.05-1.27-.09-1.91-.14-.01.01-.03.02-.04.04-1.19.76-2.58,1.18-3.99,1.22.27.4.43.84.12,1.29-.38.56-1.01.58-1.61.46.14.31.29.62.42.94.2.47.18,1-.28,1.31-.4.27-.93.29-1.39.21-1.01-.18-1.82-.95-2.41-1.74-.35-.46-.65-.96-.91-1.48-.12-.24-.22-.48-.32-.73-.11-.27-.15-.4-.43-.52-.84-.36-1.5-1.03-1.87-1.86-.58.1-1.16.2-1.74.31,1.18.94,2.3,1.97,3.37,3.02.65.64,1.29,1.31,1.9,1.98.23.25.49.52.53.87.04.36-.17.66-.48.82-.59.3-1.48.11-2.08-.07-.77-.23-1.48-.63-2.07-1.17-.69-.63-1.12-1.47-1.96-1.94-.64-.36-1.36-.54-2.08-.68-1.28.17-2.56.25-3.84.21-.01,0-.02,0-.04,0-3.03,2.81-7.06,3.53-11.05,3.25,0,.29.01.58.03.86Z"/>
        <path class="cls-7" d="M66.62,119.47c1.23-.03,2.51-.17,3.73.06.06-.15.13-.3.19-.46-.36.05-.74,0-1.09-.17-1.12-.53-1.49-1.79-1.57-2.93-.15-2.19.42-4.48,1.45-6.41.44-.82.99-1.59,1.65-2.25-.84-.13-1.69-.21-2.55-.26-.14.07-.32.07-.47-.02-.33-.01-.65-.02-.98-.03-.18,0-.3-.1-.37-.22-.22.11-.41.25-.55.39-.52.49-.96,1.08-1.35,1.66-.77,1.13-1.39,2.37-1.82,3.66-.76,2.28-.98,4.72-.61,7.08,1.44-.04,2.89-.08,4.33-.12Z"/>
        <path class="cls-9" d="M39.53,120.59c1.4-.2,2.8-.41,4.21-.58-1.61-.28-3.22-.6-4.82-.94-1.92-.41-3.83-.85-5.74-1.3-.94-.22-1.89-.45-2.83-.68-.9-.22-1.85-.38-2.72-.72-1.54-.6-2.4-1.97-3.11-3.38-.65-1.3-1.26-2.63-1.85-3.96.45,1.91.89,3.82,1.19,5.76.14.9.19,1.78.04,2.68-.15.87-.46,1.71-.74,2.55-.37,1.09-.73,2.18-1.1,3.27,5.81-.94,11.63-1.87,17.46-2.7Z"/>
      </g>
      <g>
        <path class="cls-6" d="M72.19,39.69c.05,1.99-.23,4-1.06,5.83-.8,1.77-2.15,3.2-3.53,4.54-1.53,1.48-3.02,3.03-4.63,4.42-.63.54-1.35.99-2.22.86-.83-.12-1.59-.56-2.33-.93-1.91-.96-3.55-2.26-4.83-3.98-.34-.46.43-.9.77-.45,1.04,1.4,2.4,2.55,3.94,3.38.68.36,1.38.76,2.12.99.85.28,1.44-.06,2.07-.64,1.41-1.28,2.76-2.64,4.14-3.96,1.3-1.24,2.61-2.52,3.46-4.12.97-1.82,1.26-3.91,1.21-5.95-.01-.57.88-.57.89,0h0Z"/>
        <path class="cls-6" d="M63.96,36.64c-.01.25-.05.51-.1.76-.06.27-.13.6-.39.75-.31.18-.71.03-.86-.29-.06-.13-.1-.27-.1-.42,0-.12.03-.25.06-.37.08-.26.23-.5.44-.68.09-.08.19-.13.31-.13.11,0,.24.05.31.13.08.08.14.19.13.31,0,.11-.04.23-.13.31-.05.05-.1.1-.15.16.02-.03.05-.06.07-.09-.06.08-.11.16-.14.25.01-.04.03-.07.04-.11-.04.09-.06.18-.07.28,0-.04.01-.08.02-.12,0,.05,0,.09,0,.14,0-.04-.01-.08-.02-.12,0,.04.02.08.03.11-.01-.04-.03-.07-.04-.11.01.03.03.05.04.07-.02-.03-.05-.06-.07-.09.01.02.03.03.05.05-.03-.02-.06-.05-.09-.07.01,0,.03.02.04.02-.04-.01-.07-.03-.11-.04.01,0,.02,0,.03,0-.04,0-.08-.01-.12-.02.01,0,.02,0,.04,0-.04,0-.08.01-.12.02.01,0,.02,0,.04-.01-.04.01-.07.03-.11.04,0,0,.02-.01.03-.02-.03.02-.06.05-.09.07.01-.01.02-.02.03-.03l-.07.09s.03-.05.04-.07c-.01.04-.03.07-.04.11.09-.22.13-.46.16-.7,0,.04-.01.08-.02.12.01-.11.02-.22.03-.32,0-.12.05-.23.13-.31.08-.08.2-.13.31-.13.11,0,.23.04.31.13.08.08.14.19.13.31h0Z"/>
        <path class="cls-6" d="M71.32,38.13c-.01.25-.05.51-.1.76-.06.27-.13.6-.39.75-.31.18-.71.03-.86-.29-.06-.13-.1-.27-.1-.42,0-.12.03-.25.06-.37.08-.26.23-.5.44-.68.09-.08.19-.13.31-.13.11,0,.24.05.31.13.08.08.14.19.13.31,0,.11-.04.23-.13.31-.05.05-.1.1-.15.16.02-.03.05-.06.07-.09-.06.08-.11.16-.14.25.01-.04.03-.07.04-.11-.04.09-.06.18-.07.28,0-.04.01-.08.02-.12,0,.05,0,.09,0,.14,0-.04-.01-.08-.02-.12,0,.04.02.08.03.11-.01-.04-.03-.07-.04-.11.01.03.03.05.04.07l-.07-.09s.03.03.05.05c-.03-.02-.06-.05-.09-.07.01,0,.03.02.04.02-.04-.01-.07-.03-.11-.04.01,0,.02,0,.03,0-.04,0-.08-.01-.12-.02.01,0,.02,0,.04,0-.04,0-.08.01-.12.02.01,0,.02,0,.04-.01-.04.01-.07.03-.11.04,0,0,.02-.01.03-.02-.03.02-.06.05-.09.07.01-.01.02-.02.03-.03-.02.03-.05.06-.07.09.02-.02.03-.05.04-.07-.01.04-.03.07-.04.11.09-.22.13-.46.16-.7,0,.04-.01.08-.02.12.01-.11.02-.22.03-.32,0-.12.05-.23.13-.31.08-.08.2-.13.31-.13.11,0,.23.04.31.13.08.08.14.19.13.31h0Z"/>
        <path class="cls-6" d="M68.86,38.47c0,1.76-.02,3.52-.03,5.29,0,.35.04.74-.16,1.05-.18.28-.51.44-.83.49-.81.15-1.67.03-2.45-.23-.54-.18-.31-1.04.24-.85.62.21,1.33.34,1.99.23.31-.05.32-.15.32-.44,0-.38,0-.76,0-1.13,0-1.47.01-2.94.02-4.41,0-.57.89-.57.89,0h0Z"/>
        <path class="cls-6" d="M65.52,34.41c-1.24-.76-2.8-.56-4.18-.38-.24.03-.44-.22-.44-.44,0-.26.21-.41.44-.44,1.55-.2,3.24-.35,4.63.5.49.3.04,1.06-.45.76h0Z"/>
        <path class="cls-6" d="M67.03,48.93c-1.16.06-2.32-.16-3.44-.46-1.15-.3-2.29-.64-3.43-.96.18-.18.36-.36.55-.54.22.62.52,1.2.88,1.75.32.47.71,1.03,1.25,1.27.57.24,1.23-.12,1.74-.38.6-.31,1.15-.68,1.66-1.13.43-.37,1.06.25.63.62-.62.54-1.3,1.01-2.05,1.37-.69.33-1.46.64-2.22.36-.7-.26-1.19-.84-1.61-1.43-.49-.68-.86-1.42-1.14-2.21-.12-.32.24-.63.55-.54,1.1.31,2.2.63,3.31.93,1.09.29,2.19.52,3.33.46.57-.03.57.85,0,.88h0Z"/>
        <path class="cls-6" d="M67.49,19.34c2.46,5.04,1.89,10.73,1.25,16.11-.07.56-.95.56-.89,0,.61-5.2,1.25-10.79-1.13-15.67-.25-.51.52-.96.77-.45h0Z"/>
        <path class="cls-6" d="M71.84,27.33c.15,1.7.1,3.4-.15,5.08-.1.7-.24,1.43-.64,2.03-.4.61-1.02,1-1.64,1.37-.49.29-.94-.47-.45-.76.57-.34,1.15-.68,1.46-1.28.3-.59.38-1.29.46-1.93.19-1.49.2-3,.07-4.5-.05-.57.84-.56.89,0h0Z"/>
        <path class="cls-6" d="M59.51,11.24c2.29.13,4.52,1.02,6.46,2.2,1.97,1.19,3.67,2.8,5.06,4.62,2.8,3.68,4.3,8.36,4.03,12.98-.12,2.03-.43,4.91-2.67,5.7-.54.19-.77-.66-.24-.85,1.77-.63,1.93-3.31,2.02-4.85.13-2.13-.14-4.27-.74-6.32-1.2-4.05-3.79-7.82-7.35-10.17-1.93-1.27-4.23-2.3-6.56-2.43-.57-.03-.57-.91,0-.88h0Z"/>
        <path class="cls-6" d="M73.89,29.8c0,.91-.09,1.83-.31,2.71-.2.81-.46,1.69-.97,2.36-.95,1.23-2.79,1.79-4.26,1.23-.22-.09-.38-.3-.31-.54.06-.21.32-.39.55-.31,1.18.45,2.74.03,3.43-1.07.39-.61.59-1.36.75-2.06.17-.76.25-1.54.24-2.32,0-.57.88-.57.89,0h0Z"/>
        <path class="cls-6" d="M71.85,36.46c-.14-.21-.27-.42-.41-.63-.03-.05-.05-.11-.05-.16-.01-.06-.01-.12,0-.18.03-.1.11-.21.2-.26.1-.05.23-.08.34-.04.11.04.2.1.27.2.14.21.27.42.41.63.03.05.05.11.05.16.01.06.01.12,0,.18-.03.1-.11.21-.2.26-.1.05-.23.08-.34.04-.11-.04-.2-.1-.27-.2h0Z"/>
        <path class="cls-6" d="M67.66,19.49c.21,1.52-.28,2.94-.95,4.29-.58,1.16-1.29,2.24-2.11,3.24-1.65,2.02-3.77,3.69-6.12,4.83-1.33.65-2.74,1.13-4.19,1.42-.56.11-.8-.74-.24-.85,4.75-.97,8.99-4,11.41-8.19.77-1.34,1.57-2.93,1.35-4.52-.08-.56.78-.8.86-.23h0Z"/>
        <path class="cls-6" d="M63.24,19.4c-1.84,5.46-4.47,11.09-9.67,14.13-.37.21-.86-.23-.61-.6.94-1.38,1.78-2.81,2.53-4.3.23.18.47.36.7.53-1.69,1.33-3.55,2.71-5.81,2.68-.57,0-.57-.89,0-.88,2,.03,3.69-1.24,5.18-2.42.39-.3.94.06.7.53-.75,1.49-1.6,2.92-2.53,4.3-.2-.2-.41-.4-.61-.6,4.99-2.92,7.5-8.36,9.27-13.6.18-.54,1.04-.31.86.23h0Z"/>
        <path class="cls-6" d="M60.03,12.49c-4.51-.81-9.34,1.38-11.72,5.25-.3.48-1.07.04-.77-.45,2.6-4.24,7.82-6.54,12.72-5.66.56.1.32.95-.24.85h0Z"/>
        <path class="cls-6" d="M59.96,12.02c-2.49-1.41-5.61-1.43-8.21-.31-2.52,1.08-4.53,3.1-5.89,5.44-.29.49-1.05.05-.77-.45,1.49-2.55,3.69-4.72,6.45-5.86,2.84-1.17,6.18-1.12,8.87.41.5.28.05,1.04-.45.76h0Z"/>
        <path class="cls-6" d="M47.52,17.91c-.14-.1-.28-.19-.43-.26-.04-.02-.04-.02.02,0-.02,0-.04-.02-.06-.02-.04-.01-.08-.03-.12-.04-.08-.03-.16-.05-.25-.06-.02,0-.04,0-.06-.01-.05,0-.04,0,.02,0-.04-.01-.09,0-.13-.01-.08,0-.17,0-.25,0-.04,0-.08,0-.13,0-.05,0-.04,0,.02,0-.02,0-.04,0-.06,0-.08.01-.17.03-.25.06-.22.06-.49-.08-.55-.31-.05-.24.07-.47.31-.54.79-.23,1.7-.08,2.36.42.1.07.17.14.2.26.03.11.02.25-.04.34-.12.18-.41.31-.61.16h0Z"/>
        <path class="cls-6" d="M46.05,17.25c-.68,1.4-1.08,2.91-1.3,4.45-.22,1.56-.31,3.2-.21,4.78.08,1.21.39,2.56-.53,3.53-.4.41-.9.71-1.33,1.08-.48.42-.77.97-.87,1.6-.22,1.26.18,2.89,1.02,3.87.86,1,2.26.93,3.28.21,1.14-.8,1.51-2.25,1.51-3.57,0-1.58-.5-3.09-.82-4.62-.78-3.67-.05-7.32.74-10.92.12-.55.98-.32.86.23-.78,3.57-1.48,7.16-.66,10.79.61,2.72,1.73,6.52-.88,8.63-.97.78-2.34,1.17-3.54.68-1.33-.54-2-2-2.29-3.31-.29-1.33-.22-2.87.74-3.93.42-.46.98-.77,1.44-1.19.54-.49.58-1.02.55-1.73-.04-.89-.13-1.76-.12-2.64,0-1.01.05-2.02.17-3.03.21-1.86.65-3.67,1.48-5.35.25-.51,1.02-.06.77.45h0Z"/>
        <path class="cls-6" d="M47.79,28.31c1.79,1.04,2.64,3.33,2.9,5.27.31,2.29-.43,4.68-2.4,6.03-1.82,1.25-4.26,1.29-6.12.09-2.05-1.32-2.85-3.76-2.63-6.1.24-2.58,1.81-5.07,4.48-5.66.56-.12.79.73.24.85-4.1.91-5.18,7.06-2.2,9.72,1.45,1.3,3.59,1.56,5.31.63,1.79-.97,2.6-2.89,2.51-4.86-.05-.99-.32-1.99-.7-2.91-.38-.92-.95-1.8-1.83-2.31-.49-.29-.05-1.05.45-.76h0Z"/>
        <path class="cls-6" d="M45.74,16.69c-1.91,1.68-3.57,3.69-4.74,5.95-.62,1.2-.94,2.45-.83,3.8.11,1.4.6,2.76,1.07,4.07.19.54-.67.77-.86.23-.5-1.4-.98-2.82-1.1-4.31-.11-1.39.21-2.71.81-3.96,1.18-2.44,2.99-4.63,5.02-6.41.43-.37,1.06.25.63.62h0Z"/>
        <path class="cls-6" d="M57.18,53.34c-1.28,1.4-2.23,3.09-2.32,5.01-.03.57-.92.57-.89,0,.1-2.16,1.14-4.06,2.58-5.63.39-.42,1.01.2.63.62h0Z"/>
        <path class="cls-6" d="M43.95,40.3c-.04,3.76-1.11,7.47-3.06,10.69-.29.49-1.06.04-.77-.45,1.88-3.09,2.9-6.63,2.94-10.24,0-.57.89-.57.89,0h0Z"/>
        <path class="cls-6" d="M71.14,45.34c.96,1.93,1.59,3.99,1.85,6.12.12.96.14,1.97-.3,2.86-.42.86-1.24,1.45-2,1.99-.47.33-.91-.43-.45-.76.67-.47,1.4-.99,1.72-1.76.35-.84.22-1.83.09-2.7-.28-1.84-.84-3.63-1.67-5.3-.25-.51.51-.95.77-.45h0Z"/>
        <path class="cls-6" d="M66.85,57.85c.53,0,1.06,0,1.59-.04.07,0,.14-.01.21-.02,0,0,.15-.02.05,0,.03,0,.06,0,.08-.01.15-.03.3-.05.44-.09.06-.02.13-.04.19-.06.03,0,.2-.08.1-.04.05-.02.11-.05.16-.08.02-.01.04-.02.06-.04.01,0,.12-.08.07-.04-.04.03.06-.05.08-.07.02-.02.04-.05.07-.07-.06.07-.02.03-.01.01.03-.05.06-.09.08-.14-.05.1.02-.08.03-.12.03-.11,0,.06,0,0,0-.03,0-.06,0-.09,0-.03-.02-.21,0-.13-.03-.17-.08-.34-.14-.5-.16-.36-.45-.63-.85-.64-.55-.02-1.13.11-1.67.2-.33.05-.66.11-.98.19-.03,0-.1.03-.13.03-.02,0-.04.01-.06.03.04-.08.06-.1.06-.04.05.05.06.31.08.38.07.3.15.6.25.89.05.15.1.31.17.45,0,.02.03.06.03.07.05.07.03.07-.06-.02.03,0,.05,0,.08,0,.57,0,.57.88,0,.88-.35,0-.63-.13-.8-.45-.15-.29-.26-.62-.36-.94-.1-.33-.19-.67-.25-1.01-.06-.38-.02-.73.32-.96.26-.18.62-.22.93-.28.36-.07.71-.12,1.07-.17.69-.1,1.43-.28,2.09.05.8.4,1.34,1.61,1.01,2.47-.26.69-.98,1.01-1.67,1.14-.77.15-1.56.14-2.34.14-.57,0-.57-.88,0-.88Z"/>
        <path class="cls-6" d="M41.3,48.91c-.79-.35-1.6-.63-2.44-.86-.4-.11-.8-.21-1.2-.3-.21-.05-.42-.09-.62-.13-.02,0-.26-.04-.26-.05.1-.11.13-.11.09,0,0,.03-.01.05-.01.08-.13.81-.17,1.65-.28,2.46-.11.84-.25,1.67-.48,2.48-.16.55-1.01.31-.86-.23.26-.9.4-1.83.52-2.76.06-.47.1-.94.16-1.42.04-.4.01-.96.32-1.27.36-.37.88-.18,1.31-.09.47.1.95.21,1.42.34.96.26,1.89.59,2.8.99.22.1.27.41.16.6-.13.23-.39.26-.61.16h0Z"/>
        <path class="cls-6" d="M67.84,106.92c-.46-.63-1.36-.13-1.77.26-.52.49-.96,1.08-1.35,1.66-.77,1.13-1.39,2.37-1.82,3.66-.88,2.65-1.04,5.5-.39,8.22.07.29-.14.54-.43.56-7.8.52-15.56-.59-23.16-2.21-1.92-.41-3.83-.85-5.74-1.3-.94-.22-1.89-.45-2.83-.68-.9-.22-1.85-.38-2.72-.72-1.54-.6-2.4-1.97-3.11-3.38-.82-1.66-1.6-3.34-2.33-5.04-2.94-6.79-5.2-13.9-6.31-21.23-.51-3.37-.68-6.74-.82-10.14-.11-2.71-.2-5.46.33-8.14.52-2.64,1.76-5.11,3.92-6.8,1.36-1.07,2.95-1.61,4.53-2.27,1.77-.73,3.49-1.58,5.16-2.52.81-.46,1.61-.95,2.39-1.45.48-.31.93.45.45.76-1.54,1-3.14,1.91-4.79,2.73-1.63.8-3.32,1.43-4.99,2.15-2.62,1.15-4.5,3.27-5.38,5.97-.81,2.51-.86,5.19-.79,7.8.08,3.11.18,6.23.54,9.32.82,7.17,2.81,14.17,5.49,20.86.68,1.7,1.41,3.38,2.18,5.04.38.82.77,1.65,1.17,2.46.34.68.7,1.38,1.19,1.97,1.15,1.37,3.09,1.54,4.74,1.93,1.86.45,3.71.89,5.57,1.31,7.38,1.67,14.88,2.98,22.48,2.83.95-.02,1.9-.06,2.85-.12-.14.19-.29.37-.43.56-1.17-4.87.09-10.58,3.63-14.25.89-.92,2.43-1.46,3.33-.24.34.46-.43.9-.77.45h0Z"/>
        <path class="cls-6" d="M68.01,106.55c-6.63-.71-13.23-1.62-19.81-2.73-1.88-.32-3.76-.65-5.63-1-.56-.1-.32-.95.24-.85,6.5,1.21,13.04,2.22,19.61,3.04,1.86.23,3.72.45,5.59.65.56.06.57.94,0,.88h0Z"/>
        <path class="cls-6" d="M42.93,102.53c-3.24-.96-6.79-.44-9.63,1.39-.48.31-.93-.45-.45-.76,3.02-1.96,6.85-2.5,10.31-1.48.55.16.31,1.01-.24.85h0Z"/>
        <path class="cls-6" d="M39.72,100.94c-.09-.91-.42-1.79-.95-2.54-.53-.76-1.25-1.2-1.95-1.78-.78-.64-.86-1.5-.96-2.44-.11-1.08-.24-2.15-.41-3.22-.64-4.15-1.68-8.24-3.11-12.2-.81-2.23-1.74-4.41-2.79-6.54-.25-.51.52-.96.77-.45,1.89,3.83,3.41,7.84,4.51,11.97.56,2.08,1.02,4.19,1.37,6.32.17,1.03.31,2.07.44,3.11.12,1,0,2.18.86,2.87.8.63,1.54,1.16,2.11,2.03.57.86.89,1.85.99,2.87.06.56-.83.56-.89,0h0Z"/>
        <path class="cls-6" d="M20.03,61.14c.97-.47,1.79.61,2.38,1.22.69.71,1.36,1.44,2.01,2.19.16.18.18.45,0,.62-.16.16-.47.18-.63,0-.57-.66-1.15-1.3-1.75-1.93-.3-.31-.6-.61-.9-.92-.12-.12-.23-.24-.37-.33-.09-.06-.23-.13-.28-.1-.22.11-.48.06-.61-.16-.11-.19-.06-.5.16-.6h0Z"/>
        <path class="cls-6" d="M60.62,60.17c3.45,1.89,7.12,3.33,10.8,4.7.53.2.33.96-.24.85-.12-.02-.23-.05-.35-.07-.56-.11-.32-.96.24-.85.12.02.23.05.35.07-.08.28-.16.57-.24.85-3.75-1.4-7.5-2.87-11.01-4.79-.5-.27-.05-1.04.45-.76h0Z"/>
        <path class="cls-6" d="M46.92,84.42c-1.95-.42-3.93-.72-5.92-.9-.49-.04-.97-.08-1.46-.11-.23-.01-.46-.03-.69-.04.09,0,.05-.16.04.08,0,.14-.03.29-.05.43-.11,1.01-.22,2.02-.32,3.03-.06.56-.95.56-.89,0,.12-1.15.24-2.31.37-3.46.05-.41.12-.83.59-.94.52-.12,1.19.03,1.72.07,2.3.17,4.59.5,6.84.98.56.12.32.97-.24.85h0Z"/>
        <path class="cls-6" d="M47.64,83.95c-.07,1.5-.16,3-.28,4.5-.02.22-.19.47-.44.44-2.95-.34-5.87-.83-8.76-1.47-.56-.12-.32-.97.24-.85,2.82.62,5.66,1.11,8.53,1.44-.15.15-.3.29-.44.44.12-1.5.22-3,.28-4.5.02-.57.91-.57.89,0h0Z"/>
        <path class="cls-6" d="M51.28,74.2c2.14,3.64,3.88,7.49,5.3,11.46,1.43,3.99,2.46,8.08,3.41,12.21.58,2.53,1.17,5.07,1.75,7.6.13.55-.73.79-.86.23-1.94-8.4-3.62-16.89-7.16-24.82-.95-2.14-2.02-4.22-3.21-6.24-.29-.49.48-.94.77-.45h0Z"/>
        <path class="cls-6" d="M58.69,63.95c1.91,5.07,3.08,10.38,3.75,15.75.69,5.51.85,11.08.68,16.63-.1,3.04-.3,6.09-.58,9.12-.05.56-.94.57-.89,0,.5-5.4.75-10.83.6-16.26-.15-5.46-.69-10.93-1.86-16.28-.65-2.96-1.49-5.88-2.56-8.72-.2-.53.66-.76.86-.23h0Z"/>
        <path class="cls-6" d="M59.63,59.51c2.62,2.01,5.17,4.12,7.85,6.05.24.17.29.46.09.69-1.46,1.66-2.67,3.5-3.62,5.49-.25.51-1.01.07-.77-.45.99-2.05,2.25-3.95,3.76-5.67.03.23.06.46.09.69-2.74-1.98-5.35-4.13-8.03-6.19-.45-.35.18-.97.63-.62h0Z"/>
        <path class="cls-6" d="M64.5,69.92c1.21.84,2.39,1.73,3.54,2.67.27.22.53.44.79.67.25.21.56.43.75.7.37.54,0,1.16-.18,1.7-.97,2.85-1.63,5.8-1.97,8.79-.06.56-.95.56-.89,0,.31-2.72.86-5.42,1.68-8.03.1-.3.19-.61.3-.91.06-.17.11-.33.17-.49.04-.11.18-.35.16-.47-.04-.26-.46-.5-.65-.66-.26-.22-.53-.45-.79-.67-1.08-.89-2.2-1.73-3.36-2.53-.46-.32-.02-1.09.45-.76h0Z"/>
        <path class="cls-6" d="M71.7,65.25c.55,1.01,1.01,2.06,1.32,3.16.31,1.11.47,2.25.59,3.39.06.56-.83.56-.89,0-.22-2.16-.74-4.19-1.78-6.11-.27-.5.49-.95.77-.45h0Z"/>
        <path class="cls-6" d="M71.45,64.84c2.24-.53,3.74,2.09,4.82,3.59,1.4,1.95,2.71,3.96,3.98,6,2.51,4.03,4.85,8.17,7.45,12.14,1.48,2.26,3.05,4.48,4.77,6.57.36.44-.27,1.06-.63.62-5.87-7.14-9.91-15.49-15.09-23.1-.73-1.07-1.48-2.12-2.26-3.15-.63-.83-1.6-2.1-2.81-1.82-.56.13-.79-.72-.24-.85h0Z"/>
        <path class="cls-6" d="M74.41,78.5c1.94,7.28-.7,14.67-1.67,21.88-.27,2.05-.41,4.11-.28,6.18.04.57-.85.56-.89,0-.47-7.37,2.43-14.43,2.63-21.75.06-2.05-.12-4.09-.65-6.07-.15-.55.71-.78.86-.23h0Z"/>
        <path class="cls-6" d="M66.99,106.13c1.71.01,3.42.17,5.11.48.31.06.45.54.2.74-1.8,1.39-2.84,3.57-3.31,5.75-.23,1.08-.35,2.27-.17,3.36.1.61.35,1.25.91,1.59.46.28,1.19.22,1.4-.35.29.08.57.16.86.23-.31.74-.63,1.48-.94,2.22-.09.22-.29.37-.55.31-1.29-.33-2.73-.13-4.05-.1-1.4.04-2.8.08-4.2.11-.57.02-.57-.87,0-.88,1.46-.04,2.92-.08,4.38-.12,1.35-.04,2.78-.2,4.11.13-.18.1-.36.21-.55.31.31-.74.63-1.48.94-2.22.21-.51,1.05-.31.86.23-.37,1.04-1.55,1.43-2.53.97-1.12-.53-1.49-1.79-1.57-2.93-.15-2.19.42-4.48,1.45-6.41.58-1.09,1.36-2.09,2.34-2.84l.2.74c-1.61-.29-3.23-.44-4.87-.45-.57,0-.57-.89,0-.88h0Z"/>
        <path class="cls-6" d="M71.84,106.74c3.97.3,7.96.33,11.93.09.57-.03.57.85,0,.88-3.97.24-7.96.21-11.93-.09-.57-.04-.57-.92,0-.88h0Z"/>
        <path class="cls-6" d="M97.61,102.86c-1.15-.33-2.4.48-3.41.94-1.16.52-2.32,1.05-3.48,1.57-2.14.96-4.29,1.96-6.61,2.4-.56.11-.8-.74-.24-.85,2.48-.47,4.77-1.58,7.06-2.61,1.21-.55,2.43-1.1,3.64-1.65,1.03-.47,2.12-.99,3.27-.65.55.16.31,1.01-.24.85h0Z"/>
        <path class="cls-6" d="M97.07,104.57c3,.33,5.96.27,8.96.05.57-.04,1.1.05,1.52.47.48.48.83,1.14,1.21,1.69.86,1.24,1.71,2.48,2.57,3.72.32.47-.45.91-.77.45-.79-1.14-1.58-2.28-2.36-3.43-.38-.55-.74-1.13-1.15-1.66-.43-.55-1.1-.36-1.71-.3-2.75.23-5.52.19-8.27-.11-.56-.06-.57-.94,0-.88h0Z"/>
        <path class="cls-6" d="M111.4,110.73c.53,1.12,1.1,2.23,1.59,3.37.2.47.18,1-.28,1.31-.4.27-.93.29-1.39.21-1.01-.18-1.82-.95-2.41-1.74-.35-.46-.65-.96-.91-1.48-.12-.24-.22-.48-.32-.73-.11-.27-.15-.4-.43-.52-1.01-.43-1.76-1.3-2.05-2.35-.15-.55.71-.78.86-.23.13.49.38.91.75,1.26.17.16.36.3.56.41.22.12.47.18.66.34.43.34.55,1.02.79,1.49.26.51.56,1.01.92,1.46.32.4.71.77,1.17,1.02.23.12.48.21.74.23.12,0,.54.04.6-.13.02-.05-.07-.22-.09-.26-.07-.17-.16-.33-.23-.49-.14-.29-.27-.58-.41-.87-.29-.62-.58-1.24-.88-1.86-.24-.51.52-.96.77-.45h0Z"/>
        <path class="cls-6" d="M97.55,108.04c.96.13,1.93.26,2.89.38.84.11,1.78.1,2.49.62,1.45,1.07,2.79,2.31,4.07,3.57.65.64,1.29,1.31,1.9,1.98.23.25.49.52.53.87.04.36-.17.66-.48.82-.59.3-1.48.11-2.08-.07-.77-.23-1.48-.63-2.07-1.17-.69-.63-1.12-1.47-1.96-1.94-.8-.44-1.72-.62-2.61-.79-.56-.11-.32-.96.24-.85,1.27.25,2.6.54,3.59,1.43.55.49.91,1.15,1.48,1.63.51.44,1.13.74,1.78.9.3.07.7.18,1.01.12.19-.03.18-.04.06-.21-.13-.17-.3-.33-.45-.49-.53-.57-1.07-1.13-1.62-1.67-1.11-1.09-2.27-2.12-3.49-3.1-.33-.27-.63-.51-1.05-.6-.47-.09-.95-.13-1.42-.19-.93-.12-1.87-.25-2.8-.37-.56-.07-.57-.96,0-.88h0Z"/>
        <path class="cls-6" d="M100.78,112.42c-1.29.18-2.58.25-3.88.21-.57-.02-.57-.9,0-.88,1.22.04,2.44-.02,3.64-.18.24-.03.48.06.55.31.06.21-.07.51-.31.54h0Z"/>
        <path class="cls-6" d="M97.08,112.43c-4.29,4.2-10.73,3.99-16.17,2.66-.55-.14-.32-.99.24-.85,5.13,1.25,11.25,1.53,15.31-2.43.41-.4,1.04.22.63.62h0Z"/>
        <path class="cls-6" d="M80.96,115.06c-4.1.42-8.21.72-12.33.92-.57.03-.57-.86,0-.88,4.12-.19,8.23-.5,12.33-.92.57-.06.56.82,0,.88h0Z"/>
        <path class="cls-6" d="M72.08,115.89s-.02.11,0,.03c0,.04-.01.09-.02.13,0,.07-.02.15-.03.22-.02.16-.03.31-.04.47-.02.31-.03.63-.03.94,0,.23-.2.45-.44.44-.24-.01-.44-.19-.44-.44,0-.68.06-1.36.15-2.03.01-.1.12-.21.2-.26.1-.06.24-.08.34-.04.11.03.21.1.27.2.06.11.06.22.04.34h0Z"/>
        <path class="cls-6" d="M98.06,102.27c1.61.24,3.22.47,4.83.71l2.42.35c.77.11,1.57.18,2.33.35.67.16,1.1.56,1.5,1.1.49.65.97,1.31,1.46,1.97.98,1.32,1.95,2.65,2.93,3.97.42.56,1.14,1.26.64,1.98-.45.67-1.28.58-1.96.37-.54-.17-.31-1.02.24-.85.28.09,1.22.34.9-.26-.21-.38-.54-.74-.81-1.09-.51-.69-1.01-1.37-1.52-2.06-.51-.69-1.01-1.37-1.52-2.06-.25-.34-.51-.69-.76-1.03-.24-.33-.47-.73-.81-.97-.33-.24-.77-.27-1.16-.33-.42-.06-.84-.12-1.25-.18-.84-.12-1.67-.24-2.51-.37-1.73-.25-3.46-.51-5.19-.76-.56-.08-.32-.93.24-.85h0Z"/>
        <path class="cls-6" d="M105.83,109.21c-.83.15-1.66.29-2.49.44-.23.04-.49-.06-.55-.31-.05-.21.07-.5.31-.54.83-.15,1.66-.29,2.49-.44.23-.04.49.06.55.31.05.21-.07.5-.31.54h0Z"/>
        <path class="cls-6" d="M112.65,105.27c1.25.31,2.52.54,3.81.65.6.05,1.2.05,1.79.1.47.04.96.14,1.31.49.83.82.22,2.04-.58,2.6-.45.32-1.01.62-1.55.71-.61.11-1.07-.15-1.61-.36-1.27-.49-2.7.05-4.02-.11-.56-.07-.57-.95,0-.88,1.25.15,2.51-.24,3.76,0,.61.12,1.19.62,1.83.45.52-.14,1.22-.51,1.52-.97.35-.53.05-.96-.51-1.04-.61-.1-1.25-.06-1.87-.11-1.39-.12-2.76-.35-4.12-.69-.55-.14-.32-.99.24-.85h0Z"/>
        <path class="cls-6" d="M121.45,103.83c-1.1-.8-2.21-1.6-3.31-2.4-.52-.38-1.05-.87-1.67-1.08-.67-.23-1.07.21-1.47.69-.83,1-1.69,1.96-2.62,2.87-.46.45-.92.9-1.41,1.31-.44.36-.89.59-1.46.48-.56-.1-.32-.95.24-.85.32.06.63-.28.84-.46.25-.23.5-.46.75-.69.49-.47.97-.95,1.44-1.44.45-.47.88-.96,1.3-1.46.37-.44.72-.95,1.25-1.22,1.15-.58,2.25.35,3.13.99,1.15.84,2.3,1.67,3.45,2.51.46.33.01,1.1-.45.76h0Z"/>
        <path class="cls-6" d="M120.89,106.42c-.45-.12-.87-.32-1.25-.59-.37-.25-.7-.55-1.07-.79-.8-.52-1.75-.75-2.58-1.22-.5-.28-.05-1.04.45-.76.81.46,1.72.69,2.51,1.17.74.45,1.32,1.09,2.18,1.33.55.15.32,1-.24.85h0Z"/>
        <path class="cls-6" d="M117.91,99.64c.95-.14,1.77.31,2.6.7.88.41,1.75.81,2.63,1.22.22.1.27.41.16.6-.13.22-.39.26-.61.16l-2.36-1.1c-.37-.17-.73-.35-1.11-.51-.33-.14-.71-.28-1.08-.23-.24.03-.48-.06-.55-.31-.06-.21.07-.51.31-.54h0Z"/>
        <path class="cls-6" d="M117.78,104.6c-.29.35-.7.53-1.08.76-.04.02-.08.05-.12.08-.02.01-.04.03-.06.05-.04.03.08-.06.02-.01-.08.07-.15.14-.22.22-.05.06.04-.06.02-.02-.01.02-.03.04-.04.06-.01.02-.02.04-.03.05,0,.01-.02.03-.02.04,0-.02.02-.04.03-.06-.01.05-.03.09-.04.14-.02.08,0-.11,0-.02,0,.02,0,.05,0,.07,0,.23-.21.45-.44.44-.24-.01-.44-.19-.44-.44,0-.56.37-.99.81-1.29.18-.12.37-.22.56-.33.05-.03.09-.06.14-.08.04-.03.09-.08.13-.09-.05.04-.06.05-.03.02.01,0,.02-.02.03-.03.02-.02.04-.04.06-.05.04-.04.08-.08.12-.13.15-.18.48-.16.63,0,.18.19.16.43,0,.62h0Z"/>
        <path class="cls-6" d="M118.03,110.19c-1.39.89-3.06,1.32-4.71,1.21-.24-.02-.44-.19-.44-.44,0-.23.2-.46.44-.44,1.51.1,3-.27,4.27-1.09.48-.31.93.45.45.76h0Z"/>
        <path class="cls-6" d="M105.76,104.16c-1.19-.58-2.38-1.16-3.56-1.74-.48-.23-1.11-.73-1.64-.51-.61.25-1.19.6-1.77.91-.5.27-.95-.49-.45-.76.64-.35,1.3-.74,1.98-1,.67-.26,1.21.06,1.81.35,1.36.66,2.72,1.33,4.08,1.99.51.25.06,1.01-.45.76h0Z"/>
        <path class="cls-6" d="M102.85,102.47c-.4-.49-.83-.95-1.29-1.38-.42-.39-.98-1.01-1.55-1.17-.31-.09-.69.04-1,.1-.34.06-.67.12-1.01.18-.7.13-1.39.29-2.07.48-2.31.66-4.56,1.93-5.54,4.22-.22.52-.99.07-.77-.45,1.08-2.54,3.67-3.96,6.23-4.67.74-.2,1.49-.36,2.24-.5.66-.12,1.48-.4,2.14-.22.64.18,1.22.75,1.71,1.18.55.49,1.06,1.02,1.53,1.59.36.44-.26,1.06-.63.62h0Z"/>
        <path class="cls-6" d="M92.26,93.31c.57.05,1.22.03,1.78.18.46.12.63.52.62.96,0,1.18,1.05,1.67,1.99,2.14,1.06.53,2.13,1.07,3.19,1.6.42.21.98.39,1.22.82.24.41.1.88-.27,1.14-.47.33-.91-.44-.45-.76-.1.07-.08.03-.21-.05-.07-.05-.16-.08-.24-.12-.22-.11-.44-.22-.65-.33-.44-.22-.87-.44-1.31-.66-.85-.43-1.72-.82-2.54-1.29-.67-.39-1.26-.91-1.52-1.65-.06-.17-.09-.36-.11-.54,0-.11.03-.4-.02-.44-.09-.06-.52-.03-.67-.04-.27-.03-.55-.05-.82-.08-.56-.05-.57-.94,0-.88h0Z"/>
        <path class="cls-6" d="M92.22,98.15c-1.5.3-2.65,1.42-3.54,2.59-.97,1.27-1.83,2.86-1.57,4.51.09.56-.77.79-.86.23-.3-1.91.52-3.69,1.66-5.19,1.03-1.35,2.34-2.65,4.07-3,.56-.11.8.74.24.85h0Z"/>
        <path class="cls-6" d="M73.7,94.37c1.73,2.27,3.54,4.47,5.52,6.53,1,1.04,2.07,1.99,3.09,3,.48.47.91.98,1.3,1.53.36.5.7.98,1.28,1.23.52.23.07.99-.45.76-.58-.25-.98-.71-1.35-1.21-.41-.55-.8-1.08-1.28-1.57-1.05-1.06-2.17-2.04-3.21-3.12-2.03-2.11-3.88-4.38-5.66-6.71-.35-.45.43-.89.77-.45h0Z"/>
        <path class="cls-6" d="M161.7,70.7c.25-.12.17-.52.02-.71-.26-.3-.77-.3-1.14-.33-.18-.01-.36-.02-.54-.04-.61-.05-1.21-.1-1.82-.15-1.97-.17-3.94-.36-5.91-.54-4.6-.43-9.21-.88-13.81-1.3-1.4-.13-2.81-.28-4.21-.36-.57-.03-.57-.91,0-.88,3.58.2,7.16.63,10.73.97,4.53.43,9.06.87,13.6,1.27.61.05,1.23.11,1.84.15.7.05,1.46.09,1.95.67.48.57.48,1.66-.26,2.02-.51.25-.96-.51-.45-.76h0Z"/>
        <path class="cls-6" d="M134.23,67.3c-1.01-.14-1.52,1.22-1.72,1.96-.11.4-.2.81-.3,1.22-.07.26-.14.52-.21.79-.29,1.04-.58,2.08-.87,3.12-1.01,3.61-2.03,7.22-3.05,10.83-1.27,4.49-2.54,8.99-3.83,13.48-1.14,4.01-2.29,8.01-3.46,12.01-.63,2.15-1.19,4.33-1.94,6.44-.02.07-.05.14-.08.2-.22.52-1.08.29-.86-.23.24-.57.4-1.19.58-1.79.39-1.28.77-2.57,1.15-3.86,1.15-3.95,2.29-7.9,3.42-11.85,1.3-4.56,2.6-9.12,3.89-13.69,1.06-3.76,2.12-7.52,3.17-11.28.32-1.14.64-2.28.95-3.42.35-1.28.5-2.79,1.31-3.85.51-.67,1.23-1.06,2.08-.95.56.08.32.93-.24.85h0Z"/>
        <path class="cls-6" d="M162.48,71.16c-.5,1.44-.93,2.9-1.39,4.35-.97,3.06-1.93,6.13-2.89,9.19-1.13,3.63-2.26,7.26-3.39,10.9-.99,3.2-1.97,6.41-2.93,9.62-.51,1.72-1.09,3.45-1.48,5.21-.02.1-.03.22-.02.08-.06.56-.95.57-.89,0,.05-.51.22-1.01.36-1.49.28-1,.57-2,.86-2.99.91-3.07,1.85-6.14,2.79-9.2,1.13-3.66,2.26-7.33,3.41-10.99,1-3.2,2-6.39,3.01-9.59.54-1.72,1.06-3.45,1.64-5.15.02-.06.04-.11.06-.17.18-.53,1.04-.3.86.23h0Z"/>
        <path class="cls-6" d="M150.16,110.86c-.51,1.2-1.74,1.38-2.89,1.59-.57.1-1.13.21-1.7.32-2.18.42-4.35.84-6.53,1.27-5.39,1.06-10.79,2.11-16.17,3.24-.99.21-1.99.42-2.98.64-.31.07-.61.14-.91.22-.1.02-.19.05-.29.08-.06.02-.26.1-.06.01-.52.23-.97-.53-.45-.76.36-.16.77-.23,1.15-.32.77-.18,1.54-.34,2.31-.5,2.42-.51,4.84-1,7.26-1.49,5.15-1.03,10.3-2.05,15.46-3.04.78-.15,1.55-.3,2.33-.45.85-.16,2.23-.16,2.61-1.04.22-.52,1.08-.29.86.23h0Z"/>
        <path class="cls-6" d="M149.24,111.48c.42.62.19,1.68-.53,1.98-.12.05-.25.08-.38.11-.63.16-1.27.3-1.91.44-2.34.51-4.68.99-7.03,1.47-5.61,1.15-11.23,2.28-16.85,3.4-1.38.27-2.75.56-4.13.82-.56.1-.8-.75-.24-.85,3.52-.66,7.03-1.4,10.55-2.1,5.41-1.09,10.82-2.17,16.21-3.32.88-.19,1.76-.38,2.64-.58.24-.06.48-.11.71-.18.06-.02.12-.03.17-.05.06-.03-.09.08-.06.02.15-.24.27-.45.08-.71-.32-.47.45-.91.77-.45h0Z"/>
        <path class="cls-6" d="M118.16,119.99c-8.67-.25-17.33-.68-25.98-1.36-1.16-.09-2.33-.2-3.48-.36-.59-.08-1.17-.17-1.75-.29-.57-.11-1.09-.31-1.63-.49-.21-.07-.3-.22-.33-.43-.05-.46-.05-.91-.06-1.37,0-.57.88-.57.89,0,0,.46,0,.91.06,1.37-.11-.14-.22-.28-.33-.43.46.15.9.34,1.37.44.52.11,1.05.2,1.58.28,1.05.16,2.1.26,3.15.35,2.11.18,4.23.32,6.34.46,4.28.28,8.57.51,12.86.69,2.43.1,4.87.19,7.3.25.57.02.57.9,0,.88h0Z"/>
        <path class="cls-6" d="M116.12,118.21c-7.3-.2-14.59-.67-21.86-1.42-.56-.06-.57-.94,0-.88,7.26.75,14.56,1.22,21.86,1.42.57.02.57.9,0,.88h0Z"/>
        <path class="cls-6" d="M120.21,110.31c-.72-.05-1.44-.1-2.16-.15-.23-.02-.46-.19-.44-.44.01-.22.2-.46.44-.44.72.05,1.44.1,2.16.15.23.02.46.19.44.44-.01.22-.2.46-.44.44h0Z"/>
        <path class="cls-6" d="M120.57,109.22c-.44.04-.88.09-1.32.13-.11.01-.24-.06-.31-.13-.08-.08-.14-.2-.13-.31,0-.11.04-.23.13-.31.09-.08.19-.12.31-.13.44-.04.88-.09,1.32-.13.11-.01.24.06.31.13.08.08.14.2.13.31,0,.11-.04.23-.13.31-.09.08-.19.12-.31.13h0Z"/>
        <path class="cls-6" d="M21.65,104.36c.66,3.49,1.67,6.91,2.22,10.42.14.9.19,1.78.04,2.68-.15.87-.46,1.71-.74,2.55-.38,1.14-.76,2.28-1.15,3.42-.18.54-1.04.31-.86-.23.37-1.09.73-2.19,1.1-3.29.28-.83.59-1.66.76-2.53.18-.91.09-1.83-.07-2.73-.59-3.38-1.52-6.69-2.16-10.07-.1-.55.75-.79.86-.23h0Z"/>
        <path class="cls-6" d="M46.33,120.67c-1.92.1-3.83.39-5.73.66-3.13.43-6.26.91-9.39,1.4-7.21,1.12-14.41,2.31-21.61,3.45-3.01.48-6.02.96-9.04,1.39-.56.08-.8-.77-.24-.85,6.15-.87,12.27-1.91,18.4-2.9,6.93-1.12,13.86-2.25,20.8-3.23,2.25-.32,4.53-.69,6.8-.81.57-.03.57.85,0,.88h0Z"/>
        <path class="cls-6" d="M81.35,115.01c-3.15.47-6.29.96-9.43,1.45-.56.09-.8-.76-.24-.85,3.14-.5,6.29-.99,9.43-1.45.56-.08.8.77.24.85h0Z"/>
        <path class="cls-6" d="M72.71,36.75c-.26,1.06-.44,2.14-.52,3.23-.02.24-.19.44-.44.44-.23,0-.46-.2-.44-.44.09-1.17.28-2.33.55-3.47.06-.23.32-.37.55-.31.24.06.37.31.31.54h0Z"/>
        <path class="cls-6" d="M40.1,28.46c-2.85,2.03-4.14,5.61-4.75,8.9-.69,3.74-.61,7.57-1.19,11.32-.34,2.15-.79,4.29-1.09,6.45-.08.56-.93.32-.86-.23.27-1.99.68-3.95,1.01-5.93.33-1.98.48-3.96.62-5.96.26-3.69.59-7.46,2.21-10.85.83-1.75,2.01-3.33,3.6-4.47.47-.33.91.43.45.76h0Z"/>
        <path class="cls-6" d="M47.89,39.61c.43.14.67.53.69.97.02.45-.24.83-.6,1.08-.34.24-.79.36-1.2.42-.51.07-1.03.02-1.44-.32-.18-.15-.32-.37-.4-.6-.09-.27-.05-.53.06-.79.09-.21.42-.28.61-.16.22.14.26.38.16.6.02-.05.03-.05.01,0-.01.05-.01.04,0-.02,0,.03,0,.07,0,.1,0-.13.02.01.02.03.01.03,0,.02-.01-.02,0,.02.02.04.03.06.02.03.04.06.06.09-.06-.09.04.03.05.04.06.06-.06-.03.02.02.03.02.06.04.09.05-.08-.04.08.02.1.03,0,0,.14.03.06.02.11.02.22.01.32,0,0,0,.14-.02.07,0,.06,0,.12-.02.18-.03.09-.02.18-.04.27-.07.08-.02.16-.05.25-.08-.09.03.04-.02.06-.03.04-.02.08-.04.12-.07.02-.01.1-.07.04-.02.04-.03.07-.07.11-.1.06-.06-.02.05.03-.03,0-.02.05-.12.03-.06-.02.07.01-.05.02-.07.03-.09,0,.09,0,0,0-.02.01-.11,0-.12,0,.02,0,.04,0,.06,0-.02,0-.04-.01-.06-.03-.1,0-.02,0,0,0-.02-.02-.04-.03-.05-.03-.04-.02-.03.02.02,0-.01-.02-.02-.03-.03-.02-.02-.01-.01.03.02-.02-.01-.03-.02-.05-.03.06.02.07.03.02.01-.22-.07-.39-.31-.31-.54.07-.22.31-.39.55-.31h0Z"/>
      </g>
      <path class="cls-6" d="M55.47,56.92c0,.45,0,.89,0,1.34,0,.34.04.72-.08,1.05-.28.81-1.09.56-1.66.26-1.34-.69-2.78-1.21-4.01-2.09-1.18-.86-1.91-2.11-2.58-3.37-.34-.65-.66-1.3-1.03-1.93-.09-.16-.14-.27-.31-.34-.2-.08-.51-.04-.72-.05-.52,0-1.04-.02-1.55-.03-1.45-.03-3.28-.03-4.1-1.45-.28-.49.48-.94.77-.45.63,1.1,2.24.99,3.34,1.01.78.01,1.67-.09,2.44.07.63.13.89.72,1.17,1.23.63,1.15,1.16,2.36,1.93,3.42.78,1.06,1.91,1.68,3.08,2.24.68.33,1.37.63,2.03.97.06.03.11.06.17.09.15.07.18.12.23-.03.05-.14,0-.38,0-.53,0-.47,0-.95,0-1.42,0-.57.89-.57.89,0h0Z"/>
      <path class="cls-6" d="M57.93,53.71c.56.72,1.13,1.44,1.69,2.16.47.6.87,1.17.62,1.96-.24.77-.8,1.4-1.05,2.16-.13.4-.19.85,0,1.24.13.3.37.56.53.84.22.37.34.76.11,1.15-.26.46-.8.86-1.26,1.11-1.14.62-2.61.68-3.84.31-.55-.17-.31-1.02.24-.85,1.02.31,2.27.29,3.21-.25.2-.12.89-.54.89-.8,0-.09-.15-.28-.2-.36-.16-.26-.35-.5-.48-.78-.57-1.21.17-2.41.73-3.46.19-.35.41-.72.25-1.12-.13-.31-.4-.57-.6-.83-.49-.62-.98-1.25-1.47-1.87-.35-.44.28-1.07.63-.62h0Z"/>
      <path class="cls-6" d="M48.14,57.4c1.87,2.01,4.76,2.95,6.2,5.37.8,1.33,1.03,2.9,1.19,4.42.19,1.8.28,3.62.27,5.43-.01,2.05-.16,4.1-.42,6.14-.06.44-.55.59-.83.22-2.51-3.32-5.5-6.17-8.81-8.71-1.51-1.16-3.02-2.35-4.11-3.93-1.01-1.46-1.53-3.22-1.59-4.98-.06-1.99.5-4,1.65-5.64.32-.46,1.09-.02.77.45-2,2.86-2.05,6.85-.06,9.74,1.06,1.54,2.59,2.69,4.06,3.82,1.53,1.18,3.02,2.41,4.4,3.75,1.61,1.57,3.1,3.27,4.45,5.06-.28.07-.55.15-.83.22.45-3.45.55-6.95.27-10.42-.13-1.55-.24-3.22-.92-4.65-.6-1.26-1.66-2.15-2.79-2.94-1.22-.85-2.51-1.63-3.54-2.73-.39-.42.24-1.04.63-.62h0Z"/>
      <path class="cls-6" d="M41.82,57.14c-.75,1.07-1.18,2.31-1.87,3.42-.63,1-1.48,1.83-2.46,2.51-2.21,1.52-4.9,2.09-7.49,2.61-.51.1-.74-.51-.34-.81,1.11-.81.66-2.54.61-3.67-.06-1.4.42-2.74.9-4.04.75-2.01,1.8-4.19,3.93-5.03,1.53-.6,3.21-.26,4.76.09.56.12.32.98-.24.85-1.67-.37-3.5-.73-5.01.31-1.13.78-1.81,2.1-2.32,3.33-.63,1.54-1.24,3.14-1.11,4.83.11,1.47.27,3.1-1.07,4.09-.11-.27-.23-.54-.34-.81,2.47-.5,5.03-1.02,7.16-2.44.97-.65,1.79-1.47,2.38-2.47.62-1.05,1.04-2.21,1.75-3.22.32-.46,1.09-.02.77.45h0Z"/>
      <path class="cls-6" d="M40.8,53.42c-2.77-.09-4.67,2.25-6.19,4.22-.15.19-.38.29-.61.16-.19-.11-.31-.42-.16-.6,1.72-2.22,3.84-4.76,6.96-4.66.57.02.57.9,0,.88h0Z"/>
      <path class="cls-6" d="M46.92,57.51c-.42-1.05-.99-2.05-1.67-2.97-.08-.11-.16-.21-.24-.32-.02-.02-.25-.27-.25-.29-.02.06.2.01.2.01,0,0-.05.07-.06.09-.07.12-.12.25-.18.37-.23.53-.38,1.1-.46,1.68-.04.24-.34.37-.55.31-.25-.07-.35-.31-.31-.54.11-.7.32-1.38.61-2.02.14-.31.33-.64.68-.72.43-.1.71.21.95.51.88,1.11,1.59,2.33,2.12,3.65.09.22-.1.48-.31.54-.25.07-.46-.09-.55-.31h0Z"/>
      <path class="cls-6" d="M35.27,63.82c2.38.75,4.58,1.96,6.48,3.56.44.37-.19.99-.63.62-1.78-1.5-3.86-2.63-6.09-3.33-.54-.17-.31-1.02.24-.85h0Z"/>
      <path class="cls-6" d="M40.97,67.16c-.73,1.45-1.57,2.84-2.51,4.17-.05-.2-.11-.4-.16-.6,1.34.93,2.67,1.87,4.01,2.8,1.21.85,2.4,1.68,3.52,2.65,1.42,1.23,2.74,2.59,3.93,4.04,1.36,1.67,2.56,3.45,3.58,5.35.27.5-.5.95-.77.45-1.76-3.28-4.08-6.25-6.85-8.75-1.81-1.64-3.86-2.97-5.86-4.37-.67-.47-1.34-.94-2.01-1.41-.18-.13-.31-.4-.16-.6.94-1.33,1.78-2.72,2.51-4.17.26-.51,1.02-.06.77.45h0Z"/>
    </g>
    <g>
      <path class="cls-7" d="M198.72,30.69c-2.43.12-4.58-.15-6.46-.79-1.88-.64-3.35-1.6-4.41-2.89s-1.59-2.85-1.59-4.69c0-1.19.25-2.29.74-3.29.49-1,1.17-1.9,2.03-2.69-1.56.33-3.09.68-4.59,1.05-1.49.37-2.84.75-4.04,1.12s-2.17.74-2.89,1.08l-1.54-3.92c.28-.05.7-.13,1.26-.25.56-.12,1.33-.28,2.31-.49.89-.19,1.87-.65,2.94-1.4,1.07-.75,2.16-1.64,3.27-2.68,1.11-1.04,2.14-2.12,3.1-3.25s1.75-2.19,2.38-3.17c-.91.21-1.9.42-2.96.63s-2.08.39-3.04.53-1.78.23-2.43.28l-1.22-3.89c.86,0,1.88-.05,3.04-.16,1.17-.1,2.34-.24,3.54-.4,1.19-.16,2.29-.36,3.29-.59,1-.23,1.79-.47,2.35-.7l3.5,2.24c-.49,1-1.19,2.15-2.1,3.43s-1.97,2.57-3.17,3.85c-1.2,1.28-2.51,2.47-3.94,3.57,1.84-.37,3.66-.75,5.44-1.12,1.79-.37,3.37-.71,4.76-1,1.39-.29,2.41-.5,3.06-.61l.66,4.06c-.44,0-.98.02-1.61.07-.63.05-1.32.13-2.07.25-1.35.16-2.62.54-3.8,1.14-1.18.6-2.13,1.41-2.87,2.43-.74,1.03-1.1,2.26-1.1,3.71,0,1.05.41,1.91,1.23,2.59.82.68,1.95,1.15,3.4,1.42,1.45.27,3.09.33,4.93.19-.37.58-.69,1.31-.94,2.17-.26.86-.41,1.59-.46,2.17Z"/>
      <path class="cls-7" d="M227.42,29.08c-.09-.37-.27-.82-.53-1.33-.26-.51-.55-1.01-.89-1.49-.34-.48-.67-.87-1-1.17,3.2-.49,5.63-1.53,7.3-3.13,1.67-1.6,2.55-3.48,2.64-5.65.09-1.73-.22-3.27-.95-4.62-.72-1.35-1.71-2.45-2.96-3.29-1.25-.84-2.62-1.34-4.11-1.5-.19,2.17-.54,4.39-1.05,6.65-.51,2.26-1.21,4.39-2.08,6.37-.88,1.98-1.94,3.66-3.2,5.04-.96,1.03-1.88,1.62-2.78,1.79-.9.16-1.85.04-2.85-.38-.98-.42-1.84-1.08-2.59-2s-1.32-1.99-1.71-3.24c-.4-1.25-.56-2.58-.49-4.01.12-2.12.62-4.07,1.5-5.83s2.08-3.28,3.57-4.57c1.49-1.28,3.21-2.25,5.14-2.91,1.94-.65,4-.92,6.2-.8,1.77.09,3.44.49,5,1.19,1.56.7,2.93,1.66,4.11,2.89,1.18,1.23,2.09,2.64,2.73,4.25.64,1.61.9,3.37.79,5.29-.16,3.2-1.28,5.87-3.36,8.03-2.08,2.16-4.89,3.63-8.44,4.43ZM216.04,22.01c.26.19.53.28.8.28s.56-.14.84-.42c.84-.84,1.62-2.03,2.33-3.57.71-1.54,1.31-3.28,1.79-5.21s.79-3.91.93-5.92c-1.61.37-3.04,1.05-4.29,2.03-1.25.98-2.23,2.17-2.96,3.55-.72,1.39-1.13,2.91-1.22,4.57-.05,1.1.1,2.05.44,2.85.34.81.79,1.42,1.35,1.84Z"/>
      <path class="cls-7" d="M243.66,8.75v-3.22h12.32v3.22h-12.32ZM263.61,31.32v-8.12c-.96,1.21-2.02,2.36-3.2,3.45-1.18,1.08-2.35,2.01-3.52,2.78-.21-.3-.5-.67-.86-1.08-.36-.42-.71-.79-1.03-1.12v3.22h-10.15v-10.04h10.15v5.88c.82-.51,1.66-1.12,2.52-1.84s1.7-1.47,2.5-2.28c.81-.8,1.5-1.59,2.08-2.36h-6.23v-3.25h7.73v-2.03h-6.61V.35h16.94v14.17h-6.69v2.03h8.58v3.25h-7.07c.65.82,1.43,1.64,2.33,2.47s1.83,1.6,2.8,2.31c.97.71,1.87,1.3,2.71,1.77-.23.16-.51.43-.84.79-.33.36-.65.74-.96,1.14-.32.4-.57.74-.75,1.02-1.14-.75-2.32-1.66-3.52-2.73s-2.29-2.22-3.27-3.43v8.19h-3.64ZM245.34,13.68v-3.22h9.1v3.22h-9.1ZM245.34,18.62v-3.25h9.1v3.25h-9.1ZM245.38,3.85V.52h9.06v3.33h-9.06ZM248.49,27.26h2.83v-3.67h-2.83v3.67ZM260.67,5.98h2.94v-2.48h-2.94v2.48ZM260.67,11.44h2.94v-2.48h-2.94v2.48ZM267.25,5.98h3.01v-2.48h-3.01v2.48ZM267.25,11.44h3.01v-2.48h-3.01v2.48Z"/>
      <path class="cls-7" d="M281.04,31.15c-.47-.26-1.03-.53-1.7-.82-.67-.29-1.24-.48-1.73-.58.65-1,1.23-2.19,1.73-3.57.5-1.38.9-2.78,1.21-4.22.3-1.43.47-2.72.49-3.87l3.6.52c-.12,1.24-.29,2.44-.52,3.61.28.3.56.59.84.86.28.27.57.53.88.79v-6.89h-6.83v-3.29h15.4v3.29h-4.94v2.42h4.41v3.18h-4.41v3.36c.84.3,1.77.56,2.8.77,1.03.21,2.18.35,3.46.42-.26-.4-.59-.86-1-1.38-.41-.53-.78-.92-1.1-1.17.49-.21,1.04-.5,1.66-.86.62-.36,1.23-.76,1.84-1.19.61-.43,1.14-.85,1.61-1.24h-3.15V5.46h4.03c.09-.3.2-.64.31-1,.12-.36.22-.69.32-1h-5.95V.38h15.89v3.08h-5.99c-.09.3-.19.64-.3,1-.1.36-.21.69-.33,1h5.53v15.82h-3.15c.68.56,1.48,1.14,2.4,1.75.92.61,1.74,1.07,2.47,1.4-.33.3-.69.72-1.1,1.24-.41.53-.74.99-1,1.38.49-.02.92-.04,1.29-.05s.65-.03.84-.05c-.12.28-.24.66-.38,1.14-.14.48-.27.96-.38,1.45-.12.49-.2.9-.24,1.23h-11.06c-2.47,0-4.65-.16-6.53-.49-1.88-.33-3.55-.85-5.01-1.56-1.46-.71-2.79-1.65-4.01-2.82-.28.93-.6,1.84-.96,2.73-.36.89-.78,1.73-1.24,2.52ZM280.79,12.14V.38h12.25v11.76h-12.25ZM284.47,5h4.86v-1.82h-4.86v1.82ZM284.47,9.38h4.86v-1.86h-4.86v1.86ZM298.79,27.23c.86,0,1.83,0,2.9-.02,1.07-.01,2.15-.03,3.24-.05,1.08-.02,2.07-.05,2.96-.07-.54-.33-1.12-.71-1.75-1.14-.63-.43-1.22-.88-1.79-1.35-.56-.47-1.03-.89-1.4-1.26l2.07-2.07h-5.36l2.03,2.07c-.35.37-.82.8-1.42,1.28-.59.48-1.23.94-1.89,1.38-.67.44-1.28.83-1.84,1.15.35.02.72.04,1.1.05.39.01.76.02,1.14.02ZM299.31,10.04h6.12v-1.75h-6.12v1.75ZM299.31,14.24h6.12v-1.78h-6.12v1.78ZM299.31,18.41h6.12v-1.78h-6.12v1.78Z"/>
      <path class="cls-7" d="M324.33,31.18c-.28-.47-.65-1.03-1.12-1.68-.47-.65-1-1.21-1.61-1.68,2.47-.7,4.38-1.51,5.71-2.43,1.33-.92,2.25-2.01,2.76-3.27-.75.37-1.49.56-2.24.56-1.77,0-3.2-.5-4.29-1.5-1.08-1-1.66-2.36-1.73-4.06-.05-1.17.19-2.21.7-3.13.51-.92,1.24-1.65,2.17-2.19.93-.54,1.99-.81,3.18-.81.19,0,.35,0,.49.02.14.01.29.03.46.05-.05-.42-.09-.85-.14-1.29-.05-.44-.07-.91-.07-1.4-1.89.07-3.73.17-5.53.32-1.8.14-3.44.3-4.93.47-1.49.17-2.73.38-3.71.61l-.59-4.06c.84-.07,2.02-.15,3.54-.23,1.52-.08,3.25-.17,5.2-.26,1.95-.09,3.96-.19,6.04-.28V0h4.06v4.76c1.82-.07,3.56-.13,5.21-.19s3.14-.11,4.44-.14,2.33-.04,3.08-.02l-.28,4.1c-1.35-.16-3.14-.26-5.37-.3s-4.59-.03-7.09.02c0,.84.03,1.69.09,2.55.06.86.11,1.69.16,2.49,1.14,1.35,1.71,3.15,1.71,5.39,0,3.1-.9,5.71-2.7,7.82-1.8,2.11-4.33,3.68-7.59,4.71ZM327.87,19.18c.65-.05,1.17-.27,1.54-.67s.56-.91.56-1.54c0-.21-.02-.44-.05-.68s-.08-.51-.12-.79c-.49-.56-1.11-.84-1.86-.84-.65,0-1.2.21-1.64.63s-.65.96-.63,1.61c0,.68.2,1.23.61,1.66s.94.64,1.59.61Z"/>
      <path class="cls-7" d="M378.1,24.5c-.77-.42-1.7-.98-2.78-1.68-1.08-.7-2.24-1.48-3.46-2.33s-2.45-1.73-3.66-2.62-2.34-1.77-3.39-2.61-1.93-1.58-2.62-2.21c-.35-.33-.62-.49-.8-.49s-.44.14-.77.42c-.72.68-1.56,1.41-2.52,2.19-.96.78-1.94,1.56-2.96,2.33-1.01.77-2,1.48-2.96,2.13l-3.29-3.61c.7-.33,1.55-.78,2.56-1.37,1-.58,2.04-1.23,3.1-1.94,1.06-.71,2.06-1.42,2.99-2.13.93-.71,1.69-1.36,2.28-1.94.58-.61,1.12-.89,1.63-.84s1.08.35,1.73.91c.54.44,1.34,1.07,2.4,1.87,1.06.8,2.27,1.69,3.62,2.64,1.35.96,2.75,1.91,4.18,2.85,1.43.95,2.81,1.8,4.13,2.57,1.32.77,2.47,1.35,3.45,1.75-.33.26-.68.64-1.07,1.14-.38.5-.74,1.02-1.07,1.56-.33.54-.56,1-.7,1.4ZM372.63,10.6c-.51-.68-1.17-1.4-1.96-2.17-.79-.77-1.51-1.38-2.13-1.82l1.78-1.71c.37.26.83.64,1.37,1.14s1.07,1.01,1.59,1.52c.52.51.93.95,1.21,1.29l-1.86,1.75ZM375.57,7.7c-.51-.68-1.18-1.39-1.99-2.15-.82-.76-1.54-1.36-2.17-1.8l1.79-1.68c.37.26.83.62,1.37,1.1.54.48,1.07.97,1.61,1.49.54.51.95.95,1.22,1.29l-1.82,1.75Z"/>
      <path class="cls-7" d="M408.02,30.13c-2.43-.28-4.57-.99-6.44-2.12-1.87-1.13-3.32-2.61-4.38-4.44s-1.57-3.91-1.57-6.25c0-1.68.41-3.39,1.22-5.13.82-1.74,2.02-3.28,3.61-4.64-1.87.3-3.72.62-5.57.96-1.84.34-3.52.66-5.02.96-1.51.3-2.67.57-3.48.8l-.95-4.55c.77-.05,1.84-.15,3.2-.31,1.36-.16,2.9-.37,4.62-.61,1.71-.25,3.49-.51,5.32-.81,1.83-.29,3.61-.59,5.32-.89,1.71-.3,3.25-.6,4.62-.89,1.37-.29,2.43-.55,3.2-.79l1.12,4.27c-.35.02-.79.08-1.31.16s-1.12.17-1.8.26c-1.26.16-2.48.56-3.66,1.19-1.18.63-2.23,1.44-3.15,2.43-.92.99-1.65,2.13-2.19,3.41-.54,1.28-.8,2.67-.8,4.17,0,1.77.46,3.25,1.37,4.45s2.15,2.12,3.73,2.78c1.58.67,3.34,1.12,5.3,1.35-.35.37-.69.82-1.02,1.35s-.61,1.05-.84,1.58c-.23.52-.38.96-.46,1.31Z"/>
      <path class="cls-7" d="M176.5,119.57v-33.67h7.07l.49,4.06c.65-1.4,1.75-2.57,3.29-3.5,1.54-.93,3.31-1.4,5.32-1.4,2.19,0,4.11.51,5.74,1.54,1.63,1.03,2.89,2.5,3.78,4.41.88-1.73,2.18-3.15,3.88-4.27,1.7-1.12,3.65-1.68,5.84-1.68,3.31,0,5.99,1.15,8.01,3.46,2.03,2.31,3.04,5.56,3.04,9.76v21.28h-7.98v-19.46c0-2.47-.44-4.41-1.33-5.81-.89-1.4-2.12-2.1-3.71-2.1-2.01,0-3.56.72-4.65,2.17-1.1,1.45-1.65,3.5-1.65,6.16v19.04h-7.91v-19.46c0-2.47-.47-4.41-1.4-5.81-.93-1.4-2.2-2.1-3.78-2.1-1.96,0-3.48.74-4.55,2.21-1.07,1.47-1.61,3.51-1.61,6.12v19.04h-7.91Z"/>
      <path class="cls-7" d="M236.48,80.37c-1.35,0-2.52-.49-3.5-1.47-.98-.98-1.47-2.15-1.47-3.5s.49-2.52,1.47-3.5c.98-.98,2.15-1.47,3.5-1.47s2.52.49,3.5,1.47c.98.98,1.47,2.15,1.47,3.5s-.49,2.52-1.47,3.5c-.98.98-2.15,1.47-3.5,1.47ZM232.63,119.57v-33.67h7.84v33.67h-7.84Z"/>
      <path class="cls-7" d="M249.99,119.57v-33.67h7.07l.42,3.99c.93-1.31,2.17-2.44,3.71-3.4,1.54-.96,3.36-1.43,5.46-1.43,3.5,0,6.36,1.12,8.57,3.36,2.22,2.24,3.33,5.53,3.33,9.87v21.28h-7.91v-19.39c0-2.66-.54-4.66-1.61-5.99-1.07-1.33-2.52-2-4.34-2-2.01,0-3.64.69-4.9,2.07-1.26,1.38-1.89,3.42-1.89,6.12v19.18h-7.91Z"/>
      <path class="cls-7" d="M300.95,120.34c-3.31,0-5.84-.61-7.59-1.82s-2.62-3.64-2.62-7.28v-18.55h-6.44v-6.79h6.44v-11.83h7.84v11.83h9.31v6.79h-9.31v16.52c0,1.59.38,2.66,1.15,3.22.77.56,1.88.84,3.33.84.89,0,1.78-.14,2.69-.42.91-.28,1.62-.56,2.14-.84v7.21c-.84.33-1.89.59-3.15.8-1.26.21-2.52.31-3.78.31Z"/>
      <path class="cls-7" d="M328.6,120.34c-3.08,0-5.85-.73-8.29-2.2-2.45-1.47-4.39-3.52-5.81-6.16-1.42-2.64-2.13-5.73-2.13-9.28s.71-6.64,2.13-9.27,3.36-4.69,5.81-6.16c2.45-1.47,5.21-2.21,8.29-2.21s5.98.73,8.43,2.21c2.45,1.47,4.38,3.52,5.77,6.16,1.4,2.64,2.1,5.73,2.1,9.27s-.7,6.64-2.1,9.28c-1.4,2.64-3.32,4.69-5.77,6.16-2.45,1.47-5.26,2.2-8.43,2.2ZM328.6,113.2c2.47,0,4.49-.91,6.05-2.73,1.56-1.82,2.35-4.41,2.35-7.77s-.78-5.95-2.35-7.77c-1.56-1.82-3.58-2.73-6.05-2.73s-4.41.91-5.95,2.73c-1.54,1.82-2.31,4.41-2.31,7.77s.77,5.95,2.31,7.77c1.54,1.82,3.52,2.73,5.95,2.73Z"/>
      <path class="cls-7" d="M351.7,119.57v-49.91h7.91v30.17l11.69-13.93h9.52l-13.23,15.19,14,18.48h-9.45l-12.53-17.08v17.08h-7.91Z"/>
      <path class="cls-7" d="M398.53,120.34c-3.5,0-6.36-1.12-8.57-3.36-2.22-2.24-3.33-5.55-3.33-9.94v-21.14h7.91v19.39c0,2.57.55,4.53,1.64,5.88,1.1,1.35,2.53,2.03,4.31,2.03,2.01,0,3.64-.7,4.9-2.1,1.26-1.4,1.89-3.45,1.89-6.16v-19.04h7.91v33.67h-7.07l-.42-3.99c-.89,1.26-2.1,2.37-3.64,3.33-1.54.96-3.38,1.43-5.53,1.43Z"/>
      <path class="cls-7" d="M448.62,121.13c-2.77-.32-5.23-1.13-7.36-2.44-2.13-1.31-3.79-3-4.98-5.08-1.19-2.08-1.78-4.45-1.78-7.12,0-1.92.46-3.88,1.38-5.88s2.3-3.77,4.14-5.32c-2.13.35-4.26.72-6.38,1.12-2.12.4-4.04.77-5.76,1.12-1.72.35-3.05.64-3.98.88l-1.08-5.16c.88-.05,2.1-.17,3.66-.36s3.32-.42,5.28-.7c1.96-.28,3.99-.59,6.08-.92,2.09-.33,4.12-.67,6.08-1.02,1.96-.35,3.72-.69,5.28-1.02,1.56-.33,2.78-.63,3.66-.9l1.28,4.88c-.43.03-.94.08-1.54.16-.6.08-1.27.17-2.02.28-1.47.19-2.87.64-4.2,1.36-1.33.72-2.53,1.65-3.58,2.8-1.05,1.15-1.89,2.45-2.5,3.92s-.92,3.05-.92,4.76c0,2.05.52,3.76,1.56,5.12,1.04,1.36,2.46,2.42,4.26,3.18,1.8.76,3.82,1.27,6.06,1.54-.4.4-.79.9-1.16,1.5-.37.6-.69,1.2-.96,1.8-.27.6-.44,1.1-.52,1.5ZM451.98,105.81c-.51-.85-1.17-1.75-2-2.68-.83-.93-1.59-1.69-2.28-2.28l2.2-1.76c.4.32.88.79,1.44,1.4.56.61,1.11,1.24,1.66,1.88.55.64.97,1.17,1.26,1.6l-2.28,1.84ZM455.58,102.77c-.51-.83-1.18-1.71-2.02-2.64-.84-.93-1.61-1.68-2.3-2.24l2.16-1.8c.4.32.89.79,1.46,1.4.57.61,1.14,1.23,1.7,1.86s.99,1.17,1.28,1.62l-2.28,1.8Z"/>
      <path class="cls-7" d="M460.46,122.53c-.35-.29-.89-.64-1.62-1.04-.73-.4-1.34-.68-1.82-.84.85-1.07,1.54-2.16,2.06-3.28s.9-2.41,1.14-3.88c.24-1.47.36-3.2.36-5.2v-9.52c-.45-.35-1.03-.76-1.72-1.24-.7-.48-1.31-.84-1.84-1.08.72-.61,1.41-1.37,2.08-2.28.67-.91,1.29-1.87,1.86-2.88.57-1.01,1.07-2,1.5-2.96.43-.96.76-1.8,1-2.52l4.48.96c-.11.29-.23.6-.38.92s-.29.65-.42,1h6.4l1.24,1.4c-.35.75-.79,1.59-1.32,2.52-.54.93-1.07,1.84-1.6,2.72h4.24v1.72c1.23-.69,2.29-1.6,3.18-2.72.89-1.12,1.53-2.35,1.9-3.68h-4.32v-3.6h17.36c-.11,2.51-.29,4.56-.54,6.16-.25,1.6-.61,2.84-1.08,3.72s-1.07,1.49-1.8,1.84c-.73.35-1.62.52-2.66.52h-2.64c-.03-.35-.09-.78-.18-1.3-.09-.52-.2-1.03-.32-1.52-.12-.49-.25-.89-.38-1.18h2.16c.64,0,1.14-.09,1.52-.26.37-.17.66-.59.86-1.26.2-.67.34-1.71.42-3.12h-3.92c-.51,2.03-1.38,3.87-2.62,5.54-1.24,1.67-2.81,3.09-4.7,4.26-.24-.32-.57-.72-1-1.2-.43-.48-.84-.91-1.24-1.28v9.08c.69-1.01,1.33-2.19,1.92-3.52.59-1.33,1.03-2.55,1.32-3.64l3.88,1.04c-.11.35-.23.72-.36,1.12-.13.4-.28.81-.44,1.24h1.84v-3.32h4.24v3.32h5.44v3.72h-5.44v3.48h6.36v3.72h-6.36v8.28h-4.24v-8.28h-7.04v-3.72h7.04v-3.48h-3.6c-.27.53-.55,1.05-.86,1.54s-.61.93-.9,1.3c-.29-.21-.72-.47-1.28-.76-.56-.29-1.07-.53-1.52-.72v10.64c0,2.27-1.36,3.4-4.08,3.4h-2.64c-.03-.35-.09-.77-.18-1.28-.09-.51-.2-1.01-.3-1.5-.11-.49-.23-.87-.36-1.14h2.52c.45,0,.78-.08.98-.24.2-.16.3-.45.3-.88v-5.36h-8.12c-.19,2.19-.59,4.13-1.2,5.84-.61,1.71-1.47,3.27-2.56,4.68ZM463.46,95.33h3.84c.29-.53.59-1.08.9-1.64.3-.56.54-1.04.7-1.44h-3.6c-.27.53-.56,1.05-.88,1.56s-.64,1.01-.96,1.52ZM464.38,102.05h2.24v-3h-2.24v3ZM464.38,108.37h2.24v-3h-2.24v3ZM470.1,102.05h2.24v-3h-2.24v3ZM470.1,108.37h2.24v-3h-2.24v3Z"/>
      <path class="cls-7" d="M501.02,103.61c-.48-.43-1.14-.93-1.98-1.52-.84-.59-1.71-1.15-2.62-1.7s-1.71-.97-2.4-1.26l2.36-3.84c1.17.56,2.45,1.23,3.82,2.02,1.37.79,2.53,1.57,3.46,2.34-.21.24-.5.62-.86,1.14-.36.52-.71,1.04-1.04,1.56-.33.52-.58.94-.74,1.26ZM499.22,122.25l-4.08-2.92c.61-.8,1.24-1.75,1.88-2.84.64-1.09,1.26-2.23,1.86-3.42s1.15-2.35,1.64-3.5c.49-1.15.88-2.17,1.14-3.08.21.24.55.55,1.02.92.47.37.95.73,1.46,1.08.51.35.93.63,1.28.84-.29.93-.68,1.98-1.16,3.14-.48,1.16-1.01,2.34-1.6,3.54-.59,1.2-1.17,2.34-1.76,3.42s-1.15,2.02-1.68,2.82ZM503.74,94.77c-.45-.43-1.1-.93-1.94-1.52-.84-.59-1.72-1.15-2.64-1.68-.92-.53-1.73-.95-2.42-1.24l2.44-3.76c.72.29,1.55.71,2.48,1.24s1.84,1.08,2.72,1.64c.88.56,1.57,1.05,2.08,1.48-.21.24-.51.61-.88,1.12s-.73,1.01-1.08,1.52c-.35.51-.6.91-.76,1.2ZM504.94,122.89c-.29-.61-.67-1.29-1.14-2.04-.47-.75-.98-1.4-1.54-1.96,3.07-1.01,5.49-2.46,7.28-4.34,1.79-1.88,3.03-4.23,3.72-7.06h-9.08v-4.28h9.72c.03-.37.05-.76.06-1.16.01-.4.02-.8.02-1.2v-4.16h-7.4v-4.12h7.4v-6.64h4.72v6.64h9.6v10.64h3.52v4.28h-11.64c1.17,2.48,2.81,4.67,4.9,6.56s4.51,3.33,7.26,4.32c-.35.35-.71.79-1.1,1.32s-.75,1.07-1.08,1.6-.58.99-.74,1.36c-2.8-1.33-5.23-2.99-7.28-4.98-2.05-1.99-3.73-4.35-5.04-7.1-1.01,2.77-2.53,5.21-4.54,7.3-2.01,2.09-4.55,3.77-7.62,5.02ZM518.62,103.21h4.88v-6.52h-4.8v4.16c0,.4,0,.8-.02,1.2-.01.4-.03.79-.06,1.16Z"/>
      <path class="cls-7" d="M559.62,121.13c-2.77-.32-5.23-1.13-7.36-2.44-2.13-1.31-3.79-3-4.98-5.08-1.19-2.08-1.78-4.45-1.78-7.12,0-1.92.46-3.88,1.38-5.88s2.3-3.77,4.14-5.32c-2.13.35-4.26.72-6.38,1.12-2.12.4-4.04.77-5.76,1.12-1.72.35-3.05.64-3.98.88l-1.08-5.16c.88-.05,2.1-.17,3.66-.36s3.32-.42,5.28-.7c1.96-.28,3.99-.59,6.08-.92,2.09-.33,4.12-.67,6.08-1.02,1.96-.35,3.72-.69,5.28-1.02,1.56-.33,2.78-.63,3.66-.9l1.28,4.88c-.43.03-.94.08-1.54.16-.6.08-1.27.17-2.02.28-1.47.19-2.87.64-4.2,1.36-1.33.72-2.53,1.65-3.58,2.8-1.05,1.15-1.89,2.45-2.5,3.92s-.92,3.05-.92,4.76c0,2.05.52,3.76,1.56,5.12,1.04,1.36,2.46,2.42,4.26,3.18,1.8.76,3.82,1.27,6.06,1.54-.4.4-.79.9-1.16,1.5-.37.6-.69,1.2-.96,1.8-.27.6-.44,1.1-.52,1.5ZM562.98,105.81c-.51-.85-1.17-1.75-2-2.68-.83-.93-1.59-1.69-2.28-2.28l2.2-1.76c.4.32.88.79,1.44,1.4.56.61,1.11,1.24,1.66,1.88.55.64.97,1.17,1.26,1.6l-2.28,1.84ZM566.58,102.77c-.51-.83-1.18-1.71-2.02-2.64-.84-.93-1.61-1.68-2.3-2.24l2.16-1.8c.4.32.89.79,1.46,1.4.57.61,1.14,1.23,1.7,1.86s.99,1.17,1.28,1.62l-2.28,1.8Z"/>
      <path class="cls-7" d="M593.46,121.85c-3.25.16-6.11,0-8.56-.46-2.45-.47-4.35-1.33-5.7-2.6-1.35-1.27-2.02-3.01-2.02-5.22,0-1.28.35-2.41,1.04-3.38s1.64-1.77,2.84-2.38,2.58-1.03,4.14-1.24c1.56-.21,3.21-.21,4.94,0-.43-.56-.84-1.15-1.24-1.76s-.79-1.24-1.16-1.88c-2.51.43-4.95.77-7.34,1.02-2.39.25-4.43.37-6.14.34l-.92-4.24c1.49.05,3.33-.02,5.52-.22,2.19-.2,4.44-.49,6.76-.86-.56-1.15-1.07-2.28-1.52-3.4-1.6.21-3.15.39-4.66.52-1.51.13-2.82.21-3.94.24l-.92-4.16c1.09.03,2.34,0,3.74-.1,1.4-.09,2.83-.23,4.3-.42-.59-1.73-.99-3.23-1.2-4.48l4.72-.56c.13,1.2.48,2.65,1.04,4.36,1.49-.27,2.91-.57,4.26-.9,1.35-.33,2.47-.67,3.38-1.02l1.2,4.08c-.88.32-1.96.63-3.24.92-1.28.29-2.65.57-4.12.84.21.53.45,1.07.7,1.62.25.55.51,1.09.78,1.62,1.95-.4,3.73-.83,5.34-1.3,1.61-.47,2.89-.94,3.82-1.42l1.56,3.96c-.99.48-2.22.95-3.7,1.4s-3.09.87-4.82,1.24c.85,1.39,1.75,2.67,2.7,3.86.95,1.19,1.91,2.18,2.9,2.98l-2.96,3.16c-1.52-.85-3.03-1.41-4.54-1.66-1.51-.25-2.89-.29-4.14-.1-1.25.19-2.26.55-3.02,1.08-.76.53-1.14,1.17-1.14,1.92,0,1.23.57,2.15,1.7,2.76s2.67.99,4.62,1.12c1.95.13,4.15.12,6.6-.04-.27.4-.51.9-.74,1.5-.23.6-.42,1.19-.58,1.78s-.25,1.08-.28,1.48Z"/>
      <path class="cls-7" d="M618.9,121.73c-2.27-.08-4.03-.71-5.28-1.88-1.25-1.17-1.87-2.63-1.84-4.36.03-1.15.4-2.17,1.12-3.08.72-.91,1.72-1.61,3-2.12,1.28-.51,2.76-.72,4.44-.64.45,0,.89.02,1.3.06.41.04.83.09,1.26.14l-.12-4.6c-.46.03-.91.04-1.38.04h-1.38c-1.6,0-2.86-.13-3.78-.38-.92-.25-1.65-.68-2.2-1.28-.55-.6-1.09-1.43-1.62-2.5l3.76-1.88c.37.72.81,1.18,1.32,1.38.51.2,1.37.3,2.6.3.4,0,.82,0,1.26-.02.44-.01.88-.03,1.34-.06-.03-.72-.05-1.45-.06-2.2-.01-.75-.03-1.48-.06-2.2-1.95.11-3.79.18-5.52.22-1.73.04-3.08.05-4.04.02l-.2-4.48c.93.08,2.28.11,4.04.1,1.76-.01,3.64-.06,5.64-.14-.03-.96-.04-1.88-.04-2.76v-2.44h4.64v2.32c0,.83.01,1.69.04,2.6,1.81-.13,3.48-.29,5-.46s2.64-.35,3.36-.54v4.4c-.72.16-1.83.31-3.34.46-1.51.15-3.17.29-4.98.42.03.72.05,1.45.06,2.18s.03,1.46.06,2.18c1.57-.16,3.07-.35,4.48-.58,1.41-.23,2.53-.47,3.36-.74v4.68c-.99.21-2.15.41-3.5.6-1.35.19-2.77.35-4.26.48.05,1.07.09,2.09.1,3.08s.03,1.91.06,2.76c1.97.53,3.84,1.23,5.6,2.08s3.41,1.79,4.96,2.8c-.35.27-.73.66-1.14,1.18-.41.52-.79,1.05-1.14,1.58-.35.53-.61.99-.8,1.36-2.24-1.89-4.69-3.39-7.36-4.48-.03,2-.73,3.59-2.1,4.78s-3.59,1.73-6.66,1.62ZM619.06,117.45c1.39.05,2.39-.15,3-.6s.92-1.05.92-1.8v-1.12c-.56-.11-1.11-.19-1.66-.24s-1.09-.08-1.62-.08c-1.12,0-1.97.19-2.56.56-.59.37-.88.83-.88,1.36,0,1.2.93,1.84,2.8,1.92Z"/>
      <path class="cls-7" d="M655.3,122.33c-.32-.53-.75-1.17-1.28-1.92-.53-.75-1.15-1.39-1.84-1.92,2.83-.8,5-1.73,6.52-2.78,1.52-1.05,2.57-2.3,3.16-3.74-.86.43-1.71.64-2.56.64-2.03,0-3.66-.57-4.9-1.72s-1.9-2.69-1.98-4.64c-.05-1.33.21-2.53.8-3.58.59-1.05,1.41-1.89,2.48-2.5,1.07-.61,2.28-.92,3.64-.92.21,0,.4,0,.56.02s.33.03.52.06c-.05-.48-.11-.97-.16-1.48-.05-.51-.08-1.04-.08-1.6-2.16.08-4.27.2-6.32.36-2.05.16-3.94.34-5.64.54-1.71.2-3.12.43-4.24.7l-.68-4.64c.96-.08,2.31-.17,4.04-.26,1.73-.09,3.71-.19,5.94-.3,2.22-.11,4.53-.21,6.9-.32v-5.64h4.64v5.44c2.08-.08,4.07-.15,5.96-.22,1.89-.07,3.59-.12,5.08-.16,1.49-.04,2.67-.05,3.52-.02l-.32,4.68c-1.55-.19-3.59-.3-6.14-.34s-5.25-.03-8.1.02c0,.96.03,1.93.1,2.92s.13,1.93.18,2.84c1.31,1.55,1.96,3.6,1.96,6.16,0,3.55-1.03,6.53-3.08,8.94-2.05,2.41-4.95,4.21-8.68,5.38ZM659.34,108.61c.75-.05,1.33-.31,1.76-.76.43-.45.64-1.04.64-1.76,0-.24-.02-.5-.06-.78-.04-.28-.09-.58-.14-.9-.56-.64-1.27-.96-2.12-.96-.75,0-1.37.24-1.88.72-.51.48-.75,1.09-.72,1.84,0,.77.23,1.41.7,1.9.47.49,1.07.73,1.82.7Z"/>
      <path class="cls-7" d="M686.7,122.01c-1.07,0-2.04-.26-2.92-.78-.88-.52-1.59-1.23-2.12-2.12s-.8-1.89-.8-2.98.26-2.08.78-2.96c.52-.88,1.23-1.58,2.12-2.1.89-.52,1.87-.78,2.94-.78s2.09.27,2.98.8c.89.53,1.6,1.24,2.12,2.12s.78,1.85.78,2.92-.27,2.09-.8,2.98c-.54.89-1.25,1.6-2.14,2.12-.89.52-1.87.78-2.94.78ZM686.7,119.77c1.01,0,1.87-.35,2.58-1.06.71-.71,1.06-1.55,1.06-2.54s-.35-1.84-1.06-2.56c-.71-.72-1.57-1.08-2.58-1.08s-1.83.35-2.54,1.06c-.71.71-1.06,1.57-1.06,2.58s.35,1.83,1.06,2.54c.71.71,1.55,1.06,2.54,1.06Z"/>
    </g>
    <g>
      <path class="cls-7" d="M259.76,66.03c-.27-.23-.66-.52-1.18-.87-.52-.35-1.11-.73-1.77-1.12s-1.33-.78-2.02-1.16c-.69-.38-1.33-.71-1.93-1-.6-.29-1.09-.5-1.48-.63l1.54-2c.57.21,1.24.5,2.01.86.77.36,1.56.75,2.37,1.18s1.57.85,2.28,1.27c.71.42,1.28.8,1.72,1.15l-1.54,2.32ZM258.38,59.01c-.28-.23-.69-.49-1.24-.8s-1.14-.62-1.77-.94c-.63-.32-1.24-.61-1.82-.86s-1.05-.43-1.41-.52l1.48-1.98c.43.13.92.32,1.48.55.56.23,1.14.49,1.73.77.59.28,1.15.56,1.68.84.53.28.96.53,1.29.76l-1.42,2.18ZM259.94,54.39c-.21-.17-.52-.38-.92-.61-.4-.23-.85-.48-1.34-.73-.49-.25-.99-.5-1.49-.74-.5-.24-.97-.45-1.4-.63-.43-.18-.79-.31-1.07-.39l1.48-1.98c.41.13.9.32,1.47.55.57.23,1.15.49,1.74.76.59.27,1.15.55,1.66.82.51.27.93.52,1.25.73l-1.38,2.22Z"/>
      <path class="cls-7" d="M269.63,55.79c-.17-.19-.42-.41-.73-.66-.31-.25-.66-.52-1.04-.8-.38-.28-.75-.54-1.11-.77-.36-.23-.67-.41-.94-.53l1.6-2.02c.27.15.58.33.94.56.36.23.73.47,1.11.74.38.27.74.53,1.07.79.33.26.6.49.8.69l-1.7,2ZM267.49,64.61l-1.36-2.46c.95-.2,1.94-.53,2.99-.99,1.05-.46,2.1-1,3.15-1.62,1.05-.62,2.05-1.29,3-2,.95-.71,1.8-1.44,2.57-2.17s1.39-1.43,1.87-2.1c.05.23.14.51.27.84.13.33.26.66.41.97s.27.56.38.73c-.65.84-1.47,1.69-2.45,2.55-.98.86-2.06,1.69-3.25,2.48-1.19.79-2.43,1.52-3.72,2.17s-2.58,1.19-3.86,1.6Z"/>
      <path class="cls-7" d="M286.32,65.79v-16.12h2.44v6.06l.9-1.28c.32.23.74.51,1.27.85s1.09.69,1.69,1.04c.6.35,1.18.68,1.74.97.56.29,1.03.51,1.42.66-.16.15-.34.36-.55.63-.21.27-.4.55-.57.84-.17.29-.31.53-.42.73-.32-.17-.72-.4-1.19-.67s-.97-.58-1.5-.91c-.53-.33-1.03-.66-1.52-.99-.49-.33-.91-.62-1.27-.89v9.08h-2.44Z"/>
      <path class="cls-7" d="M300.8,65.93c-.09-.2-.23-.43-.42-.7-.19-.27-.38-.53-.59-.79-.21-.26-.4-.46-.57-.61,1.61-.61,3.12-1.4,4.51-2.35,1.39-.95,2.63-2.04,3.72-3.25,1.09-1.21,1.96-2.51,2.63-3.88-.56.03-1.16.06-1.79.09-.63.03-1.21.06-1.73.08-.52.02-.91.03-1.16.03-.65.85-1.37,1.65-2.15,2.39-.78.74-1.6,1.4-2.47,1.99-.12-.15-.29-.33-.51-.54-.22-.21-.45-.43-.68-.64-.23-.21-.45-.38-.65-.5.99-.57,1.92-1.29,2.8-2.15.88-.86,1.66-1.79,2.34-2.8.68-1.01,1.2-2,1.56-2.99l2.32.82c-.16.37-.33.74-.5,1.1-.17.36-.36.71-.56,1.06.57-.01,1.2-.03,1.87-.05.67-.02,1.29-.05,1.85-.08.56-.03.96-.07,1.2-.11l1.5.86c-.63,1.89-1.55,3.67-2.77,5.34s-2.66,3.15-4.32,4.46-3.47,2.38-5.43,3.22Z"/>
    </g>
  </g>
</svg>