<?xml version="1.0" encoding="UTF-8"?>
<svg id="_レイヤー_2" data-name="レイヤー 2" xmlns="http://www.w3.org/2000/svg" viewBox="0 0 1000 131.5">
  <defs>
    <style>
      .cls-1 {
        fill: #e3e3e3;
      }

      .cls-2 {
        fill: #f7b200;
      }

      .cls-3 {
        fill: none;
        stroke: #fff;
        stroke-miterlimit: 10;
        stroke-width: 3px;
      }

      .cls-4 {
        fill: #5c5c5c;
      }

      .cls-5 {
        fill: #dbdcdc;
      }

      .cls-6 {
        fill: #231815;
      }

      .cls-7 {
        fill: #fff;
      }

      .cls-8 {
        fill: #878787;
      }

      .cls-9 {
        fill: #71c6d2;
      }
    </style>
  </defs>
  <g id="_レイヤー_1-2" data-name="レイヤー 1">
    <line class="cls-3" x1="1000" y1="130" x2="0" y2="130"/>
    <g>
      <path class="cls-5" d="M52.08,8.42s0,0,0,0c-.01,0-.03-.01-.04-.02-.04-.02-.09-.03-.13-.05-.09-.03-.18-.05-.27-.07-.02,0-.05,0-.07-.01-.06,0-.05,0,.03,0-.04-.01-.1-.01-.14-.01-.09,0-.19,0-.28,0-.05,0-.09,0-.14,0,0,0,0,0-.01,0-.01,0-.02,0-.03,0-.07.01-.14.03-.21.05-.66,1.45-1.06,3-1.27,4.57-.24,1.73-.34,3.54-.23,5.28.09,1.34.44,2.84-.59,3.91-.44.46-.99.78-1.47,1.2-.53.46-.85,1.07-.97,1.77-.24,1.39.2,3.2,1.13,4.28.96,1.11,2.5,1.02,3.63.23,1.26-.88,1.67-2.49,1.67-3.94,0-1.75-.55-3.42-.91-5.12-.84-3.97-.09-7.92.76-11.82-.14-.1-.29-.19-.44-.26Z"/>
      <g>
        <path class="cls-9" d="M65.51,122.2c.85-.02,1.7-.05,2.55-.1-1.07-5.26.36-11.26,4.14-15.18.16-.17.35-.32.54-.46-1.35-.15-2.7-.31-4.04-.48-.1.01-.2,0-.28-.04-.07,0-.13-.02-.2-.03-.2.32-.78.36-.89-.11,0,0,0,0,0,0-4.69-.61-9.37-1.29-14.03-2.07-2.08-.35-4.15-.72-6.23-1.1-.29-.05-.39-.29-.34-.52-3.38-.78-6.98-.16-9.9,1.73-.53.34-1.02-.5-.5-.84,2.28-1.48,4.99-2.23,7.69-2.2-.05-.07-.09-.16-.1-.26-.1-1.01-.47-1.98-1.05-2.81-.58-.84-1.39-1.33-2.16-1.97-.86-.71-.95-1.66-1.06-2.7-.12-1.19-.27-2.38-.45-3.56-.71-4.59-1.86-9.12-3.44-13.49-.89-2.47-1.92-4.88-3.08-7.24-.28-.56.57-1.06.85-.49,2.09,4.24,3.77,8.67,4.99,13.23.62,2.3,1.12,4.64,1.51,6.99.19,1.14.35,2.29.48,3.44.13,1.11,0,2.41.95,3.17.88.7,1.71,1.29,2.34,2.25.63.95.98,2.04,1.09,3.17.01.12-.02.22-.07.3.98.07,1.95.24,2.9.52.24.07.34.26.34.46,6.31,1.16,12.65,2.15,19.02,2.98-2.05-8.96-3.92-17.99-7.69-26.43-1.05-2.36-2.24-4.67-3.55-6.9-.07-.11-.08-.22-.06-.32-1.64-1.61-3.38-3.1-5.22-4.51-1.67-1.28-3.34-2.6-4.55-4.34-1.11-1.61-1.7-3.56-1.75-5.51-.01-.38,0-.75.03-1.13-.05.08-.09.16-.14.24-.7,1.11-1.64,2.03-2.72,2.77-.59.4-1.2.75-1.84,1.04,1.89.66,3.67,1.58,5.29,2.75.17.02.33.14.41.3.29.22.58.45.86.69.48.41-.21,1.09-.69.69-.15-.13-.31-.25-.47-.38-.67,1.27-1.41,2.5-2.23,3.68,1.34.93,2.67,1.87,4.01,2.8,1.34.94,2.66,1.86,3.89,2.93,1.57,1.36,3.03,2.86,4.34,4.47,1.51,1.84,2.83,3.82,3.96,5.91.3.55-.55,1.05-.85.49-1.95-3.63-4.51-6.91-7.57-9.68-2-1.81-4.27-3.28-6.48-4.83-.74-.52-1.48-1.04-2.22-1.56-.2-.14-.34-.44-.18-.67.94-1.33,1.78-2.71,2.53-4.15-1.67-1.18-3.52-2.1-5.47-2.72-.15-.05-.24-.14-.29-.25-1.7.63-3.51,1-5.28,1.36-.57.11-.82-.56-.38-.89,1.22-.9.73-2.81.68-4.06-.07-1.55.46-3.03,1-4.46.11-.29.22-.58.34-.86-1.58,1.01-3.22,1.93-4.9,2.77-1.8.89-3.68,1.58-5.51,2.38-.25.11-.5.23-.74.36.43.32.82.78,1.14,1.11.76.79,1.51,1.59,2.22,2.42.17.2.2.49,0,.69-.18.18-.52.2-.69,0-.63-.73-1.27-1.44-1.94-2.13-.33-.34-.66-.68-1-1.01-.13-.13-.26-.26-.41-.36-.1-.06-.25-.14-.31-.11,0,0,0,0,0,0-1.99,1.34-3.44,3.29-4.2,5.64-.9,2.77-.95,5.74-.88,8.62.09,3.44.2,6.89.59,10.31.9,7.92,3.11,15.68,6.07,23.07.75,1.88,1.56,3.73,2.41,5.57.42.91.85,1.82,1.3,2.72.37.76.77,1.53,1.32,2.18,1.27,1.52,3.41,1.7,5.24,2.14,2.05.49,4.1.98,6.16,1.45,8.16,1.84,16.46,3.29,24.86,3.13Z"/>
        <path class="cls-9" d="M69.98,29.02c.08-.05.18-.09.27-.08.13,0,.26.05.35.14.09.09.15.22.14.35-.01.28-.05.57-.11.84-.07.3-.14.66-.44.83-.35.2-.79.03-.95-.32-.07-.15-.12-.3-.11-.46,0-.14.03-.28.07-.41.09-.29.25-.56.48-.75.08-.07.18-.12.29-.13Z"/>
        <path class="cls-9" d="M77.83,30.8c.08-.07.18-.12.29-.13.08-.05.18-.09.27-.08.13,0,.26.05.35.14.09.09.15.22.14.35-.01.28-.05.57-.11.84-.07.3-.14.66-.44.83-.35.2-.79.03-.95-.32-.07-.15-.12-.3-.11-.46,0-.14.03-.28.07-.41.09-.29.25-.56.48-.75Z"/>
        <path class="cls-9" d="M72.34,38.74c-.59-.2-.34-1.15.26-.94.69.24,1.47.38,2.2.25.35-.06.35-.16.36-.48,0-.42,0-.84,0-1.25,0-1.62.02-3.25.02-4.87,0-.63.99-.63.98,0,0,1.95-.02,3.9-.03,5.85,0,.39.04.82-.18,1.16-.2.31-.56.48-.92.55-.89.16-1.85.04-2.7-.26Z"/>
        <path class="cls-9" d="M72.47,26.95c-1.38-.84-3.1-.62-4.62-.42-.26.03-.49-.25-.49-.49,0-.29.23-.45.49-.49,1.71-.22,3.58-.39,5.12.56.54.33.04,1.17-.5.84Z"/>
        <path class="cls-9" d="M66.8,40.51c1.22.34,2.43.7,3.66,1.02,1.21.32,2.42.58,3.68.51.63-.03.63.94,0,.98-.01,0-.02,0-.04,0-.02.07-.07.14-.14.2-.69.6-1.44,1.12-2.27,1.51-.76.36-1.61.71-2.46.4-.77-.29-1.31-.93-1.78-1.58-.54-.75-.95-1.57-1.26-2.44-.13-.36.26-.7.6-.6Z"/>
        <path class="cls-9" d="M69.51,44.18c.63.27,1.36-.13,1.92-.42.45-.23.87-.5,1.27-.79-.8-.08-1.59-.26-2.37-.46-.94-.25-1.88-.52-2.82-.78.18.36.38.72.6,1.06.35.52.78,1.14,1.39,1.4Z"/>
        <path class="cls-9" d="M42.04,81.21c.05-.45.13-.92.65-1.04.57-.13,1.32.03,1.9.08,2.51.19,5.01.55,7.47,1.07.29-.09.65.06.63.45-.07,1.66-.18,3.32-.31,4.98-.02.24-.21.52-.49.49-3.26-.38-6.49-.92-9.69-1.63-.08-.02-.15-.05-.2-.1-.21-.03-.39-.18-.36-.46.14-1.28.27-2.55.41-3.83Z"/>
        <path class="cls-9" d="M43.03,81.08s0-.04,0,0h0Z"/>
        <path class="cls-7" d="M43.74,81.16c-.24-.01-.47-.03-.71-.04,0,.02,0,.05,0,.09,0,.16-.03.32-.05.48-.11,1-.21,2.01-.32,3.01,2.9.64,5.83,1.14,8.78,1.49.1-1.32.19-2.64.25-3.96-2.09-.44-4.2-.76-6.33-.95-.54-.05-1.08-.09-1.61-.12Z"/>
        <path class="cls-9" d="M101.99,97.45c-1.66.33-2.93,1.57-3.92,2.87-1.07,1.4-2.02,3.17-1.73,4.99.1.61-.85.88-.95.26-.33-2.11.58-4.08,1.83-5.74,1.14-1.5,2.59-2.93,4.5-3.32.62-.12.88.82.26.94Z"/>
        <path class="cls-9" d="M104.26,117.09c8.03.83,16.1,1.35,24.17,1.57.63.02.63.99,0,.98-8.07-.22-16.14-.74-24.17-1.57-.62-.06-.63-1.04,0-.98Z"/>
        <path class="cls-9" d="M77.36,52.25s0,0,0,0c-.05.05-.01.02,0,0Z"/>
        <path class="cls-8" d="M76.38,50.46c-.61-.02-1.25.12-1.84.22-.36.06-.73.12-1.09.21-.03,0-.09.03-.13.03.05.07.06.33.08.41.08.33.17.66.28.98.06.17.11.34.19.5,0,.02.02.04.03.06,0,0,.02,0,.03,0,.59,0,1.17,0,1.76-.05.08,0,.16-.02.24-.02,0,0,.08-.01.09-.01.02,0,.04,0,.06,0,.16-.03.33-.06.49-.1.07-.02.14-.04.21-.06.02,0,.13-.05.14-.05.05-.02.1-.05.15-.07.02-.01.04-.03.07-.04,0,0,.05-.03.07-.05.02-.02.08-.06.09-.08.02-.02.04-.05.06-.07.03-.04.05-.08.07-.12,0,0,.04-.13.05-.16,0,0,0,0,0,0,0,0,0,0,0,0,0-.03,0-.07,0-.1,0-.03-.01-.15,0-.16-.03-.18-.08-.36-.15-.53-.17-.39-.5-.69-.94-.71Z"/>
        <path class="cls-9" d="M39.1,30.22c-.77,4.13-.67,8.37-1.32,12.52-.27,1.71-.6,3.42-.89,5.13.54-.55,1.18-1.01,1.94-1.31.08-.03.15-.06.23-.08.23-.89.38-1.81.49-2.73.06-.52.12-1.04.17-1.57.05-.44.02-1.06.35-1.41.4-.4.97-.2,1.45-.09.53.11,1.05.23,1.57.37.94.25,1.85.57,2.74.94,1.16-2.69,1.78-5.59,1.81-8.53,0-.05,0-.1.02-.14-.35-.14-.69-.31-1.01-.52-2.27-1.46-3.15-4.15-2.91-6.74.1-1.1.42-2.18.94-3.13,0-.01-.01-.03-.02-.04-.26-.73-.51-1.46-.72-2.2-2.86,2.29-4.2,6.05-4.84,9.53Z"/>
        <path class="cls-8" d="M50.62,34.05s0-.01,0-.02c0,0,0,0,0,0,0,0,0,0,0,0,0-.02.01-.02,0,.01,0,.01,0,.03,0,.04,0-.02.02.07.02.09,0,0,0,0,0,0,0,.01.01.03.02.04.02.03.04.07.06.1-.07-.1.04.03.06.05,0,0,0,.01.01.01,0,0,0,0,.01,0,.03.02.05.03.08.05-.02-.01.11.04.13.05,0,0,.08.02.09.02.11.01.22.01.33,0,0,0,.08,0,.09,0,.06,0,.12-.02.18-.03.1-.02.2-.05.3-.07.08-.02.16-.05.24-.08.01,0,.08-.03.09-.04.05-.02.09-.05.13-.07.02,0,.05-.03.06-.04.04-.03.07-.07.11-.1.01-.01.01-.01.02-.01,0,0,0,0,.01-.02,0-.01.04-.08.04-.08,0-.02.01-.05.01-.05,0,0,0,0,0,0,0,0,0,0,0,0,0-.02.01-.12,0-.14,0,.02,0,.04,0,.06,0-.02,0-.04-.02-.07,0-.01,0-.02,0-.02,0-.01-.01-.03-.02-.04,0,0,0,0,0,0,0,0,0,0,0,0,0,0-.01,0-.02-.01-.16-.06-.28-.19-.33-.35-.54.23-1.11.38-1.69.44.01.1,0,.21-.05.32Z"/>
        <path class="cls-4" d="M52.38,32.19c1.98-1.07,2.88-3.2,2.78-5.37-.05-1.09-.35-2.21-.77-3.22-.32-.78-.77-1.53-1.39-2.09.67,2.9,1.43,6.54-1.18,8.65-1.07.87-2.59,1.29-3.91.75-1.47-.6-2.21-2.21-2.53-3.66-.32-1.47-.24-3.17.82-4.34.47-.51,1.08-.86,1.59-1.32.22-.2.36-.41.46-.63-3.94,1.52-4.84,7.75-1.73,10.53,1.6,1.43,3.97,1.72,5.87.7Z"/>
        <path class="cls-8" d="M52.08,8.42s0,0,0,0c-.01,0-.03-.01-.04-.02-.04-.02-.09-.03-.13-.05-.09-.03-.18-.05-.27-.07-.02,0-.05,0-.07-.01-.06,0-.05,0,.03,0-.04-.01-.1-.01-.14-.01-.09,0-.19,0-.28,0-.05,0-.09,0-.14,0,0,0,0,0-.01,0-.01,0-.02,0-.03,0-.07.01-.14.03-.21.05-.66,1.45-1.06,3-1.27,4.57-.24,1.73-.34,3.54-.23,5.28.09,1.34.44,2.84-.59,3.91-.44.46-.99.78-1.47,1.2-.53.46-.85,1.07-.97,1.77-.24,1.39.2,3.2,1.13,4.28.96,1.11,2.5,1.02,3.63.23,1.26-.88,1.67-2.49,1.67-3.94,0-1.75-.55-3.42-.91-5.12-.84-3.97-.09-7.92.76-11.82-.14-.1-.29-.19-.44-.26Z"/>
        <path class="cls-9" d="M45.35,13.93c-.68,1.33-1.04,2.71-.92,4.2.1,1.3.5,2.56.93,3.79.77-.96,1.79-1.69,3.04-2.04,0-.07,0-.13,0-.2-.05-.98-.15-1.94-.14-2.92,0-1.12.06-2.24.19-3.35.21-1.84.63-3.65,1.37-5.35-1.79,1.7-3.34,3.68-4.47,5.87Z"/>
        <path class="cls-8" d="M57.23,1.86c-2.58,1.11-4.67,3.1-6.16,5.44.6-.04,1.22.09,1.74.4,2.64-4.01,7.42-6.35,12.21-6.11-2.49-.93-5.33-.79-7.78.26Z"/>
        <path class="cls-9" d="M82.03,23.23c.14-2.36-.15-4.72-.82-6.99-1.33-4.48-4.19-8.65-8.13-11.25-1.82-1.2-3.94-2.2-6.13-2.56-.1.18-.29.32-.55.28-4.94-.88-10.23,1.48-12.88,5.69.03.08.04.17.02.28-.83,3.8-1.57,7.61-.83,11.46.05,0,.11.03.16.06,1.16.67,1.96,1.82,2.49,3.09.08-.1.2-.16.37-.16,2.22.03,4.08-1.38,5.73-2.68.43-.34,1.03.07.77.59-.47.94-.98,1.85-1.52,2.75,4.26-3.39,6.59-8.64,8.3-13.71.2-.59,1.15-.34.95.26-1.73,5.13-4.09,10.39-8.29,13.92,4.48-1.42,8.39-4.5,10.74-8.56.8-1.38,1.62-3.01,1.53-4.65-.04-.09-.08-.18-.12-.28-.23-.47.33-.9.68-.68.17.01.33.12.36.35.01.11.02.21.03.32,2.44,5.4,1.86,11.43,1.19,17.16,0,0,0,0,0,0,.03-.11.1-.2.22-.28.63-.37,1.27-.75,1.61-1.42.33-.65.42-1.42.51-2.14.21-1.65.22-3.32.08-4.98-.06-.63.93-.62.98,0,.17,1.88.11,3.76-.16,5.62-.11.77-.26,1.58-.7,2.24-.28.43-.67.76-1.08,1.04.87-.14,1.69-.6,2.15-1.33.43-.68.65-1.5.82-2.27.19-.84.27-1.7.27-2.57,0-.63.98-.63.98,0,0,1.01-.1,2.02-.34,3-.22.89-.51,1.87-1.08,2.61-.14.19-.31.36-.49.52.02.02.03.03.05.05.09.14.17.27.26.41,1.63-.9,1.8-3.61,1.89-5.21Z"/>
        <path class="cls-7" d="M69.12,48.32c1.56-1.42,3.05-2.92,4.57-4.38,1.43-1.38,2.88-2.79,3.82-4.56,1.07-2.02,1.4-4.33,1.34-6.58,0-.09.02-.17.06-.24.11-1.1.29-2.2.56-3.28,0-.01.01-.02.02-.03,0,0,0,0,0-.01,0,0,0,0,0,0-.15-.23-.3-.46-.44-.69-1.04.56-2.33.71-3.43.29-.14-.06-.26-.16-.32-.29-.15-.06-.26-.2-.23-.42.59-5,1.2-10.33-.38-15.18-.2.78-.52,1.53-.88,2.27-.64,1.28-1.43,2.47-2.33,3.58-1.83,2.24-4.17,4.08-6.77,5.34-1.47.71-3.03,1.25-4.64,1.58-.11.02-.21,0-.3-.03-.16.1-.32.21-.49.31-.41.24-.95-.25-.67-.67.62-.92,1.2-1.86,1.75-2.82-1.38.93-2.89,1.64-4.61,1.61-.03,0-.05,0-.08,0,.2.65.35,1.3.43,1.93.35,2.53-.48,5.18-2.66,6.67-.06.04-.13.08-.19.12.31.21.49.55.51.95.02.5-.27.92-.67,1.2-.38.26-.87.4-1.33.46-.57.08-1.14.03-1.59-.35-.2-.17-.36-.41-.44-.66-.07-.23-.07-.44,0-.66-.37-.01-.73-.06-1.09-.14-.07,3.95-1.16,7.84-3.14,11.26.82.31,1.86.27,2.66.29.87.02,1.85-.09,2.7.08.7.14.98.8,1.29,1.36.69,1.27,1.28,2.61,2.14,3.78.86,1.18,2.11,1.86,3.4,2.48.75.36,1.51.69,2.25,1.07.06.03.12.07.19.1.16.07.2.13.26-.03.02-.04.02-.09.02-.15-.3.13-.71-.01-.69-.42.11-2.22,1.1-4.18,2.52-5.84-1.1-.82-2.09-1.79-2.93-2.92-.38-.5.48-.99.85-.49,1.15,1.55,2.65,2.82,4.36,3.73.75.4,1.53.84,2.34,1.1.94.31,1.6-.07,2.29-.7Z"/>
        <path class="cls-2" d="M65.67,51.99c-.14-.34-.44-.63-.67-.92-.54-.69-1.08-1.38-1.62-2.07-.16-.21-.13-.45-.02-.62-.12-.07-.23-.14-.35-.22-.84.97-1.54,2.07-1.94,3.27.16.07.28.2.28.42,0,.49,0,.98,0,1.48,0,.38.04.8-.09,1.17-.31.9-1.2.62-1.84.29-1.48-.76-3.08-1.33-4.43-2.31-1.31-.95-2.11-2.33-2.85-3.73-.38-.71-.73-1.44-1.14-2.14-.1-.17-.16-.3-.34-.38-.22-.09-.56-.05-.8-.05-.57,0-1.15-.02-1.72-.03-1.6-.03-3.63-.03-4.54-1.6-.31-.55.53-1.04.85-.49.06.11.14.2.21.29.27-.48.53-.96.77-1.45-.79-.34-1.61-.62-2.44-.84-.44-.12-.88-.23-1.33-.33-.23-.05-.46-.1-.69-.15-.01,0-.12-.02-.2-.03,0,.02,0,.04,0,.06-.14.9-.19,1.82-.31,2.72-.09.64-.19,1.29-.33,1.92,1.32-.15,2.68.13,3.96.42.22.05.33.2.35.37.23-.02.46-.03.69-.02.63.02.63,1,0,.98-3.06-.1-5.16,2.49-6.85,4.67-.16.21-.42.32-.67.18-.21-.12-.34-.46-.18-.67,1.45-1.87,3.15-3.94,5.4-4.77-1.03-.2-2.08-.3-3.07-.08-.1.08-.24.11-.36.1-.38.12-.76.29-1.11.54-.72.5-1.26,1.19-1.71,1.94-.02.13-.08.22-.16.28-.26.48-.49.98-.69,1.47-.7,1.7-1.37,3.48-1.23,5.34.09,1.14.2,2.35-.25,3.36,2.31-.49,4.62-1.11,6.6-2.43,1.07-.71,1.98-1.63,2.63-2.73.69-1.17,1.16-2.44,1.93-3.56.04-.06.09-.11.14-.14.18-.32.36-.64.57-.94.36-.51,1.21-.03.85.49-2.21,3.17-2.27,7.58-.07,10.77,1.17,1.7,2.87,2.98,4.49,4.22,1.7,1.3,3.34,2.66,4.87,4.15,1.49,1.45,2.87,2.99,4.15,4.62.37-3.42.43-6.86.15-10.29-.14-1.72-.27-3.56-1.02-5.14-.66-1.39-1.84-2.38-3.08-3.25-1.35-.94-2.78-1.81-3.91-3.02-.06-.07-.1-.14-.12-.21-.25.03-.44-.13-.53-.35-.47-1.17-1.1-2.27-1.84-3.28-.09-.12-.18-.24-.27-.35-.01-.01-.08-.08-.14-.15-.06.12-.12.24-.17.36-.25.59-.42,1.22-.51,1.85-.04.26-.37.4-.6.34-.28-.08-.38-.34-.34-.6.12-.78.35-1.52.68-2.24.16-.34.36-.7.76-.79.48-.11.79.24,1.05.57.98,1.23,1.76,2.57,2.34,4.03.13-.02.28.01.4.14,2.07,2.23,5.26,3.26,6.86,5.94.21.36.39.74.54,1.12.05,0,.11,0,.17.02,1.13.34,2.51.32,3.55-.28.23-.13.98-.6.99-.88,0-.1-.17-.31-.23-.4-.18-.28-.39-.55-.53-.86-.63-1.34.19-2.66.81-3.82.21-.39.45-.8.27-1.24Z"/>
        <path class="cls-2" d="M68.23,104.94c.52-5.79.77-11.6.62-17.41-.16-6.04-.76-12.09-2.05-18-.68-3.12-1.56-6.19-2.66-9.18-1,.35-2.13.39-3.16.17.23.88.35,1.79.44,2.69.21,2,.31,4,.29,6.01-.01,2.27-.18,4.54-.47,6.79-.06.49-.61.65-.92.25-.67-.88-1.37-1.74-2.1-2.56,1.69,3.2,3.13,6.54,4.34,9.94,1.58,4.42,2.72,8.94,3.77,13.5.6,2.6,1.2,5.19,1.8,7.79.03,0,.06,0,.09.01Z"/>
        <path class="cls-9" d="M49.52,48.58s-.01-.02-.01-.02c0,.01,0,.02.01.02Z"/>
        <path class="cls-9" d="M108.32,97.54c-.94-.47-1.91-.9-2.81-1.43-.74-.43-1.39-1.01-1.68-1.83-.07-.19-.1-.39-.12-.6,0-.13.04-.45-.02-.49-.1-.07-.58-.03-.74-.05-.3-.03-.6-.06-.91-.08-.29-.03-.45-.25-.47-.48-6.49-7.89-10.95-17.13-16.68-25.54-.8-1.18-1.63-2.35-2.5-3.49-.65-.87-1.64-2.15-2.86-2.05.5.98.93,1.99,1.22,3.05.34,1.22.52,2.49.65,3.75.06.62-.92.62-.98,0-.25-2.39-.81-4.63-1.97-6.76,0,0,0-.01,0-.02-.03,0-.06-.01-.1-.02-.14-.03-.23-.09-.28-.18-2.59-.97-5.16-1.98-7.67-3.13,1.39,1.09,2.8,2.17,4.23,3.21.27.19.32.51.1.77-1.16,1.33-2.18,2.76-3.06,4.29,1.23.86,2.42,1.77,3.58,2.72.3.24.59.49.88.74.28.24.62.47.83.77.41.59,0,1.28-.2,1.88-1.08,3.15-1.81,6.42-2.18,9.73-.07.62-1.05.62-.98,0,.34-3.01.95-5.99,1.86-8.89.11-.34.22-.67.33-1.01.06-.18.12-.36.19-.55.04-.12.2-.38.18-.52-.04-.29-.51-.55-.72-.73-.29-.25-.58-.49-.88-.74-1.09-.89-2.21-1.74-3.36-2.55-.16.31-.32.61-.47.93-.27.57-1.12.07-.85-.49,1.01-2.1,2.29-4.06,3.8-5.84-2.81-2.06-5.51-4.26-8.27-6.39-.08.37-.09.75.07,1.1.15.33.41.62.59.93.24.41.38.84.12,1.28-.25.43-.72.81-1.16,1.09,2.05,5.51,3.31,11.28,4.04,17.11.76,6.09.94,12.25.75,18.39-.1,3.22-.31,6.43-.6,9.64,2,.25,4,.48,6.01.7.32.03.48.31.47.56,1.17.07,2.32.2,3.48.39-.28-4.46.56-8.83,1.41-13.19,0-.06,0-.12.03-.17.69-3.53,1.37-7.07,1.47-10.66.06-2.27-.14-4.52-.72-6.72-.16-.61.79-.87.95-.26,1.56,5.86.44,11.79-.7,17.66,1.88,2.47,3.86,4.87,6.01,7.11,1.1,1.14,2.29,2.2,3.42,3.32.53.52,1,1.08,1.43,1.69.39.55.77,1.08,1.41,1.36.02,0,.04.02.06.03,1.8-.47,3.52-1.21,5.22-1.98-.08-.13-.11-.3-.03-.47,1.2-2.81,4.06-4.38,6.89-5.16.82-.23,1.65-.4,2.48-.55.48-.09,1.04-.25,1.57-.3-.1-.05-.21-.1-.31-.16-.48-.24-.96-.48-1.44-.73Z"/>
        <path class="cls-7" d="M111.25,99.75c-.18.02-.33-.09-.42-.25-.07-.03-.15-.06-.22-.08-.34-.1-.77.05-1.11.11-.37.07-.74.13-1.11.2-.77.15-1.54.32-2.29.53-2.38.68-4.71,1.95-5.89,4.17.12-.05.24-.11.36-.16,1.34-.61,2.69-1.21,4.03-1.82,1.14-.51,2.34-1.09,3.61-.72.17.05.27.16.32.3,0,0,0,0,0,0,.03-.09.1-.18.22-.24.71-.38,1.43-.81,2.19-1.1.54-.21,1-.08,1.46.13-.03-.03-.06-.06-.09-.09-.3-.28-.68-.67-1.07-.96Z"/>
        <path class="cls-7" d="M113.03,102.18c-.53-.26-1.23-.81-1.82-.57-.42.18-.83.39-1.24.61,1.28.19,2.55.37,3.83.56.23.03.46.07.68.1-.48-.24-.97-.47-1.45-.71Z"/>
        <path class="cls-7" d="M120.27,105.83c-.27-.37-.52-.8-.9-1.08-.36-.27-.85-.3-1.28-.36-.46-.07-.92-.14-1.39-.2-.92-.14-1.85-.27-2.77-.41-1.91-.28-3.83-.56-5.74-.84-.21-.03-.32-.16-.35-.31-1.24-.29-2.58.57-3.66,1.06-1.28.58-2.56,1.16-3.85,1.74-2.36,1.07-4.74,2.17-7.31,2.65-.14.03-.27,0-.37-.07,0,0,0,0,0,0-4.35.26-8.71.23-13.06-.09-1.77,1.54-2.82,3.79-3.3,6.05-.15.71-.26,1.46-.28,2.21,4.5-.21,9-.55,13.48-1.01.07-.01.14-.02.21-.03.21-.03.39.06.49.2,5.58,1.29,12.11,1.47,16.48-2.8.19-.19.43-.17.6-.06,1.11.03,2.23-.01,3.34-.14.11-.13.28-.22.49-.18,1.4.27,2.88.6,3.97,1.58.61.54,1.01,1.27,1.63,1.8.56.48,1.25.82,1.97,1,.33.08.78.2,1.12.14.22-.04.2-.05.07-.23-.14-.19-.33-.37-.5-.55-.58-.63-1.18-1.25-1.79-1.85-1.23-1.2-2.51-2.35-3.85-3.43-.37-.29-.69-.57-1.16-.66-.51-.1-1.05-.15-1.57-.21-1.03-.14-2.07-.27-3.1-.41-.62-.08-.63-1.06,0-.98,1.07.14,2.13.28,3.2.42.89.12,1.9.12,2.66.63.06-.11.16-.2.29-.22.8-.14,1.59-.28,2.39-.42.21-.24.66-.27.82.06.06.06.12.12.14.22.01.06.02.13,0,.2.16.41.4.77.72,1.08.19.18.39.33.62.45.24.13.51.2.73.38.48.38.61,1.13.87,1.65.28.56.62,1.12,1.02,1.61.36.45.78.86,1.29,1.13.25.14.53.23.82.26.13.01.6.04.66-.14.02-.06-.08-.24-.1-.28-.08-.19-.17-.37-.26-.55-.15-.32-.3-.64-.45-.96-.32-.68-.65-1.37-.97-2.05-.04-.08-.05-.15-.05-.22,0-.01-.02-.02-.03-.03-.87-1.26-1.74-2.53-2.61-3.79-.42-.61-.81-1.25-1.27-1.83-.47-.61-1.21-.39-1.9-.33-3.04.26-6.11.21-9.14-.12-.62-.07-.63-1.05,0-.98,3.32.37,6.59.29,9.91.05.63-.05,1.22.05,1.68.52.53.53.92,1.26,1.34,1.87.95,1.37,1.89,2.75,2.84,4.12.06.09.09.18.08.27.26.56.53,1.11.8,1.66.1-.05.21-.07.35-.03.31.1,1.35.37.99-.28-.23-.43-.6-.82-.89-1.21-.56-.76-1.12-1.52-1.68-2.28s-1.12-1.52-1.68-2.28c-.28-.38-.56-.76-.84-1.14Z"/>
        <path class="cls-7" d="M78.62,119.15s-.02-.06-.02-.09c0-.68.06-1.36.15-2.04-.9.05-1.8.1-2.7.15.02.18.04.36.07.53.12.68.39,1.39,1,1.76.49.29,1.24.25,1.5-.31Z"/>
        <path class="cls-7" d="M130.23,104.61c-.31.36-.76.56-1.16.81-.04.03-.09.06-.13.08-.02.01-.03.02-.05.04-.08.07-.16.15-.23.23-.01.02-.03.04-.04.06-.01.02-.02.04-.03.06,0,0,0,0,0,.01-.01.04-.03.08-.04.11,0,0,0,0,0,.01.09,0,.18.02.27.03.66.06,1.32.06,1.98.12.52.04,1.06.16,1.45.54.63.63.51,1.45.09,2.11.34-.03.68-.07,1.01-.1.2-.7.41-1.41.61-2.11-.07.02-.16.02-.25,0-.5-.14-.96-.36-1.39-.65-.4-.28-.77-.61-1.19-.87-.29-.18-.59-.33-.9-.47Z"/>
        <path class="cls-9" d="M132.99,109.93c.02-.07.04-.14.06-.2-.38.04-.77.08-1.15.12-.12.01-.27-.06-.35-.14-.02-.02-.03-.03-.04-.05-.08.05-.16.11-.24.16.56.04,1.13.08,1.69.12.01,0,.02,0,.03,0Z"/>
        <path class="cls-7" d="M125.4,111.14c1.34.08,2.66-.18,3.85-.76-.39-.07-.75-.24-1.15-.39-1.15-.44-2.41-.13-3.62-.09.31.42.62.83.92,1.25Z"/>
        <path class="cls-7" d="M127.2,100.65c-.92,1.11-1.87,2.17-2.9,3.18-.51.5-1.02,1-1.56,1.45-.39.32-.79.54-1.26.56.28.38.56.76.84,1.14.47.64.94,1.28,1.41,1.92,1.36.14,2.72-.27,4.08,0,.68.13,1.32.69,2.03.5.58-.15,1.35-.57,1.68-1.07.38-.59.06-1.06-.57-1.16-.68-.11-1.38-.07-2.07-.13-1.54-.13-3.06-.39-4.55-.76-.61-.15-.35-1.09.26-.94.98.25,1.97.44,2.97.58.06-.53.45-.96.89-1.26.2-.13.41-.24.62-.36.05-.03.1-.06.15-.09,0,0,0,0,0,0-.33-.14-.65-.28-.96-.45-.55-.31-.06-1.15.5-.84.89.5,1.91.76,2.78,1.3.82.5,1.46,1.21,2.41,1.47.1.03.17.07.22.13.19-.67.38-1.34.58-2.01-.12.06-.28.06-.43-.05-1.22-.89-2.44-1.77-3.66-2.66-.57-.42-1.17-.96-1.84-1.2-.74-.26-1.19.23-1.62.76Z"/>
        <path class="cls-7" d="M133.09,100.85c-.41-.19-.81-.39-1.22-.56-.3-.13-.65-.25-.98-.25.04.03.08.06.13.09,1.27.92,2.54,1.85,3.82,2.77.06.05.11.1.15.16.11-.39.22-.78.34-1.17-.74-.34-1.48-.69-2.22-1.03Z"/>
        <path class="cls-1" d="M165.37,111c.07-.52.24-1.03.37-1.53.31-1.11.63-2.21.96-3.31,1.01-3.4,2.04-6.79,3.09-10.17,1.25-4.05,2.5-8.1,3.77-12.15,1.1-3.54,2.21-7.07,3.33-10.6.58-1.85,1.14-3.72,1.77-5.56-.1-.2-.06-.45.2-.58.28-.13.19-.58.02-.78-.29-.34-.86-.34-1.26-.36-.2-.01-.4-.03-.59-.04-.67-.05-1.34-.11-2.01-.17-2.18-.19-4.35-.4-6.53-.6-5.09-.48-10.18-.97-15.28-1.44-1.5-.14-3-.3-4.51-.39-.07.02-.15.03-.23.02-1.12-.15-1.68,1.35-1.91,2.17-.12.45-.22.9-.33,1.35-.08.29-.16.58-.23.87-.32,1.15-.64,2.3-.96,3.46-1.12,4-2.24,7.99-3.37,11.98-1.4,4.97-2.81,9.94-4.23,14.91-.33,1.16-.66,2.32-1,3.48.02.12,0,.25-.05.35-.02.03-.05.05-.07.08-.9,3.13-1.79,6.26-2.7,9.38-.69,2.37-1.32,4.79-2.14,7.12-.01.04-.03.08-.04.11.19-.05.38-.09.57-.13.85-.2,1.7-.38,2.55-.56,2.67-.57,5.35-1.11,8.03-1.64,5.7-1.14,11.4-2.26,17.1-3.36.86-.17,1.72-.33,2.57-.49.94-.18,2.47-.17,2.88-1.15.05-.12.14-.2.24-.26Z"/>
        <path class="cls-1" d="M94.95,118.02c.39.14.77.28,1.18.37.58.12,1.16.22,1.74.31,1.16.17,2.32.29,3.49.38,2.34.19,4.68.35,7.02.5,4.74.31,9.48.57,14.23.76,2.59.11,5.17.2,7.76.27.04-.13.15-.24.33-.28,3.9-.73,7.78-1.55,11.67-2.33,5.98-1.2,11.96-2.4,17.93-3.67.97-.21,1.95-.42,2.92-.64.26-.06.53-.12.78-.19.04-.01.08-.02.13-.04.11-.18.2-.34.19-.51-.46.14-.95.22-1.43.31-.63.12-1.25.24-1.88.36-2.41.46-4.82.93-7.22,1.4-5.97,1.17-11.93,2.34-17.88,3.58-1.1.23-2.2.46-3.29.71-.34.08-.68.15-1.01.24-.11.03-.21.06-.32.08-.06.02-.29.11-.07.01-.5.22-.95-.4-.66-.73-.14-.1-.22-.27-.13-.48.27-.63.44-1.32.64-1.98.43-1.42.85-2.84,1.27-4.27.13-.44.25-.88.38-1.31-.7-.05-1.41-.1-2.11-.15-.02.01-.03.03-.05.04-1.31.84-2.85,1.31-4.41,1.35.29.45.47.93.14,1.43-.42.62-1.12.65-1.78.51.16.34.32.69.46,1.03.22.52.19,1.11-.31,1.45-.45.3-1.02.32-1.54.23-1.12-.2-2.01-1.05-2.67-1.92-.39-.51-.72-1.06-1-1.64-.13-.26-.25-.53-.35-.81-.12-.3-.17-.44-.47-.57-.93-.4-1.66-1.14-2.06-2.05-.64.11-1.29.23-1.93.34,1.31,1.04,2.54,2.18,3.72,3.34.72.71,1.42,1.44,2.1,2.2.25.28.54.57.59.97.04.4-.18.73-.53.91-.66.33-1.64.12-2.3-.08-.85-.25-1.64-.7-2.29-1.29-.77-.7-1.23-1.63-2.17-2.15-.71-.39-1.51-.59-2.3-.76-1.41.19-2.83.28-4.25.23-.01,0-.03,0-.04,0-3.35,3.11-7.81,3.9-12.22,3.59,0,.32.02.64.04.96Z"/>
        <path class="cls-7" d="M73.68,121.03c1.35-.04,2.78-.19,4.12.06.07-.17.14-.34.21-.5-.4.05-.81,0-1.2-.19-1.24-.59-1.65-1.98-1.74-3.24-.17-2.42.46-4.95,1.6-7.09.49-.91,1.09-1.76,1.83-2.48-.93-.14-1.87-.24-2.82-.29-.16.07-.35.08-.51-.02-.36-.01-.72-.03-1.08-.03-.2,0-.33-.11-.41-.24-.24.12-.46.28-.61.43-.57.54-1.06,1.19-1.5,1.84-.85,1.25-1.53,2.62-2.01,4.05-.84,2.52-1.08,5.22-.67,7.83,1.6-.04,3.19-.09,4.79-.13Z"/>
        <path class="cls-9" d="M43.72,122.27c1.54-.22,3.1-.46,4.66-.64-1.78-.32-3.56-.66-5.33-1.04-2.12-.45-4.24-.94-6.35-1.44-1.04-.25-2.09-.5-3.13-.75-1-.24-2.05-.42-3.01-.79-1.7-.67-2.66-2.18-3.43-3.74-.72-1.44-1.39-2.91-2.04-4.38.49,2.11.99,4.22,1.32,6.37.16.99.21,1.97.04,2.97-.17.97-.51,1.89-.82,2.82-.41,1.2-.81,2.41-1.21,3.61,6.43-1.04,12.86-2.07,19.31-2.98Z"/>
      </g>
      <g>
        <path class="cls-6" d="M79.84,32.8c.05,2.2-.26,4.42-1.17,6.44-.88,1.96-2.38,3.54-3.91,5.02-1.69,1.63-3.34,3.35-5.12,4.89-.69.6-1.5,1.09-2.45.95-.92-.13-1.76-.62-2.58-1.03-2.12-1.06-3.92-2.5-5.34-4.4-.38-.5.48-.99.85-.49,1.15,1.55,2.65,2.82,4.36,3.73.75.4,1.53.84,2.34,1.1.94.31,1.6-.07,2.29-.7,1.56-1.42,3.05-2.92,4.57-4.38,1.43-1.38,2.88-2.79,3.82-4.56,1.07-2.02,1.4-4.33,1.34-6.58-.01-.63.97-.63.98,0h0Z"/>
        <path class="cls-6" d="M70.75,29.42c-.01.28-.05.57-.11.84-.07.3-.14.66-.44.83-.35.2-.79.03-.95-.32-.07-.15-.12-.3-.11-.46,0-.14.03-.28.07-.41.09-.29.25-.56.48-.75.1-.09.21-.14.35-.14.12,0,.26.05.35.14.09.09.15.22.14.35,0,.12-.05.26-.14.35-.06.05-.11.11-.16.17.03-.03.05-.07.08-.1-.06.08-.12.18-.16.27.02-.04.03-.08.05-.12-.04.1-.07.2-.08.3,0-.04.01-.09.02-.13,0,.05-.01.1,0,.16,0-.04-.01-.09-.02-.13,0,.04.02.09.04.13-.02-.04-.03-.08-.05-.12.01.03.03.06.05.08-.03-.03-.05-.07-.08-.1.02.02.03.04.05.05-.03-.03-.07-.05-.1-.08.01.01.03.02.05.03-.04-.02-.08-.03-.12-.05.01,0,.02,0,.04,0-.04,0-.09-.01-.13-.02.01,0,.03,0,.04,0-.04,0-.09.01-.13.02.01,0,.03,0,.04-.01-.04.02-.08.03-.12.05.01,0,.02-.01.03-.02-.03.03-.07.05-.1.08.01-.01.03-.02.04-.04l-.08.1s.03-.05.04-.08c-.02.04-.03.08-.05.12.09-.24.14-.51.18-.77,0,.04-.01.09-.02.13.02-.12.03-.24.03-.36,0-.13.05-.25.14-.35.09-.08.23-.15.35-.14.13,0,.26.05.35.14.09.09.15.22.14.35h0Z"/>
        <path class="cls-6" d="M78.88,31.07c-.01.28-.05.57-.11.84-.07.3-.14.66-.44.83-.35.2-.79.03-.95-.32-.07-.15-.12-.3-.11-.46,0-.14.03-.28.07-.41.09-.29.25-.56.48-.75.1-.09.21-.14.35-.14.12,0,.26.05.35.14.09.09.15.22.14.35,0,.12-.05.26-.14.35-.06.05-.11.11-.16.17.03-.03.05-.07.08-.1-.06.08-.12.18-.16.27.02-.04.03-.08.05-.12-.04.1-.07.2-.08.3,0-.04.01-.09.02-.13,0,.05-.01.1,0,.16,0-.04-.01-.09-.02-.13,0,.04.02.09.04.13-.02-.04-.03-.08-.05-.12.01.03.03.06.05.08l-.08-.1s.03.04.05.05c-.03-.03-.07-.05-.1-.08.01.01.03.02.05.03-.04-.02-.08-.03-.12-.05.01,0,.02,0,.04,0-.04,0-.09-.01-.13-.02.01,0,.03,0,.04,0-.04,0-.09.01-.13.02.01,0,.03,0,.04-.01-.04.02-.08.03-.12.05.01,0,.02-.01.03-.02-.03.03-.07.05-.1.08.01-.01.03-.02.04-.04-.03.03-.05.07-.08.1.02-.02.03-.05.04-.08-.02.04-.03.08-.05.12.09-.24.14-.51.18-.77,0,.04-.01.09-.02.13.02-.12.03-.24.03-.36,0-.13.05-.25.14-.35.09-.08.23-.15.35-.14.13,0,.26.05.35.14.09.09.15.22.14.35h0Z"/>
        <path class="cls-6" d="M76.16,31.45c0,1.95-.02,3.9-.03,5.85,0,.39.04.82-.18,1.16-.2.31-.56.48-.92.55-.89.16-1.85.04-2.7-.26-.59-.2-.34-1.15.26-.94.69.24,1.47.38,2.2.25.35-.06.35-.16.36-.48,0-.42,0-.84,0-1.25,0-1.62.02-3.25.02-4.87,0-.63.99-.63.98,0h0Z"/>
        <path class="cls-6" d="M72.47,26.95c-1.38-.84-3.1-.62-4.62-.42-.26.03-.49-.25-.49-.49,0-.29.23-.45.49-.49,1.71-.22,3.58-.39,5.12.56.54.33.04,1.17-.5.84h0Z"/>
        <path class="cls-6" d="M74.14,43.01c-1.29.07-2.56-.18-3.8-.51-1.27-.33-2.53-.71-3.8-1.06.2-.2.4-.4.6-.6.25.68.57,1.33.98,1.94.35.52.78,1.14,1.39,1.4.63.27,1.36-.13,1.92-.42.66-.34,1.28-.76,1.84-1.24.47-.41,1.17.27.69.69-.69.6-1.44,1.12-2.27,1.51-.76.36-1.61.71-2.46.4-.77-.29-1.31-.93-1.78-1.58-.54-.75-.95-1.57-1.26-2.44-.13-.36.26-.7.6-.6,1.22.34,2.43.7,3.66,1.02,1.21.32,2.42.58,3.68.51.63-.03.63.94,0,.98h0Z"/>
        <path class="cls-6" d="M74.65,10.29c2.73,5.58,2.09,11.86,1.38,17.82-.07.62-1.06.62-.98,0,.68-5.75,1.39-11.93-1.25-17.33-.27-.56.57-1.06.85-.49h0Z"/>
        <path class="cls-6" d="M79.45,19.13c.17,1.88.11,3.76-.16,5.62-.11.77-.26,1.58-.7,2.24-.45.67-1.13,1.11-1.82,1.51-.54.32-1.04-.52-.5-.84.63-.37,1.27-.75,1.61-1.42.33-.65.42-1.42.51-2.14.21-1.65.22-3.32.08-4.98-.06-.63.93-.62.98,0h0Z"/>
        <path class="cls-6" d="M65.81,1.34c2.53.14,5,1.13,7.14,2.43,2.18,1.32,4.06,3.09,5.59,5.11,3.1,4.07,4.76,9.25,4.46,14.36-.13,2.24-.47,5.43-2.96,6.31-.6.21-.85-.73-.26-.94,1.96-.69,2.13-3.66,2.24-5.37.14-2.36-.15-4.72-.82-6.99-1.33-4.48-4.19-8.65-8.13-11.25-2.13-1.41-4.67-2.54-7.26-2.68-.63-.04-.63-1.01,0-.98h0Z"/>
        <path class="cls-6" d="M81.73,21.86c0,1.01-.1,2.02-.34,3-.22.89-.51,1.87-1.08,2.61-1.05,1.36-3.09,1.98-4.71,1.36-.25-.09-.42-.33-.34-.6.07-.23.35-.44.6-.34,1.31.5,3.03.03,3.79-1.18.43-.68.65-1.5.82-2.27.19-.84.27-1.7.27-2.57,0-.63.98-.63.98,0h0Z"/>
        <path class="cls-6" d="M79.47,29.23c-.15-.23-.3-.47-.45-.7-.04-.06-.06-.12-.06-.18-.01-.06-.01-.13,0-.19.03-.11.12-.24.23-.29.11-.06.25-.09.38-.05.12.04.22.11.29.22.15.23.3.47.45.7.04.06.06.12.06.18.01.06.01.13,0,.19-.03.11-.12.24-.23.29-.11.06-.25.09-.38.05-.12-.04-.22-.11-.29-.22h0Z"/>
        <path class="cls-6" d="M74.84,10.45c.23,1.68-.31,3.25-1.06,4.75-.64,1.28-1.43,2.47-2.33,3.58-1.83,2.24-4.17,4.08-6.77,5.34-1.47.71-3.03,1.25-4.64,1.58-.62.13-.88-.81-.26-.94,5.26-1.07,9.95-4.43,12.62-9.05.85-1.48,1.73-3.24,1.49-4.99-.08-.61.86-.88.95-.26h0Z"/>
        <path class="cls-6" d="M69.94,10.36c-2.03,6.04-4.95,12.27-10.7,15.63-.41.24-.95-.25-.67-.67,1.04-1.53,1.97-3.11,2.8-4.76.26.2.51.39.77.59-1.87,1.47-3.93,3-6.43,2.96-.63,0-.63-.99,0-.98,2.22.03,4.08-1.38,5.73-2.68.43-.34,1.03.07.77.59-.83,1.65-1.77,3.23-2.8,4.76-.22-.22-.45-.45-.67-.67,5.52-3.23,8.3-9.25,10.25-15.05.2-.59,1.15-.34.95.26h0Z"/>
        <path class="cls-6" d="M66.39,2.71c-4.99-.89-10.33,1.52-12.96,5.81-.33.54-1.18.05-.85-.49,2.88-4.69,8.64-7.23,14.07-6.26.62.11.36,1.05-.26.94h0Z"/>
        <path class="cls-6" d="M66.31,2.2c-2.76-1.56-6.2-1.58-9.09-.34-2.79,1.2-5.01,3.43-6.52,6.02-.32.54-1.17.05-.85-.49,1.64-2.82,4.08-5.22,7.13-6.48,3.14-1.3,6.84-1.23,9.81.45.55.31.05,1.15-.5.84h0Z"/>
        <path class="cls-6" d="M52.56,8.71c-.15-.11-.31-.21-.48-.29-.05-.02-.04-.02.02,0-.02,0-.04-.02-.07-.03-.04-.02-.09-.03-.13-.05-.09-.03-.18-.05-.27-.07-.02,0-.05,0-.07-.01-.06,0-.05,0,.03,0-.04-.01-.1-.01-.14-.01-.09,0-.19,0-.28,0-.05,0-.09,0-.14,0-.06,0-.05,0,.03,0-.02,0-.05,0-.07.01-.09.02-.18.04-.27.06-.25.07-.55-.09-.6-.34-.06-.26.08-.52.34-.6.87-.25,1.88-.09,2.61.46.11.08.19.16.23.29.03.12.02.27-.05.38-.13.2-.45.34-.67.18h0Z"/>
        <path class="cls-6" d="M50.93,7.98c-.76,1.55-1.2,3.22-1.44,4.92-.24,1.73-.34,3.54-.23,5.28.09,1.34.44,2.84-.59,3.91-.44.46-.99.78-1.47,1.2-.53.46-.85,1.07-.97,1.77-.24,1.39.2,3.2,1.13,4.28.96,1.11,2.5,1.02,3.63.23,1.26-.88,1.67-2.49,1.67-3.94,0-1.75-.55-3.42-.91-5.12-.86-4.06-.05-8.1.82-12.08.13-.61,1.08-.35.95.26-.86,3.95-1.64,7.92-.73,11.94.68,3.01,1.91,7.21-.97,9.54-1.07.87-2.59,1.29-3.91.75-1.47-.6-2.21-2.21-2.53-3.66-.32-1.47-.24-3.17.82-4.34.47-.51,1.08-.86,1.59-1.32.6-.54.65-1.13.61-1.91-.05-.98-.15-1.94-.14-2.92,0-1.12.06-2.24.19-3.35.23-2.05.72-4.05,1.63-5.92.28-.56,1.12-.07.85.49h0Z"/>
        <path class="cls-6" d="M52.86,20.21c1.98,1.15,2.92,3.68,3.21,5.83.35,2.53-.48,5.18-2.66,6.67-2.01,1.38-4.71,1.42-6.77.1-2.27-1.46-3.15-4.15-2.91-6.74.26-2.85,2-5.61,4.95-6.26.62-.14.88.8.26.94-4.53,1.01-5.73,7.81-2.44,10.75,1.6,1.43,3.97,1.72,5.87.7,1.98-1.07,2.88-3.2,2.78-5.37-.05-1.09-.35-2.21-.77-3.22-.43-1.02-1.05-1.99-2.02-2.56-.55-.32-.05-1.16.5-.84h0Z"/>
        <path class="cls-6" d="M50.59,7.35c-2.12,1.85-3.95,4.08-5.24,6.58-.68,1.33-1.04,2.71-.92,4.2.12,1.55.66,3.05,1.18,4.51.21.59-.74.85-.95.26-.55-1.55-1.09-3.12-1.22-4.76-.12-1.54.23-3,.9-4.38,1.3-2.7,3.3-5.12,5.55-7.09.47-.41,1.17.27.69.69h0Z"/>
        <path class="cls-6" d="M63.24,47.89c-1.41,1.55-2.47,3.42-2.57,5.54-.03.63-1.01.63-.98,0,.11-2.39,1.26-4.49,2.86-6.23.43-.47,1.12.23.69.69h0Z"/>
        <path class="cls-6" d="M48.61,33.47c-.04,4.16-1.22,8.26-3.38,11.82-.33.54-1.18.05-.85-.49,2.08-3.42,3.21-7.33,3.25-11.33,0-.63.99-.63.98,0h0Z"/>
        <path class="cls-6" d="M78.68,39.05c1.06,2.13,1.75,4.41,2.04,6.77.13,1.07.15,2.18-.33,3.17-.47.96-1.37,1.6-2.22,2.2-.52.37-1.01-.48-.5-.84.74-.52,1.54-1.09,1.91-1.95.39-.93.25-2.02.1-2.99-.31-2.04-.93-4.02-1.85-5.86-.28-.56.57-1.06.85-.49h0Z"/>
        <path class="cls-6" d="M73.93,52.88c.59,0,1.17,0,1.76-.05.08,0,.16-.02.24-.02,0,0,.16-.02.06,0,.03,0,.06,0,.09-.01.16-.03.33-.06.49-.1.07-.02.14-.04.21-.06.03-.01.22-.09.12-.04.06-.03.12-.06.18-.09.02-.01.04-.03.07-.04.01,0,.13-.09.08-.05-.04.03.07-.06.09-.08.03-.03.05-.05.07-.08-.07.08-.03.04-.01.01.03-.05.06-.1.09-.16-.05.11.02-.09.03-.13.03-.12,0,.07,0,0,0-.03,0-.07,0-.1,0-.03-.02-.23,0-.14-.03-.19-.08-.38-.16-.55-.17-.39-.5-.69-.94-.71-.61-.02-1.25.12-1.84.22-.36.06-.73.12-1.09.21-.03,0-.11.03-.14.04-.02,0-.05.01-.06.03.04-.09.07-.11.07-.05.06.05.07.34.08.42.08.33.17.66.28.98.06.17.11.34.19.5,0,.02.04.07.04.08.06.08.04.08-.06-.02.03,0,.06,0,.08,0,.63,0,.63.98,0,.98-.38,0-.7-.15-.88-.49-.17-.32-.29-.69-.4-1.03-.12-.37-.21-.74-.28-1.12-.07-.42-.03-.81.35-1.07.29-.2.69-.24,1.03-.3.39-.07.79-.13,1.19-.19.76-.11,1.59-.31,2.31.05.89.45,1.48,1.78,1.12,2.73-.29.77-1.09,1.12-1.85,1.27-.85.17-1.72.15-2.59.16-.63,0-.63-.97,0-.98Z"/>
        <path class="cls-6" d="M45.68,42.99c-.87-.39-1.77-.7-2.7-.95-.44-.12-.88-.23-1.33-.33-.23-.05-.46-.1-.69-.15-.02,0-.29-.05-.29-.06.11-.12.14-.12.1,0,0,.03-.01.06-.01.09-.14.9-.19,1.82-.31,2.72-.12.93-.28,1.85-.53,2.75-.17.6-1.12.35-.95-.26.29-1,.45-2.03.57-3.05.06-.52.12-1.04.17-1.57.05-.44.02-1.06.35-1.41.4-.4.97-.2,1.45-.09.53.11,1.05.23,1.57.37,1.06.28,2.09.65,3.09,1.09.24.11.3.46.18.67-.14.25-.43.28-.67.18h0Z"/>
        <path class="cls-6" d="M75.04,107.15c-.51-.7-1.5-.14-1.96.29-.57.54-1.06,1.19-1.5,1.84-.85,1.25-1.53,2.62-2.01,4.05-.98,2.93-1.15,6.09-.43,9.09.08.32-.15.6-.47.62-8.62.57-17.21-.65-25.62-2.44-2.12-.45-4.24-.94-6.35-1.44-1.04-.25-2.09-.5-3.13-.75-1-.24-2.05-.42-3.01-.79-1.7-.67-2.66-2.18-3.43-3.74-.91-1.83-1.77-3.7-2.58-5.57-3.25-7.51-5.76-15.38-6.98-23.48-.56-3.73-.75-7.46-.91-11.22-.12-3-.22-6.04.37-9,.58-2.92,1.95-5.65,4.34-7.52,1.5-1.18,3.26-1.79,5.01-2.51,1.96-.81,3.86-1.74,5.7-2.79.9-.51,1.78-1.05,2.65-1.61.53-.34,1.02.5.5.84-1.71,1.11-3.48,2.12-5.3,3.02-1.8.89-3.68,1.58-5.51,2.38-2.9,1.27-4.98,3.61-5.95,6.6-.9,2.77-.95,5.74-.88,8.62.09,3.44.2,6.89.59,10.31.9,7.92,3.11,15.68,6.07,23.07.75,1.88,1.56,3.73,2.41,5.57.42.91.85,1.82,1.3,2.72.37.76.77,1.53,1.32,2.18,1.27,1.52,3.41,1.7,5.24,2.14,2.05.49,4.11.98,6.16,1.45,8.16,1.84,16.46,3.29,24.86,3.13,1.05-.02,2.1-.07,3.15-.14-.16.21-.32.41-.47.62-1.3-5.39.09-11.7,4.02-15.76.98-1.02,2.69-1.61,3.68-.26.37.51-.48,1-.85.49h0Z"/>
        <path class="cls-6" d="M75.22,106.74c-7.33-.79-14.64-1.79-21.91-3.02-2.08-.35-4.15-.72-6.23-1.1-.62-.12-.36-1.06.26-.94,7.19,1.33,14.43,2.46,21.69,3.36,2.06.26,4.12.5,6.18.72.62.07.63,1.04,0,.98h0Z"/>
        <path class="cls-6" d="M47.49,102.3c-3.59-1.06-7.51-.49-10.65,1.54-.53.34-1.02-.5-.5-.84,3.34-2.16,7.58-2.77,11.4-1.64.6.18.35,1.12-.26.94h0Z"/>
        <path class="cls-6" d="M43.93,100.54c-.1-1.01-.47-1.98-1.05-2.81-.58-.84-1.39-1.33-2.16-1.97-.86-.71-.95-1.66-1.06-2.7-.12-1.19-.27-2.38-.45-3.56-.71-4.59-1.86-9.12-3.44-13.49-.89-2.47-1.92-4.88-3.08-7.24-.28-.56.57-1.06.85-.49,2.09,4.24,3.77,8.67,4.99,13.23.62,2.3,1.12,4.64,1.51,6.99.19,1.14.35,2.29.48,3.44.13,1.11,0,2.41.95,3.17.88.7,1.71,1.29,2.34,2.25.63.95.98,2.04,1.09,3.17.06.62-.92.62-.98,0h0Z"/>
        <path class="cls-6" d="M22.16,56.52c1.07-.52,1.98.68,2.63,1.35.76.79,1.51,1.59,2.22,2.42.17.2.2.49,0,.69-.18.18-.52.2-.69,0-.63-.73-1.27-1.44-1.94-2.13-.33-.34-.66-.68-1-1.01-.13-.13-.26-.26-.41-.36-.1-.06-.25-.14-.31-.11-.24.12-.53.06-.67-.18-.13-.22-.06-.55.18-.67h0Z"/>
        <path class="cls-6" d="M67.05,55.45c3.82,2.09,7.87,3.68,11.95,5.2.59.22.37,1.06-.26.94-.13-.02-.26-.05-.39-.07-.62-.12-.36-1.06.26-.94.13.02.26.05.39.07-.09.31-.17.63-.26.94-4.15-1.55-8.29-3.17-12.18-5.3-.55-.3-.06-1.15.5-.84h0Z"/>
        <path class="cls-6" d="M51.9,82.27c-2.16-.46-4.34-.79-6.55-.99-.54-.05-1.08-.09-1.61-.12-.25-.01-.51-.04-.76-.04.1,0,.05-.17.05.09,0,.16-.03.32-.05.48-.12,1.12-.24,2.24-.36,3.35-.07.62-1.05.62-.98,0,.14-1.28.27-2.55.41-3.83.05-.45.13-.92.65-1.04.57-.13,1.32.03,1.9.08,2.54.19,5.07.56,7.57,1.09.62.13.36,1.07-.26.94h0Z"/>
        <path class="cls-6" d="M52.69,81.75c-.07,1.66-.18,3.32-.31,4.98-.02.24-.21.52-.49.49-3.26-.38-6.49-.92-9.69-1.63-.62-.14-.36-1.08.26-.94,3.11.69,6.26,1.22,9.43,1.59-.16.16-.33.33-.49.49.14-1.66.24-3.32.31-4.98.03-.63,1.01-.63.98,0h0Z"/>
        <path class="cls-6" d="M56.72,70.96c2.36,4.02,4.29,8.29,5.86,12.67,1.58,4.42,2.72,8.94,3.77,13.5.65,2.8,1.29,5.61,1.94,8.41.14.61-.81.87-.95.26-2.14-9.3-4.01-18.68-7.92-27.45-1.05-2.36-2.24-4.67-3.55-6.9-.32-.54.53-1.04.85-.49h0Z"/>
        <path class="cls-6" d="M64.91,59.62c2.12,5.61,3.4,11.48,4.15,17.42.76,6.09.94,12.25.75,18.39-.11,3.37-.33,6.73-.64,10.09-.06.62-1.04.63-.98,0,.56-5.97.83-11.98.67-17.98-.16-6.04-.76-12.09-2.05-18-.71-3.28-1.65-6.51-2.83-9.65-.22-.59.73-.84.95-.26h0Z"/>
        <path class="cls-6" d="M65.95,54.72c2.9,2.23,5.72,4.56,8.68,6.69.27.19.32.51.1.77-1.61,1.83-2.95,3.87-4,6.07-.27.57-1.12.07-.85-.49,1.09-2.27,2.49-4.37,4.16-6.27.03.26.07.51.1.77-3.03-2.19-5.92-4.57-8.88-6.85-.5-.38.2-1.07.69-.69h0Z"/>
        <path class="cls-6" d="M71.34,66.23c1.34.93,2.65,1.92,3.91,2.96.3.24.59.49.88.74.28.24.62.47.83.77.41.59,0,1.28-.2,1.88-1.08,3.15-1.81,6.42-2.18,9.73-.07.62-1.05.62-.98,0,.34-3.01.95-5.99,1.86-8.89.11-.34.22-.67.33-1.01.06-.18.12-.36.19-.55.04-.12.2-.38.18-.52-.04-.29-.51-.55-.72-.73-.29-.25-.58-.49-.88-.74-1.2-.99-2.44-1.92-3.71-2.8-.51-.36-.02-1.2.5-.84h0Z"/>
        <path class="cls-6" d="M79.3,61.06c.61,1.11,1.11,2.28,1.46,3.5.34,1.22.52,2.49.65,3.75.06.62-.92.62-.98,0-.25-2.39-.81-4.63-1.97-6.76-.3-.55.55-1.05.85-.49h0Z"/>
        <path class="cls-6" d="M79.02,60.61c2.47-.58,4.14,2.31,5.33,3.97,1.55,2.15,3,4.38,4.4,6.63,2.77,4.46,5.36,9.03,8.24,13.43,1.64,2.5,3.38,4.95,5.28,7.26.4.48-.29,1.18-.69.69-6.49-7.89-10.96-17.13-16.69-25.54-.8-1.18-1.63-2.35-2.5-3.49-.7-.92-1.77-2.33-3.11-2.01-.61.14-.88-.8-.26-.94h0Z"/>
        <path class="cls-6" d="M82.3,75.72c2.15,8.05-.78,16.23-1.84,24.2-.3,2.26-.46,4.55-.31,6.83.04.63-.94.62-.98,0-.52-8.15,2.69-15.96,2.91-24.06.06-2.27-.14-4.52-.72-6.72-.16-.61.79-.87.95-.26h0Z"/>
        <path class="cls-6" d="M74.09,106.27c1.9.01,3.78.19,5.65.53.34.06.5.6.22.82-2,1.54-3.15,3.95-3.66,6.36-.25,1.19-.39,2.51-.18,3.72.12.68.39,1.39,1,1.76.51.31,1.32.25,1.54-.39.32.09.63.17.95.26-.35.82-.69,1.64-1.04,2.46-.1.25-.32.41-.6.34-1.43-.36-3.02-.15-4.48-.11-1.55.04-3.1.08-4.65.13-.63.02-.63-.96,0-.98,1.62-.04,3.23-.09,4.85-.13,1.5-.04,3.08-.22,4.54.15-.2.11-.4.23-.6.34.35-.82.69-1.64,1.04-2.46.24-.56,1.16-.35.95.26-.41,1.15-1.72,1.59-2.8,1.07-1.24-.59-1.65-1.98-1.74-3.24-.17-2.42.46-4.95,1.6-7.09.64-1.2,1.5-2.31,2.58-3.14l.22.82c-1.78-.32-3.58-.49-5.39-.5-.63,0-.63-.98,0-.98h0Z"/>
        <path class="cls-6" d="M79.46,106.95c4.39.33,8.8.36,13.2.1.63-.04.63.94,0,.98-4.4.26-8.8.23-13.2-.1-.63-.05-.63-1.02,0-.98h0Z"/>
        <path class="cls-6" d="M107.96,102.66c-1.27-.37-2.66.54-3.77,1.04-1.28.58-2.56,1.16-3.85,1.74-2.36,1.07-4.74,2.17-7.31,2.65-.62.12-.88-.82-.26-.94,2.75-.52,5.28-1.74,7.8-2.89,1.34-.61,2.69-1.21,4.03-1.82,1.14-.51,2.34-1.09,3.61-.72.61.18.35,1.12-.26.94h0Z"/>
        <path class="cls-6" d="M107.36,104.55c3.32.37,6.59.29,9.91.05.63-.05,1.22.05,1.68.52.53.53.92,1.26,1.34,1.87.95,1.37,1.89,2.75,2.84,4.12.36.52-.49,1.01-.85.49-.87-1.26-1.74-2.53-2.61-3.79-.42-.61-.81-1.25-1.27-1.83-.47-.61-1.21-.39-1.9-.33-3.04.26-6.11.21-9.14-.12-.62-.07-.63-1.05,0-.98h0Z"/>
        <path class="cls-6" d="M123.21,111.37c.58,1.24,1.21,2.47,1.75,3.73.22.52.19,1.11-.31,1.45-.45.3-1.02.32-1.54.23-1.12-.2-2.01-1.05-2.67-1.92-.39-.51-.72-1.06-1-1.64-.13-.26-.25-.53-.35-.81-.12-.3-.17-.44-.47-.57-1.11-.48-1.94-1.44-2.26-2.6-.17-.61.78-.87.95-.26.15.54.42,1.01.83,1.4.19.18.39.33.62.45.24.13.51.2.73.38.48.38.61,1.13.87,1.65.28.56.62,1.12,1.02,1.61.36.45.78.86,1.29,1.13.25.14.53.23.82.26.13.01.6.04.66-.14.02-.06-.08-.24-.1-.28-.08-.19-.17-.37-.26-.55-.15-.32-.3-.64-.45-.96-.32-.68-.65-1.37-.97-2.05-.27-.57.58-1.06.85-.49h0Z"/>
        <path class="cls-6" d="M107.89,108.39c1.07.14,2.13.28,3.2.42.93.12,1.97.11,2.75.69,1.6,1.18,3.09,2.56,4.5,3.95.72.71,1.42,1.44,2.1,2.2.25.28.54.57.59.97.04.4-.18.73-.53.91-.66.33-1.64.12-2.3-.08-.85-.25-1.64-.7-2.29-1.29-.77-.7-1.23-1.63-2.17-2.15-.88-.49-1.9-.68-2.88-.87-.62-.12-.36-1.06.26-.94,1.4.27,2.88.6,3.97,1.58.61.54,1.01,1.27,1.63,1.8.56.48,1.25.82,1.97,1,.33.08.78.2,1.12.14.22-.04.2-.05.07-.23-.14-.19-.33-.37-.5-.55-.58-.63-1.18-1.25-1.79-1.85-1.23-1.2-2.51-2.35-3.85-3.43-.37-.29-.69-.57-1.16-.66-.51-.1-1.05-.15-1.57-.21-1.03-.14-2.07-.27-3.1-.41-.62-.08-.63-1.06,0-.98h0Z"/>
        <path class="cls-6" d="M111.46,113.24c-1.42.2-2.85.28-4.29.24-.63-.02-.63-1,0-.98,1.34.04,2.69-.02,4.03-.2.26-.04.53.06.6.34.06.23-.08.56-.34.6h0Z"/>
        <path class="cls-6" d="M107.38,113.25c-4.75,4.64-11.86,4.41-17.89,2.94-.61-.15-.35-1.09.26-.94,5.67,1.38,12.45,1.7,16.93-2.69.45-.44,1.15.25.69.69h0Z"/>
        <path class="cls-6" d="M89.55,116.16c-4.53.46-9.08.8-13.63,1.02-.63.03-.63-.95,0-.98,4.55-.21,9.1-.55,13.63-1.02.63-.06.62.91,0,.98h0Z"/>
        <path class="cls-6" d="M79.72,117.07s-.02.12,0,.04c0,.05-.01.1-.02.14-.01.08-.02.17-.03.25-.02.17-.03.35-.05.52-.02.35-.04.69-.04,1.04,0,.26-.23.5-.49.49-.27-.01-.49-.21-.49-.49,0-.75.06-1.5.17-2.25.02-.11.13-.24.23-.29.11-.06.26-.09.38-.05.12.04.23.11.29.22.07.12.07.24.05.38h0Z"/>
        <path class="cls-6" d="M108.46,102.01c1.78.26,3.56.52,5.34.78l2.67.39c.85.13,1.74.2,2.58.39.75.17,1.21.62,1.66,1.21.54.72,1.07,1.45,1.61,2.18,1.08,1.46,2.16,2.93,3.24,4.39.46.62,1.26,1.39.71,2.19-.5.74-1.41.64-2.17.41-.6-.19-.35-1.13.26-.94.31.1,1.35.37.99-.28-.23-.43-.6-.82-.89-1.21-.56-.76-1.12-1.52-1.68-2.28-.56-.76-1.12-1.52-1.68-2.28-.28-.38-.56-.76-.84-1.14-.27-.37-.52-.8-.9-1.08-.36-.27-.85-.3-1.28-.36-.46-.07-.92-.14-1.39-.2-.92-.14-1.85-.27-2.77-.41-1.91-.28-3.83-.56-5.74-.84-.62-.09-.36-1.03.26-.94h0Z"/>
        <path class="cls-6" d="M117.05,109.69c-.92.16-1.84.32-2.75.48-.25.04-.54-.07-.6-.34-.05-.24.07-.55.34-.6.92-.16,1.84-.32,2.75-.48.25-.04.54.07.6.34.05.24-.07.55-.34.6h0Z"/>
        <path class="cls-6" d="M124.6,105.33c1.38.35,2.79.59,4.21.72.66.06,1.32.06,1.98.12.52.04,1.06.16,1.45.54.92.91.24,2.25-.64,2.88-.49.35-1.11.68-1.71.79-.67.12-1.18-.16-1.79-.4-1.41-.54-2.99.05-4.44-.12-.62-.07-.63-1.05,0-.98,1.39.17,2.78-.27,4.16,0,.68.13,1.32.69,2.03.5.58-.15,1.35-.57,1.68-1.07.38-.59.06-1.06-.57-1.16-.68-.11-1.38-.07-2.07-.13-1.54-.13-3.06-.39-4.55-.76-.61-.15-.35-1.09.26-.94h0Z"/>
        <path class="cls-6" d="M134.33,103.74c-1.22-.89-2.44-1.77-3.66-2.66-.57-.42-1.17-.96-1.84-1.2-.74-.26-1.19.23-1.62.76-.92,1.11-1.87,2.17-2.9,3.18-.51.5-1.02,1-1.56,1.45-.48.4-.98.65-1.62.53-.62-.11-.36-1.05.26-.94.35.06.69-.3.93-.51.28-.25.56-.5.83-.76.55-.52,1.08-1.05,1.59-1.6.49-.52.97-1.06,1.43-1.62.41-.49.8-1.05,1.39-1.35,1.28-.64,2.49.38,3.46,1.09,1.27.92,2.54,1.85,3.82,2.77.51.37.02,1.21-.5.84h0Z"/>
        <path class="cls-6" d="M133.7,106.6c-.5-.14-.96-.36-1.39-.65-.4-.28-.77-.61-1.19-.87-.89-.57-1.94-.83-2.85-1.34-.55-.31-.06-1.15.5-.84.89.5,1.91.76,2.78,1.3.82.5,1.46,1.21,2.41,1.47.61.17.35,1.11-.26.94h0Z"/>
        <path class="cls-6" d="M130.41,99.1c1.05-.15,1.96.35,2.88.78.97.45,1.94.9,2.9,1.35.24.11.3.45.18.67-.14.24-.43.29-.67.18-.87-.41-1.74-.81-2.61-1.22-.41-.19-.81-.39-1.22-.56-.36-.15-.79-.31-1.19-.25-.26.04-.53-.06-.6-.34-.06-.23.08-.56.34-.6h0Z"/>
        <path class="cls-6" d="M130.26,104.58c-.32.38-.78.58-1.19.84-.04.03-.09.06-.13.08-.02.02-.05.03-.07.05-.05.03.09-.07.02-.01-.09.08-.17.15-.24.24-.06.06.05-.07.02-.02-.02.02-.03.05-.05.07-.01.02-.02.04-.03.06,0,.02-.02.03-.02.05,0-.02.02-.04.03-.07-.01.05-.03.1-.05.15-.02.09,0-.12,0-.02,0,.03,0,.05,0,.08,0,.26-.23.5-.49.49-.27-.01-.49-.21-.49-.49,0-.61.41-1.1.9-1.43.2-.13.41-.24.62-.36.05-.03.1-.06.15-.09.04-.03.1-.08.15-.1-.06.05-.07.05-.03.02.01,0,.02-.02.03-.03.02-.02.04-.04.07-.06.05-.04.09-.09.13-.14.16-.2.53-.18.69,0,.19.21.17.48,0,.69h0Z"/>
        <path class="cls-6" d="M130.55,110.77c-1.54.99-3.39,1.46-5.21,1.34-.26-.02-.49-.21-.49-.49,0-.25.23-.51.49-.49,1.67.12,3.31-.3,4.72-1.2.53-.34,1.03.5.5.84h0Z"/>
        <path class="cls-6" d="M116.97,104.1c-1.31-.64-2.63-1.28-3.94-1.92-.53-.26-1.23-.81-1.82-.57-.67.28-1.32.66-1.96,1-.56.3-1.05-.54-.5-.84.71-.38,1.43-.81,2.19-1.1.74-.29,1.34.07,2,.39,1.5.73,3.01,1.47,4.51,2.2.57.28.07,1.12-.5.84h0Z"/>
        <path class="cls-6" d="M113.75,102.23c-.44-.54-.92-1.05-1.43-1.52-.46-.43-1.08-1.12-1.71-1.29-.34-.1-.77.05-1.11.11-.37.07-.74.13-1.11.2-.77.15-1.54.32-2.29.53-2.55.73-5.05,2.13-6.12,4.66-.25.58-1.09.08-.85-.49,1.2-2.81,4.06-4.38,6.89-5.16.82-.23,1.65-.4,2.48-.55.73-.14,1.64-.45,2.37-.24.71.2,1.35.83,1.89,1.31.61.54,1.17,1.13,1.69,1.76.4.48-.29,1.18-.69.69h0Z"/>
        <path class="cls-6" d="M102.04,92.1c.63.06,1.35.04,1.97.2.51.14.69.58.69,1.06,0,1.3,1.17,1.85,2.2,2.37,1.18.59,2.35,1.18,3.53,1.77.46.23,1.08.44,1.35.91.26.45.12.97-.3,1.26-.52.36-1.01-.49-.5-.84-.12.08-.08.03-.23-.06-.08-.05-.18-.09-.26-.14-.24-.12-.48-.24-.72-.36-.48-.24-.96-.48-1.44-.73-.94-.47-1.91-.9-2.81-1.43-.74-.43-1.39-1.01-1.68-1.83-.07-.19-.1-.39-.12-.6,0-.13.04-.45-.02-.49-.1-.07-.58-.03-.74-.05-.3-.03-.6-.06-.91-.08-.62-.06-.63-1.03,0-.98h0Z"/>
        <path class="cls-6" d="M101.99,97.45c-1.66.33-2.93,1.57-3.92,2.87-1.07,1.4-2.02,3.17-1.73,4.99.1.61-.85.88-.95.26-.33-2.11.58-4.08,1.83-5.74,1.14-1.5,2.59-2.93,4.5-3.32.62-.12.88.82.26.94h0Z"/>
        <path class="cls-6" d="M81.51,93.27c1.91,2.51,3.91,4.95,6.1,7.22,1.1,1.14,2.29,2.2,3.42,3.32.53.52,1,1.08,1.43,1.69.39.55.77,1.08,1.41,1.36.58.25.08,1.09-.5.84-.64-.28-1.09-.79-1.5-1.34-.45-.61-.88-1.19-1.42-1.73-1.16-1.17-2.4-2.26-3.55-3.45-2.25-2.33-4.29-4.84-6.26-7.42-.38-.5.47-.99.85-.49h0Z"/>
        <path class="cls-6" d="M178.85,67.09c.28-.13.19-.58.02-.78-.29-.34-.86-.34-1.26-.36-.2-.01-.4-.03-.59-.04-.67-.05-1.34-.11-2.01-.17-2.18-.19-4.35-.4-6.53-.6-5.09-.48-10.18-.97-15.28-1.44-1.55-.14-3.1-.31-4.66-.4-.63-.03-.63-1.01,0-.98,3.96.22,7.92.7,11.87,1.07,5.01.47,10.02.96,15.04,1.4.68.06,1.36.12,2.04.17.77.05,1.62.1,2.15.74.53.63.53,1.83-.29,2.23-.57.27-1.07-.57-.5-.84h0Z"/>
        <path class="cls-6" d="M148.45,63.33c-1.12-.15-1.68,1.35-1.91,2.17-.12.45-.22.9-.33,1.35-.08.29-.16.58-.23.87-.32,1.15-.64,2.3-.96,3.46-1.12,4-2.24,7.99-3.37,11.98-1.4,4.97-2.81,9.94-4.23,14.91-1.26,4.43-2.53,8.86-3.82,13.29-.69,2.37-1.32,4.79-2.14,7.12-.03.08-.05.15-.08.23-.24.57-1.19.32-.95-.26.27-.63.44-1.32.64-1.98.43-1.42.85-2.84,1.27-4.27,1.28-4.36,2.53-8.73,3.78-13.11,1.44-5.04,2.87-10.09,4.3-15.14,1.18-4.16,2.35-8.32,3.51-12.48.35-1.26.7-2.52,1.05-3.78.39-1.42.55-3.08,1.45-4.26.56-.74,1.36-1.17,2.3-1.05.62.08.36,1.02-.26.94h0Z"/>
        <path class="cls-6" d="M179.7,67.61c-.55,1.59-1.03,3.21-1.54,4.81-1.07,3.39-2.13,6.77-3.19,10.16-1.25,4.01-2.5,8.03-3.74,12.05-1.09,3.54-2.18,7.09-3.24,10.64-.57,1.91-1.2,3.82-1.63,5.76-.02.11-.04.24-.02.08-.06.62-1.05.62-.98,0,.06-.56.24-1.11.39-1.65.31-1.11.63-2.21.96-3.31,1.01-3.4,2.04-6.79,3.09-10.17,1.25-4.05,2.5-8.1,3.77-12.15,1.1-3.54,2.21-7.07,3.33-10.6.6-1.9,1.17-3.81,1.81-5.7.02-.06.04-.13.06-.19.2-.59,1.15-.34.95.26h0Z"/>
        <path class="cls-6" d="M166.08,111.51c-.56,1.33-1.92,1.52-3.2,1.76-.63.12-1.25.24-1.88.36-2.41.46-4.82.93-7.22,1.4-5.97,1.17-11.93,2.34-17.88,3.58-1.1.23-2.2.46-3.29.71-.34.08-.68.15-1.01.24-.11.03-.21.06-.32.08-.06.02-.29.11-.07.01-.57.25-1.07-.59-.5-.84.4-.18.85-.25,1.27-.35.85-.2,1.7-.38,2.55-.56,2.67-.57,5.35-1.11,8.03-1.64,5.7-1.14,11.4-2.26,17.1-3.36.86-.17,1.72-.33,2.57-.49.94-.18,2.47-.17,2.88-1.15.24-.57,1.19-.32.95.26h0Z"/>
        <path class="cls-6" d="M165.06,112.2c.47.68.21,1.85-.59,2.19-.13.06-.28.09-.42.12-.7.18-1.41.33-2.11.48-2.59.57-5.18,1.1-7.77,1.63-6.21,1.27-12.42,2.52-18.64,3.76-1.52.3-3.04.62-4.57.91-.62.12-.88-.82-.26-.94,3.9-.73,7.78-1.55,11.67-2.33,5.98-1.2,11.96-2.4,17.93-3.67.97-.21,1.95-.42,2.92-.64.26-.06.53-.12.78-.19.06-.02.13-.03.19-.06.07-.03-.1.09-.06.03.16-.27.29-.5.09-.79-.36-.52.49-1.01.85-.49h0Z"/>
        <path class="cls-6" d="M130.68,121.61c-9.59-.27-19.17-.75-28.73-1.5-1.29-.1-2.57-.22-3.85-.4-.65-.09-1.3-.19-1.94-.32-.63-.12-1.2-.34-1.81-.55-.23-.08-.33-.24-.36-.47-.06-.5-.06-1.01-.07-1.52,0-.63.98-.63.98,0,0,.51,0,1.01.07,1.52-.12-.16-.24-.31-.36-.47.51.17.99.38,1.52.49.58.12,1.16.22,1.74.31,1.16.17,2.32.29,3.49.38,2.34.19,4.68.35,7.02.5,4.74.31,9.48.57,14.23.76,2.69.11,5.39.21,8.08.28.63.02.63.99,0,.98h0Z"/>
        <path class="cls-6" d="M128.43,119.64c-8.07-.22-16.14-.74-24.17-1.57-.62-.06-.63-1.04,0-.98,8.03.83,16.1,1.35,24.17,1.57.63.02.63.99,0,.98h0Z"/>
        <path class="cls-6" d="M132.95,110.9c-.8-.06-1.59-.11-2.39-.17-.26-.02-.5-.21-.49-.49.01-.25.22-.51.49-.49.8.06,1.59.11,2.39.17.26.02.5.21.49.49-.01.25-.22.51-.49.49h0Z"/>
        <path class="cls-6" d="M133.35,109.7c-.49.05-.97.1-1.46.15-.12.01-.27-.06-.35-.14-.09-.08-.15-.22-.14-.35,0-.13.05-.26.14-.35.1-.09.21-.13.35-.14.49-.05.97-.1,1.46-.15.12-.01.27.06.35.14.09.08.15.22.14.35,0,.13-.05.26-.14.35-.1.09-.21.13-.35.14h0Z"/>
        <path class="cls-6" d="M23.95,104.32c.73,3.86,1.85,7.65,2.45,11.53.16.99.21,1.97.04,2.97-.17.97-.51,1.89-.82,2.82-.43,1.26-.85,2.53-1.27,3.79-.2.59-1.15.34-.95-.26.41-1.21.81-2.42,1.22-3.63.31-.92.65-1.84.84-2.79.2-1.01.1-2.02-.07-3.02-.65-3.74-1.68-7.4-2.39-11.14-.12-.61.83-.88.95-.26h0Z"/>
        <path class="cls-6" d="M51.24,122.36c-2.12.11-4.24.44-6.34.73-3.47.48-6.93,1.01-10.38,1.55-7.97,1.24-15.93,2.55-23.9,3.82-3.33.53-6.66,1.06-10,1.54-.62.09-.89-.85-.26-.94,6.8-.97,13.57-2.11,20.35-3.2,7.66-1.23,15.32-2.49,23.01-3.58,2.49-.35,5.01-.76,7.53-.89.63-.03.63.94,0,.98h0Z"/>
        <path class="cls-6" d="M89.97,116.1c-3.48.52-6.96,1.06-10.43,1.61-.62.1-.88-.84-.26-.94,3.48-.55,6.95-1.09,10.43-1.61.62-.09.89.85.26.94h0Z"/>
        <path class="cls-6" d="M80.41,29.54c-.29,1.18-.48,2.37-.58,3.57-.02.26-.21.49-.49.49-.25,0-.51-.22-.49-.49.1-1.29.3-2.57.61-3.83.06-.26.35-.41.6-.34.26.07.41.34.34.6h0Z"/>
        <path class="cls-6" d="M44.35,20.38c-3.15,2.25-4.58,6.2-5.26,9.85-.77,4.13-.67,8.37-1.32,12.52-.37,2.38-.88,4.74-1.2,7.13-.08.62-1.03.36-.95-.26.3-2.2.75-4.37,1.11-6.55.36-2.19.53-4.38.69-6.59.29-4.08.66-8.25,2.45-12,.92-1.93,2.23-3.69,3.99-4.94.51-.37,1.01.48.5.84h0Z"/>
        <path class="cls-6" d="M52.96,32.7c.48.16.75.58.77,1.07.02.5-.27.92-.67,1.2-.38.26-.87.4-1.33.46-.57.08-1.14.03-1.59-.35-.2-.17-.36-.41-.44-.66-.09-.3-.05-.59.07-.87.1-.24.47-.31.67-.18.25.16.28.42.18.67.02-.06.03-.06.01,0-.01.06-.01.05,0-.02,0,.04,0,.07,0,.11,0-.14.02.02.02.04.01.03,0,.02-.01-.03.01.02.02.05.04.07.02.03.04.07.06.1-.07-.1.04.03.06.05.06.07-.06-.03.03.02.03.02.07.04.1.06-.09-.05.09.03.11.03,0,0,.16.03.07.02.12.02.24.01.36,0,0,0,.16-.02.07,0,.07,0,.14-.02.2-.04.1-.02.2-.05.3-.07.09-.03.18-.06.27-.09-.1.04.04-.02.06-.03.05-.02.09-.05.13-.07.03-.02.11-.08.04-.02.04-.04.08-.08.12-.12.07-.06-.02.05.03-.04,0-.02.06-.13.04-.06-.02.08.01-.06.02-.07.03-.1,0,.1,0,0,0-.02.01-.12,0-.14,0,.02,0,.04,0,.06,0-.02,0-.04-.02-.07-.03-.11.01-.02,0,0,0-.02-.02-.04-.03-.06-.03-.04-.02-.04.02.02-.01-.01-.02-.02-.03-.03-.03-.02-.01-.02.04.02-.02-.01-.04-.02-.06-.03.07.03.08.03.02.01-.24-.08-.43-.34-.34-.6.08-.24.34-.43.6-.34h0Z"/>
      </g>
      <path class="cls-6" d="M61.34,51.85c0,.49,0,.98,0,1.48,0,.38.04.8-.09,1.17-.31.9-1.2.62-1.84.29-1.48-.76-3.08-1.33-4.43-2.31-1.31-.95-2.11-2.33-2.85-3.73-.38-.71-.73-1.44-1.14-2.14-.1-.17-.16-.3-.34-.38-.22-.09-.56-.05-.8-.05-.57,0-1.15-.02-1.72-.03-1.6-.03-3.63-.03-4.54-1.6-.31-.55.53-1.04.85-.49.7,1.21,2.48,1.1,3.69,1.12.87.02,1.85-.09,2.7.08.7.14.98.8,1.29,1.36.69,1.27,1.28,2.61,2.14,3.78.86,1.18,2.11,1.86,3.4,2.48.75.36,1.51.69,2.25,1.07.06.03.12.07.19.1.16.07.2.13.26-.03.06-.15,0-.42,0-.58,0-.52,0-1.05,0-1.57,0-.63.98-.63.98,0h0Z"/>
      <path class="cls-6" d="M64.07,48.31c.62.8,1.25,1.59,1.87,2.39.52.66.96,1.3.69,2.17-.26.85-.88,1.54-1.16,2.39-.14.44-.2.94,0,1.37.15.33.41.62.59.93.24.41.38.84.12,1.28-.29.5-.89.95-1.39,1.22-1.26.68-2.89.75-4.24.34-.6-.18-.35-1.13.26-.94,1.13.34,2.51.32,3.55-.28.23-.13.98-.6.99-.88,0-.1-.17-.31-.23-.4-.18-.28-.39-.55-.53-.86-.63-1.34.19-2.66.81-3.82.21-.39.45-.8.27-1.24-.14-.34-.44-.63-.67-.92-.54-.69-1.08-1.38-1.62-2.07-.38-.49.31-1.19.69-.69h0Z"/>
      <path class="cls-6" d="M53.24,52.38c2.07,2.23,5.26,3.26,6.86,5.94.88,1.48,1.14,3.21,1.32,4.89.21,2,.31,4,.29,6.01-.01,2.27-.18,4.54-.47,6.79-.06.49-.61.65-.92.25-2.78-3.67-6.09-6.83-9.74-9.63-1.67-1.28-3.34-2.6-4.55-4.34-1.11-1.61-1.7-3.56-1.75-5.51-.07-2.21.56-4.43,1.82-6.24.36-.51,1.21-.03.85.49-2.21,3.17-2.27,7.58-.07,10.77,1.17,1.7,2.87,2.98,4.49,4.22,1.7,1.3,3.34,2.66,4.87,4.15,1.79,1.74,3.42,3.61,4.92,5.6-.31.08-.61.16-.92.25.5-3.82.6-7.68.29-11.52-.14-1.72-.27-3.56-1.02-5.14-.66-1.39-1.84-2.38-3.08-3.25-1.35-.94-2.78-1.81-3.91-3.02-.43-.46.27-1.15.69-.69h0Z"/>
      <path class="cls-6" d="M46.25,52.1c-.83,1.19-1.3,2.56-2.07,3.78-.7,1.11-1.64,2.03-2.72,2.77-2.45,1.69-5.42,2.31-8.29,2.89-.57.11-.82-.56-.38-.89,1.22-.9.73-2.81.68-4.06-.07-1.55.46-3.03,1-4.46.83-2.22,1.99-4.64,4.35-5.57,1.69-.67,3.55-.28,5.26.1.62.14.36,1.08-.26.94-1.85-.41-3.88-.81-5.54.35-1.25.87-2,2.32-2.57,3.69-.7,1.7-1.37,3.48-1.23,5.34.12,1.63.3,3.43-1.19,4.52-.13-.3-.25-.59-.38-.89,2.74-.56,5.56-1.13,7.92-2.7,1.07-.71,1.98-1.63,2.63-2.73.69-1.17,1.16-2.44,1.93-3.56.36-.51,1.21-.03.85.49h0Z"/>
      <path class="cls-6" d="M45.13,47.99c-3.06-.1-5.16,2.49-6.85,4.67-.16.21-.42.32-.67.18-.21-.12-.34-.46-.18-.67,1.91-2.46,4.25-5.27,7.7-5.15.63.02.63,1,0,.98h0Z"/>
      <path class="cls-6" d="M51.89,52.5c-.47-1.17-1.1-2.27-1.84-3.28-.09-.12-.18-.24-.27-.35-.02-.03-.28-.3-.27-.32-.02.07.22.01.22.01,0,0-.05.08-.07.1-.07.13-.14.27-.19.41-.25.59-.42,1.22-.51,1.85-.04.26-.37.4-.6.34-.28-.08-.38-.34-.34-.6.12-.78.35-1.52.68-2.24.16-.34.36-.7.76-.79.48-.11.79.24,1.05.57.98,1.23,1.76,2.58,2.34,4.03.1.24-.11.54-.34.6-.28.08-.51-.1-.6-.34h0Z"/>
      <path class="cls-6" d="M39.01,59.48c2.63.83,5.06,2.17,7.17,3.94.48.41-.21,1.09-.69.69-1.97-1.66-4.27-2.91-6.74-3.69-.6-.19-.34-1.13.26-.94h0Z"/>
      <path class="cls-6" d="M45.32,63.17c-.81,1.6-1.74,3.14-2.77,4.61-.06-.22-.12-.45-.18-.67,1.48,1.03,2.95,2.07,4.43,3.1,1.34.94,2.66,1.86,3.89,2.93,1.57,1.36,3.03,2.86,4.34,4.47,1.51,1.84,2.83,3.82,3.96,5.91.3.55-.55,1.05-.85.49-1.95-3.63-4.51-6.91-7.57-9.68-2-1.81-4.27-3.28-6.48-4.83-.74-.52-1.48-1.04-2.22-1.56-.2-.14-.34-.44-.18-.67,1.04-1.47,1.96-3.01,2.77-4.61.28-.56,1.13-.07.85.49h0Z"/>
    </g>
    <g>
      <path class="cls-7" d="M218.64,111.89c-2.43.12-4.58-.15-6.46-.79-1.88-.64-3.35-1.6-4.41-2.89-1.06-1.28-1.59-2.85-1.59-4.69,0-1.19.24-2.29.73-3.29.49-1,1.17-1.9,2.03-2.69-1.56.33-3.09.68-4.58,1.05s-2.84.75-4.04,1.12-2.16.74-2.89,1.08l-1.54-3.92c.28-.05.7-.13,1.26-.25.56-.12,1.33-.28,2.31-.49.89-.19,1.87-.65,2.94-1.4s2.16-1.64,3.27-2.68c1.11-1.04,2.14-2.12,3.1-3.25.96-1.13,1.75-2.19,2.38-3.17-.91.21-1.9.42-2.96.63-1.06.21-2.08.39-3.04.53s-1.78.23-2.43.28l-1.22-3.89c.86,0,1.88-.05,3.04-.16,1.17-.1,2.34-.24,3.53-.4,1.19-.16,2.29-.36,3.29-.59,1-.23,1.79-.47,2.35-.7l3.5,2.24c-.49,1-1.19,2.15-2.1,3.43s-1.97,2.57-3.17,3.85c-1.2,1.28-2.51,2.47-3.94,3.57,1.84-.37,3.66-.75,5.44-1.12,1.79-.37,3.37-.71,4.76-1,1.39-.29,2.41-.5,3.06-.61l.67,4.06c-.44,0-.98.02-1.61.07-.63.05-1.32.13-2.06.25-1.35.16-2.62.54-3.8,1.14-1.18.6-2.13,1.41-2.87,2.43-.73,1.03-1.1,2.26-1.1,3.71,0,1.05.41,1.91,1.23,2.59.82.68,1.95,1.15,3.4,1.42,1.45.27,3.09.33,4.94.19-.37.58-.69,1.31-.94,2.17-.26.86-.41,1.59-.46,2.17Z"/>
      <path class="cls-7" d="M247.34,110.28c-.09-.37-.27-.82-.52-1.33s-.55-1.01-.89-1.49c-.34-.48-.67-.87-1-1.17,3.2-.49,5.63-1.53,7.3-3.13,1.67-1.6,2.55-3.48,2.64-5.65.09-1.73-.22-3.27-.95-4.62-.72-1.35-1.71-2.45-2.96-3.29-1.25-.84-2.62-1.34-4.11-1.5-.19,2.17-.54,4.39-1.05,6.65-.51,2.26-1.21,4.39-2.08,6.37-.88,1.98-1.94,3.66-3.2,5.04-.96,1.03-1.88,1.62-2.78,1.79-.9.16-1.85.04-2.85-.38-.98-.42-1.84-1.08-2.59-2-.75-.91-1.32-1.99-1.71-3.24-.4-1.25-.56-2.58-.49-4.01.12-2.12.62-4.07,1.5-5.83s2.08-3.28,3.57-4.57c1.49-1.28,3.21-2.25,5.15-2.91,1.94-.65,4-.92,6.19-.8,1.77.09,3.44.49,5,1.19,1.56.7,2.93,1.66,4.11,2.89,1.18,1.23,2.09,2.64,2.73,4.25.64,1.61.9,3.37.79,5.29-.16,3.2-1.28,5.87-3.36,8.03-2.08,2.16-4.89,3.63-8.44,4.43ZM235.97,103.21c.26.19.53.28.81.28s.56-.14.84-.42c.84-.84,1.62-2.03,2.33-3.57.71-1.54,1.31-3.28,1.79-5.21.48-1.94.79-3.91.93-5.92-1.61.37-3.04,1.05-4.29,2.03-1.25.98-2.23,2.17-2.96,3.55-.72,1.39-1.13,2.91-1.22,4.57-.05,1.1.1,2.05.44,2.85.34.81.79,1.42,1.35,1.84Z"/>
      <path class="cls-7" d="M263.58,89.94v-3.22h12.32v3.22h-12.32ZM283.53,112.52v-8.12c-.96,1.21-2.02,2.36-3.2,3.45-1.18,1.08-2.35,2.01-3.52,2.78-.21-.3-.5-.67-.86-1.08-.36-.42-.71-.79-1.03-1.12v3.22h-10.15v-10.04h10.15v5.88c.82-.51,1.66-1.12,2.52-1.84s1.7-1.47,2.5-2.28c.81-.8,1.5-1.59,2.08-2.36h-6.23v-3.25h7.73v-2.03h-6.61v-14.17h16.94v14.17h-6.69v2.03h8.58v3.25h-7.07c.65.82,1.43,1.64,2.33,2.47.9.83,1.83,1.6,2.8,2.31.97.71,1.87,1.3,2.71,1.77-.23.16-.51.43-.84.79-.33.36-.65.74-.96,1.14-.31.4-.57.74-.75,1.02-1.14-.75-2.32-1.66-3.52-2.73s-2.29-2.22-3.27-3.43v8.19h-3.64ZM265.26,94.88v-3.22h9.1v3.22h-9.1ZM265.26,99.81v-3.25h9.1v3.25h-9.1ZM265.3,85.04v-3.33h9.06v3.33h-9.06ZM268.41,108.46h2.83v-3.67h-2.83v3.67ZM280.59,87.18h2.94v-2.48h-2.94v2.48ZM280.59,92.64h2.94v-2.48h-2.94v2.48ZM287.17,87.18h3.01v-2.48h-3.01v2.48ZM287.17,92.64h3.01v-2.48h-3.01v2.48Z"/>
      <path class="cls-7" d="M300.96,112.34c-.47-.26-1.03-.53-1.7-.82-.67-.29-1.24-.48-1.73-.58.65-1,1.23-2.19,1.73-3.57.5-1.38.9-2.78,1.21-4.22.3-1.43.47-2.72.49-3.87l3.6.52c-.12,1.24-.29,2.44-.52,3.61.28.3.56.59.84.86.28.27.57.53.88.79v-6.89h-6.82v-3.29h15.4v3.29h-4.94v2.42h4.41v3.18h-4.41v3.36c.84.3,1.77.56,2.8.77s2.18.35,3.47.42c-.26-.4-.59-.86-1-1.38-.41-.53-.78-.92-1.1-1.17.49-.21,1.04-.5,1.66-.86.62-.36,1.23-.76,1.84-1.19.61-.43,1.14-.85,1.61-1.24h-3.15v-15.82h4.02c.09-.3.2-.64.31-1,.12-.36.22-.69.31-1h-5.95v-3.08h15.89v3.08h-5.99c-.09.3-.19.64-.3,1-.1.36-.22.69-.33,1h5.53v15.82h-3.15c.68.56,1.48,1.14,2.4,1.75.92.61,1.74,1.07,2.47,1.4-.33.3-.69.72-1.1,1.24-.41.53-.74.99-1,1.38.49-.02.92-.04,1.29-.05.37-.01.65-.03.84-.05-.12.28-.24.66-.38,1.14-.14.48-.27.96-.38,1.45-.12.49-.2.9-.25,1.23h-11.06c-2.47,0-4.65-.16-6.53-.49-1.88-.33-3.55-.85-5.01-1.56-1.46-.71-2.79-1.65-4.01-2.82-.28.93-.6,1.84-.96,2.73-.36.89-.78,1.73-1.24,2.52ZM300.72,93.34v-11.76h12.25v11.76h-12.25ZM304.39,86.2h4.86v-1.82h-4.86v1.82ZM304.39,90.57h4.86v-1.86h-4.86v1.86ZM318.71,108.42c.86,0,1.83,0,2.9-.02s2.15-.03,3.24-.05c1.08-.02,2.07-.05,2.96-.07-.54-.33-1.12-.71-1.75-1.14-.63-.43-1.23-.88-1.79-1.35s-1.03-.89-1.4-1.26l2.06-2.07h-5.35l2.03,2.07c-.35.37-.82.8-1.42,1.28-.59.48-1.23.94-1.89,1.38-.67.44-1.28.83-1.84,1.15.35.02.72.04,1.1.05.39.01.76.02,1.14.02ZM319.23,91.24h6.12v-1.75h-6.12v1.75ZM319.23,95.44h6.12v-1.78h-6.12v1.78ZM319.23,99.6h6.12v-1.78h-6.12v1.78Z"/>
      <path class="cls-7" d="M344.26,112.38c-.28-.47-.65-1.03-1.12-1.68-.47-.65-1-1.21-1.61-1.68,2.47-.7,4.38-1.51,5.71-2.43,1.33-.92,2.25-2.01,2.77-3.27-.75.37-1.49.56-2.24.56-1.77,0-3.2-.5-4.29-1.5-1.08-1-1.66-2.36-1.73-4.06-.05-1.17.19-2.21.7-3.13.51-.92,1.24-1.65,2.17-2.19.93-.54,2-.81,3.19-.81.19,0,.35,0,.49.02.14.01.29.03.46.05-.05-.42-.09-.85-.14-1.29-.05-.44-.07-.91-.07-1.4-1.89.07-3.73.17-5.53.32-1.8.14-3.44.3-4.94.47-1.49.17-2.73.38-3.71.61l-.6-4.06c.84-.07,2.02-.15,3.54-.23,1.52-.08,3.25-.17,5.2-.26,1.95-.09,3.96-.19,6.04-.28v-4.93h4.06v4.76c1.82-.07,3.56-.13,5.21-.19s3.14-.11,4.45-.14c1.31-.04,2.33-.04,3.08-.02l-.28,4.1c-1.35-.16-3.14-.26-5.37-.3-2.23-.04-4.59-.03-7.09.02,0,.84.03,1.69.09,2.55.06.86.11,1.69.16,2.49,1.14,1.35,1.71,3.15,1.71,5.39,0,3.1-.9,5.71-2.69,7.82-1.8,2.11-4.33,3.68-7.6,4.71ZM347.79,100.37c.65-.05,1.17-.27,1.54-.67.37-.4.56-.91.56-1.54,0-.21-.02-.44-.05-.68-.03-.25-.08-.51-.12-.79-.49-.56-1.11-.84-1.85-.84-.65,0-1.2.21-1.65.63s-.65.96-.63,1.61c0,.68.2,1.23.61,1.66.41.43.94.64,1.59.61Z"/>
      <path class="cls-7" d="M398.02,105.69c-.77-.42-1.7-.98-2.78-1.68s-2.24-1.48-3.46-2.33-2.44-1.73-3.66-2.62c-1.21-.9-2.34-1.77-3.4-2.61-1.05-.84-1.92-1.58-2.62-2.21-.35-.33-.62-.49-.8-.49s-.44.14-.77.42c-.72.68-1.56,1.41-2.52,2.19-.96.78-1.94,1.56-2.96,2.33-1.02.77-2,1.48-2.96,2.13l-3.29-3.61c.7-.33,1.55-.78,2.56-1.37,1-.58,2.04-1.23,3.1-1.94,1.06-.71,2.06-1.42,2.99-2.13.93-.71,1.69-1.36,2.27-1.94.58-.61,1.13-.89,1.63-.84.5.05,1.08.35,1.73.91.54.44,1.34,1.07,2.4,1.87,1.06.8,2.27,1.69,3.62,2.64,1.35.96,2.75,1.91,4.18,2.85s2.81,1.8,4.13,2.57c1.32.77,2.47,1.35,3.45,1.75-.33.26-.68.64-1.07,1.14-.39.5-.74,1.02-1.07,1.56-.33.54-.56,1-.7,1.4ZM392.56,91.8c-.51-.68-1.17-1.4-1.96-2.17-.79-.77-1.51-1.38-2.14-1.82l1.79-1.71c.37.26.83.64,1.36,1.14.54.5,1.07,1.01,1.59,1.52.52.51.93.95,1.21,1.29l-1.85,1.75ZM395.5,88.89c-.51-.68-1.18-1.39-2-2.15-.82-.76-1.54-1.36-2.17-1.8l1.79-1.68c.37.26.83.62,1.36,1.1.54.48,1.07.97,1.61,1.49.54.51.95.95,1.23,1.29l-1.82,1.75Z"/>
      <path class="cls-7" d="M427.94,111.33c-2.43-.28-4.57-.99-6.44-2.12-1.87-1.13-3.33-2.61-4.38-4.44s-1.58-3.91-1.58-6.25c0-1.68.41-3.39,1.23-5.13.82-1.74,2.02-3.28,3.6-4.64-1.87.3-3.72.62-5.56.96-1.84.34-3.52.66-5.02.96-1.5.3-2.67.57-3.48.8l-.94-4.55c.77-.05,1.84-.15,3.2-.31,1.37-.16,2.91-.37,4.62-.61,1.71-.25,3.49-.51,5.32-.81,1.83-.29,3.6-.59,5.32-.89,1.71-.3,3.25-.6,4.62-.89,1.36-.29,2.43-.55,3.2-.79l1.12,4.27c-.35.02-.79.08-1.31.16s-1.13.17-1.8.26c-1.26.16-2.48.56-3.66,1.19-1.18.63-2.23,1.44-3.15,2.43-.92.99-1.65,2.13-2.19,3.41-.54,1.28-.81,2.67-.81,4.17,0,1.77.46,3.25,1.37,4.45.91,1.19,2.15,2.12,3.73,2.78,1.57.67,3.34,1.12,5.3,1.35-.35.37-.69.82-1.02,1.35s-.61,1.05-.84,1.58c-.23.52-.38.96-.46,1.31Z"/>
      <path class="cls-7" d="M451.22,109.96v-33.67h7.07l.49,4.06c.65-1.4,1.75-2.57,3.29-3.5,1.54-.93,3.31-1.4,5.32-1.4,2.19,0,4.11.51,5.74,1.54,1.63,1.03,2.89,2.5,3.78,4.41.89-1.73,2.18-3.15,3.89-4.27,1.7-1.12,3.65-1.68,5.84-1.68,3.31,0,5.98,1.15,8.02,3.46,2.03,2.31,3.04,5.56,3.04,9.76v21.28h-7.98v-19.46c0-2.47-.44-4.41-1.33-5.81-.89-1.4-2.12-2.1-3.71-2.1-2.01,0-3.56.72-4.65,2.17-1.1,1.45-1.65,3.5-1.65,6.16v19.04h-7.91v-19.46c0-2.47-.47-4.41-1.4-5.81-.93-1.4-2.19-2.1-3.78-2.1-1.96,0-3.48.74-4.55,2.21-1.07,1.47-1.61,3.51-1.61,6.12v19.04h-7.91Z"/>
      <path class="cls-7" d="M511.21,70.76c-1.36,0-2.52-.49-3.5-1.47s-1.47-2.15-1.47-3.5.49-2.52,1.47-3.5c.98-.98,2.14-1.47,3.5-1.47s2.52.49,3.5,1.47,1.47,2.15,1.47,3.5-.49,2.52-1.47,3.5c-.98.98-2.15,1.47-3.5,1.47ZM507.36,109.96v-33.67h7.84v33.67h-7.84Z"/>
      <path class="cls-7" d="M524.72,109.96v-33.67h7.07l.42,3.99c.93-1.31,2.17-2.44,3.71-3.4,1.54-.96,3.36-1.43,5.46-1.43,3.5,0,6.36,1.12,8.58,3.36,2.21,2.24,3.32,5.53,3.32,9.87v21.28h-7.91v-19.39c0-2.66-.54-4.66-1.61-5.99-1.07-1.33-2.52-2-4.34-2-2.01,0-3.64.69-4.9,2.07-1.26,1.38-1.89,3.42-1.89,6.12v19.18h-7.91Z"/>
      <path class="cls-7" d="M575.68,110.73c-3.31,0-5.85-.61-7.6-1.82s-2.62-3.64-2.62-7.28v-18.55h-6.44v-6.79h6.44v-11.83h7.84v11.83h9.31v6.79h-9.31v16.52c0,1.59.38,2.66,1.16,3.22.77.56,1.88.84,3.33.84.89,0,1.79-.14,2.7-.42.91-.28,1.62-.56,2.13-.84v7.21c-.84.33-1.89.59-3.15.8s-2.52.31-3.78.31Z"/>
      <path class="cls-7" d="M603.32,110.73c-3.08,0-5.84-.73-8.29-2.2-2.45-1.47-4.39-3.52-5.81-6.16-1.42-2.64-2.13-5.73-2.13-9.28s.71-6.64,2.13-9.27c1.42-2.64,3.36-4.69,5.81-6.16,2.45-1.47,5.22-2.21,8.29-2.21s5.99.73,8.44,2.21c2.45,1.47,4.38,3.52,5.78,6.16s2.1,5.73,2.1,9.27-.7,6.64-2.1,9.28c-1.4,2.64-3.33,4.69-5.78,6.16-2.45,1.47-5.26,2.2-8.44,2.2ZM603.32,103.59c2.47,0,4.49-.91,6.06-2.73,1.56-1.82,2.34-4.41,2.34-7.77s-.78-5.95-2.34-7.77c-1.56-1.82-3.58-2.73-6.06-2.73s-4.41.91-5.95,2.73c-1.54,1.82-2.31,4.41-2.31,7.77s.77,5.95,2.31,7.77c1.54,1.82,3.52,2.73,5.95,2.73Z"/>
      <path class="cls-7" d="M626.42,109.96v-49.91h7.91v30.17l11.69-13.93h9.52l-13.23,15.19,14,18.48h-9.45l-12.53-17.08v17.08h-7.91Z"/>
      <path class="cls-7" d="M673.25,110.73c-3.5,0-6.36-1.12-8.58-3.36s-3.32-5.55-3.32-9.94v-21.14h7.91v19.39c0,2.57.55,4.53,1.64,5.88,1.1,1.35,2.53,2.03,4.3,2.03,2.01,0,3.64-.7,4.9-2.1,1.26-1.4,1.89-3.45,1.89-6.16v-19.04h7.91v33.67h-7.07l-.42-3.99c-.89,1.26-2.1,2.37-3.64,3.33s-3.38,1.43-5.53,1.43Z"/>
      <path class="cls-7" d="M723.34,111.52c-2.77-.32-5.23-1.13-7.36-2.44-2.13-1.31-3.79-3-4.98-5.08s-1.78-4.45-1.78-7.12c0-1.92.46-3.88,1.38-5.88s2.3-3.77,4.14-5.32c-2.13.35-4.26.72-6.38,1.12-2.12.4-4.04.77-5.76,1.12-1.72.35-3.05.64-3.98.88l-1.08-5.16c.88-.05,2.1-.17,3.66-.36s3.32-.42,5.28-.7c1.96-.28,3.99-.59,6.08-.92,2.09-.33,4.12-.67,6.08-1.02,1.96-.35,3.72-.69,5.28-1.02,1.56-.33,2.78-.63,3.66-.9l1.28,4.88c-.43.03-.94.08-1.54.16s-1.27.17-2.02.28c-1.47.19-2.87.64-4.2,1.36-1.33.72-2.53,1.65-3.58,2.8-1.05,1.15-1.89,2.45-2.5,3.92s-.92,3.05-.92,4.76c0,2.05.52,3.76,1.56,5.12s2.46,2.42,4.26,3.18c1.8.76,3.82,1.27,6.06,1.54-.4.4-.79.9-1.16,1.5-.37.6-.69,1.2-.96,1.8-.27.6-.44,1.1-.52,1.5ZM726.7,96.2c-.51-.85-1.17-1.75-2-2.68-.83-.93-1.59-1.69-2.28-2.28l2.2-1.76c.4.32.88.79,1.44,1.4.56.61,1.11,1.24,1.66,1.88.55.64.97,1.17,1.26,1.6l-2.28,1.84ZM730.3,93.16c-.51-.83-1.18-1.71-2.02-2.64-.84-.93-1.61-1.68-2.3-2.24l2.16-1.8c.4.32.89.79,1.46,1.4.57.61,1.14,1.23,1.7,1.86.56.63.99,1.17,1.28,1.62l-2.28,1.8Z"/>
      <path class="cls-7" d="M738.18,112.92c-.35-.29-.89-.64-1.62-1.04-.73-.4-1.34-.68-1.82-.84.85-1.07,1.54-2.16,2.06-3.28.52-1.12.9-2.41,1.14-3.88.24-1.47.36-3.2.36-5.2v-9.52c-.46-.35-1.03-.76-1.72-1.24-.69-.48-1.31-.84-1.84-1.08.72-.61,1.41-1.37,2.08-2.28.67-.91,1.29-1.87,1.86-2.88.57-1.01,1.07-2,1.5-2.96.43-.96.76-1.8,1-2.52l4.48.96c-.11.29-.23.6-.38.92-.15.32-.29.65-.42,1h6.4l1.24,1.4c-.35.75-.79,1.59-1.32,2.52s-1.07,1.84-1.6,2.72h4.24v1.72c1.23-.69,2.29-1.6,3.18-2.72.89-1.12,1.53-2.35,1.9-3.68h-4.32v-3.6h17.36c-.11,2.51-.29,4.56-.54,6.16-.25,1.6-.61,2.84-1.08,3.72s-1.07,1.49-1.8,1.84c-.73.35-1.62.52-2.66.52h-2.64c-.03-.35-.09-.78-.18-1.3-.09-.52-.2-1.03-.32-1.52-.12-.49-.25-.89-.38-1.18h2.16c.64,0,1.15-.09,1.52-.26.37-.17.66-.59.86-1.26.2-.67.34-1.71.42-3.12h-3.92c-.51,2.03-1.38,3.87-2.62,5.54-1.24,1.67-2.81,3.09-4.7,4.26-.24-.32-.57-.72-1-1.2-.43-.48-.84-.91-1.24-1.28v9.08c.69-1.01,1.33-2.19,1.92-3.52.59-1.33,1.03-2.55,1.32-3.64l3.88,1.04c-.11.35-.23.72-.36,1.12-.13.4-.28.81-.44,1.24h1.84v-3.32h4.24v3.32h5.44v3.72h-5.44v3.48h6.36v3.72h-6.36v8.28h-4.24v-8.28h-7.04v-3.72h7.04v-3.48h-3.6c-.27.53-.55,1.05-.86,1.54s-.61.93-.9,1.3c-.29-.21-.72-.47-1.28-.76-.56-.29-1.07-.53-1.52-.72v10.64c0,2.27-1.36,3.4-4.08,3.4h-2.64c-.03-.35-.09-.77-.18-1.28s-.19-1.01-.3-1.5-.23-.87-.36-1.14h2.52c.45,0,.78-.08.98-.24.2-.16.3-.45.3-.88v-5.36h-8.12c-.19,2.19-.59,4.13-1.2,5.84-.61,1.71-1.47,3.27-2.56,4.68ZM741.18,85.72h3.84c.29-.53.59-1.08.9-1.64.31-.56.54-1.04.7-1.44h-3.6c-.27.53-.56,1.05-.88,1.56-.32.51-.64,1.01-.96,1.52ZM742.1,92.44h2.24v-3h-2.24v3ZM742.1,98.76h2.24v-3h-2.24v3ZM747.82,92.44h2.24v-3h-2.24v3ZM747.82,98.76h2.24v-3h-2.24v3Z"/>
      <path class="cls-7" d="M781.74,94c-.48-.43-1.14-.93-1.98-1.52-.84-.59-1.71-1.15-2.62-1.7-.91-.55-1.71-.97-2.4-1.26l2.36-3.84c1.17.56,2.45,1.23,3.82,2.02,1.37.79,2.53,1.57,3.46,2.34-.21.24-.5.62-.86,1.14-.36.52-.71,1.04-1.04,1.56-.33.52-.58.94-.74,1.26ZM779.94,112.64l-4.08-2.92c.61-.8,1.24-1.75,1.88-2.84.64-1.09,1.26-2.23,1.86-3.42s1.15-2.35,1.64-3.5c.49-1.15.87-2.17,1.14-3.08.21.24.55.55,1.02.92.47.37.95.73,1.46,1.08.51.35.93.63,1.28.84-.29.93-.68,1.98-1.16,3.14-.48,1.16-1.01,2.34-1.6,3.54-.59,1.2-1.17,2.34-1.76,3.42-.59,1.08-1.15,2.02-1.68,2.82ZM784.46,85.16c-.46-.43-1.1-.93-1.94-1.52-.84-.59-1.72-1.15-2.64-1.68-.92-.53-1.73-.95-2.42-1.24l2.44-3.76c.72.29,1.55.71,2.48,1.24.93.53,1.84,1.08,2.72,1.64.88.56,1.57,1.05,2.08,1.48-.21.24-.51.61-.88,1.12-.38.51-.73,1.01-1.08,1.52-.35.51-.6.91-.76,1.2ZM785.66,113.28c-.29-.61-.67-1.29-1.14-2.04-.47-.75-.98-1.4-1.54-1.96,3.07-1.01,5.49-2.46,7.28-4.34,1.79-1.88,3.03-4.23,3.72-7.06h-9.08v-4.28h9.72c.03-.37.04-.76.06-1.16.01-.4.02-.8.02-1.2v-4.16h-7.4v-4.12h7.4v-6.64h4.72v6.64h9.6v10.64h3.52v4.28h-11.64c1.17,2.48,2.81,4.67,4.9,6.56,2.09,1.89,4.51,3.33,7.26,4.32-.35.35-.71.79-1.1,1.32-.39.53-.75,1.07-1.08,1.6-.33.53-.58.99-.74,1.36-2.8-1.33-5.23-2.99-7.28-4.98-2.05-1.99-3.73-4.35-5.04-7.1-1.01,2.77-2.53,5.21-4.54,7.3-2.01,2.09-4.55,3.77-7.62,5.02ZM799.34,93.6h4.88v-6.52h-4.8v4.16c0,.4,0,.8-.02,1.2-.01.4-.03.79-.06,1.16Z"/>
      <path class="cls-7" d="M843.34,111.52c-2.77-.32-5.23-1.13-7.36-2.44-2.13-1.31-3.79-3-4.98-5.08-1.19-2.08-1.78-4.45-1.78-7.12,0-1.92.46-3.88,1.38-5.88s2.3-3.77,4.14-5.32c-2.13.35-4.26.72-6.38,1.12-2.12.4-4.04.77-5.76,1.12-1.72.35-3.05.64-3.98.88l-1.08-5.16c.88-.05,2.1-.17,3.66-.36,1.56-.19,3.32-.42,5.28-.7,1.96-.28,3.99-.59,6.08-.92,2.09-.33,4.12-.67,6.08-1.02,1.96-.35,3.72-.69,5.28-1.02,1.56-.33,2.78-.63,3.66-.9l1.28,4.88c-.43.03-.94.08-1.54.16s-1.27.17-2.02.28c-1.47.19-2.87.64-4.2,1.36-1.33.72-2.53,1.65-3.58,2.8-1.05,1.15-1.89,2.45-2.5,3.92s-.92,3.05-.92,4.76c0,2.05.52,3.76,1.56,5.12s2.46,2.42,4.26,3.18c1.8.76,3.82,1.27,6.06,1.54-.4.4-.79.9-1.16,1.5-.37.6-.69,1.2-.96,1.8-.27.6-.44,1.1-.52,1.5ZM846.7,96.2c-.51-.85-1.17-1.75-2-2.68-.83-.93-1.59-1.69-2.28-2.28l2.2-1.76c.4.32.88.79,1.44,1.4.56.61,1.11,1.24,1.66,1.88.54.64.96,1.17,1.26,1.6l-2.28,1.84ZM850.3,93.16c-.51-.83-1.18-1.71-2.02-2.64-.84-.93-1.61-1.68-2.3-2.24l2.16-1.8c.4.32.89.79,1.46,1.4.57.61,1.14,1.23,1.7,1.86.56.63.99,1.17,1.28,1.62l-2.28,1.8Z"/>
      <path class="cls-7" d="M880.18,112.24c-3.25.16-6.11,0-8.56-.46-2.46-.47-4.36-1.33-5.7-2.6-1.35-1.27-2.02-3.01-2.02-5.22,0-1.28.35-2.41,1.04-3.38s1.64-1.77,2.84-2.38c1.2-.61,2.58-1.03,4.14-1.24,1.56-.21,3.21-.21,4.94,0-.43-.56-.84-1.15-1.24-1.76-.4-.61-.79-1.24-1.16-1.88-2.51.43-4.96.77-7.34,1.02-2.39.25-4.44.37-6.14.34l-.92-4.24c1.49.05,3.33-.02,5.52-.22,2.19-.2,4.44-.49,6.76-.86-.56-1.15-1.07-2.28-1.52-3.4-1.6.21-3.15.39-4.66.52-1.51.13-2.82.21-3.94.24l-.92-4.16c1.09.03,2.34,0,3.74-.1,1.4-.09,2.83-.23,4.3-.42-.59-1.73-.99-3.23-1.2-4.48l4.72-.56c.13,1.2.48,2.65,1.04,4.36,1.49-.27,2.91-.57,4.26-.9,1.35-.33,2.47-.67,3.38-1.02l1.2,4.08c-.88.32-1.96.63-3.24.92-1.28.29-2.65.57-4.12.84.21.53.45,1.07.7,1.62s.51,1.09.78,1.62c1.95-.4,3.73-.83,5.34-1.3,1.61-.47,2.89-.94,3.82-1.42l1.56,3.96c-.99.48-2.22.95-3.7,1.4-1.48.45-3.09.87-4.82,1.24.85,1.39,1.75,2.67,2.7,3.86.95,1.19,1.91,2.18,2.9,2.98l-2.96,3.16c-1.52-.85-3.03-1.41-4.54-1.66-1.51-.25-2.89-.29-4.14-.1-1.25.19-2.26.55-3.02,1.08-.76.53-1.14,1.17-1.14,1.92,0,1.23.57,2.15,1.7,2.76,1.13.61,2.67.99,4.62,1.12,1.95.13,4.15.12,6.6-.04-.27.4-.51.9-.74,1.5-.23.6-.42,1.19-.58,1.78s-.25,1.08-.28,1.48Z"/>
      <path class="cls-7" d="M908.62,112.12c-2.27-.08-4.03-.71-5.28-1.88-1.25-1.17-1.87-2.63-1.84-4.36.03-1.15.4-2.17,1.12-3.08.72-.91,1.72-1.61,3-2.12,1.28-.51,2.76-.72,4.44-.64.45,0,.89.02,1.3.06.41.04.83.09,1.26.14l-.12-4.6c-.45.03-.91.04-1.38.04h-1.38c-1.6,0-2.86-.13-3.78-.38-.92-.25-1.65-.68-2.2-1.28-.55-.6-1.09-1.43-1.62-2.5l3.76-1.88c.37.72.81,1.18,1.32,1.38.51.2,1.37.3,2.6.3.4,0,.82,0,1.26-.02.44-.01.89-.03,1.34-.06-.03-.72-.05-1.45-.06-2.2-.01-.75-.03-1.48-.06-2.2-1.95.11-3.79.18-5.52.22-1.73.04-3.08.05-4.04.02l-.2-4.48c.93.08,2.28.11,4.04.1s3.64-.06,5.64-.14c-.03-.96-.04-1.88-.04-2.76v-2.44h4.64v2.32c0,.83.01,1.69.04,2.6,1.81-.13,3.48-.29,5-.46,1.52-.17,2.64-.35,3.36-.54v4.4c-.72.16-1.83.31-3.34.46-1.51.15-3.17.29-4.98.42.03.72.05,1.45.06,2.18.01.73.03,1.46.06,2.18,1.57-.16,3.07-.35,4.48-.58s2.53-.47,3.36-.74v4.68c-.99.21-2.15.41-3.5.6-1.35.19-2.77.35-4.26.48.05,1.07.09,2.09.1,3.08s.03,1.91.06,2.76c1.97.53,3.84,1.23,5.6,2.08,1.76.85,3.41,1.79,4.96,2.8-.35.27-.73.66-1.14,1.18-.41.52-.79,1.05-1.14,1.58-.35.53-.62.99-.8,1.36-2.24-1.89-4.69-3.39-7.36-4.48-.03,2-.73,3.59-2.1,4.78s-3.59,1.73-6.66,1.62ZM908.78,107.84c1.39.05,2.39-.15,3-.6s.92-1.05.92-1.8v-1.12c-.56-.11-1.11-.19-1.66-.24-.55-.05-1.09-.08-1.62-.08-1.12,0-1.97.19-2.56.56-.59.37-.88.83-.88,1.36,0,1.2.93,1.84,2.8,1.92Z"/>
      <path class="cls-7" d="M948.02,112.72c-.32-.53-.75-1.17-1.28-1.92-.53-.75-1.15-1.39-1.84-1.92,2.83-.8,5-1.73,6.52-2.78,1.52-1.05,2.57-2.3,3.16-3.74-.85.43-1.71.64-2.56.64-2.03,0-3.66-.57-4.9-1.72-1.24-1.15-1.9-2.69-1.98-4.64-.05-1.33.21-2.53.8-3.58.59-1.05,1.41-1.89,2.48-2.5,1.07-.61,2.28-.92,3.64-.92.21,0,.4,0,.56.02.16.01.33.03.52.06-.05-.48-.11-.97-.16-1.48-.05-.51-.08-1.04-.08-1.6-2.16.08-4.27.2-6.32.36s-3.93.34-5.64.54-3.12.43-4.24.7l-.68-4.64c.96-.08,2.31-.17,4.04-.26,1.73-.09,3.71-.19,5.94-.3s4.53-.21,6.9-.32v-5.64h4.64v5.44c2.08-.08,4.06-.15,5.96-.22,1.89-.07,3.59-.12,5.08-.16s2.67-.05,3.52-.02l-.32,4.68c-1.55-.19-3.59-.3-6.14-.34-2.55-.04-5.25-.03-8.1.02,0,.96.03,1.93.1,2.92s.12,1.93.18,2.84c1.31,1.55,1.96,3.6,1.96,6.16,0,3.55-1.03,6.53-3.08,8.94-2.05,2.41-4.95,4.21-8.68,5.38ZM952.06,99c.75-.05,1.33-.31,1.76-.76.43-.45.64-1.04.64-1.76,0-.24-.02-.5-.06-.78-.04-.28-.09-.58-.14-.9-.56-.64-1.27-.96-2.12-.96-.75,0-1.38.24-1.88.72-.51.48-.75,1.09-.72,1.84,0,.77.23,1.41.7,1.9.47.49,1.07.73,1.82.7Z"/>
      <path class="cls-7" d="M982.42,112.4c-1.07,0-2.04-.26-2.92-.78-.88-.52-1.59-1.23-2.12-2.12-.54-.89-.8-1.89-.8-2.98s.26-2.08.78-2.96c.52-.88,1.23-1.58,2.12-2.1.89-.52,1.87-.78,2.94-.78s2.09.27,2.98.8c.89.53,1.6,1.24,2.12,2.12.52.88.78,1.85.78,2.92s-.27,2.09-.8,2.98-1.25,1.6-2.14,2.12c-.89.52-1.87.78-2.94.78ZM982.42,110.16c1.01,0,1.87-.35,2.58-1.06.71-.71,1.06-1.55,1.06-2.54s-.35-1.84-1.06-2.56-1.57-1.08-2.58-1.08-1.83.35-2.54,1.06c-.71.71-1.06,1.57-1.06,2.58s.35,1.83,1.06,2.54c.71.71,1.55,1.06,2.54,1.06Z"/>
    </g>
    <g>
      <path class="cls-7" d="M552.33,52.88c-.16-.14-.4-.31-.71-.52s-.67-.44-1.06-.67c-.4-.24-.8-.47-1.21-.7s-.8-.43-1.16-.6c-.36-.17-.66-.3-.89-.38l.92-1.2c.34.13.75.3,1.21.52s.93.45,1.42.71c.49.26.94.51,1.37.76.42.25.77.48,1.03.69l-.92,1.39ZM551.5,48.67c-.17-.14-.42-.3-.74-.48-.33-.18-.68-.37-1.06-.56-.38-.19-.74-.36-1.09-.52-.35-.15-.63-.26-.85-.31l.89-1.19c.26.08.55.19.89.33s.68.29,1.04.46c.36.17.69.34,1.01.5s.57.32.77.46l-.85,1.31ZM552.44,45.89c-.13-.1-.31-.23-.55-.37-.24-.14-.51-.29-.8-.44-.3-.15-.59-.3-.89-.44-.3-.14-.58-.27-.84-.38-.26-.11-.47-.19-.64-.23l.89-1.19c.25.08.54.19.88.33.34.14.69.29,1.04.46.36.16.69.33,1,.49.31.16.56.31.75.44l-.83,1.33Z"/>
      <path class="cls-7" d="M558.32,46.73c-.1-.11-.25-.24-.44-.4-.19-.15-.4-.31-.62-.48-.23-.17-.45-.32-.67-.46s-.4-.25-.56-.32l.96-1.21c.16.09.35.2.56.34.22.14.44.28.67.44.23.16.44.32.64.47.2.16.36.29.48.41l-1.02,1.2ZM557.03,52.03l-.82-1.48c.57-.12,1.17-.32,1.79-.59.63-.28,1.26-.6,1.89-.97s1.23-.77,1.8-1.2,1.08-.86,1.54-1.3.83-.86,1.12-1.26c.03.14.09.3.16.5s.16.39.25.58c.09.19.16.33.23.44-.39.5-.88,1.01-1.47,1.53s-1.24,1.01-1.95,1.49c-.71.48-1.46.91-2.23,1.3-.78.39-1.55.71-2.32.96Z"/>
      <path class="cls-7" d="M568.39,52.73v-9.67h1.46v3.64l.54-.77c.19.14.45.31.76.51.32.2.65.41,1.01.62s.71.41,1.04.58.62.31.85.4c-.1.09-.21.21-.33.38-.12.16-.24.33-.34.5-.1.17-.19.32-.25.44-.19-.1-.43-.24-.71-.4-.28-.16-.58-.35-.9-.55-.32-.2-.62-.4-.91-.59s-.55-.37-.76-.53v5.45h-1.46Z"/>
      <path class="cls-7" d="M577.12,52.82c-.06-.12-.14-.26-.25-.42s-.23-.32-.35-.47c-.12-.16-.24-.28-.34-.37.97-.37,1.87-.84,2.71-1.41s1.58-1.22,2.23-1.95c.65-.73,1.18-1.5,1.58-2.33-.34.02-.69.03-1.07.05-.38.02-.73.04-1.04.05-.31.01-.54.02-.7.02-.39.51-.82.99-1.29,1.43-.47.44-.96.84-1.48,1.19-.07-.09-.17-.2-.31-.32-.13-.13-.27-.26-.41-.38-.14-.13-.27-.23-.39-.3.59-.34,1.15-.77,1.68-1.29.53-.52,1-1.08,1.4-1.68.41-.6.72-1.2.94-1.79l1.39.49c-.1.22-.2.44-.3.66-.1.22-.22.43-.34.64.34,0,.72-.02,1.12-.03.4-.01.77-.03,1.11-.05.34-.02.58-.04.72-.07l.9.52c-.38,1.14-.93,2.2-1.66,3.2-.73,1-1.6,1.89-2.59,2.68s-2.08,1.43-3.26,1.93Z"/>
    </g>
  </g>
</svg>