<?xml version="1.0" encoding="UTF-8"?>
<svg id="_レイヤー_2" data-name="レイヤー 2" xmlns="http://www.w3.org/2000/svg" viewBox="0 0 560 100">
  <defs>
    <style>
      .cls-1 {
        fill: none;
        stroke: #fff;
        stroke-miterlimit: 10;
      }

      .cls-2 {
        isolation: isolate;
      }

      .cls-3 {
        fill: #d94015;
      }

      .cls-4 {
        fill: #fff;
      }
    </style>
  </defs>
  <g id="_レイヤー_1-2" data-name="レイヤー 1">
    <g class="cls-2">
      <path class="cls-3" d="M50,100C22.5,100,0,77.5,0,50h0C0,22.5,22.5,0,50,0h460c27.5,0,50,22.5,50,50h0c0,27.5-22.5,50-50,50H50Z"/>
    </g>
    <g class="cls-2">
      <path class="cls-1" d="M50,90c-22,0-40-18-40-40h0c0-22,18-40,40-40h460c22,0,40,18,40,40h0c0,22-18,40-40,40H50Z"/>
    </g>
    <g>
      <path class="cls-4" d="M130.94,67.54c-1.96.24-3.69.15-5.19-.26-1.51-.41-2.68-1.09-3.53-2.04-.85-.95-1.27-2.14-1.27-3.57,0-1.88.76-3.72,2.28-5.53,1.52-1.81,3.61-3.28,6.28-4.42v-5.98c-1.45.11-2.86.19-4.22.24-1.36.05-2.62.05-3.79,0l-.24-4.56c1,.11,2.23.14,3.69.1,1.45-.04,2.97-.14,4.56-.3v-6.38l4.4.04v5.83c1.32-.21,2.56-.44,3.71-.69,1.15-.25,2.09-.52,2.83-.81l.48,4.36c-.92.34-2,.65-3.21.91-1.22.27-2.48.5-3.8.71v5.19c.92-.21,1.89-.37,2.89-.48,1-.1,2.05-.16,3.13-.16,2.54,0,4.7.39,6.48,1.17s3.14,1.82,4.06,3.13,1.39,2.78,1.39,4.42c0,2.54-.77,4.53-2.3,5.99s-3.61,2.17-6.22,2.14c-2.04,0-3.75-.51-5.13-1.53-1.39-1.02-2.38-2.53-2.99-4.54.61-.19,1.35-.47,2.22-.85.87-.38,1.56-.75,2.06-1.09.66,2.19,1.93,3.29,3.8,3.29,1.16,0,2.05-.34,2.66-1.01s.91-1.51.91-2.52c0-1.29-.58-2.37-1.74-3.23-1.16-.86-2.91-1.29-5.23-1.29-2.11,0-4.11.27-5.98.79v9.87c0,.98-.22,1.7-.67,2.16-.45.46-1.22.76-2.3.89ZM128.09,63.34c.5.03.87-.03,1.09-.16.22-.13.34-.37.34-.71v-6.06c-1.22.74-2.18,1.55-2.89,2.42-.71.87-1.07,1.74-1.07,2.62,0,.61.22,1.07.67,1.39.45.32,1.07.49,1.86.51ZM151.11,49.19c-.63-.63-1.49-1.33-2.58-2.08-1.08-.75-2.19-1.47-3.33-2.14s-2.15-1.18-3.05-1.53l2.5-3.57c.95.37,2,.87,3.13,1.51,1.14.63,2.25,1.31,3.33,2.02,1.08.71,2,1.4,2.74,2.06-.26.29-.59.69-.97,1.19s-.74.99-1.07,1.46c-.33.48-.56.83-.69,1.07Z"/>
      <path class="cls-4" d="M157.66,69.09v-35h15.5v13.47h-10.94v21.52h-4.56ZM162.22,39.44h6.5v-2.1h-6.5v2.1ZM162.22,44.36h6.5v-2.18h-6.5v2.18ZM166.89,62.51v-11.77h14.94v11.77h-14.94ZM171.41,58.98h5.91v-4.68h-5.91v4.68ZM183.74,69.05c-.03-.42-.09-.92-.2-1.49s-.22-1.12-.36-1.66c-.13-.54-.28-.98-.44-1.33h2.66c.53,0,.91-.09,1.15-.28.24-.18.36-.5.36-.95v-15.77h-10.98v-13.47h15.58v30.95c0,1.37-.36,2.38-1.09,3.03-.73.65-1.91.97-3.55.97h-3.13ZM180.37,39.44h6.54v-2.1h-6.54v2.1ZM180.37,44.36h6.54v-2.18h-6.54v2.18Z"/>
      <path class="cls-4" d="M208.52,62.31c-1.32.74-2.56,1.04-3.73.89-1.16-.14-2.19-.89-3.09-2.24-.82-1.27-1.57-2.76-2.26-4.48-.69-1.72-1.28-3.54-1.76-5.47-.49-1.93-.86-3.86-1.11-5.79-.25-1.93-.36-3.74-.34-5.43l4.83.04c-.08,1.29-.04,2.71.12,4.24.16,1.53.41,3.08.75,4.64.34,1.56.75,3.01,1.23,4.34s.99,2.45,1.55,3.35c.37.63.77,1,1.21,1.09.44.09.9-.02,1.41-.34.63-.42,1.3-1,2-1.74.7-.74,1.29-1.45,1.76-2.14.13.4.35.85.65,1.35s.63.99.99,1.47c.36.47.68.86.97,1.15-.71,1.06-1.53,2.04-2.44,2.93-.91.9-1.83,1.61-2.75,2.14ZM223.5,54.9c-.26-.77-.67-1.72-1.23-2.85-.55-1.13-1.19-2.32-1.9-3.55-.71-1.23-1.43-2.36-2.14-3.41-.71-1.04-1.37-1.86-1.98-2.44l3.8-2.42c.66.66,1.39,1.55,2.2,2.66.81,1.11,1.6,2.29,2.38,3.55.78,1.26,1.47,2.47,2.08,3.65.61,1.18,1.04,2.17,1.31,2.99-.82.16-1.64.41-2.48.75-.83.34-1.51.7-2.04,1.07Z"/>
      <path class="cls-4" d="M232.83,51.61c-.34-.69-.78-1.39-1.31-2.12-.53-.73-1.06-1.31-1.58-1.76,1.72-.71,3.44-1.62,5.17-2.71,1.73-1.1,3.38-2.31,4.95-3.64,1.57-1.33,2.99-2.74,4.24-4.2,1.25-1.47,2.28-2.93,3.07-4.38l4.4.6c.85,1.35,1.9,2.68,3.17,4,1.27,1.32,2.67,2.58,4.2,3.77,1.53,1.19,3.13,2.27,4.79,3.23,1.67.96,3.32,1.76,4.95,2.4-.24.32-.54.75-.89,1.29s-.71,1.09-1.05,1.64c-.34.55-.62,1.06-.83,1.51-1.08-.53-2.19-1.13-3.33-1.8s-2.26-1.39-3.37-2.16v3.17h-20.05v-2.89c-1.08.79-2.18,1.54-3.29,2.24-1.11.7-2.19,1.32-3.25,1.84ZM237.74,68.93v-15.18h23.38v15.18h-23.38ZM241.23,46.1h16.65c-1.69-1.27-3.27-2.63-4.74-4.1-1.47-1.47-2.7-2.96-3.71-4.5-.9,1.43-2.07,2.88-3.51,4.36-1.44,1.48-3.01,2.89-4.7,4.24ZM242.62,64.73h13.55v-6.74h-13.55v6.74Z"/>
      <path class="cls-4" d="M279.17,68.1v-11.33c-1.93,1.85-3.55,3.62-4.87,5.31l-3.61-3.33c1.11-.9,2.39-2,3.84-3.31,1.45-1.31,3-2.61,4.64-3.9v-5.35c-1.19.26-2.35.51-3.49.73-1.14.22-2.05.4-2.73.54l-.99-4.32c.71-.03,1.75-.15,3.11-.38,1.36-.22,2.73-.47,4.1-.73v-7.41h4.44v6.26c.34-.08.59-.17.75-.28l2.54,1.9-2.69,5.39c1.53-.93,3.08-1.69,4.64-2.3,1.56-.61,3.06-.91,4.52-.91,2.09,0,3.94.39,5.55,1.17,1.61.78,2.87,1.89,3.79,3.33.91,1.44,1.37,3.18,1.37,5.21,0,3.04-1.11,5.63-3.33,7.77-2.22,2.14-5.5,3.61-9.83,4.4-.11-.42-.3-.92-.57-1.51-.28-.58-.59-1.16-.93-1.74-.34-.58-.69-1.06-1.03-1.43,2.09-.27,3.95-.7,5.59-1.29,1.64-.59,2.93-1.4,3.88-2.42.95-1.02,1.43-2.28,1.43-3.79,0-1.88-.51-3.27-1.54-4.18-1.03-.91-2.48-1.37-4.36-1.37-1.45,0-3.03.39-4.72,1.19-1.69.79-3.37,1.81-5.03,3.05v15.02h-4.44Z"/>
      <path class="cls-4" d="M325.44,66.67c-2.4,0-4.27-.21-5.61-.62-1.33-.41-2.27-1.11-2.81-2.1-.54-.99-.81-2.37-.81-4.14v-10.14c-1.69.18-3.26.39-4.7.61-1.44.22-2.66.46-3.67.69l-.44-4.68c1-.13,2.27-.28,3.8-.46,1.53-.17,3.2-.34,4.99-.5v-8.52h4.52v8.12c1.4-.13,2.82-.25,4.26-.36,1.44-.11,2.85-.21,4.22-.32v-8.68h4.6v8.4c1.74-.11,3.34-.19,4.78-.24,1.44-.05,2.65-.08,3.63-.08v4.76c-1.03-.08-2.27-.12-3.71-.14-1.44-.01-3.01,0-4.7.06v2.54c0,1.43-.22,2.6-.67,3.53-.45.92-1.21,1.64-2.28,2.16-1.07.51-2.54.85-4.42,1.01-.11-.69-.32-1.45-.63-2.28-.32-.83-.67-1.5-1.07-2,1.64-.03,2.79-.22,3.47-.6.67-.37,1.01-.98,1.01-1.82v-2.34c-1.37.08-2.78.17-4.22.28-1.44.11-2.86.22-4.26.36v9.99c0,.79.14,1.41.42,1.84.28.44.77.73,1.49.89.71.16,1.72.24,3.01.24.98,0,2.14-.05,3.49-.16,1.35-.1,2.71-.25,4.08-.44,1.37-.18,2.56-.41,3.57-.67-.16.45-.3.99-.42,1.62-.12.63-.21,1.26-.26,1.86s-.07,1.1-.04,1.47c-1.61.26-3.38.47-5.29.61-1.92.14-3.69.22-5.33.22Z"/>
      <path class="cls-4" d="M347.6,67.5c-.18-1.03-.33-2.36-.44-3.98-.11-1.62-.18-3.44-.22-5.43-.04-2-.05-4.06-.02-6.18s.09-4.21.2-6.24c.11-2.03.24-3.91.42-5.63s.38-3.14.61-4.28l4.52,1.07c-.29.93-.54,2.17-.73,3.73s-.35,3.29-.46,5.21-.17,3.89-.2,5.93c-.03,2.03,0,4.01.06,5.92.07,1.92.17,3.67.32,5.25.14,1.59.32,2.87.54,3.84l-4.6.79ZM362.3,67.03c-2.06-.11-3.71-.71-4.95-1.82-1.24-1.11-1.85-2.48-1.82-4.12.03-1,.36-1.94.99-2.79.63-.86,1.53-1.54,2.69-2.06s2.55-.77,4.16-.77c.84,0,1.64.04,2.38.12-.03-1.16-.07-2.48-.12-3.96-.05-1.48-.11-3.09-.16-4.84-1.64.11-3.22.17-4.76.18s-2.84,0-3.92-.06l-.32-4.83c.98.16,2.27.24,3.86.26s3.28-.02,5.05-.1c-.03-1.06-.05-2.13-.06-3.23-.01-1.1-.02-2.21-.02-3.35h4.64c-.03,1.01-.05,2.04-.06,3.09-.01,1.06-.02,2.13-.02,3.21,1.59-.13,3.03-.28,4.32-.46,1.29-.17,2.27-.36,2.93-.57v4.76c-.74.16-1.74.3-3.01.44-1.27.13-2.64.27-4.12.4.05,1.93.12,3.77.2,5.53.08,1.76.14,3.3.2,4.62,1.48.53,2.91,1.2,4.28,2.02,1.37.82,2.72,1.73,4.04,2.73-.29.24-.63.6-1.01,1.09-.38.49-.73.99-1.05,1.51s-.55.95-.71,1.29c-1.77-1.61-3.59-2.91-5.47-3.88-.19,2.09-.98,3.57-2.4,4.46-1.41.88-3.34,1.27-5.77,1.17ZM362.66,62.98c1.08,0,1.9-.22,2.44-.65.54-.44.81-1.22.81-2.36v-.28c-.9-.21-1.84-.34-2.81-.4-.98-.03-1.76.13-2.36.47s-.91.79-.93,1.35.22,1,.75,1.35,1.23.52,2.1.52Z"/>
      <path class="cls-4" d="M394.69,65.44c-1.77,0-3.35-.19-4.74-.57-1.39-.38-2.58-1.08-3.57-2.08-.99-1-1.8-2.4-2.44-4.2l4.2-2.3c.34,1.38,1.04,2.42,2.1,3.13,1.06.71,2.54,1.07,4.44,1.07,1.69,0,3.43-.08,5.23-.24,1.8-.16,3.49-.38,5.07-.67s2.89-.62,3.92-.99c0,.42.03.98.1,1.67.07.69.16,1.36.28,2.02.12.66.23,1.18.34,1.55-1.06.34-2.4.63-4.04.87-1.64.24-3.4.42-5.29.55-1.89.13-3.76.2-5.61.2ZM388.47,42.14l-.04-4.79c.77.24,1.72.42,2.87.55s2.39.21,3.73.24c1.33.03,2.68,0,4.02-.06,1.35-.06,2.59-.17,3.73-.32,1.14-.14,2.07-.34,2.81-.57v4.83c-.66.21-1.56.38-2.7.52-1.14.13-2.38.23-3.73.3-1.35.07-2.71.09-4.08.06-1.37-.03-2.64-.11-3.8-.24-1.16-.13-2.1-.3-2.81-.52Z"/>
      <path class="cls-4" d="M426.12,68.61c-.08-.45-.23-.98-.46-1.61-.22-.62-.48-1.23-.77-1.82s-.59-1.08-.91-1.45c4.41.34,7.89,0,10.42-1.01,2.54-1.02,3.8-2.61,3.8-4.78,0-1.16-.48-2.09-1.45-2.78-.96-.69-2.19-1.03-3.67-1.03-1.72,0-3.46.32-5.23.97-1.77.65-3.37,1.74-4.79,3.27-.11.13-.22.27-.34.42-.12.14-.25.28-.38.42l-3.84-2.73c1.27-1.24,2.35-2.92,3.25-5.03s1.6-4.33,2.1-6.66c-3.67.13-6.8.13-9.39,0l-.32-4.68c1.16.16,2.67.26,4.52.3,1.85.04,3.84.02,5.98-.06.32-2.51.44-4.78.36-6.82h4.99c0,1.93-.16,4.12-.48,6.58,1.85-.13,3.63-.29,5.35-.47,1.72-.19,3.28-.39,4.68-.62,1.4-.22,2.54-.47,3.41-.73l-.32,4.68c-1.56.34-3.58.65-6.06.93-2.48.28-5.09.5-7.81.65-.26,1.21-.56,2.43-.89,3.65-.33,1.21-.72,2.39-1.17,3.53,1.16-.61,2.3-1.08,3.43-1.41,1.12-.33,2.24-.5,3.35-.5,1.88-.03,3.55.29,5.01.95s2.62,1.61,3.47,2.83,1.27,2.7,1.27,4.42c0,3.49-1.47,6.17-4.4,8.04-2.93,1.88-7.17,2.72-12.72,2.54Z"/>
      <path class="cls-4" d="M460.26,68.41c-.08-.4-.23-.9-.46-1.51s-.5-1.21-.81-1.82c-.32-.61-.63-1.08-.95-1.43,4.23.11,7.46-.4,9.69-1.51,2.23-1.11,3.35-2.68,3.35-4.72,0-1.19-.48-2.11-1.43-2.78-.95-.66-2.19-.99-3.73-.99-1.19,0-2.46.18-3.8.54s-2.62.94-3.82,1.74-2.21,1.88-3.03,3.23l-4.24-1.86c.53-.92.98-2.08,1.37-3.47.38-1.39.69-2.83.93-4.34.24-1.51.41-2.93.51-4.28s.12-2.46.04-3.33l4.95.6c.03,1.29-.08,2.82-.32,4.58-.24,1.76-.61,3.49-1.11,5.21,1.4-.92,2.87-1.64,4.4-2.14,1.53-.5,2.97-.75,4.32-.75,2.06,0,3.85.35,5.37,1.05,1.52.7,2.7,1.67,3.55,2.89.84,1.23,1.27,2.63,1.27,4.22,0,2.01-.57,3.81-1.72,5.41-1.15,1.6-2.91,2.87-5.27,3.82s-5.38,1.49-9.06,1.62ZM466.84,43.01c-.66-.53-1.45-1.06-2.36-1.59-.91-.53-1.87-1.03-2.87-1.51-1-.48-1.99-.89-2.95-1.25-.96-.36-1.82-.6-2.56-.73l2.38-4.12c.69.19,1.51.47,2.46.85s1.95.81,2.99,1.29c1.04.47,2.03.95,2.97,1.43.94.48,1.71.91,2.32,1.31l-2.38,4.32Z"/>
    </g>
    <g>
      <path class="cls-4" d="M97.02,41.21h-24.04c-1.4,0-2.54,1.14-2.54,2.54v18.51c0,1.4,1.14,2.54,2.54,2.54h24.04c1.4,0,2.54-1.14,2.54-2.54v-18.51c0-1.4-1.14-2.54-2.54-2.54ZM72.59,43.74c0-.21.18-.39.39-.39h24.04c.21,0,.39.17.39.39v18.51c0,.22-.17.4-.39.4h-24.04c-.22,0-.39-.18-.39-.4v-18.51h0Z"/>
      <path class="cls-4" d="M80.68,53.38s-.08.08-.13.11c-.1.09-.45.4-.45.4-1.39,1.21-2.8,2.48-4.18,3.77l-.13.13.97,1.14s.52-.41.69-.55c1.28-1.01,2.57-2.06,3.83-3.12.26-.21.51-.43.77-.65.17-.14.33-.28.5-.42l1.65,1.44s.09.08.13.1c0,0,0,0,.01,0,.19.12.42.19.65.19s.47-.07.66-.19c.05-.03.1-.07.14-.1l.04-.03,1.68-1.44c.18.14.35.29.53.44.24.2.48.4.72.59,1.36,1.11,2.71,2.18,4.02,3.18.12.1.54.42.54.42l.76-.89-.13-.12c-1.37-1.31-2.75-2.6-4.12-3.84-.14-.12-.27-.24-.4-.36l-.1-.09-.45-.41-.05-.04.12-.11c.32-.27.63-.54.93-.82,1.21-1.06,2.43-2.15,3.63-3.26.18-.17.37-.34.55-.51l.13-.12-.49-.58-.48-.56s-.51.4-.69.54c-1.26.99-2.55,2.04-3.83,3.11-.47.39-.93.78-1.39,1.17l-1.09.92-1.25,1.07-.51-.42-1.08-.9c-.07-.06-.8-.65-.8-.65-.46-.38-.91-.75-1.38-1.13-1.36-1.11-2.71-2.18-4.02-3.17-.14-.1-.55-.42-.55-.42l-.76.89.13.12c.18.18.36.35.55.52,1.17,1.12,2.38,2.23,3.58,3.31.33.3.66.59.99.89l.02.02c-.16.14-.32.28-.48.42Z"/>
    </g>
  </g>
</svg>