<?xml version="1.0" encoding="UTF-8"?>
<svg id="_レイヤー_2" data-name="レイヤー 2" xmlns="http://www.w3.org/2000/svg" viewBox="0 0 710 133.27">
  <defs>
    <style>
      .cls-1 {
        fill: #e3e3e3;
      }

      .cls-2 {
        fill: #f7b200;
      }

      .cls-3 {
        fill: none;
        stroke: #fff;
        stroke-miterlimit: 10;
        stroke-width: 3px;
      }

      .cls-4 {
        fill: #5c5c5c;
      }

      .cls-5 {
        fill: #dbdcdc;
      }

      .cls-6 {
        fill: #231815;
      }

      .cls-7 {
        fill: #fff;
      }

      .cls-8 {
        fill: #878787;
      }

      .cls-9 {
        fill: #71c6d2;
      }
    </style>
  </defs>
  <g id="_レイヤー_1-2" data-name="レイヤー 1">
    <line class="cls-3" x1="710" y1="131.77" x2="0" y2="131.77"/>
    <g>
      <path class="cls-5" d="M47.09,7.62s0,0,0,0c-.01,0-.02,0-.04-.01-.04-.01-.08-.03-.12-.04-.08-.03-.16-.05-.25-.06-.02,0-.04,0-.06-.01-.05,0-.04,0,.02,0-.04-.01-.09,0-.13-.01-.08,0-.17,0-.25,0-.04,0-.08,0-.13,0,0,0,0,0-.01,0,0,0-.02,0-.03,0-.07.01-.13.03-.19.05-.59,1.31-.95,2.71-1.15,4.13-.22,1.56-.31,3.2-.21,4.78.08,1.21.39,2.56-.53,3.53-.4.41-.9.71-1.33,1.08-.48.42-.77.97-.87,1.6-.22,1.26.18,2.89,1.02,3.87.86,1,2.26.93,3.28.21,1.14-.8,1.51-2.25,1.51-3.57,0-1.58-.5-3.09-.82-4.62-.76-3.59-.08-7.16.69-10.69-.13-.09-.26-.17-.4-.24Z"/>
      <g>
        <path class="cls-9" d="M59.24,110.49c.77-.02,1.54-.05,2.31-.09-.96-4.75.32-10.18,3.74-13.72.15-.15.31-.29.49-.42-1.22-.14-2.44-.28-3.66-.43-.09.01-.18,0-.25-.03-.06,0-.12-.02-.18-.02-.18.29-.71.33-.8-.1,0,0,0,0,0,0-4.24-.55-8.47-1.17-12.68-1.87-1.88-.32-3.76-.65-5.63-1-.27-.05-.35-.27-.31-.47-3.05-.71-6.31-.14-8.95,1.57-.48.31-.93-.45-.45-.76,2.07-1.34,4.51-2.02,6.96-1.98-.05-.06-.08-.14-.09-.24-.09-.91-.42-1.79-.95-2.54-.53-.76-1.25-1.2-1.95-1.78-.78-.64-.86-1.5-.96-2.44-.11-1.08-.24-2.15-.41-3.22-.64-4.15-1.68-8.24-3.11-12.2-.81-2.23-1.74-4.41-2.79-6.54-.25-.51.52-.96.77-.45,1.89,3.83,3.41,7.84,4.51,11.97.56,2.08,1.02,4.19,1.37,6.32.17,1.03.31,2.07.44,3.11.12,1,0,2.18.86,2.87.8.63,1.54,1.16,2.11,2.03.57.86.89,1.85.99,2.87.01.11-.02.2-.06.27.89.06,1.77.22,2.62.47.22.06.31.24.31.41,5.71,1.05,11.44,1.94,17.19,2.69-1.85-8.1-3.54-16.26-6.95-23.9-.95-2.14-2.02-4.22-3.21-6.24-.06-.1-.07-.2-.06-.29-1.48-1.45-3.06-2.8-4.72-4.08-1.51-1.16-3.02-2.35-4.11-3.93-1.01-1.46-1.53-3.22-1.59-4.98-.01-.34,0-.68.03-1.02-.04.07-.08.15-.13.22-.63,1-1.48,1.83-2.46,2.51-.53.37-1.09.67-1.67.94,1.71.6,3.32,1.43,4.78,2.48.15.02.3.12.37.27.26.2.53.41.78.62.44.37-.19.99-.63.62-.14-.12-.28-.23-.42-.34-.61,1.15-1.28,2.26-2.01,3.33,1.21.84,2.41,1.69,3.62,2.53,1.21.85,2.4,1.68,3.52,2.65,1.42,1.23,2.74,2.59,3.93,4.04,1.36,1.67,2.56,3.45,3.58,5.35.27.5-.5.95-.77.45-1.76-3.28-4.08-6.25-6.85-8.75-1.81-1.64-3.86-2.97-5.86-4.37-.67-.47-1.34-.94-2.01-1.41-.18-.13-.31-.4-.16-.6.85-1.2,1.61-2.45,2.29-3.75-1.51-1.07-3.18-1.9-4.95-2.46-.13-.04-.22-.13-.27-.22-1.54.57-3.17.91-4.77,1.23-.51.1-.74-.51-.34-.81,1.11-.81.66-2.54.61-3.67-.06-1.4.42-2.74.9-4.04.1-.26.2-.52.31-.78-1.43.91-2.91,1.75-4.43,2.5-1.63.8-3.32,1.43-4.99,2.15-.23.1-.45.21-.67.33.39.29.74.7,1.03,1,.69.71,1.36,1.44,2.01,2.19.16.18.18.45,0,.62-.16.16-.47.18-.63,0-.57-.66-1.15-1.3-1.75-1.93-.3-.31-.6-.61-.9-.92-.12-.12-.23-.24-.37-.33-.09-.06-.23-.13-.28-.1,0,0,0,0,0,0-1.8,1.21-3.11,2.98-3.8,5.1-.81,2.51-.86,5.19-.79,7.8.08,3.11.18,6.23.54,9.32.82,7.17,2.81,14.17,5.49,20.86.68,1.7,1.41,3.38,2.18,5.04.38.82.77,1.65,1.17,2.46.34.68.7,1.38,1.19,1.97,1.15,1.37,3.09,1.54,4.74,1.93,1.86.45,3.71.89,5.57,1.31,7.38,1.67,14.88,2.98,22.48,2.83Z"/>
        <path class="cls-9" d="M63.28,26.24c.07-.05.16-.08.24-.07.11,0,.23.04.31.13.08.08.14.19.13.31-.01.25-.05.51-.1.76-.06.27-.13.6-.39.75-.31.18-.71.03-.86-.29-.06-.13-.1-.27-.1-.42,0-.12.03-.25.06-.37.08-.26.23-.5.44-.68.07-.07.16-.1.26-.12Z"/>
        <path class="cls-9" d="M70.37,27.85c.07-.07.16-.1.26-.12.07-.05.16-.08.24-.07.11,0,.23.04.31.13.08.08.14.19.13.31-.01.25-.05.51-.1.76-.06.27-.13.6-.39.75-.31.18-.71.03-.86-.29-.06-.13-.1-.27-.1-.42,0-.12.03-.25.06-.37.08-.26.23-.5.44-.68Z"/>
        <path class="cls-9" d="M65.4,35.03c-.54-.18-.31-1.04.24-.85.62.21,1.33.34,1.99.23.31-.05.32-.15.32-.44,0-.38,0-.76,0-1.13,0-1.47.01-2.94.02-4.41,0-.57.89-.57.89,0,0,1.76-.02,3.52-.03,5.29,0,.35.04.74-.16,1.05-.18.28-.51.44-.83.49-.81.15-1.67.03-2.45-.23Z"/>
        <path class="cls-9" d="M65.52,24.37c-1.24-.76-2.8-.56-4.18-.38-.24.03-.44-.22-.44-.44,0-.26.21-.41.44-.44,1.55-.2,3.24-.35,4.63.5.49.3.04,1.06-.45.76Z"/>
        <path class="cls-9" d="M60.4,36.62c1.1.31,2.2.63,3.31.93,1.09.29,2.19.52,3.33.46.57-.03.57.85,0,.88-.01,0-.02,0-.03,0-.02.06-.06.12-.12.18-.62.54-1.3,1.01-2.05,1.37-.69.33-1.46.64-2.22.36-.7-.26-1.19-.84-1.61-1.43-.49-.68-.86-1.42-1.14-2.21-.12-.32.24-.63.55-.54Z"/>
        <path class="cls-9" d="M62.85,39.95c.57.24,1.23-.12,1.74-.38.4-.21.79-.45,1.15-.72-.72-.08-1.44-.23-2.14-.42-.85-.22-1.7-.47-2.55-.71.16.33.34.65.55.96.32.47.71,1.03,1.25,1.27Z"/>
        <path class="cls-9" d="M38.01,73.42c.05-.41.12-.83.59-.94.52-.12,1.19.03,1.72.07,2.27.17,4.53.5,6.75.97.26-.08.59.06.57.4-.07,1.5-.16,3-.28,4.5-.02.22-.19.47-.44.44-2.95-.34-5.87-.83-8.76-1.47-.08-.02-.14-.05-.18-.09-.19-.03-.35-.17-.32-.42.12-1.15.24-2.31.37-3.46Z"/>
        <path class="cls-9" d="M38.91,73.31s0-.03,0,0h0Z"/>
        <path class="cls-7" d="M39.54,73.38c-.21-.01-.43-.03-.64-.03,0,.02,0,.04,0,.08,0,.14-.03.29-.05.43-.1.91-.19,1.81-.29,2.72,2.62.58,5.27,1.03,7.94,1.35.09-1.19.17-2.39.22-3.58-1.89-.39-3.8-.69-5.73-.86-.49-.04-.97-.08-1.46-.11Z"/>
        <path class="cls-9" d="M92.22,88.11c-1.5.3-2.65,1.42-3.54,2.59-.97,1.27-1.83,2.86-1.57,4.51.09.56-.77.79-.86.23-.3-1.91.52-3.69,1.66-5.19,1.03-1.35,2.34-2.65,4.07-3,.56-.11.8.74.24.85Z"/>
        <path class="cls-9" d="M94.27,105.87c7.26.75,14.56,1.22,21.86,1.42.57.02.57.9,0,.88-7.3-.2-14.59-.67-21.86-1.42-.56-.06-.57-.94,0-.88Z"/>
        <path class="cls-9" d="M69.95,47.25s0,0,0,0c-.04.05-.01.02,0,0Z"/>
        <path class="cls-8" d="M69.06,45.63c-.55-.02-1.13.11-1.67.2-.33.05-.66.11-.98.19-.03,0-.08.03-.12.03.05.06.06.3.07.37.07.3.15.6.25.89.05.15.1.31.17.45,0,.01.02.04.03.06,0,0,.02,0,.03,0,.53,0,1.06,0,1.59-.04.07,0,.14-.01.21-.02,0,0,.07,0,.08-.01.02,0,.03,0,.05,0,.15-.03.3-.05.44-.09.06-.02.13-.04.19-.06.02,0,.12-.05.13-.05.05-.02.09-.04.14-.07.02-.01.04-.02.06-.04,0,0,.05-.03.07-.04.02-.02.07-.06.08-.07.02-.02.04-.04.06-.06.02-.04.04-.07.06-.11,0,0,.04-.12.04-.15,0,0,0,0,0,0,0,0,0,0,0,0,0-.03,0-.06,0-.09,0-.02,0-.14,0-.15-.03-.16-.07-.33-.14-.48-.16-.36-.45-.63-.85-.64Z"/>
        <path class="cls-9" d="M35.35,27.33c-.69,3.74-.61,7.57-1.19,11.32-.24,1.55-.54,3.09-.81,4.64.49-.5,1.06-.92,1.75-1.19.07-.03.14-.05.21-.07.21-.81.34-1.64.44-2.46.06-.47.1-.94.16-1.42.04-.4.01-.96.32-1.27.36-.37.88-.18,1.31-.09.47.1.95.21,1.42.34.85.23,1.67.51,2.48.85,1.05-2.43,1.61-5.05,1.64-7.72,0-.05,0-.09.02-.13-.31-.13-.62-.28-.91-.47-2.05-1.32-2.85-3.76-2.63-6.1.09-.99.38-1.97.85-2.83,0-.01-.01-.02-.02-.04-.23-.66-.46-1.32-.65-1.99-2.59,2.07-3.8,5.47-4.38,8.62Z"/>
        <path class="cls-8" d="M45.77,30.79s0-.01,0-.02c0,0,0,0,0,0,0,0,0,0,0,0,0-.02.01-.02,0,.01,0,.01,0,.02,0,.04,0-.02.02.07.02.08,0,0,0,0,0,0,0,.01.01.02.02.04.02.03.04.06.06.09-.06-.09.04.03.05.04,0,0,0,0,0,.01,0,0,0,0,.01,0,.02.01.05.03.07.04-.02-.01.1.04.12.04,0,0,.07.01.08.02.1.01.2.01.3,0,0,0,.07,0,.09,0,.06,0,.11-.02.17-.03.09-.02.18-.04.27-.07.07-.02.15-.05.22-.07.01,0,.07-.03.08-.04.04-.02.08-.04.12-.07.01,0,.04-.03.05-.04.03-.03.06-.06.1-.09.01-.01.01-.01.02-.01,0,0,0,0,0-.02,0-.01.03-.07.04-.08,0-.02.01-.04.01-.05,0,0,0,0,0,0,0,0,0,0,0,0,0-.02.01-.11,0-.12,0,.02,0,.04,0,.06,0-.02,0-.04-.01-.06,0-.01,0-.01,0-.02,0-.01-.01-.03-.02-.04,0,0,0,0,0,0,0,0,0,0,0,0,0,0,0,0-.02,0-.14-.05-.26-.17-.3-.32-.49.21-1,.34-1.53.4.01.09,0,.19-.04.29Z"/>
        <path class="cls-4" d="M47.36,29.11c1.79-.97,2.6-2.89,2.51-4.86-.05-.99-.32-1.99-.7-2.91-.29-.7-.69-1.38-1.26-1.89.61,2.62,1.29,5.92-1.07,7.82-.97.78-2.34,1.17-3.54.68-1.33-.54-2-2-2.29-3.31-.29-1.33-.22-2.87.74-3.93.42-.46.98-.78,1.44-1.19.2-.18.33-.37.42-.57-3.56,1.37-4.38,7.01-1.57,9.52,1.45,1.3,3.59,1.56,5.31.63Z"/>
        <path class="cls-8" d="M47.09,7.62s0,0,0,0c-.01,0-.02,0-.04-.01-.04-.01-.08-.03-.12-.04-.08-.03-.16-.05-.25-.06-.02,0-.04,0-.06-.01-.05,0-.04,0,.02,0-.04-.01-.09,0-.13-.01-.08,0-.17,0-.25,0-.04,0-.08,0-.13,0,0,0,0,0-.01,0,0,0-.02,0-.03,0-.07.01-.13.03-.19.05-.59,1.31-.95,2.71-1.15,4.13-.22,1.56-.31,3.2-.21,4.78.08,1.21.39,2.56-.53,3.53-.4.41-.9.71-1.33,1.08-.48.42-.77.97-.87,1.6-.22,1.26.18,2.89,1.02,3.87.86,1,2.26.93,3.28.21,1.14-.8,1.51-2.25,1.51-3.57,0-1.58-.5-3.09-.82-4.62-.76-3.59-.08-7.16.69-10.69-.13-.09-.26-.17-.4-.24Z"/>
        <path class="cls-9" d="M41.01,12.6c-.62,1.2-.94,2.45-.83,3.8.09,1.17.45,2.31.84,3.43.69-.87,1.62-1.53,2.75-1.85,0-.06,0-.12,0-.18-.04-.89-.13-1.76-.12-2.64,0-1.01.05-2.02.17-3.03.19-1.67.57-3.3,1.24-4.83-1.62,1.54-3.02,3.33-4.04,5.31Z"/>
        <path class="cls-8" d="M51.74,1.68c-2.33,1-4.22,2.81-5.57,4.92.54-.04,1.1.09,1.57.36,2.39-3.62,6.71-5.74,11.04-5.52-2.25-.84-4.82-.71-7.03.24Z"/>
        <path class="cls-9" d="M74.16,21c.13-2.13-.14-4.27-.74-6.32-1.2-4.05-3.79-7.82-7.35-10.17-1.65-1.09-3.56-1.99-5.55-2.31-.09.17-.26.29-.5.25-4.47-.8-9.25,1.34-11.65,5.15.03.07.04.16.02.25-.75,3.43-1.42,6.88-.75,10.36.05,0,.1.02.15.05,1.05.61,1.78,1.65,2.25,2.8.07-.09.18-.15.33-.15,2,.03,3.69-1.24,5.18-2.42.39-.3.94.06.7.53-.43.85-.89,1.68-1.38,2.49,3.85-3.07,5.96-7.81,7.5-12.39.18-.54,1.04-.31.86.23-1.56,4.64-3.7,9.39-7.49,12.58,4.05-1.28,7.59-4.07,9.71-7.74.72-1.25,1.46-2.72,1.38-4.2-.04-.08-.07-.17-.11-.25-.21-.43.3-.81.61-.62.16.01.3.11.32.32.01.1.02.19.02.29,2.21,4.89,1.68,10.34,1.07,15.52,0,0,0,0,0,0,.03-.1.09-.18.2-.25.57-.34,1.15-.68,1.46-1.28.3-.59.38-1.29.46-1.93.19-1.49.2-3,.07-4.5-.05-.57.84-.56.89,0,.15,1.7.1,3.4-.15,5.08-.1.7-.24,1.43-.64,2.03-.26.39-.6.68-.98.94.78-.12,1.52-.54,1.94-1.21.39-.61.59-1.36.75-2.06.17-.76.25-1.54.24-2.32,0-.57.88-.57.89,0,0,.91-.09,1.83-.31,2.71-.2.81-.46,1.69-.97,2.36-.13.17-.28.32-.44.47.01.02.03.03.04.05.08.12.16.25.24.37,1.48-.82,1.63-3.27,1.71-4.71Z"/>
        <path class="cls-7" d="M62.49,43.69c1.41-1.28,2.76-2.64,4.14-3.96,1.3-1.24,2.61-2.52,3.46-4.12.97-1.82,1.26-3.91,1.21-5.95,0-.08.02-.16.05-.22.1-1,.27-1.99.5-2.96,0-.01.01-.02.01-.03,0,0,0,0,0-.01,0,0,0,0,0,0-.13-.21-.27-.42-.4-.63-.94.51-2.11.64-3.1.26-.13-.05-.24-.14-.29-.26-.14-.06-.23-.18-.21-.38.53-4.52,1.09-9.34-.35-13.72-.18.7-.47,1.39-.8,2.05-.58,1.16-1.29,2.24-2.11,3.24-1.65,2.02-3.77,3.69-6.12,4.83-1.33.65-2.74,1.13-4.19,1.42-.1.02-.19,0-.27-.02-.15.09-.29.19-.45.28-.37.21-.86-.23-.61-.6.56-.83,1.09-1.68,1.59-2.55-1.25.84-2.61,1.48-4.17,1.46-.02,0-.05,0-.07,0,.18.58.31,1.18.39,1.74.31,2.29-.43,4.68-2.4,6.03-.06.04-.12.07-.17.11.28.19.44.5.46.85.02.45-.24.83-.6,1.08-.34.24-.79.36-1.2.42-.51.07-1.03.02-1.44-.32-.18-.15-.32-.37-.4-.6-.06-.21-.06-.4,0-.6-.33-.01-.66-.06-.98-.13-.06,3.57-1.05,7.08-2.84,10.18.74.28,1.69.25,2.41.26.78.01,1.67-.09,2.44.07.63.13.89.72,1.17,1.23.63,1.15,1.16,2.36,1.93,3.42.78,1.06,1.91,1.68,3.08,2.24.68.33,1.37.63,2.03.97.06.03.11.06.17.09.15.07.18.12.23-.03.01-.04.02-.08.02-.13-.27.11-.64-.01-.62-.38.1-2,1-3.78,2.27-5.28-1-.74-1.89-1.61-2.65-2.64-.34-.46.43-.9.77-.45,1.04,1.4,2.4,2.55,3.94,3.38.68.36,1.38.76,2.12.99.85.28,1.44-.06,2.07-.64Z"/>
        <path class="cls-2" d="M59.37,47.01c-.13-.31-.4-.57-.6-.83-.49-.62-.98-1.25-1.47-1.87-.15-.19-.12-.4-.02-.56-.11-.06-.21-.13-.32-.2-.76.88-1.39,1.87-1.76,2.95.14.06.25.18.25.38,0,.45,0,.89,0,1.34,0,.34.04.72-.08,1.05-.28.81-1.09.56-1.66.26-1.34-.69-2.78-1.21-4.01-2.09-1.18-.86-1.91-2.11-2.58-3.37-.34-.65-.66-1.3-1.03-1.93-.09-.16-.14-.27-.31-.34-.2-.08-.51-.04-.72-.05-.52,0-1.04-.02-1.55-.03-1.45-.03-3.28-.03-4.1-1.45-.28-.49.48-.94.77-.45.06.1.12.18.19.26.25-.43.48-.87.69-1.31-.72-.3-1.45-.56-2.2-.76-.4-.11-.8-.21-1.2-.3-.21-.05-.42-.09-.62-.13,0,0-.1-.02-.18-.03,0,.02,0,.04,0,.06-.13.81-.17,1.65-.28,2.46-.08.58-.17,1.16-.3,1.74,1.19-.14,2.43.12,3.58.38.2.04.3.18.31.34.21-.02.41-.02.63-.02.57.02.57.9,0,.88-2.77-.09-4.67,2.25-6.19,4.22-.15.19-.38.29-.61.16-.19-.11-.31-.42-.16-.6,1.31-1.69,2.85-3.56,4.89-4.32-.93-.18-1.88-.27-2.78-.08-.09.07-.21.1-.33.09-.35.11-.68.26-1.01.49-.65.45-1.14,1.07-1.55,1.76-.02.12-.07.2-.15.25-.24.43-.44.89-.63,1.33-.63,1.54-1.24,3.14-1.11,4.83.08,1.03.18,2.13-.22,3.03,2.09-.45,4.18-1,5.97-2.2.97-.65,1.79-1.47,2.38-2.47.62-1.05,1.04-2.21,1.75-3.22.04-.05.08-.1.13-.13.16-.29.33-.58.52-.85.32-.46,1.09-.02.77.45-2,2.86-2.05,6.85-.06,9.74,1.06,1.54,2.59,2.69,4.06,3.82,1.53,1.18,3.02,2.41,4.4,3.75,1.34,1.31,2.59,2.71,3.76,4.17.33-3.09.39-6.21.13-9.3-.13-1.55-.24-3.22-.92-4.65-.6-1.26-1.66-2.15-2.79-2.94-1.22-.85-2.51-1.63-3.54-2.73-.06-.06-.09-.13-.11-.19-.22.03-.4-.12-.48-.32-.42-1.05-.99-2.05-1.67-2.97-.08-.11-.16-.21-.24-.32,0-.01-.07-.07-.13-.14-.06.11-.11.22-.16.33-.23.53-.38,1.1-.46,1.68-.04.24-.34.37-.55.31-.25-.07-.35-.31-.31-.54.11-.7.32-1.38.61-2.02.14-.31.33-.64.68-.72.43-.1.71.21.95.51.88,1.11,1.59,2.33,2.12,3.64.12-.02.25.01.36.13,1.87,2.01,4.76,2.95,6.2,5.37.19.33.35.67.49,1.01.05,0,.1,0,.15.02,1.02.31,2.27.29,3.21-.25.2-.12.89-.54.89-.8,0-.09-.15-.28-.2-.36-.16-.26-.35-.5-.48-.78-.57-1.21.17-2.41.73-3.46.19-.35.41-.72.25-1.12Z"/>
        <path class="cls-2" d="M61.69,94.88c.47-5.23.7-10.49.56-15.74-.15-5.46-.69-10.93-1.86-16.28-.61-2.82-1.41-5.6-2.41-8.3-.9.32-1.93.36-2.86.15.2.8.31,1.62.4,2.44.19,1.8.28,3.62.27,5.43-.01,2.05-.16,4.1-.42,6.14-.06.44-.55.59-.83.22-.6-.8-1.24-1.57-1.9-2.32,1.53,2.9,2.83,5.91,3.93,8.99,1.43,3.99,2.46,8.08,3.41,12.21.54,2.35,1.08,4.7,1.62,7.04.03,0,.05,0,.08.01Z"/>
        <path class="cls-9" d="M44.77,43.92s-.01-.02-.01-.02c0,.01,0,.02.01.02Z"/>
        <path class="cls-9" d="M97.94,88.19c-.85-.43-1.72-.82-2.54-1.29-.67-.39-1.26-.91-1.52-1.65-.06-.17-.09-.36-.11-.54,0-.11.03-.4-.02-.44-.09-.06-.52-.03-.67-.04-.27-.03-.55-.05-.82-.08-.26-.02-.4-.23-.42-.44-5.87-7.14-9.9-15.49-15.08-23.09-.73-1.07-1.48-2.12-2.26-3.15-.59-.78-1.48-1.95-2.59-1.86.45.88.84,1.8,1.11,2.76.31,1.11.47,2.25.59,3.39.06.56-.83.56-.89,0-.22-2.16-.74-4.19-1.78-6.11,0,0,0-.01,0-.02-.03,0-.06-.01-.09-.02-.12-.02-.21-.08-.26-.16-2.34-.88-4.67-1.79-6.93-2.83,1.26.99,2.53,1.97,3.83,2.9.24.17.29.46.09.69-1.05,1.2-1.98,2.5-2.77,3.87,1.11.78,2.19,1.6,3.24,2.46.27.22.53.44.79.67.25.21.56.43.75.7.37.54,0,1.16-.18,1.7-.97,2.85-1.63,5.8-1.97,8.79-.06.56-.95.56-.89,0,.31-2.72.86-5.42,1.68-8.03.1-.3.19-.61.3-.91.06-.17.11-.33.17-.49.04-.11.18-.35.16-.47-.04-.26-.46-.5-.65-.66-.26-.22-.53-.45-.79-.67-.98-.81-2-1.57-3.04-2.3-.15.28-.29.55-.42.84-.25.51-1.01.07-.77-.45.91-1.9,2.07-3.67,3.43-5.28-2.54-1.86-4.98-3.85-7.47-5.77-.07.33-.08.68.06,1,.13.3.37.56.53.84.22.37.34.76.11,1.15-.22.39-.65.74-1.05.98,1.85,4.99,2.99,10.2,3.65,15.47.69,5.51.85,11.08.68,16.63-.09,2.91-.28,5.82-.55,8.72,1.81.22,3.62.43,5.43.63.29.03.43.28.42.51,1.05.06,2.1.18,3.14.35-.25-4.04.51-7.98,1.27-11.93,0-.05,0-.11.03-.15.62-3.19,1.24-6.39,1.33-9.64.06-2.05-.12-4.09-.65-6.07-.15-.55.71-.78.86-.23,1.41,5.3.4,10.66-.63,15.97,1.7,2.23,3.49,4.4,5.44,6.42,1,1.04,2.07,1.99,3.09,3,.48.47.91.98,1.3,1.53.36.5.7.98,1.28,1.23.02,0,.04.02.06.03,1.63-.43,3.19-1.09,4.72-1.79-.07-.12-.1-.27-.03-.43,1.08-2.54,3.67-3.96,6.23-4.67.74-.2,1.49-.36,2.24-.5.43-.08.94-.23,1.42-.27-.09-.05-.19-.09-.28-.14-.44-.22-.87-.44-1.31-.66Z"/>
        <path class="cls-7" d="M100.59,90.19c-.16.01-.3-.09-.38-.23-.07-.03-.13-.06-.2-.07-.31-.09-.69.04-1,.1-.34.06-.67.12-1.01.18-.7.13-1.39.29-2.07.48-2.15.62-4.26,1.76-5.32,3.77.11-.05.22-.1.33-.15,1.21-.55,2.43-1.1,3.64-1.65,1.03-.47,2.12-.99,3.27-.65.16.05.25.15.29.27,0,0,0,0,0,0,.03-.09.09-.16.2-.22.64-.35,1.3-.74,1.98-1,.49-.19.9-.07,1.32.12-.03-.03-.05-.06-.08-.08-.28-.26-.61-.61-.97-.87Z"/>
        <path class="cls-7" d="M102.2,92.39c-.48-.23-1.11-.73-1.64-.51-.38.16-.75.35-1.12.55,1.15.17,2.31.34,3.46.51.21.03.41.06.62.09-.44-.21-.88-.43-1.31-.64Z"/>
        <path class="cls-7" d="M108.74,95.69c-.24-.33-.47-.73-.81-.97-.33-.24-.77-.27-1.16-.33-.42-.06-.84-.12-1.25-.18-.84-.12-1.67-.24-2.51-.37-1.73-.25-3.46-.51-5.19-.76-.19-.03-.29-.14-.31-.28-1.12-.26-2.33.52-3.31.96-1.16.52-2.32,1.05-3.48,1.57-2.14.96-4.29,1.96-6.61,2.4-.13.02-.24,0-.33-.06,0,0,0,0,0,0-3.93.23-7.88.2-11.81-.08-1.6,1.4-2.55,3.42-2.98,5.47-.14.64-.23,1.32-.25,2,4.07-.19,8.14-.5,12.19-.91.06,0,.12-.02.19-.03.19-.03.35.06.45.18,5.04,1.16,10.95,1.33,14.9-2.53.17-.17.38-.15.54-.05,1.01.03,2.02-.01,3.02-.12.1-.12.25-.2.44-.16,1.27.25,2.6.54,3.59,1.43.55.49.91,1.15,1.48,1.63.51.44,1.13.74,1.78.9.3.07.7.18,1.01.12.19-.03.18-.04.06-.21-.13-.17-.3-.33-.45-.49-.53-.57-1.07-1.13-1.62-1.67-1.11-1.09-2.27-2.12-3.49-3.1-.33-.27-.63-.51-1.05-.6-.47-.09-.95-.13-1.42-.19-.93-.12-1.87-.25-2.8-.37-.56-.07-.57-.96,0-.88.96.13,1.93.26,2.89.38.81.11,1.71.11,2.41.57.05-.1.14-.18.26-.2.72-.13,1.44-.25,2.16-.38.19-.22.6-.25.75.05.06.05.11.11.13.2.01.06.01.12,0,.18.14.37.36.7.65.98.17.16.36.3.56.41.22.12.47.18.66.34.43.34.55,1.02.79,1.49.26.51.56,1.01.92,1.46.33.4.71.77,1.17,1.02.23.12.48.21.74.23.12,0,.54.04.6-.13.02-.05-.07-.22-.09-.26-.07-.17-.16-.33-.23-.49-.14-.29-.27-.58-.41-.87-.29-.62-.58-1.24-.88-1.86-.03-.07-.05-.14-.05-.2,0-.01-.02-.02-.02-.03-.79-1.14-1.58-2.28-2.36-3.43-.38-.55-.74-1.13-1.15-1.66-.43-.55-1.1-.36-1.71-.3-2.75.23-5.52.19-8.27-.11-.56-.06-.57-.94,0-.88,3,.33,5.96.27,8.96.05.57-.04,1.1.05,1.52.47.48.48.83,1.14,1.21,1.69.86,1.24,1.71,2.48,2.57,3.72.06.08.08.17.08.24.24.5.48,1,.72,1.5.09-.05.19-.06.32-.03.28.09,1.22.34.9-.26-.21-.38-.54-.74-.81-1.09-.51-.69-1.01-1.37-1.52-2.06s-1.01-1.37-1.52-2.06c-.25-.34-.51-.69-.76-1.03Z"/>
        <path class="cls-7" d="M71.09,107.73s-.02-.05-.02-.08c0-.62.05-1.23.13-1.84-.81.05-1.63.09-2.44.13.01.16.03.32.06.48.1.61.35,1.25.91,1.59.44.27,1.12.22,1.36-.28Z"/>
        <path class="cls-7" d="M117.75,94.59c-.28.33-.69.51-1.05.73-.04.02-.08.05-.12.08-.02.01-.03.02-.05.03-.08.07-.15.13-.21.21-.01.02-.02.03-.03.05-.01.02-.02.04-.03.05,0,0,0,0,0,.01-.01.03-.02.07-.03.1,0,0,0,0,0,.01.08,0,.16.02.24.03.6.05,1.2.05,1.79.1.47.04.96.14,1.31.49.57.57.46,1.31.08,1.91.31-.03.61-.06.92-.09.18-.64.37-1.27.55-1.91-.07.02-.14.02-.23,0-.45-.12-.87-.32-1.25-.59-.37-.25-.7-.55-1.07-.79-.26-.17-.53-.3-.81-.42Z"/>
        <path class="cls-9" d="M120.24,99.4c.02-.06.04-.12.05-.18-.35.04-.7.07-1.04.11-.11.01-.24-.06-.31-.13-.01-.01-.03-.03-.04-.05-.07.05-.14.1-.22.14.51.04,1.02.07,1.53.11.01,0,.02,0,.03,0Z"/>
        <path class="cls-7" d="M113.38,100.49c1.21.07,2.4-.17,3.48-.69-.35-.06-.68-.22-1.04-.36-1.04-.4-2.18-.12-3.28-.09.28.38.56.75.84,1.13Z"/>
        <path class="cls-7" d="M115.01,91c-.83,1-1.69,1.96-2.62,2.87-.46.45-.92.9-1.41,1.31-.35.29-.71.49-1.14.5.25.34.51.68.76,1.03.43.58.85,1.15,1.28,1.73,1.23.13,2.46-.24,3.69,0,.61.12,1.19.62,1.83.45.52-.14,1.22-.51,1.52-.97.35-.53.05-.96-.51-1.04-.61-.1-1.25-.06-1.87-.11-1.39-.12-2.76-.35-4.12-.69-.55-.14-.32-.99.24-.85.89.22,1.78.4,2.68.52.06-.48.41-.87.8-1.14.18-.12.37-.22.56-.33.05-.03.09-.06.14-.08,0,0,0,0,0,0-.3-.12-.59-.25-.87-.41-.5-.28-.05-1.04.45-.76.81.46,1.72.69,2.51,1.17.74.45,1.32,1.09,2.18,1.33.09.02.15.07.2.12.17-.6.35-1.21.52-1.81-.11.06-.25.06-.39-.04-1.1-.8-2.21-1.6-3.31-2.4-.52-.38-1.05-.87-1.67-1.08-.67-.23-1.07.21-1.47.69Z"/>
        <path class="cls-7" d="M120.33,91.19c-.37-.17-.73-.35-1.11-.51-.27-.12-.58-.22-.89-.23.04.03.08.06.11.08,1.15.84,2.3,1.67,3.45,2.51.06.04.1.09.13.14.1-.35.2-.71.3-1.06-.67-.31-1.34-.62-2.01-.93Z"/>
        <path class="cls-1" d="M149.52,100.36c.06-.47.21-.93.34-1.38.28-1,.57-2,.86-2.99.91-3.07,1.85-6.14,2.79-9.2,1.13-3.66,2.26-7.33,3.41-10.99,1-3.2,2-6.39,3.01-9.59.53-1.68,1.03-3.36,1.6-5.03-.09-.18-.06-.41.18-.52.25-.12.17-.52.02-.71-.26-.3-.77-.3-1.14-.33-.18-.01-.36-.02-.54-.04-.61-.05-1.21-.1-1.82-.15-1.97-.17-3.94-.36-5.91-.54-4.6-.43-9.21-.88-13.81-1.3-1.36-.12-2.72-.27-4.08-.35-.06.02-.13.03-.21.02-1.01-.14-1.52,1.22-1.72,1.96-.11.4-.2.81-.3,1.22-.07.26-.14.52-.21.79-.29,1.04-.58,2.08-.87,3.12-1.01,3.61-2.03,7.22-3.05,10.83-1.27,4.49-2.54,8.99-3.83,13.48-.3,1.05-.6,2.1-.9,3.15.02.11,0,.22-.05.31-.02.03-.04.05-.07.07-.81,2.83-1.62,5.66-2.45,8.48-.63,2.15-1.19,4.33-1.94,6.44-.01.03-.03.07-.04.1.17-.04.35-.08.52-.12.77-.18,1.54-.34,2.31-.5,2.42-.51,4.84-1,7.26-1.49,5.15-1.03,10.3-2.05,15.46-3.04.78-.15,1.55-.3,2.33-.45.85-.16,2.23-.16,2.61-1.04.05-.11.12-.19.21-.23Z"/>
        <path class="cls-1" d="M85.85,106.71c.35.13.7.26,1.07.34.52.11,1.05.2,1.58.28,1.05.16,2.1.26,3.15.35,2.11.18,4.23.32,6.34.46,4.28.28,8.57.51,12.86.69,2.34.1,4.68.18,7.02.25.04-.12.13-.22.3-.25,3.52-.66,7.03-1.4,10.55-2.1,5.41-1.09,10.82-2.17,16.21-3.32.88-.19,1.76-.38,2.64-.58.24-.06.48-.11.71-.18.04-.01.08-.02.12-.03.1-.16.18-.31.17-.46-.41.13-.86.2-1.29.28-.57.1-1.13.21-1.7.32-2.18.42-4.35.84-6.53,1.27-5.39,1.06-10.79,2.11-16.17,3.24-.99.21-1.99.42-2.98.64-.31.07-.61.14-.91.22-.1.02-.19.05-.29.08-.06.02-.26.1-.06.01-.46.2-.86-.36-.6-.66-.13-.09-.2-.24-.11-.44.24-.57.4-1.19.58-1.79.39-1.28.77-2.57,1.15-3.86.12-.4.23-.79.34-1.19-.64-.05-1.27-.09-1.91-.14-.01.01-.03.02-.04.04-1.19.76-2.58,1.18-3.99,1.22.27.4.43.84.12,1.29-.38.56-1.01.58-1.61.46.14.31.29.62.42.94.2.47.18,1-.28,1.31-.4.27-.93.29-1.39.21-1.01-.18-1.82-.95-2.41-1.74-.35-.46-.65-.96-.91-1.48-.12-.24-.22-.48-.32-.73-.11-.27-.15-.4-.43-.52-.84-.36-1.5-1.03-1.87-1.86-.58.1-1.16.2-1.74.31,1.18.94,2.3,1.97,3.37,3.02.65.64,1.29,1.31,1.9,1.98.23.25.49.52.53.87.04.36-.17.66-.48.82-.59.3-1.48.11-2.08-.07-.77-.23-1.48-.63-2.07-1.17-.69-.63-1.12-1.47-1.96-1.94-.64-.36-1.36-.54-2.08-.68-1.28.17-2.56.25-3.84.21-.01,0-.02,0-.04,0-3.03,2.81-7.06,3.53-11.05,3.25,0,.29.01.58.03.86Z"/>
        <path class="cls-7" d="M66.62,109.43c1.23-.03,2.51-.17,3.73.06.06-.15.13-.3.19-.46-.36.05-.74,0-1.09-.17-1.12-.53-1.49-1.79-1.57-2.93-.15-2.19.42-4.48,1.45-6.41.44-.82.99-1.59,1.65-2.25-.84-.13-1.69-.21-2.55-.26-.14.07-.32.07-.47-.02-.33-.01-.65-.02-.98-.03-.18,0-.3-.1-.37-.22-.22.11-.41.25-.55.39-.52.49-.96,1.08-1.35,1.66-.77,1.13-1.39,2.37-1.82,3.66-.76,2.28-.98,4.72-.61,7.08,1.44-.04,2.89-.08,4.33-.12Z"/>
        <path class="cls-9" d="M39.53,110.56c1.4-.2,2.8-.41,4.21-.58-1.61-.28-3.22-.6-4.82-.94-1.92-.41-3.83-.85-5.74-1.3-.94-.22-1.89-.45-2.83-.68-.9-.22-1.85-.38-2.72-.72-1.54-.6-2.4-1.97-3.11-3.38-.65-1.3-1.26-2.63-1.85-3.96.45,1.91.89,3.82,1.19,5.76.14.9.19,1.78.04,2.68-.15.87-.46,1.71-.74,2.55-.37,1.09-.73,2.18-1.1,3.27,5.81-.94,11.63-1.87,17.46-2.7Z"/>
      </g>
      <g>
        <path class="cls-6" d="M72.19,29.65c.05,1.99-.23,4-1.06,5.83-.8,1.77-2.15,3.2-3.53,4.54-1.53,1.48-3.02,3.03-4.63,4.42-.63.54-1.35.99-2.22.86-.83-.12-1.59-.56-2.33-.93-1.91-.96-3.55-2.26-4.83-3.98-.34-.46.43-.9.77-.45,1.04,1.4,2.4,2.55,3.94,3.38.68.36,1.38.76,2.12.99.85.28,1.44-.06,2.07-.64,1.41-1.28,2.76-2.64,4.14-3.96,1.3-1.24,2.61-2.52,3.46-4.12.97-1.82,1.26-3.91,1.21-5.95-.01-.57.88-.57.89,0h0Z"/>
        <path class="cls-6" d="M63.96,26.6c-.01.25-.05.51-.1.76-.06.27-.13.6-.39.75-.31.18-.71.03-.86-.29-.06-.13-.1-.27-.1-.42,0-.12.03-.25.06-.37.08-.26.23-.5.44-.68.09-.08.19-.13.31-.13.11,0,.24.05.31.13.08.08.14.19.13.31,0,.11-.04.23-.13.31-.05.05-.1.1-.15.16.02-.03.05-.06.07-.09-.06.08-.11.16-.14.25.01-.04.03-.07.04-.11-.04.09-.06.18-.07.28,0-.04.01-.08.02-.12,0,.05,0,.09,0,.14,0-.04-.01-.08-.02-.12,0,.04.02.08.03.11-.01-.04-.03-.07-.04-.11.01.03.03.05.04.07-.02-.03-.05-.06-.07-.09.01.02.03.03.05.05-.03-.02-.06-.05-.09-.07.01,0,.03.02.04.02-.04-.01-.07-.03-.11-.04.01,0,.02,0,.03,0-.04,0-.08-.01-.12-.02.01,0,.02,0,.04,0-.04,0-.08.01-.12.02.01,0,.02,0,.04-.01-.04.01-.07.03-.11.04,0,0,.02-.01.03-.02-.03.02-.06.05-.09.07.01-.01.02-.02.03-.03l-.07.09s.03-.05.04-.07c-.01.04-.03.07-.04.11.09-.22.13-.46.16-.7,0,.04-.01.08-.02.12.01-.11.02-.22.03-.32,0-.12.05-.23.13-.31.08-.08.2-.13.31-.13.11,0,.23.04.31.13.08.08.14.19.13.31h0Z"/>
        <path class="cls-6" d="M71.32,28.09c-.01.25-.05.51-.1.76-.06.27-.13.6-.39.75-.31.18-.71.03-.86-.29-.06-.13-.1-.27-.1-.42,0-.12.03-.25.06-.37.08-.26.23-.5.44-.68.09-.08.19-.13.31-.13.11,0,.24.05.31.13.08.08.14.19.13.31,0,.11-.04.23-.13.31-.05.05-.1.1-.15.16.02-.03.05-.06.07-.09-.06.08-.11.16-.14.25.01-.04.03-.07.04-.11-.04.09-.06.18-.07.28,0-.04.01-.08.02-.12,0,.05,0,.09,0,.14,0-.04-.01-.08-.02-.12,0,.04.02.08.03.11-.01-.04-.03-.07-.04-.11.01.03.03.05.04.07l-.07-.09s.03.03.05.05c-.03-.02-.06-.05-.09-.07.01,0,.03.02.04.02-.04-.01-.07-.03-.11-.04.01,0,.02,0,.03,0-.04,0-.08-.01-.12-.02.01,0,.02,0,.04,0-.04,0-.08.01-.12.02.01,0,.02,0,.04-.01-.04.01-.07.03-.11.04,0,0,.02-.01.03-.02-.03.02-.06.05-.09.07.01-.01.02-.02.03-.03-.02.03-.05.06-.07.09.02-.02.03-.05.04-.07-.01.04-.03.07-.04.11.09-.22.13-.46.16-.7,0,.04-.01.08-.02.12.01-.11.02-.22.03-.32,0-.12.05-.23.13-.31.08-.08.2-.13.31-.13.11,0,.23.04.31.13.08.08.14.19.13.31h0Z"/>
        <path class="cls-6" d="M68.86,28.43c0,1.76-.02,3.52-.03,5.29,0,.35.04.74-.16,1.05-.18.28-.51.44-.83.49-.81.15-1.67.03-2.45-.23-.54-.18-.31-1.04.24-.85.62.21,1.33.34,1.99.23.31-.05.32-.15.32-.44,0-.38,0-.76,0-1.13,0-1.47.01-2.94.02-4.41,0-.57.89-.57.89,0h0Z"/>
        <path class="cls-6" d="M65.52,24.37c-1.24-.76-2.8-.56-4.18-.38-.24.03-.44-.22-.44-.44,0-.26.21-.41.44-.44,1.55-.2,3.24-.35,4.63.5.49.3.04,1.06-.45.76h0Z"/>
        <path class="cls-6" d="M67.03,38.89c-1.16.06-2.32-.16-3.44-.46-1.15-.3-2.29-.64-3.43-.96.18-.18.36-.36.55-.54.22.62.52,1.2.88,1.75.32.47.71,1.03,1.25,1.27.57.24,1.23-.12,1.74-.38.6-.31,1.15-.68,1.66-1.13.43-.37,1.06.25.63.62-.62.54-1.3,1.01-2.05,1.37-.69.33-1.46.64-2.22.36-.7-.26-1.19-.84-1.61-1.43-.49-.68-.86-1.42-1.14-2.21-.12-.32.24-.63.55-.54,1.1.31,2.2.63,3.31.93,1.09.29,2.19.52,3.33.46.57-.03.57.85,0,.88h0Z"/>
        <path class="cls-6" d="M67.49,9.3c2.46,5.04,1.89,10.73,1.25,16.11-.07.56-.95.56-.89,0,.61-5.2,1.25-10.79-1.13-15.67-.25-.51.52-.96.77-.45h0Z"/>
        <path class="cls-6" d="M71.84,17.29c.15,1.7.1,3.4-.15,5.08-.1.7-.24,1.43-.64,2.03-.4.61-1.02,1-1.64,1.37-.49.29-.94-.47-.45-.76.57-.34,1.15-.68,1.46-1.28.3-.59.38-1.29.46-1.93.19-1.49.2-3,.07-4.5-.05-.57.84-.56.89,0h0Z"/>
        <path class="cls-6" d="M59.51,1.21c2.29.13,4.52,1.02,6.46,2.2,1.97,1.19,3.67,2.8,5.06,4.62,2.8,3.68,4.3,8.36,4.03,12.98-.12,2.03-.43,4.91-2.67,5.7-.54.19-.77-.66-.24-.85,1.77-.63,1.93-3.31,2.02-4.85.13-2.13-.14-4.27-.74-6.32-1.2-4.05-3.79-7.82-7.35-10.17-1.93-1.27-4.23-2.3-6.56-2.43-.57-.03-.57-.91,0-.88h0Z"/>
        <path class="cls-6" d="M73.89,19.76c0,.91-.09,1.83-.31,2.71-.2.81-.46,1.69-.97,2.36-.95,1.23-2.79,1.79-4.26,1.23-.22-.09-.38-.3-.31-.54.06-.21.32-.39.55-.31,1.18.45,2.74.03,3.43-1.07.39-.61.59-1.36.75-2.06.17-.76.25-1.54.24-2.32,0-.57.88-.57.89,0h0Z"/>
        <path class="cls-6" d="M71.85,26.43c-.14-.21-.27-.42-.41-.63-.03-.05-.05-.11-.05-.16-.01-.06-.01-.12,0-.18.03-.1.11-.21.2-.26.1-.05.23-.08.34-.04.11.04.2.1.27.2.14.21.27.42.41.63.03.05.05.11.05.16.01.06.01.12,0,.18-.03.1-.11.21-.2.26-.1.05-.23.08-.34.04-.11-.04-.2-.1-.27-.2h0Z"/>
        <path class="cls-6" d="M67.66,9.45c.21,1.52-.28,2.94-.95,4.29-.58,1.16-1.29,2.24-2.11,3.24-1.65,2.02-3.77,3.69-6.12,4.83-1.33.65-2.74,1.13-4.19,1.42-.56.11-.8-.74-.24-.85,4.75-.97,8.99-4,11.41-8.19.77-1.34,1.57-2.93,1.35-4.52-.08-.56.78-.8.86-.23h0Z"/>
        <path class="cls-6" d="M63.24,9.36c-1.84,5.46-4.47,11.09-9.67,14.13-.37.21-.86-.23-.61-.6.94-1.38,1.78-2.81,2.53-4.3.23.18.47.36.7.53-1.69,1.33-3.55,2.71-5.81,2.68-.57,0-.57-.89,0-.88,2,.03,3.69-1.24,5.18-2.42.39-.3.94.06.7.53-.75,1.49-1.6,2.92-2.53,4.3-.2-.2-.41-.4-.61-.6,4.99-2.92,7.5-8.36,9.27-13.6.18-.54,1.04-.31.86.23h0Z"/>
        <path class="cls-6" d="M60.03,2.45c-4.51-.81-9.34,1.38-11.72,5.25-.3.48-1.07.04-.77-.45,2.6-4.24,7.82-6.54,12.72-5.66.56.1.32.95-.24.85h0Z"/>
        <path class="cls-6" d="M59.96,1.99c-2.49-1.41-5.61-1.43-8.21-.31-2.52,1.08-4.53,3.1-5.89,5.44-.29.49-1.05.05-.77-.45,1.49-2.55,3.69-4.72,6.45-5.86,2.84-1.17,6.18-1.12,8.87.41.5.28.05,1.04-.45.76h0Z"/>
        <path class="cls-6" d="M47.52,7.88c-.14-.1-.28-.19-.43-.26-.04-.02-.04-.02.02,0-.02,0-.04-.02-.06-.02-.04-.01-.08-.03-.12-.04-.08-.03-.16-.05-.25-.06-.02,0-.04,0-.06-.01-.05,0-.04,0,.02,0-.04-.01-.09,0-.13-.01-.08,0-.17,0-.25,0-.04,0-.08,0-.13,0-.05,0-.04,0,.02,0-.02,0-.04,0-.06,0-.08.01-.17.03-.25.06-.22.06-.49-.08-.55-.31-.05-.24.07-.47.31-.54.79-.23,1.7-.08,2.36.42.1.07.17.14.2.26.03.11.02.25-.04.34-.12.18-.41.31-.61.16h0Z"/>
        <path class="cls-6" d="M46.05,7.22c-.68,1.4-1.08,2.91-1.3,4.45-.22,1.56-.31,3.2-.21,4.78.08,1.21.39,2.56-.53,3.53-.4.41-.9.71-1.33,1.08-.48.42-.77.97-.87,1.6-.22,1.26.18,2.89,1.02,3.87.86,1,2.26.93,3.28.21,1.14-.8,1.51-2.25,1.51-3.57,0-1.58-.5-3.09-.82-4.62-.78-3.67-.05-7.32.74-10.92.12-.55.98-.32.86.23-.78,3.57-1.48,7.16-.66,10.79.61,2.72,1.73,6.52-.88,8.63-.97.78-2.34,1.17-3.54.68-1.33-.54-2-2-2.29-3.31-.29-1.33-.22-2.87.74-3.93.42-.46.98-.77,1.44-1.19.54-.49.58-1.02.55-1.73-.04-.89-.13-1.76-.12-2.64,0-1.01.05-2.02.17-3.03.21-1.86.65-3.67,1.48-5.35.25-.51,1.02-.06.77.45h0Z"/>
        <path class="cls-6" d="M47.79,18.27c1.79,1.04,2.64,3.33,2.9,5.27.31,2.29-.43,4.68-2.4,6.03-1.82,1.25-4.26,1.29-6.12.09-2.05-1.32-2.85-3.76-2.63-6.1.24-2.58,1.81-5.07,4.48-5.66.56-.12.79.73.24.85-4.1.91-5.18,7.06-2.2,9.72,1.45,1.3,3.59,1.56,5.31.63,1.79-.97,2.6-2.89,2.51-4.86-.05-.99-.32-1.99-.7-2.91-.38-.92-.95-1.8-1.83-2.31-.49-.29-.05-1.05.45-.76h0Z"/>
        <path class="cls-6" d="M45.74,6.65c-1.91,1.68-3.57,3.69-4.74,5.95-.62,1.2-.94,2.45-.83,3.8.11,1.4.6,2.76,1.07,4.07.19.54-.67.77-.86.23-.5-1.4-.98-2.82-1.1-4.31-.11-1.39.21-2.71.81-3.96,1.18-2.44,2.99-4.63,5.02-6.41.43-.37,1.06.25.63.62h0Z"/>
        <path class="cls-6" d="M57.18,43.3c-1.28,1.4-2.23,3.09-2.32,5.01-.03.57-.92.57-.89,0,.1-2.16,1.14-4.06,2.58-5.63.39-.42,1.01.2.63.62h0Z"/>
        <path class="cls-6" d="M43.95,30.26c-.04,3.76-1.11,7.47-3.06,10.69-.29.49-1.06.04-.77-.45,1.88-3.09,2.9-6.63,2.94-10.24,0-.57.89-.57.89,0h0Z"/>
        <path class="cls-6" d="M71.14,35.3c.96,1.93,1.59,3.99,1.85,6.12.12.96.14,1.97-.3,2.86-.42.86-1.24,1.45-2,1.99-.47.33-.91-.43-.45-.76.67-.47,1.4-.99,1.72-1.76.35-.84.22-1.83.09-2.7-.28-1.84-.84-3.63-1.67-5.3-.25-.51.51-.95.77-.45h0Z"/>
        <path class="cls-6" d="M66.85,47.81c.53,0,1.06,0,1.59-.04.07,0,.14-.01.21-.02,0,0,.15-.02.05,0,.03,0,.06,0,.08-.01.15-.03.3-.05.44-.09.06-.02.13-.04.19-.06.03,0,.2-.08.1-.04.05-.02.11-.05.16-.08.02-.01.04-.02.06-.04.01,0,.12-.08.07-.04-.04.03.06-.05.08-.07.02-.02.04-.05.07-.07-.06.07-.02.03-.01.01.03-.05.06-.09.08-.14-.05.1.02-.08.03-.12.03-.11,0,.06,0,0,0-.03,0-.06,0-.09,0-.03-.02-.21,0-.13-.03-.17-.08-.34-.14-.5-.16-.36-.45-.63-.85-.64-.55-.02-1.13.11-1.67.2-.33.05-.66.11-.98.19-.03,0-.1.03-.13.03-.02,0-.04.01-.06.03.04-.08.06-.1.06-.04.05.05.06.31.08.38.07.3.15.6.25.89.05.15.1.31.17.45,0,.02.03.06.03.07.05.07.03.07-.06-.02.03,0,.05,0,.08,0,.57,0,.57.88,0,.88-.35,0-.63-.13-.8-.45-.15-.29-.26-.62-.36-.94-.1-.33-.19-.67-.25-1.01-.06-.38-.02-.73.32-.96.26-.18.62-.22.93-.28.36-.07.71-.12,1.07-.17.69-.1,1.43-.28,2.09.05.8.4,1.34,1.61,1.01,2.47-.26.69-.98,1.01-1.67,1.14-.77.15-1.56.14-2.34.14-.57,0-.57-.88,0-.88Z"/>
        <path class="cls-6" d="M41.3,38.87c-.79-.35-1.6-.63-2.44-.86-.4-.11-.8-.21-1.2-.3-.21-.05-.42-.09-.62-.13-.02,0-.26-.04-.26-.05.1-.11.13-.11.09,0,0,.03-.01.05-.01.08-.13.81-.17,1.65-.28,2.46-.11.84-.25,1.67-.48,2.48-.16.55-1.01.31-.86-.23.26-.9.4-1.83.52-2.76.06-.47.1-.94.16-1.42.04-.4.01-.96.32-1.27.36-.37.88-.18,1.31-.09.47.1.95.21,1.42.34.96.26,1.89.59,2.8.99.22.1.27.41.16.6-.13.23-.39.26-.61.16h0Z"/>
        <path class="cls-6" d="M67.84,96.88c-.46-.63-1.36-.13-1.77.26-.52.49-.96,1.08-1.35,1.66-.77,1.13-1.39,2.37-1.82,3.66-.88,2.65-1.04,5.5-.39,8.22.07.29-.14.54-.43.56-7.8.52-15.56-.59-23.16-2.21-1.92-.41-3.83-.85-5.74-1.3-.94-.22-1.89-.45-2.83-.68-.9-.22-1.85-.38-2.72-.72-1.54-.6-2.4-1.97-3.11-3.38-.82-1.66-1.6-3.34-2.33-5.04-2.94-6.79-5.2-13.9-6.31-21.23-.51-3.37-.68-6.74-.82-10.14-.11-2.71-.2-5.46.33-8.14.52-2.64,1.76-5.11,3.92-6.8,1.36-1.07,2.95-1.61,4.53-2.27,1.77-.73,3.49-1.58,5.16-2.52.81-.46,1.61-.95,2.39-1.45.48-.31.93.45.45.76-1.54,1-3.14,1.91-4.79,2.73-1.63.8-3.32,1.43-4.99,2.15-2.62,1.15-4.5,3.27-5.38,5.97-.81,2.51-.86,5.19-.79,7.8.08,3.11.18,6.23.54,9.32.82,7.17,2.81,14.17,5.49,20.86.68,1.7,1.41,3.38,2.18,5.04.38.82.77,1.65,1.17,2.46.34.68.7,1.38,1.19,1.97,1.15,1.37,3.09,1.54,4.74,1.93,1.86.45,3.71.89,5.57,1.31,7.38,1.67,14.88,2.98,22.48,2.83.95-.02,1.9-.06,2.85-.12-.14.19-.29.37-.43.56-1.17-4.87.09-10.58,3.63-14.25.89-.92,2.43-1.46,3.33-.24.34.46-.43.9-.77.45h0Z"/>
        <path class="cls-6" d="M68.01,96.51c-6.63-.71-13.23-1.62-19.81-2.73-1.88-.32-3.76-.65-5.63-1-.56-.1-.32-.95.24-.85,6.5,1.21,13.04,2.22,19.61,3.04,1.86.23,3.72.45,5.59.65.56.06.57.94,0,.88h0Z"/>
        <path class="cls-6" d="M42.93,92.49c-3.24-.96-6.79-.44-9.63,1.39-.48.31-.93-.45-.45-.76,3.02-1.96,6.85-2.5,10.31-1.48.55.16.31,1.01-.24.85h0Z"/>
        <path class="cls-6" d="M39.72,90.9c-.09-.91-.42-1.79-.95-2.54-.53-.76-1.25-1.2-1.95-1.78-.78-.64-.86-1.5-.96-2.44-.11-1.08-.24-2.15-.41-3.22-.64-4.15-1.68-8.24-3.11-12.2-.81-2.23-1.74-4.41-2.79-6.54-.25-.51.52-.96.77-.45,1.89,3.83,3.41,7.84,4.51,11.97.56,2.08,1.02,4.19,1.37,6.32.17,1.03.31,2.07.44,3.11.12,1,0,2.18.86,2.87.8.63,1.54,1.16,2.11,2.03.57.86.89,1.85.99,2.87.06.56-.83.56-.89,0h0Z"/>
        <path class="cls-6" d="M20.03,51.11c.97-.47,1.79.61,2.38,1.22.69.71,1.36,1.44,2.01,2.19.16.18.18.45,0,.62-.16.16-.47.18-.63,0-.57-.66-1.15-1.3-1.75-1.93-.3-.31-.6-.61-.9-.92-.12-.12-.23-.24-.37-.33-.09-.06-.23-.13-.28-.1-.22.11-.48.06-.61-.16-.11-.19-.06-.5.16-.6h0Z"/>
        <path class="cls-6" d="M60.62,50.13c3.45,1.89,7.12,3.33,10.8,4.7.53.2.33.96-.24.85-.12-.02-.23-.05-.35-.07-.56-.11-.32-.96.24-.85.12.02.23.05.35.07-.08.28-.16.57-.24.85-3.75-1.4-7.5-2.87-11.01-4.79-.5-.27-.05-1.04.45-.76h0Z"/>
        <path class="cls-6" d="M46.92,74.38c-1.95-.42-3.93-.72-5.92-.9-.49-.04-.97-.08-1.46-.11-.23-.01-.46-.03-.69-.04.09,0,.05-.16.04.08,0,.14-.03.29-.05.43-.11,1.01-.22,2.02-.32,3.03-.06.56-.95.56-.89,0,.12-1.15.24-2.31.37-3.46.05-.41.12-.83.59-.94.52-.12,1.19.03,1.72.07,2.3.17,4.59.5,6.84.98.56.12.32.97-.24.85h0Z"/>
        <path class="cls-6" d="M47.64,73.92c-.07,1.5-.16,3-.28,4.5-.02.22-.19.47-.44.44-2.95-.34-5.87-.83-8.76-1.47-.56-.12-.32-.97.24-.85,2.82.62,5.66,1.11,8.53,1.44-.15.15-.3.29-.44.44.12-1.5.22-3,.28-4.5.02-.57.91-.57.89,0h0Z"/>
        <path class="cls-6" d="M51.28,64.16c2.14,3.64,3.88,7.49,5.3,11.46,1.43,3.99,2.46,8.08,3.41,12.21.58,2.53,1.17,5.07,1.75,7.6.13.55-.73.79-.86.23-1.94-8.4-3.62-16.89-7.16-24.82-.95-2.14-2.02-4.22-3.21-6.24-.29-.49.48-.94.77-.45h0Z"/>
        <path class="cls-6" d="M58.69,53.91c1.91,5.07,3.08,10.38,3.75,15.75.69,5.51.85,11.08.68,16.63-.1,3.04-.3,6.09-.58,9.12-.05.56-.94.57-.89,0,.5-5.4.75-10.83.6-16.26-.15-5.46-.69-10.93-1.86-16.28-.65-2.96-1.49-5.88-2.56-8.72-.2-.53.66-.76.86-.23h0Z"/>
        <path class="cls-6" d="M59.63,49.48c2.62,2.01,5.17,4.12,7.85,6.05.24.17.29.46.09.69-1.46,1.66-2.67,3.5-3.62,5.49-.25.51-1.01.07-.77-.45.99-2.05,2.25-3.95,3.76-5.67.03.23.06.46.09.69-2.74-1.98-5.35-4.13-8.03-6.19-.45-.35.18-.97.63-.62h0Z"/>
        <path class="cls-6" d="M64.5,59.88c1.21.84,2.39,1.73,3.54,2.67.27.22.53.44.79.67.25.21.56.43.75.7.37.54,0,1.16-.18,1.7-.97,2.85-1.63,5.8-1.97,8.79-.06.56-.95.56-.89,0,.31-2.72.86-5.42,1.68-8.03.1-.3.19-.61.3-.91.06-.17.11-.33.17-.49.04-.11.18-.35.16-.47-.04-.26-.46-.5-.65-.66-.26-.22-.53-.45-.79-.67-1.08-.89-2.2-1.73-3.36-2.53-.46-.32-.02-1.09.45-.76h0Z"/>
        <path class="cls-6" d="M71.7,55.21c.55,1.01,1.01,2.06,1.32,3.16.31,1.11.47,2.25.59,3.39.06.56-.83.56-.89,0-.22-2.16-.74-4.19-1.78-6.11-.27-.5.49-.95.77-.45h0Z"/>
        <path class="cls-6" d="M71.45,54.8c2.24-.53,3.74,2.09,4.82,3.59,1.4,1.95,2.71,3.96,3.98,6,2.51,4.03,4.85,8.17,7.45,12.14,1.48,2.26,3.05,4.48,4.77,6.57.36.44-.27,1.06-.63.62-5.87-7.14-9.91-15.49-15.09-23.1-.73-1.07-1.48-2.12-2.26-3.15-.63-.83-1.6-2.1-2.81-1.82-.56.13-.79-.72-.24-.85h0Z"/>
        <path class="cls-6" d="M74.41,68.46c1.94,7.28-.7,14.67-1.67,21.88-.27,2.05-.41,4.11-.28,6.18.04.57-.85.56-.89,0-.47-7.37,2.43-14.43,2.63-21.75.06-2.05-.12-4.09-.65-6.07-.15-.55.71-.78.86-.23h0Z"/>
        <path class="cls-6" d="M66.99,96.09c1.71.01,3.42.17,5.11.48.31.06.45.54.2.74-1.8,1.39-2.84,3.57-3.31,5.75-.23,1.08-.35,2.27-.17,3.36.1.61.35,1.25.91,1.59.46.28,1.19.22,1.4-.35.29.08.57.16.86.23-.31.74-.63,1.48-.94,2.22-.09.22-.29.37-.55.31-1.29-.33-2.73-.13-4.05-.1-1.4.04-2.8.08-4.2.11-.57.02-.57-.87,0-.88,1.46-.04,2.92-.08,4.38-.12,1.35-.04,2.78-.2,4.11.13-.18.1-.36.21-.55.31.31-.74.63-1.48.94-2.22.21-.51,1.05-.31.86.23-.37,1.04-1.55,1.43-2.53.97-1.12-.53-1.49-1.79-1.57-2.93-.15-2.19.42-4.48,1.45-6.41.58-1.09,1.36-2.09,2.34-2.84l.2.74c-1.61-.29-3.23-.44-4.87-.45-.57,0-.57-.89,0-.88h0Z"/>
        <path class="cls-6" d="M71.84,96.7c3.97.3,7.96.33,11.93.09.57-.03.57.85,0,.88-3.97.24-7.96.21-11.93-.09-.57-.04-.57-.92,0-.88h0Z"/>
        <path class="cls-6" d="M97.61,92.82c-1.15-.33-2.4.48-3.41.94-1.16.52-2.32,1.05-3.48,1.57-2.14.96-4.29,1.96-6.61,2.4-.56.11-.8-.74-.24-.85,2.48-.47,4.77-1.58,7.06-2.61,1.21-.55,2.43-1.1,3.64-1.65,1.03-.47,2.12-.99,3.27-.65.55.16.31,1.01-.24.85h0Z"/>
        <path class="cls-6" d="M97.07,94.53c3,.33,5.96.27,8.96.05.57-.04,1.1.05,1.52.47.48.48.83,1.14,1.21,1.69.86,1.24,1.71,2.48,2.57,3.72.32.47-.45.91-.77.45-.79-1.14-1.58-2.28-2.36-3.43-.38-.55-.74-1.13-1.15-1.66-.43-.55-1.1-.36-1.71-.3-2.75.23-5.52.19-8.27-.11-.56-.06-.57-.94,0-.88h0Z"/>
        <path class="cls-6" d="M111.4,100.69c.53,1.12,1.1,2.23,1.59,3.37.2.47.18,1-.28,1.31-.4.27-.93.29-1.39.21-1.01-.18-1.82-.95-2.41-1.74-.35-.46-.65-.96-.91-1.48-.12-.24-.22-.48-.32-.73-.11-.27-.15-.4-.43-.52-1.01-.43-1.76-1.3-2.05-2.35-.15-.55.71-.78.86-.23.13.49.38.91.75,1.26.17.16.36.3.56.41.22.12.47.18.66.34.43.34.55,1.02.79,1.49.26.51.56,1.01.92,1.46.32.4.71.77,1.17,1.02.23.12.48.21.74.23.12,0,.54.04.6-.13.02-.05-.07-.22-.09-.26-.07-.17-.16-.33-.23-.49-.14-.29-.27-.58-.41-.87-.29-.62-.58-1.24-.88-1.86-.24-.51.52-.96.77-.45h0Z"/>
        <path class="cls-6" d="M97.55,98c.96.13,1.93.26,2.89.38.84.11,1.78.1,2.49.62,1.45,1.07,2.79,2.31,4.07,3.57.65.64,1.29,1.31,1.9,1.98.23.25.49.52.53.87.04.36-.17.66-.48.82-.59.3-1.48.11-2.08-.07-.77-.23-1.48-.63-2.07-1.17-.69-.63-1.12-1.47-1.96-1.94-.8-.44-1.72-.62-2.61-.79-.56-.11-.32-.96.24-.85,1.27.25,2.6.54,3.59,1.43.55.49.91,1.15,1.48,1.63.51.44,1.13.74,1.78.9.3.07.7.18,1.01.12.19-.03.18-.04.06-.21-.13-.17-.3-.33-.45-.49-.53-.57-1.07-1.13-1.62-1.67-1.11-1.09-2.27-2.12-3.49-3.1-.33-.27-.63-.51-1.05-.6-.47-.09-.95-.13-1.42-.19-.93-.12-1.87-.25-2.8-.37-.56-.07-.57-.96,0-.88h0Z"/>
        <path class="cls-6" d="M100.78,102.39c-1.29.18-2.58.25-3.88.21-.57-.02-.57-.9,0-.88,1.22.04,2.44-.02,3.64-.18.24-.03.48.06.55.31.06.21-.07.51-.31.54h0Z"/>
        <path class="cls-6" d="M97.08,102.39c-4.29,4.2-10.73,3.99-16.17,2.66-.55-.14-.32-.99.24-.85,5.13,1.25,11.25,1.53,15.31-2.43.41-.4,1.04.22.63.62h0Z"/>
        <path class="cls-6" d="M80.96,105.02c-4.1.42-8.21.72-12.33.92-.57.03-.57-.86,0-.88,4.12-.19,8.23-.5,12.33-.92.57-.06.56.82,0,.88h0Z"/>
        <path class="cls-6" d="M72.08,105.85s-.02.11,0,.03c0,.04-.01.09-.02.13,0,.07-.02.15-.03.22-.02.16-.03.31-.04.47-.02.31-.03.63-.03.94,0,.23-.2.45-.44.44-.24-.01-.44-.19-.44-.44,0-.68.06-1.36.15-2.03.01-.1.12-.21.2-.26.1-.06.24-.08.34-.04.11.03.21.1.27.2.06.11.06.22.04.34h0Z"/>
        <path class="cls-6" d="M98.06,92.23c1.61.24,3.22.47,4.83.71.81.12,1.61.24,2.42.35.77.11,1.57.18,2.33.35.67.16,1.1.56,1.5,1.1.49.65.97,1.31,1.46,1.97.98,1.32,1.95,2.65,2.93,3.97.42.56,1.14,1.26.64,1.98-.45.67-1.28.58-1.96.37-.54-.17-.31-1.02.24-.85.28.09,1.22.34.9-.26-.21-.38-.54-.74-.81-1.09-.51-.69-1.01-1.37-1.52-2.06-.51-.69-1.01-1.37-1.52-2.06-.25-.34-.51-.69-.76-1.03-.24-.33-.47-.73-.81-.97-.33-.24-.77-.27-1.16-.33-.42-.06-.84-.12-1.25-.18-.84-.12-1.67-.24-2.51-.37-1.73-.25-3.46-.51-5.19-.76-.56-.08-.32-.93.24-.85h0Z"/>
        <path class="cls-6" d="M105.83,99.17c-.83.15-1.66.29-2.49.44-.23.04-.49-.06-.55-.31-.05-.21.07-.5.31-.54.83-.15,1.66-.29,2.49-.44.23-.04.49.06.55.31.05.21-.07.5-.31.54h0Z"/>
        <path class="cls-6" d="M112.65,95.24c1.25.31,2.52.54,3.81.65.6.05,1.2.05,1.79.1.47.04.96.14,1.31.49.83.82.22,2.04-.58,2.6-.45.32-1.01.62-1.55.71-.61.11-1.07-.15-1.61-.36-1.27-.49-2.7.05-4.02-.11-.56-.07-.57-.95,0-.88,1.25.15,2.51-.24,3.76,0,.61.12,1.19.62,1.83.45.52-.14,1.22-.51,1.52-.97.35-.53.05-.96-.51-1.04-.61-.1-1.25-.06-1.87-.11-1.39-.12-2.76-.35-4.12-.69-.55-.14-.32-.99.24-.85h0Z"/>
        <path class="cls-6" d="M121.45,93.8c-1.1-.8-2.21-1.6-3.31-2.4-.52-.38-1.05-.87-1.67-1.08-.67-.23-1.07.21-1.47.69-.83,1-1.69,1.96-2.62,2.87-.46.45-.92.9-1.41,1.31-.44.36-.89.59-1.46.48-.56-.1-.32-.95.24-.85.32.06.63-.28.84-.46.25-.23.5-.46.75-.69.49-.47.97-.95,1.44-1.44.45-.47.88-.96,1.3-1.46.37-.44.72-.95,1.25-1.22,1.15-.58,2.25.35,3.13.99,1.15.84,2.3,1.67,3.45,2.51.46.33.01,1.1-.45.76h0Z"/>
        <path class="cls-6" d="M120.89,96.39c-.45-.12-.87-.32-1.25-.59-.37-.25-.7-.55-1.07-.79-.8-.52-1.75-.75-2.58-1.22-.5-.28-.05-1.04.45-.76.81.46,1.72.69,2.51,1.17.74.45,1.32,1.09,2.18,1.33.55.15.32,1-.24.85h0Z"/>
        <path class="cls-6" d="M117.91,89.6c.95-.14,1.77.31,2.6.7.88.41,1.75.81,2.63,1.22.22.1.27.41.16.6-.13.22-.39.26-.61.16l-2.36-1.1c-.37-.17-.73-.35-1.11-.51-.33-.14-.71-.28-1.08-.23-.24.03-.48-.06-.55-.31-.06-.21.07-.51.31-.54h0Z"/>
        <path class="cls-6" d="M117.78,94.56c-.29.35-.7.53-1.08.76-.04.02-.08.05-.12.08-.02.01-.04.03-.06.05-.04.03.08-.06.02-.01-.08.07-.15.14-.22.22-.05.06.04-.06.02-.02-.01.02-.03.04-.04.06-.01.02-.02.04-.03.05,0,.01-.02.03-.02.04,0-.02.02-.04.03-.06-.01.05-.03.09-.04.14-.02.08,0-.11,0-.02,0,.02,0,.05,0,.07,0,.23-.21.45-.44.44-.24-.01-.44-.19-.44-.44,0-.56.37-.99.81-1.29.18-.12.37-.22.56-.33.05-.03.09-.06.14-.08.04-.03.09-.08.13-.09-.05.04-.06.05-.03.02.01,0,.02-.02.03-.03.02-.02.04-.04.06-.05.04-.04.08-.08.12-.13.15-.18.48-.16.63,0,.18.19.16.43,0,.62h0Z"/>
        <path class="cls-6" d="M118.03,100.16c-1.39.89-3.06,1.32-4.71,1.21-.24-.02-.44-.19-.44-.44,0-.23.2-.46.44-.44,1.51.1,3-.27,4.27-1.09.48-.31.93.45.45.76h0Z"/>
        <path class="cls-6" d="M105.76,94.13c-1.19-.58-2.38-1.16-3.56-1.74-.48-.23-1.11-.73-1.64-.51-.61.25-1.19.6-1.77.91-.5.27-.95-.49-.45-.76.64-.35,1.3-.74,1.98-1,.67-.26,1.21.06,1.81.35,1.36.66,2.72,1.33,4.08,1.99.51.25.06,1.01-.45.76h0Z"/>
        <path class="cls-6" d="M102.85,92.44c-.4-.49-.83-.95-1.29-1.38-.42-.39-.98-1.01-1.55-1.17-.31-.09-.69.04-1,.1-.34.06-.67.12-1.01.18-.7.13-1.39.29-2.07.48-2.31.66-4.56,1.93-5.54,4.22-.22.52-.99.07-.77-.45,1.08-2.54,3.67-3.96,6.23-4.67.74-.2,1.49-.36,2.24-.5.66-.12,1.48-.4,2.14-.22.64.18,1.22.75,1.71,1.18.55.49,1.06,1.02,1.53,1.59.36.44-.26,1.06-.63.62h0Z"/>
        <path class="cls-6" d="M92.26,83.27c.57.05,1.22.03,1.78.18.46.12.63.52.62.96,0,1.18,1.05,1.67,1.99,2.14,1.06.53,2.13,1.07,3.19,1.6.42.21.98.39,1.22.82.24.41.1.88-.27,1.14-.47.33-.91-.44-.45-.76-.1.07-.08.03-.21-.05-.07-.05-.16-.08-.24-.12-.22-.11-.44-.22-.65-.33-.44-.22-.87-.44-1.31-.66-.85-.43-1.72-.82-2.54-1.29-.67-.39-1.26-.91-1.52-1.65-.06-.17-.09-.36-.11-.54,0-.11.03-.4-.02-.44-.09-.06-.52-.03-.67-.04-.27-.03-.55-.05-.82-.08-.56-.05-.57-.94,0-.88h0Z"/>
        <path class="cls-6" d="M92.22,88.11c-1.5.3-2.65,1.42-3.54,2.59-.97,1.27-1.83,2.86-1.57,4.51.09.56-.77.79-.86.23-.3-1.91.52-3.69,1.66-5.19,1.03-1.35,2.34-2.65,4.07-3,.56-.11.8.74.24.85h0Z"/>
        <path class="cls-6" d="M73.7,84.33c1.73,2.27,3.54,4.47,5.52,6.53,1,1.04,2.07,1.99,3.09,3,.48.47.91.98,1.3,1.53.36.5.7.98,1.28,1.23.52.23.07.99-.45.76-.58-.25-.98-.71-1.35-1.21-.41-.55-.8-1.08-1.28-1.57-1.05-1.06-2.17-2.04-3.21-3.12-2.03-2.11-3.88-4.38-5.66-6.71-.35-.45.43-.89.77-.45h0Z"/>
        <path class="cls-6" d="M161.7,60.66c.25-.12.17-.52.02-.71-.26-.3-.77-.3-1.14-.33-.18-.01-.36-.02-.54-.04-.61-.05-1.21-.1-1.82-.15-1.97-.17-3.94-.36-5.91-.54-4.6-.43-9.21-.88-13.81-1.3-1.4-.13-2.81-.28-4.21-.36-.57-.03-.57-.91,0-.88,3.58.2,7.16.63,10.73.97,4.53.43,9.06.87,13.6,1.27.61.05,1.23.11,1.84.15.7.05,1.46.09,1.95.67.48.57.48,1.66-.26,2.02-.51.25-.96-.51-.45-.76h0Z"/>
        <path class="cls-6" d="M134.23,57.26c-1.01-.14-1.52,1.22-1.72,1.96-.11.4-.2.81-.3,1.22-.07.26-.14.52-.21.79-.29,1.04-.58,2.08-.87,3.12-1.01,3.61-2.03,7.22-3.05,10.83-1.27,4.49-2.54,8.99-3.83,13.48-1.14,4.01-2.29,8.01-3.46,12.01-.63,2.15-1.19,4.33-1.94,6.44-.02.07-.05.14-.08.2-.22.52-1.08.29-.86-.23.24-.57.4-1.19.58-1.79.39-1.28.77-2.57,1.15-3.86,1.15-3.95,2.29-7.9,3.42-11.85,1.3-4.56,2.6-9.12,3.89-13.69,1.06-3.76,2.12-7.52,3.17-11.28.32-1.14.64-2.28.95-3.42.35-1.28.5-2.79,1.31-3.85.51-.67,1.23-1.06,2.08-.95.56.08.32.93-.24.85h0Z"/>
        <path class="cls-6" d="M162.48,61.13c-.5,1.44-.93,2.9-1.39,4.35-.97,3.06-1.93,6.13-2.89,9.19-1.13,3.63-2.26,7.26-3.39,10.9-.99,3.2-1.97,6.41-2.93,9.62-.51,1.72-1.09,3.45-1.48,5.21-.02.1-.03.22-.02.08-.06.56-.95.57-.89,0,.05-.51.22-1.01.36-1.49.28-1,.57-2,.86-2.99.91-3.07,1.85-6.14,2.79-9.2,1.13-3.66,2.26-7.33,3.41-10.99,1-3.2,2-6.39,3.01-9.59.54-1.72,1.06-3.45,1.64-5.15.02-.06.04-.11.06-.17.18-.53,1.04-.3.86.23h0Z"/>
        <path class="cls-6" d="M150.16,100.82c-.51,1.2-1.74,1.38-2.89,1.59-.57.1-1.13.21-1.7.32-2.18.42-4.35.84-6.53,1.27-5.39,1.06-10.79,2.11-16.17,3.24-.99.21-1.99.42-2.98.64-.31.07-.61.14-.91.22-.1.02-.19.05-.29.08-.06.02-.26.1-.06.01-.52.23-.97-.53-.45-.76.36-.16.77-.23,1.15-.32.77-.18,1.54-.34,2.31-.5,2.42-.51,4.84-1,7.26-1.49,5.15-1.03,10.3-2.05,15.46-3.04.78-.15,1.55-.3,2.33-.45.85-.16,2.23-.16,2.61-1.04.22-.52,1.08-.29.86.23h0Z"/>
        <path class="cls-6" d="M149.24,101.44c.42.62.19,1.68-.53,1.98-.12.05-.25.08-.38.11-.63.16-1.27.3-1.91.44-2.34.51-4.68.99-7.03,1.47-5.61,1.15-11.23,2.28-16.85,3.4-1.38.27-2.75.56-4.13.82-.56.1-.8-.75-.24-.85,3.52-.66,7.03-1.4,10.55-2.1,5.41-1.09,10.82-2.17,16.21-3.32.88-.19,1.76-.38,2.64-.58.24-.06.48-.11.71-.18.06-.02.12-.03.17-.05.06-.03-.09.08-.06.02.15-.24.27-.45.08-.71-.32-.47.45-.91.77-.45h0Z"/>
        <path class="cls-6" d="M118.16,109.95c-8.67-.25-17.33-.68-25.98-1.36-1.16-.09-2.33-.2-3.48-.36-.59-.08-1.17-.17-1.75-.29-.57-.11-1.09-.31-1.63-.49-.21-.07-.3-.22-.33-.43-.05-.46-.05-.91-.06-1.37,0-.57.88-.57.89,0,0,.46,0,.91.06,1.37-.11-.14-.22-.28-.33-.43.46.15.9.34,1.37.44.52.11,1.05.2,1.58.28,1.05.16,2.1.26,3.15.35,2.11.18,4.23.32,6.34.46,4.28.28,8.57.51,12.86.69,2.43.1,4.87.19,7.3.25.57.02.57.9,0,.88h0Z"/>
        <path class="cls-6" d="M116.12,108.18c-7.3-.2-14.59-.67-21.86-1.42-.56-.06-.57-.94,0-.88,7.26.75,14.56,1.22,21.86,1.42.57.02.57.9,0,.88h0Z"/>
        <path class="cls-6" d="M120.21,100.27c-.72-.05-1.44-.1-2.16-.15-.23-.02-.46-.19-.44-.44.01-.22.2-.46.44-.44.72.05,1.44.1,2.16.15.23.02.46.19.44.44-.01.22-.2.46-.44.44h0Z"/>
        <path class="cls-6" d="M120.57,99.18c-.44.04-.88.09-1.32.13-.11.01-.24-.06-.31-.13-.08-.08-.14-.2-.13-.31,0-.11.04-.23.13-.31.09-.08.19-.12.31-.13.44-.04.88-.09,1.32-.13.11-.01.24.06.31.13.08.08.14.2.13.31,0,.11-.04.23-.13.31-.09.08-.19.12-.31.13h0Z"/>
        <path class="cls-6" d="M21.65,94.33c.66,3.49,1.67,6.91,2.22,10.42.14.9.19,1.78.04,2.68-.15.87-.46,1.71-.74,2.55-.38,1.14-.76,2.28-1.15,3.42-.18.54-1.04.31-.86-.23.37-1.09.73-2.19,1.1-3.29.28-.83.59-1.66.76-2.53.18-.91.09-1.83-.07-2.73-.59-3.38-1.52-6.69-2.16-10.07-.1-.55.75-.79.86-.23h0Z"/>
        <path class="cls-6" d="M46.33,110.63c-1.92.1-3.83.39-5.73.66-3.13.43-6.26.91-9.39,1.4-7.21,1.12-14.41,2.31-21.61,3.45-3.01.48-6.02.96-9.04,1.39-.56.08-.8-.77-.24-.85,6.15-.87,12.27-1.91,18.4-2.9,6.93-1.12,13.86-2.25,20.8-3.23,2.25-.32,4.53-.69,6.8-.81.57-.03.57.85,0,.88h0Z"/>
        <path class="cls-6" d="M81.35,104.97c-3.15.47-6.29.96-9.43,1.45-.56.09-.8-.76-.24-.85,3.14-.5,6.29-.99,9.43-1.45.56-.08.8.77.24.85h0Z"/>
        <path class="cls-6" d="M72.71,26.71c-.26,1.06-.44,2.14-.52,3.23-.02.24-.19.44-.44.44-.23,0-.46-.2-.44-.44.09-1.17.28-2.33.55-3.47.06-.23.32-.37.55-.31.24.06.37.31.31.54h0Z"/>
        <path class="cls-6" d="M40.1,18.42c-2.85,2.03-4.14,5.61-4.75,8.9-.69,3.74-.61,7.57-1.19,11.32-.34,2.15-.79,4.29-1.09,6.45-.08.56-.93.32-.86-.23.27-1.99.68-3.95,1.01-5.93.33-1.98.48-3.96.62-5.96.26-3.69.59-7.46,2.21-10.85.83-1.75,2.01-3.33,3.6-4.47.47-.33.91.43.45.76h0Z"/>
        <path class="cls-6" d="M47.89,29.57c.43.14.67.53.69.97.02.45-.24.83-.6,1.08-.34.24-.79.36-1.2.42-.51.07-1.03.02-1.44-.32-.18-.15-.32-.37-.4-.6-.09-.27-.05-.53.06-.79.09-.21.42-.28.61-.16.22.14.26.38.16.6.02-.05.03-.05.01,0-.01.05-.01.04,0-.02,0,.03,0,.07,0,.1,0-.13.02.01.02.03.01.03,0,.02-.01-.02,0,.02.02.04.03.06.02.03.04.06.06.09-.06-.09.04.03.05.04.06.06-.06-.03.02.02.03.02.06.04.09.05-.08-.04.08.02.1.03,0,0,.14.03.06.02.11.02.22.01.32,0,0,0,.14-.02.07,0,.06,0,.12-.02.18-.03.09-.02.18-.04.27-.07.08-.02.16-.05.25-.08-.09.03.04-.02.06-.03.04-.02.08-.04.12-.07.02-.01.1-.07.04-.02.04-.03.07-.07.11-.1.06-.06-.02.05.03-.03,0-.02.05-.12.03-.06-.02.07.01-.05.02-.07.03-.09,0,.09,0,0,0-.02.01-.11,0-.12,0,.02,0,.04,0,.06,0-.02,0-.04-.01-.06-.03-.1,0-.02,0,0,0-.02-.02-.04-.03-.05-.03-.04-.02-.03.02.02,0-.01-.02-.02-.03-.03-.02-.02-.01-.01.03.02-.02-.01-.03-.02-.05-.03.06.02.07.03.02.01-.22-.07-.39-.31-.31-.54.07-.22.31-.39.55-.31h0Z"/>
      </g>
      <path class="cls-6" d="M55.47,46.88c0,.45,0,.89,0,1.34,0,.34.04.72-.08,1.05-.28.81-1.09.56-1.66.26-1.34-.69-2.78-1.21-4.01-2.09-1.18-.86-1.91-2.11-2.58-3.37-.34-.65-.66-1.3-1.03-1.93-.09-.16-.14-.27-.31-.34-.2-.08-.51-.04-.72-.05-.52,0-1.04-.02-1.55-.03-1.45-.03-3.28-.03-4.1-1.45-.28-.49.48-.94.77-.45.63,1.1,2.24.99,3.34,1.01.78.01,1.67-.09,2.44.07.63.13.89.72,1.17,1.23.63,1.15,1.16,2.36,1.93,3.42.78,1.06,1.91,1.68,3.08,2.24.68.33,1.37.63,2.03.97.06.03.11.06.17.09.15.07.18.12.23-.03.05-.14,0-.38,0-.53,0-.47,0-.95,0-1.42,0-.57.89-.57.89,0h0Z"/>
      <path class="cls-6" d="M57.93,43.68c.56.72,1.13,1.44,1.69,2.16.47.6.87,1.17.62,1.96-.24.77-.8,1.4-1.05,2.16-.13.4-.19.85,0,1.24.13.3.37.56.53.84.22.37.34.76.11,1.15-.26.46-.8.86-1.26,1.11-1.14.62-2.61.68-3.84.31-.55-.17-.31-1.02.24-.85,1.02.31,2.27.29,3.21-.25.2-.12.89-.54.89-.8,0-.09-.15-.28-.2-.36-.16-.26-.35-.5-.48-.78-.57-1.21.17-2.41.73-3.46.19-.35.41-.72.25-1.12-.13-.31-.4-.57-.6-.83-.49-.62-.98-1.25-1.47-1.87-.35-.44.28-1.07.63-.62h0Z"/>
      <path class="cls-6" d="M48.14,47.36c1.87,2.01,4.76,2.95,6.2,5.37.8,1.33,1.03,2.9,1.19,4.42.19,1.8.28,3.62.27,5.43-.01,2.05-.16,4.1-.42,6.14-.06.44-.55.59-.83.22-2.51-3.32-5.5-6.17-8.81-8.71-1.51-1.16-3.02-2.35-4.11-3.93-1.01-1.46-1.53-3.22-1.59-4.98-.06-1.99.5-4,1.65-5.64.32-.46,1.09-.02.77.45-2,2.86-2.05,6.85-.06,9.74,1.06,1.54,2.59,2.69,4.06,3.82,1.53,1.18,3.02,2.41,4.4,3.75,1.61,1.57,3.1,3.27,4.45,5.06-.28.07-.55.15-.83.22.45-3.45.55-6.95.27-10.42-.13-1.55-.24-3.22-.92-4.65-.6-1.26-1.66-2.15-2.79-2.94-1.22-.85-2.51-1.63-3.54-2.73-.39-.42.24-1.04.63-.62h0Z"/>
      <path class="cls-6" d="M41.82,47.11c-.75,1.07-1.18,2.31-1.87,3.42-.63,1-1.48,1.83-2.46,2.51-2.21,1.52-4.9,2.09-7.49,2.61-.51.1-.74-.51-.34-.81,1.11-.81.66-2.54.61-3.67-.06-1.4.42-2.74.9-4.04.75-2.01,1.8-4.19,3.93-5.03,1.53-.6,3.21-.26,4.76.09.56.12.32.98-.24.85-1.67-.37-3.5-.73-5.01.31-1.13.78-1.81,2.1-2.32,3.33-.63,1.54-1.24,3.14-1.11,4.83.11,1.47.27,3.1-1.07,4.09-.11-.27-.23-.54-.34-.81,2.47-.5,5.03-1.02,7.16-2.44.97-.65,1.79-1.47,2.38-2.47.62-1.05,1.04-2.21,1.75-3.22.32-.46,1.09-.02.77.45h0Z"/>
      <path class="cls-6" d="M40.8,43.39c-2.77-.09-4.67,2.25-6.19,4.22-.15.19-.38.29-.61.16-.19-.11-.31-.42-.16-.6,1.72-2.22,3.84-4.76,6.96-4.66.57.02.57.9,0,.88h0Z"/>
      <path class="cls-6" d="M46.92,47.47c-.42-1.05-.99-2.05-1.67-2.97-.08-.11-.16-.21-.24-.32-.02-.02-.25-.27-.25-.29-.02.06.2.01.2.01,0,0-.05.07-.06.09-.07.12-.12.25-.18.37-.23.53-.38,1.1-.46,1.68-.04.24-.34.37-.55.31-.25-.07-.35-.31-.31-.54.11-.7.32-1.38.61-2.02.14-.31.33-.64.68-.72.43-.1.71.21.95.51.88,1.11,1.59,2.33,2.12,3.65.09.22-.1.48-.31.54-.25.07-.46-.09-.55-.31h0Z"/>
      <path class="cls-6" d="M35.27,53.78c2.38.75,4.58,1.96,6.48,3.56.44.37-.19.99-.63.62-1.78-1.5-3.86-2.63-6.09-3.33-.54-.17-.31-1.02.24-.85h0Z"/>
      <path class="cls-6" d="M40.97,57.12c-.73,1.45-1.57,2.84-2.51,4.17-.05-.2-.11-.4-.16-.6,1.34.93,2.67,1.87,4.01,2.8,1.21.85,2.4,1.68,3.52,2.65,1.42,1.23,2.74,2.59,3.93,4.04,1.36,1.67,2.56,3.45,3.58,5.35.27.5-.5.95-.77.45-1.76-3.28-4.08-6.25-6.85-8.75-1.81-1.64-3.86-2.97-5.86-4.37-.67-.47-1.34-.94-2.01-1.41-.18-.13-.31-.4-.16-.6.94-1.33,1.78-2.72,2.51-4.17.26-.51,1.02-.06.77.45h0Z"/>
    </g>
    <g>
      <path class="cls-7" d="M198.72,40.66c-2.43.12-4.58-.15-6.46-.79-1.88-.64-3.35-1.6-4.41-2.89s-1.59-2.85-1.59-4.69c0-1.19.25-2.29.74-3.29.49-1,1.17-1.9,2.03-2.69-1.56.33-3.09.68-4.59,1.05-1.49.37-2.84.75-4.04,1.12s-2.17.74-2.89,1.08l-1.54-3.92c.28-.05.7-.13,1.26-.25.56-.12,1.33-.28,2.31-.49.89-.19,1.87-.65,2.94-1.4,1.07-.75,2.16-1.64,3.27-2.68,1.11-1.04,2.14-2.12,3.1-3.25s1.75-2.19,2.38-3.17c-.91.21-1.9.42-2.96.63s-2.08.39-3.04.53-1.78.23-2.43.28l-1.22-3.89c.86,0,1.88-.05,3.04-.16,1.17-.1,2.34-.24,3.54-.4,1.19-.16,2.29-.36,3.29-.59,1-.23,1.79-.47,2.35-.7l3.5,2.24c-.49,1-1.19,2.15-2.1,3.43s-1.97,2.57-3.17,3.85c-1.2,1.28-2.51,2.47-3.94,3.57,1.84-.37,3.66-.75,5.44-1.12,1.79-.37,3.37-.71,4.76-1,1.39-.29,2.41-.5,3.06-.61l.66,4.06c-.44,0-.98.02-1.61.07-.63.05-1.32.13-2.07.25-1.35.16-2.62.54-3.8,1.14-1.18.6-2.13,1.41-2.87,2.43-.74,1.03-1.1,2.26-1.1,3.71,0,1.05.41,1.91,1.23,2.59.82.68,1.95,1.15,3.4,1.42,1.45.27,3.09.33,4.93.19-.37.58-.69,1.31-.94,2.17-.26.86-.41,1.59-.46,2.17Z"/>
      <path class="cls-7" d="M227.07,39.05c-.09-.37-.27-.82-.53-1.33-.26-.51-.55-1.01-.89-1.49-.34-.48-.67-.87-1-1.17,3.2-.49,5.63-1.53,7.3-3.13,1.67-1.6,2.55-3.48,2.64-5.65.09-1.73-.22-3.27-.95-4.62-.72-1.35-1.71-2.45-2.96-3.29-1.25-.84-2.62-1.34-4.11-1.5-.19,2.17-.54,4.39-1.05,6.65-.51,2.26-1.21,4.39-2.08,6.37-.88,1.98-1.94,3.66-3.2,5.04-.96,1.03-1.88,1.62-2.78,1.79-.9.16-1.85.04-2.85-.38-.98-.42-1.84-1.08-2.59-2-.75-.91-1.32-1.99-1.71-3.24s-.56-2.58-.49-4.01c.12-2.12.62-4.07,1.51-5.83s2.08-3.28,3.57-4.57c1.49-1.28,3.21-2.25,5.14-2.91,1.94-.65,4-.92,6.2-.8,1.77.09,3.44.49,5,1.19,1.56.7,2.93,1.66,4.11,2.89,1.18,1.23,2.09,2.64,2.73,4.25.64,1.61.9,3.37.79,5.29-.16,3.2-1.28,5.87-3.36,8.03s-4.89,3.63-8.43,4.43ZM215.7,31.98c.26.19.53.28.8.28s.56-.14.84-.42c.84-.84,1.62-2.03,2.33-3.57.71-1.54,1.31-3.28,1.79-5.21.48-1.94.79-3.91.93-5.92-1.61.37-3.04,1.05-4.29,2.03-1.25.98-2.23,2.17-2.96,3.55-.72,1.39-1.13,2.91-1.22,4.57-.05,1.1.1,2.05.44,2.85.34.81.79,1.42,1.35,1.84Z"/>
      <path class="cls-7" d="M242.96,18.71v-3.22h12.32v3.22h-12.32ZM262.91,41.29v-8.12c-.96,1.21-2.03,2.36-3.2,3.45s-2.35,2.01-3.52,2.78c-.21-.3-.5-.67-.86-1.08s-.71-.79-1.03-1.12v3.22h-10.15v-10.04h10.15v5.88c.82-.51,1.66-1.12,2.52-1.84s1.7-1.47,2.5-2.28,1.5-1.59,2.08-2.36h-6.23v-3.25h7.74v-2.03h-6.62v-14.17h16.94v14.17h-6.68v2.03h8.58v3.25h-7.07c.65.82,1.43,1.64,2.33,2.47.9.83,1.83,1.6,2.8,2.31.97.71,1.87,1.3,2.71,1.77-.23.16-.51.43-.84.79-.33.36-.65.74-.96,1.14-.31.4-.57.74-.75,1.02-1.14-.75-2.32-1.66-3.52-2.73s-2.29-2.22-3.27-3.43v8.19h-3.64ZM244.64,23.65v-3.22h9.1v3.22h-9.1ZM244.64,28.58v-3.25h9.1v3.25h-9.1ZM244.67,13.81v-3.33h9.07v3.33h-9.07ZM247.79,37.23h2.83v-3.67h-2.83v3.67ZM259.97,15.95h2.94v-2.48h-2.94v2.48ZM259.97,21.41h2.94v-2.48h-2.94v2.48ZM266.55,15.95h3.01v-2.48h-3.01v2.48ZM266.55,21.41h3.01v-2.48h-3.01v2.48Z"/>
      <path class="cls-7" d="M279.99,41.11c-.47-.26-1.03-.53-1.7-.82-.67-.29-1.24-.48-1.73-.58.65-1,1.23-2.19,1.73-3.57s.9-2.78,1.21-4.22c.3-1.43.47-2.72.49-3.87l3.61.52c-.12,1.24-.29,2.44-.53,3.61.28.3.56.59.84.86.28.27.57.53.88.79v-6.89h-6.82v-3.29h15.4v3.29h-4.93v2.42h4.41v3.18h-4.41v3.36c.84.3,1.77.56,2.8.77,1.03.21,2.18.35,3.47.42-.26-.4-.59-.86-1-1.38-.41-.53-.78-.92-1.1-1.17.49-.21,1.04-.5,1.66-.86.62-.36,1.23-.76,1.84-1.19.61-.43,1.14-.85,1.61-1.24h-3.15v-15.82h4.02c.09-.3.2-.64.32-1,.12-.36.22-.69.31-1h-5.95v-3.08h15.89v3.08h-5.99c-.09.3-.19.64-.3,1-.11.36-.22.69-.33,1h5.53v15.82h-3.15c.68.56,1.48,1.14,2.4,1.75.92.61,1.74,1.07,2.47,1.4-.33.3-.7.72-1.1,1.24-.41.53-.74.99-1,1.38.49-.02.92-.04,1.29-.05.37-.01.65-.03.84-.05-.12.28-.25.66-.38,1.14-.14.48-.27.96-.38,1.45-.12.49-.2.9-.25,1.23h-11.06c-2.47,0-4.65-.16-6.53-.49-1.88-.33-3.55-.85-5-1.56-1.46-.71-2.79-1.65-4.01-2.82-.28.93-.6,1.84-.96,2.73-.36.89-.78,1.73-1.24,2.52ZM279.75,22.11v-11.76h12.25v11.76h-12.25ZM283.42,14.97h4.87v-1.82h-4.87v1.82ZM283.42,19.34h4.87v-1.86h-4.87v1.86ZM297.74,37.19c.86,0,1.83,0,2.91-.02,1.07-.01,2.15-.03,3.24-.05,1.08-.02,2.07-.05,2.96-.07-.54-.33-1.12-.71-1.75-1.14-.63-.43-1.23-.88-1.79-1.35-.56-.47-1.03-.89-1.4-1.26l2.06-2.07h-5.35l2.03,2.07c-.35.37-.82.8-1.42,1.28-.59.48-1.22.94-1.89,1.38s-1.28.83-1.84,1.15c.35.02.72.04,1.1.05s.76.02,1.14.02ZM298.26,20.01h6.12v-1.75h-6.12v1.75ZM298.26,24.21h6.12v-1.78h-6.12v1.78ZM298.26,28.37h6.12v-1.78h-6.12v1.78Z"/>
      <path class="cls-7" d="M322.94,41.15c-.28-.47-.65-1.03-1.12-1.68-.47-.65-1-1.21-1.61-1.68,2.47-.7,4.38-1.51,5.71-2.43,1.33-.92,2.25-2.01,2.77-3.27-.75.37-1.49.56-2.24.56-1.77,0-3.2-.5-4.29-1.5s-1.66-2.36-1.73-4.06c-.05-1.17.19-2.21.7-3.13.51-.92,1.24-1.65,2.17-2.19s2-.81,3.19-.81c.19,0,.35,0,.49.02.14.01.29.03.46.05-.05-.42-.09-.85-.14-1.29s-.07-.91-.07-1.4c-1.89.07-3.73.17-5.53.32-1.8.14-3.44.3-4.94.47-1.49.17-2.73.38-3.71.61l-.59-4.06c.84-.07,2.02-.15,3.54-.23,1.52-.08,3.25-.17,5.2-.26,1.95-.09,3.96-.19,6.04-.28v-4.93h4.06v4.76c1.82-.07,3.56-.13,5.21-.19,1.66-.06,3.14-.11,4.45-.14s2.33-.04,3.08-.02l-.28,4.1c-1.35-.16-3.14-.26-5.37-.3-2.23-.04-4.59-.03-7.09.02,0,.84.03,1.69.09,2.55.06.86.11,1.69.16,2.49,1.14,1.35,1.71,3.15,1.71,5.39,0,3.1-.9,5.71-2.69,7.82-1.8,2.11-4.33,3.68-7.59,4.71ZM326.47,29.14c.65-.05,1.17-.27,1.54-.67s.56-.91.56-1.54c0-.21-.02-.44-.05-.68s-.08-.51-.12-.79c-.49-.56-1.11-.84-1.85-.84-.65,0-1.2.21-1.65.63s-.65.96-.63,1.61c0,.68.2,1.23.61,1.66.41.43.94.64,1.59.61Z"/>
      <path class="cls-7" d="M376.35,34.46c-.77-.42-1.7-.98-2.78-1.68-1.08-.7-2.24-1.48-3.46-2.33s-2.45-1.73-3.66-2.62-2.34-1.77-3.39-2.61-1.93-1.58-2.62-2.21c-.35-.33-.62-.49-.8-.49s-.44.14-.77.42c-.72.68-1.56,1.41-2.52,2.19-.96.78-1.94,1.56-2.96,2.33-1.01.77-2,1.48-2.96,2.13l-3.29-3.61c.7-.33,1.55-.78,2.56-1.37,1-.58,2.04-1.23,3.1-1.94,1.06-.71,2.06-1.42,2.99-2.13.93-.71,1.69-1.36,2.28-1.94.58-.61,1.12-.89,1.63-.84s1.08.35,1.73.91c.54.44,1.34,1.07,2.4,1.87,1.06.8,2.27,1.69,3.62,2.64,1.35.96,2.75,1.91,4.18,2.85,1.43.95,2.81,1.8,4.13,2.57,1.32.77,2.47,1.35,3.45,1.75-.33.26-.68.64-1.07,1.14-.38.5-.74,1.02-1.07,1.56-.33.54-.56,1-.7,1.4ZM370.88,20.57c-.51-.68-1.17-1.4-1.96-2.17-.79-.77-1.51-1.38-2.13-1.82l1.78-1.71c.37.26.83.64,1.37,1.14s1.07,1.01,1.59,1.52c.52.51.93.95,1.21,1.29l-1.86,1.75ZM373.82,17.66c-.51-.68-1.18-1.39-1.99-2.15-.82-.76-1.54-1.36-2.17-1.8l1.79-1.68c.37.26.83.62,1.37,1.1.54.48,1.07.97,1.61,1.49.54.51.95.95,1.22,1.29l-1.82,1.75Z"/>
      <path class="cls-7" d="M405.92,40.1c-2.43-.28-4.57-.99-6.44-2.12-1.87-1.13-3.32-2.61-4.38-4.44s-1.57-3.91-1.57-6.25c0-1.68.41-3.39,1.22-5.13.82-1.74,2.02-3.28,3.61-4.64-1.87.3-3.72.62-5.57.96-1.84.34-3.52.66-5.02.96-1.51.3-2.67.57-3.48.8l-.95-4.55c.77-.05,1.84-.15,3.2-.31,1.36-.16,2.9-.37,4.62-.61,1.71-.25,3.49-.51,5.32-.81,1.83-.29,3.61-.59,5.32-.89,1.71-.3,3.25-.6,4.62-.89,1.37-.29,2.43-.55,3.2-.79l1.12,4.27c-.35.02-.79.08-1.31.16s-1.12.17-1.8.26c-1.26.16-2.48.56-3.66,1.19-1.18.63-2.23,1.44-3.15,2.43-.92.99-1.65,2.13-2.19,3.41-.54,1.28-.8,2.67-.8,4.17,0,1.77.46,3.25,1.37,4.45s2.15,2.12,3.73,2.78c1.58.67,3.34,1.12,5.3,1.35-.35.37-.69.82-1.02,1.35s-.61,1.05-.84,1.58c-.23.52-.38.96-.46,1.31Z"/>
      <path class="cls-7" d="M176.5,112.03v-33.67h7.07l.49,4.06c.65-1.4,1.75-2.57,3.29-3.5,1.54-.93,3.31-1.4,5.32-1.4,2.19,0,4.11.51,5.74,1.54,1.63,1.03,2.89,2.5,3.78,4.41.88-1.73,2.18-3.15,3.88-4.27,1.7-1.12,3.65-1.68,5.84-1.68,3.31,0,5.99,1.15,8.01,3.46,2.03,2.31,3.04,5.56,3.04,9.76v21.28h-7.98v-19.46c0-2.47-.44-4.41-1.33-5.81-.89-1.4-2.12-2.1-3.71-2.1-2.01,0-3.56.72-4.65,2.17-1.1,1.45-1.65,3.5-1.65,6.16v19.04h-7.91v-19.46c0-2.47-.47-4.41-1.4-5.81-.93-1.4-2.2-2.1-3.78-2.1-1.96,0-3.48.74-4.55,2.21-1.07,1.47-1.61,3.51-1.61,6.12v19.04h-7.91Z"/>
      <path class="cls-7" d="M235.79,72.83c-1.36,0-2.52-.49-3.5-1.47s-1.47-2.15-1.47-3.5.49-2.52,1.47-3.5c.98-.98,2.14-1.47,3.5-1.47s2.52.49,3.5,1.47,1.47,2.15,1.47,3.5-.49,2.52-1.47,3.5c-.98.98-2.15,1.47-3.5,1.47ZM231.93,112.03v-33.67h7.84v33.67h-7.84Z"/>
      <path class="cls-7" d="M248.59,112.03v-33.67h7.07l.42,3.99c.93-1.31,2.17-2.44,3.71-3.4,1.54-.96,3.36-1.43,5.46-1.43,3.5,0,6.36,1.12,8.58,3.36,2.22,2.24,3.33,5.53,3.33,9.87v21.28h-7.91v-19.39c0-2.66-.54-4.66-1.61-5.99-1.07-1.33-2.52-2-4.34-2-2.01,0-3.64.69-4.9,2.07-1.26,1.38-1.89,3.42-1.89,6.12v19.18h-7.91Z"/>
      <path class="cls-7" d="M298.85,112.8c-3.31,0-5.85-.61-7.6-1.82s-2.62-3.64-2.62-7.28v-18.55h-6.44v-6.79h6.44v-11.83h7.84v11.83h9.31v6.79h-9.31v16.52c0,1.59.38,2.66,1.16,3.22.77.56,1.88.84,3.32.84.89,0,1.79-.14,2.7-.42.91-.28,1.62-.56,2.13-.84v7.21c-.84.33-1.89.59-3.15.8-1.26.21-2.52.31-3.78.31Z"/>
      <path class="cls-7" d="M325.8,112.8c-3.08,0-5.84-.73-8.29-2.2-2.45-1.47-4.39-3.52-5.81-6.16-1.42-2.64-2.13-5.73-2.13-9.28s.71-6.64,2.13-9.27c1.42-2.64,3.36-4.69,5.81-6.16,2.45-1.47,5.22-2.21,8.29-2.21s5.99.73,8.44,2.21c2.45,1.47,4.38,3.52,5.78,6.16s2.1,5.73,2.1,9.27-.7,6.64-2.1,9.28c-1.4,2.64-3.33,4.69-5.78,6.16-2.45,1.47-5.26,2.2-8.44,2.2ZM325.8,105.66c2.47,0,4.49-.91,6.06-2.73,1.56-1.82,2.34-4.41,2.34-7.77s-.78-5.95-2.34-7.77c-1.56-1.82-3.58-2.73-6.06-2.73s-4.41.91-5.95,2.73c-1.54,1.82-2.31,4.41-2.31,7.77s.77,5.95,2.31,7.77c1.54,1.82,3.52,2.73,5.95,2.73Z"/>
      <path class="cls-7" d="M348.2,112.03v-49.91h7.91v30.17l11.69-13.93h9.52l-13.23,15.19,14,18.48h-9.45l-12.53-17.08v17.08h-7.91Z"/>
      <path class="cls-7" d="M394.33,112.8c-3.5,0-6.36-1.12-8.58-3.36s-3.32-5.55-3.32-9.94v-21.14h7.91v19.39c0,2.57.55,4.53,1.64,5.88,1.1,1.35,2.53,2.03,4.3,2.03,2.01,0,3.64-.7,4.9-2.1,1.26-1.4,1.89-3.45,1.89-6.16v-19.04h7.91v33.67h-7.07l-.42-3.99c-.89,1.26-2.1,2.37-3.64,3.33-1.54.96-3.38,1.43-5.53,1.43Z"/>
      <path class="cls-7" d="M432.66,112.03v-18.24h-4.32v-4.61h4.32v-4.08c0-2.82.65-4.77,1.95-5.84,1.3-1.08,3.15-1.61,5.56-1.61.76,0,1.53.05,2.3.14.78.09,1.4.21,1.88.33v4.84c-.44-.16-.93-.29-1.45-.4-.52-.11-1.05-.17-1.59-.17-1.08,0-1.9.26-2.47.78-.57.52-.85,1.39-.85,2.59v3.42h6.36v4.61h-6.36v18.24h-5.32Z"/>
      <path class="cls-7" d="M457.17,112.55c-2.09,0-3.97-.5-5.63-1.5-1.66-1-2.98-2.39-3.94-4.18-.97-1.79-1.45-3.89-1.45-6.29s.48-4.5,1.45-6.29c.96-1.79,2.28-3.18,3.94-4.18,1.66-1,3.54-1.5,5.63-1.5s4.06.5,5.72,1.5c1.66,1,2.97,2.39,3.92,4.18.95,1.79,1.43,3.89,1.43,6.29s-.47,4.5-1.43,6.29c-.95,1.79-2.26,3.18-3.92,4.18-1.66,1-3.57,1.5-5.72,1.5ZM457.17,107.71c1.68,0,3.05-.62,4.11-1.85,1.06-1.24,1.59-2.99,1.59-5.27s-.53-4.04-1.59-5.27c-1.06-1.24-2.43-1.85-4.11-1.85s-2.99.62-4.04,1.85c-1.04,1.23-1.57,2.99-1.57,5.27s.52,4.04,1.57,5.27c1.04,1.23,2.39,1.85,4.04,1.85Z"/>
      <path class="cls-7" d="M472.37,112.03v-22.85h4.84l.33,3.23c.57-1.14,1.46-2.06,2.68-2.75,1.22-.7,2.51-1.05,3.87-1.05.54,0,1.03.03,1.47.1.44.06.82.14,1.14.24v5.18c-.41-.13-.89-.23-1.45-.31-.55-.08-1.2-.12-1.92-.12-1.55,0-2.88.51-3.97,1.52-1.09,1.01-1.64,2.44-1.64,4.28v12.54h-5.37Z"/>
      <path class="cls-7" d="M514.17,112.55c-1.3,0-2.49-.28-3.56-.83s-2.01-1.32-2.8-2.3l-.29,2.61h-4.65v-33.87h5.37v13.06c.76-.82,1.65-1.46,2.66-1.92s2.11-.69,3.28-.69c2.12,0,4.01.48,5.68,1.43,1.66.95,2.97,2.32,3.92,4.11.95,1.79,1.42,3.94,1.42,6.44s-.47,4.65-1.42,6.44c-.95,1.79-2.26,3.16-3.92,4.11s-3.55,1.42-5.68,1.42ZM513.98,107.71c1.68,0,3.07-.62,4.18-1.85,1.11-1.24,1.66-2.99,1.66-5.27s-.55-4.04-1.66-5.27c-1.11-1.24-2.5-1.85-4.18-1.85s-3.07.62-4.18,1.85c-1.11,1.23-1.66,2.99-1.66,5.27s.55,4.04,1.66,5.27c1.11,1.23,2.5,1.85,4.18,1.85Z"/>
      <path class="cls-7" d="M532.69,85.43c-.92,0-1.71-.33-2.38-1-.66-.67-1-1.46-1-2.38s.33-1.71,1-2.38c.67-.67,1.46-1,2.38-1s1.71.33,2.38,1c.67.67,1,1.46,1,2.38s-.33,1.71-1,2.38c-.66.67-1.46,1-2.38,1ZM530.08,112.03v-22.85h5.32v22.85h-5.32Z"/>
      <path class="cls-7" d="M539.81,112.03v-4.37l11.16-14.11h-10.59v-4.37h16.96v4.37l-11.3,14.06h11.78v4.42h-18Z"/>
      <path class="cls-7" d="M587.79,113.59c-2.77-.32-5.23-1.13-7.36-2.44-2.13-1.31-3.79-3-4.98-5.08-1.19-2.08-1.78-4.45-1.78-7.12,0-1.92.46-3.88,1.38-5.88s2.3-3.77,4.14-5.32c-2.13.35-4.26.72-6.38,1.12-2.12.4-4.04.77-5.76,1.12-1.72.35-3.05.64-3.98.88l-1.08-5.16c.88-.05,2.1-.17,3.66-.36s3.32-.42,5.28-.7c1.96-.28,3.99-.59,6.08-.92,2.09-.33,4.12-.67,6.08-1.02,1.96-.35,3.72-.69,5.28-1.02,1.56-.33,2.78-.63,3.66-.9l1.28,4.88c-.43.03-.94.08-1.54.16-.6.08-1.27.17-2.02.28-1.47.19-2.87.64-4.2,1.36-1.33.72-2.53,1.65-3.58,2.8-1.05,1.15-1.89,2.45-2.5,3.92s-.92,3.05-.92,4.76c0,2.05.52,3.76,1.56,5.12,1.04,1.36,2.46,2.42,4.26,3.18,1.8.76,3.82,1.27,6.06,1.54-.4.4-.79.9-1.16,1.5-.37.6-.69,1.2-.96,1.8-.27.6-.44,1.1-.52,1.5ZM591.14,98.27c-.51-.85-1.17-1.75-2-2.68-.83-.93-1.59-1.69-2.28-2.28l2.2-1.76c.4.32.88.79,1.44,1.4.56.61,1.11,1.24,1.66,1.88.55.64.97,1.17,1.26,1.6l-2.28,1.84ZM594.74,95.23c-.51-.83-1.18-1.71-2.02-2.64-.84-.93-1.61-1.68-2.3-2.24l2.16-1.8c.4.32.89.79,1.46,1.4.57.61,1.14,1.23,1.7,1.86s.99,1.17,1.28,1.62l-2.28,1.8Z"/>
      <path class="cls-7" d="M599.22,114.99c-.35-.29-.89-.64-1.62-1.04-.73-.4-1.34-.68-1.82-.84.85-1.07,1.54-2.16,2.06-3.28s.9-2.41,1.14-3.88c.24-1.47.36-3.2.36-5.2v-9.52c-.45-.35-1.03-.76-1.72-1.24-.7-.48-1.31-.84-1.84-1.08.72-.61,1.41-1.37,2.08-2.28.67-.91,1.29-1.87,1.86-2.88.57-1.01,1.07-2,1.5-2.96.43-.96.76-1.8,1-2.52l4.48.96c-.11.29-.23.6-.38.92s-.29.65-.42,1h6.4l1.24,1.4c-.35.75-.79,1.59-1.32,2.52-.54.93-1.07,1.84-1.6,2.72h4.24v1.72c1.23-.69,2.29-1.6,3.18-2.72.89-1.12,1.53-2.35,1.9-3.68h-4.32v-3.6h17.36c-.11,2.51-.29,4.56-.54,6.16-.25,1.6-.61,2.84-1.08,3.72s-1.07,1.49-1.8,1.84c-.73.35-1.62.52-2.66.52h-2.64c-.03-.35-.09-.78-.18-1.3-.09-.52-.2-1.03-.32-1.52-.12-.49-.25-.89-.38-1.18h2.16c.64,0,1.14-.09,1.52-.26.37-.17.66-.59.86-1.26.2-.67.34-1.71.42-3.12h-3.92c-.51,2.03-1.38,3.87-2.62,5.54-1.24,1.67-2.81,3.09-4.7,4.26-.24-.32-.57-.72-1-1.2-.43-.48-.84-.91-1.24-1.28v9.08c.69-1.01,1.33-2.19,1.92-3.52.59-1.33,1.03-2.55,1.32-3.64l3.88,1.04c-.11.35-.23.72-.36,1.12-.13.4-.28.81-.44,1.24h1.84v-3.32h4.24v3.32h5.44v3.72h-5.44v3.48h6.36v3.72h-6.36v8.28h-4.24v-8.28h-7.04v-3.72h7.04v-3.48h-3.6c-.27.53-.55,1.05-.86,1.54s-.61.93-.9,1.3c-.29-.21-.72-.47-1.28-.76-.56-.29-1.07-.53-1.52-.72v10.64c0,2.27-1.36,3.4-4.08,3.4h-2.64c-.03-.35-.09-.77-.18-1.28-.09-.51-.2-1.01-.3-1.5-.11-.49-.23-.87-.36-1.14h2.52c.45,0,.78-.08.98-.24.2-.16.3-.45.3-.88v-5.36h-8.12c-.19,2.19-.59,4.13-1.2,5.84-.61,1.71-1.47,3.27-2.56,4.68ZM602.22,87.79h3.84c.29-.53.59-1.08.9-1.64.3-.56.54-1.04.7-1.44h-3.6c-.27.53-.56,1.05-.88,1.56s-.64,1.01-.96,1.52ZM603.14,94.51h2.24v-3h-2.24v3ZM603.14,100.83h2.24v-3h-2.24v3ZM608.86,94.51h2.24v-3h-2.24v3ZM608.86,100.83h2.24v-3h-2.24v3Z"/>
      <path class="cls-7" d="M639.38,96.07c-.48-.43-1.14-.93-1.98-1.52-.84-.59-1.71-1.15-2.62-1.7-.91-.55-1.71-.97-2.4-1.26l2.36-3.84c1.17.56,2.45,1.23,3.82,2.02,1.37.79,2.53,1.57,3.46,2.34-.21.24-.5.62-.86,1.14-.36.52-.71,1.04-1.04,1.56-.33.52-.58.94-.74,1.26ZM637.58,114.71l-4.08-2.92c.61-.8,1.24-1.75,1.88-2.84.64-1.09,1.26-2.23,1.86-3.42s1.15-2.35,1.64-3.5c.49-1.15.87-2.17,1.14-3.08.21.24.55.55,1.02.92.47.37.95.73,1.46,1.08.51.35.93.63,1.28.84-.29.93-.68,1.98-1.16,3.14-.48,1.16-1.01,2.34-1.6,3.54-.59,1.2-1.17,2.34-1.76,3.42-.59,1.08-1.15,2.02-1.68,2.82ZM642.11,87.23c-.46-.43-1.1-.93-1.94-1.52-.84-.59-1.72-1.15-2.64-1.68-.92-.53-1.73-.95-2.42-1.24l2.44-3.76c.72.29,1.55.71,2.48,1.24.93.53,1.84,1.08,2.72,1.64.88.56,1.57,1.05,2.08,1.48-.21.24-.51.61-.88,1.12-.38.51-.73,1.01-1.08,1.52-.35.51-.6.91-.76,1.2ZM643.3,115.35c-.29-.61-.67-1.29-1.14-2.04-.47-.75-.98-1.4-1.54-1.96,3.07-1.01,5.49-2.46,7.28-4.34,1.79-1.88,3.03-4.23,3.72-7.06h-9.08v-4.28h9.72c.03-.37.04-.76.06-1.16.01-.4.02-.8.02-1.2v-4.16h-7.4v-4.12h7.4v-6.64h4.72v6.64h9.6v10.64h3.52v4.28h-11.64c1.17,2.48,2.81,4.67,4.9,6.56,2.09,1.89,4.51,3.33,7.26,4.32-.35.35-.71.79-1.1,1.32-.39.53-.75,1.07-1.08,1.6-.33.53-.58.99-.74,1.36-2.8-1.33-5.23-2.99-7.28-4.98-2.05-1.99-3.73-4.35-5.04-7.1-1.01,2.77-2.53,5.21-4.54,7.3-2.01,2.09-4.55,3.77-7.62,5.02ZM656.98,95.67h4.88v-6.52h-4.8v4.16c0,.4,0,.8-.02,1.2-.01.4-.03.79-.06,1.16Z"/>
      <path class="cls-7" d="M688.42,114.47c-.93,0-1.73-.33-2.4-1-.67-.67-1-1.47-1-2.4s.33-1.73,1-2.4c.67-.67,1.47-1,2.4-1s1.73.33,2.4,1c.67.67,1,1.47,1,2.4s-.33,1.73-1,2.4c-.67.67-1.47,1-2.4,1ZM686.46,104.59c-.05-.83-.12-1.91-.2-3.26-.08-1.35-.17-2.8-.26-4.36-.09-1.56-.17-3.09-.24-4.6-.07-1.51-.12-2.84-.16-4-.04-1.16-.06-1.99-.06-2.5v-6.2h5.76v6.2c0,.51-.02,1.34-.06,2.5-.04,1.16-.09,2.49-.16,4-.07,1.51-.15,3.04-.24,4.6-.09,1.56-.18,3.01-.26,4.36-.08,1.35-.15,2.43-.2,3.26h-3.92Z"/>
    </g>
  </g>
</svg>