<?xml version="1.0" encoding="UTF-8"?>
<svg id="_レイヤー_2" data-name="レイヤー 2" xmlns="http://www.w3.org/2000/svg" viewBox="0 0 408.64 75.83">
  <defs>
    <style>
      .cls-1 {
        isolation: isolate;
      }

      .cls-2 {
        fill: #fff;
      }
    </style>
  </defs>
  <g id="_レイヤー_1-2" data-name="レイヤー 1">
    <g class="cls-1">
      <g>
        <path class="cls-2" d="M16.12,75.83c-3.83,0-6.81-.96-8.96-2.87-2.15-1.91-3.64-4.74-4.48-8.47s-1.26-8.35-1.26-13.86.42-10.2,1.26-13.93,2.33-6.56,4.48-8.47c2.15-1.91,5.13-2.87,8.96-2.87s6.79.96,8.89,2.87c2.1,1.91,3.58,4.74,4.45,8.47.86,3.73,1.29,8.38,1.29,13.93s-.43,10.13-1.29,13.86c-.86,3.73-2.35,6.56-4.45,8.47-2.1,1.91-5.06,2.87-8.89,2.87ZM16.12,67.85c1.59,0,2.83-.5,3.74-1.5.91-1,1.56-2.75,1.96-5.25.4-2.5.59-5.98.59-10.46s-.2-7.98-.59-10.5c-.4-2.52-1.05-4.28-1.96-5.29-.91-1-2.16-1.5-3.74-1.5s-2.85.5-3.78,1.5c-.93,1-1.6,2.77-2,5.29-.4,2.52-.59,6.02-.59,10.5s.2,7.97.59,10.46c.4,2.5,1.06,4.25,2,5.25.93,1,2.19,1.5,3.78,1.5Z"/>
        <path class="cls-2" d="M49.05,75.83c-3.36,0-6.25-.86-8.68-2.59s-4.2-4.32-5.32-7.77l7.7-2.52c.19.47.49,1.08.91,1.85.42.77,1.05,1.47,1.89,2.1.84.63,1.94.94,3.29.94,2.15,0,3.86-.51,5.14-1.54,1.28-1.03,1.92-2.85,1.92-5.46,0-2.29-.62-4.12-1.85-5.5-1.24-1.38-3.07-2.06-5.5-2.06h-3.85v-7.63h3.85c2.19,0,3.77-.63,4.72-1.89.96-1.26,1.44-2.82,1.44-4.69,0-2.19-.61-3.7-1.82-4.52-1.21-.82-2.57-1.22-4.06-1.22-1.12,0-2.07.33-2.83.98-.77.65-1.38,1.38-1.82,2.17-.44.79-.76,1.42-.95,1.89l-7.56-3.08c1.21-3.13,3-5.56,5.35-7.31s5.03-2.62,8.02-2.62,5.41.56,7.56,1.68,3.83,2.68,5.04,4.69c1.21,2.01,1.82,4.34,1.82,7,0,2.38-.63,4.52-1.89,6.41-1.26,1.89-2.85,3.28-4.76,4.17,2.29.89,4.15,2.4,5.6,4.55,1.45,2.15,2.17,4.6,2.17,7.35,0,4.53-1.39,8.1-4.17,10.71-2.78,2.61-6.57,3.92-11.38,3.92Z"/>
        <path class="cls-2" d="M73.15,62.6v-9.03h22.75v9.03h-22.75Z"/>
        <path class="cls-2" d="M120.12,75.83c-1.96,0-3.88-.32-5.77-.95-1.89-.63-3.57-1.77-5.04-3.43-1.47-1.66-2.62-4.04-3.46-7.14-.84-3.1-1.21-7.1-1.12-12,.14-9.33,1.64-16.16,4.51-20.47,2.87-4.32,6.96-6.47,12.29-6.47,2.47,0,4.88.69,7.21,2.06,2.33,1.38,4.15,3.09,5.46,5.15l-6.23,4.76c-.79-1.31-1.73-2.33-2.8-3.08-1.07-.75-2.29-1.12-3.64-1.12-2.71,0-4.81,1.19-6.3,3.57-1.49,2.38-2.31,6.35-2.45,11.9.79-.93,1.87-1.68,3.22-2.24,1.35-.56,2.68-.84,3.99-.84,2.66,0,5.04.61,7.14,1.82,2.1,1.21,3.75,2.91,4.94,5.08,1.19,2.17,1.79,4.75,1.79,7.73s-.56,5.73-1.68,8.09-2.71,4.21-4.76,5.56c-2.05,1.35-4.48,2.03-7.28,2.03ZM119.56,67.85c1.77,0,3.18-.68,4.24-2.03,1.05-1.35,1.57-3.24,1.57-5.67,0-2.19-.51-3.93-1.54-5.21-1.03-1.28-2.38-1.92-4.06-1.92-1.96,0-3.46.63-4.51,1.89-1.05,1.26-1.55,2.96-1.5,5.11.05,2.52.57,4.46,1.57,5.81,1,1.35,2.42,2.03,4.24,2.03Z"/>
        <path class="cls-2" d="M145.79,75.13c.37-2.43.98-5.37,1.82-8.82.84-3.45,1.81-7.12,2.9-10.99,1.1-3.87,2.26-7.68,3.5-11.41s2.42-7.09,3.54-10.08h-18.83v-7.7h28v5.88c-.84,2.01-1.75,4.43-2.73,7.28-.98,2.85-1.96,5.89-2.94,9.13-.98,3.24-1.9,6.52-2.76,9.83-.86,3.31-1.63,6.43-2.31,9.34-.68,2.92-1.2,5.43-1.57,7.53h-8.61Z"/>
        <path class="cls-2" d="M183.97,75.83c-3.36,0-6.25-.86-8.68-2.59s-4.2-4.32-5.32-7.77l7.7-2.52c.19.47.49,1.08.91,1.85.42.77,1.05,1.47,1.89,2.1.84.63,1.94.94,3.29.94,2.15,0,3.86-.51,5.14-1.54,1.28-1.03,1.92-2.85,1.92-5.46,0-2.29-.62-4.12-1.85-5.5-1.24-1.38-3.07-2.06-5.5-2.06h-3.85v-7.63h3.85c2.19,0,3.77-.63,4.72-1.89.96-1.26,1.44-2.82,1.44-4.69,0-2.19-.61-3.7-1.82-4.52-1.21-.82-2.57-1.22-4.06-1.22-1.12,0-2.07.33-2.83.98-.77.65-1.38,1.38-1.82,2.17-.44.79-.76,1.42-.95,1.89l-7.56-3.08c1.21-3.13,3-5.56,5.35-7.31s5.03-2.62,8.02-2.62,5.41.56,7.56,1.68,3.83,2.68,5.04,4.69c1.21,2.01,1.82,4.34,1.82,7,0,2.38-.63,4.52-1.89,6.41-1.26,1.89-2.85,3.28-4.76,4.17,2.29.89,4.15,2.4,5.6,4.55,1.45,2.15,2.17,4.6,2.17,7.35,0,4.53-1.39,8.1-4.17,10.71-2.78,2.61-6.57,3.92-11.38,3.92Z"/>
        <path class="cls-2" d="M220.74,75.83c-2.94,0-5.52-.64-7.74-1.92-2.22-1.28-3.96-3.08-5.21-5.39-1.26-2.31-1.89-4.98-1.89-8.01,0-2.38.62-4.56,1.85-6.54s2.72-3.51,4.45-4.58c-1.45-1.07-2.66-2.43-3.64-4.06-.98-1.63-1.47-3.59-1.47-5.88,0-2.8.58-5.25,1.75-7.35,1.17-2.1,2.78-3.75,4.83-4.94,2.05-1.19,4.41-1.78,7.07-1.78s5.09.59,7.14,1.78c2.05,1.19,3.66,2.83,4.83,4.94,1.17,2.1,1.75,4.55,1.75,7.35,0,2.29-.5,4.25-1.5,5.88-1,1.63-2.21,2.99-3.6,4.06,1.77,1.07,3.27,2.6,4.48,4.58,1.21,1.98,1.82,4.17,1.82,6.54,0,3.08-.64,5.76-1.92,8.05-1.28,2.29-3.04,4.07-5.29,5.36-2.24,1.28-4.81,1.92-7.7,1.92ZM220.74,67.85c2.19,0,3.83-.61,4.9-1.82,1.07-1.21,1.61-3.1,1.61-5.67,0-2.33-.54-4.18-1.61-5.53-1.07-1.35-2.71-2.03-4.9-2.03s-3.77.68-4.87,2.03c-1.1,1.35-1.64,3.2-1.64,5.53,0,2.57.55,4.46,1.64,5.67,1.1,1.21,2.72,1.82,4.87,1.82ZM220.74,46.22c3.55,0,5.32-2.22,5.32-6.65,0-2.15-.51-3.72-1.54-4.73-1.03-1-2.29-1.5-3.78-1.5s-2.75.5-3.78,1.5c-1.03,1-1.54,2.58-1.54,4.73,0,4.43,1.77,6.65,5.32,6.65Z"/>
        <path class="cls-2" d="M244.25,62.6v-9.03h22.75v9.03h-22.75Z"/>
        <path class="cls-2" d="M284.34,75.83c-2.43,0-4.79-.7-7.11-2.1-2.31-1.4-4.14-3.1-5.5-5.11l6.23-4.76c.79,1.31,1.73,2.33,2.8,3.08,1.07.75,2.26,1.12,3.57,1.12,2.75,0,4.86-1.2,6.33-3.6,1.47-2.4,2.27-6.36,2.42-11.87-.75.89-1.8,1.62-3.15,2.21-1.35.58-2.68.88-3.99.88-2.66,0-5.04-.59-7.14-1.79-2.1-1.19-3.76-2.88-4.97-5.08-1.21-2.19-1.82-4.78-1.82-7.77s.57-5.73,1.71-8.08,2.74-4.21,4.79-5.57c2.05-1.35,4.46-2.03,7.21-2.03,2.01,0,3.94.31,5.81.94,1.87.63,3.54,1.79,5,3.46,1.47,1.68,2.64,4.06,3.5,7.14.86,3.08,1.25,7.09,1.16,12.04-.19,9.29-1.7,16.09-4.55,20.4-2.85,4.32-6.95,6.48-12.32,6.48ZM286.09,48.25c2.01,0,3.54-.64,4.58-1.92,1.05-1.28,1.55-3,1.5-5.15-.05-2.52-.58-4.46-1.61-5.81s-2.45-2.03-4.27-2.03-3.12.68-4.17,2.03-1.58,3.24-1.58,5.67c0,2.15.51,3.88,1.54,5.21,1.03,1.33,2.36,2,3.99,2Z"/>
        <path class="cls-2" d="M323.31,75.83c-1.96,0-3.88-.32-5.78-.95-1.89-.63-3.57-1.77-5.04-3.43-1.47-1.66-2.62-4.04-3.46-7.14-.84-3.1-1.21-7.1-1.12-12,.14-9.33,1.65-16.16,4.52-20.47,2.87-4.32,6.96-6.47,12.29-6.47,2.47,0,4.88.69,7.21,2.06,2.33,1.38,4.15,3.09,5.46,5.15l-6.23,4.76c-.79-1.31-1.73-2.33-2.8-3.08-1.07-.75-2.29-1.12-3.64-1.12-2.71,0-4.81,1.19-6.3,3.57-1.49,2.38-2.31,6.35-2.45,11.9.79-.93,1.87-1.68,3.22-2.24,1.35-.56,2.68-.84,3.99-.84,2.66,0,5.04.61,7.14,1.82,2.1,1.21,3.75,2.91,4.93,5.08,1.19,2.17,1.79,4.75,1.79,7.73s-.56,5.73-1.68,8.09-2.71,4.21-4.76,5.56c-2.05,1.35-4.48,2.03-7.28,2.03ZM322.75,67.85c1.77,0,3.19-.68,4.24-2.03s1.58-3.24,1.58-5.67c0-2.19-.51-3.93-1.54-5.21-1.03-1.28-2.38-1.92-4.06-1.92-1.96,0-3.47.63-4.52,1.89-1.05,1.26-1.55,2.96-1.5,5.11.05,2.52.57,4.46,1.58,5.81,1,1.35,2.42,2.03,4.23,2.03Z"/>
        <path class="cls-2" d="M357.83,75.83c-2.94,0-5.52-.64-7.74-1.92-2.22-1.28-3.96-3.08-5.21-5.39-1.26-2.31-1.89-4.98-1.89-8.01,0-2.38.62-4.56,1.85-6.54s2.72-3.51,4.45-4.58c-1.45-1.07-2.66-2.43-3.64-4.06-.98-1.63-1.47-3.59-1.47-5.88,0-2.8.58-5.25,1.75-7.35,1.17-2.1,2.78-3.75,4.83-4.94,2.05-1.19,4.41-1.78,7.07-1.78s5.09.59,7.14,1.78c2.05,1.19,3.66,2.83,4.83,4.94,1.17,2.1,1.75,4.55,1.75,7.35,0,2.29-.5,4.25-1.5,5.88-1,1.63-2.21,2.99-3.6,4.06,1.77,1.07,3.27,2.6,4.48,4.58,1.21,1.98,1.82,4.17,1.82,6.54,0,3.08-.64,5.76-1.92,8.05-1.28,2.29-3.04,4.07-5.29,5.36-2.24,1.28-4.81,1.92-7.7,1.92ZM357.83,67.85c2.19,0,3.83-.61,4.9-1.82,1.07-1.21,1.61-3.1,1.61-5.67,0-2.33-.54-4.18-1.61-5.53-1.07-1.35-2.71-2.03-4.9-2.03s-3.77.68-4.87,2.03c-1.1,1.35-1.64,3.2-1.64,5.53,0,2.57.55,4.46,1.64,5.67,1.1,1.21,2.72,1.82,4.87,1.82ZM357.83,46.22c3.55,0,5.32-2.22,5.32-6.65,0-2.15-.51-3.72-1.54-4.73-1.03-1-2.29-1.5-3.78-1.5s-2.75.5-3.78,1.5c-1.03,1-1.54,2.58-1.54,4.73,0,4.43,1.77,6.65,5.32,6.65Z"/>
        <path class="cls-2" d="M394.57,75.83c-1.96,0-3.88-.32-5.77-.95-1.89-.63-3.57-1.77-5.04-3.43-1.47-1.66-2.62-4.04-3.46-7.14-.84-3.1-1.21-7.1-1.12-12,.14-9.33,1.64-16.16,4.51-20.47,2.87-4.32,6.96-6.47,12.29-6.47,2.47,0,4.88.69,7.21,2.06,2.33,1.38,4.15,3.09,5.46,5.15l-6.23,4.76c-.79-1.31-1.73-2.33-2.8-3.08-1.07-.75-2.29-1.12-3.64-1.12-2.71,0-4.81,1.19-6.3,3.57-1.49,2.38-2.31,6.35-2.45,11.9.79-.93,1.87-1.68,3.22-2.24,1.35-.56,2.68-.84,3.99-.84,2.66,0,5.04.61,7.14,1.82,2.1,1.21,3.75,2.91,4.94,5.08,1.19,2.17,1.79,4.75,1.79,7.73s-.56,5.73-1.68,8.09-2.71,4.21-4.76,5.56c-2.05,1.35-4.48,2.03-7.28,2.03ZM394.01,67.85c1.77,0,3.18-.68,4.24-2.03,1.05-1.35,1.57-3.24,1.57-5.67,0-2.19-.51-3.93-1.54-5.21-1.03-1.28-2.38-1.92-4.06-1.92-1.96,0-3.46.63-4.51,1.89-1.05,1.26-1.55,2.96-1.5,5.11.05,2.52.57,4.46,1.57,5.81,1,1.35,2.42,2.03,4.24,2.03Z"/>
      </g>
    </g>
    <g class="cls-1">
      <path class="cls-2" d="M3.27,11.91c-.62.08-1.18.07-1.67-.05-.49-.11-.88-.32-1.17-.61-.29-.29-.43-.67-.43-1.13,0-.64.26-1.25.78-1.84s1.22-1.06,2.1-1.42v-2.35c-.5.04-.98.08-1.45.09-.47.02-.91.02-1.32,0L.03,3.4c.36.04.79.05,1.29.03.5-.01,1.02-.05,1.56-.1V.97h1.16v2.23c.48-.07.92-.15,1.33-.24.41-.09.75-.19,1.03-.3l.15,1.15c-.7.24-1.54.43-2.51.57v2.12c.71-.17,1.47-.26,2.28-.27.82,0,1.52.12,2.11.36.58.24,1.04.57,1.36.99.32.42.48.89.48,1.42,0,.83-.26,1.47-.78,1.92-.52.45-1.19.68-2.02.67-1.37-.02-2.26-.7-2.67-2.05.14-.04.34-.12.59-.22.25-.1.43-.2.55-.29.13.44.31.77.55.99.24.22.57.33.99.33.45,0,.81-.11,1.09-.36s.41-.58.41-1c0-.5-.24-.91-.71-1.22s-1.12-.47-1.94-.47c-.41,0-.81.03-1.19.09-.38.06-.75.14-1.09.24v3.47c0,.26-.06.45-.18.57s-.32.2-.59.24ZM2.47,10.81c.14,0,.25-.03.31-.06s.09-.11.09-.22v-2.44c-.52.26-.93.57-1.23.92-.3.35-.45.71-.45,1.07,0,.26.12.45.36.57.24.12.54.18.91.17ZM10.18,5.72c-.22-.22-.5-.45-.86-.7s-.73-.49-1.11-.72c-.39-.22-.74-.4-1.05-.51l.67-.96c.3.13.64.3,1.03.51.39.22.77.45,1.14.69.37.24.68.47.91.69-.06.06-.15.16-.25.3s-.2.28-.3.41c-.09.13-.16.23-.18.28Z"/>
      <path class="cls-2" d="M18.08,5.99v-2.69h-4.17v1.92h-1.19v-2.77h5.36v-.82h-4.63v-.92h10.57v.92h-4.74v.82h5.41v2.77h-1.19v-1.92h-4.23v2.69h-1.2ZM19.37,12.57c-.47,0-.8-.07-.99-.22-.19-.14-.29-.38-.29-.72v-1.09h-4.02v-4.04h9.18v4.04h-3.97v.62c0,.12.03.2.1.26s.2.09.4.09h3.21c.24,0,.44-.04.59-.11.15-.08.26-.23.34-.46.08-.23.13-.57.17-1.01.13.07.3.15.52.23.22.08.41.14.57.19-.08.65-.19,1.13-.34,1.44-.14.32-.34.52-.59.62-.25.1-.57.15-.96.15h-3.92ZM14.54,4.58v-.74h2.82v.74h-2.82ZM14.54,5.82v-.73h2.82v.73h-2.82ZM15.24,8.15h2.85v-.81h-2.85v.81ZM15.24,9.71h2.85v-.81h-2.85v.81ZM19.28,8.15h2.79v-.81h-2.79v.81ZM19.28,9.71h2.79v-.81h-2.79v.81ZM19.98,4.58v-.74h2.82v.74h-2.82ZM19.98,5.82v-.73h2.82v.73h-2.82Z"/>
      <path class="cls-2" d="M26.11,3.78v-.99h5.18v.99h-5.18ZM26.73,12.2v-3.79h4.14v3.79h-4.14ZM26.76,5.66v-1h3.93v1h-3.93ZM26.76,7.52v-.99h3.93v.99h-3.93ZM26.77,1.92V.9h3.92v1.01h-3.92ZM27.85,11.22h1.89v-1.81h-1.89v1.81ZM32.14,12.16v-4.64h2.08v-2.19h-2.93v-1.08h2.93v-1.94c-.91.13-1.73.23-2.46.27,0-.07-.04-.18-.08-.32s-.09-.28-.15-.42c-.05-.14-.1-.25-.15-.33.43,0,.92-.04,1.45-.09.54-.05,1.08-.12,1.63-.21.55-.09,1.08-.19,1.57-.31.49-.12.91-.24,1.25-.38l.74.96c-.36.12-.76.23-1.21.33-.45.1-.91.2-1.38.29v2.15h3.06v1.08h-3.06v2.19h2.17v4.64h-5.47ZM33.36,11.08h3.02v-2.48h-3.02v2.48Z"/>
      <path class="cls-2" d="M46.7,11.54c-.05-.16-.14-.37-.29-.61-.15-.25-.29-.43-.44-.56.81-.13,1.5-.36,2.07-.7.57-.34,1.01-.76,1.32-1.25.31-.5.48-1.03.51-1.61.03-.54-.05-1.04-.22-1.49-.17-.45-.42-.85-.75-1.19-.32-.34-.7-.61-1.13-.82-.43-.2-.88-.32-1.37-.34-.06.87-.19,1.75-.39,2.65-.2.89-.47,1.72-.8,2.48-.34.76-.74,1.4-1.21,1.92-.32.34-.63.54-.95.61-.32.06-.65.02-1.01-.12-.34-.14-.65-.38-.92-.71-.27-.33-.48-.72-.62-1.18-.14-.46-.2-.95-.18-1.49.04-.79.23-1.52.56-2.19.33-.67.77-1.24,1.33-1.72.56-.48,1.2-.85,1.92-1.09.72-.25,1.49-.35,2.31-.3.65.04,1.26.18,1.84.45s1.08.62,1.53,1.07c.44.45.78.98,1.02,1.58.24.6.34,1.27.3,2-.06,1.17-.48,2.16-1.26,2.97-.77.81-1.83,1.37-3.16,1.67ZM42.38,9.23c.1.06.22.09.35.09.14,0,.27-.07.39-.21.35-.37.67-.87.95-1.51.28-.64.52-1.35.71-2.15.19-.79.31-1.6.36-2.42-.68.13-1.29.39-1.82.78-.53.4-.95.88-1.27,1.46-.32.58-.49,1.21-.53,1.89-.03.5.04.92.22,1.29s.38.62.63.78Z"/>
      <path class="cls-2" d="M53.65,12.61c-.04-.08-.1-.19-.18-.33-.08-.14-.18-.28-.28-.42-.1-.14-.19-.24-.27-.3,1.65-.61,2.91-1.57,3.78-2.87s1.34-2.97,1.39-5h-5.02v-1.16h5.29V.34h1.35v2.19h5.32v1.16h-5.63c0,.31-.03.6-.05.88-.02.28-.06.56-.1.84h4.32c0,.43-.04.9-.08,1.41-.05.51-.1,1.01-.17,1.52-.07.5-.14.97-.22,1.4s-.17.79-.27,1.08c-.14.42-.31.75-.51.99-.2.23-.44.4-.74.49-.29.09-.66.13-1.1.13h-1.31c0-.18-.04-.41-.1-.67-.06-.27-.12-.48-.18-.62h1.36c.4,0,.69-.06.87-.19.18-.13.33-.34.44-.65.07-.22.14-.48.21-.8.07-.31.13-.65.18-1,.05-.35.1-.69.13-1.03s.05-.63.06-.88h-3.13c-.35,1.38-.96,2.57-1.83,3.58-.87,1.01-2.04,1.82-3.53,2.43Z"/>
      <path class="cls-2" d="M68.01,11.91c-.06-.34-.11-.78-.15-1.32-.04-.54-.06-1.14-.07-1.82-.01-.67-.01-1.36,0-2.07.01-.71.04-1.41.07-2.09.04-.68.08-1.3.14-1.88.06-.57.13-1.05.21-1.42l1.2.28c-.1.32-.18.75-.25,1.28s-.12,1.12-.16,1.77c-.04.65-.06,1.31-.07,2,0,.68,0,1.35.01,2,.02.65.05,1.24.09,1.77.04.53.1.96.18,1.3l-1.21.2ZM72.85,11.69c-.66-.02-1.17-.2-1.55-.53-.38-.34-.56-.75-.55-1.24,0-.31.1-.59.29-.85s.47-.47.84-.63.81-.24,1.34-.24c.35,0,.69.03,1.03.08-.02-.43-.04-.94-.05-1.53-.02-.59-.04-1.24-.05-1.95-.58.04-1.15.06-1.71.07s-1.02,0-1.4-.01l-.09-1.27c.35.04.81.06,1.38.06.57,0,1.17,0,1.79-.03,0-.37-.02-.75-.02-1.15,0-.4,0-.8,0-1.2h1.21c0,.38-.01.76-.01,1.14v1.13c.56-.04,1.07-.1,1.54-.16s.81-.12,1.04-.18v1.24c-.25.05-.61.09-1.06.14-.45.05-.95.1-1.49.14.02.77.04,1.49.07,2.15.03.66.05,1.23.08,1.71.49.17.98.39,1.46.66.48.27.95.58,1.42.95-.06.05-.15.15-.26.29-.11.14-.21.28-.3.42-.09.14-.15.26-.19.34-.69-.62-1.39-1.1-2.09-1.44-.02.69-.26,1.19-.74,1.5s-1.11.44-1.91.41ZM72.93,10.62c.45,0,.79-.08,1.01-.24.23-.16.34-.42.34-.79v-.23c-.19-.04-.38-.08-.57-.1-.19-.02-.38-.04-.57-.05-.4,0-.71.06-.93.2-.23.14-.34.31-.34.52,0,.2.08.36.27.49.19.13.45.2.78.2Z"/>
      <path class="cls-2" d="M85.4,11.14c-.88,0-1.61-.16-2.18-.47-.57-.31-1-.89-1.29-1.73l1.12-.58c.13.49.38.86.76,1.11.38.26.91.38,1.59.38.58,0,1.18-.03,1.79-.08.61-.05,1.17-.13,1.69-.23.52-.1.95-.21,1.3-.32,0,.09,0,.23.03.42.02.19.04.37.07.55.03.18.05.31.08.39-.36.12-.81.22-1.35.3s-1.12.14-1.74.19-1.24.07-1.86.07ZM83.46,3.19v-1.27c.23.08.54.14.91.19.37.04.77.07,1.2.09.43.01.86,0,1.29-.01s.83-.06,1.19-.12c.37-.05.68-.12.92-.19l.03,1.27c-.22.07-.52.13-.89.18s-.77.08-1.2.1c-.43.02-.86.03-1.3.02-.43,0-.84-.04-1.21-.08-.38-.04-.69-.1-.93-.17Z"/>
      <path class="cls-2" d="M98.4,12.25c-.04-.18-.11-.4-.21-.66s-.22-.47-.34-.62c.99.08,1.86.05,2.6-.09.74-.14,1.32-.38,1.73-.72.41-.34.61-.78.61-1.32,0-.47-.18-.82-.54-1.07-.36-.24-.81-.36-1.35-.36-.6,0-1.24.13-1.9.38s-1.28.68-1.85,1.3l-.05.07h-.01s-.99-.73-.99-.73c.45-.44.83-1.04,1.14-1.81.31-.76.55-1.58.72-2.43-1.3.05-2.41.05-3.33,0l-.09-1.24c.42.06.95.1,1.59.11.64,0,1.31,0,2.03-.04.05-.44.09-.87.11-1.28s.03-.8,0-1.16h1.31c0,.33,0,.7-.02,1.1s-.07.83-.13,1.28c.63-.04,1.24-.1,1.83-.16.59-.06,1.12-.13,1.61-.21s.88-.17,1.18-.26l-.05,1.23c-.56.13-1.26.24-2.11.34-.85.1-1.73.17-2.65.23-.1.5-.22,1.01-.37,1.51-.14.5-.31.99-.51,1.44.46-.26.91-.46,1.35-.6.44-.14.87-.21,1.28-.21.59,0,1.12.1,1.59.3.47.2.84.5,1.11.88.27.39.4.86.4,1.4,0,1.09-.48,1.95-1.44,2.57-.96.63-2.38.9-4.26.83Z"/>
      <path class="cls-2" d="M112.25,12.12c-.02-.09-.06-.22-.12-.38-.06-.17-.13-.33-.21-.49-.08-.16-.16-.28-.24-.37,1.45.03,2.55-.16,3.3-.57.75-.41,1.13-.98,1.13-1.71,0-.48-.19-.84-.56-1.08-.37-.24-.84-.36-1.4-.36-.41,0-.85.07-1.32.2-.48.14-.93.34-1.36.63s-.79.65-1.07,1.1l-1.11-.5c.17-.31.32-.71.45-1.17.13-.47.24-.96.32-1.48.09-.52.15-1.01.18-1.46s.04-.84.03-1.13l1.3.15c0,.46-.03,1.02-.13,1.69-.09.67-.24,1.33-.44,1.98.5-.36,1.04-.64,1.61-.84.57-.2,1.09-.3,1.58-.3.67,0,1.24.11,1.73.33.49.22.87.52,1.13.91.27.39.4.84.4,1.36,0,1-.42,1.81-1.28,2.44s-2.16.98-3.94,1.05ZM114.51,3.48c-.21-.16-.46-.33-.76-.51-.3-.17-.62-.34-.96-.5s-.67-.29-.99-.41c-.32-.11-.6-.19-.83-.24l.62-1.09c.22.06.48.16.8.28s.65.27.99.42c.35.15.67.31.98.47.31.16.56.3.77.44l-.62,1.13Z"/>
      <path class="cls-2" d="M122.05,11.81c-.05-.05-.15-.13-.28-.22s-.27-.18-.41-.26c-.14-.08-.25-.14-.33-.16.37-.4.73-.91,1.09-1.5.36-.6.7-1.26,1.03-1.97.32-.72.61-1.45.86-2.19-.49.06-.96.13-1.41.2s-.82.14-1.1.21c0-.08-.03-.2-.06-.36s-.07-.32-.11-.47c-.04-.16-.07-.27-.1-.33.22-.02.49-.04.82-.07.33-.03.7-.07,1.09-.11.4-.04.79-.09,1.19-.12.18-.58.32-1.16.43-1.71.11-.56.18-1.08.22-1.57l1.21.22c-.04.44-.11.91-.22,1.41-.11.5-.24,1.01-.39,1.55.42-.03.77-.04,1.04-.04.35,0,.66.06.92.17s.47.31.63.59c.15.28.24.66.26,1.15.02.49-.05,1.12-.2,1.88-.16.85-.35,1.54-.56,2.05-.21.51-.48.88-.8,1.11s-.72.34-1.21.34c-.25,0-.5-.03-.73-.08-.23-.05-.46-.15-.67-.28,0-.16.01-.36.01-.61s-.01-.44-.04-.59c.42.26.86.39,1.31.39.24,0,.45-.07.63-.22.18-.14.33-.4.47-.78.14-.37.28-.9.43-1.59.12-.56.18-1,.19-1.34,0-.33-.02-.58-.1-.76-.08-.17-.18-.28-.32-.34-.14-.05-.29-.08-.47-.08-.14,0-.31,0-.5.01-.19,0-.39.02-.61.04-.28.84-.6,1.66-.96,2.48-.36.81-.73,1.56-1.11,2.25-.38.68-.76,1.25-1.14,1.7ZM132.12,8.24c-.14-.24-.34-.52-.6-.84-.26-.32-.53-.64-.83-.97-.3-.32-.59-.62-.87-.88s-.53-.47-.75-.61l.9-.78c.23.16.5.38.79.65.29.27.59.56.89.87s.58.62.84.92c.26.3.46.57.6.79l-.97.86Z"/>
      <path class="cls-2" d="M139.25,12.12c-.02-.09-.06-.22-.12-.38-.06-.17-.13-.33-.21-.49-.08-.16-.16-.28-.24-.37,1.45.03,2.55-.16,3.3-.57.75-.41,1.13-.98,1.13-1.71,0-.48-.19-.84-.56-1.08-.37-.24-.84-.36-1.4-.36-.41,0-.85.07-1.32.2-.48.14-.93.34-1.36.63s-.79.65-1.07,1.1l-1.11-.5c.17-.31.32-.71.45-1.17.13-.47.24-.96.32-1.48.09-.52.15-1.01.18-1.46s.04-.84.03-1.13l1.3.15c0,.46-.03,1.02-.13,1.69-.09.67-.24,1.33-.44,1.98.5-.36,1.04-.64,1.61-.84.57-.2,1.09-.3,1.58-.3.67,0,1.24.11,1.73.33.49.22.87.52,1.13.91.27.39.4.84.4,1.36,0,1-.42,1.81-1.28,2.44s-2.16.98-3.94,1.05ZM141.51,3.48c-.21-.16-.46-.33-.76-.51-.3-.17-.62-.34-.96-.5s-.67-.29-.99-.41c-.32-.11-.6-.19-.83-.24l.62-1.09c.22.06.48.16.8.28s.65.27.99.42c.35.15.67.31.98.47.31.16.56.3.77.44l-.62,1.13Z"/>
      <path class="cls-2" d="M152.6,12.62c-.1-.13-.25-.28-.44-.45s-.37-.3-.53-.38c.8-.56,1.4-1.25,1.8-2.09.4-.84.59-1.89.59-3.17V.78h7.33v10.42c0,.87-.51,1.31-1.54,1.31h-1.09c-.02-.18-.06-.4-.12-.67-.06-.27-.12-.47-.18-.61h1.11c.2,0,.34-.03.42-.1s.12-.2.12-.38v-2.75h-4.87c-.13,1.05-.4,1.95-.83,2.69-.43.74-1.02,1.39-1.76,1.94ZM155.28,6.84h4.79v-1.88h-4.78v1.55c0,.05,0,.11,0,.16,0,.05,0,.11,0,.16ZM155.29,3.81h4.78v-1.85h-4.78v1.85Z"/>
      <path class="cls-2" d="M174.18,7.95c-.54,0-1.02-.1-1.45-.29-.43-.19-.83-.41-1.21-.64-.39-.23-.77-.45-1.14-.65-.37-.2-.77-.3-1.19-.3-.34,0-.66.08-.94.24s-.53.36-.74.61c-.21.25-.39.51-.55.78l-.92-.62c.41-.65.86-1.16,1.38-1.53s1.1-.56,1.77-.56c.51,0,.98.1,1.41.29.43.19.83.41,1.22.64.4.24.79.46,1.17.66.38.19.78.29,1.2.29.35,0,.67-.08.94-.24.28-.16.53-.36.74-.61s.4-.51.54-.77l.92.62c-.41.65-.86,1.16-1.38,1.53-.51.37-1.1.56-1.77.56Z"/>
      <path class="cls-2" d="M180,5.93c-.06-.13-.16-.29-.29-.51-.13-.21-.27-.39-.42-.53.56-.2,1.14-.47,1.74-.83.6-.36,1.19-.75,1.75-1.19s1.07-.89,1.52-1.35c.45-.46.8-.89,1.05-1.31l1.17.19c.33.48.73.93,1.19,1.37s.96.84,1.5,1.21c.54.37,1.08.71,1.63.99.55.29,1.08.53,1.57.72-.09.09-.19.21-.3.36-.11.15-.21.3-.3.45-.09.15-.17.27-.21.36-.46-.21-.95-.46-1.48-.76-.53-.3-1.05-.64-1.57-1.02-.52-.38-1.01-.78-1.48-1.21-.46-.43-.86-.88-1.18-1.35-.28.38-.65.78-1.1,1.2-.45.42-.96.83-1.5,1.24-.55.41-1.11.79-1.67,1.13-.57.34-1.11.63-1.62.85ZM180.16,12.15v-1.08h5.05v-3.05h-4.14v-1.12h4.14v-1.39h-2.42v-1.11h6.13v1.11h-2.4v1.39h4.1v1.12h-4.1v3.05h4.97v1.08h-11.33ZM183.14,10.99c-.08-.2-.2-.43-.37-.71s-.33-.54-.51-.81-.35-.47-.51-.63l1.01-.61c.26.31.51.64.76,1.01s.46.74.66,1.11l-1.04.63ZM188.54,10.99l-1.03-.53c.21-.32.42-.69.65-1.12.23-.43.41-.82.53-1.17l1.11.47c-.09.22-.21.46-.35.75-.14.28-.3.56-.46.84s-.31.53-.46.76Z"/>
      <path class="cls-2" d="M194.5,12.57l-.57-.55L205.58.35l.55.57-11.64,11.65Z"/>
      <path class="cls-2" d="M209.93,11.6V3.62l-1.78,1.13-.61-.97,2.66-1.66h.88v9.48h-1.15Z"/>
      <path class="cls-2" d="M216.9,11.75c-1.03,0-1.74-.4-2.13-1.2-.4-.8-.59-2.03-.59-3.67s.2-2.87.59-3.68c.4-.81,1.11-1.21,2.13-1.21s1.72.4,2.12,1.21c.4.8.59,2.03.59,3.68s-.2,2.87-.59,3.67c-.4.8-1.1,1.2-2.12,1.2ZM216.9,10.62c.38,0,.68-.12.91-.34s.4-.62.5-1.17c.1-.55.16-1.3.16-2.24s-.05-1.71-.16-2.25-.27-.94-.5-1.17-.53-.34-.91-.34-.67.11-.9.34-.41.62-.51,1.17c-.11.55-.16,1.3-.16,2.25s.05,1.69.16,2.24c.11.55.28.94.51,1.17s.54.34.9.34Z"/>
      <path class="cls-2" d="M222.67,6.75c-.25,0-.47-.09-.64-.26-.17-.18-.26-.39-.26-.64s.09-.46.26-.63c.18-.17.39-.26.64-.26s.45.08.63.26.26.38.26.63-.09.47-.26.64c-.18.17-.38.26-.63.26ZM222.67,11.75c-.25,0-.47-.09-.64-.26s-.26-.38-.26-.63.09-.47.26-.64c.18-.18.39-.26.64-.26s.45.09.63.26.26.39.26.64-.09.45-.26.63c-.18.18-.38.26-.63.26Z"/>
      <path class="cls-2" d="M228.43,11.75c-1.03,0-1.74-.4-2.13-1.2-.4-.8-.59-2.03-.59-3.67s.2-2.87.59-3.68c.4-.81,1.11-1.21,2.13-1.21s1.72.4,2.12,1.21c.4.8.59,2.03.59,3.68s-.2,2.87-.59,3.67c-.4.8-1.1,1.2-2.12,1.2ZM228.43,10.62c.38,0,.68-.12.91-.34s.4-.62.5-1.17c.1-.55.15-1.3.15-2.24s-.05-1.71-.15-2.25c-.1-.55-.27-.94-.5-1.17s-.53-.34-.91-.34-.67.11-.9.34c-.23.23-.41.62-.51,1.17-.11.55-.16,1.3-.16,2.25s.05,1.69.16,2.24c.11.55.28.94.51,1.17.23.23.54.34.9.34Z"/>
      <path class="cls-2" d="M235.9,11.75c-1.03,0-1.74-.4-2.13-1.2-.4-.8-.59-2.03-.59-3.67s.2-2.87.59-3.68c.4-.81,1.11-1.21,2.13-1.21s1.72.4,2.12,1.21c.4.8.59,2.03.59,3.68s-.2,2.87-.59,3.67c-.4.8-1.1,1.2-2.12,1.2ZM235.9,10.62c.38,0,.68-.12.91-.34s.4-.62.5-1.17c.1-.55.16-1.3.16-2.24s-.05-1.71-.16-2.25-.27-.94-.5-1.17-.53-.34-.91-.34-.67.11-.9.34-.41.62-.51,1.17c-.11.55-.16,1.3-.16,2.25s.05,1.69.16,2.24c.11.55.28.94.51,1.17s.54.34.9.34Z"/>
      <path class="cls-2" d="M249.21,7.95c-.54,0-1.02-.1-1.45-.29-.43-.19-.83-.41-1.21-.64-.39-.23-.77-.45-1.14-.65-.37-.2-.77-.3-1.19-.3-.34,0-.66.08-.94.24s-.53.36-.74.61c-.21.25-.39.51-.55.78l-.92-.62c.41-.65.86-1.16,1.38-1.53s1.1-.56,1.77-.56c.51,0,.98.1,1.41.29.43.19.83.41,1.22.64.4.24.79.46,1.17.66.38.19.78.29,1.2.29.35,0,.67-.08.94-.24.28-.16.53-.36.74-.61s.4-.51.54-.77l.92.62c-.41.65-.86,1.16-1.38,1.53-.51.37-1.1.56-1.77.56Z"/>
      <path class="cls-2" d="M256.61,11.6V3.62l-1.78,1.13-.61-.97,2.66-1.66h.88v9.48h-1.15Z"/>
      <path class="cls-2" d="M263.63,11.75c-.54,0-1.02-.12-1.44-.36-.42-.24-.75-.57-.98-1.01-.23-.43-.35-.93-.35-1.49,0-.52.13-.98.4-1.38.26-.4.59-.7.98-.9-.33-.21-.61-.48-.82-.82-.21-.34-.32-.74-.32-1.21,0-.51.11-.96.32-1.36.22-.39.51-.7.89-.91s.81-.32,1.31-.32.93.11,1.31.32.67.52.89.91.32.84.32,1.36c0,.47-.11.87-.32,1.21-.22.34-.49.61-.82.82.4.2.72.5.99.9s.39.86.39,1.38c0,.56-.12,1.05-.35,1.49-.23.43-.56.77-.97,1.01s-.89.36-1.43.36ZM263.63,10.64c.5,0,.89-.15,1.17-.45.29-.3.43-.73.43-1.31s-.14-.99-.43-1.31c-.29-.31-.68-.47-1.17-.47s-.89.16-1.18.47c-.29.32-.44.75-.44,1.31s.15,1.01.44,1.31c.29.3.69.45,1.18.45ZM263.63,6.16c.43,0,.77-.14,1.01-.41.24-.27.36-.65.36-1.14s-.13-.85-.38-1.11c-.26-.26-.58-.39-.98-.39s-.73.13-.99.39c-.25.26-.38.63-.38,1.11s.12.87.35,1.14c.23.28.57.41,1.01.41Z"/>
      <path class="cls-2" d="M269.43,6.75c-.25,0-.47-.09-.64-.26-.17-.18-.26-.39-.26-.64s.09-.46.26-.63c.18-.17.39-.26.64-.26s.45.08.63.26.26.38.26.63-.09.47-.26.64c-.18.17-.38.26-.63.26ZM269.43,11.75c-.25,0-.47-.09-.64-.26s-.26-.38-.26-.63.09-.47.26-.64c.18-.18.39-.26.64-.26s.45.09.63.26.26.39.26.64-.09.45-.26.63c-.18.18-.38.26-.63.26Z"/>
      <path class="cls-2" d="M275.2,11.75c-1.03,0-1.74-.4-2.13-1.2-.4-.8-.59-2.03-.59-3.67s.2-2.87.59-3.68c.4-.81,1.11-1.21,2.13-1.21s1.72.4,2.12,1.21c.4.8.59,2.03.59,3.68s-.2,2.87-.59,3.67c-.4.8-1.1,1.2-2.12,1.2ZM275.2,10.62c.38,0,.68-.12.91-.34s.4-.62.5-1.17c.1-.55.16-1.3.16-2.24s-.05-1.71-.16-2.25-.27-.94-.5-1.17-.53-.34-.91-.34-.67.11-.9.34-.41.62-.51,1.17c-.11.55-.16,1.3-.16,2.25s.05,1.69.16,2.24c.11.55.28.94.51,1.17s.54.34.9.34Z"/>
      <path class="cls-2" d="M282.66,11.75c-1.03,0-1.74-.4-2.13-1.2-.4-.8-.59-2.03-.59-3.67s.2-2.87.59-3.68c.4-.81,1.11-1.21,2.13-1.21s1.72.4,2.12,1.21c.4.8.59,2.03.59,3.68s-.2,2.87-.59,3.67c-.4.8-1.1,1.2-2.12,1.2ZM282.66,10.62c.38,0,.68-.12.91-.34s.4-.62.5-1.17c.1-.55.16-1.3.16-2.24s-.05-1.71-.16-2.25-.27-.94-.5-1.17-.53-.34-.91-.34-.67.11-.9.34-.41.62-.51,1.17c-.11.55-.16,1.3-.16,2.25s.05,1.69.16,2.24c.11.55.28.94.51,1.17s.54.34.9.34Z"/>
      <path class="cls-2" d="M294.47,13.72c-.68-.98-1.21-2.02-1.59-3.12-.37-1.1-.56-2.22-.56-3.36s.19-2.32.57-3.44c.38-1.12.9-2.13,1.57-3.03l.96.53c-.61.85-1.1,1.77-1.45,2.77-.36,1-.53,2.06-.53,3.17s.18,2.12.53,3.1c.35.98.84,1.93,1.47,2.87l-.96.51Z"/>
      <path class="cls-2" d="M297.34,11.93v-1.17h5.48v-5.08h-4.55v-1.17h4.55V.57h1.31v3.94h4.59v1.17h-4.59v5.08h5.51v1.17h-12.3Z"/>
      <path class="cls-2" d="M317.64,7.78c-.36,0-.67-.13-.92-.38-.26-.26-.38-.56-.38-.92s.13-.68.38-.93.56-.38.92-.38.68.13.93.38.38.56.38.93-.13.67-.38.92c-.25.26-.56.38-.93.38Z"/>
      <path class="cls-2" d="M327.74,11.68V1.26h8.15v10.42h-8.15ZM329.05,5.79h5.54v-3.35h-5.54v3.35ZM329.05,10.49h5.54v-3.55h-5.54v3.55Z"/>
      <path class="cls-2" d="M345.99,7.78c-.36,0-.67-.13-.92-.38-.26-.26-.38-.56-.38-.92s.13-.68.38-.93.56-.38.92-.38.68.13.93.38.38.56.38.93-.13.67-.38.92c-.25.26-.56.38-.93.38Z"/>
      <path class="cls-2" d="M356.17,12.56v-5.2c-.27.25-.55.5-.83.74-.28.24-.57.47-.86.67-.05-.08-.13-.18-.23-.3-.1-.12-.2-.24-.31-.36-.11-.12-.2-.2-.27-.26.37-.23.74-.51,1.13-.84.38-.32.75-.68,1.11-1.05.36-.38.69-.76.98-1.13.29-.38.53-.74.71-1.08h-3.35v-1.05h1.89V.31h1.19v2.39h1.47l.45.41c-.22.47-.46.92-.74,1.36-.28.44-.58.87-.89,1.28.22.15.45.31.71.48.26.17.51.32.76.47s.47.27.65.37c-.11.12-.24.28-.39.49-.15.21-.26.38-.32.51-.23-.15-.49-.33-.78-.53s-.59-.41-.88-.62v5.63h-1.19ZM358.82,12.57c-.05-.08-.12-.18-.21-.31-.09-.13-.19-.25-.3-.36s-.2-.2-.28-.25c.72-.35,1.27-.76,1.66-1.21s.66-1.02.8-1.69.23-1.49.24-2.46h-1.16V.99h5.85v5.31h-1.58v4.52c0,.13.03.21.08.26s.16.07.32.07h.53c.17,0,.3-.02.4-.07s.17-.17.22-.36.1-.51.13-.94c.13.06.3.13.53.21.23.08.42.14.57.18-.05.62-.15,1.09-.28,1.4-.13.31-.32.52-.55.63-.23.11-.54.16-.92.16h-1.03c-.41,0-.71-.07-.9-.21-.18-.14-.28-.38-.28-.71v-5.13h-.81c0,1.04-.08,1.94-.24,2.73-.16.78-.46,1.46-.9,2.04s-1.07,1.08-1.91,1.51ZM360.77,5.16h3.43v-3.04h-3.43v3.04Z"/>
      <path class="cls-2" d="M370.26,11.68V1.26h8.15v10.42h-8.15ZM371.57,5.79h5.54v-3.35h-5.54v3.35ZM371.57,10.49h5.54v-3.55h-5.54v3.55Z"/>
      <path class="cls-2" d="M382.74,12.57V.77h3.73l.5.42c-.04.1-.11.27-.24.53-.12.25-.26.54-.41.86-.15.32-.31.63-.46.94-.15.31-.29.58-.41.82-.12.23-.2.39-.24.47.26.23.51.5.74.8.23.3.43.62.57.97.15.35.22.72.22,1.13,0,.81-.18,1.38-.53,1.71-.36.33-.8.49-1.33.49h-.55c-.03-.2-.07-.41-.14-.64-.07-.23-.13-.41-.18-.53h.61c.27,0,.49-.08.65-.24.17-.16.25-.48.25-.95s-.13-.95-.41-1.39c-.27-.44-.62-.85-1.05-1.24.03-.05.09-.18.18-.38.09-.2.2-.44.32-.71.12-.27.24-.55.37-.82.12-.27.23-.52.32-.74.09-.22.15-.36.17-.43h-1.53v10.76h-1.16ZM388.62,12.6c0-.16-.04-.36-.09-.61s-.11-.43-.16-.55h.96c.18,0,.31-.03.39-.09.08-.06.12-.18.12-.35v-3.24h-2.92v-1.12h2.92v-1.34h-2.09v-.97c-.2.15-.39.3-.58.44-.19.14-.37.26-.55.37-.04-.07-.12-.17-.22-.29-.1-.12-.2-.24-.3-.36-.1-.12-.18-.2-.24-.24.39-.21.78-.47,1.19-.8.41-.32.79-.68,1.16-1.06.37-.38.7-.76.98-1.12.28-.37.5-.69.64-.97l1.19.16c.17.26.42.56.74.9.32.34.68.68,1.08,1.02.4.34.8.64,1.2.92s.77.48,1.09.61c-.07.06-.16.16-.27.3-.11.14-.21.27-.3.4-.09.13-.16.24-.21.32-.34-.19-.7-.42-1.08-.7-.38-.28-.75-.58-1.11-.9-.37-.32-.7-.64-1-.97-.3-.32-.54-.62-.72-.89-.28.42-.65.88-1.13,1.38-.47.5-.96.96-1.46,1.38h5.21v1.05h-2.04v1.34h3.23v1.12h-3.23v3.63c0,.81-.47,1.21-1.42,1.21h-.97ZM386.81,11.54c-.1-.13-.24-.27-.42-.45s-.34-.3-.47-.38c.29-.22.58-.47.87-.78.29-.3.57-.61.82-.93s.45-.61.61-.88l.99.62c-.2.34-.43.69-.7,1.04-.27.35-.55.68-.84.98-.29.3-.57.56-.84.78ZM394.04,11.52c-.27-.21-.56-.46-.86-.76s-.59-.62-.86-.97c-.27-.35-.51-.69-.71-1.02l.96-.62c.16.27.37.56.63.88.26.32.54.62.84.92.31.3.6.55.89.76-.13.07-.28.2-.47.37-.18.17-.33.32-.42.44Z"/>
      <path class="cls-2" d="M397.4,12.93l-.55-.54c.83-.81,1.47-1.7,1.92-2.68s.68-2.06.68-3.25-.23-2.27-.68-3.25-1.1-1.87-1.92-2.68l.55-.54c.87.81,1.57,1.76,2.09,2.86.52,1.09.78,2.3.78,3.61s-.26,2.52-.78,3.61c-.52,1.09-1.22,2.04-2.09,2.86Z"/>
    </g>
  </g>
</svg>