<?xml version="1.0" encoding="UTF-8"?>
<svg id="_レイヤー_2" data-name="レイヤー 2" xmlns="http://www.w3.org/2000/svg" viewBox="0 0 404 80">
  <defs>
    <style>
      .cls-1 {
        isolation: isolate;
      }

      .cls-2 {
        fill: #0c5979;
      }

      .cls-3 {
        fill: #fff;
      }
    </style>
  </defs>
  <g id="_レイヤー_1-2" data-name="レイヤー 1">
    <rect class="cls-3" width="404" height="80" rx="10" ry="10"/>
    <g class="cls-1">
      <path class="cls-2" d="M147.69,36.87c-.36.51-.42.6-.84,1.47-1.74,3.66-3.87,6.18-7.35,8.76-1.17-1.29-1.62-1.62-3-2.43,2.07-1.14,3.63-2.49,4.95-4.23.42-.6.6-.87,1.14-1.77-.48.09-.69.12-1.14.18-3.03.36-6.12.75-9.24,1.2v6.75q.03,2.07.12,2.58c.21,1.17,1.17,1.5,4.23,1.5,3.45,0,6.72-.42,9.21-1.17l.18,4.05c-.81.03-1.05.03-1.83.12-3.24.36-5.46.51-7.44.51-2.43,0-4.2-.18-5.34-.51-1.23-.36-2.25-1.47-2.58-2.76-.27-.93-.3-1.38-.3-3.78v-6.87l-2.82.36q-2.34.3-3.33.57l-.39-3.72c.33.03.57.03.72.03.54,0,1.83-.09,2.64-.21l3.18-.39v-4.11c0-1.5-.03-1.83-.18-2.85h4.14c-.15.87-.18,1.5-.18,2.79v3.78l10.92-1.32c1.59-.18,1.62-.21,2.31-.51l2.22,1.98Z"/>
      <path class="cls-2" d="M156.66,46.74c7.26.96,12.93,2.31,19.92,4.74l-1.29,3.78c-3.12-1.38-5.88-2.25-10.62-3.36-3.69-.87-6.15-1.32-9.42-1.74l1.41-3.42ZM159.06,38.28c4.8.6,9.6,1.68,15.63,3.48l-1.17,3.69c-2.37-.93-4.5-1.56-8.25-2.4-2.55-.6-4.5-.93-7.59-1.32l1.38-3.45ZM159.51,30c5.79.69,9.54,1.44,16.23,3.24l-1.2,3.69c-4.95-1.65-11.1-2.94-16.38-3.45l1.35-3.48Z"/>
      <path class="cls-2" d="M206.67,36.93c2.1,0,2.73-.03,3.9-.21v3.78c-1.08-.12-1.86-.15-3.84-.15h-6.15c-.27,4.17-.78,6.15-2.16,8.46-1.65,2.73-3.75,4.59-7.65,6.72-1.02-1.71-1.47-2.25-2.73-3.24,3.6-1.56,5.88-3.42,7.23-5.91.9-1.62,1.23-2.97,1.47-6.03h-7.44c-1.98,0-2.76.03-3.84.15v-3.78c1.17.18,1.83.21,3.9.21h7.56c.03-1.26.03-1.8.03-2.34v-1.77c0-1.29-.03-2.07-.15-2.88h4.14c-.12.96-.12.99-.15,2.88l-.03,1.8q-.03,1.98-.03,2.31h5.94Z"/>
      <path class="cls-2" d="M216.63,40.41c1.32.18,1.89.21,4.86.21h15.99c2.97,0,3.54-.03,4.86-.21v4.17c-1.2-.15-1.53-.15-4.89-.15h-15.93c-3.36,0-3.69,0-4.89.15v-4.17Z"/>
      <path class="cls-2" d="M246.75,42.48c.75-2.64.96-4.5.99-7.92l2.37.54c-.06,3.27-.33,5.76-.96,8.37l-2.4-.99ZM253.86,52.77c0,1.56.06,2.61.18,3.72h-3.51c.15-1.02.21-2.37.21-3.81v-20.76c0-1.32-.06-2.16-.21-3.21h3.51c-.15,1.05-.18,1.8-.18,3.21v2.49l1.77-.69c.75,1.5.81,1.68,1.53,3.9l-.81.36c.75.06,1.35.09,2.52.09h4.44v-1.2h-3.42c-1.17,0-1.68.03-2.52.12v-2.67c.78.09,1.32.12,2.55.12h3.39v-1.11h-3.87c-1.59,0-2.16.03-2.97.15v-2.88c.87.15,1.5.18,3.12.18h3.72c0-.9-.03-1.35-.18-2.04h3.45c-.15.72-.18,1.11-.18,2.04h4.59c1.65,0,2.25-.03,3.12-.18v2.88c-.87-.12-1.62-.15-3.06-.15h-4.65v1.11h4.23c1.29,0,1.77-.03,2.49-.12v2.67c-.72-.09-1.32-.12-2.55-.12h-4.17v1.2h5.25c1.44,0,2.16-.03,2.97-.15v2.94c-.9-.12-1.74-.18-2.97-.18h-12.78c-1.47,0-2.19.03-3.03.18v-2.64l-.93.42c-.3-1.26-.6-2.19-1.05-3.33v17.46ZM260.37,53.01c0,1.47.06,2.52.18,3.42h-3.45c.12-.99.15-1.68.15-3.42v-8.64c0-1.14-.03-1.71-.09-2.55.72.06,1.35.09,2.4.09h10.56c1.32,0,2.07-.03,2.7-.12-.09.72-.12,1.62-.12,3.09v8.46c0,2.28-.81,2.88-3.84,2.88-.66,0-1.23-.03-2.7-.12-.18-1.29-.3-1.8-.69-2.88,1.23.18,2.19.27,2.94.27.96,0,1.14-.12,1.14-.72v-1.02h-9.18v1.26ZM269.55,45.63v-1.23h-9.18v1.23h9.18ZM269.55,49.29v-1.23h-9.18v1.23h9.18Z"/>
      <path class="cls-2" d="M289.53,36.75c1.26,0,1.8-.03,2.61-.15v3.18c-.57-.09-.96-.09-1.68-.12-.33,1.44-.48,2.01-.99,3.33h.36c1.08,0,1.65-.03,2.31-.15v3.18c-.81-.09-1.44-.12-2.61-.12h-2.34v2.4h2.04c1.14,0,1.74-.03,2.49-.12v3.15c-.78-.09-1.38-.12-2.49-.12h-2.04v2.19c0,.99.06,2.1.15,3.06h-3.3c.12-.99.18-1.89.18-3.06v-2.19h-2.16c-1.14,0-1.65.03-2.49.12v-3.15c.75.09,1.35.12,2.49.12h2.16v-2.4h-2.67c-1.14,0-1.77.03-2.61.12v-3.18c.75.12,1.23.15,2.61.15h.33c-.18-1.2-.36-2.01-.78-3.33-.99,0-1.47.03-2.16.12v-3.18c.78.12,1.41.15,2.61.15h2.7v-2.31h-2.04c-1.08,0-1.68.03-2.49.12v-3.12c.72.09,1.29.12,2.49.12h2.04v-.54c0-.84-.06-1.86-.18-2.28h3.24c-.09.69-.12,1.32-.12,2.28v.54h1.77c1.2,0,1.77-.03,2.49-.12v3.12c-.78-.09-1.44-.12-2.49-.12h-1.77v2.31h2.34ZM286.65,42.99c.39-1.02.66-2.07.9-3.33h-3.6c.42,1.44.54,2.01.75,3.33h1.95ZM305.67,40.86c-.15.39-.21.57-.36,1.32-.63,2.76-1.53,5.43-2.55,7.44,1.17,1.44,2.16,2.25,4.14,3.48-.93,1.44-1.23,2.01-1.74,3.18-1.74-1.38-2.76-2.34-4.08-3.9-1.05,1.47-2.04,2.55-3.57,3.87-.57-1.05-.99-1.68-1.68-2.61.03,1.2.09,1.8.21,2.82h-3.42c.18-1.26.21-2.01.21-3.57v-20.07c0-1.08-.06-2.25-.15-3.06.87.12,1.71.15,2.82.15h7.38c1.35,0,2.28-.06,2.79-.15-.09.87-.12,1.23-.15,1.95-.36,5.52-.78,6.15-4.08,6.15-.81,0-1.35-.03-2.7-.15-.18-1.32-.3-1.86-.66-2.82,1.2.21,2.43.36,3.09.36.93,0,1.08-.3,1.2-2.52h-6.54v6.57h5.64c1.44,0,2.22-.03,2.85-.12l1.35,1.68ZM295.83,53.22c1.38-1.08,2.37-2.1,3.33-3.48-1.29-2.13-1.89-3.72-2.85-7.59h-.48v11.07ZM299.04,42.15c.51,2.07.96,3.27,1.8,4.77.63-1.41,1.02-2.61,1.47-4.77h-3.27Z"/>
      <path class="cls-2" d="M321.69,51.6l4.14-5.85-4.14-5.85h3.69l4.71,5.85-4.71,5.85h-3.69ZM328.02,51.6l4.14-5.85-4.14-5.85h3.69l4.71,5.85-4.71,5.85h-3.69Z"/>
    </g>
    <g class="cls-1">
      <path class="cls-2" d="M41.28,54.19v-1.67h26.5c-.38-.51-.65-1.08-.81-1.68h-23.53v-21.77h35.48v15.87c.53-.48,1.09-.89,1.68-1.25v-16.31h-38.84v23.45h-2.16v5.03h31.79l-1.89-1.68h-28.22Z"/>
      <path class="cls-2" d="M60.3,40.58c-.29.37-.22.89.14,1.18l6.97,5.45c.16-.29.35-.58.58-.84.15-.17.31-.33.47-.47l-6.98-5.46c-.37-.29-.89-.22-1.18.14Z"/>
      <path class="cls-2" d="M88.4,43.32c3.11,0,5.64-2.53,5.64-5.64s-2.53-5.64-5.64-5.64-5.64,2.53-5.64,5.64,2.53,5.64,5.64,5.64ZM88.4,33.72c2.18,0,3.96,1.78,3.96,3.96s-1.78,3.96-3.96,3.96-3.96-1.78-3.96-3.96,1.78-3.96,3.96-3.96Z"/>
      <path class="cls-2" d="M90.61,44.14h-4.11c-2.85,0-5.04.9-6.85,2.83l-2.69,2.71-3.47-2.51c-1.25-.89-3-.68-4,.48-1.07,1.25-.92,3.13.31,4.19l5.25,4.66c1.17,1.01,2.9,1.03,4.1.06.02-.01.04-.03.05-.05l2.29-2.19v6.69h1.68v-8.66c0-.34-.2-.64-.51-.77-.31-.13-.67-.07-.91.17l-3.69,3.52c-.57.44-1.37.42-1.91-.04l-5.25-4.66c-.54-.46-.61-1.28-.14-1.83.43-.51,1.2-.6,1.74-.21l4.05,2.93c.34.24.8.2,1.09-.09l3.21-3.23c1.51-1.6,3.25-2.32,5.65-2.32h4.11c2.27,0,4.11,1.85,4.11,4.11v11.07h1.68v.05s0-.03,0-.04v-11.09c0-3.2-2.6-5.8-5.8-5.8Z"/>
    </g>
  </g>
</svg>