<?xml version="1.0" encoding="UTF-8"?>
<svg id="_レイヤー_2" data-name="レイヤー 2" xmlns="http://www.w3.org/2000/svg" viewBox="0 0 404 80">
  <defs>
    <style>
      .cls-1 {
        isolation: isolate;
      }

      .cls-2 {
        fill: #0c5979;
      }

      .cls-3 {
        fill: #fff;
      }
    </style>
  </defs>
  <g id="_レイヤー_1-2" data-name="レイヤー 1">
    <rect class="cls-3" width="404" height="80" rx="10" ry="10"/>
    <g class="cls-1">
      <path class="cls-2" d="M105.79,32.86c-.84.9-1.65,1.62-2.85,2.52-.69-.93-1.2-1.44-2.01-1.98,2.31-1.56,4.14-3.6,4.77-5.4l3.15.57q-.18.33-.51.84c-.18.33-.3.51-.63.99h8.79c1.23,0,1.95-.03,2.49-.12l1.77,1.38c-.24.33-.3.45-.69,1.02-.93,1.32-1.44,1.95-2.64,3.09-.9-.48-1.68-.81-2.76-1.14.96-.66,1.32-.99,2.01-1.77h-4.62c.93,2.97,4.02,4.56,9.48,4.86-.63,1.05-.9,1.71-1.26,2.94-1.2-.21-1.65-.3-2.73-.6-.03.81-.03,1.68-.03,2.61v5.55c0,1.38.03,2.64.12,3.18-.69-.06-1.92-.09-3.18-.09h-1.41c2.28,1.11,4.47,1.62,8.31,1.98-.75.9-1.05,1.32-1.86,2.76-4.47-.72-6.57-1.47-9.78-3.42l1.74-1.32h-8.19l1.83,1.32c-3.12,1.89-5.13,2.61-9.51,3.45-.69-1.26-.93-1.62-1.83-2.67,3.96-.48,5.94-1.02,7.98-2.1h-1.2c-1.38,0-2.43.03-3.18.09.06-.54.12-1.74.12-3v-5.91c0-1.41-.03-2.28-.12-3.12.63.06,1.68.09,3.06.09h1.56c-.36-.75-.72-1.29-1.26-1.92-1.74.81-2.1.96-4.32,1.86-.45.18-.75.33-1.32.6l-1.17-3.09c1.98-.39,4.68-1.35,7.35-2.7l.9,2.64-1.08.51c2.19-.27,3.42-.57,4.56-1.08,1.86-.84,2.73-1.8,3.15-3.42h-3ZM99.43,33.82c-1.74-1.38-2.82-2.04-4.77-2.94l1.95-2.28c2.16,1.02,3.12,1.56,4.86,2.76l-2.04,2.46ZM100.6,42.79h13.8v-1.14h-13.8v1.14ZM100.6,45.94h13.8v-1.23h-13.8v1.23ZM100.6,48.97h13.8v-1.11h-13.8v1.11ZM114.58,39.46h1.02c-2.49-.93-3.93-2.04-5.1-3.96-.78,1.29-1.47,1.95-2.79,2.73-.93.54-1.89.9-3.36,1.23h10.23Z"/>
      <path class="cls-2" d="M136.87,47.8c-.15.39-.18.54-.33,1.02-1.26-1.41-2.1-2.58-3.03-4.23.15,2.04.18,2.46.18,3.42v4.95c0,1.44.03,2.22.18,3.12h-3.48c.15-.96.21-1.86.21-3.18v-3.87c0-1.2.06-2.61.12-3.6-1.35,3.3-2.31,4.98-3.9,6.75-.33-1.17-.87-2.25-1.53-3.09,1.26-1.29,2.22-2.61,3.24-4.44.63-1.11.75-1.41,1.59-3.39h-1.56c-1.32,0-1.98.03-2.7.15v-3.18c.69.12,1.32.15,2.7.15h2.01v-7.11c0-1.35-.03-2.22-.15-2.94h3.42c-.12.78-.15,1.47-.15,2.91v7.14h1.41c1.14,0,1.65-.03,2.31-.12v3.12c-.72-.09-1.32-.12-2.37-.12h-1.08c1.11,1.89,2.22,3.24,3.87,4.59-.42.75-.54,1.02-.84,1.68.69-.03,1.74-.21,2.76-.42l7.02-1.56v-13.71c0-1.74-.03-2.55-.18-3.48h3.63c-.15.99-.18,1.8-.18,3.45v13.02c1.23-.3,1.77-.45,2.55-.75l.63,3.42c-.81.09-1.65.24-2.88.54l-.3.06v4.38c0,1.68.03,2.58.18,3.54h-3.63c.15-1.02.18-1.74.18-3.57v-3.63l-6.36,1.44c-1.32.3-2.19.54-2.85.75l-.69-3.21ZM128.2,29.98c.96,2.67,1.41,4.2,1.83,6.48l-2.52,1.08c-.48-2.76-1.02-4.62-1.86-6.42l2.55-1.14ZM138.49,31.03c-.78,2.76-1.17,3.81-2.4,6.51l-2.19-1.14c.96-2.01,1.47-3.57,2.07-6.48l2.52,1.11ZM139.99,37.84c2.37,1.62,3.66,2.73,5.22,4.41l-2.04,2.43c-2.1-2.25-3.12-3.15-5.28-4.62l2.1-2.22ZM140.92,30.34c2.58,1.8,3.54,2.64,5.25,4.41l-2.04,2.52c-2.22-2.37-2.37-2.49-5.31-4.62l2.1-2.31Z"/>
      <path class="cls-2" d="M181.42,34.06c-.39.51-.45.63-.93,1.98-.96,2.76-2.61,6.24-3.84,8.25-3.06,5.01-7.29,8.55-13.68,11.49-.96-1.62-1.35-2.13-2.49-3.12,2.55-1.02,4.05-1.8,5.85-2.97,2.13-1.38,3.39-2.46,4.92-4.2-2.1-1.77-3.9-3.03-6.15-4.26l2.28-2.67c2.52,1.41,3.78,2.25,6.03,4.02,1.41-2.16,2.43-4.29,3.36-7.08l-9.33.09c-1.89,3.09-4.02,5.55-7.02,8.07-.99-1.14-1.44-1.5-3-2.4,3.33-2.52,5.67-5.16,7.5-8.58.99-1.8,1.47-2.91,1.77-4.17l3.9.87q-.33.54-.9,1.71c-.36.81-.57,1.14-.72,1.44q.48-.06,7.8-.12c.87-.03,1.59-.09,2.13-.21-.72-1.35-1.14-2.04-1.89-3.03l2.4-.84c1.11,1.38,1.62,2.25,2.31,3.87l-1.56.6,1.26,1.26ZM182.95,31.96c-.63-1.41-1.35-2.64-2.25-3.84l2.34-.87c1.02,1.29,1.65,2.28,2.28,3.72l-2.37.99Z"/>
      <path class="cls-2" d="M213.91,35.23c-.27.57-.3.75-.45,1.65-.51,3.45-.96,5.13-1.89,7.26-1.47,3.45-3.87,6.12-7.41,8.28-1.8,1.11-3.36,1.8-5.97,2.7-.69-1.53-1.05-2.07-2.4-3.57,2.85-.69,4.5-1.32,6.39-2.49,4.35-2.7,6.63-6.51,7.2-12.03h-14.64v3.87c0,.93.03,1.74.09,2.4h-4.02c.09-.75.15-1.68.15-2.52v-4.35c0-1.26-.03-2.04-.12-2.85,1.05.12,1.59.15,3.24.15h5.88v-2.58c0-.96-.03-1.5-.15-2.19h4.17c-.09.51-.15,1.32-.15,2.16v2.58h5.4q2.22,0,2.94-.24l1.74,1.77Z"/>
      <path class="cls-2" d="M222.1,49.9c2.58-.15,6.15-1.02,8.88-2.22,3.75-1.62,6.54-3.93,8.91-7.35,1.32-1.92,2.16-3.57,3.06-6,1.17,1.41,1.65,1.86,3.18,2.94-2.55,5.49-5.4,9.03-9.51,11.76-3.06,2.04-6.78,3.51-11.43,4.5-1.2.24-1.29.27-1.98.51l-1.11-4.14ZM224.65,31.27c3.57,2.22,5.43,3.6,7.74,5.79l-2.58,3.27c-2.4-2.55-4.86-4.53-7.65-6.09l2.49-2.97Z"/>
      <path class="cls-2" d="M257.83,51.76v2.1h-3.87c.09-.72.12-1.44.12-2.58v-17.19c0-1.14-.03-1.71-.12-2.52.72.06,1.35.09,2.55.09h17.04c1.29,0,1.83-.03,2.52-.09-.06.78-.09,1.38-.09,2.49v17.16c0,1.11.03,1.92.12,2.61h-3.87v-2.07h-14.4ZM272.23,35.05h-14.4v13.29h14.4v-13.29Z"/>
      <path class="cls-2" d="M283.63,39.91c1.32.18,1.89.21,4.86.21h15.99c2.97,0,3.54-.03,4.86-.21v4.17c-1.2-.15-1.53-.15-4.89-.15h-15.93c-3.36,0-3.69,0-4.89.15v-4.17Z"/>
      <path class="cls-2" d="M320.44,54.85c.15-.96.18-1.77.18-3.36v-19.23c0-1.47-.06-2.25-.18-3.06h4.11c-.12.9-.12,1.29-.12,3.15v5.58c4.11,1.44,8.82,3.63,13.62,6.33l-2.1,3.54c-2.49-1.71-5.61-3.42-10.62-5.73-.69-.33-.78-.36-1.02-.51.09.84.12,1.2.12,2.04v7.92c0,1.56.03,2.34.12,3.33h-4.11ZM333.07,31.12c1.23,1.29,1.89,2.22,2.88,4.05l-2.25,1.26c-.9-1.65-1.8-2.94-2.88-4.11l2.25-1.2ZM336.94,34.57c-.87-1.56-1.71-2.79-2.82-3.99l2.16-1.17c1.2,1.23,1.98,2.28,2.88,3.87l-2.22,1.29Z"/>
      <path class="cls-2" d="M357.19,51.1l4.14-5.85-4.14-5.85h3.69l4.71,5.85-4.71,5.85h-3.69ZM363.52,51.1l4.14-5.85-4.14-5.85h3.69l4.71,5.85-4.71,5.85h-3.69Z"/>
    </g>
    <g class="cls-1">
      <path class="cls-2" d="M72.63,37.2c-.89-.93-1.97-1.63-3.16-2.06-.09-1.48-.43-2.88-.98-4.19-1.36-3.29-4.02-5.87-7.33-7.13-1.42-.55-2.96-.86-4.57-.86-3.09,0-6.09,1.11-8.42,3.13-1.46,1.26-2.63,2.85-3.4,4.61-2.22.35-4.21,1.39-5.79,3.02-1.97,2.03-3.01,4.7-2.94,7.53.07,2.74,1.23,5.3,3.24,7.21,1.98,1.87,4.56,2.9,7.28,2.9h3.68v-4.34h-3.68c-3.32,0-6.1-2.64-6.18-5.88-.05-1.65.56-3.21,1.71-4.38,1.15-1.18,2.69-1.83,4.33-1.83.35,0,.69.03,1.03.09l.49.08.08.02h0s.01,0,.01,0l.09-.59c.66-4.18,4.21-7.21,8.45-7.21,4.72,0,8.56,3.84,8.56,8.56,0,.11,0,.22,0,.38v.2c-.02.1-.03.19-.04.29l-.04.27c-.11.86-.24,1.44-.31,1.78-.07.36-.11.51-.05.69.1.32.37.54.73.54.13-.01.26-.05.37-.13.05-.03.3-.21.49-.53.02-.04.05-.08.07-.12l.04-.06c.07-.12.15-.18.21-.18,1.1,0,2.12.43,2.89,1.22.76.79,1.16,1.84,1.12,2.94-.07,2.13-1.92,3.87-4.12,3.87h-5.74v4.33h0s5.74.01,5.74.01c2.17,0,4.24-.81,5.82-2.29,1.62-1.52,2.57-3.57,2.65-5.77.08-2.29-.75-4.46-2.34-6.1Z"/>
      <path class="cls-2" d="M61.42,53.82h-2.53c-.31,0-.57-.27-.57-.61v-10.36c0-.34-.26-.61-.57-.61h-4.52c-.32,0-.57.27-.57.61v10.36c0,.33-.26.61-.57.61h-2.53c-.47,0-.74.58-.46.97l.83,1.08,2.68,3.47,2.42,3.12c.12.16.28.24.46.24s.34-.09.45-.24l2.42-3.12,2.68-3.47.83-1.08c.29-.4.02-.97-.46-.97Z"/>
    </g>
  </g>
</svg>