<?xml version="1.0" encoding="UTF-8"?>
<svg id="_レイヤー_2" data-name="レイヤー 2" xmlns="http://www.w3.org/2000/svg" viewBox="0 0 90 90">
  <defs>
    <style>
      .cls-1 {
        fill: #009245;
        isolation: isolate;
      }

      .cls-2 {
        fill: #fff;
      }
    </style>
  </defs>
  <g id="_レイヤー_1-2" data-name="レイヤー 1">
    <rect class="cls-1" width="90" height="90"/>
    <g>
      <path class="cls-2" d="M32.78,63c-.66,0-1.07.02-1.58.06v-.99c.51.06,1.01.1,1.63.1h8.32c.67,0,1.12-.03,1.58-.1v.99c-.5-.05-.83-.06-1.54-.06h-3.91v.98h4.72c.88,0,1.31-.02,1.76-.08-.05.38-.06.7-.06,1.22v.94c0,.5.02.78.1,1.2h-1.04v-2.5h-5.47v1.92c0,.8.02,1.14.08,1.57h-1.15c.06-.4.1-.82.1-1.57v-1.92h-5.17v2.5h-1.04c.06-.4.1-.72.1-1.2v-.94c0-.48-.02-.82-.06-1.22.43.06.86.08,1.74.08h4.43v-.98h-3.54ZM32.55,73.53v.9h-1.07c.06-.4.1-.85.1-1.36v-2.96c0-.58-.02-.99-.06-1.42.4.05.75.06,1.38.06h8.07c.67,0,1.06-.02,1.46-.06-.05.4-.06.8-.06,1.42v2.34c0,.51.02.83.05,1.15-.43-.05-.83-.06-1.44-.06h-3.7v1.09c0,.38.34.43,2.58.43,1.91,0,2.75-.08,3.03-.3.21-.16.27-.64.29-1.89.35.21.4.24.99.45-.03,1.26-.21,1.89-.61,2.18-.45.34-1.36.43-3.86.43-2.98,0-3.39-.13-3.39-1.06v-1.33h-3.73ZM32.03,65.51c.3.03.5.05.98.05h1.49c.4,0,.67-.02.93-.05v.77c-.27-.05-.54-.06-.93-.06h-1.49c-.42,0-.69.02-.98.06v-.77ZM32.03,67.05c.26.05.53.06.98.06h1.49c.4,0,.66-.02.93-.06v.78c-.27-.05-.53-.06-.93-.06h-1.49c-.45,0-.69.02-.98.06v-.78ZM32.55,69.53v1.14h3.73v-1.14h-3.73ZM32.55,71.43v1.3h3.73v-1.3h-3.73ZM41.37,70.66v-1.14h-4.11v1.14h4.11ZM41.37,72.73v-1.3h-4.11v1.3h4.11ZM38.27,65.49c.26.05.53.06.98.06h1.75c.4,0,.67-.02.93-.06v.78c-.27-.05-.53-.06-.93-.06h-1.75c-.43,0-.7.02-.98.06v-.78ZM38.27,67.05c.26.05.53.06.98.06h1.75c.38,0,.67-.02.93-.06v.78c-.27-.05-.53-.06-.93-.06h-1.75c-.45,0-.69.02-.98.06v-.78Z"/>
      <path class="cls-2" d="M45.95,64.47c.38.06.67.08,1.28.08h2.98c.64,0,.93-.02,1.28-.08v1.02c-.34-.05-.58-.06-1.15-.06h-3.11c-.56,0-.9.02-1.28.06v-1.02ZM46.49,62.28c.4.06.64.08,1.23.08h2.23c.58,0,.83-.02,1.23-.08v1.01c-.35-.05-.72-.06-1.23-.06h-2.23c-.53,0-.85.02-1.23.06v-1.01ZM46.57,66.68c.38.05.59.06,1.15.06h2.37c.54,0,.8-.02,1.14-.06v.99c-.43-.05-.62-.06-1.14-.06h-2.37c-.53,0-.77.02-1.15.06v-.99ZM46.57,68.89c.34.05.59.06,1.15.06h2.37c.56,0,.82-.02,1.14-.06v.99c-.38-.05-.62-.06-1.14-.06h-2.37c-.53,0-.82.02-1.15.06v-.99ZM47.67,76.15h-1.04c.06-.43.1-.88.1-1.54v-2.19c0-.56-.02-.91-.08-1.33.42.05.82.06,1.3.06h2.06c.69,0,.88,0,1.17-.05-.03.34-.05.67-.05,1.25v2.27c0,.51.02.83.08,1.31h-.99v-.66h-2.54v.86ZM47.66,74.46h2.56v-2.46h-2.56v2.46ZM55.23,63.78c-1.2.22-1.65.29-3.14.45-.11-.34-.14-.43-.43-.93,1.87-.1,3.94-.45,5.54-.93.9-.27,1.49-.5,1.79-.69l.69.91c-.32.1-.5.14-.51.14-.58.21-2.26.67-2.93.83v2.96h2.11c.8,0,1.25-.03,1.71-.1v1.09c-.48-.06-.94-.1-1.71-.1h-2.11v2.74h1.97c.53,0,.86-.02,1.2-.06-.05.32-.06.78-.06,1.42v2.98c0,.61.03,1.23.08,1.57h-1.09v-.8h-4.96v.8h-1.09c.06-.35.08-.8.08-1.55v-3.07c0-.56-.02-.91-.06-1.34.34.05.69.06,1.14.06h1.79v-2.74h-1.7c-.83,0-1.23.02-1.78.1v-1.09c.5.08.91.1,1.79.1h1.68v-2.75ZM53.37,74.38h4.96v-3.33h-4.96v3.33Z"/>
    </g>
    <g>
      <path class="cls-2" d="M62.9,29.75c-.09-.2-.36-.39-.54-.53,0,0,0-.01-.01-.02,0,0,0,.01.01.02-.21-.16-.49-.27-.81-.3l-12.39-1.32c-1.12-.12-2.4.66-2.86,1.74l-9.24,21.56c-.19.45-.21.87-.09,1.23.04,1.03,1,1.83,1.94,1.93.16.02.32.03.49.05.91.1,1.82.19,2.72.29,2.46.26,4.93.52,7.39.79,1.28.14,2.53.42,3.62-.33,1.22-.83,1.75-2.21,2.49-4.02,2.78-6.81,4.72-11.62,7.62-18.37.16-.38.34-.76.33-1.19h0c-.02-.57-.28-1.06-.67-1.52ZM46.02,51.33c-.23.49-.85.85-1.39.8-.54-.05-.79-.5-.57-.99.22-.49.84-.85,1.38-.8.54.05.8.5.57.99ZM52.94,49.15l-12.48-1.33,7.56-17.64,12.48,1.33-7.56,17.64Z"/>
      <path class="cls-2" d="M32.12,27.63l-.94-.99c-1.89,1.79-3.34,4.07-4.13,6.74-.79,2.66-.8,5.38-.19,7.9l1.33-.32c-.56-2.3-.54-4.76.18-7.19.72-2.43,2.04-4.51,3.76-6.13Z"/>
      <path class="cls-2" d="M31.98,34.84c-.58,1.96-.59,3.96-.14,5.82l1.33-.32c-.39-1.64-.38-3.39.13-5.11.51-1.72,1.45-3.2,2.67-4.36l-.94-.99c-1.39,1.32-2.46,3-3.04,4.96Z"/>
      <path class="cls-2" d="M38.22,36.68c.3-1.02.86-1.89,1.59-2.58l-.94-.99c-.89.84-1.58,1.92-1.96,3.18-.37,1.26-.38,2.55-.09,3.74l1.33-.32c-.23-.97-.23-2.01.07-3.03Z"/>
    </g>
  </g>
</svg>