<?xml version="1.0" encoding="UTF-8"?>
<svg id="_レイヤー_2" data-name="レイヤー 2" xmlns="http://www.w3.org/2000/svg" viewBox="0 0 90 90">
  <defs>
    <style>
      .cls-1 {
        fill: #fff;
      }

      .cls-2 {
        fill: #0079b9;
        isolation: isolate;
      }
    </style>
  </defs>
  <g id="_レイヤー_1-2" data-name="レイヤー 1">
    <rect class="cls-2" width="90" height="90"/>
    <g>
      <path class="cls-1" d="M17.92,64.04c0-.83,0-.94-.06-1.47h1.3c-.06.45-.08.77-.08,1.47v2.34l6.5-.86c.61-.06.64-.08.91-.22l.78.66c-.11.18-.13.21-.26.45-.43.91-.8,1.5-1.22,2.05-.67.86-1.55,1.68-2.72,2.5-.37-.42-.51-.53-.96-.77,1.75-1.04,2.93-2.26,3.63-3.71-.14.03-.21.05-.37.08-.06.02-.1.02-.19.03-2.24.3-4.29.59-6.11.85v3.78c0,1.49.06,1.82.4,2.11s1.01.4,2.32.4c1.68,0,3.43-.21,4.66-.56l.08,1.3c-.43.02-.53.03-.96.08-1.62.21-2.71.29-3.79.29-1.82,0-2.75-.22-3.27-.75-.48-.51-.59-1.01-.59-2.64v-3.86l-1.94.27q-1.06.14-1.57.27l-.14-1.2h.24c.27,0,.83-.05,1.38-.11l2.03-.27v-2.48Z"/>
      <path class="cls-1" d="M31.9,71.42c4.05.66,6.83,1.39,10.23,2.67l-.45,1.17c-1.5-.7-2.82-1.14-5.43-1.79-1.94-.48-3.23-.74-4.83-.98l.48-1.07ZM33.15,66.92c2.69.42,5.04.98,7.89,1.87l-.42,1.15c-2.26-.86-5.07-1.55-7.94-1.95l.46-1.07ZM33.43,62.55c2.66.35,5.11.88,8.07,1.76l-.42,1.17c-2.1-.77-5.46-1.54-8.12-1.86l.46-1.07Z"/>
      <path class="cls-1" d="M57.61,66.34c.93,0,1.31-.02,1.87-.11v1.25c-.54-.06-1.01-.08-1.86-.08h-3.62c-.13,2.24-.42,3.44-1.18,4.66-.85,1.36-2.08,2.4-3.97,3.35-.29-.5-.43-.67-.82-1.02,1.87-.75,3.2-1.86,3.97-3.3.51-.96.69-1.78.82-3.68h-4.43c-.85,0-1.31.02-1.86.08v-1.25c.58.1.95.11,1.87.11h4.47c.02-.59.02-.91.02-1.41v-1.15c0-.64-.02-.98-.08-1.36h1.34c-.06.43-.06.46-.08,1.36l-.02,1.15v1.41h3.55Z"/>
      <path class="cls-1" d="M62.39,68.2c.46.08.9.1,1.98.1h9.3c1.18,0,1.44-.02,1.94-.08v1.3c-.51-.05-.88-.06-1.95-.06h-9.28c-1.17,0-1.5.02-1.98.06v-1.31Z"/>
    </g>
    <g>
      <path class="cls-1" d="M20.95,46.97v-1.5h23.85c-.34-.46-.59-.98-.73-1.51h-21.18v-19.59h31.93v14.29c.48-.43.98-.8,1.51-1.12v-14.68H21.38v21.11h-1.95v4.53h28.61l-1.7-1.51h-25.39Z"/>
      <path class="cls-1" d="M38.07,34.72c-.26.33-.2.81.13,1.06l6.27,4.9c.14-.26.32-.52.52-.76.13-.15.28-.29.42-.43l-6.28-4.91c-.33-.26-.8-.2-1.06.13Z"/>
      <path class="cls-1" d="M63.36,37.19c2.8,0,5.08-2.28,5.08-5.08s-2.28-5.08-5.08-5.08-5.08,2.28-5.08,5.08,2.28,5.08,5.08,5.08ZM63.36,28.55c1.96,0,3.56,1.6,3.56,3.56s-1.6,3.56-3.56,3.56-3.56-1.6-3.56-3.56,1.6-3.56,3.56-3.56Z"/>
      <path class="cls-1" d="M65.35,37.92h-3.7c-2.57,0-4.53.81-6.17,2.54l-2.42,2.44-3.13-2.26c-1.12-.8-2.7-.61-3.6.43-.96,1.12-.83,2.82.28,3.77l4.73,4.2c1.06.9,2.61.93,3.69.05.02-.01.03-.03.05-.04l2.07-1.97v6.02h1.51v-7.79c0-.3-.18-.58-.46-.7-.28-.12-.6-.06-.82.15l-3.32,3.17c-.51.4-1.24.38-1.72-.03l-4.73-4.2c-.49-.42-.55-1.15-.13-1.64.39-.46,1.08-.54,1.57-.19l3.65,2.63c.3.22.72.18.98-.08l2.89-2.91c1.36-1.44,2.93-2.08,5.08-2.08h3.7c2.04,0,3.7,1.66,3.7,3.7v9.97h1.51v.05s0-.03,0-.04v-9.98c0-2.88-2.34-5.22-5.22-5.22Z"/>
    </g>
  </g>
</svg>