<?xml version="1.0" encoding="UTF-8"?>
<svg id="_レイヤー_2" data-name="レイヤー 2" xmlns="http://www.w3.org/2000/svg" viewBox="0 0 90 90">
  <defs>
    <style>
      .cls-1 {
        fill: #d94015;
        isolation: isolate;
      }

      .cls-2 {
        fill: #fff;
      }
    </style>
  </defs>
  <g id="_レイヤー_1-2" data-name="レイヤー 1">
    <rect class="cls-1" width="90" height="90"/>
    <g>
      <path class="cls-2" d="M7.61,74.31c0,.9.03,1.41.1,1.79h-1.18c.06-.45.1-.93.1-1.79v-10.39c0-.78-.02-1.25-.06-1.76.43.05.88.06,1.67.06h2.29c.8,0,1.18-.02,1.63-.06-.03.48-.05.9-.05,1.52v2.14c0,.64.02,1.09.05,1.47-.35-.03-.96-.05-1.62-.05h-2.91v7.06ZM7.61,64.32h3.57v-1.31h-3.57v1.31ZM7.61,66.45h3.57v-1.34h-3.57v1.34ZM15.84,72.25c0,.38.02.69.05.96-.32-.03-.59-.05-1.01-.05h-3.84v1.26h-1.04c.06-.45.08-.85.08-1.49v-3.2c0-.37-.02-.69-.05-1.01.32.03.67.05,1.1.05h3.58c.46,0,.88-.02,1.17-.05-.03.3-.05.61-.05.98v2.55ZM11.04,72.31h3.86v-2.69h-3.86v2.69ZM19.46,74.55c0,1.04-.3,1.33-1.41,1.33-.62,0-1.2-.02-1.9-.06-.06-.45-.11-.64-.29-1.02.78.1,1.5.16,2.03.16.46,0,.58-.1.58-.46v-7.23h-3.2c-.67,0-1.28.02-1.63.05.03-.46.05-.88.05-1.47v-2.14c0-.56-.02-1.04-.05-1.52.43.05.85.06,1.63.06h2.59c.8,0,1.23-.02,1.68-.06-.06.58-.08,1.07-.08,1.76v10.63ZM14.6,64.32h3.86v-1.31h-3.86v1.31ZM14.6,66.45h3.86v-1.34h-3.86v1.34Z"/>
      <path class="cls-2" d="M24.52,63.67c-.08.5-.11,1.02-.11,1.9,0,1.76.18,3.95.42,4.98.35,1.63,1.01,2.74,1.62,2.74.29,0,.56-.27.8-.8.37-.8.62-1.65.83-2.74.35.42.5.56.94.91-.78,2.8-1.52,3.87-2.66,3.87-.9,0-1.73-.9-2.27-2.43-.56-1.52-.78-3.57-.86-7.51-.02-.61-.02-.66-.05-.94l1.34.02ZM32.25,64.52c1.04,1.23,1.7,2.29,2.29,3.65.61,1.34.91,2.48,1.2,4.27l-1.14.46c-.29-2.98-1.46-5.71-3.33-7.89l.98-.5Z"/>
      <path class="cls-2" d="M45.55,61.73c.67,1.09,1.41,1.89,2.64,2.9,1.36,1.12,2.87,2.02,4.39,2.62-.29.34-.45.61-.64,1.01-1.6-.78-3.22-1.84-4.51-2.95-1.01-.85-1.74-1.66-2.46-2.69-1.07,1.5-1.95,2.42-3.36,3.51-1.09.83-2.1,1.46-3.39,2.08-.18-.37-.3-.54-.67-.91,1.65-.74,3.03-1.62,4.35-2.79,1.14-.98,1.76-1.7,2.46-2.79h1.2ZM39.96,76.04c.06-.5.1-.96.1-1.57v-3.54c0-.59-.02-1.02-.08-1.47.34.05.67.06,1.25.06h7.51c.58,0,.91-.02,1.25-.06-.06.43-.08.85-.08,1.47v3.54c0,.62.03,1.1.1,1.57h-1.15v-.93h-7.73v.93h-1.15ZM41.11,74.17h7.73v-3.67h-7.73v3.67ZM41.23,66.6c.29.05.67.06,1.26.06h4.96c.62,0,1.01-.02,1.34-.06v1.09c-.35-.05-.74-.06-1.34-.06h-4.98c-.5,0-.91.02-1.25.06v-1.09Z"/>
      <path class="cls-2" d="M54.22,71.48c.3-.21.61-.46,1.38-1.18q.54-.51,1.09-1.01.26-.24.46-.42c.03-1.33.03-1.47.08-2.83q-.22.02-.82.05c-1.04.08-1.36.11-1.76.19l-.08-1.1c.22.02.32.02.45.02.24,0,.91-.03,2.23-.13.05-.99.06-1.6.06-2.23,0-.24,0-.35-.05-.62h1.26c-.1.46-.11.7-.16,1.86q-.02.54-.03.91c.21-.03.24-.03.37-.1l.42.53q-.22.19-.85,1.04c-.05,1.04-.08,1.58-.08,1.62h.03l.05-.05c.16-.18.45-.43.93-.82,1.39-1.1,2.62-1.58,4.05-1.58,2.54,0,4.31,1.71,4.31,4.16,0,2.9-1.92,4.82-4.83,4.82-.91,0-1.73-.14-2.72-.48.02-.13.02-.22.02-.27,0-.29-.03-.48-.13-.93.9.4,1.87.62,2.83.62,1.38,0,2.61-.69,3.2-1.81.3-.59.45-1.2.45-1.92,0-1.87-1.23-3.14-3.06-3.14-1.57,0-3.01.75-5.11,2.64,0,4.82.02,5.62.1,6.35h-1.26q.08-.5.08-3.03c.02-1.95.02-2.08.05-2.46h-.03c-.11.19-.26.34-.83.88-.61.56-1.25,1.25-1.44,1.52l-.64-1.1Z"/>
      <path class="cls-2" d="M74.4,62.82q-.1.51-.14,3.35c2.59-.14,3.23-.18,5.23-.26v-.45c.02-.18.02-.35.02-.54,0-1.46-.02-1.94-.1-2.43h1.23c-.05.32-.06.72-.06,1.23v.67l-.02,1.04v.43c1.57-.03,2.82-.08,3.35-.14l.03,1.14c-.43-.03-.53-.03-1.2-.03-.14,0-.56,0-1.09.02-.26,0-.61.02-1.12.02-.02,1.36-.13,2.48-.29,3.12-.26.94-.78,1.41-1.62,1.41-.62,0-1.26-.21-2.23-.74.02-.24.03-.32.03-.48,0-.18-.02-.34-.03-.66.88.58,1.63.88,2.1.88s.64-.26.78-1.04c.13-.7.16-1.23.19-2.46-1.94.06-3.09.13-5.22.27v1.44c0,2.47.05,3.57.16,4.03.14.54.45.85,1.07,1.04.5.18,1.47.27,2.5.27,1.75,0,3.43-.22,4.45-.59l.13,1.23c-.22.02-.26.03-.64.08-1.49.22-2.82.34-4.05.34-2.85,0-4.07-.54-4.48-1.98-.16-.58-.21-1.5-.21-3.79v-2c-1.58.11-2.48.21-3.22.34l-.1-1.12c.16.02.29.02.35.02.29,0,1.28-.06,2.96-.21v-1.04c0-1.49-.02-1.95-.08-2.39h1.3Z"/>
    </g>
    <g>
      <path class="cls-2" d="M55.82,30.38h-21.64c-1.26,0-2.28,1.02-2.28,2.28v16.66c0,1.26,1.02,2.29,2.28,2.29h21.64c1.26,0,2.28-1.03,2.28-2.29v-16.66c0-1.26-1.02-2.28-2.28-2.28ZM33.83,32.67c0-.19.16-.35.35-.35h21.64c.19,0,.35.16.35.35v16.66c0,.2-.16.36-.35.36h-21.64c-.19,0-.35-.16-.35-.36v-16.66h0Z"/>
      <path class="cls-2" d="M41.11,41.34s-.08.07-.11.1c-.09.08-.41.36-.41.36-1.25,1.09-2.52,2.23-3.76,3.39l-.12.11.88,1.03s.47-.37.62-.49c1.15-.91,2.31-1.85,3.44-2.81.23-.19.46-.38.69-.58.15-.12.3-.25.45-.38l1.48,1.3s.08.07.12.09c0,0,0,0,.01,0,.17.11.38.17.59.17s.42-.06.6-.17c.04-.03.09-.06.12-.09l.03-.03,1.52-1.29c.16.13.32.26.48.39.22.18.43.36.65.53,1.22.99,2.44,1.96,3.62,2.86.11.09.49.38.49.38l.69-.8-.11-.11c-1.23-1.18-2.48-2.34-3.71-3.45-.12-.11-.24-.22-.36-.33l-.09-.08-.41-.37-.04-.04.11-.1c.28-.24.56-.49.84-.74,1.09-.95,2.19-1.94,3.27-2.93.17-.15.33-.31.5-.46l.12-.11-.45-.52-.43-.51s-.46.36-.62.49c-1.14.89-2.3,1.84-3.44,2.8-.42.35-.84.7-1.25,1.06l-.98.83-1.12.97-.46-.38-.97-.81c-.06-.05-.72-.59-.72-.59-.41-.34-.82-.68-1.24-1.02-1.23-1-2.44-1.96-3.62-2.86-.12-.09-.49-.38-.49-.38l-.69.8.11.11c.16.16.33.31.49.47,1.06,1.01,2.14,2.01,3.22,2.98.3.27.59.53.89.8l.02.02c-.14.13-.29.25-.43.38Z"/>
    </g>
  </g>
</svg>