<?xml version="1.0" encoding="UTF-8"?>
<svg id="_レイヤー_2" data-name="レイヤー 2" xmlns="http://www.w3.org/2000/svg" viewBox="0 0 90 90">
  <defs>
    <style>
      .cls-1 {
        fill: #e58707;
        isolation: isolate;
      }

      .cls-2 {
        fill: #fff;
      }
    </style>
  </defs>
  <g id="_レイヤー_1-2" data-name="レイヤー 1">
    <rect class="cls-1" width="90" height="90"/>
    <g>
      <path class="cls-2" d="M24.36,74.47c-1.63.91-2.66,1.28-4.77,1.71-.21-.42-.3-.56-.59-.88.96-.13,1.47-.24,2.29-.46.93-.27,1.38-.45,2.27-.96l.8.59ZM23.48,65.97c-1.22.54-1.84.8-3.2,1.31-.29.1-.43.16-.72.3l-.4-1.04c1.07-.18,2.51-.69,4.07-1.41l.26.83ZM22.31,64.39c-.98-.78-1.5-1.1-2.61-1.6l.62-.74c1.23.61,1.74.91,2.61,1.54l-.62.8ZM29.5,67.65c.88,0,1.22-.02,1.66-.06-.03.48-.05.98-.05,1.74v2.8c0,.82.02,1.34.06,1.65-.43-.05-1.02-.06-1.79-.06h-6.55c-.78,0-1.34.02-1.79.06.05-.3.06-.83.06-1.62v-2.87c0-.74-.02-1.25-.05-1.7.43.03.9.05,1.66.05h6.77ZM22.09,69.41h8.05v-.98h-8.05v.98ZM22.09,71.17h8.05v-1.01h-8.05v1.01ZM22.09,72.95h8.05v-1.02h-8.05v1.02ZM25.18,63.76c-.43.51-.86.91-1.5,1.41-.26-.32-.37-.42-.71-.62,1.26-.88,2.13-1.89,2.51-2.99l.98.3q-.16.24-.32.53s-.14.21-.38.59h5.46c.54,0,.74-.02,1.07-.08l.62.51q-.06.08-.19.24s-.05.05-.22.29c-.42.56-.9,1.04-1.47,1.46-.3-.18-.56-.29-.9-.4.69-.42,1.02-.69,1.42-1.23h-3.3c.24.82.88,1.57,1.83,2.13.88.53,2,.88,3.44,1.06-.26.32-.32.43-.53.91-1.36-.29-2.3-.62-3.12-1.09-.94-.54-1.52-1.12-2.1-2.06-.48.91-.95,1.41-1.78,1.87-.67.37-1.52.64-2.54.83-.18-.37-.24-.46-.54-.82,2.5-.26,3.87-1.17,4.29-2.83h-2.02ZM28.54,73.9c1.49.78,2.64,1.12,4.74,1.38-.29.34-.32.42-.59.91-2.14-.4-3.33-.8-4.91-1.71l.77-.58Z"/>
      <path class="cls-2" d="M36.73,68.12c-.67,0-1.01.02-1.39.08v-1.04c.32.06.69.08,1.39.08h1.26v-3.78c0-.78-.03-1.3-.1-1.71h1.17c-.06.4-.1.88-.1,1.7v3.79h.96c.54,0,.86-.02,1.18-.06v1.01c-.34-.05-.7-.06-1.2-.06h-.88c.69,1.3,1.31,2.1,2.29,2.96-.22.29-.43.61-.56.86-.96-1.09-1.41-1.74-1.87-2.82.03.64.08,2.06.08,2.37v2.99c0,.77.03,1.25.1,1.76h-1.17c.06-.54.1-1.04.1-1.78v-2.72c0-.74.03-1.63.08-2.48-.67,2.03-1.38,3.35-2.46,4.58-.22-.43-.35-.62-.61-.9.8-.82,1.33-1.57,1.91-2.69.4-.78.56-1.15.9-2.15h-1.07ZM36.25,62.76c.54,1.36.77,2.06,1.07,3.43l-.85.37c-.29-1.46-.56-2.32-1.06-3.43l.83-.37ZM41.5,63.06c-.7,2.24-.7,2.26-1.3,3.49l-.78-.37c.59-1.17.83-1.89,1.17-3.47l.91.35ZM46.69,63.44c0-.85-.03-1.28-.1-1.68h1.22c-.06.48-.1.91-.1,1.66v7.36l.24-.05c.72-.18,1.12-.3,1.47-.45l.19,1.12c-.4.03-.91.13-1.54.27l-.37.1v2.67c0,.77.03,1.28.1,1.75h-1.22c.08-.43.1-.85.1-1.76v-2.42l-4.21,1.02c-.64.14-1.1.29-1.49.43l-.21-1.14c.4-.02.93-.11,1.54-.26l4.37-1.04v-7.6ZM42.41,66.93c1.34.93,2.03,1.5,2.87,2.43l-.67.8c-.98-1.12-1.62-1.66-2.9-2.5l.7-.74ZM42.89,62.93c1.39,1.01,1.92,1.47,2.88,2.5l-.66.83c-1.07-1.2-1.62-1.7-2.91-2.59l.69-.74Z"/>
      <path class="cls-2" d="M51.48,64.52c0-.69-.03-1.15-.13-1.82.56.03.99.05,1.76.05h2.71c3.57,0,5.6,2.18,5.6,6,0,2-.61,3.67-1.71,4.74-.96.94-2.29,1.42-3.89,1.42h-2.71c-.77,0-1.2.02-1.76.05.1-.62.13-1.1.13-1.9v-8.53ZM55.79,73.78c1.26,0,2.27-.37,2.99-1.14.88-.9,1.34-2.26,1.34-3.91s-.42-2.95-1.26-3.79c-.7-.74-1.7-1.09-3.01-1.09h-3.12v9.92h3.06Z"/>
      <path class="cls-2" d="M65.23,74.9c-.74,0-1.18.02-1.75.05.1-.61.13-1.12.13-1.9v-8.42c0-.83-.03-1.33-.13-1.89h1.5c-.1.59-.13,1.01-.13,1.89v9.14h5.04c.8,0,1.23-.03,1.86-.11v1.36c-.51-.08-.96-.11-1.86-.11h-4.67Z"/>
    </g>
    <g>
      <path class="cls-2" d="M55.59,35.52c-.55-.57-1.22-1.01-1.95-1.27-.05-.91-.27-1.78-.61-2.59-.84-2.03-2.49-3.63-4.53-4.41-.88-.34-1.83-.53-2.83-.53-1.91,0-3.76.68-5.21,1.93-.9.78-1.62,1.76-2.1,2.85-1.37.22-2.6.86-3.58,1.87-1.22,1.25-1.86,2.91-1.82,4.66.05,1.7.76,3.28,2,4.45,1.22,1.15,2.82,1.79,4.5,1.79h2.28v-2.68h-2.28c-2.05,0-3.77-1.63-3.82-3.64-.03-1.02.35-1.98,1.06-2.71.71-.73,1.66-1.13,2.68-1.13.21,0,.43.02.64.05l.31.05h.05s0,.01,0,.01h0l.06-.36c.41-2.58,2.6-4.46,5.22-4.46,2.92,0,5.29,2.37,5.29,5.29,0,.07,0,.14,0,.23v.12c-.01.06-.02.12-.02.18l-.02.17c-.07.53-.15.89-.19,1.1-.05.22-.07.31-.03.43.06.2.23.33.45.33.08,0,.16-.03.23-.08.03-.02.18-.13.3-.33.01-.02.03-.05.04-.08l.02-.04c.05-.07.09-.11.13-.11.68,0,1.31.27,1.79.76.47.49.72,1.14.69,1.82-.05,1.32-1.19,2.39-2.55,2.39h-3.55v2.67h0s3.55,0,3.55,0c1.34,0,2.62-.5,3.6-1.41,1-.94,1.59-2.2,1.64-3.57.05-1.41-.46-2.76-1.45-3.77Z"/>
      <path class="cls-2" d="M48.66,45.79h-1.56c-.19,0-.35-.17-.35-.38v-6.4c0-.21-.16-.38-.35-.38h-2.79c-.2,0-.35.17-.35.38v6.4c0,.21-.16.38-.35.38h-1.56c-.29,0-.46.36-.28.6l.51.67,1.66,2.14,1.49,1.93c.07.1.17.15.28.15s.21-.05.28-.15l1.49-1.93,1.66-2.14.51-.67c.18-.24.01-.6-.28-.6Z"/>
    </g>
  </g>
</svg>