<?xml version="1.0" encoding="UTF-8"?>
<svg id="_レイヤー_2" data-name="レイヤー 2" xmlns="http://www.w3.org/2000/svg" viewBox="0 0 1001.24 115.8">
  <defs>
    <style>
      .cls-1 {
        fill: none;
        isolation: isolate;
        stroke: #000;
        stroke-miterlimit: 10;
        stroke-width: 4px;
      }

      .cls-2 {
        fill: red;
      }
    </style>
  </defs>
  <g id="_レイヤー_1-2" data-name="レイヤー 1">
    <line class="cls-1" x1="1.24" y1="100.92" x2="1001.24" y2="100.92"/>
    <g>
      <path d="M0,48.8h7.97l.66,3.96h.22c2.58-2.58,5.28-4.73,9.51-4.73s6.98,1.82,8.58,5.17c2.69-2.75,5.61-5.17,9.79-5.17,6.82,0,9.79,4.89,9.79,12.7v19.36h-9.79v-18.15c0-4.29-1.1-5.55-3.57-5.55-1.43,0-3.13.88-5,2.8v20.9h-9.84v-18.15c0-4.29-1.1-5.55-3.58-5.55-1.43,0-3.13.88-5,2.8v20.9H0v-31.29Z"/>
      <path d="M52.79,39.46c0-2.97,2.31-5.06,5.61-5.06s5.55,2.09,5.55,5.06-2.31,5-5.55,5-5.61-2.09-5.61-5ZM53.5,48.8h9.73v31.29h-9.73v-31.29Z"/>
      <path d="M70.34,48.8h7.97l.66,3.9h.22c2.58-2.53,5.77-4.67,10.01-4.67,6.82,0,9.73,4.89,9.73,12.7v19.36h-9.79v-18.15c0-4.29-1.16-5.55-3.63-5.55-2.2,0-3.52.99-5.44,2.8v20.9h-9.73v-31.29Z"/>
      <path d="M106.96,68.49v-12.04h-4.23v-7.26l4.79-.38,1.1-8.25h8.14v8.25h7.37v7.64h-7.37v11.93c0,3.46,1.65,4.84,3.96,4.84.99,0,2.09-.33,2.86-.55l1.54,7.04c-1.65.5-3.91,1.16-7.09,1.16-7.86,0-11.05-4.95-11.05-12.37Z"/>
      <path d="M127.26,64.48c0-10.39,7.37-16.44,15.34-16.44s15.29,6.05,15.29,16.44-7.37,16.39-15.29,16.39-15.34-6.05-15.34-16.39ZM147.88,64.48c0-5.22-1.65-8.52-5.28-8.52s-5.33,3.3-5.33,8.52,1.65,8.47,5.33,8.47,5.28-3.3,5.28-8.47Z"/>
      <path d="M163.39,36.16h9.51v24.53h.22l9.51-11.88h10.61l-11.05,12.92,11.82,18.37h-10.61l-6.76-11.88-3.74,4.23v7.64h-9.51v-43.94Z"/>
      <path d="M197.07,68.16v-19.36h9.79v18.15c0,4.34,1.16,5.55,3.63,5.55,2.2,0,3.57-.88,5.22-3.19v-20.51h9.79v31.29h-7.97l-.71-4.29h-.22c-2.58,3.08-5.5,5.06-9.79,5.06-6.82,0-9.73-4.89-9.73-12.7Z"/>
      <path d="M257.76,46.51c-.81-.32-1.75-.54-2.61-.54-1.76,0-2.83.95-2.83,3.51v1.21h4.54v6.25h-4.54v19.35h-8.01v-19.35h-3.42v-5.94l3.42-.27v-1.04c0-5.4,2.56-9.99,9.67-9.99,2.25,0,4.05.45,5.22.9l-1.44,5.9Z"/>
      <path d="M258.85,63.52c0-8.5,6.03-13.45,12.55-13.45s12.51,4.95,12.51,13.45-6.03,13.41-12.51,13.41-12.55-4.95-12.55-13.41ZM275.73,63.52c0-4.27-1.35-6.97-4.32-6.97s-4.36,2.7-4.36,6.97,1.35,6.93,4.36,6.93,4.32-2.7,4.32-6.93Z"/>
      <path d="M288.54,50.69h6.53l.54,4.46h.18c1.89-3.42,4.72-5.08,7.29-5.08,1.53,0,2.38.22,3.1.54l-1.35,6.88c-.9-.22-1.67-.41-2.79-.41-1.89,0-4.18,1.21-5.54,4.59v14.62h-7.96v-25.6Z"/>
      <path d="M326.79,73.55h-.18l-.63,2.74h-6.25v-35.95h7.96v8.64l-.18,3.83c1.89-1.71,4.28-2.75,6.62-2.75,6.12,0,10.03,5.13,10.03,12.96,0,8.86-5.26,13.9-10.75,13.9-2.25,0-4.59-1.12-6.62-3.38ZM335.93,63.2c0-4.5-1.3-6.62-4.14-6.62-1.49,0-2.7.68-4.09,2.16v10.12c1.26,1.12,2.61,1.48,3.82,1.48,2.43,0,4.41-2.02,4.41-7.15Z"/>
      <path d="M348.32,43.04c0-2.43,1.89-4.14,4.59-4.14s4.54,1.71,4.54,4.14-1.89,4.09-4.54,4.09-4.59-1.71-4.59-4.09ZM348.9,50.69h7.96v25.6h-7.96v-25.6Z"/>
      <path d="M361.25,72.02l10.39-15.07h-9.22v-6.25h19.21v4.28l-10.39,15.07h10.71v6.25h-20.7v-4.27Z"/>
      <path d="M412.39,43.08c-.28,1.2-.6,2.68-.84,3.8-.2,1.08-.44,2.16-.68,3.2,1.04-.08,1.96-.12,2.68-.12,4.56,0,7.56,2.16,7.56,8.08,0,4.64-.52,11-2.2,14.52-1.36,2.84-3.68,3.84-6.92,3.84-1.52,0-3.4-.24-4.8-.56l-1.04-6.32c1.44.4,3.84.84,4.84.84,1.24,0,2.16-.44,2.68-1.52,1-1.96,1.48-6.48,1.48-10.16,0-2.88-1.2-3.24-3.68-3.24-.44,0-1.12.04-1.84.08-1.6,6.16-4.56,15.68-7.92,21.12l-6.28-2.52c3.76-5.08,6.32-12.48,7.8-17.88-1.04.16-1.92.28-2.48.36-1.28.16-3.56.48-4.88.72l-.52-6.44c1.52.12,3.04.04,4.6,0,1.16-.04,2.8-.16,4.56-.28.56-3.08.84-5.84.76-8.28l7.12.76ZM426.47,47.32c2.36,3.76,5.32,10.6,6.4,14.24l-6.12,2.84c-.96-4.6-3.6-11.64-6.48-15.32l3.48-1.44c-.8-1.56-1.8-3.52-2.72-4.88l3.76-1.52c1,1.48,2.4,4.08,3.12,5.48l-1.44.6ZM429.11,46.36c-.8-1.64-2.08-4-3.16-5.52l3.76-1.52c1.04,1.52,2.48,4.08,3.16,5.44l-3.76,1.6Z"/>
      <path d="M475.07,75.54c2.85-.1,5.55-.25,7.8-.45-.75,1.6-1.8,4.75-2.15,6.75-6.75.35-17.95.45-24.55.15-5.8-.25-9.6-1.6-12.55-5.45-1.75,1.9-3.6,3.7-5.95,5.9l-3.35-6.95c1.7-1.15,3.65-2.55,5.45-4.05v-9.95h-4.65v-6.7h11.4v16.05c1.25,2.3,3.25,3.65,6.05,4.3-1.35-1.25-3.3-2.8-4.55-3.65,2.9-.75,5.9-1.8,8.05-3h-8.3v-5.25h7.65v-2.55h-6.25v-5.15h6.25v-2.15h6.8v2.15h4.45v-2.15h6.9v2.15h6.45v5.15h-6.45v2.55h8v5.25h-8.45c3.2,1.55,6.7,3.35,8.75,4.7l-6.8,2.35ZM440.71,48.84c-1.05-2.4-3.85-6.05-6.25-8.65l5.75-3.6c2.45,2.4,5.45,5.75,6.7,8.2l-6.2,4.05ZM457.07,41.19h-8.85v-4.45h14.9v10.35h-2.55c1.1.7,3.2,1.35,4.7,1.65-.6,3.5-2.15,4.5-5.5,4.5h-4.65c-4.9,0-6.25-1.35-6.25-5.95v-4.7h8.2v-1.4ZM463.67,69.89c-2.35,2.15-6.1,4.2-9.4,5.55.6.05,1.25.1,1.9.15,4.35.2,11.4.2,17.9,0-1.9-1.45-5.15-3.55-8.2-5.05l3.7-2.05h-9.95l4.05,1.4ZM459.02,48.54c.85,0,1.1-.25,1.3-1.45h-5.55v.15c0,1.15.2,1.3,1.3,1.3h2.95ZM462.22,63.24h4.45v-2.55h-4.45v2.55ZM473.62,41.19h-9.2v-4.45h15.35v10.35h-2.75c1.1.7,3.2,1.35,4.7,1.65-.6,3.5-2.15,4.5-5.5,4.5h-4.65c-4.9,0-6.25-1.35-6.25-5.95v-4.7h8.3v-1.4ZM475.47,48.54c.85,0,1.1-.25,1.3-1.45h-5.55v.15c0,1.15.2,1.3,1.3,1.3h2.95Z"/>
      <path d="M497.63,40.09c-.45,1.1-1.15,4.15-1.35,5.05-.6,2.55-2.3,14.1-2.3,18.7,0,.15,0,.95.05,1.15.6-1.45,1.2-2.4,1.85-3.85l3.65,2.9c-1.5,4.45-3,9.45-3.6,12.3-.15.7-.3,1.85-.3,2.35,0,.55,0,1.45.05,2.25l-6.75.45c-1.05-3.35-2.05-9.15-2.05-15.85,0-7.6,1.4-16.9,1.95-20.55.2-1.5.5-3.75.55-5.6l8.25.7ZM528.38,53.74c-2.2.3-4.65.6-7.25.8.1,4.5.35,8.05.5,10.95,4.25,1.75,7.3,4.35,9.5,6.4l-4.05,6.3c-1.85-1.75-3.6-3.25-5.3-4.5-.65,4.65-3.7,7.55-10.2,7.55-6.95,0-11.55-3-11.55-8.6s4.55-9.1,11.45-9.1c.85,0,1.7.05,2.5.1-.15-2.6-.3-5.65-.35-8.75-.95.05-1.9.05-2.8.05-2.95,0-5.9-.1-8.85-.3l-.05-7.15c2.9.3,5.85.45,8.85.45.95,0,1.85,0,2.8-.05-.05-2.3-.05-4.15-.1-5.05,0-.75-.2-2.35-.4-3.4h8.55c-.15.95-.25,2.2-.3,3.3-.05.95-.1,2.6-.15,4.65,2.5-.25,4.95-.65,7.2-1.1v7.45ZM514.23,69.79c-1.1-.3-2.2-.45-3.35-.45-2.3,0-3.85.9-3.85,2.45,0,1.75,1.75,2.35,3.85,2.35,2.4,0,3.35-1.3,3.35-4v-.35ZM524.18,45.14c-.7-2.2-1.4-4.75-2.4-6.85l3.95-1.2c.95,2.05,1.95,4.85,2.45,6.75l-4,1.3ZM529.58,43.44c-.7-2.15-1.55-4.7-2.55-6.75l3.95-1.25c.95,2.05,2,4.9,2.55,6.75l-3.95,1.25Z"/>
      <path d="M581.43,76c-2.1,1.85-5.05,3.5-9.45,3.5-3.95,0-6.6-3-6.6-8.2s1.75-12.05,1.75-16.4c0-2.2-1.15-3.4-3-3.4-3.4,0-8.45,4.4-12.25,8.6-.05,1.05-.05,2.1-.05,3.1,0,3.75,0,8.6.35,13.35.05.9.25,3.05.4,4.25h-8.2c.1-1.25.15-3.3.15-4.1.05-3,.1-5.6.2-8.75-1.9,2.75-3.9,5.8-5.25,7.65l-4.65-6.6c2.8-3.45,7.45-9.45,10.4-13.7l.15-2.65c-2.55.3-6,.75-8.65,1.1l-.75-7.65c1.6.05,2.85.05,4.9-.05,1.35-.1,3.15-.25,5-.55.1-1.55.15-2.8.15-3.3,0-1.55.05-3.15-.25-4.85l8.7.25c-.35,1.55-.75,4.05-1.15,7.05l1.9,2.5c-.65.85-1.8,2.6-2.7,3.9v.15c3.9-3.25,9.25-6.85,13.9-6.85,5.75,0,8.3,3.45,8.3,7.7,0,5.2-1.55,11.8-1.55,17,0,1.1.6,1.7,1.55,1.7,1.4,0,3.6-1.05,5.75-3.2l.95,8.45Z"/>
      <path d="M619.72,44.14c-1.3.8-2.55,1.55-3.8,2.4-2.8,1.9-7.15,5.45-9.85,7.55,1.3-.25,2.25-.3,3.45-.3,8.5,0,15.2,5.45,15.2,12.9s-5.6,14.5-18.4,14.5c-7,0-12.8-3.25-12.8-8.7,0-4.35,4-8.4,9.6-8.4,6.05,0,9.95,3.5,10.8,8.2,1.95-1.35,2.9-3.3,2.9-5.7,0-4.25-4.35-6.9-9.8-6.9-7.25,0-12.45,4.35-17.2,10.15l-5.45-5.65c3.2-2.5,8.95-7.4,11.9-9.8,2.75-2.3,7.35-5.85,9.75-8-2.5.05-7.6.25-10.25.45-1.5.1-3.25.25-4.45.45l-.25-7.75c1.55.2,3.4.3,5.05.3,2.65,0,12.55-.15,15.5-.4,2.35-.2,3.75-.4,4.4-.6l3.7,5.3ZM607.02,74.29c-.25-2.75-1.75-4.5-3.85-4.5-1.6,0-2.55.95-2.55,1.95,0,1.55,1.65,2.65,4.15,2.65.8,0,1.55-.05,2.25-.1Z"/>
      <path class="cls-2" d="M631.12,100.2l12.3-16.8c6.75,6.45,14.55,10.8,23.25,10.8,10.35,0,17.1-4.35,17.1-12.75,0-9.6-5.1-15.3-28.5-15.3v-18.75c19.05,0,25.05-5.85,25.05-14.7,0-7.65-4.5-11.85-12.75-11.85-7.5,0-13.2,3.45-19.95,9.3l-13.5-16.35c10.35-8.7,21.45-13.8,34.65-13.8,23.1,0,38.25,10.8,38.25,30.75,0,11.1-6,19.8-18,24.6v.75c12.45,3.75,21.6,12.75,21.6,27.15,0,20.85-19.05,32.55-41.25,32.55-17.7,0-30.15-6.15-38.25-15.6Z"/>
      <path d="M726.49,49.61c3.24-.99,12.46-4.14,19.03-4.14,8.42,0,15.03,4.81,15.03,13.5,0,9.77-9.04,16.96-25.87,17.77l-3.15-7.2c12.28-.23,21.24-3.69,21.24-10.71,0-3.91-2.57-6.84-7.56-6.84-6.17,0-16.2,4.19-21.51,6.57l-3.01-7.56c1.62-.27,4.23-.94,5.8-1.39Z"/>
      <path d="M783.42,72.16c1.89-.22,3.11-.5,4.37-.81,5.67-1.39,9.45-5.36,9.45-11.21s-2.79-9.85-7.92-11.07c-.58,3.6-1.4,7.51-2.61,11.61-2.66,8.91-6.66,14.89-11.92,14.89s-9.72-5.98-9.72-13.59c0-10.58,9.13-19.57,21.06-19.57s18.54,7.83,18.54,17.95c0,9.36-5.53,16.24-17.14,18.18l-4.09-6.39ZM781.98,49.21c-6.62,1.8-9.9,7.78-9.9,12.06,0,3.87,1.35,5.9,2.88,5.9,1.8,0,3.15-2.7,4.72-7.88.99-3.01,1.75-6.57,2.29-10.08Z"/>
      <path d="M822.37,60.37c-2.16,4.05-6.3,10.03-8.68,12.64l-5.9-4c3.02-2.92,6.48-7.65,8.37-11.56l6.21,2.92ZM832.85,54.25v20.43c0,2.74-1.71,4.59-5.17,4.59-2.7,0-5.31-.09-7.83-.41l-.67-6.71c1.89.36,3.83.5,4.91.5s1.53-.36,1.57-1.53c.05-1.26.05-14.49.05-16.88h-10.8c-1.35,0-3.33.04-4.63.18v-7.15c1.39.18,3.24.36,4.63.36h10.8v-3.01c0-1.26-.23-3.46-.41-4.32h8.05c-.13.63-.5,3.15-.5,4.37v2.97h10.8c-2.75-.27-4.86-2.57-4.86-5.35,0-2.97,2.38-5.36,5.36-5.36s5.35,2.38,5.35,5.36c0,2.61-1.84,4.77-4.32,5.26.86-.09,1.62-.13,2.21-.22v7.11c-1.53-.13-3.51-.18-4.81-.18h-9.72ZM841.98,57.22c2.25,2.88,5.85,8.59,7.65,11.88l-6.39,3.51c-2.03-4.05-5.13-9.4-7.2-12.15l5.94-3.24ZM844.14,44.48c1.21,0,2.2-.99,2.2-2.2s-.99-2.21-2.2-2.21-2.21.99-2.21,2.21.99,2.2,2.21,2.2Z"/>
      <path d="M877.49,72.11c0,2.16.09,5.26.45,6.52h-8.64c.18-1.21.36-4.36.36-6.52v-13.54c-4.54,2.25-9.81,4.36-14.71,5.67l-3.87-6.62c8.05-1.67,15.61-4.95,20.65-8.1,4.54-2.83,9.18-6.84,11.74-10.26l5.85,5.26c-3.6,3.51-7.51,6.84-11.83,9.63v17.95Z"/>
      <path d="M910.92,65.77c8.1-4.68,14.17-11.65,17.19-18l4.23,7.69c-3.6,6.39-9.99,12.64-17.5,17.05-4.59,2.7-10.44,5.04-16.11,5.94l-4.63-7.2c6.61-.9,12.42-2.92,16.83-5.49ZM912.45,51.05l-5.58,5.71c-2.38-2.61-8.05-7.56-11.29-9.85l5.17-5.54c3.11,2.12,9,6.79,11.7,9.67Z"/>
      <path d="M964.71,66.67c-4.54-2.34-10.71-4.72-15.48-6.44v11.57c0,1.21.27,4.77.5,6.79h-8.55c.32-1.93.54-4.95.54-6.79v-25.69c0-1.8-.18-4.14-.54-5.85h8.5c-.18,1.71-.45,3.69-.45,5.85v6.17c6.08,1.75,14.8,4.95,18.58,6.79l-3.1,7.61Z"/>
      <path d="M979.47,71.89c0-2.79,2.25-4.95,5.31-4.95s5.31,2.16,5.31,4.95-2.25,4.95-5.31,4.95-5.31-2.07-5.31-4.95ZM980.15,50.11l-.27-7.47h9.85l-.27,7.47-1.84,14.22h-5.62l-1.84-14.22Z"/>
    </g>
  </g>
</svg>