<?xml version="1.0" encoding="UTF-8"?>
<svg id="_レイヤー_2" data-name="レイヤー 2" xmlns="http://www.w3.org/2000/svg" viewBox="0 0 652.56 207.6">
  <defs>
    <style>
      .cls-1 {
        fill: none;
        isolation: isolate;
        stroke: #000;
        stroke-miterlimit: 10;
        stroke-width: 4px;
      }

      .cls-2 {
        fill: red;
      }
    </style>
  </defs>
  <g id="_レイヤー_1-2" data-name="レイヤー 1">
    <line class="cls-1" x1="61.83" y1="190.58" x2="591.83" y2="190.58"/>
    <g>
      <path d="M0,15.72h8.7l.72,4.32h.24c2.82-2.82,5.76-5.16,10.38-5.16s7.62,1.98,9.36,5.64c2.94-3,6.12-5.64,10.68-5.64,7.44,0,10.68,5.34,10.68,13.86v21.12h-10.68v-19.8c0-4.68-1.2-6.06-3.9-6.06-1.56,0-3.42.96-5.46,3.06v22.8h-10.74v-19.8c0-4.68-1.2-6.06-3.9-6.06-1.56,0-3.42.96-5.46,3.06v22.8H0V15.72Z"/>
      <path d="M57.51,5.52c0-3.24,2.52-5.52,6.12-5.52s6.06,2.28,6.06,5.52-2.52,5.46-6.06,5.46-6.12-2.28-6.12-5.46ZM58.29,15.72h10.62v34.14h-10.62V15.72Z"/>
      <path d="M76.57,15.72h8.7l.72,4.26h.24c2.82-2.76,6.3-5.1,10.92-5.1,7.44,0,10.62,5.34,10.62,13.86v21.12h-10.68v-19.8c0-4.68-1.26-6.06-3.96-6.06-2.4,0-3.84,1.08-5.94,3.06v22.8h-10.62V15.72Z"/>
      <path d="M116.44,37.2v-13.14h-4.62v-7.92l5.22-.42,1.2-9h8.88v9h8.04v8.34h-8.04v13.02c0,3.78,1.8,5.28,4.32,5.28,1.08,0,2.28-.36,3.12-.6l1.68,7.68c-1.8.54-4.26,1.26-7.74,1.26-8.58,0-12.06-5.4-12.06-13.5Z"/>
      <path d="M138.51,32.82c0-11.34,8.04-17.94,16.74-17.94s16.68,6.6,16.68,17.94-8.04,17.88-16.68,17.88-16.74-6.6-16.74-17.88ZM161.01,32.82c0-5.7-1.8-9.3-5.76-9.3s-5.82,3.6-5.82,9.3,1.8,9.24,5.82,9.24,5.76-3.6,5.76-9.24Z"/>
      <path d="M177.84,1.92h10.38v26.76h.24l10.38-12.96h11.58l-12.06,14.1,12.9,20.04h-11.58l-7.38-12.96-4.08,4.62v8.34h-10.38V1.92Z"/>
      <path d="M214.5,36.84V15.72h10.68v19.8c0,4.74,1.26,6.06,3.96,6.06,2.4,0,3.9-.96,5.7-3.48V15.72h10.68v34.14h-8.7l-.78-4.68h-.24c-2.82,3.36-6,5.52-10.68,5.52-7.44,0-10.62-5.34-10.62-13.86Z"/>
      <path d="M281.56,14.37c-.81-.32-1.75-.54-2.61-.54-1.76,0-2.83.94-2.83,3.51v1.21h4.54v6.25h-4.54v19.35h-8.01v-19.35h-3.42v-5.94l3.42-.27v-1.04c0-5.4,2.56-9.99,9.67-9.99,2.25,0,4.05.45,5.22.9l-1.44,5.89Z"/>
      <path d="M282.66,31.38c0-8.5,6.03-13.45,12.55-13.45s12.51,4.95,12.51,13.45-6.03,13.41-12.51,13.41-12.55-4.95-12.55-13.41ZM299.53,31.38c0-4.27-1.35-6.97-4.32-6.97s-4.37,2.7-4.37,6.97,1.35,6.93,4.37,6.93,4.32-2.7,4.32-6.93Z"/>
      <path d="M312.35,18.55h6.53l.54,4.46h.18c1.89-3.42,4.72-5.08,7.29-5.08,1.53,0,2.38.22,3.1.54l-1.35,6.88c-.9-.23-1.67-.41-2.79-.41-1.89,0-4.18,1.21-5.54,4.59v14.62h-7.96v-25.6Z"/>
      <path d="M350.6,41.41h-.18l-.63,2.75h-6.25V8.2h7.96v8.64l-.18,3.83c1.89-1.71,4.28-2.75,6.62-2.75,6.12,0,10.03,5.13,10.03,12.96,0,8.87-5.26,13.9-10.75,13.9-2.25,0-4.59-1.12-6.62-3.37ZM359.73,31.06c0-4.5-1.3-6.62-4.14-6.62-1.49,0-2.7.67-4.09,2.16v10.12c1.26,1.12,2.61,1.49,3.82,1.49,2.43,0,4.41-2.02,4.41-7.15Z"/>
      <path d="M372.12,10.9c0-2.43,1.89-4.14,4.59-4.14s4.54,1.71,4.54,4.14-1.89,4.09-4.54,4.09-4.59-1.71-4.59-4.09ZM372.71,18.55h7.96v25.6h-7.96v-25.6Z"/>
      <path d="M385.05,39.88l10.39-15.07h-9.22v-6.25h19.21v4.27l-10.39,15.08h10.71v6.25h-20.7v-4.28Z"/>
      <path d="M423.66,12.95c-.24,1.05-.52,2.34-.73,3.33-.17.95-.39,1.89-.6,2.8.91-.07,1.72-.11,2.35-.11,3.99,0,6.62,1.89,6.62,7.07,0,4.06-.46,9.63-1.92,12.71-1.19,2.48-3.22,3.36-6.06,3.36-1.33,0-2.98-.21-4.2-.49l-.91-5.53c1.26.35,3.36.73,4.24.73,1.08,0,1.89-.38,2.34-1.33.88-1.71,1.3-5.67,1.3-8.89,0-2.52-1.05-2.84-3.22-2.84-.38,0-.98.04-1.61.07-1.4,5.39-3.99,13.72-6.93,18.48l-5.5-2.21c3.29-4.45,5.53-10.92,6.83-15.65-.91.14-1.68.24-2.17.31-1.12.14-3.12.42-4.27.63l-.46-5.64c1.33.11,2.66.04,4.03,0,1.02-.04,2.45-.14,3.99-.24.49-2.7.74-5.11.67-7.25l6.23.67ZM435.98,16.66c2.07,3.29,4.66,9.28,5.6,12.46l-5.36,2.49c-.84-4.03-3.15-10.19-5.67-13.41l3.04-1.26c-.7-1.37-1.58-3.08-2.38-4.27l3.29-1.33c.88,1.29,2.1,3.57,2.73,4.79l-1.26.53ZM438.29,15.82c-.7-1.44-1.82-3.5-2.76-4.83l3.29-1.33c.91,1.33,2.17,3.57,2.76,4.76l-3.29,1.4Z"/>
      <path d="M488.23,45.04c3.13-.11,6.1-.27,8.58-.49-.83,1.76-1.98,5.22-2.37,7.42-7.42.38-19.74.49-27,.17-6.38-.28-10.56-1.76-13.8-5.99-1.92,2.09-3.96,4.07-6.54,6.49l-3.68-7.64c1.87-1.26,4.01-2.8,5.99-4.45v-10.94h-5.11v-7.37h12.54v17.65c1.38,2.53,3.58,4.01,6.65,4.73-1.48-1.38-3.63-3.08-5-4.01,3.19-.83,6.49-1.98,8.85-3.3h-9.13v-5.77h8.41v-2.8h-6.87v-5.66h6.87v-2.37h7.48v2.37h4.89v-2.37h7.59v2.37h7.09v5.66h-7.09v2.8h8.8v5.77h-9.29c3.52,1.71,7.37,3.68,9.62,5.17l-7.48,2.58ZM450.45,15.68c-1.15-2.64-4.23-6.65-6.87-9.51l6.32-3.96c2.69,2.64,5.99,6.32,7.37,9.02l-6.82,4.46ZM468.43,7.26h-9.73V2.37h16.39v11.38h-2.8c1.21.77,3.52,1.49,5.17,1.82-.66,3.85-2.37,4.95-6.05,4.95h-5.11c-5.39,0-6.87-1.49-6.87-6.54v-5.17h9.02v-1.54ZM475.69,38.83c-2.58,2.36-6.71,4.62-10.34,6.1.66.05,1.38.11,2.09.17,4.78.22,12.54.22,19.69,0-2.09-1.59-5.67-3.91-9.02-5.55l4.07-2.25h-10.94l4.46,1.54ZM470.58,15.35c.93,0,1.21-.28,1.43-1.6h-6.1v.17c0,1.26.22,1.43,1.43,1.43h3.25ZM474.09,31.52h4.89v-2.8h-4.89v2.8ZM486.63,7.26h-10.12V2.37h16.88v11.38h-3.02c1.21.77,3.52,1.49,5.17,1.82-.66,3.85-2.36,4.95-6.05,4.95h-5.11c-5.39,0-6.87-1.49-6.87-6.54v-5.17h9.13v-1.54ZM488.67,15.35c.94,0,1.21-.28,1.43-1.6h-6.1v.17c0,1.26.22,1.43,1.43,1.43h3.24Z"/>
      <path d="M512.97,6.05c-.5,1.21-1.26,4.56-1.49,5.55-.66,2.8-2.53,15.51-2.53,20.57,0,.17,0,1.04.05,1.26.66-1.59,1.32-2.64,2.04-4.23l4.01,3.19c-1.65,4.89-3.3,10.39-3.96,13.53-.17.77-.33,2.03-.33,2.58,0,.61,0,1.59.06,2.47l-7.42.5c-1.16-3.68-2.25-10.06-2.25-17.43,0-8.36,1.54-18.59,2.14-22.6.22-1.65.55-4.12.6-6.16l9.07.77ZM546.79,21.07c-2.42.33-5.11.66-7.97.88.11,4.95.38,8.85.55,12.04,4.67,1.92,8.03,4.78,10.45,7.04l-4.45,6.93c-2.04-1.92-3.96-3.57-5.83-4.95-.71,5.11-4.07,8.3-11.22,8.3-7.64,0-12.7-3.3-12.7-9.46s5-10.01,12.59-10.01c.94,0,1.87.05,2.75.11-.17-2.86-.33-6.21-.38-9.62-1.04.05-2.09.05-3.08.05-3.24,0-6.49-.11-9.73-.33l-.05-7.86c3.19.33,6.43.5,9.73.5,1.04,0,2.04,0,3.08-.05-.06-2.53-.06-4.56-.11-5.55,0-.82-.22-2.58-.44-3.74h9.4c-.17,1.04-.28,2.42-.33,3.63-.05,1.04-.11,2.86-.17,5.11,2.75-.27,5.44-.71,7.92-1.21v8.19ZM531.23,38.72c-1.21-.33-2.42-.49-3.68-.49-2.53,0-4.23.99-4.23,2.69,0,1.92,1.92,2.58,4.23,2.58,2.64,0,3.68-1.43,3.68-4.4v-.39ZM542.17,11.61c-.77-2.42-1.54-5.22-2.64-7.53l4.34-1.32c1.04,2.25,2.14,5.33,2.69,7.42l-4.4,1.43ZM548.11,9.74c-.77-2.37-1.71-5.17-2.8-7.42l4.34-1.38c1.04,2.25,2.2,5.39,2.8,7.42l-4.34,1.38Z"/>
      <path d="M605.04,45.54c-2.31,2.04-5.55,3.85-10.39,3.85-4.34,0-7.26-3.3-7.26-9.02s1.92-13.25,1.92-18.04c0-2.42-1.26-3.74-3.3-3.74-3.74,0-9.29,4.84-13.47,9.46-.05,1.15-.05,2.31-.05,3.41,0,4.12,0,9.46.38,14.68.05.99.27,3.35.44,4.67h-9.02c.11-1.37.17-3.63.17-4.51.05-3.3.11-6.16.22-9.62-2.09,3.02-4.29,6.38-5.77,8.41l-5.11-7.26c3.08-3.79,8.19-10.39,11.44-15.07l.17-2.92c-2.8.33-6.6.83-9.51,1.21l-.82-8.41c1.76.06,3.13.06,5.39-.05,1.49-.11,3.46-.28,5.5-.61.11-1.7.17-3.08.17-3.63,0-1.71.06-3.46-.27-5.33l9.57.27c-.38,1.71-.82,4.45-1.26,7.75l2.09,2.75c-.71.93-1.98,2.86-2.97,4.29v.17c4.29-3.57,10.17-7.53,15.29-7.53,6.32,0,9.13,3.79,9.13,8.47,0,5.72-1.71,12.98-1.71,18.7,0,1.21.66,1.87,1.71,1.87,1.54,0,3.96-1.15,6.32-3.52l1.04,9.29Z"/>
      <path d="M647.06,10.51c-1.43.88-2.8,1.71-4.18,2.64-3.08,2.09-7.86,5.99-10.83,8.3,1.43-.27,2.47-.33,3.79-.33,9.35,0,16.72,5.99,16.72,14.19s-6.16,15.95-20.24,15.95c-7.7,0-14.08-3.57-14.08-9.57,0-4.79,4.4-9.24,10.56-9.24,6.65,0,10.94,3.85,11.88,9.02,2.14-1.48,3.19-3.63,3.19-6.27,0-4.67-4.78-7.59-10.78-7.59-7.97,0-13.69,4.78-18.92,11.16l-5.99-6.21c3.52-2.75,9.84-8.14,13.09-10.78,3.02-2.53,8.08-6.43,10.72-8.8-2.75.05-8.36.28-11.27.5-1.65.11-3.57.27-4.89.5l-.27-8.52c1.7.22,3.74.33,5.55.33,2.92,0,13.8-.17,17.05-.44,2.58-.22,4.12-.44,4.84-.66l4.07,5.83ZM633.09,43.67c-.27-3.02-1.92-4.95-4.23-4.95-1.76,0-2.8,1.04-2.8,2.15,0,1.7,1.82,2.91,4.56,2.91.88,0,1.71-.05,2.47-.11Z"/>
      <path class="cls-2" d="M94.64,190.96l13.12-17.92c7.2,6.88,15.52,11.52,24.8,11.52,11.04,0,18.24-4.64,18.24-13.6,0-10.24-5.44-16.32-30.4-16.32v-20c20.32,0,26.72-6.24,26.72-15.68,0-8.16-4.8-12.64-13.6-12.64-8,0-14.08,3.68-21.28,9.92l-14.4-17.44c11.04-9.28,22.88-14.72,36.96-14.72,24.64,0,40.8,11.52,40.8,32.8,0,11.84-6.4,21.12-19.2,26.24v.8c13.28,4,23.04,13.6,23.04,28.96,0,22.24-20.32,34.72-44,34.72-18.88,0-32.16-6.56-40.8-16.64Z"/>
      <path d="M205.52,135.35c3.96-1.21,15.23-5.06,23.26-5.06,10.28,0,18.37,5.88,18.37,16.5,0,11.93-11.05,20.73-31.62,21.72l-3.85-8.8c15.01-.28,25.96-4.51,25.96-13.09,0-4.79-3.13-8.36-9.24-8.36-7.53,0-19.8,5.12-26.29,8.03l-3.68-9.24c1.98-.33,5.17-1.16,7.09-1.71Z"/>
      <path d="M277.68,162.9c2.31-.28,3.79-.6,5.33-.99,6.93-1.7,11.55-6.54,11.55-13.69s-3.41-12.04-9.68-13.53c-.72,4.4-1.71,9.18-3.19,14.19-3.24,10.89-8.14,18.2-14.57,18.2s-11.88-7.31-11.88-16.61c0-12.92,11.16-23.92,25.74-23.92s22.66,9.57,22.66,21.94c0,11.44-6.76,19.85-20.95,22.22l-5-7.81ZM275.92,134.85c-8.08,2.2-12.1,9.51-12.1,14.74,0,4.73,1.65,7.21,3.52,7.21,2.2,0,3.85-3.3,5.77-9.62,1.21-3.68,2.14-8.03,2.8-12.32Z"/>
      <path d="M327.84,148.49c-2.64,4.95-7.7,12.26-10.61,15.45l-7.2-4.89c3.68-3.57,7.92-9.35,10.23-14.13l7.59,3.57ZM340.65,141.01v24.97c0,3.35-2.09,5.61-6.32,5.61-3.3,0-6.49-.11-9.57-.5l-.82-8.19c2.31.44,4.67.61,5.99.61s1.87-.44,1.92-1.87c.05-1.54.05-17.71.05-20.62h-13.2c-1.65,0-4.07.05-5.66.22v-8.74c1.7.22,3.96.44,5.66.44h13.2v-3.68c0-1.54-.28-4.23-.5-5.28h9.84c-.17.77-.6,3.85-.6,5.33v3.63h13.2c-3.36-.33-5.94-3.13-5.94-6.54,0-3.63,2.91-6.54,6.54-6.54s6.54,2.91,6.54,6.54c0,3.19-2.25,5.83-5.28,6.44,1.04-.11,1.98-.17,2.69-.28v8.69c-1.87-.17-4.29-.22-5.88-.22h-11.88ZM351.81,144.64c2.75,3.52,7.15,10.5,9.35,14.52l-7.81,4.29c-2.47-4.95-6.27-11.49-8.8-14.85l7.26-3.96ZM354.45,129.08c1.48,0,2.69-1.21,2.69-2.7s-1.21-2.69-2.69-2.69-2.69,1.21-2.69,2.69,1.21,2.7,2.69,2.7Z"/>
      <path d="M397.75,162.84c0,2.64.11,6.43.55,7.97h-10.56c.22-1.49.44-5.33.44-7.97v-16.55c-5.55,2.75-11.99,5.33-17.98,6.93l-4.73-8.08c9.84-2.04,19.08-6.05,25.24-9.9,5.55-3.46,11.22-8.36,14.35-12.54l7.15,6.43c-4.4,4.29-9.18,8.36-14.46,11.77v21.94Z"/>
      <path d="M441.1,155.09c9.9-5.72,17.32-14.24,21.01-22l5.17,9.4c-4.4,7.81-12.21,15.45-21.39,20.84-5.61,3.3-12.76,6.16-19.69,7.26l-5.66-8.8c8.08-1.1,15.18-3.57,20.57-6.71ZM442.97,137.11l-6.82,6.98c-2.92-3.19-9.84-9.24-13.8-12.04l6.32-6.76c3.79,2.58,11,8.3,14.3,11.82Z"/>
      <path d="M509.3,156.19c-5.55-2.86-13.09-5.77-18.92-7.86v14.13c0,1.48.33,5.83.6,8.3h-10.45c.38-2.36.66-6.05.66-8.3v-31.4c0-2.2-.22-5.06-.66-7.15h10.39c-.22,2.09-.55,4.51-.55,7.15v7.53c7.42,2.14,18.09,6.05,22.71,8.3l-3.79,9.29Z"/>
      <path d="M529.73,162.57c0-3.41,2.75-6.05,6.49-6.05s6.49,2.64,6.49,6.05-2.75,6.05-6.49,6.05-6.49-2.53-6.49-6.05ZM530.55,135.95l-.33-9.13h12.04l-.33,9.13-2.25,17.38h-6.87l-2.25-17.38Z"/>
    </g>
  </g>
</svg>