<?xml version="1.0" encoding="UTF-8"?>
<svg id="_レイヤー_2" data-name="レイヤー 2" xmlns="http://www.w3.org/2000/svg" viewBox="0 0 710 495">
  <defs>
    <style>
      .cls-1 {
        fill: #5c7fff;
      }

      .cls-2 {
        fill: #7c8a4f;
      }

      .cls-3 {
        fill: gray;
      }

      .cls-4 {
        fill: #e6e6e6;
      }

      .cls-5 {
        fill: #72aad3;
      }

      .cls-6 {
        fill: #b8d0d8;
      }

      .cls-7 {
        fill: #a67c52;
      }

      .cls-8 {
        fill: #597496;
      }

      .cls-9 {
        fill: #e87b0f;
      }

      .cls-10 {
        fill: #776255;
      }

      .cls-11 {
        fill: #e8a47e;
      }

      .cls-12 {
        fill: #4d4d4d;
      }

      .cls-13 {
        fill: #ccc;
      }

      .cls-14, .cls-15 {
        isolation: isolate;
      }

      .cls-16 {
        fill: #7ebdce;
      }

      .cls-17 {
        fill: #8e5e3d;
      }

      .cls-18, .cls-15 {
        fill: #fff;
      }

      .cls-19 {
        fill: #917863;
      }

      .cls-20 {
        fill: #e87a0c;
      }

      .cls-21 {
        fill: #f7931e;
      }

      .cls-22 {
        fill: #ab7146;
      }

      .cls-15 {
        stroke: #0079b9;
        stroke-miterlimit: 10;
        stroke-width: 4px;
      }

      .cls-23 {
        fill: #9ec5e8;
      }

      .cls-24 {
        fill: #f7c29e;
      }

      .cls-25 {
        fill: #0079b9;
      }

      .cls-26 {
        fill: #909b62;
      }

      .cls-27 {
        fill: #999;
      }

      .cls-28 {
        fill: #998675;
      }
    </style>
  </defs>
  <g id="_レイヤー_1-2" data-name="レイヤー 1">
    <g>
      <g class="cls-14">
        <rect class="cls-18" x="2" y="17" width="706" height="476"/>
        <path class="cls-25" d="M706,19v472H4V19h702M710,15H0v480h710V15h0Z"/>
      </g>
      <g>
        <rect class="cls-18" x="27.5" width="106.59" height="106.59"/>
        <polyline class="cls-15" points="113.01 67.39 122.71 67.39 122.71 12.42 38.87 12.42 38.87 67.39 47.72 67.39"/>
        <g class="cls-14">
          <g>
            <path class="cls-25" d="M54.77,39.78c.09-.6.12-1.19.12-2.03v-7.95c0-.75-.03-1.31-.12-2.01.66.03,1.15.04,2.01.04h3.13c1.48,0,2.57.37,3.3,1.1.62.62.95,1.54.95,2.64,0,1.18-.35,2.14-1.04,2.83-.75.76-1.84,1.13-3.26,1.13h-2.57v2.17c0,.84.03,1.47.12,2.06h-2.64ZM59.81,33.48c1.19,0,1.87-.66,1.87-1.82,0-.53-.15-.97-.44-1.26-.31-.34-.76-.48-1.42-.48h-2.51v3.57h2.51Z"/>
            <path class="cls-25" d="M75.2,29.11c1.1,1.09,1.69,2.73,1.69,4.66,0,3.79-2.26,6.27-5.7,6.27s-5.7-2.45-5.7-6.26,2.23-6.2,5.7-6.2c1.66,0,3,.5,4.01,1.53ZM74.37,33.78c0-1.44-.38-2.56-1.09-3.26-.54-.54-1.26-.82-2.08-.82-1.95,0-3.19,1.57-3.19,4.05s1.23,4.16,3.2,4.16,3.16-1.57,3.16-4.13Z"/>
            <path class="cls-25" d="M81.78,27.84c-.09.59-.12,1.04-.12,2.03v7.89c0,.94.03,1.45.12,2.03h-2.7c.09-.57.12-1.12.12-2.03v-7.89c0-1.01-.03-1.4-.12-2.03h2.7Z"/>
            <path class="cls-25" d="M91.39,34.56c.34.5.69,1.09,1,1.67-.04-.51-.09-1.29-.09-1.84v-4.45c0-.95-.03-1.48-.13-2.12h2.63c-.09.62-.12,1.19-.12,2.13v7.77c0,.87.03,1.5.12,2.04h-2.76c-.18-.4-.53-1-1-1.72l-3.38-5.02c-.29-.44-.54-.88-.94-1.64q.01.18.06.69c.01.25.04.87.04,1.16v4.29c0,1,.03,1.67.12,2.25h-2.61c.09-.53.12-1.22.12-2.26v-7.64c0-.81-.03-1.4-.12-2.04h2.73c.13.38.43.91.95,1.69l3.38,5.04Z"/>
            <path class="cls-25" d="M103.01,37.72c0,.84.03,1.42.12,2.06h-2.7c.09-.63.12-1.2.12-2.06v-7.72h-1.87c-.88,0-1.51.03-2.1.1v-2.36c.59.07,1.23.1,2.09.1h6.11c1.03,0,1.62-.03,2.22-.1v2.36c-.6-.07-1.16-.1-2.22-.1h-1.76v7.72Z"/>
          </g>
        </g>
      </g>
      <g class="cls-14">
        <path class="cls-25" d="M56.56,66.11c0-10.24,4.24-15.28,10.52-15.28s10.56,5.12,10.56,15.28-4.28,15.6-10.56,15.6-10.52-5.36-10.52-15.6ZM70.91,66.11c0-8.12-1.72-9.8-3.84-9.8s-3.8,1.68-3.8,9.8,1.68,10.08,3.8,10.08,3.84-1.92,3.84-10.08Z"/>
        <path class="cls-25" d="M80.96,77.07c7.44-6.76,12.44-12.16,12.44-16.48,0-2.72-1.52-4.2-3.88-4.2-2.04,0-3.64,1.36-5.04,2.88l-3.88-3.84c2.92-3.08,5.64-4.6,9.88-4.6,5.76,0,9.76,3.68,9.76,9.36,0,5.12-4.4,10.76-8.96,15.36,1.48-.2,3.52-.4,4.84-.4h5.48v6h-20.64v-4.08Z"/>
      </g>
    </g>
    <g class="cls-14">
      <path class="cls-25" d="M69.36,134.29v2.96h3.64v5.32h-3.64v7.24c0,2.76-.48,4.32-2.28,5.2-1.8.88-4.16,1-7.16,1-.2-1.68-.96-4.16-1.72-5.76,1.72.08,3.92.08,4.56.08s.84-.12.84-.64v-7.12h-6.76c1.48,1.64,3.16,3.68,3.96,5.12l-4.56,3c-.8-1.68-2.76-4.28-4.36-6.16l3.12-1.96h-4.16v-2l-3.12.96v14.56h-5.32v-13c-2,.6-3.92,1.16-5.64,1.64l-1.36-5.56c1.96-.4,4.36-1,7-1.68v-6.64h-2.08c-.4,1.76-.84,3.32-1.36,4.64-.88-.72-2.92-2.04-4.04-2.64,1.16-3.12,1.76-8.08,2.04-12.72l4.8.8c-.12,1.44-.28,2.92-.48,4.4h1.12v-7.24h5.32v7.24h2.88v3.6h8.4v-2.48h-6.72v-5.24h6.72v-3.16h5.76v3.16h7v5.24h-7v2.48h8.72v5.36h-4.12ZM63.61,134.29h-13.72v-3.44h-2.16v5.2l3.16-.84.32,2.04h12.4v-2.96Z"/>
      <path class="cls-25" d="M97.57,149.81c1.12.12,2.28.16,3.48.16,2.52,0,9.04,0,12.16-.12-.84,1.36-1.76,4.16-2.04,5.92h-10.44c-6.96,0-12.2-1.12-15.8-6.28-1.24,2.76-2.88,5.08-5,6.88-.96-1.04-3.44-3.12-4.8-4,4.28-3.04,6.16-8.52,6.76-15.2l6.08.6c-.2,1.72-.48,3.4-.84,4.96,1.04,2.64,2.52,4.32,4.36,5.4v-12.52h-7.76v-5.52h21.44v5.52h-7.6v4.08h10.48v5.44h-10.48v4.68ZM82.81,132.69h-5.72v-10.8h14.28v-3.72h6.24v3.72h14.4v10.8h-6v-5.32h-23.2v5.32Z"/>
      <path class="cls-25" d="M129.97,140.25c-1.32.36-2.64.68-4,1.04v8.56c0,2.64-.44,4.04-1.96,4.92-1.52.88-3.6,1.04-6.48,1.04-.2-1.48-.92-3.8-1.6-5.28,1.4.04,3.04.04,3.56.04.6,0,.76-.2.76-.76v-7.12l-3.4.8-1.44-5.56c1.4-.24,3.04-.56,4.84-.96v-6.16h-4.32v-5.36h4.32v-7.36h5.72v7.36h3.68v5.36h-3.68v4.88l3.32-.76.68,5.32ZM152.72,134.21c-1.44,5.64-3.84,10-7.12,13.44,2.48,1.52,5.36,2.72,8.68,3.48-1.24,1.16-2.88,3.52-3.68,5-3.76-1.08-6.92-2.64-9.64-4.64-2.92,1.92-6.28,3.4-10.04,4.48-.6-1.52-2-4-3.12-5.24,3.32-.72,6.28-1.84,8.84-3.36-2.08-2.44-3.76-5.36-5.16-8.68l1.84-.52h-2.56v-5.24h7.52v-4.12h-8.16v-5.32h8.16v-5.4h5.76v5.4h8.64v5.32h-8.64v4.12h3.96l.96-.2,3.76,1.48ZM137.13,138.17c1.04,2.16,2.36,4.12,4,5.88,1.76-1.72,3.16-3.64,4.24-5.88h-8.24Z"/>
      <path class="cls-25" d="M171.05,132.33c-.12-.6-.32-1.28-.56-2-5.2.36-10.44.72-14.52,1l-.44-5.48c.96-.04,2-.08,3.12-.12,1.04-2.48,2-5.48,2.56-7.92l6.08,1.24c-.84,2.2-1.76,4.44-2.68,6.44l3.76-.16c-.48-.96-.96-1.92-1.48-2.8l4.96-1.84c1.84,2.92,3.8,6.72,4.52,9.4v-11.8h5.8v5.08c2.24-.96,4.4-2.04,6.04-3.04l3.64,4.2c-2.96,1.44-6.44,2.68-9.68,3.64v1.44c0,1.48.2,1.64,1.52,1.64h3.28c1.16,0,1.4-.56,1.56-3.84,1.16.88,3.56,1.8,5.12,2.12-.6,5.36-2.12,6.88-6.12,6.88h-4.72c-5,0-6.32-1.52-6.44-6.16l-5.32,2.08ZM173.57,150.45c0,2.36-.44,3.76-1.96,4.6-1.52.88-3.4.96-5.76.96-.28-1.52-1.12-3.76-1.84-5.12,1.16.08,2.68.08,3.16.04.48,0,.64-.12.64-.6v-1.56h-4.56v7.28h-5.36v-23.4h15.68v17.8ZM163.25,137.37v1.36h4.56v-1.36h-4.56ZM167.81,144.53v-1.56h-4.56v1.56h4.56ZM187.12,150.81c1.24,0,1.48-.72,1.68-4.56,1.2.88,3.52,1.76,5.08,2.12-.6,5.8-2.08,7.48-6.2,7.48h-4.88c-5.16,0-6.44-1.64-6.44-6.68v-12.12h5.76v4.76c2.36-1.04,4.6-2.28,6.28-3.4l3.8,4.24c-3.04,1.6-6.68,3-10.08,4.12v2.36c0,1.52.24,1.68,1.6,1.68h3.4Z"/>
      <path class="cls-25" d="M207.09,145.57c0,1.56.76,1.96,2.48,2.28,1.16.16,2.56.2,4.24.2,4.16,0,10.8-.56,14.08-1.44v7.08c-3.96.56-10.04.8-14.48.8-2.72,0-5.16-.2-6.92-.48-3.68-.68-5.88-2.84-5.88-6.44v-21.64c0-.88-.12-3.32-.32-4.68h7.12c-.2,1.36-.32,3.52-.32,4.68v6.72c4.68-1.2,9.8-2.88,13.04-4.2,1.56-.6,3-1.28,4.84-2.36l2.56,6.12c-1.76.72-3.76,1.56-5.16,2.08-3.84,1.44-10,3.36-15.28,4.68v6.6ZM223.61,126.37c-.84-1.64-2-4-3.08-5.56l3.76-1.52c1,1.48,2.4,4.08,3.12,5.48l-3.8,1.6ZM229.2,117.37c1.04,1.52,2.48,4.08,3.16,5.44l-3.76,1.6c-.8-1.64-2.08-4-3.16-5.52l3.76-1.52Z"/>
      <path class="cls-25" d="M266.56,128.33c2.32,0,3.44-.08,4.84-.32v6.4c-1.12-.12-2.52-.12-4.8-.12h-2.16v1.28c0,9.48-2.44,15.84-12.4,20.2l-5.2-4.88c8-2.64,11.24-6.12,11.24-15.16v-1.44h-8.4v4.84c0,1.96.12,3.52.2,4.52h-6.76c.12-1,.24-2.56.24-4.52v-4.84h-2.88c-2.16,0-3.36.08-4.52.16v-6.56c.92.16,2.36.44,4.52.44h2.88v-3.32c0-1.64-.16-3.04-.28-4h6.88c-.12.96-.28,2.32-.28,4.04v3.28h8.4v-3.76c0-1.64-.08-2.96-.24-3.96h6.88l-.12,1.2,3.08-.96c.76,1.64,1.56,3.88,1.96,5.4l-3.2,1.04c-.56-1.68-1.08-3.68-1.88-5.32-.08.76-.12,1.6-.12,2.6v3.76h2.12ZM270.76,125.93c-.56-1.72-1.24-3.76-2.04-5.4l3.16-1c.76,1.64,1.6,3.92,2.04,5.4l-3.16,1Z"/>
      <path class="cls-25" d="M292.69,130.89c-.72,4.12-1.76,7.84-3.12,11.2,1.64,2.24,3.08,4.4,3.96,6.28l-4.64,3.96c-.56-1.32-1.36-2.8-2.36-4.4-2.04,3.16-4.6,5.8-7.68,7.88-.72-1.16-2.72-3.52-3.88-4.56,3.48-2,6.12-4.84,8.08-8.4-2.04-2.76-4.28-5.52-6.4-7.88l4.08-3.32c1.52,1.64,3.16,3.48,4.76,5.36.68-2.16,1.2-4.48,1.56-6.92l5.64.8ZM313.36,132.17h-4v16.88c0,3.12-.52,4.76-2.2,5.76-1.72,1-4.28,1.24-7.6,1.24-.16-1.72-1-4.52-1.8-6.28,2.08.12,4.2.12,4.92.12.68,0,.92-.2.92-.88v-16.84h-9.52v-2.8h-17.92v-5.36h6.64v-5.88h5.56v5.88h7.08v2.6h8.16v-8.52h5.76v8.52h4v5.56ZM297.81,134.77c1.84,2.56,3.76,5.92,4.4,8.32l-5,2.56c-.56-2.32-2.28-5.92-4.04-8.6l4.64-2.28Z"/>
      <path class="cls-25" d="M324.57,132.45c0,6.68-.68,17.12-4.4,23.52-1.08-.96-3.68-2.68-5.04-3.28,3.36-5.76,3.6-14.36,3.6-20.24v-9.96h14.08v-4.4h6.08v4.4h14.08v5.52h-15.84c3,1.48,6.64,3.52,8.6,5.16l-4.2,4.32c-1.96-1.88-6.32-4.6-9.64-6.28l3.24-3.2h-10.56v4.44ZM323.41,150.53c1.52-3.08,2.24-7.56,2.56-12.16l5.24,1.12c-.36,4.76-.96,10.04-2.64,13.32l-5.16-2.28ZM348.36,152.73c-.2-1.56-.68-3.52-1.36-5.6-.52,6.36-1.96,8.24-5.76,8.24h-3.64c-4.68,0-5.8-1.72-5.8-6.8v-13.08h5.76v13.04c0,1.52.16,1.68,1.04,1.68h2.08c.96,0,1.16-.92,1.32-6.2,1.08.88,3.24,1.76,4.72,2.2-.8-2.36-1.84-4.88-2.92-7.04l5.2-2c2.24,4.2,4.48,9.52,5.08,13.24l-5.72,2.32Z"/>
      <path class="cls-25" d="M370.65,137.09c0-5.6,2.37-9.62,4.9-12.07l2.88,1.22c-2.3,2.52-4.37,5.87-4.37,10.85s2.07,8.32,4.37,10.85l-2.88,1.22c-2.52-2.45-4.9-6.47-4.9-12.07Z"/>
      <path class="cls-25" d="M390.48,133.61c3.37.97,8.22,2.75,10.32,3.77l-1.72,4.22c-2.52-1.3-5.95-2.62-8.6-3.57v6.42c0,.67.15,2.65.28,3.77h-4.75c.17-1.08.3-2.75.3-3.77v-14.27c0-1-.1-2.3-.3-3.25h4.72c-.1.95-.25,2.05-.25,3.25v3.42ZM396.62,132.56c-.8-1.72-1.22-2.5-2.2-3.87l2.5-1.05c.75,1.12,1.72,2.67,2.27,3.8l-2.57,1.12ZM400.2,131.11c-.88-1.72-1.35-2.42-2.32-3.75l2.47-1.15c.77,1.07,1.8,2.57,2.35,3.67l-2.5,1.22Z"/>
      <path class="cls-25" d="M427.5,134.74c-.2.38-.45.9-.55,1.2-.83,2.4-1.88,4.75-3.72,6.82-2.47,2.78-5.72,4.6-8.92,5.52l-3.02-3.42c3.9-.82,6.8-2.47,8.6-4.27,1.22-1.22,1.9-2.47,2.32-3.62h-11.37c-.62,0-2.05.02-3.17.12v-3.9c1.15.1,2.32.18,3.17.18h11.9c.95,0,1.7-.12,2.1-.3l2.67,1.67ZM410,127.09c.7.1,1.92.15,2.8.15h9.47c.8,0,2.22-.05,2.95-.15v3.9c-.7-.05-2.05-.1-3-.1h-9.42c-.85,0-2.05.02-2.8.1v-3.9Z"/>
      <path class="cls-25" d="M445.43,144.26c0,1.2.05,2.92.25,3.62h-4.8c.1-.68.2-2.42.2-3.62v-7.52c-2.52,1.25-5.45,2.42-8.17,3.15l-2.15-3.67c4.47-.92,8.67-2.75,11.47-4.5,2.52-1.57,5.1-3.8,6.52-5.7l3.25,2.92c-2,1.95-4.17,3.8-6.57,5.35v9.97Z"/>
      <path class="cls-25" d="M461.3,129.04l4.42.92c-.22.8-.58,2.3-.67,2.88-.35,1.88-1.27,5.15-2.05,7.35-.88,2.5-2.42,5.5-3.67,7.3l-4.27-1.8c1.55-2.02,3.05-4.75,3.92-7.02,1.12-2.9,2.02-6.27,2.32-9.62ZM467.7,129.99l4.05-1.3c1.08,2,2.85,6.07,3.72,8.35.82,2.15,2.15,6.22,2.85,8.82l-4.52,1.47c-.72-3.2-1.5-6.22-2.47-8.95-.92-2.65-2.57-6.47-3.62-8.4ZM476.17,129.82l-2.37,1c-.53-1.02-1.25-2.5-1.92-3.47l2.35-.95c.62.93,1.5,2.55,1.95,3.42ZM479.27,128.59l-2.35,1c-.5-1.02-1.3-2.5-1.97-3.45l2.35-.95c.65.95,1.55,2.55,1.97,3.4Z"/>
      <path class="cls-25" d="M481.68,134.59c1,.07,3.1.17,4.32.17h13.27c1.12,0,2.35-.12,3.07-.17v4.77c-.65-.03-2.05-.15-3.07-.15h-13.27c-1.42,0-3.3.08-4.32.15v-4.77Z"/>
      <path class="cls-25" d="M517.03,133.59c1.92,0,3.5,1.57,3.5,3.5s-1.57,3.5-3.5,3.5-3.5-1.57-3.5-3.5,1.57-3.5,3.5-3.5Z"/>
      <path class="cls-25" d="M551.7,130.42c-.42,1.45-1,2.7-1.75,3.77,1.08.7,2.38,1.25,3.9,1.6-.67.65-1.58,1.97-2,2.82-1.57-.5-2.92-1.27-4.07-2.2-1.17.92-2.6,1.65-4.25,2.22-.32-.62-1.25-1.85-1.87-2.45l-1.33,1.65c-.52-.47-1.35-1.12-2.17-1.75v2.3h-3.15v-1.88c-.88.83-1.87,1.55-2.77,2.05-.45-.67-1.38-1.7-2.02-2.22,1.2-.47,2.55-1.22,3.57-2.05h-2.55v-5.02h3.77v-.6h-4.25v-2.38h4.25v-1.07h3.15v1.07h4.2v2.38h-4.2v.6h4v1.03c1.25-1.33,2.2-3.15,2.7-5.05l3.22.75c-.18.55-.35,1.1-.58,1.65h5.92v2.78h-1.72ZM543.75,145.79h9.8v2.9h-22.97v-2.9h3.45v-3.47h3.45v3.47h2.7v-4.15h-8.2v-2.82h20.04v2.82h-8.27v.75h6.05v2.6h-6.05v.8ZM534,132.24h1v-.93h-1v.93ZM538.15,131.31v.93h1.05v-.93h-1.05ZM541.8,135.99c1.52-.42,2.8-1,3.82-1.75-.4-.52-.75-1.05-1.07-1.57-.28.3-.55.6-.85.85-.33-.45-.97-1.2-1.55-1.8v2.57h-2.57c.95.5,2.1,1.1,2.5,1.35l-.27.35ZM546.37,130.42c.33.57.72,1.15,1.2,1.7.3-.53.55-1.08.75-1.7h-1.95Z"/>
      <path class="cls-25" d="M578.9,135.19h-13.15v2.5c0,3.37-.4,8.35-2.62,11.4-.42-.53-1.45-1.42-2.2-1.95v1.8h-3.45v-11.7c-.35.47-.7.93-1.05,1.35-.27-.9-1.15-3.02-1.7-4,1.92-2.28,3.7-5.82,4.72-9.37l3.35,1-.25.77h3.25v-1.62h3.35v1.62h3.15v-1.62h3.4v1.62h3.05v3.1h-3.05v1.47h-3.4v-1.47h-3.15v1.47h-3.35v-1.47h-3.27v-3.05c-.45,1.32-1,2.7-1.6,4.02v15.12c1.42-2.57,1.55-5.97,1.55-8.55v-5.55h16.42v3.1ZM578.32,146.04c0,1.25-.15,1.97-.9,2.45-.75.45-1.65.5-2.8.47-.07-.8-.4-1.95-.75-2.7.45.03.95.03,1.15,0,.2,0,.25-.05.25-.28v-.75h-1.67v3.65h-2.8v-3.65h-1.5v3.67h-3v-12.77h12.02v9.9ZM569.3,138.71v1h1.5v-1h-1.5ZM570.8,142.96v-.97h-1.5v.97h1.5ZM573.6,138.71v1h1.67v-1h-1.67ZM575.27,142.96v-.97h-1.67v.97h1.67Z"/>
      <path class="cls-25" d="M593.95,136.06v8.27h8.3v3.62h-20.27v-3.62h8.05v-8.27h-9.42v-3.6h9.42v-7.22h3.92v7.22h9.62v3.6h-9.62Z"/>
      <path class="cls-25" d="M618.93,132.24c-1.02.27-2.52.6-4.2.85-1.15,3.47-3.25,7.77-5.25,10.65l-3.62-1.83c1.95-2.42,3.85-5.9,4.92-8.47-.27.03-.55.03-.8.03-1.05,0-2.05-.03-3.2-.1l-.27-3.45c1.15.12,2.62.17,3.45.17.65,0,1.27-.02,1.92-.07.35-1.35.57-2.77.62-4.05l4.1.4c-.17.77-.45,1.9-.8,3.15,1.15-.22,2.2-.47,3.02-.72l.1,3.45ZM622.4,134.11c-.08,1.08-.03,2.25,0,3.47.02.58.07,1.55.12,2.58,2.15.83,3.9,2.07,5.12,3.22l-1.97,3.22c-.77-.72-1.77-1.67-3-2.52-.08,2.37-1.38,4.15-5.02,4.15-3.27,0-5.82-1.53-5.82-4.4,0-2.47,1.95-4.6,5.77-4.6.45,0,.87.03,1.3.07-.1-1.77-.2-3.8-.27-5.2h3.77ZM619.03,142.44c-.52-.1-1.1-.17-1.67-.17-1.22,0-1.97.5-1.97,1.2,0,.8.67,1.35,1.72,1.35,1.47,0,1.92-.88,1.92-2.25v-.12ZM626.25,135.79c-1.47-1.15-4.37-2.82-6.1-3.57l1.92-2.97c1.77.78,4.97,2.47,6.3,3.4l-2.12,3.15Z"/>
      <path class="cls-25" d="M648.72,132.99c-.88.52-1.77,1-2.77,1.5-1.47.73-3.55,1.67-5.72,3.07-1.92,1.25-3.3,2.58-3.3,4.2s1.57,2.4,4.75,2.4c2.45,0,5.82-.42,8.17-.95l-.05,4.32c-2.25.38-4.72.62-8.02.62-5.1,0-9.02-1.37-9.02-5.95,0-2.82,1.75-4.85,4.02-6.57-1.15-2.12-2.3-4.65-3.4-7.25l3.77-1.52c.9,2.5,2,4.75,2.97,6.6,1.6-.95,3.1-1.72,4.15-2.32s1.85-1.08,2.57-1.67l1.88,3.52ZM649.02,126.34c.62.92,1.5,2.55,1.95,3.42l-2.37,1c-.52-1.03-1.25-2.5-1.92-3.47l2.35-.95ZM652.1,125.14c.65.95,1.55,2.55,1.97,3.4l-2.35,1c-.5-1.03-1.3-2.5-1.97-3.45l2.35-.95Z"/>
      <path class="cls-25" d="M663.4,137.09c0,5.6-2.38,9.62-4.9,12.07l-2.87-1.22c2.3-2.52,4.37-5.87,4.37-10.85s-2.07-8.32-4.37-10.85l2.87-1.22c2.52,2.45,4.9,6.47,4.9,12.07Z"/>
      <path class="cls-25" d="M51.33,205.28v-18.2h1.4v16.8h16.8v1.4h-18.2Z"/>
      <path class="cls-25" d="M103.13,213.16h-7.39v3.29c0,2.28-.49,3.43-2.14,4.1-1.64.63-3.82.67-6.55.67-.21-1.33-.88-3.18-1.5-4.45,1.58.1,3.85.1,4.41.1.56-.04.77-.14.77-.59v-3.12h-9.94c1.51,1.19,3.05,2.63,3.85,3.75l-4.09,2.98c-.88-1.43-3.01-3.54-4.76-4.97l2.52-1.75h-7.35v-4.24h19.78v-1.4h-16.45v-12.25h10.08v-1.12h-12.57v-4.13h12.57v-2.06h5.01v2.06h12.85v4.13h-12.85v1.12h10.57v12.25h-4.2v1.4h7.39v4.24ZM79.05,199.82h5.32v-1.19h-5.32v1.19ZM79.05,204.13h5.32v-1.16h-5.32v1.16ZM89.38,198.63v1.19h5.57v-1.19h-5.57ZM94.94,202.97h-5.57v1.16h5.57v-1.16Z"/>
      <path class="cls-25" d="M121.02,203.22h-8.89v17.99h-5.04v-31.99h13.93v14ZM112.13,193.28v1.12h4.13v-1.12h-4.13ZM116.26,199.19v-1.26h-4.13v1.26h4.13ZM137.22,215.26c0,2.8-.56,4.2-2.28,5.01-1.71.84-4.17.94-7.7.94-.21-1.43-1.05-3.85-1.79-5.22,2.1.18,4.83.14,5.6.14s1.02-.25,1.02-.95v-11.87h-9.14v-14.11h14.28v26.04ZM127.77,193.28v1.12h4.31v-1.12h-4.31ZM132.08,199.3v-1.37h-4.31v1.37h4.31Z"/>
      <path class="cls-25" d="M173.55,215.33v4.83h-22.09v-4.83h9.07v-6.06h-6.44v-4.72h6.44v-4.9h-3.12c-.53,1.71-1.12,3.25-1.79,4.52-1.02-.7-3.29-1.82-4.52-2.31.32-.53.59-1.09.88-1.72l-2.03.91c-.1-.59-.31-1.29-.56-2.1v22.26h-5.11v-19.22c-.21,1.23-.45,2.38-.73,3.36l-3.71-1.33c.81-2.38,1.4-6.34,1.65-9.28l2.8.38v-7.18h5.11v6.72l1.96-.84c.56,1.08,1.12,2.34,1.58,3.54.67-2.38,1.12-5.11,1.37-7.81l4.94.74c-.17,1.54-.39,3.08-.67,4.55h1.96v-6.65h5.08v6.65h6.72v4.8h-6.72v4.9h5.99v4.72h-5.99v6.06h7.95Z"/>
      <path class="cls-25" d="M190.7,214.67c1.47-.17,2.42-.38,3.39-.63,4.41-1.08,7.35-4.17,7.35-8.72s-2.17-7.67-6.16-8.61c-.46,2.8-1.08,5.85-2.03,9.03-2.07,6.93-5.18,11.59-9.28,11.59s-7.56-4.65-7.56-10.57c0-8.23,7.11-15.23,16.38-15.23s14.42,6.09,14.42,13.97c0,7.28-4.31,12.64-13.34,14.14l-3.18-4.97ZM189.58,196.81c-5.15,1.4-7.7,6.06-7.7,9.38,0,3.01,1.05,4.59,2.24,4.59,1.4,0,2.45-2.1,3.68-6.13.77-2.34,1.36-5.11,1.79-7.84Z"/>
      <path class="cls-25" d="M242.47,190.62v4.3h-30.91v-4.3h12.6v-2.73h5.25v2.73h13.06ZM241.49,216.07c0,2.21-.42,3.54-1.89,4.27-1.47.77-3.29.84-5.6.84-.11-.77-.35-1.75-.67-2.66h-8.72v1.5h-4.38v-9.62h13.48v6.05c.88.04,1.71.04,2.03,0,.46,0,.63-.1.63-.49v-6.79h-18.55v12.08h-4.97v-16.24h28.63v11.06ZM236.73,203.95h-19.46v-8.02h19.46v8.02ZM231.58,199.23h-9.49v1.4h9.49v-1.4ZM229.27,213.72h-4.66v1.47h4.66v-1.47Z"/>
      <path class="cls-25" d="M253.91,197.34c0,2.28,0,4.55.21,6.86.42,4.55,1.12,7.74,3.12,7.74,1.61,0,2.83-4.34,3.33-6.69l4.24,5.18c-2.42,6.12-4.62,8.29-7.67,8.29-4.09,0-7.49-3.5-8.47-12.99-.35-3.29-.38-7.25-.38-9.45,0-1.05-.07-2.52-.32-3.75l6.44.07c-.28,1.47-.49,3.71-.49,4.73ZM277.78,211.38l-5.57,2.14c-.49-5.22-2.17-14.07-6.23-18.48l5.36-1.75c3.4,3.99,6.16,13.09,6.44,18.1Z"/>
      <path class="cls-25" d="M299.34,188.66c-.04.67-.07,1.44-.1,2.31.28,5.04,1.96,19.43,14.95,25.59-1.65,1.22-3.15,2.94-3.92,4.34-7.46-3.78-11.38-10.29-13.48-16.42-2,5.88-5.63,12.04-12.39,16.45-.91-1.33-2.56-2.9-4.34-4.1,13.93-8.08,13.16-23.59,13.41-28.18h5.88Z"/>
      <path class="cls-25" d="M328.53,209.91c-.6-.98-1.51-2.24-2.42-3.43v14.74h-5.15v-11.66c-1.01,2.45-2.17,4.62-3.5,6.23-.49-1.58-1.71-3.75-2.56-5.15,2.38-2.7,4.38-6.93,5.5-10.78h-4.59v-4.83h5.15v-7.07h5.15v7.07h4.24v4.83h-4.24v.88c1.4,1.12,4.55,4.06,5.29,4.83l-2.87,4.34ZM348.52,199.86h-3.19v15.33c0,2.7-.52,4.03-2.1,4.83-1.61.84-3.89.98-6.97.98-.21-1.44-.98-3.71-1.68-5.11,1.72.07,3.82.07,4.45.07s.88-.21.88-.8v-8.37c-2.49,3.71-5.53,7.14-8.61,9.45-.88-1.33-2.42-3.12-3.71-4.17,4.24-2.59,8.3-7.39,10.82-12.22h-7.25v-4.83h8.75v-7.04h5.42v7.04h3.19v4.83Z"/>
      <path class="cls-25" d="M377.78,202.27c2.24,3.08,3.25,5.53,3.25,8.47,0,5.29-4.76,9.38-12.74,9.38-5.92,0-9.8-2.52-9.8-8.4,0-.77.07-1.89.21-3.22-2.42-.25-4.55-.63-6.27-1.09l.28-5.07c2.21.73,4.38,1.15,6.55,1.37l.49-3.89c-2.34-.24-4.62-.7-6.58-1.22l.25-4.83c1.92.66,4.41,1.08,6.9,1.29.1-.88.17-1.65.21-2.31.07-1.02.17-2.13.07-3.43l5.88.31c-.35,1.47-.52,2.49-.7,3.46-.07.46-.18,1.19-.32,2.14,2.38-.03,4.52-.21,5.95-.46l-.17,4.97c-1.92.21-3.67.35-6.44.35-.17,1.26-.35,2.59-.49,3.85h.04c1.96,0,4.62-.17,6.79-.42l-.14,4.97c-1.71.17-3.67.31-5.74.31h-1.44c-.07.81-.1,1.51-.1,2,0,2.59,1.64,3.85,4.76,3.85,4.59,0,6.86-2.17,6.86-4.62s-1.33-4.41-3.43-6.51l5.88-1.26Z"/>
      <path class="cls-25" d="M417.85,189.5s-.04,1.19-.07,1.75c-.14,7.25-.35,10.43-1.26,11.59-.8,1.05-1.68,1.4-2.87,1.58-.98.18-2.66.18-4.41.18-.11-1.47-.67-3.43-1.47-4.69,1.4.14,2.77.14,3.47.14.49,0,.84-.07,1.16-.38.38-.46.52-2,.67-5.5h-4.2c-.7,4.76-2.38,8.75-7.77,11.38-.56-1.19-1.86-2.94-2.91-3.82.84,1.86,1.54,3.78,1.79,5.22l-3.54,1.58c-.07-.49-.17-1.02-.35-1.58l-1.15.07v2.52l2.97-.98c.81,2.03,1.72,4.62,2.14,6.37l-3.71,1.33c-.28-1.33-.84-3.19-1.4-4.94v9.91h-4.41v-10.22c-.35,2.91-1.01,5.84-1.82,7.77-.88-.56-2.76-1.44-3.82-1.82.91-2.03,1.4-5.18,1.61-8.09l4.03.7v-2.24l-4.87.32-.42-4.38,2.66-.11c.42-.53.84-1.09,1.26-1.68-1.01-1.54-2.55-3.33-3.92-4.66l2.38-3.5.63.59c.91-1.92,1.79-4.13,2.31-5.92l4.38,1.61c-1.3,2.45-2.7,5.15-3.92,7.11.25.28.49.6.7.88,1.12-1.85,2.13-3.71,2.91-5.36l4.1,1.86c-1.33,2.03-2.87,4.27-4.41,6.37l2.7-1.12c.42.74.81,1.54,1.19,2.34,3.99-1.79,5.18-4.45,5.67-7.53h-4.24v-4.66h18.24ZM394.72,202.9c-.28-.63-.56-1.3-.84-1.89-.52.7-1.05,1.36-1.54,1.99l2.38-.1ZM400.81,206.06h16.35v14.95h-4.9v-1.19h-6.79v1.33h-4.66v-15.09ZM405.46,210.5v4.87h6.79v-4.87h-6.79Z"/>
      <path class="cls-25" d="M439.45,187.82c3.64,6.02,8.89,10.33,14.7,12.36-1.29,1.37-2.42,3.12-3.36,4.69-1.79-.88-3.57-1.96-5.29-3.19v19.53h-5.32v-20.16h4.45c-3.22-2.45-6.06-5.32-7.74-8.02-1.71,2.8-4.51,5.71-7.84,8.23h4.55v4.03c0,4.97-.7,11.52-7.49,15.93-.91-1.12-2.94-2.83-4.31-3.64,5.92-3.64,6.55-8.54,6.55-12.43v-3.36c-1.61,1.15-3.36,2.24-5.15,3.15-.63-1.26-2.07-3.19-3.15-4.24,6.23-2.83,11.52-8.4,13.86-12.88h5.53Z"/>
      <path class="cls-25" d="M488.06,195.38h-3.92v19.67c0,2.87-.67,4.34-2.52,5.15-1.92.88-4.55.98-8.23.98-.28-1.51-1.33-4.03-2.14-5.39,2.35.17,5.53.14,6.37.14s1.16-.24,1.16-.98v-19.57h-22.72v-5.14h31.99v5.14ZM464.05,212.53v2.62h-4.94v-16.56h15.26v13.93h-10.33ZM464.05,203.43v4.27h5.29v-4.27h-5.29Z"/>
      <path class="cls-25" d="M503.98,200.42c-.1-.53-.28-1.12-.49-1.75-4.55.31-9.14.63-12.71.88l-.38-4.79c.84-.04,1.75-.07,2.73-.11.91-2.17,1.75-4.8,2.24-6.93l5.32,1.09c-.74,1.93-1.54,3.88-2.34,5.63l3.29-.14c-.42-.84-.84-1.68-1.29-2.45l4.34-1.61c1.61,2.55,3.33,5.88,3.96,8.22v-10.33h5.08v4.45c1.96-.84,3.85-1.79,5.29-2.66l3.19,3.67c-2.59,1.26-5.64,2.35-8.47,3.19v1.26c0,1.3.17,1.44,1.33,1.44h2.87c1.02,0,1.23-.49,1.37-3.36,1.02.77,3.12,1.58,4.48,1.86-.52,4.69-1.86,6.02-5.36,6.02h-4.13c-4.38,0-5.53-1.33-5.64-5.39l-4.66,1.82ZM506.19,216.28c0,2.07-.39,3.29-1.72,4.03-1.33.77-2.97.84-5.04.84-.25-1.33-.98-3.29-1.61-4.48,1.01.07,2.34.07,2.77.04.42,0,.56-.11.56-.53v-1.37h-3.99v6.37h-4.69v-20.48h13.72v15.58ZM497.16,204.83v1.19h3.99v-1.19h-3.99ZM501.15,211.1v-1.37h-3.99v1.37h3.99ZM518.06,216.59c1.08,0,1.29-.63,1.47-3.99,1.05.77,3.08,1.54,4.45,1.86-.52,5.07-1.82,6.54-5.43,6.54h-4.27c-4.52,0-5.64-1.44-5.64-5.85v-10.61h5.04v4.17c2.07-.91,4.03-2,5.5-2.98l3.33,3.71c-2.66,1.4-5.85,2.62-8.82,3.61v2.06c0,1.33.21,1.47,1.4,1.47h2.98Z"/>
    </g>
    <g>
      <g>
        <ellipse class="cls-13" cx="326.67" cy="452.1" rx="48.58" ry="7.94"/>
        <g>
          <path class="cls-17" d="M319.67,319.28c-1.56,7.81-3.13,17.19-5.63,28.44,0,0,8.52,8.41,10,6.56-.63-20.63,1.25-29.38,1.25-37.82,0-5.76-3.06-17.19-5-7.5-.63,3.13-.2,8.2-.63,10.31Z"/>
          <g>
            <path class="cls-8" d="M319.04,333.03c-3.75,1.25-20.99,13.51-20.63,14.38,2.68,6.45,6.91,17.17,7.54,17.46,1.42.65,2.71.69,3.8-.18,2.18-1.76,11.87-32.51,9.29-31.65Z"/>
            <path class="cls-4" d="M318.11,334.59c-6.56,3.44-18.88,11.64-18.44,12.81,3.85,10.36,6.53,17.08,6.53,17.08,2.88.01,3.73.04,4.1-.25,3.17-2.42,19.88-11.02,19.37-15.4-.76-6.4-6.49-16.91-11.56-14.25Z"/>
            <path class="cls-8" d="M322.17,334.9c-1.94,1.38-19.07,12.24-18.75,13.13,2.44,6.83,5.77,17.05,6.34,16.65,1.94-1.38,11.83-7.37,13.47-8.68,2.18-1.76,1.16-22.67-1.05-21.09Z"/>
          </g>
          <g>
            <path class="cls-22" d="M316.86,358.03c-.13.98-1.88-5.63-3.75-1.25-.39.91.19,5.92.94,6.56,2.19,1.88,2.42-1.83,3.44-1.25,2.19,1.25,3.16-2.38,3.44-1.56.31.94.58,1.64,1.88-.31.3-.45,3.26-3.18,2.5-4.69-1.56-3.13-2.54,2.19-2.5,1.56.31-4.38-.94-5-2.5-1.88-.2.4-2.5-4.06-3.44,2.81Z"/>
            <g>
              <path class="cls-12" d="M313.89,362.23c-.14-1.1-.25-2.2-.31-3.3-.03-.47-.05-.94,0-1.41,0-.02,0-.05,0-.07,0-.02.01-.14,0-.02,0-.05.02-.1.02-.15.02-.12.05-.23.08-.35.01-.05.03-.1.05-.15,0-.03.02-.05.03-.08.03-.08,0,0,0,0,.04-.11.1-.22.17-.32.02-.04.05-.08.08-.12.05-.08-.07.07,0,0,.01-.01.02-.03.04-.04.06-.07.13-.13.2-.19.07-.06-.08.06,0,0,.02-.01.03-.02.04-.03.04-.03.08-.05.12-.07.04-.02.08-.04.12-.06.02,0,.03-.02.05-.02.09-.04-.09.03,0,0,.08-.03.17-.06.26-.08.03,0,.07-.01.1-.02.09-.02-.11,0-.01,0,.03,0,.05,0,.08,0,.04,0,.09,0,.13,0,.02,0,.15.01.07,0-.08-.01.05,0,.07.01.05.01.1.03.14.04.04.01.02.03-.03-.01.01.01.04.02.06.03.03.02.07.04.1.06,0,0,.08.06.02.01-.06-.04,0,0,.02.02.04.03.07.07.11.11.05.05-.05-.08,0,0,.01.02.02.04.04.06.03.05.06.1.08.15,0,.02.02.04.03.06-.03-.1,0,0,0,.02.02.05.04.11.05.16.15.5.24,1.02.32,1.54.02.15.05.3.07.45,0,.03,0,.05.01.08,0,.03,0,.05.01.08,0-.04,0-.04,0-.01,0,.07.02.15.03.22.04.3.06.6.09.9.05.61.06,1.23.05,1.85,0,.23.2.44.43.43.24-.01.43-.19.43-.43.02-1.18-.06-2.35-.24-3.51-.08-.56-.19-1.11-.33-1.66-.13-.51-.36-1-.81-1.29-.77-.48-1.82-.18-2.43.42-.74.73-.84,1.86-.81,2.84.04,1.28.17,2.56.33,3.83.03.22.18.44.43.43.21,0,.46-.19.43-.43h0Z"/>
              <path class="cls-12" d="M313.14,362.57c.01.85.81,1.4,1.58,1.54.38.07.79.08,1.16-.05.46-.17.85-.49,1.13-.9.3-.44.44-1,.44-1.53,0-.23-.2-.44-.43-.43-.23.01-.43.19-.43.43,0,.1,0,.19-.01.29,0,.06.02.06,0,0,0,.01,0,.05,0,.06,0,.05-.02.1-.03.15-.02.09-.05.18-.08.27-.01.04,0,.08,0,0,0,.02-.02.04-.02.05-.02.05-.05.1-.07.14-.04.08-.09.15-.14.22-.04.05.07-.08,0,0-.01.01-.03.03-.04.04-.04.04-.07.08-.11.12-.03.03-.07.06-.1.09-.06.05.01,0,.02-.01-.01.02-.04.03-.06.04-.08.06-.17.11-.26.15-.11.05.09-.03-.01,0-.03.01-.07.02-.1.03-.03,0-.06.01-.08.02-.02,0-.04,0-.05.01-.09.02.07,0,.03,0-.15,0-.3.01-.46,0-.03,0-.06-.02.04,0-.01,0-.03,0-.05,0-.04,0-.08-.01-.12-.02-.08-.02-.16-.04-.23-.07-.03-.01-.06-.02-.09-.03-.08-.03.08.04.03.01-.02,0-.04-.02-.05-.03-.07-.03-.14-.07-.2-.12-.04-.02-.12-.11-.02-.01-.03-.03-.06-.05-.09-.08-.03-.03-.06-.06-.08-.09-.02-.02-.03-.06.03.04-.01-.02-.03-.03-.04-.05-.02-.03-.04-.07-.06-.1-.03-.06.02,0,.01.04,0-.01-.02-.05-.02-.06-.01-.03-.02-.07-.03-.1-.02-.08,0,.1,0,.04,0-.03,0-.05,0-.08,0-.23-.2-.44-.43-.43-.23.01-.44.19-.43.43h0Z"/>
              <path class="cls-12" d="M317.17,359.09c.1-.7.2-1.39.31-2.09.05-.32.09-.63.14-.95.03-.15.06-.29.09-.44.02-.07.04-.13.06-.2.01-.03.02-.06.03-.1,0,0,.01-.04.02-.05-.02.01-.03.06,0,.01.06-.13.13-.25.21-.36.03-.04-.02.02-.02.02,0,0,.03-.03.03-.04.02-.02.04-.04.06-.06.02-.02.04-.04.06-.06,0,0,.03-.02.03-.03-.01.02-.07.05-.02.02.05-.03.09-.06.14-.09.03-.01.05-.03.08-.04.03-.01.03,0,0,0-.03.01-.03.01-.01,0,0,0,.02,0,.03,0,.06-.02.12-.04.18-.05.01,0,.03,0,.04,0,.04-.01-.04,0-.05,0,.02,0,.07,0,.1,0,.03,0,.05,0,.08,0,.02,0,.11.01.04,0-.07,0,.02,0,.03,0,.03,0,.06.02.09.03.07.02-.07-.04,0,0,.02.01.05.02.07.04.01,0,.02.02.03.02.04.02-.04-.02-.03-.03,0,0,.07.06.07.07,0,0,.03.03.03.04,0,0-.04-.07-.02-.02.02.03.03.05.05.08,0,.01.05.1.03.05-.02-.05,0,0,0,0,0,.02.01.04.02.06.02.06.04.13.05.19,0,.03.01.06.02.1,0,.02,0,.03,0,.05.01.09,0,0,0,0-.01,0,.02.19.02.21.01.09.02.18.03.27.02.17.04.35.06.52.04.35.08.7.12,1.04.08.67.16,1.34.22,2.02.03.29.05.58.04.87,0,.14-.01.28-.03.42,0,.01,0,.04,0,.05,0,0,.01-.08,0-.03,0,.03-.01.07-.02.1-.01.07-.03.14-.05.21-.02.06-.04.13-.06.19-.01.03-.02.06-.03.09,0,0-.02.06,0,0,.02-.05,0,.01-.01.02-.06.13-.14.25-.22.37-.03.04.07-.08.01-.02-.01.02-.03.03-.04.05-.03.03-.07.06-.1.09-.05.05.08-.06.02-.02-.02.01-.03.02-.05.04-.04.03-.08.05-.12.07-.02.01-.04.02-.06.03-.07.04.05-.02.02,0-.05.02-.09.03-.14.05-.09.03-.18.04-.28.06-.05,0,.06,0,.06,0-.02,0-.03,0-.05,0-.02,0-.05,0-.07,0-.05,0-.1,0-.15,0-.05,0-.09,0-.14,0-.02,0-.05,0-.07,0-.01,0-.02,0-.03,0-.06,0,.04,0,.05,0-.09-.02-.18-.03-.27-.06-.04-.01-.08-.03-.12-.04-.03,0,.1.05.02,0-.02-.01-.04-.02-.07-.03-.04-.02-.07-.04-.11-.06-.02-.01-.04-.03-.06-.04-.04-.02.05.04.05.04,0,0-.02-.02-.03-.03-.03-.03-.06-.05-.09-.08-.01-.01-.02-.03-.04-.05,0,0,.06.08.04.05,0-.01-.02-.02-.02-.03-.02-.03-.04-.07-.06-.1-.02-.03.02.06.02.06,0,0,0-.02-.01-.03,0-.02-.01-.05-.02-.07-.06-.22-.31-.37-.53-.3-.22.07-.37.3-.3.53.28,1,1.53,1.27,2.43,1.04.51-.13.92-.44,1.18-.91.33-.59.41-1.27.39-1.93-.02-.69-.12-1.37-.2-2.05-.09-.77-.17-1.53-.26-2.3-.04-.34-.06-.69-.19-1.01-.15-.36-.39-.63-.75-.78-.58-.23-1.3,0-1.72.44-.47.48-.63,1.17-.73,1.81-.11.75-.22,1.5-.33,2.24-.03.19-.05.37-.08.56-.02.12-.02.22.04.33.05.09.16.18.26.2.21.05.5-.06.53-.3h0Z"/>
            </g>
          </g>
          <g>
            <g>
              <path class="cls-17" d="M322.17,422.73s-.89,7.19-1.25,13.44c-.11,1.87-10.35.68-7.81-3.13,1.37-2.05,2.19-6.56,2.19-13.44,0-1.89,6.25-2.81,6.88,3.13Z"/>
              <path class="cls-27" d="M321.23,356.78c-1.56,12.5-5,40.32-5.94,45.63-3.11,17.64-5.05,20.32-4.06,20.32,7.81,0,12.83,3.44,13.13,1.88,3.44-18.13,8.08-37.44,8.44-39.38,2.19-11.88,4.38-24.07,6.56-28.44,1.14-2.27-17.57-4.43-18.13,0Z"/>
              <path class="cls-23" d="M312.79,430.86c-.06-.84-.63,0,1.56.94.94.4.41,1.69,0,2.5-.31.63,2.19,3.13,6.88-1.56.6-.6.63,4.16.63,7.81,0,3.13-.63,2.38-.63,8.13,0,1.25-9.06,0-24.07.63-1.25.05-2.31-2.08-2.5-3.75-.31-2.81.78-6.32,2.81-8.75,1.22-1.46,4.38,1.56,7.81,2.5,1.35.37,7.81-4.38,7.5-8.44Z"/>
            </g>
            <path class="cls-3" d="M325.29,362.72c-3.42-3.7,10.48-4.05,10.31-.63-.31,6.56-.38,24.03-3.44,23.75-3.44-.31.94-14.69-6.88-23.13Z"/>
            <g>
              <path class="cls-17" d="M345.92,420.55s-.31,5.94.63,14.07c.22,1.86-4.06,7.81-6.88,3.13-.24-.4-.94-8.97-.94-15.32,0-1.89,4.06-1.88,7.19-1.88Z"/>
              <path class="cls-27" d="M333.42,362.41c-1.25,19.38,0,39.7.94,60.01.03.74,5.63.31,13.75-.63.6-.07-5.22-26.58-2.5-42.2,1.25-7.19,3.66-28.56,1.25-37.19-.58-2.06-19.38,2.5-22.5,16.88-.64,2.94,9.16,1.62,9.06,3.13Z"/>
              <path class="cls-23" d="M341.55,429.3c1.88-.63,1.25-.94,4.38-.94.68,0,1.89,3.15,2.19,3.75.94,1.88.64,2.8,2.19,4.06,3.44,2.81,5.94-.63,6.88.94,2.41,4.02,2.46,10.83.94,10.94-9.06.63-20.63.94-20.63-1.88,0-7.19-.42-15.44.31-15,1.56.94,2.81,1.25,3.75,1.88.37.25-.76-3.5,0-3.75Z"/>
            </g>
          </g>
          <g>
            <path class="cls-20" d="M329.05,299.9c-1.88-.94-6.16,1.17-7.19,3.44-1.56,3.44-1.88,7.81-3.13,13.44-.14.61,1.25,1.25,4.06,2.19,1.79.6,1.66-4.99,2.81-7.81,3.44-8.44,5.45-10.24,3.44-11.25Z"/>
            <path class="cls-21" d="M322.17,323.96c0-5.2-3.44-9.69,1.25-16.88,0,0,1.88-6.25,5.63-7.19,2.62-.66,2.9-.16,4.69-.31,3.11-.26,6.56,1.56,14.69,2.5,4.72.54,9.8,16.25.94,20.32-.45.21,3.82,32.89,3.13,32.82-7.39-.74-17.57,2.83-34.07,1.56,0,0,3.75-23.13,3.75-32.82Z"/>
          </g>
          <g>
            <path class="cls-12" d="M335.3,274.58c0,1.38-10.47,5.52-11.25,4.38-2.68-3.92-1.52-6.6,0-7.5,1.14-.68,2.5.09,2.5-.31,0-6.88,4.87-5.63,6.25-5.63s2.5,7.68,2.5,9.06Z"/>
            <path class="cls-12" d="M356.55,288.33c-1.56,8.44-6.55,2.82-6.88,3.75-1.88,5.31-9.78,5.5-10.31,1.56-1.06-7.85,9.11-17.89,13.75-14.07,5.31,4.38,3.75.63,4.69.94,3.22,1.07,3.2,3.96,1.88,5.63-.86,1.08-3.01,1.57-3.13,2.19Z"/>
            <path class="cls-17" d="M333.42,292.08c-.94,1.56-.63,6.91-.94,8.13-.31,1.25-3.35.77-3.13,1.88.63,3.13,3.44,5.94,15,0,.33-.17-3.32-1.22-3.44-2.81-.31-4.06,0-6.25.31-11.25.21-3.4-7.23,3.09-7.81,4.06Z"/>
            <path class="cls-22" d="M324.36,277.39c-.82,2.97-3.08,6.74-.63,13.75,2.19,6.25,9.38,3.75,13.44,1.56,2.54-1.37,5.03-3.91,5.31-6.25.37-3.11.87-10.98.94-11.88-.31-3.75-6.47-5.43-10.94-4.38-5.31,1.25-7.1,3.47-8.13,7.19Z"/>
            <path class="cls-22" d="M326.23,278.33c.31-1.56-.88,3.13-4.06,3.13-.94,0,1.25,1.88,2.5,4.06.77,1.34,1.3-5.85,1.56-7.19Z"/>
            <path class="cls-12" d="M332.8,271.77c4.06-1.56,4.84,4.79,4.38,4.06-2.19-3.44-4.06-3.75-5.63-2.5-.3.24-.21-1,1.25-1.56Z"/>
            <path class="cls-12" d="M342.8,262.08c-9.78-1.6-10.71,6.4-10.31,8.13.94,4.06,5.94,5,8.75,4.06,1.8-.6-2.5,1.25.63,4.38,1.13,1.13-1.08,5.76-.63,5.31,5-5,14.22-2.51,13.44-3.13-5.94-4.69.31-7.5-1.25-10.94-1.17-2.58-2.53-6.49-10.63-7.81Z"/>
            <path class="cls-22" d="M344.99,278.64s7.19.31,3.44,7.19c-.64,1.18-2.81,3.13-4.69,3.44-.66.11-2.03-1.31-2.32-2.86-.75-4.02,1.38-2.14,3.57-7.77Z"/>
            <path class="cls-12" d="M352.8,283.96c0,2.59-3.13-.94-4.22-2.19-.63-.71-1.72-2.1-1.72-4.69s.77-4.69,1.72-4.69,4.22,8.98,4.22,11.56Z"/>
            <path class="cls-18" d="M325.92,287.39c-.18-1.08,2.5-.63,6.56-.31.47.04-3.23,3.44-6.36,3.25,0,0,.11-1.06-.21-2.94Z"/>
            <g>
              <g>
                <path class="cls-12" d="M325.33,275.88c-.63,1.14-1,2.4-1.09,3.7-.02.23.21.44.43.43.25-.01.41-.19.43-.43.01-.15.03-.3.04-.45.02-.13-.01.09,0-.03,0-.04.01-.07.02-.11.01-.07.02-.15.04-.22.05-.29.12-.58.21-.86.08-.28.19-.56.3-.84-.04.09.01-.03.02-.04.02-.03.03-.07.05-.1.03-.07.06-.14.1-.21.07-.14.14-.27.21-.4.11-.2.05-.48-.16-.59-.2-.11-.47-.06-.59.16h0Z"/>
                <path class="cls-12" d="M332.55,275.7c-.45,1.45-.73,2.94-.86,4.45-.02.23.21.44.43.43.25-.01.41-.19.43-.43.02-.19.03-.37.05-.56.01-.09.02-.19.03-.28,0-.04.01-.08.02-.12-.01.09,0-.03,0-.04.05-.37.11-.73.18-1.09.14-.72.32-1.43.54-2.13.07-.22-.08-.48-.3-.53-.23-.05-.46.07-.53.3h0Z"/>
              </g>
              <g>
                <path class="cls-12" d="M325.37,276.55s.05.09.07.14c.05.09-.02-.06,0,0,0,.02.02.05.03.07.03.1.06.2.08.3.01.05.01.1.03.15-.03-.12,0,.04,0,.07,0,.1,0,.21,0,.31,0,.05,0,.1-.01.16-.01.1.01-.07,0,0,0,.03,0,.05-.01.08-.02.11-.05.22-.08.32-.03.1-.06.19-.1.29-.04.1.03-.06,0,0-.01.02-.02.05-.03.07-.02.05-.05.11-.08.16-.05.09-.1.18-.15.26-.03.04-.06.09-.09.13-.01.02-.03.03-.04.05-.05.07.05-.06-.02.03-.14.18-.3.34-.47.49-.04.03-.08.07-.12.1-.03.02-.05.04-.08.07-.01.01-.07.05,0,0-.1.07-.2.14-.3.21-.2.13-.41.25-.62.36-.23.12-.46.23-.7.33-.03.01-.05.02-.08.04-.02,0-.03.01-.05.02.05-.02.05-.02,0,0-.05.02-.11.04-.16.07-.13.05-.26.1-.39.16-.13.05-.22.12-.28.25-.05.12-.05.27.02.38.86,1.34,1.72,2.68,2.58,4.02.12.19.39.29.59.16.19-.12.29-.39.16-.59-.86-1.34-1.72-2.68-2.58-4.02-.09.21-.17.42-.26.64.98-.38,1.96-.8,2.78-1.49.78-.65,1.3-1.56,1.41-2.58.06-.55-.05-1.12-.32-1.61-.11-.2-.4-.28-.59-.16-.2.13-.27.38-.16.59h0Z"/>
                <g>
                  <path class="cls-12" d="M325.51,287.38c.1.89.04,1.79.14,2.68.02.22.18.44.43.43.21,0,.46-.19.43-.43-.1-.89-.04-1.79-.14-2.68-.02-.22-.18-.44-.43-.43-.21,0-.46.19-.43.43h0Z"/>
                  <path class="cls-12" d="M325.74,287.39c1.8-.15,3.6-.17,5.4-.07.51.03,1.01.07,1.52.11.23.02.44-.21.43-.43-.01-.25-.19-.41-.43-.43-1.79-.17-3.6-.21-5.4-.13-.51.02-1.01.05-1.52.09-.22.02-.44.19-.43.43,0,.22.19.45.43.43h0Z"/>
                  <path class="cls-12" d="M326.08,290.48c1.01.05,2.05-.04,3.03-.31.97-.27,1.92-.71,2.65-1.41.4-.38.73-.84.95-1.34.05-.11.08-.21.04-.33-.03-.1-.11-.21-.2-.26-.19-.1-.5-.07-.59.16-.09.21-.2.41-.32.59-.03.04-.06.09-.09.13-.01.02-.04.04-.05.06,0,0,.06-.07.03-.03-.01.01-.02.03-.03.04-.07.09-.14.17-.22.25-.08.08-.16.16-.24.23-.04.04-.08.07-.12.1-.02.02-.04.03-.06.05-.04.03.03-.03.03-.03-.01,0-.03.02-.04.03-.18.14-.38.26-.58.37-.1.06-.2.11-.31.16-.05.02-.1.05-.15.07-.03.01-.05.02-.08.03-.04.02.04-.02.04-.02-.02,0-.03.01-.05.02-.22.09-.45.17-.69.24-.23.07-.47.13-.7.17-.12.02-.24.05-.36.06-.06,0-.12.02-.17.03,0,0,.09-.01.04,0-.01,0-.03,0-.04,0-.03,0-.07,0-.1.01-.53.06-1.07.08-1.6.05-.23-.01-.44.21-.43.43.01.24.19.42.43.43h0Z"/>
                </g>
                <g>
                  <path class="cls-12" d="M343.93,282.95c.02-.09.04-.17.06-.26.01-.04.03-.08.05-.13.02-.06-.05.1,0,0,.01-.02.02-.04.03-.07.04-.08.09-.16.14-.23.01-.02.03-.05.04-.06,0,0-.06.08-.01.02.03-.04.06-.08.1-.11.06-.07.13-.13.19-.19.01-.01.04-.03.05-.04-.03.05-.05.04-.02.01.04-.03.09-.06.14-.09.07-.04.15-.09.22-.12,0,0,.09-.05.03-.01-.05.03,0,0,.02,0,.05-.02.1-.04.15-.05.08-.02.16-.04.25-.06.06-.01-.11,0-.01,0,.02,0,.04,0,.06,0,.05,0,.1,0,.15,0,.04,0,.09,0,.13,0,.01,0,.07,0,.07,0,0,0-.11-.02-.03,0,.09.02.18.04.27.07.04.01.08.04.13.05-.07-.01-.06-.03-.02,0,.02.01.04.02.07.03.08.04.17.09.24.14.03.02.07.04.1.07-.06-.07-.03-.02,0,0,.02.02.04.03.06.05.07.06.13.12.19.19.02.02.03.04.05.06,0,.01.02.02.03.03-.03-.04-.04-.05-.02-.03.03.04.06.08.08.12.03.05.06.09.08.14.02.04.04.1.07.13-.04-.05-.02-.06,0-.02.01.03.02.06.03.08.02.05.03.09.04.14.01.05.02.1.03.14,0,.02,0,.1,0,.03,0-.07,0,.04,0,.06.02.23.19.44.43.43.22,0,.45-.19.43-.43-.07-.96-.69-1.8-1.57-2.17-.89-.38-1.91-.13-2.6.52-.37.35-.65.82-.74,1.33-.04.22.06.48.3.53.21.05.49-.06.53-.3h0Z"/>
                  <path class="cls-12" d="M343.69,282.67c.08,0,.16-.01.24,0,.01,0,.03,0,.04,0,.06,0-.09-.02-.03,0,.04,0,.09.02.13.03.04.01.07.02.11.03.01,0,.03.01.04.02.06.02-.07-.04-.02,0,.07.04.15.08.22.12.02.01.1.07.05.04-.05-.04.05.04.06.05.06.05.12.11.17.17.07.08-.04-.06.02.03.02.03.04.06.06.09.02.03.04.07.06.1,0,.02.02.04.03.05,0,.01.05.09.02.03-.03-.06.02.04.02.06.01.04.03.08.04.11.01.04.02.08.03.12,0,.01.02.06.01.07,0-.02,0-.03,0-.05,0,.02,0,.03,0,.05,0,.09.01.17,0,.26,0,.05,0,.09,0,.14,0,.02,0,.03,0,.05,0,.05.01-.08,0,0-.03.18-.08.36-.15.53,0,.02-.04.07,0,0-.01.02-.02.04-.03.06-.02.04-.04.07-.05.11-.05.09-.1.17-.15.26-.02.03-.05.07-.07.1-.01.02-.03.04-.04.06,0,.01-.05.07-.02.03.03-.04-.01.01-.02.02-.01.01-.02.03-.03.04-.03.04-.06.07-.1.11-.05.05-.12.14-.18.17.07-.03.03-.03,0,0-.02.01-.04.03-.05.04-.04.03-.08.05-.13.07-.02,0-.04.02-.06.03-.05.03.07-.02.02,0-.04,0-.07.02-.1.03,0,0-.06.02-.06.01,0,0,.11,0,.02,0-.02,0-.04,0-.06,0-.02,0-.1,0-.03,0,.06,0-.04-.01-.06-.02-.08-.02.02,0,.02,0,0,0-.05-.03-.05-.03,0,0-.05-.03-.05-.03,0,0,.08.07.01,0-.03-.03-.06-.06-.09-.09-.07-.07.01.01,0,.01,0,0-.03-.05-.04-.05,0,0-.06-.11-.06-.11,0,0,.03.1,0,.01,0-.02,0-.03-.01-.05,0-.02,0-.04-.01-.06-.01-.05,0,.09,0,0,0-.19.01-.39.03-.58,0-.08.01-.15.02-.23,0-.03,0-.07.01-.1,0-.08,0,.03,0,.03,0-.02,0-.05.01-.08.02-.12.04-.23.07-.34.03-.11.06-.21.1-.31.01-.03.02-.05.03-.08,0-.01-.05.1-.03.06,0-.01.01-.03.02-.04.02-.05.04-.09.06-.14.1-.21.21-.41.3-.62.05-.11.08-.21.04-.33-.03-.1-.11-.21-.2-.26-.19-.1-.49-.07-.59.16-.19.43-.44.83-.56,1.29-.09.32-.12.66-.15.99-.02.21-.05.43-.02.64.03.26.12.49.28.69.31.4.81.6,1.3.46.46-.13.83-.47,1.11-.84.53-.7.84-1.66.59-2.53-.25-.87-1.13-1.64-2.08-1.53-.22.03-.44.18-.43.43,0,.21.19.46.43.43h0Z"/>
                </g>
              </g>
            </g>
          </g>
          <path class="cls-20" d="M343.42,308.02c-3.75,4.06-7.81,9.69-5.94,10.31,6.26,2.09,12.09,5.77,12.5,5,.3-.57-6.82-2.87-8.44-7.81-1.38-4.21,2.53-8.21,1.88-7.5Z"/>
          <g>
            <path class="cls-22" d="M350.92,318.03c.14.68-7.81,11.88-9.69,12.81-2.18,1.09-4.79-6.35-3.13-8.44,1.25-1.56,2.5-3.44,6.25-11.25,1.36-2.83,4.41-3.41,6.56,6.88Z"/>
            <path class="cls-21" d="M339.67,317.4c8.75,4.69,10.28,6.77,10.94,5.63,3.44-5.94,6.25-10.31,3.75-16.57-.45-1.14-5.31-8.44-9.38-.63-1.02,1.96-6.14,11.12-5.31,11.56Z"/>
            <path class="cls-22" d="M314.35,313.34s13.42,6.02,20.94,8.13c.67.19,8.07,3.72,7.81,5.94-.28,2.42-1.88,4.69-4.69,4.06-4.59-1.02-17.82-8.75-23.13-11.25-2.84-1.34-7.83-8.18-.94-6.88Z"/>
            <path class="cls-22" d="M312.79,304.9c-.31-.94-7.5-1.56-7.5-1.56-2.22.39-5.4,2.97-5.31,3.44.39,2.22,3.64,1.78,2.81,1.88-2.81.31-.7,2.24-1.25,2.5-.9.42,1.88.63,1.88.63-1.88,1.25-.94,2.13-.31,2.5,1.96,1.16,1.8-.03,1.56.63-.3.83-1.01,2.81.31,2.81.94,0,1.14-1.26,3.75-1.25.65,0,2.19,5.31,6.56,3.75.43-.15.98-.21,1.87-.63,2.43-1.14-2.53-5.4-2.81-6.25-.63-1.88-.15-4.19-1.56-8.44Z"/>
            <g>
              <path class="cls-12" d="M310.27,303.58c-.84-.14-1.69-.29-2.53-.43-.41-.07-.83-.14-1.24-.21-.21-.04-.43-.07-.64-.11-.22-.04-.44-.1-.66-.07-.45.04-.84.28-1.22.48-.36.19-.72.39-1.08.6-.71.4-1.41.83-2.1,1.27-.59.38-1.25.84-1.42,1.57-.18.75.23,1.46.84,1.88.6.41,1.37.46,2.04.21.37-.14.69-.34,1-.58.27-.21.49-.47.72-.71,0-.01.02-.02.03-.03.06-.06-.02.02-.02.01,0,0,.07-.05.08-.05.09-.05-.06.01,0,0,.04-.01.08-.02.12-.03.11-.02-.07,0,.01,0,.04,0,.08,0,.12,0,.08,0,.17.02.24.01,0,0-.09-.01-.04,0,.02,0,.04,0,.06,0,.04,0,.07.01.11.02.08.02.16.04.23.06.2.05.4.11.59.16.82.22,1.65.45,2.47.67.05.01.09.03.14.04.13.04.08.05-.05-.2-.08-.15-.15-.17-.08-.28.04-.04.08-.07.11-.11.08-.01.16-.02.25-.04,0,0,.17.12.1.05,0,0,.04.07.02.03,0-.02-.03-.04-.04-.07-.1-.2-.4-.28-.59-.16-.21.13-.27.38-.16.59.13.25.36.44.65.41.3-.04.55-.37.46-.67-.04-.13-.12-.24-.24-.31-.11-.06-.26-.09-.39-.12-.21-.06-.42-.11-.63-.17-.82-.22-1.63-.46-2.45-.67-.35-.09-.71-.14-1.08-.08-.17.03-.33.09-.47.19-.15.11-.26.25-.39.38-.12.13-.24.25-.37.36-.03.03-.06.05-.09.08-.02.01-.03.03-.05.04.01,0,.07-.05,0,0-.07.05-.14.1-.22.15-.07.04-.13.08-.2.12-.04.02-.08.04-.12.06,0,0-.05.03-.06.03.01,0,.08-.03.01,0-.16.06-.32.1-.48.14-.06.01.08,0,.02,0-.02,0-.03,0-.05,0-.04,0-.09,0-.13,0-.04,0-.07,0-.11,0-.02,0-.04,0-.06,0,0,0-.02,0-.03,0-.03,0-.02,0,.04,0-.03.02-.17-.03-.21-.05-.04-.01-.08-.02-.11-.04-.02,0-.04-.02-.06-.02.02,0,.07.03.02,0-.07-.03-.13-.07-.2-.11-.03-.02-.06-.04-.09-.06-.06-.04,0,0,.02.01-.01-.02-.04-.03-.06-.05-.06-.05-.11-.1-.16-.16-.01-.02-.08-.1-.04-.05.04.05,0,0,0-.01-.01-.02-.03-.04-.04-.06-.02-.03-.03-.06-.05-.09,0-.02-.02-.03-.03-.05-.01-.03,0-.06,0-.01,0,.04,0,.02,0,0,0-.02-.01-.04-.02-.05-.01-.04-.02-.07-.03-.11,0,0,0-.05-.01-.06.02.01,0,.1,0,.03,0-.03,0-.07,0-.1,0-.02.01-.14,0-.07-.01.06,0,.01,0,0,0-.02,0-.05.02-.07.01-.04.02-.08.04-.12,0-.01.02-.03.02-.04,0,.06-.03.06,0,.02.04-.07.08-.14.13-.21.03-.05.02,0-.01.01,0,0,.02-.03.03-.04.03-.03.05-.06.08-.09.06-.06.12-.12.18-.17.03-.02.06-.05.09-.07.04-.03,0-.03-.01,0,0,0,.03-.02.04-.03.07-.05.14-.1.21-.15.16-.11.32-.21.48-.31.35-.22.7-.44,1.05-.65.71-.43,1.44-.83,2.17-1.22.08-.04.17-.09.26-.13.02,0,.03-.02.05-.02-.07.03-.01,0,0,0,.05-.02.11-.04.16-.05.02,0,.04,0,.05-.01.09-.02,0,0,0,0,.04-.02.1,0,.15,0,0,0-.08-.01-.02,0,.03,0,.06,0,.08.01.06.01.12.02.19.03.42.07.84.14,1.27.22.85.14,1.7.29,2.55.43.21.04.41.07.62.11.22.04.48-.06.53-.3.05-.21-.06-.49-.3-.53h0Z"/>
              <path class="cls-12" d="M302.91,308.96c.38-.09.77-.17,1.16-.23.02,0,.04,0,.06,0,.07-.01-.07,0,0,0,.05,0,.09-.01.14-.02.1-.01.21-.02.31-.03.19-.02.38-.03.57-.04.39-.02.79-.01,1.18,0,.19.01.38.03.57.05.1.01.2.02.29.03.05,0-.01,0-.02,0,.03,0,.05,0,.08.01.05,0,.1.02.16.02.44.07.88.16,1.31.28.22.06.48-.07.53-.3.05-.23-.07-.47-.3-.53-1.57-.43-3.23-.55-4.85-.34-.48.06-.96.15-1.43.27-.22.05-.37.31-.3.53.07.23.3.36.53.3h0Z"/>
              <path class="cls-12" d="M301.86,308.54c-.61.45-1.06,1.14-1.05,1.92.01.75.48,1.43,1.17,1.71.38.16.8.12,1.19.02.39-.1.77-.23,1.16-.32.19-.04.38-.08.58-.12.09-.02.18-.03.27-.05.05,0,.1-.02.16-.02,0,0,.07,0,.02,0-.06,0,.05,0,.06,0,.39-.05.78-.08,1.18-.09.45-.01.89,0,1.34.04.1,0,.21.02.31.03.06,0,.12.01.18.02.02,0,.04,0,.06,0-.09-.01,0,0,.02,0,.23.03.45.07.68.12.22.04.48-.06.53-.3.05-.21-.06-.48-.3-.53-1.52-.3-3.07-.32-4.59-.07-.37.06-.73.14-1.1.24-.18.05-.35.1-.53.15-.09.03-.18.05-.27.07-.04,0-.08.02-.11.03-.03,0-.05,0-.08.01-.04,0-.04,0,0,0-.09,0-.18.01-.27,0-.04,0-.06-.03.02,0-.01,0-.03,0-.04,0-.04,0-.08-.02-.11-.03-.03,0-.06-.03-.1-.03,0,0,.08.04.04.01-.01,0-.03-.01-.04-.02-.03-.02-.06-.03-.09-.05-.02-.01-.03-.02-.05-.03-.01,0-.06-.05-.02,0,.05.04-.03-.03-.05-.04-.03-.02-.05-.05-.07-.07-.02-.02-.05-.07-.07-.08,0,0,.05.07.02.03-.01-.02-.03-.04-.04-.06-.04-.05-.07-.11-.1-.17-.05-.1.02.05-.01-.02-.01-.04-.03-.07-.04-.11-.01-.04-.02-.08-.03-.12,0-.01,0-.03,0-.04-.01-.05,0,.09,0,.01,0-.09,0-.17,0-.25,0-.02,0-.03,0-.05,0-.06-.02.11,0,0,0-.04.02-.08.03-.12.01-.04.02-.08.04-.12,0-.02.01-.03.02-.05,0-.01,0-.02.01-.03.01-.03,0-.02-.01.03-.01-.02.1-.19.11-.22.02-.04.05-.07.07-.11.01-.02.03-.04.04-.05.03-.05-.05.06,0,.01.06-.07.11-.13.17-.19.03-.03.06-.06.1-.09.01-.01.02-.02.04-.03.08-.07-.07.05.02-.01.18-.13.29-.38.16-.59-.12-.18-.4-.3-.59-.16h0Z"/>
              <path class="cls-12" d="M302.94,311.71c-.82.7-1.17,2.3-.09,2.94.32.19.7.23,1.07.22.36-.02.72-.07,1.08-.11.77-.08,1.54-.16,2.3-.24.87-.09,1.75-.18,2.62-.27.22-.02.44-.18.43-.43,0-.21-.19-.46-.43-.43-1.45.15-2.89.3-4.34.45-.36.04-.71.07-1.07.11-.31.03-.63.08-.95.05-.09,0,.06.01-.02,0-.03,0-.07-.01-.1-.02-.04-.01-.07-.02-.11-.04-.05-.02.03.01.03.01,0,0-.05-.03-.06-.03-.02-.01-.05-.03-.07-.05-.06-.04.06.06,0,0-.04-.04-.07-.09-.12-.12,0,0,.05.08.03.04,0-.01-.01-.02-.02-.03-.01-.02-.02-.04-.04-.06-.01-.02-.02-.04-.03-.06,0,0,.03.09.02.05,0-.01-.01-.03-.02-.04-.02-.05-.03-.1-.04-.15-.02-.07,0,.1,0,.02,0-.03,0-.06,0-.09,0-.06,0-.12,0-.19,0-.01,0-.03,0-.04,0-.05-.02.09,0,.04,0-.03.01-.06.02-.09.01-.06.03-.13.05-.19,0-.03.02-.06.03-.09.02-.07-.04.08,0,0,.06-.12.12-.23.19-.33.04-.06-.06.07,0,0,.02-.03.05-.05.07-.08.04-.05.09-.09.14-.13.17-.15.16-.46,0-.61-.18-.17-.43-.16-.61,0h0Z"/>
              <path class="cls-12" d="M304.39,314.69c-.39.36-.7.86-.77,1.39-.08.57.06,1.11.43,1.55.15.17.34.32.55.41.32.14.64.16.98.11.28-.04.55-.14.82-.23.28-.09.57-.19.85-.28.65-.21,1.29-.42,1.94-.63.21-.07.38-.3.3-.53-.07-.21-.3-.38-.53-.3-1.04.34-2.08.69-3.12,1.02-.11.04-.23.07-.34.09-.04,0-.08.02-.11.02.02,0,.08,0,0,0-.07,0-.14,0-.21,0-.02,0-.1-.02-.02,0-.02,0-.04,0-.06-.01-.04,0-.1-.04-.14-.04.06,0,.06.03.02,0-.03-.01-.05-.03-.08-.04-.03-.02-.1-.05-.12-.08.04.07.04.03,0,0-.02-.02-.04-.03-.05-.05-.02-.02-.09-.08-.1-.11,0,0,.06.08.01.02-.01-.02-.02-.03-.03-.05-.03-.05-.06-.1-.09-.16,0-.01-.02-.04-.03-.05.01.09.02.04,0,0-.01-.04-.03-.08-.04-.13,0-.03-.01-.06-.02-.09,0-.03,0-.06,0,.03,0-.06,0-.12,0-.18,0-.03,0-.06,0-.08,0-.02,0-.03,0-.05,0-.03,0-.02,0,.03-.02-.02.03-.16.04-.18.02-.06.04-.12.06-.18.03-.07,0,0,0,0,.01-.04.03-.07.05-.11.03-.06.06-.11.09-.16.01-.02.02-.04.04-.06,0,0,.08-.11.05-.07-.04.05.03-.03.03-.04.02-.03.04-.05.07-.08.05-.05.09-.1.14-.14.17-.15.17-.46,0-.61-.18-.16-.43-.16-.61,0h0Z"/>
              <path class="cls-12" d="M309.15,317.52c.36.84.77,1.69,1.41,2.37.33.35.72.62,1.16.8.53.21,1.1.23,1.66.17.71-.08,1.41-.2,2.11-.3.22-.03.37-.33.3-.53-.08-.25-.29-.34-.53-.3-.29.04-.59.08-.88.13-.14.02-.29.04-.43.06-.07,0-.14.02-.2.03-.03,0-.05,0-.08.01-.03,0-.05,0-.08.01-.05,0-.05,0-.02,0,.06,0-.07,0-.06,0-.04,0-.08,0-.12.01-.07,0-.13.01-.2.02-.15.01-.29.02-.44.01-.07,0-.13,0-.2-.01-.03,0-.05,0-.08,0,.1.01-.03,0-.04,0-.12-.02-.23-.05-.34-.09-.04-.01-.11-.03-.13-.05.04.04.07.03.02,0-.03-.01-.05-.02-.08-.04-.09-.05-.18-.1-.27-.16-.04-.03-.08-.05-.12-.08-.08-.06.06.05,0,0-.02-.02-.04-.03-.06-.04-.08-.07-.16-.14-.23-.21-.07-.07-.13-.14-.2-.21-.03-.04-.06-.08-.09-.11-.06-.08.06.08,0,0-.02-.02-.04-.05-.05-.07-.12-.17-.24-.35-.34-.53-.24-.42-.45-.87-.64-1.31-.09-.21-.41-.27-.59-.16-.22.14-.25.37-.16.59h0Z"/>
              <path class="cls-12" d="M311,304.95c.32-.01.64,0,.96.03.02,0,.14.02.04,0,.04,0,.08.01.12.02.08.01.16.03.24.04.16.03.31.07.47.11-.11-.14-.21-.28-.32-.42.33,2.5.7,4.99,1.1,7.48.11.69.22,1.38.34,2.06.04.22.33.37.53.3.24-.08.34-.29.3-.53-.41-2.43-.79-4.87-1.13-7.31-.05-.35-.1-.69-.14-1.04-.02-.17-.05-.33-.07-.5,0-.04-.01-.08-.02-.12,0,0-.02-.14,0-.05-.01-.1-.03-.19-.04-.29-.03-.19-.12-.36-.32-.42-.66-.19-1.36-.27-2.05-.24-.23,0-.44.19-.43.43.01.23.19.44.43.43h0Z"/>
            </g>
          </g>
          <path class="cls-5" d="M310.6,429.3c-1.56-.31,2.19,1.56-4.69,9.69-2.02,2.39,6.76,2.42,8.44-1.56.69-1.62,1.56-1.88,1.56-6.56,0-1.68-3.69-1.24-5.31-1.56Z"/>
          <path class="cls-5" d="M340.92,427.42c-1.56-.31.63,5.94,1.88,8.75,1.1,2.47,8.12,1.29,6.88-.94-1.56-2.81-2.9-4.77-1.56-8.13.63-1.56-4.7.81-7.19.31Z"/>
          <path class="cls-5" d="M294.66,444.61c20,6.25,26.57-1.4,26.57,0,0,4.06.94,5,0,5-6.57,0-24.07-.31-25.63-.94-1.55-.62-.95-2.96-.94-4.06Z"/>
          <path class="cls-5" d="M337.8,443.36c-1.19-.5.23,3.83.31,4.06.63,1.88,14.38,1.25,20.32.63.36-.04.63-1.25.63-3.75,0-1.33-6.56,5.31-21.25-.94Z"/>
        </g>
      </g>
      <g>
        <ellipse class="cls-13" cx="383.12" cy="464.01" rx="48.58" ry="7.94"/>
        <g>
          <g>
            <g>
              <path class="cls-11" d="M365.49,414.32s2.81,9.25,3.17,15.5c.11,1.87,6.45-1.44,7.77-6.75.63-2.5,0-4.28,0-10.63,0-1.89-2.9,1.88-10.94,1.88Z"/>
              <path class="cls-19" d="M370.8,424.33c-1.36,0-3.97-1.31-6.15-.47-.64.25.42,2.66.37,3.32-.47,5.9-2.97,8.09-5.47,9.02-1.58.59-3.75,1.88-3.75,6.25,0,1.89,1.42,3.77,2.81,4.38,5,2.19,8.8.77,10.31-.94,7.33-8.29,11.88-15.63,10.63-27.82-.16-1.59-3.13-3.75-3.13,1.25,0,3.87-2.56,5.69-2.81,5.94-1.25,1.25-2.02-.94-2.81-.94Z"/>
              <path class="cls-10" d="M364.55,424.33c1.6,8.02-2.81,9.69-1.88,10,1.81.6,3.51,2.82,5,1.88,3.44-2.19,5.32-5.31,4.38-8.75-.55-2.03-.75-2.81-1.25-3.13-.13-.08-6.56-1.56-6.25,0Z"/>
              <g>
                <path class="cls-6" d="M381.12,365.57c1.56,13.75-.94,40.32-3.44,51.26-.16.72-7.19,8.13-13.44,2.81-.46-.39,0-9.38-1.45-25.16-1.02-11.12.91-23.71,3.32-32.35.93-3.35,14.56-.46,15,3.44Z"/>
                <path class="cls-16" d="M381.12,365.57c-.07-.9-10.94-5.63-7.5.63.7,1.27,6.25,0,5.63,9.69-.57,8.77,1.56,28.44-7.19,27.51-2.84-.3-6.16-3.84-6.56-3.13-.54.96.48.99,1.25,5.94,1.56,10,1.18,13.15,2.81,14.38,2.5,1.88,8.29-2.83,8.75-5.63,1.25-7.5,4.69-23.75,2.81-49.38Z"/>
              </g>
              <path class="cls-10" d="M359.28,444.83c1.86.96,4.04,1.24,6.08.8,1.83-.4,3.52-1.42,4.76-2.82.7-.8,1.25-1.7,1.64-2.69.09-.23-.1-.52-.33-.58-.27-.06-.48.08-.58.33-.02.05-.04.1-.06.15-.04.1.03-.07,0,0-.01.02-.02.05-.03.07-.04.1-.09.2-.14.3-.1.2-.2.39-.31.57-.11.18-.22.36-.34.54-.06.09-.12.17-.19.26-.01.02-.03.03-.04.05.07-.09.02-.03,0,0-.04.05-.07.09-.11.14-.28.34-.58.65-.9.94-.16.14-.32.29-.49.41.11-.08-.03.02-.06.04-.04.03-.08.06-.12.08-.09.06-.18.13-.28.19-.36.24-.74.45-1.13.62-.05.02-.1.04-.15.06-.03.01-.1.04,0,0-.02,0-.04.02-.06.02-.11.05-.23.09-.34.13-.22.08-.45.15-.68.21-.23.06-.46.11-.7.15-.06.01-.12.02-.18.03-.03,0-.06,0-.09.01-.07.01.12-.01,0,0-.12.01-.25.03-.37.04-.48.04-.96.04-1.44,0-.13-.01-.26-.02-.39-.04.13.02,0,0-.02,0-.04,0-.07-.01-.11-.02-.06-.01-.13-.02-.19-.03-.26-.05-.52-.11-.78-.18-.26-.07-.52-.16-.78-.26-.02,0-.04-.02-.07-.03-.01,0-.14-.06-.08-.03.07.03-.04-.02-.04-.02-.03-.01-.07-.03-.1-.04-.13-.06-.26-.12-.39-.19-.22-.11-.52-.06-.64.17-.11.21-.06.52.17.64h0Z"/>
            </g>
            <g>
              <path class="cls-24" d="M378.95,433.7s1.33,17.45,1.69,23.7c.11,1.87,9.26-5.19,6.72-9-1.37-2.05,1.25-9.91,1.25-16.25,0-1.89-1.62,1.56-9.66,1.56Z"/>
              <path class="cls-6" d="M395.49,365.25c.15,7.4,1.56,8.75-3.44,41.26-2.36,15.33,1.3,33.44.31,33.44-7.81,0-18.13,1.25-17.82-.31,3.16-15.82,6.88-55.64,6.25-75.64-.08-2.54,14.6-3.21,14.69,1.25Z"/>
              <path class="cls-28" d="M389.87,443.39c.63-.94-6.56.63-8.44,3.75-.82,1.37.94-3.44-6.25-3.13-.85.04,2.5,5.94,1.25,9.38-2.36,6.5-4.01,6.74-2.19,12.19.63,1.88,9.38.31,24.38.94,2.21.09,4.06-3.75,1.56-8.75-.85-1.7-4.38,1.88-8.75-2.81-.95-1.02-4.47-7.21-1.56-11.56Z"/>
              <path class="cls-10" d="M389.87,443.08c-2.5-.63-8.44,2.5-8.44,4.06,0,11.25,13.75,10.94,12.19,9.69-8.29-6.63-2.79-13.51-3.75-13.75Z"/>
              <path class="cls-10" d="M374.01,461.8c1.52-.17,3.06-.1,4.58.05.42.04.85.09,1.27.14.1.01.19.02.29.04.03,0,.22.03.09.01.06,0,.12.02.18.02.21.03.43.06.64.09.9.13,1.79.28,2.68.44,1.83.32,3.65.67,5.47.99,1.78.31,3.58.59,5.38.76,1.54.15,3.09.22,4.63.05.2-.02.41-.05.61-.08.24-.04.4-.36.33-.58-.09-.27-.32-.37-.58-.33-.04,0-.09.01-.13.02-.07,0,.12-.02.02,0-.02,0-.04,0-.06,0-.09.01-.17.02-.26.03-.18.02-.36.03-.54.05-.37.03-.74.04-1.12.04-.79,0-1.59-.03-2.38-.09-.42-.03-.83-.07-1.25-.12-.22-.02-.43-.05-.65-.08-.11-.01-.22-.03-.33-.04-.05,0-.1-.01-.15-.02.11.02.04,0,.02,0-.04,0-.07,0-.11-.01-.9-.12-1.79-.27-2.68-.42-1.82-.31-3.64-.66-5.45-.98-1.78-.32-3.56-.61-5.35-.81-1.54-.17-3.1-.28-4.65-.16-.17.01-.35.03-.52.05-.24.03-.48.2-.47.47.01.23.21.5.47.47h0Z"/>
            </g>
          </g>
          <g>
            <g>
              <path class="cls-24" d="M404.25,362.44c-.07.27-.12.65,0,1.25.49,2.48,5.25,7.91,5.63,7.5,3.44-3.75-1.81-6.84-1.25-7.81,5-8.75-.51-6.51-.94-6.88-.53-.45-3.01,4.31-3.44,5.94Z"/>
              <path class="cls-24" d="M411.12,352.44c3.44,6.25,5.31,8.13,7.81,13.13.44.88,0,4.38,0,4.38-.31,2.19-1.25,2.19-2.19,2.5-2.1.7-1.19.02-2.19.63-3.13,1.88-2.65.27-3.44.63-3.44,1.56-1.64-1.28-2.5-1.56-.94-.31,1.56-4.06,4.06-5.63.34-.21-.94-3.44-2.5-6.88-.32-.7-6.45,3.73-5.94,2.5,1.56-3.75,1.44-6.06,2.81-7.5,2.03-2.13,3.54-3.15,4.06-2.19Z"/>
              <path class="cls-24" d="M403,329.31c1.56,7.81,6.25,21.88,12.74,30.78,0,0-8.5-1.85-9.97-3.69-7.77-17.39-12.77-23.96-12.77-32.4,0-5.76,5.88-15.94,7.81-6.25.63,3.13,1.76,9.45,2.19,11.56Z"/>
              <path class="cls-2" d="M390.77,302.48c4.8.37,8.39,1.43,9.42,3.7,1.56,3.44,1.25,6.88,2.81,14.38.13.61-10.94,3.44-13.75,4.38-1.79.6-4.12.05-6.88-1.25-6.6-3.11,4.12-21.53,8.4-21.2Z"/>
              <g>
                <path class="cls-7" d="M406.41,355.08c-.63,1.95-1.27,3.89-1.9,5.84-.16.49-.33.97-.47,1.46-.07.24-.12.5-.12.75,0,.27.08.51.19.75.1.21.23.41.35.6.14.22.28.44.41.66.27.43.54.86.81,1.29.54.87,1.09,1.74,1.63,2.61.27.44.54.87.82,1.31.13.21.26.42.39.63.13.19.28.37.48.47.45.21.94.04,1.32-.24.28-.21.52-.48.68-.79.32-.62.39-1.35.32-2.04-.08-.77-.3-1.49-.6-2.19-.36-.87-.8-1.7-1.32-2.48-.12-.19-.25-.38-.39-.56.01.09.02.18.04.27.23-.56.45-1.12.68-1.68,0-.01.01-.03.02-.04,0,0-.02.05,0,.01.01-.03.03-.07.04-.1.03-.06.05-.12.08-.18.06-.13.11-.25.17-.38.12-.25.24-.5.37-.75.17-.32.35-.64.54-.96.09-.16.04-.39-.13-.48-.17-.09-.38-.04-.48.13-.49.82-.91,1.67-1.28,2.55-.18.43-.35.87-.53,1.3-.05.12-.1.23-.14.35-.07.22.06.36.17.52.15.22.3.44.44.66.28.45.54.91.77,1.39.22.46.39.85.56,1.34.13.37.22.75.28,1.14-.01-.09,0,.05,0,.08,0,.05,0,.09.01.14,0,.1.01.21.02.31,0,.19,0,.39-.03.58.01-.1,0,.04-.01.07,0,.04-.02.09-.03.13-.02.09-.05.19-.08.28-.01.04-.03.08-.04.12-.03.08.03-.07,0,.01,0,.02-.01.03-.02.05-.04.08-.08.16-.13.24-.02.04-.05.07-.07.1-.05.07.04-.04,0,0-.01.01-.03.03-.04.05-.06.07-.13.14-.2.2-.02.01-.03.03-.05.04-.04.04.07-.05,0,0-.04.02-.07.05-.11.07-.04.03-.09.05-.13.07,0,0-.1.04-.05.03.02,0-.07.02-.09.03-.02,0-.04.01-.07.02.07-.01-.03,0-.04,0-.02,0-.04,0-.07,0,.07,0-.03,0-.04-.01-.09-.02.02.02-.02-.01-.01,0-.07-.05-.02,0-.05-.04-.09-.09-.13-.13.04.05,0,0,0,0-.02-.03-.04-.05-.05-.08-.03-.05-.06-.1-.1-.15-.08-.13-.16-.26-.25-.39-.31-.49-.62-.99-.93-1.48-.62-1-1.25-1.99-1.87-2.99-.31-.5-.63-1-.94-1.5-.07-.11-.13-.21-.2-.32-.07-.12-.12-.23-.15-.31-.08-.24-.07-.45-.02-.69.06-.28.16-.55.25-.82.09-.28.18-.56.27-.84.18-.56.36-1.12.55-1.68.36-1.11.72-2.21,1.08-3.32.09-.28.18-.56.27-.84.06-.18-.07-.39-.25-.43-.19-.04-.37.06-.43.25h0Z"/>
                <path class="cls-7" d="M410.09,360.34s.02.04.03.04c-.04-.02-.05-.06-.01-.01.02.03.04.06.07.09.05.07.09.13.13.2.09.16.18.32.26.48.09.19.18.38.26.57-.04-.08.02.05.03.07.02.05.04.1.06.16.04.11.08.22.13.33.34.9.62,1.83.85,2.77.11.46.22.93.3,1.4.03-.11.06-.23.09-.34-.41.42-.84.83-1.25,1.25-.13.13-.14.37,0,.5.14.13.36.14.5,0,.36-.37.73-.72,1.09-1.09.07-.07.16-.15.21-.24.08-.12.04-.27.01-.4-.02-.13-.05-.25-.07-.38-.06-.28-.12-.56-.19-.84-.3-1.24-.68-2.46-1.19-3.63-.22-.5-.46-1-.81-1.43-.12-.14-.38-.13-.5,0-.14.15-.12.34,0,.5h0Z"/>
                <path class="cls-7" d="M408.47,370.54c-.3.61-.47,1.45.05,1.99.41.42.96.73,1.56.58.26-.07.5-.21.72-.35.27-.18.52-.38.78-.58.57-.43,1.15-.85,1.73-1.27.56-.41,1.12-.81,1.68-1.23.3-.22.61-.44.89-.68.21-.18.42-.42.44-.7.02-.26-.05-.54-.1-.79-.08-.43-.18-.86-.29-1.29-.24-1.03-.51-2.05-.79-3.07-.03-.11-.06-.22-.09-.33-.05-.18-.25-.3-.43-.25-.18.06-.3.24-.25.43.26.95.52,1.9.75,2.86.11.45.22.9.32,1.36.04.18.08.36.11.54.01.07.03.15.04.22,0,.03,0,.06.01.09.01.09,0-.09,0,0,0,.05.01.09.01.14,0,.02,0,.04,0,.05,0,.07,0-.05,0-.05,0,.04.01-.01,0,.01-.02.03-.03.06-.05.08-.02.03,0,0,0,0-.01.02-.03.03-.04.05-.05.05-.1.1-.16.15-.01.01-.03.02-.04.03,0,0-.04.04-.02.01.03-.02-.02.01-.02.01-.02.02-.04.03-.06.05-.54.41-1.09.81-1.65,1.21-.53.38-1.05.76-1.58,1.15-.53.39-1.04.81-1.59,1.18-.1.07-.21.14-.32.19-.02.01-.05.02-.07.03-.01,0-.02.01-.03.02,0,0,.06-.02.03-.01-.05.02-.11.04-.16.05-.02,0-.05,0-.07.01-.04,0,.03,0,.04,0,0,0-.03,0-.03,0-.05,0-.11,0-.16,0-.04,0,.04,0,.04,0,0,0-.03,0-.03,0-.02,0-.05-.01-.07-.02-.02,0-.05-.02-.07-.02-.04,0,.02.01.02.01-.02,0-.04-.02-.06-.03-.05-.03-.1-.05-.15-.09-.03-.02-.05-.03-.08-.05-.03-.02,0,0,0,0-.02-.01-.03-.03-.05-.04-.06-.05-.12-.11-.18-.16,0,0-.07-.07-.04-.04.03.03-.02-.04-.03-.05,0-.01-.01-.03-.02-.04-.03-.04.02.05,0,0,0-.03-.02-.05-.03-.08,0-.03-.01-.06-.02-.09,0-.01,0-.03,0-.04,0,.03,0,.04,0,0,0-.07,0-.14,0-.21,0-.02,0-.03,0-.05,0,0,0,.05,0,0,0-.04.01-.08.02-.12.02-.08.04-.16.07-.24.03-.08.04-.11.08-.2.08-.16.05-.39-.13-.48-.16-.08-.39-.05-.48.13h0Z"/>
                <path class="cls-7" d="M416.57,363.94c.13.41.24.83.33,1.25.04.19.08.37.11.56.02.09.03.18.04.27,0,.04.01.09.02.13,0-.01,0-.07,0,0,0,.03,0,.05.01.08.08.65.11,1.31.11,1.96,0,.04,0,.07,0,.11,0-.08,0,.02-.01.05-.02.08-.05.16-.07.24-.01.04-.03.08-.05.12.02-.06-.02.04-.03.06-.03.07-.06.14-.1.21,0,.01-.02.03-.02.04-.04.07.06-.07.01-.02-.03.04-.07.08-.1.11-.23.24-.5.45-.76.65-.02.02-.04.03-.06.05-.07.05.06-.05,0,0-.05.04-.09.07-.14.11-.09.07-.19.14-.28.21-.21.16-.42.31-.64.46-.47.33-.93.66-1.41.99-.9.62-1.81,1.24-2.72,1.85-.18.12-.36.24-.53.36-.04.03-.08.05-.11.08-.01,0-.1.06-.04.03.05-.03-.04,0-.05.01-.06.02.04-.01.04,0,0,0-.03,0-.04,0-.01,0-.07,0-.08,0,0,0,.09.02.04,0-.01,0-.02,0-.04,0-.02,0-.11-.04-.05-.01.06.02-.02-.01-.04-.02-.02-.01-.04-.03-.06-.04-.05-.03.02.01.02.02,0,0-.02-.02-.03-.03-.03-.02-.05-.05-.08-.07-.02-.02-.04-.04-.06-.07,0,0-.01-.02-.02-.03-.03-.03.04.06.01.02-.04-.06-.07-.11-.11-.17-.02-.03-.09-.14-.08-.17,0,0,.03.08,0,.02,0-.01-.01-.03-.02-.04-.01-.03-.02-.07-.03-.1-.02-.05-.03-.11-.04-.16-.02-.1,0,.05,0-.01,0-.03,0-.07,0-.1,0-.03,0-.05,0-.08,0-.06-.02.08,0,0,0-.02.01-.05.02-.07.03-.09-.02.03,0,0,.08-.17.05-.39-.13-.48-.16-.08-.4-.05-.48.13-.27.57-.03,1.25.34,1.71.17.21.41.4.69.46.32.06.57-.05.83-.22.9-.6,1.79-1.2,2.68-1.81.95-.65,1.9-1.31,2.82-2.01.34-.26.68-.51.99-.8.09-.08.18-.17.26-.26.16-.19.25-.42.34-.65.07-.18.13-.37.14-.57.01-.16,0-.33,0-.49,0-.34-.02-.67-.05-1.01-.06-.8-.2-1.59-.4-2.37-.06-.22-.12-.44-.19-.66-.05-.18-.25-.31-.43-.25-.18.06-.3.24-.25.43h0Z"/>
                <path class="cls-7" d="M418.43,365.72c.05.45.05.91.07,1.37.02.7.04,1.4.03,2.1,0,.28,0,.55-.03.83,0,.05,0,.1-.01.15,0,.09.01-.07,0-.02,0,.02,0,.05-.01.07,0,.03-.01.06-.02.09-.02.07.06-.14,0-.02-.04.08-.07.15-.11.23-.11.22-.24.43-.39.63.05-.07,0,.01-.02.02-.02.02-.04.04-.05.07-.03.03-.06.07-.09.1-.07.08-.14.15-.22.22-.27.25-.56.47-.83.72-.06.06-.13.12-.19.18-.03.03-.06.06-.09.08,0,0-.02.01-.03.02-.05.04.08-.05,0,0-.06.04-.13.09-.19.12-.03.02-.07.03-.1.05-.06.03.08-.03.01,0-.02,0-.04.02-.06.02-.08.03-.17.05-.26.07-.05.01-.11.02-.17.03-.02,0-.03,0-.05,0,.1-.02-.02,0-.04,0-.29.03-.58.04-.87.03-.18,0-.36.16-.35.35,0,.19.15.35.35.35.48,0,.98,0,1.44-.13.33-.09.62-.26.87-.48.13-.11.24-.24.37-.35.14-.12.29-.24.43-.36.34-.28.63-.6.87-.97.15-.23.28-.48.39-.74.03-.08.05-.15.06-.23.04-.27.05-.54.06-.81.02-.7,0-1.4-.01-2.1-.02-.56-.02-1.12-.08-1.68-.02-.18-.15-.36-.35-.35-.17,0-.37.16-.35.35h0Z"/>
                <path class="cls-7" d="M417.5,365.81s.02.08.02.11c0,.02,0,.05.01.07,0,.01,0,.03,0,.04,0,0-.01-.1,0-.03.02.15.03.29.05.44.03.39.06.77.07,1.16.02.42.02.83.01,1.25,0,.18-.01.36-.03.54,0,.07-.02.15-.02.23,0-.03.01-.09,0-.03,0,.02,0,.03,0,.05,0,.03-.01.06-.02.09-.01.05-.03.1-.04.15-.02.07.05-.08.01-.02-.01.02-.02.04-.03.05-.01.02-.03.04-.04.06-.05.07.03-.04-.01.01-.03.04-.07.08-.1.12-.08.09-.16.18-.24.27-.37.39-.79.73-1.21,1.06,0,0-.06.05-.03.02.03-.02-.01,0-.02.01-.03.02-.05.04-.08.06-.06.04-.12.09-.18.13-.11.08-.22.16-.33.24-.21.15-.42.29-.64.43-.37.24-.76.46-1.14.68-.21.12-.42.25-.63.36-.11.06-.22.12-.33.17-.05.02-.09.05-.14.07-.03.01-.05.02-.08.04-.04.02.03-.01.03-.01-.02,0-.03.01-.05.02-.09.04-.19.07-.29.1-.04.01-.09.02-.13.03-.02,0-.05,0-.07.01,0,0,.08,0,.05,0-.01,0-.03,0-.04,0-.04,0-.08,0-.12,0-.06,0,0,0,.03,0-.01,0-.04,0-.06-.01-.01,0-.04-.02-.05-.02.02,0,.08.04.03.01-.01,0-.03-.02-.04-.02-.03-.02.06.06.01,0,0,0-.02-.03-.03-.03.02,0,.05.07.02.02,0-.02-.02-.04-.03-.05-.02-.03.02.05.02.04,0-.01,0-.02-.01-.04-.06-.17-.24-.31-.43-.25-.17.06-.31.25-.25.43.38,1.11,1.74.41,2.41.04.42-.24.83-.5,1.25-.74.44-.25.87-.54,1.28-.84.48-.35.95-.72,1.39-1.13.19-.18.38-.36.55-.55.13-.14.28-.3.37-.48.14-.29.15-.64.17-.95.03-.41.02-.83.02-1.24-.02-.75-.04-1.52-.16-2.26,0-.04-.01-.08-.02-.12-.04-.18-.26-.3-.43-.25-.19.06-.29.24-.25.43h0Z"/>
              </g>
            </g>
            <path class="cls-26" d="M394.87,331.18c-.69-5.15,1.88-17.82-3.75-28.44,0,0-.69-.09-2.81-.63-2.5-.63-.83,2.5-5.94,2.5-2.7,0-11.02-2.98-12.81-3.13-3.11-.26-13.86,3.96-16.58,10.97-1.72,4.42,1.46.59,10.33,4.66.59.27.3,12.98-.36,19.72-1.07,10.93-2.54,28.52-1.85,28.45,7.39-.74,20.71.61,37.21-.66,0,0-2.59-27.1-3.44-33.44Z"/>
            <path class="cls-26" d="M392.37,302.74c-2.64-.38,1.25,1.25,2.19,14.38.13,1.82,1.88-6.56,1.88-13.13,0-.99-1.88-.94-4.06-1.25Z"/>
          </g>
          <g>
            <path class="cls-21" d="M386.43,291.8c-3.13,1.88-6.42,3.75-7.19,3.75-2.42,0,1.92-5.59,3.13-10,.76-2.79,10.52-13.28,10.63-11.25.31,5.94-.31,9.38-1.56,11.88-1.63,3.26-4.35,5.23-5,5.63Z"/>
            <path class="cls-11" d="M372.68,292.74c-.1-2.43.73,8.37-.31,9.06-4.69,3.13-.17.34.31,2.5.63,2.81,9.06,5,13.44-.94.46-.63-.63.63-2.19-1.25-.73-.87-.63-10.31-.63-14.69,0-3.4-10.58,6.45-10.63,5.31Z"/>
            <path class="cls-24" d="M365.06,275.7c-.82,2.97-3.01,8.29.74,16.1,3.51,7.32,7.81,4.06,13.13.94,2.48-1.46,6.91-4.53,7.19-6.88.37-3.11.87-9.73.94-10.63-.16-8.92-6.66-9.71-11.24-9.35-7.83.6-9.72,6.1-10.75,9.82Z"/>
            <path class="cls-21" d="M392.37,271.8s-2.67-8.39-10.77-9.72c-9.78-1.6-12.79,3.48-14.24,5.65-1.93,2.9-1.55,6.31-1.25,5.63,1.25-2.81,3.13-4.06,4.38-5.31.49-.49,12.5,11.56,12.5,10.63,0-.06-1.01-5.66-.63-5.31,3.13,2.81-.66,10.59.31,10,1.33-.8,12.81-3.44,9.69-11.56Z"/>
            <path class="cls-24" d="M386.58,279.69c.84-.93,2.37-.64,2.82.52.6,1.55,1.17,3.75.77,5.96-.23,1.32-3.75,3.13-5.63,3.44-.66.11-.99-.37-1.28-1.92-.54-2.9,1.52-6.04,3.3-8Z"/>
            <path class="cls-9" d="M378.62,273.67c3.32,1.37,3.09,5.81,2.81,5-.19-.57-2.54-4.19-6.01-3.97-.38.02,1.15-1.87,3.2-1.03Z"/>
            <path class="cls-9" d="M368.93,272.11c1.2,1,.64,1.95.63,2.5-.02.78-.74-3-3.32-1.3-.32.21.82-2.77,2.7-1.2Z"/>
            <path class="cls-18" d="M368.61,289.61c-.63-.9,2.19,0,6.56,1.25.45.13-2.81,2.19-5.94,2,0,0,.2-2.06-.63-3.25Z"/>
            <g>
              <g>
                <path class="cls-1" d="M375.44,278.75c-.39,1.42-.77,2.85-1.16,4.27-.05.18.06.39.25.43.19.04.38-.06.43-.25.39-1.42.77-2.85,1.16-4.27.05-.18-.06-.39-.25-.43-.19-.04-.38.06-.43.25h0Z"/>
                <path class="cls-1" d="M367.33,277.45c-.27,1.15-.35,2.35-.21,3.53.02.18.15.36.35.35.17,0,.37-.16.35-.35-.07-.57-.09-1.14-.05-1.71.03-.57.11-1.07.24-1.64.04-.18-.06-.39-.25-.43-.18-.04-.39.05-.43.25h0Z"/>
              </g>
              <g>
                <g>
                  <path class="cls-7" d="M384.7,285.81c0-.15.02-.29.03-.44,0-.06.01-.12.02-.18,0-.03,0-.06.01-.09,0-.01,0-.03,0-.04,0-.05-.01.07,0,.02.03-.18.07-.37.13-.54,0-.01.02-.04.02-.05,0,.03-.03.07,0,.01.02-.04.04-.09.06-.13.05-.09.1-.18.15-.26.14-.22.29-.44.43-.66.2-.29.37-.52.58-.78.18-.21.37-.41.58-.59.02-.01-.05.03,0,0,.02-.02.04-.03.07-.05.02-.01.04-.03.07-.04.01,0,.02-.01.03-.02.04-.02-.06.02-.02,0,.05-.01.1-.03.15-.04.06-.02-.06,0,0,0,.03,0,.06,0,.1,0,.02,0,.05,0,.07,0,.01,0,.02,0,.04,0,.04,0-.04,0-.03,0,.01-.01.15.03.17.04.03,0,.05.02.08.03.04.01-.02-.01-.03-.01.01,0,.02,0,.03.02.05.03.1.05.15.08.02.02.05.03.07.05.05.03-.04-.04.02.01.05.04.09.08.14.13.02.02.04.05.07.08-.05-.05,0-.01.01.02.03.05.07.1.09.16,0,.01,0,.02.02.03.02.04-.02-.06,0-.02,0,.03.02.06.03.09,0,.03.01.05.02.08,0,.01,0,.02,0,.04.01.04,0-.07,0-.02,0,.02.02.17,0,.18,0,0,.01-.07,0-.03,0,.02,0,.04-.01.06,0,.03-.02.06-.03.1-.06.17.07.39.25.43.2.04.37-.06.43-.25.38-1.11-.95-2.34-2.03-1.92-.28.11-.51.3-.72.52-.25.26-.48.54-.7.83-.21.28-.41.57-.6.87-.12.18-.24.37-.34.57-.26.54-.29,1.13-.32,1.71,0,.18.17.36.35.35.2,0,.34-.15.35-.35h0Z"/>
                  <path class="cls-7" d="M385.37,283.41c.18.16.34.33.5.52.02.03.04.05.06.08-.03-.04,0,0,0,.01.04.05.07.1.11.15.07.1.13.2.18.31.03.05.05.1.07.15-.03-.07.01.04.01.04,0,.03.02.05.03.08.04.11.07.22.09.34,0,.01.01.12,0,.03,0,.02,0,.04,0,.06,0,.05,0,.1,0,.16,0,.05,0,.1,0,.14,0,.02,0,.05,0,.07.01-.09,0,0,0,.02-.02.1-.04.2-.08.29,0,.02-.02.04-.03.07.03-.07,0,0,0,0-.02.05-.05.09-.07.14-.03.04-.05.09-.08.13-.01.02-.05.07,0,0-.01.02-.03.04-.04.05-.03.03-.06.07-.1.1-.02.02-.03.03-.05.05-.03.02-.06.05-.02.01-.04.03-.08.06-.13.08-.02.01-.04.02-.06.03,0,0-.09.04-.03.02.05-.02-.04.01-.04.01-.02,0-.04.01-.07.02-.02,0-.04,0-.07.02-.07.02.06,0-.03,0-.05,0-.09,0-.14,0-.02,0-.08-.01,0,0-.02,0-.05,0-.07-.01-.04,0-.09-.02-.13-.04-.02,0-.04-.02-.06-.02.08.03-.01,0-.03-.02-.05-.02-.09-.05-.13-.08-.01,0-.08-.06-.02-.01-.02-.02-.04-.04-.06-.05-.04-.04-.08-.08-.11-.12-.06-.07.04.06-.01-.01-.01-.02-.03-.04-.04-.07-.01-.02-.02-.04-.03-.06-.04-.08,0,.04-.01-.02-.01-.03-.05-.12-.04-.15,0,0,0,.09,0,.02,0-.03,0-.07,0-.1,0-.02,0-.07,0,.01,0-.04.01-.07.02-.11.05-.18-.06-.39-.25-.43-.19-.04-.38.06-.43.25-.15.56.12,1.09.56,1.42.44.33,1,.4,1.5.18.48-.21.8-.64.98-1.12.18-.5.16-1.05-.02-1.55-.22-.62-.64-1.15-1.13-1.6-.14-.12-.36-.14-.5,0-.12.13-.15.37,0,.5h0Z"/>
                </g>
                <path class="cls-7" d="M368.14,278.71s0,.04,0,.06c0,0,0,.06,0,.01,0-.04,0,.06,0,.08,0,.08.02.16.02.25,0,.15,0,.3,0,.45,0,.07-.01.14-.02.22,0,.02-.01.11,0,.05,0,.04-.01.08-.02.12-.03.15-.06.31-.1.46-.04.15-.09.29-.14.43-.01.03-.03.07-.04.1-.03.06,0,.01,0,0,0,.02-.02.04-.02.06-.03.07-.07.14-.1.21-.07.13-.14.26-.22.39-.04.06-.08.12-.12.18-.02.03-.05.07-.07.1,0,.01-.02.02-.03.04-.03.05.05-.06-.01.01-.19.23-.4.45-.63.64-.03.03-.06.05-.1.08.05-.04-.03.02-.04.03-.06.05-.13.09-.19.13-.14.09-.29.19-.4.32-.15.17-.24.36-.26.59-.02.2.04.4.11.58.16.39.34.78.5,1.17.37.86.74,1.71,1.11,2.57.07.17.33.22.48.13.18-.11.2-.3.13-.48-.33-.75-.65-1.51-.98-2.26-.16-.38-.33-.76-.49-1.14-.02-.05-.04-.09-.06-.14,0-.02-.02-.04-.02-.05,0,.02.02.05,0-.02-.02-.04-.03-.08-.04-.12,0-.02-.01-.04-.02-.05,0,0-.02-.1-.01-.06,0,.03,0-.02,0-.03,0-.02,0-.05,0-.07,0,.07.03-.08,0-.03-.01.04,0,0,0-.01,0-.02.02-.03.03-.05,0,0-.04.04,0,.01.02-.02.03-.04.05-.06.03-.03.05-.05.08-.07.04-.04-.04.03,0,0,.01,0,.03-.02.04-.03.06-.05.13-.09.2-.13.14-.1.28-.2.41-.31.23-.2.45-.42.63-.66.4-.51.7-1.09.89-1.71.21-.7.25-1.43.13-2.15-.03-.18-.27-.3-.43-.25-.2.06-.28.24-.25.43h0Z"/>
                <g>
                  <path class="cls-7" d="M368.18,289.53c.05.27.1.53.15.8,0,.05.02.11.02.16,0,.04,0,.05,0,0,0,.03,0,.05.01.08.01.1.02.2.03.3.04.46.03.93.03,1.4,0,.18.16.36.35.35.19,0,.35-.15.35-.35,0-.47,0-.95-.03-1.42-.04-.51-.13-1.01-.23-1.5-.04-.18-.26-.3-.43-.25-.19.06-.28.24-.25.43h0Z"/>
                  <path class="cls-7" d="M367.74,289.48c.89.3,1.82.5,2.74.69,1.05.22,2.11.41,3.16.59.53.09,1.07.19,1.6.28.18.03.39-.05.43-.25.04-.17-.05-.4-.25-.43-2.02-.37-4.06-.68-6.06-1.16-.48-.12-.97-.24-1.44-.4-.17-.06-.39.07-.43.25-.04.19.06.37.25.43h0Z"/>
                  <path class="cls-7" d="M368.78,292.62c.61.51,1.51.57,2.28.51,1.06-.08,2.11-.4,3.03-.94.56-.33,1.07-.75,1.5-1.24.12-.14.15-.36,0-.5-.13-.12-.37-.15-.5,0-.18.21-.37.4-.58.58-.05.04-.1.08-.15.12-.01,0-.07.06-.04.04.04-.03-.01.01-.02.02-.02.01-.03.02-.05.03-.11.08-.22.16-.33.23-.22.14-.45.26-.68.38-.06.03-.12.06-.18.08-.03.01-.05.02-.08.03.07-.03-.02,0-.04.02-.12.05-.24.09-.36.13-.23.08-.47.14-.7.2-.12.03-.23.05-.35.07-.05,0-.11.02-.16.02.06,0,.04,0,0,0-.03,0-.06,0-.1.01-.22.02-.43.03-.65.03-.1,0-.2,0-.29-.01-.05,0-.1,0-.14-.01-.02,0-.04,0-.06,0-.05,0,.08.01.03,0-.01,0-.03,0-.04,0-.19-.03-.37-.07-.55-.14-.02,0-.04-.02-.06-.02-.01,0,.08.04.02,0-.04-.02-.07-.04-.11-.05-.03-.02-.07-.04-.1-.06-.01,0-.03-.02-.04-.03-.06-.04.07.06.01,0-.14-.12-.36-.15-.5,0-.12.13-.15.37,0,.5h0Z"/>
                </g>
              </g>
            </g>
          </g>
          <g>
            <path class="cls-11" d="M353.3,317.43s-5.31,6.25-6.56,15.94c-.09.69,1.56,3.13,4.38,3.13,2.44,0,2.19.31,4.38-3.75,1.78-3.31,1.56-4.91,2.81-9.06.91-3.01-.9-11.94-5-6.25Z"/>
            <path class="cls-2" d="M358.3,323.68c-1.4-1.4-10-6.25-9.06-7.19,2.81-2.81,4.38-6.25,9.96-13.84.73-.99,12-1.08,7.85,10.4-.64,1.78-6.56,12.81-8.75,10.63Z"/>
            <path class="cls-26" d="M362.05,302.12c-2.64-.38,1.25,1.25,2.19,14.38.13,1.82,1.88-6.56,1.88-13.13,0-.99-1.88-.94-4.06-1.25Z"/>
            <path class="cls-24" d="M362.67,314.31s-11.94,12.36-15.94,19.07c-.36.6,1.41,2.94,3.13,4.38,1.88,1.56,7.5-.31,9.69-4.38,1.78-3.31,7.18-12.72,8.44-16.88.91-3.01-1.21-7.88-5.31-2.19Z"/>
            <path class="cls-24" d="M362.67,314.31c.94-1.56,1.56-9.06,1.56-9.06,1.88-1.25,7.86-3.84,8.13-3.44,1.25,1.88.13,3.02.94,2.81,1.25-.31.05.19.63,0,.94-.31.63,3.44.63,3.44,2.42.31,1.45-.39,1.25.31-.63,2.19-1.25,2.81-.63,3.13.79.4.89,2.14.63,3.44-.31,1.56-1.29,1.15-2.19,1.56-.6.27.31-1.88-.31-1.56-.41.21-4.38,1.25-5.31,1.56-2.55.85-3.53,3.46-4.38,3.75-2.35.81-2.42-3.46-.94-5.94Z"/>
            <g>
              <path class="cls-7" d="M364.64,305.33c.06-.07.12-.14.15-.22.05-.19-.06-.39-.25-.44-.14-.04-.27.02-.38.1-.09.07-.2.15-.26.25-.16.29.1.63.42.53.09-.03.18-.08.26-.12.13-.06.25-.12.38-.18.25-.12.49-.24.74-.36.5-.24,1-.49,1.49-.73.98-.48,1.97-.96,2.95-1.44.24-.12.48-.23.72-.35.13-.06.25-.12.38-.18.04-.02.09-.04.13-.06.02-.01.04-.02.07-.03-.06.02,0,0,.03,0,.08-.03.17-.06.26-.08.05-.01.1-.02.15-.03.07-.01,0,0,0,0,.03,0,.07,0,.1,0,.04,0,.08,0,.12,0-.08,0-.03,0,0,0,.02,0,.04,0,.06.02.02,0,.03.01.05.02-.08-.03-.02,0,0,0,.02.01.04.02.05.04-.05-.03-.02,0,0,.02.04.04.01,0,0,0,.02.03.04.06.06.1.03.05-.01-.07,0,.02,0,.03.02.06.02.09,0,.02,0,.04.01.06-.01-.07,0,.02,0,.04,0,.07,0,.13,0,.2,0,.21,0,.42.03.62.01.09.02.17.04.26,0,.03,0,.05.01.08,0,.01,0,.03,0,.04.01.08,0-.08,0-.02.02.2.03.41.03.61,0,.18.16.36.35.35.19,0,.35-.15.35-.35,0-.29-.02-.58-.07-.87,0-.04,0-.08-.02-.13.03.11,0,.04,0,0,0-.03,0-.07,0-.1-.01-.17-.01-.33-.02-.5,0-.43-.09-.87-.46-1.13-.31-.22-.72-.2-1.07-.11-.4.1-.76.31-1.12.49-.42.2-.83.41-1.25.61-.83.41-1.66.81-2.5,1.22-.47.23-.93.46-1.4.68-.23.11-.47.23-.7.34-.11.06-.23.11-.34.17-.03.02-.11.07-.14.07,0,0,.09-.04.05-.02-.1.03-.02-.12.24.04l.13.13s0,0,0,0c.02.06.03.12.05.18,0,.07-.03.18-.09.22,0,0,.02-.02.02-.03.02-.02.04-.04.06-.06.02-.02.07-.04-.03.02.01,0,.02-.02.04-.03,0,0,.02-.01.03-.02,0,0,0,0,.01,0-.08.04-.16.05-.25.03-.05-.03-.1-.06-.16-.09,0,0,0,0,0,0-.03-.05-.06-.1-.09-.16,0,0,0,0,0,0v-.19s.05-.11.02-.06c.06-.1.04-.05.01-.02-.12.14-.14.36,0,.5.13.12.37.15.5,0h0Z"/>
              <path class="cls-7" d="M367.07,307.58c.39-.22.79-.42,1.19-.6.22-.1.44-.2.66-.3.23-.1.36-.15.6-.25.91-.37,1.83-.7,2.76-1.02.44-.15.88-.29,1.32-.43.1-.03.2-.06.31-.09.09-.03.2-.05.28-.09,0,0-.11,0-.05,0,.04,0-.11-.03-.05,0-.12-.04-.07-.03-.04-.01.04.03-.07-.07-.04-.03,0,0,.02.01.02.02,0,0,0,.01.01.02.03.03,0,.04-.03-.04,0,.02.02.03.03.05.02.04.04.08.06.12.03.06-.03-.09-.01-.03,0,0,0,.02.01.03,0,.03.02.05.03.08.02.06.04.13.06.19.03.13.06.26.09.4.01.07.02.14.03.22.01.1,0-.06,0,.04,0,.04.01.09.02.13.04.33.06.67.05,1,0,.13,0,.27-.02.4,0,.01,0,.03,0,.04,0,.06.01-.09,0-.04,0,.03,0,.05-.01.08,0,.04-.02.09-.03.13-.06.17.07.39.25.43.2.04.37-.06.43-.25.08-.22.09-.47.09-.7,0-.31,0-.61-.03-.92-.03-.33-.07-.66-.14-.98-.06-.25-.13-.52-.27-.74-.17-.26-.42-.39-.73-.3-.44.13-.89.27-1.33.42-.96.31-1.92.65-2.87,1.03-1.03.41-2.05.85-3.02,1.39-.16.09-.23.32-.13.48.1.16.31.22.48.13h0Z"/>
              <path class="cls-7" d="M368.01,310.39c1.18-.64,2.32-1.18,3.59-1.56.27-.08.53-.15.81-.21.13-.03.26-.05.38-.08.06-.01.12-.02.18-.03.03,0,.05,0,.08-.01,0,0,.05,0,0,0-.05,0,.02,0,.03,0,.44-.05.88-.07,1.32-.02.08,0-.05,0,0,0,.03,0,.06,0,.09.01.05,0,.11.02.16.03.1.02.21.05.31.08.05.02.1.03.15.05,0,0,.08.03.08.03,0,0-.07-.03-.04-.02.01,0,.02.01.04.02.09.04.18.09.27.14-.06-.1-.12-.2-.17-.3,0,.27,0,.54-.03.81,0,.06-.01.12-.02.18,0,.02-.02.12,0,.03,0,.03,0,.05-.01.08-.02.11-.04.23-.07.34-.01.05-.03.1-.05.15,0,.03-.02.06-.03.09,0,.02-.05.11,0,.02-.05.11-.1.21-.16.31-.03.05-.06.09-.09.14-.02.02-.03.05-.05.07-.02.03-.02.03,0,0-.01.02-.02.03-.04.05-.09.11-.18.21-.28.3-.13.13-.14.37,0,.5.14.13.36.14.5,0,.29-.28.54-.6.71-.96.16-.36.25-.73.29-1.12.02-.19.03-.37.03-.56,0-.1,0-.19,0-.29,0-.07,0-.16-.01-.23-.03-.11-.1-.18-.2-.23-.24-.15-.52-.25-.8-.32-.62-.16-1.28-.16-1.91-.08-.81.1-1.59.31-2.36.59-1.06.38-2.08.87-3.07,1.4-.16.09-.23.32-.13.48.11.16.31.22.48.13h0Z"/>
              <path class="cls-7" d="M368.95,313.2c.1-.05.19-.09.29-.14.05-.02.09-.04.14-.06.02-.01.05-.02.07-.03.08-.03-.04.02.03-.01.21-.09.42-.17.63-.24.44-.16.89-.29,1.34-.41.81-.22,1.64-.39,2.48-.52.09-.01.17-.03.26-.04.03,0,.16-.02.05,0,.04,0,.08-.01.12-.02.07,0,.15-.02.22-.03.03,0,.06,0,.1-.01.01,0,.03,0,.04,0,.07-.02-.08-.02-.03,0,.07.02-.08-.05-.01,0,.07.04-.06-.06,0,0,.02.02.04.04.06.06,0,0,.02.02.02.03.04.04-.05-.07,0,0,.09.13.17.28.25.43.04.07.07.15.1.23,0,.02.03.06,0-.02.01.02.02.04.03.07.02.04.03.09.05.13.04.12.09.24.12.36.03.1.05.21.07.32.01.06.02.11.03.17,0,.02,0,.04.01.07,0,.01.02.15.01.07.03.2.04.4.03.6,0,.08,0,.16-.02.25,0,.07,0-.02,0-.02,0,0,0,.06-.01.07,0,.04-.02.09-.03.13-.02.07-.04.13-.06.2,0,.01,0,.02-.01.04-.02.06.01.03,0-.01,0,.03-.04.08-.05.1-.03.05-.06.11-.09.16-.02.02-.03.05-.05.07-.04.05.05-.06.02-.02-.01.02-.03.03-.04.05-.08.09-.17.18-.26.25,0,0-.02.01-.03.02-.05.04.07-.05.02-.01-.02.02-.05.03-.07.05-.05.04-.1.07-.16.11-.1.06-.21.13-.31.18-.1.06-.21.12-.31.18-.05.03-.09.06-.14.08-.02,0-.05.02-.06.03.05-.05.08-.03.05-.02-.01,0-.02,0-.03.01-.06.03.1,0,.04,0-.06,0,.11.02.05,0,.05.01.09.04.12.07-.04-.04.06.09.03.03.06.11.03.08.02.04-.02-.07,0,.08,0,.04,0-.04,0-.08,0-.11,0-.04.03-.18,0-.04,0-.05.02-.1.02-.15.02-.1.04-.21.06-.31.08-.42.19-1.12-.38-1.25-.15-.03-.3,0-.45.04-.24.08-.47.16-.71.24-.5.17-.99.35-1.49.52-.52.17-1.04.33-1.56.46-.26.07-.53.12-.8.17-.29.05-.48.08-.75.11-.27.03-.54.04-.81.04-.18,0-.36.16-.35.35,0,.19.15.35.35.35,1.15,0,2.28-.24,3.37-.57.54-.16,1.07-.34,1.6-.53.24-.09.49-.17.73-.26.23-.08.45-.17.69-.23.02,0,.06,0,.07-.02-.05.04-.09,0-.04,0,0,0,.02,0,.03,0,.06,0-.11-.03-.03,0,.06.02-.09-.05-.03,0-.1-.07-.06-.05-.03-.02-.08-.1-.04-.06-.03-.03.01.03-.03-.11-.01-.03,0,.02,0,.04.01.07-.01-.05,0-.09,0-.02,0,.02,0,.04,0,.06,0,.05,0,.1,0,.15,0,.02,0,.05,0,.07.01-.14,0-.02,0,0,0,.05-.02.11-.03.16-.04.22-.09.45-.1.67-.01.25.09.54.36.6.28.06.52-.13.75-.26.22-.12.44-.24.64-.39.51-.36.88-.85.98-1.47.08-.45.05-.9-.03-1.35-.06-.35-.15-.68-.28-1.01-.14-.36-.31-.72-.56-1.02-.1-.12-.23-.23-.39-.27-.15-.04-.32,0-.47.02-.82.1-1.64.25-2.44.44-.92.21-1.84.48-2.71.85-.22.09-.43.19-.65.29-.17.08-.22.33-.13.48.11.17.3.21.48.13h0Z"/>
            </g>
          </g>
        </g>
      </g>
    </g>
  </g>
</svg>