<?xml version="1.0" encoding="UTF-8"?>
<svg id="_レイヤー_2" data-name="レイヤー 2" xmlns="http://www.w3.org/2000/svg" viewBox="0 0 628.68 207.86">
  <defs>
    <style>
      .cls-1 {
        fill: none;
        isolation: isolate;
        stroke: #000;
        stroke-miterlimit: 10;
        stroke-width: 4px;
      }

      .cls-2 {
        fill: red;
      }
    </style>
  </defs>
  <g id="_レイヤー_1-2" data-name="レイヤー 1">
    <line class="cls-1" x1="49.99" y1="195.24" x2="579.99" y2="195.24"/>
    <g>
      <path d="M0,17.53h9.43l.78,4.68h.26c3.05-3.06,6.24-5.59,11.25-5.59s8.26,2.15,10.14,6.11c3.18-3.25,6.63-6.11,11.57-6.11,8.06,0,11.57,5.79,11.57,15.02v22.88h-11.57v-21.45c0-5.07-1.3-6.57-4.23-6.57-1.69,0-3.71,1.04-5.92,3.32v24.7h-11.63v-21.45c0-5.07-1.3-6.57-4.23-6.57-1.69,0-3.71,1.04-5.92,3.32v24.7H0V17.53Z"/>
      <path d="M68.7,6.48c0-3.51,2.73-5.98,6.63-5.98s6.57,2.47,6.57,5.98-2.73,5.92-6.57,5.92-6.63-2.47-6.63-5.92ZM69.55,17.53h11.51v36.99h-11.51V17.53Z"/>
      <path d="M95.76,17.53h9.43l.78,4.62h.26c3.05-2.99,6.83-5.53,11.83-5.53,8.06,0,11.51,5.79,11.51,15.02v22.88h-11.57v-21.45c0-5.07-1.37-6.57-4.29-6.57-2.6,0-4.16,1.17-6.43,3.32v24.7h-11.51V17.53Z"/>
      <path d="M145.35,40.8v-14.24h-5v-8.58l5.66-.46,1.3-9.75h9.62v9.75h8.71v9.04h-8.71v14.11c0,4.09,1.95,5.72,4.68,5.72,1.17,0,2.47-.39,3.38-.65l1.82,8.32c-1.95.59-4.62,1.37-8.39,1.37-9.29,0-13.07-5.85-13.07-14.62Z"/>
      <path d="M175.65,36.06c0-12.29,8.71-19.44,18.14-19.44s18.07,7.15,18.07,19.44-8.71,19.37-18.07,19.37-18.14-7.15-18.14-19.37ZM200.03,36.06c0-6.18-1.95-10.08-6.24-10.08s-6.31,3.9-6.31,10.08,1.95,10.01,6.31,10.01,6.24-3.9,6.24-10.01Z"/>
      <path d="M224.67,2.58h11.25v28.99h.26l11.25-14.04h12.55l-13.07,15.28,13.98,21.71h-12.55l-8-14.04-4.42,5v9.04h-11.25V2.58Z"/>
      <path d="M270.79,40.41v-22.88h11.57v21.45c0,5.13,1.37,6.57,4.29,6.57,2.6,0,4.23-1.04,6.18-3.77v-24.25h11.57v36.99h-9.43l-.84-5.07h-.26c-3.06,3.64-6.5,5.98-11.57,5.98-8.06,0-11.5-5.79-11.5-15.02Z"/>
      <path d="M342.9,5.64c-.42,1.8-.9,4.02-1.26,5.7-.3,1.62-.66,3.24-1.02,4.8,1.56-.12,2.94-.18,4.02-.18,6.84,0,11.34,3.24,11.34,12.12,0,6.96-.78,16.5-3.3,21.78-2.04,4.26-5.52,5.76-10.38,5.76-2.28,0-5.1-.36-7.2-.84l-1.56-9.48c2.16.6,5.76,1.26,7.26,1.26,1.86,0,3.24-.66,4.02-2.28,1.5-2.94,2.22-9.72,2.22-15.24,0-4.32-1.8-4.86-5.52-4.86-.66,0-1.68.06-2.76.12-2.4,9.24-6.84,23.52-11.88,31.68l-9.42-3.78c5.64-7.62,9.48-18.72,11.7-26.82-1.56.24-2.88.42-3.72.54-1.92.24-5.34.72-7.32,1.08l-.78-9.66c2.28.18,4.56.06,6.9,0,1.74-.06,4.2-.24,6.84-.42.84-4.62,1.26-8.76,1.14-12.42l10.68,1.14ZM364.01,12c3.54,5.64,7.98,15.9,9.6,21.36l-9.18,4.26c-1.44-6.9-5.4-17.46-9.72-22.98l5.22-2.16c-1.2-2.34-2.7-5.28-4.08-7.32l5.64-2.28c1.5,2.22,3.6,6.12,4.68,8.22l-2.16.9ZM367.97,10.56c-1.2-2.46-3.12-6-4.74-8.28l5.64-2.28c1.56,2.28,3.72,6.12,4.74,8.16l-5.64,2.4Z"/>
      <path d="M431.69,49.44c3.42-.12,6.66-.3,9.36-.54-.9,1.92-2.16,5.7-2.58,8.1-8.1.42-21.54.54-29.46.18-6.96-.3-11.52-1.92-15.06-6.54-2.1,2.28-4.32,4.44-7.14,7.08l-4.02-8.34c2.04-1.38,4.38-3.06,6.54-4.86v-11.94h-5.58v-8.04h13.68v19.26c1.5,2.76,3.9,4.38,7.26,5.16-1.62-1.5-3.96-3.36-5.46-4.38,3.48-.9,7.08-2.16,9.66-3.6h-9.96v-6.3h9.18v-3.06h-7.5v-6.18h7.5v-2.58h8.16v2.58h5.34v-2.58h8.28v2.58h7.74v6.18h-7.74v3.06h9.6v6.3h-10.14c3.84,1.86,8.04,4.02,10.5,5.64l-8.16,2.82ZM390.48,17.4c-1.26-2.88-4.62-7.26-7.5-10.38l6.9-4.32c2.94,2.88,6.54,6.9,8.04,9.84l-7.44,4.86ZM410.1,8.22h-10.62V2.88h17.88v12.42h-3.06c1.32.84,3.84,1.62,5.64,1.98-.72,4.2-2.58,5.4-6.6,5.4h-5.58c-5.88,0-7.5-1.62-7.5-7.14v-5.64h9.84v-1.68ZM418.02,42.66c-2.82,2.58-7.32,5.04-11.28,6.66.72.06,1.5.12,2.28.18,5.22.24,13.68.24,21.48,0-2.28-1.74-6.18-4.26-9.84-6.06l4.44-2.46h-11.94l4.86,1.68ZM412.44,17.04c1.02,0,1.32-.3,1.56-1.74h-6.66v.18c0,1.38.24,1.56,1.56,1.56h3.54ZM416.28,34.68h5.34v-3.06h-5.34v3.06ZM429.96,8.22h-11.04V2.88h18.42v12.42h-3.3c1.32.84,3.84,1.62,5.64,1.98-.72,4.2-2.58,5.4-6.6,5.4h-5.58c-5.88,0-7.5-1.62-7.5-7.14v-5.64h9.96v-1.68ZM432.17,17.04c1.02,0,1.32-.3,1.56-1.74h-6.66v.18c0,1.38.24,1.56,1.56,1.56h3.54Z"/>
      <path d="M464.61,6.9c-.54,1.32-1.38,4.98-1.62,6.06-.72,3.06-2.76,16.92-2.76,22.44,0,.18,0,1.14.06,1.38.72-1.74,1.44-2.88,2.22-4.62l4.38,3.48c-1.8,5.34-3.6,11.34-4.32,14.76-.18.84-.36,2.22-.36,2.82,0,.66,0,1.74.06,2.7l-8.1.54c-1.26-4.02-2.46-10.98-2.46-19.02,0-9.12,1.68-20.28,2.34-24.66.24-1.8.6-4.5.66-6.72l9.9.84ZM501.5,23.28c-2.64.36-5.58.72-8.7.96.12,5.4.42,9.66.6,13.14,5.1,2.1,8.76,5.22,11.4,7.68l-4.86,7.56c-2.22-2.1-4.32-3.9-6.36-5.4-.78,5.58-4.44,9.06-12.24,9.06-8.34,0-13.86-3.6-13.86-10.32s5.46-10.92,13.74-10.92c1.02,0,2.04.06,3,.12-.18-3.12-.36-6.78-.42-10.5-1.14.06-2.28.06-3.36.06-3.54,0-7.08-.12-10.62-.36l-.06-8.58c3.48.36,7.02.54,10.62.54,1.14,0,2.22,0,3.36-.06-.06-2.76-.06-4.98-.12-6.06,0-.9-.24-2.82-.48-4.08h10.26c-.18,1.14-.3,2.64-.36,3.96-.06,1.14-.12,3.12-.18,5.58,3-.3,5.94-.78,8.64-1.32v8.94ZM484.53,42.54c-1.32-.36-2.64-.54-4.02-.54-2.76,0-4.62,1.08-4.62,2.94,0,2.1,2.1,2.82,4.62,2.82,2.88,0,4.02-1.56,4.02-4.8v-.42ZM496.46,12.96c-.84-2.64-1.68-5.7-2.88-8.22l4.74-1.44c1.14,2.46,2.34,5.82,2.94,8.1l-4.8,1.56ZM502.94,10.92c-.84-2.58-1.86-5.64-3.06-8.1l4.74-1.5c1.14,2.46,2.4,5.88,3.06,8.1l-4.74,1.5Z"/>
      <path d="M570.95,49.98c-2.52,2.22-6.06,4.2-11.34,4.2-4.74,0-7.92-3.6-7.92-9.84s2.1-14.46,2.1-19.68c0-2.64-1.38-4.08-3.6-4.08-4.08,0-10.14,5.28-14.7,10.32-.06,1.26-.06,2.52-.06,3.72,0,4.5,0,10.32.42,16.02.06,1.08.3,3.66.48,5.1h-9.84c.12-1.5.18-3.96.18-4.92.06-3.6.12-6.72.24-10.5-2.28,3.3-4.68,6.96-6.3,9.18l-5.58-7.92c3.36-4.14,8.94-11.34,12.48-16.44l.18-3.18c-3.06.36-7.2.9-10.38,1.32l-.9-9.18c1.92.06,3.42.06,5.88-.06,1.62-.12,3.78-.3,6-.66.12-1.86.18-3.36.18-3.96,0-1.86.06-3.78-.3-5.82l10.44.3c-.42,1.86-.9,4.86-1.38,8.46l2.28,3c-.78,1.02-2.16,3.12-3.24,4.68v.18c4.68-3.9,11.1-8.22,16.68-8.22,6.9,0,9.96,4.14,9.96,9.24,0,6.24-1.86,14.16-1.86,20.4,0,1.32.72,2.04,1.86,2.04,1.68,0,4.32-1.26,6.9-3.84l1.14,10.14Z"/>
      <path d="M622.68,11.76c-1.56.96-3.06,1.86-4.56,2.88-3.36,2.28-8.58,6.54-11.82,9.06,1.56-.3,2.7-.36,4.14-.36,10.2,0,18.24,6.54,18.24,15.48s-6.72,17.4-22.08,17.4c-8.4,0-15.36-3.9-15.36-10.44,0-5.22,4.8-10.08,11.52-10.08,7.26,0,11.94,4.2,12.96,9.84,2.34-1.62,3.48-3.96,3.48-6.84,0-5.1-5.22-8.28-11.76-8.28-8.7,0-14.94,5.22-20.64,12.18l-6.54-6.78c3.84-3,10.74-8.88,14.28-11.76,3.3-2.76,8.82-7.02,11.7-9.6-3,.06-9.12.3-12.3.54-1.8.12-3.9.3-5.34.54l-.3-9.3c1.86.24,4.08.36,6.06.36,3.18,0,15.06-.18,18.6-.48,2.82-.24,4.5-.48,5.28-.72l4.44,6.36ZM607.44,47.94c-.3-3.3-2.1-5.4-4.62-5.4-1.92,0-3.06,1.14-3.06,2.34,0,1.86,1.98,3.18,4.98,3.18.96,0,1.86-.06,2.7-.12Z"/>
      <path class="cls-2" d="M70.55,191.22l13.12-17.92c7.2,6.88,15.52,11.52,24.8,11.52,11.04,0,18.24-4.64,18.24-13.6,0-10.24-5.44-16.32-30.4-16.32v-20c20.32,0,26.72-6.24,26.72-15.68,0-8.16-4.8-12.64-13.6-12.64-8,0-14.08,3.68-21.28,9.92l-14.4-17.44c11.04-9.28,22.88-14.72,36.96-14.72,24.64,0,40.8,11.52,40.8,32.8,0,11.84-6.4,21.12-19.2,26.24v.8c13.28,4,23.04,13.6,23.04,28.96,0,22.24-20.32,34.72-44,34.72-18.88,0-32.16-6.56-40.8-16.64Z"/>
      <path d="M189.44,135.61c3.96-1.21,15.23-5.06,23.26-5.06,10.28,0,18.37,5.88,18.37,16.5,0,11.93-11.05,20.73-31.62,21.72l-3.85-8.8c15.01-.27,25.96-4.51,25.96-13.09,0-4.78-3.13-8.36-9.24-8.36-7.53,0-19.8,5.12-26.29,8.03l-3.68-9.24c1.98-.33,5.17-1.15,7.09-1.71Z"/>
      <path d="M264.34,163.16c2.31-.27,3.79-.6,5.33-.99,6.93-1.7,11.55-6.54,11.55-13.69s-3.41-12.04-9.68-13.53c-.72,4.4-1.71,9.18-3.19,14.19-3.24,10.89-8.14,18.2-14.57,18.2s-11.88-7.31-11.88-16.61c0-12.92,11.16-23.92,25.74-23.92s22.66,9.57,22.66,21.94c0,11.44-6.76,19.85-20.95,22.22l-5-7.81ZM262.58,135.11c-8.08,2.2-12.1,9.51-12.1,14.74,0,4.73,1.65,7.2,3.52,7.2,2.2,0,3.85-3.3,5.77-9.62,1.21-3.69,2.14-8.03,2.8-12.32Z"/>
      <path d="M317.25,148.75c-2.64,4.95-7.7,12.26-10.61,15.45l-7.2-4.89c3.68-3.58,7.92-9.35,10.23-14.13l7.59,3.58ZM330.06,141.27v24.97c0,3.36-2.09,5.61-6.32,5.61-3.3,0-6.49-.11-9.57-.49l-.82-8.2c2.31.44,4.67.61,5.99.61s1.87-.44,1.92-1.87c.05-1.54.05-17.71.05-20.62h-13.2c-1.65,0-4.07.05-5.66.22v-8.74c1.7.22,3.96.44,5.66.44h13.2v-3.68c0-1.54-.28-4.23-.5-5.28h9.84c-.17.77-.6,3.85-.6,5.33v3.63h13.2c-3.36-.33-5.94-3.13-5.94-6.54,0-3.63,2.91-6.54,6.54-6.54s6.54,2.91,6.54,6.54c0,3.19-2.25,5.83-5.28,6.43,1.04-.11,1.98-.17,2.69-.28v8.69c-1.87-.17-4.29-.22-5.88-.22h-11.88ZM341.23,144.9c2.75,3.52,7.15,10.5,9.35,14.52l-7.81,4.29c-2.47-4.95-6.27-11.49-8.8-14.85l7.26-3.96ZM343.87,129.34c1.48,0,2.69-1.21,2.69-2.69s-1.21-2.7-2.69-2.7-2.69,1.21-2.69,2.7,1.21,2.69,2.69,2.69Z"/>
      <path d="M389.91,163.1c0,2.64.11,6.43.55,7.97h-10.56c.22-1.48.44-5.33.44-7.97v-16.55c-5.55,2.75-11.99,5.33-17.98,6.93l-4.73-8.08c9.84-2.04,19.08-6.05,25.24-9.9,5.55-3.46,11.22-8.36,14.35-12.54l7.15,6.43c-4.4,4.29-9.18,8.36-14.46,11.77v21.94Z"/>
      <path d="M436.01,155.35c9.9-5.72,17.32-14.24,21.01-22l5.17,9.4c-4.4,7.81-12.21,15.45-21.39,20.84-5.61,3.3-12.76,6.16-19.69,7.26l-5.66-8.8c8.08-1.1,15.18-3.57,20.57-6.71ZM437.88,137.37l-6.82,6.98c-2.92-3.19-9.84-9.24-13.8-12.04l6.32-6.76c3.79,2.58,11,8.3,14.3,11.82Z"/>
      <path d="M506.96,156.45c-5.55-2.86-13.09-5.77-18.92-7.86v14.13c0,1.48.33,5.83.6,8.3h-10.45c.38-2.37.66-6.05.66-8.3v-31.4c0-2.2-.22-5.06-.66-7.15h10.39c-.22,2.09-.55,4.51-.55,7.15v7.53c7.42,2.15,18.09,6.05,22.71,8.3l-3.79,9.29Z"/>
      <path d="M530.14,162.83c0-3.41,2.75-6.05,6.49-6.05s6.49,2.64,6.49,6.05-2.75,6.05-6.49,6.05-6.49-2.53-6.49-6.05ZM530.96,136.21l-.33-9.13h12.04l-.33,9.13-2.25,17.38h-6.87l-2.25-17.38Z"/>
    </g>
  </g>
</svg>