<?xml version="1.0" encoding="UTF-8"?>
<svg id="_レイヤー_2" data-name="レイヤー 2" xmlns="http://www.w3.org/2000/svg" viewBox="0 0 710 495">
  <defs>
    <style>
      .cls-1 {
        fill: #fff8b3;
      }

      .cls-2 {
        fill: #ffe8a1;
      }

      .cls-3 {
        fill: #ec8269;
      }

      .cls-4 {
        fill: #5a0000;
      }

      .cls-5 {
        fill: #774033;
      }

      .cls-6, .cls-7 {
        isolation: isolate;
      }

      .cls-8 {
        fill: #8cafa1;
      }

      .cls-9 {
        fill: #bf636d;
      }

      .cls-10, .cls-7 {
        fill: #fff;
      }

      .cls-11 {
        fill: #e18640;
      }

      .cls-12 {
        fill: #f09766;
      }

      .cls-13 {
        fill: #572d2c;
      }

      .cls-7 {
        stroke: #0079b9;
        stroke-miterlimit: 10;
        stroke-width: 4px;
      }

      .cls-14 {
        fill: #c86d36;
      }

      .cls-15 {
        fill: #4d464c;
      }

      .cls-16 {
        fill: #0079b9;
      }

      .cls-17 {
        fill: #af6852;
      }

      .cls-18 {
        fill: #ffc490;
      }

      .cls-19 {
        fill: #867072;
      }
    </style>
  </defs>
  <g id="_レイヤー_1-2" data-name="レイヤー 1">
    <g>
      <g class="cls-6">
        <rect class="cls-10" x="2" y="17" width="706" height="476"/>
        <path class="cls-16" d="M706,19v472H4V19h702M710,15H0v480h710V15h0Z"/>
      </g>
      <g>
        <rect class="cls-10" x="27.5" y="0" width="106.59" height="106.59"/>
        <polyline class="cls-7" points="113.01 67.39 122.71 67.39 122.71 12.42 38.87 12.42 38.87 67.39 47.72 67.39"/>
        <g class="cls-6">
          <g>
            <path class="cls-16" d="M54.77,39.78c.09-.6.12-1.19.12-2.03v-7.95c0-.75-.03-1.31-.12-2.01.66.03,1.15.04,2.01.04h3.13c1.48,0,2.57.37,3.3,1.1.62.62.95,1.54.95,2.64,0,1.18-.35,2.14-1.04,2.83-.75.76-1.84,1.13-3.26,1.13h-2.57v2.17c0,.84.03,1.47.12,2.06h-2.64ZM59.81,33.48c1.19,0,1.87-.66,1.87-1.82,0-.53-.15-.97-.44-1.26-.31-.34-.76-.48-1.42-.48h-2.51v3.57h2.51Z"/>
            <path class="cls-16" d="M75.2,29.11c1.1,1.09,1.69,2.73,1.69,4.66,0,3.79-2.26,6.27-5.7,6.27s-5.7-2.45-5.7-6.26,2.23-6.2,5.7-6.2c1.66,0,3,.5,4.01,1.53ZM74.37,33.78c0-1.44-.38-2.56-1.09-3.26-.54-.54-1.26-.82-2.08-.82-1.95,0-3.19,1.57-3.19,4.05s1.23,4.16,3.2,4.16,3.16-1.57,3.16-4.13Z"/>
            <path class="cls-16" d="M81.78,27.84c-.09.59-.12,1.04-.12,2.03v7.89c0,.94.03,1.45.12,2.03h-2.7c.09-.57.12-1.12.12-2.03v-7.89c0-1.01-.03-1.4-.12-2.03h2.7Z"/>
            <path class="cls-16" d="M91.39,34.56c.34.5.69,1.09,1,1.67-.04-.51-.09-1.29-.09-1.84v-4.45c0-.95-.03-1.48-.13-2.12h2.63c-.09.62-.12,1.19-.12,2.13v7.77c0,.87.03,1.5.12,2.04h-2.76c-.18-.4-.53-1-1-1.72l-3.38-5.02c-.29-.44-.54-.88-.94-1.64q.01.18.06.69c.01.25.04.87.04,1.16v4.29c0,1,.03,1.67.12,2.25h-2.61c.09-.53.12-1.22.12-2.26v-7.64c0-.81-.03-1.4-.12-2.04h2.73c.13.38.43.91.95,1.69l3.38,5.04Z"/>
            <path class="cls-16" d="M103.01,37.72c0,.84.03,1.42.12,2.06h-2.7c.09-.63.12-1.2.12-2.06v-7.72h-1.87c-.88,0-1.51.03-2.1.1v-2.36c.59.07,1.23.1,2.09.1h6.11c1.03,0,1.62-.03,2.22-.1v2.36c-.6-.07-1.16-.1-2.22-.1h-1.76v7.72Z"/>
          </g>
        </g>
      </g>
      <g class="cls-6">
        <path class="cls-16" d="M56.56,66.11c0-10.24,4.24-15.28,10.52-15.28s10.56,5.12,10.56,15.28-4.28,15.6-10.56,15.6-10.52-5.36-10.52-15.6ZM70.91,66.11c0-8.12-1.72-9.8-3.84-9.8s-3.8,1.68-3.8,9.8,1.68,10.08,3.8,10.08,3.84-1.92,3.84-10.08Z"/>
        <path class="cls-16" d="M80.24,77.55l3.28-4.48c1.8,1.72,3.88,2.88,6.2,2.88,2.76,0,4.56-1.16,4.56-3.4,0-2.56-1.36-4.08-7.6-4.08v-5c5.08,0,6.68-1.56,6.68-3.92,0-2.04-1.2-3.16-3.4-3.16-2,0-3.52.92-5.32,2.48l-3.6-4.36c2.76-2.32,5.72-3.68,9.24-3.68,6.16,0,10.2,2.88,10.2,8.2,0,2.96-1.6,5.28-4.8,6.56v.2c3.32,1,5.76,3.4,5.76,7.24,0,5.56-5.08,8.68-11,8.68-4.72,0-8.04-1.64-10.2-4.16Z"/>
      </g>
    </g>
    <g class="cls-6">
      <path class="cls-16" d="M72.8,127.05s-.04,1.76-.04,2.4c-.32,16.28-.6,22.28-1.8,24.08-.96,1.44-1.84,1.92-3.16,2.24-1.16.28-2.8.28-4.6.24-.08-1.56-.68-3.84-1.52-5.36,1.32.16,2.44.16,3.16.16.56,0,.92-.16,1.28-.76.68-1,1-5.56,1.2-17.64h-2.64c-.44,10.8-2,18.56-7.6,23.76-.48-.84-1.32-1.92-2.24-2.84-6.6.64-13.52,1.24-18.56,1.64l-.56-4.76c2.2-.12,4.84-.28,7.72-.48v-1.6h-6.24v-3.96h6.24v-1.28h-6.84v-4.12h6.84v-1.24h-6.48v-9.8h18.6v9.8h-6.8v1.24h7.12v4.12h-7.12v1.28h6.64v3.96h-6.64v1.2c2.36-.2,4.76-.4,7.12-.6,2.52-4.04,3.28-9.32,3.52-16.32h-3v-5.36h3.12v-8.52h5.36c0,3,0,5.84-.04,8.52h7.96ZM39.25,124.85h-3.08v-4.2h3.08v-2.52h5.24v2.52h3.04v-2.52h5.32v2.52h3.52v4.2h-3.52v2.28h-5.32v-2.28h-3.04v2.28h-5.24v-2.28ZM43.45,133.73v-2.2h-1.56v2.2h1.56ZM50.33,131.53h-1.56v2.2h1.56v-2.2Z"/>
      <path class="cls-16" d="M75.35,151.89c2.52-1.76,4.36-4.52,5.28-7.56l5.2,1.84c-1.12,3.52-2.76,6.88-5.68,9.08l-4.8-3.36ZM77.47,123.93h6.36c1.56-1.88,3-4.04,3.96-5.84l6.64,1.96c-1.12,1.32-2.28,2.6-3.44,3.84l8.08-.08c-.52-.32-1-.64-1.52-.96l4.32-3.2c3.96,2.16,8.36,5.64,10.76,8.16l-4.44,3.72c-.76-.92-1.8-1.96-2.96-3-9.92.24-20.32.44-27.4.52l-.36-5.12ZM97.67,150.53c1.24,0,1.48-.36,1.68-2.88,1.12.84,3.56,1.68,5.08,2-.64,4.8-2.2,6-6.2,6h-5.28c-5.6,0-6.84-1.6-6.84-6.28v-4.64h4.6c-.56-.32-1.08-.64-1.6-.92l1.16-1.08h-8.36v-11.96h25v11.96h-10.2c1.2.8,2.28,1.6,3,2.36l-3.84,3.72c-.84-1-2.36-2.24-4-3.32v3.76c0,1.16.24,1.28,1.84,1.28h3.96ZM87.31,138.13h13.84v-2.8h-13.84v2.8ZM106.54,143.73c2.68,2.36,5.6,5.68,6.8,8.28l-5.16,2.92c-1-2.48-3.76-6.04-6.4-8.56l4.76-2.64Z"/>
      <path class="cls-16" d="M152.9,125.25h-5.48c.56.84,1.12,1.64,1.44,2.32l-5.4,1.44c-.4-.96-1.32-2.48-2.2-3.76h-1.84c-.84,1.04-1.68,1.92-2.52,2.68l-.04-.04v1.32h15.24v8.24h-5.68v-3.96h-24.24v3.96h-5.44v-8.24h14.52v-2.56h3.52c-1-.56-2.08-1.08-2.88-1.4h-3.16c.48.8.92,1.6,1.16,2.24l-5.2,1.48c-.32-.96-1.04-2.44-1.8-3.72h-.04c-1.04,1.36-2.12,2.6-3.12,3.6-1.12-.92-3.4-2.44-4.72-3.12,2.44-1.92,4.76-5.04,6-8.04l5.4,1.48c-.24.52-.48,1.04-.76,1.56h7.96v2.96c1.72-1.68,3.16-3.88,4-6l5.52,1.36c-.24.56-.52,1.12-.8,1.68h10.56v4.52ZM128.75,145.49h20.08v10.68h-5.8v-.96h-14.28v.96h-5.52v-21.44h22.28v9.48h-16.76v1.28ZM128.75,138.81v1.32h10.96v-1.32h-10.96ZM128.75,149.65v1.36h14.28v-1.36h-14.28Z"/>
      <path class="cls-16" d="M170.19,148.25c-4.52,1.56-9.48,3.16-13.48,4.44l-1.28-5.92c1.32-.32,2.88-.76,4.6-1.24v-8.56h-3.76v-5.32h3.76v-6.12h-4.12v-5.36h13.72v5.36h-4.08v6.12h3.36v5.32h-3.36v6.92c1.2-.4,2.44-.76,3.64-1.16l1,5.52ZM193.87,149.61v5.24h-25.75v-5.24h10.44v-2.88h-7.8v-5.2h7.8v-2.72h-7.68v-19.12h21.32v19.12h-7.68v2.72h8.04v5.2h-8.04v2.88h9.36ZM176.11,126.97h3v-2.4h-3v2.4ZM176.11,133.93h3v-2.44h-3v2.44ZM186.67,124.57h-2.72v2.4h2.72v-2.4ZM186.67,131.49h-2.72v2.44h2.72v-2.44Z"/>
      <path class="cls-16" d="M208.4,131.49c3.08,0,5.6,2.52,5.6,5.6s-2.52,5.6-5.6,5.6-5.6-2.52-5.6-5.6,2.52-5.6,5.6-5.6Z"/>
      <path class="cls-16" d="M259.98,147.89h-13.28v8.2h-6v-8.2h-17.84v-5.6h6.2v-9c-.48.56-.96,1.12-1.44,1.6-1.12-1.04-3.6-2.96-5-3.8,3.48-3,6.48-8.08,8.08-13.16l5.96,1.52c-.32.92-.68,1.88-1.08,2.8h22.04v5.6h-10.92v4.08h9.96v5.4h-9.96v4.96h13.28v5.6ZM232.78,127.85c-.84,1.48-1.76,2.84-2.68,4.08h10.6v-4.08h-7.92ZM240.7,142.29v-4.96h-5.8v4.96h5.8Z"/>
      <path class="cls-16" d="M287.65,139.61c3.36,3.88,8.28,7.48,13.2,9.6-1.44,1.2-3.4,3.6-4.4,5.2-4.32-2.4-8.48-6.12-11.84-10.32v12h-6.2v-11.68c-3.36,4.2-7.52,7.84-11.84,10.28-1-1.52-2.96-3.92-4.32-5.16,4.96-2.2,10-5.96,13.4-9.92h-9.92v-5.72h12.68v-4.24h-14.4v-5.8h14.4v-5.76h6.2v5.76h14.72v5.8h-14.72v4.24h13v5.72h-9.96Z"/>
      <path class="cls-16" d="M316.19,129.25h-13.52v-4.52h13.52v4.52ZM339.58,149.85c0,2.6-.4,4.2-1.88,5.12-1.48.96-3.44,1.08-6.24,1.08-.16-1.52-.84-4.16-1.56-5.64,1.4.12,3.08.08,3.64.08.52,0,.68-.16.68-.72v-25.48h-11.52v10.48c0,6.4-.48,15.8-3.52,21.48-.84-.84-2.8-2.24-4.08-2.92v.64h-6.44v1.52h-4.48v-13.88h10.92v10.68c2.2-5.04,2.36-12.12,2.36-17.52v-15.36h22.12v30.44ZM315.19,134.77h-10.84v-4.32h10.84v4.32ZM304.35,135.97h10.84v4.32h-10.84v-4.32ZM315.07,123.57h-10.48v-4.32h10.48v4.32ZM310.51,146.09h-1.84v3.4h1.84v-3.4ZM326.15,132.89v-2.04h-2.52v-4.16h2.52v-2.16h4.44v2.16h2.6v4.16h-2.6v2.04h2.72v4.16h-9.76v-4.16h2.6ZM327.63,149.33v1.32h-4v-12.08h9.6v10.76h-5.6ZM327.63,142.61v2.68h1.52v-2.68h-1.52Z"/>
      <path class="cls-16" d="M377.59,126.41c-.68,2.32-1.6,4.32-2.8,6.04,1.72,1.12,3.8,2,6.24,2.56-1.08,1.04-2.52,3.16-3.2,4.52-2.52-.8-4.68-2.04-6.52-3.52-1.88,1.48-4.16,2.64-6.8,3.56-.52-1-2-2.96-3-3.92l-2.12,2.64c-.84-.76-2.16-1.8-3.48-2.8v3.68h-5.04v-3c-1.4,1.32-3,2.48-4.44,3.28-.72-1.08-2.2-2.72-3.24-3.56,1.92-.76,4.08-1.96,5.72-3.28h-4.08v-8.04h6.04v-.96h-6.8v-3.8h6.8v-1.72h5.04v1.72h6.72v3.8h-6.72v.96h6.4v1.64c2-2.12,3.52-5.04,4.32-8.08l5.16,1.2c-.28.88-.56,1.76-.92,2.64h9.48v4.44h-2.76ZM364.87,151.01h15.68v4.64h-36.75v-4.64h5.52v-5.56h5.52v5.56h4.32v-6.64h-13.12v-4.52h32.08v4.52h-13.24v1.2h9.68v4.16h-9.68v1.28ZM349.28,129.33h1.6v-1.48h-1.6v1.48ZM355.92,127.85v1.48h1.68v-1.48h-1.68ZM361.75,135.33c2.44-.68,4.48-1.6,6.12-2.8-.64-.84-1.2-1.68-1.72-2.52-.44.48-.88.96-1.36,1.36-.52-.72-1.56-1.92-2.48-2.88v4.12h-4.12c1.52.8,3.36,1.76,4,2.16l-.44.56ZM369.07,126.41c.52.92,1.16,1.84,1.92,2.72.48-.84.88-1.72,1.2-2.72h-3.12Z"/>
      <path class="cls-16" d="M404.39,129.33c-1.64.44-4.04.96-6.72,1.36-1.84,5.56-5.2,12.44-8.4,17.04l-5.8-2.92c3.12-3.88,6.16-9.44,7.88-13.56-.44.04-.88.04-1.28.04-1.68,0-3.28-.04-5.12-.16l-.44-5.52c1.84.2,4.2.28,5.52.28,1.04,0,2.04-.04,3.08-.12.56-2.16.92-4.44,1-6.48l6.56.64c-.28,1.24-.72,3.04-1.28,5.04,1.84-.36,3.52-.76,4.84-1.16l.16,5.52ZM409.94,132.33c-.12,1.72-.04,3.6,0,5.56.04.92.12,2.48.2,4.12,3.44,1.32,6.24,3.32,8.2,5.16l-3.16,5.16c-1.24-1.16-2.84-2.68-4.8-4.04-.12,3.8-2.2,6.64-8.04,6.64-5.24,0-9.32-2.44-9.32-7.04,0-3.96,3.12-7.36,9.24-7.36.72,0,1.4.04,2.08.12-.16-2.84-.32-6.08-.44-8.32h6.04ZM404.55,145.65c-.84-.16-1.76-.28-2.68-.28-1.96,0-3.16.8-3.16,1.92,0,1.28,1.08,2.16,2.76,2.16,2.36,0,3.08-1.4,3.08-3.6v-.2ZM416.1,135.01c-2.36-1.84-7-4.52-9.76-5.72l3.08-4.76c2.84,1.24,7.96,3.96,10.08,5.44l-3.4,5.04Z"/>
      <path class="cls-16" d="M449.54,130.53c-1.4.84-2.84,1.6-4.44,2.4-2.36,1.16-5.68,2.68-9.16,4.92-3.08,2-5.28,4.12-5.28,6.72s2.52,3.84,7.6,3.84c3.92,0,9.32-.68,13.08-1.52l-.08,6.92c-3.6.6-7.56,1-12.84,1-8.16,0-14.44-2.2-14.44-9.52,0-4.52,2.8-7.76,6.44-10.52-1.84-3.4-3.68-7.44-5.44-11.6l6.04-2.44c1.44,4,3.2,7.6,4.76,10.56,2.56-1.52,4.96-2.76,6.64-3.72,1.68-.96,2.96-1.72,4.12-2.68l3,5.64ZM450.02,119.89c1,1.48,2.4,4.08,3.12,5.48l-3.8,1.6c-.84-1.64-2-4-3.08-5.56l3.76-1.52ZM454.94,117.97c1.04,1.52,2.48,4.08,3.16,5.44l-3.76,1.6c-.8-1.64-2.08-4-3.16-5.52l3.76-1.52Z"/>
      <path class="cls-16" d="M492.08,137.05s-.04,1.56-.12,2.28c-.44,9.08-1.04,13.08-2.4,14.64-1.16,1.4-2.44,1.8-4.16,2-1.44.2-3.8.24-6.2.16-.12-1.72-.92-4.16-2-5.72,2.2.16,4.48.2,5.56.2.72,0,1.2-.08,1.72-.48.64-.64,1.08-2.92,1.4-7.68h-7.16c-1.48,6.6-5.32,11.08-16.08,13.68-.56-1.6-2.08-4.04-3.36-5.36,8.16-1.68,11.48-4.32,12.92-8.32h-9.28v-5.4h10.24c.08-1.48.16-3.12.2-4.88h6.36c-.08,1.72-.12,3.36-.24,4.88h12.6ZM495.32,126.09v9.76h-5.88v-4.4h-23.48v4.4h-5.6v-9.76h5.28c-.72-1.64-1.96-3.6-3.2-5.12l5.04-2.32c1.6,1.8,3.36,4.28,4,6.12l-2.84,1.32h6.92c-.44-1.76-1.6-4.32-2.76-6.28l5.2-1.76c1.32,1.96,2.72,4.56,3.2,6.4l-4.76,1.64h7.8l-.92-.32c1.52-2.08,3.2-5.16,4.16-7.52l6.56,1.88c-1.48,2.16-3.08,4.28-4.48,5.96h5.76Z"/>
      <path class="cls-16" d="M533.9,126.81c-.92,2-2.08,3.72-3.44,5.2,1.96.8,4.16,1.44,6.56,1.84-1.24,1.16-2.88,3.44-3.64,4.92-2.88-.72-5.44-1.76-7.68-3.08-.96.52-1.92,1-2.96,1.44h4.48c-.08,1.16-.2,2.28-.32,3.36h8.68s-.08,1.4-.16,2.12c-.6,6.6-1.28,9.76-2.44,11.04-.96,1.08-1.92,1.44-3.16,1.64-1.04.16-2.68.2-4.52.16-.08-1.64-.68-3.88-1.56-5.32,1.28.12,2.48.16,3.12.16.56,0,.88-.08,1.28-.48.44-.44.88-1.76,1.24-4.56h-3.44c-1.4,4.6-4.24,8.32-10.56,10.88-.64-1.4-2.12-3.44-3.32-4.52,4.36-1.56,6.6-3.76,7.8-6.36h-3.96v-4.72c-.32,1.28-.64,2.44-1,3.44l-3.84-1.8c.32-1.36.64-3.16.88-5h-1.24v12.8c0,2.52-.36,4.04-1.96,4.96-1.56.88-3.52,1-6.04,1-.16-1.6-.92-4-1.64-5.56,1.36.08,3,.08,3.52.08.48-.04.64-.12.64-.6v-6.28c-1.24,2.44-2.76,4.64-4.48,6.12-.48-1.68-1.72-4.08-2.6-5.68,2.08-1.68,3.92-4.2,5.24-6.84h-4.4v-5.04h8.04c-2.12-1.12-4.68-2.24-6.76-3.04l3.64-3.72c.84.28,1.76.6,2.72.96.56-.52,1.16-1.08,1.68-1.68h-8.68v-4.84h12.64l.88-.2,3.68,2.28c-1.28,2.2-3.36,4.56-5.52,6.48,1.04.52,1.96,1,2.68,1.44l-2.2,2.32h1.36l.76-.24,3.48,1.12-.04.28c1.32-.32,2.52-.72,3.64-1.24-.72-.72-1.4-1.52-2.04-2.36-.4.4-.8.76-1.16,1.08-1.12-.92-3.4-2.48-4.72-3.2,3.12-2.24,6.08-5.88,7.68-9.52l5.4,1.52c-.4.84-.84,1.68-1.32,2.48h11.04v4.76h-1.96ZM521.14,140.49c.12-.92.2-1.88.28-2.84-1.16.4-2.36.8-3.6,1.12-.24-.48-.68-1.12-1.12-1.76-.24,1.2-.52,2.36-.8,3.48h5.24ZM522.94,126.81c.72.88,1.56,1.68,2.56,2.4.72-.72,1.36-1.52,1.88-2.4h-4.44Z"/>
      <path class="cls-16" d="M569.36,134.45c2.56,3.52,3.72,6.32,3.72,9.68,0,6.04-5.44,10.72-14.56,10.72-6.76,0-11.2-2.88-11.2-9.6,0-.88.08-2.16.24-3.68-2.76-.28-5.2-.72-7.16-1.24l.32-5.8c2.52.84,5,1.32,7.48,1.56l.56-4.44c-2.68-.28-5.28-.8-7.52-1.4l.28-5.52c2.2.76,5.04,1.24,7.88,1.48.12-1,.2-1.88.24-2.64.08-1.16.2-2.44.08-3.92l6.72.36c-.4,1.68-.6,2.84-.8,3.96-.08.52-.2,1.36-.36,2.44,2.72-.04,5.16-.24,6.8-.52l-.2,5.68c-2.2.24-4.2.4-7.36.4-.2,1.44-.4,2.96-.56,4.4h.04c2.24,0,5.28-.2,7.76-.48l-.16,5.68c-1.96.2-4.2.36-6.56.36h-1.64c-.08.92-.12,1.72-.12,2.28,0,2.96,1.88,4.4,5.44,4.4,5.24,0,7.84-2.48,7.84-5.28s-1.52-5.04-3.92-7.44l6.72-1.44Z"/>
      <path class="cls-16" d="M592.59,135.29c2.52-.56,5-.84,6.96-.84,6.24,0,11.44,3.24,11.44,9.08,0,4.64-2.12,8.44-8.92,10.16-1.84.4-3.64.56-5.36.68l-2.2-6.2c1.92,0,3.64-.04,4.96-.28,3.04-.52,5.28-1.96,5.28-4.4s-2-3.76-5.28-3.76c-2.2,0-4.56.32-6.76.88.08,3,.16,5.76.16,6.96,0,5.6-2,6.96-4.84,6.96-4.28,0-9.92-3.48-9.92-8.04,0-3.56,3.96-7.28,8.96-9.44-.04-1.04-.04-2.08-.04-3.08v-2.28c-.64.04-1.2.04-1.72.04-1.76,0-3.92,0-5.76-.2l-.12-5.76c2.4.28,4.28.28,5.72.28.6,0,1.24,0,1.88-.04v-2.52c0-.84-.16-3.12-.28-3.88h6.56c-.12.76-.32,2.8-.4,3.84l-.12,2.04c2.44-.32,4.88-.8,6.84-1.36l.12,5.96c-2.2.48-4.72.84-7.12,1.12-.04.84-.04,1.72-.04,2.56v1.52ZM587.27,146.41c0-.76-.04-2.08-.08-3.72-1.96,1.12-3.16,2.4-3.16,3.56,0,.92,1.32,1.72,2.08,1.72.6,0,1.16-.16,1.16-1.56ZM604.03,123.85c3.16,1.48,7.92,4,10.12,5.48l-2.84,4.88c-1.88-1.48-7.44-4.56-9.88-5.68l2.6-4.68Z"/>
      <path class="cls-16" d="M644.68,140.17v9.08h9v5.56h-23.6v-5.56h8.68v-9.08h-10.36v-5.6h10.36v-7.92c-2.56.4-5.16.72-7.6.96-.2-1.2-.84-3-1.4-4.32-.76,1.6-1.56,3.24-2.44,4.84v27.88h-5.76v-19.28c-.8,1-1.64,1.92-2.48,2.76-.56-1.44-2.32-4.72-3.36-6.2,3.84-3.56,7.48-9.28,9.6-15l5.76,1.84c-.32.8-.64,1.6-1,2.4,6.88-.84,14.16-2.32,19.08-4.12l4.24,4.92c-2.68.88-5.64,1.64-8.72,2.24v9h9.32v5.6h-9.32Z"/>
      <path class="cls-16" d="M688.37,127.89c1.08-.08,2.88-.2,4.2-.32v5.84c-.76-.04-3.16.04-4.24.08-.68.04-1.44.08-2.32.12-.08,3.08-.24,6.12-.56,7.72-.44,2.28-1.52,2.8-3.68,2.8-1.36,0-4.8-.4-6.36-.64l.12-5.24c1.16.2,2.76.44,3.48.44.68,0,1-.12,1.08-.8.12-.96.2-2.32.24-3.84-3.2.28-6.64.6-9.72.92-.04,3.36-.04,6.76,0,8.52.08,3.68.56,4.2,6,4.2,3.64,0,8.72-.48,11.88-1.08l-.24,6.6c-2.68.32-7.52.64-11.16.64-10.88,0-12.32-2.2-12.48-9.36-.04-1.68-.04-5.32-.04-8.88l-1.8.2c-1.28.16-4.16.6-5.2.76l-.6-6.08c1.04,0,3.08-.08,5.4-.28l2.2-.2v-3.16c0-1.88-.16-3.48-.36-4.96h6.76c-.2,1.52-.28,2.68-.28,4.6,0,.68,0,1.72-.04,2.92,3.08-.28,6.52-.6,9.76-.88v-3.8c0-1.08-.2-3.2-.32-4h6.44c-.12.6-.24,2.56-.28,3.72l-.08,3.6,2.2-.16Z"/>
      <path class="cls-16" d="M51.33,205.28v-18.2h1.4v16.8h16.8v1.4h-18.2Z"/>
      <path class="cls-16" d="M89.5,194.57l-.77,2.45h12.95v24.19h-5.18v-1.75h-19.01v1.75h-4.9v-24.19h10.75c.11-.81.25-1.65.35-2.45h-12.46v-4.79h31.99v4.79h-13.72ZM77.49,214.81h2.77v-13.13h-2.77v13.13ZM89.01,201.68h-4.24v1.65h4.24v-1.65ZM89.01,207.25h-4.24v1.85h4.24v-1.85ZM84.77,214.81h4.24v-1.79h-4.24v1.79ZM96.5,201.68h-2.94v13.13h2.94v-13.13Z"/>
      <path class="cls-16" d="M115.37,191.7c-.59,1.61-1.26,3.25-2,4.87v24.61h-4.66v-16.38c-.49.67-.98,1.29-1.47,1.89-.38-1.26-1.61-4.24-2.38-5.6,2.7-3.19,5.18-8.16,6.62-13.13l4.69,1.4-.11.28h11.13v4.1h-4.79c-.6,1.68-1.23,3.36-1.82,4.83l2.24-.14c-.28-.88-.6-1.75-.91-2.52l3.64-1.15c.84,1.85,1.64,4.16,2.13,6.09v-8.47h4.31v20.48h-4.31v-9.94l-3.54,1.23c-.04-.49-.14-1.09-.25-1.68-3.25.32-6.48.63-9.14.88l-.46-4.38,1.92-.1c.46-1.54.88-3.4,1.19-5.11h-2.07v-2.03ZM127.66,213.9l.28,4.24c-4.55.81-9.42,1.54-13.16,2.14l-.74-4.55c1.37-.14,2.94-.35,4.69-.6v-4.2h-3.71v-4.34h3.71v-3.15h4.69v3.15h3.61v4.34h-3.61v3.57l4.24-.59ZM137.78,188.52v27.34c0,2.31-.35,3.61-1.61,4.38-1.22.8-3.04.98-5.5.98-.14-1.29-.74-3.43-1.33-4.8,1.37.07,2.8.07,3.29.07.46,0,.63-.14.63-.63v-27.34h4.52Z"/>
      <path class="cls-16" d="M159.48,197.79c-1.44.38-3.54.84-5.88,1.19-1.61,4.87-4.55,10.89-7.35,14.91l-5.08-2.56c2.73-3.4,5.39-8.26,6.9-11.87-.39.04-.77.04-1.12.04-1.47,0-2.87-.04-4.48-.14l-.39-4.83c1.61.18,3.68.25,4.83.25.91,0,1.79-.03,2.7-.1.49-1.89.8-3.89.88-5.67l5.74.56c-.25,1.09-.63,2.66-1.12,4.41,1.61-.31,3.08-.66,4.24-1.01l.14,4.83ZM164.34,200.42c-.11,1.51-.04,3.15,0,4.87.04.8.11,2.17.17,3.61,3.01,1.16,5.46,2.91,7.18,4.52l-2.76,4.52c-1.09-1.02-2.49-2.35-4.2-3.54-.1,3.33-1.92,5.81-7.04,5.81-4.59,0-8.16-2.14-8.16-6.16,0-3.47,2.73-6.44,8.09-6.44.63,0,1.23.04,1.82.11-.14-2.49-.28-5.32-.38-7.28h5.29ZM159.61,212.08c-.74-.14-1.54-.25-2.34-.25-1.72,0-2.77.7-2.77,1.68,0,1.12.95,1.89,2.42,1.89,2.07,0,2.7-1.23,2.7-3.15v-.17ZM169.73,202.77c-2.07-1.61-6.13-3.96-8.54-5.01l2.7-4.17c2.49,1.09,6.97,3.47,8.82,4.76l-2.98,4.41Z"/>
      <path class="cls-16" d="M207.24,211.55h-3.67v6.09h-5.18v-1.43h-5.11v.42c0,2.31-.53,3.29-2.03,3.99-1.51.63-3.43.7-6.44.7-.24-1.15-1.01-2.9-1.64-3.92,1.43.07,3.5.07,4.06.07.67-.04.88-.25.88-.84v-.42h-10.26v-3.61h10.26v-1.05h-13.65v-3.81h13.65v-.95h-10.01v-3.36h10.01v-1.05h-9.24v-7.42h9.24v-1.05h-12.78v-3.96h12.78v-1.99h5.18v1.99h13.09v3.96h-13.09v1.05h9.66v7.42h-9.66v1.05h10.29v4.31h3.67v3.81ZM188.1,199.26v-1.19h-4.38v1.19h4.38ZM193.28,198.07v1.19h4.45v-1.19h-4.45ZM193.28,207.74h5.11v-.95h-5.11v.95ZM198.39,211.55h-5.11v1.05h5.11v-1.05Z"/>
      <path class="cls-16" d="M240.94,195.59c-.8,1.75-1.82,3.25-3.01,4.55,1.71.7,3.64,1.26,5.74,1.61-1.08,1.02-2.52,3.01-3.19,4.31-2.52-.63-4.76-1.54-6.72-2.7-.84.46-1.68.88-2.59,1.26h3.92c-.07,1.01-.17,2-.28,2.94h7.6s-.07,1.22-.14,1.86c-.52,5.78-1.12,8.54-2.13,9.66-.84.95-1.68,1.26-2.77,1.44-.91.14-2.34.18-3.96.14-.07-1.44-.6-3.4-1.37-4.66,1.12.11,2.17.14,2.73.14.49,0,.77-.07,1.12-.42.38-.38.77-1.54,1.08-3.99h-3.01c-1.22,4.03-3.71,7.28-9.24,9.52-.56-1.23-1.86-3.01-2.91-3.96,3.81-1.37,5.78-3.29,6.83-5.56h-3.46v-4.13c-.28,1.12-.56,2.13-.88,3.01l-3.36-1.57c.28-1.19.56-2.77.77-4.38h-1.08v11.2c0,2.21-.32,3.54-1.72,4.34-1.36.77-3.08.88-5.29.88-.14-1.4-.8-3.5-1.44-4.87,1.19.07,2.63.07,3.08.07.42-.03.56-.1.56-.52v-5.5c-1.08,2.13-2.42,4.06-3.92,5.36-.42-1.47-1.51-3.57-2.28-4.97,1.82-1.47,3.43-3.68,4.58-5.99h-3.85v-4.41h7.04c-1.86-.98-4.1-1.96-5.92-2.66l3.18-3.25c.74.25,1.54.53,2.38.84.49-.46,1.01-.95,1.47-1.47h-7.6v-4.24h11.06l.77-.17,3.22,1.99c-1.12,1.93-2.94,3.99-4.83,5.67.91.46,1.72.88,2.35,1.26l-1.92,2.03h1.19l.67-.21,3.05.98-.04.24c1.16-.28,2.21-.63,3.19-1.08-.63-.63-1.23-1.33-1.79-2.07-.35.35-.7.67-1.02.95-.98-.8-2.98-2.17-4.13-2.8,2.73-1.96,5.32-5.14,6.72-8.33l4.73,1.33c-.35.73-.74,1.47-1.16,2.17h9.66v4.17h-1.72ZM229.77,207.56c.11-.8.17-1.64.25-2.49-1.02.35-2.07.7-3.15.98-.21-.42-.59-.98-.98-1.54-.21,1.05-.46,2.06-.7,3.04h4.58ZM231.35,195.59c.63.77,1.37,1.47,2.24,2.1.63-.63,1.19-1.33,1.65-2.1h-3.89Z"/>
      <path class="cls-16" d="M258.19,189.67c-.88,2.35-1.96,4.76-3.22,7.11v24.4h-5.15v-16.52c-.49.59-.98,1.12-1.47,1.65-.46-1.26-1.86-4.2-2.73-5.5,3.04-3.04,5.95-7.88,7.63-12.71l4.94,1.58ZM269.88,198.42v2.91h8.54v4.62h-8.54v3.15h9v4.73h-9v7.39h-5.25v-22.79h-.67c-1.4,2.52-2.91,4.76-4.45,6.51-.8-.95-2.77-2.77-3.85-3.57,3.05-3.08,5.78-8.12,7.32-13.13l4.9,1.29c-.46,1.37-.98,2.73-1.58,4.06h13.06v4.83h-9.49Z"/>
      <path class="cls-16" d="M304.91,213.41c2.77,1.37,6.3,2.35,9.98,2.87-1.16,1.08-2.66,3.22-3.43,4.62-4.13-.98-7.91-2.8-10.96-5.25v5.57h-5.04v-5.39c-3.15,2.28-7.07,4.06-11.03,5.08-.7-1.22-2.17-3.18-3.26-4.23,3.61-.63,7.28-1.79,10.12-3.26h-8.96v-4.13h13.13v-.98h-9.91v-3.61h9.91v-.98h-11.62v-3.92h6.13c-.21-.74-.56-1.61-.84-2.28h-6.72v-4.13h4.2c-.49-1.23-1.23-2.73-1.89-3.92l4.38-1.47c.94,1.47,2.03,3.5,2.49,4.83l-1.58.56h2.52v-5.46h4.73v5.46h1.68v-5.46h4.79v5.46h2.31l-1.05-.32c.73-1.4,1.54-3.43,1.96-4.94l5.36,1.23c-.91,1.5-1.79,2.9-2.55,4.03h4.03v4.13h-6.34c-.49.81-.95,1.58-1.37,2.28h6.3v3.92h-11.87v.98h10.29v3.61h-10.29v.98h13.37v4.13h-8.96ZM294.48,197.51c.38.77.73,1.61.91,2.21l-.42.07h5.95c.31-.7.63-1.5.88-2.28h-7.32Z"/>
      <path class="cls-16" d="M331.65,212.67c.07-.88.14-2.17.18-3.47-2.17,1.26-3.12,2.38-3.12,3.78,0,1.47,1.09,2.06,4.34,2.06,3.08,0,7.04-.42,10.08-1.08l-.17,5.43c-2.14.28-6.58.59-10.01.59-5.71,0-9.8-1.47-9.8-6.09s4.13-7.42,7.98-9.45c-.53-.53-1.23-.7-1.89-.7-1.79,0-3.92,1.16-5.11,2.31-1.05,1.08-2.03,2.34-3.22,3.92l-4.48-3.36c3.29-2.9,5.74-5.74,7.42-8.93-1.43,0-3.96-.07-5.78-.24v-4.87c1.71.28,4.38.42,6.23.42h1.37c.38-1.58.56-2.91.59-3.78l5.53.46c-.14.77-.39,1.86-.77,3.15,3.12-.18,6.44-.46,9.35-.98l-.03,4.87c-3.26.42-7.49.74-11.2.88-.42.91-.88,1.75-1.33,2.45.7-.21,2.45-.35,3.43-.35,2.03,0,3.71.84,4.62,2.45,1.4-.66,2.52-1.12,3.75-1.68,1.5-.67,2.94-1.33,4.41-2.03l2.07,4.83c-1.23.35-3.4,1.15-4.73,1.68-1.33.49-3.01,1.15-4.83,1.96.03,1.89.1,4.24.14,5.78h-5.01Z"/>
      <path class="cls-16" d="M363.21,189.81c-.84,1.99-1.85,4.06-3.01,6.05v25.27h-5.29v-17.54c-1.01,1.19-2.03,2.31-3.04,3.25-.49-1.23-1.92-3.99-2.8-5.25,3.64-3.15,7.21-8.26,9.28-13.41l4.87,1.61ZM373.01,202.97c.84,6.97,2.42,11.55,4.73,11.94.7.07,1.05-1.58,1.26-5.32.98,1.08,3.25,2.45,4.17,2.94-.98,7.21-3.15,8.72-5.18,8.58-6.05-.63-8.79-6.83-10.05-17.4l-6.02.84-.74-4.9,6.3-.88c-.25-3.12-.38-6.55-.49-10.26h5.18c.04,3.4.14,6.62.35,9.56l9.73-1.33.7,4.83-9.94,1.4ZM378.37,196.22c-.74-1.64-2.66-4.13-4.31-5.92l3.85-2.34c1.68,1.64,3.71,3.99,4.58,5.67l-4.13,2.59Z"/>
      <path class="cls-16" d="M398.73,197.51c-1.01,1.75-2.28,3.57-3.64,5.32v18.38h-5.11v-12.64c-.77.7-1.5,1.4-2.24,1.99-.7-1.08-2.42-3.39-3.43-4.45,3.54-2.45,7.35-6.51,9.59-10.47l4.83,1.86ZM397.5,189.99c-2.66,3.47-6.55,7.21-10.01,9.59-.63-1.16-1.92-3.19-2.8-4.2,2.91-1.82,6.27-5,7.91-7.42l4.9,2.03ZM417.73,204.44h-4.58v11.06c0,2.59-.46,3.99-2.21,4.76-1.68.77-4.03.84-7,.84-.17-1.51-.84-3.75-1.51-5.22,1.72.1,4.03.1,4.66.1s.84-.14.84-.63v-10.92h-9.59v-4.83h19.39v4.83ZM416.86,194.71h-17.05v-4.83h17.05v4.83Z"/>
    </g>
    <g>
      <g>
        <path class="cls-2" d="M275.1,385.22c9.36.72,20.92,8.17,21.4,18.09.22,4.52.9,10.22.9,15.43.84,9.1,1.48,19.04-3.74,26.6-3.9,5.65-10.64,9.02-17.52,9.93-6.88.91-13.9-.42-20.47-2.65-5.23-1.78-14.72-5.67-14.04-23.74.23-6,1.06-21.58,2.2-27.33,1.5-7.61,9.35-11.13,14.22-13.17,5.37-2.25,11.22-3.59,17.04-3.15Z"/>
        <path class="cls-18" d="M244.02,425.48c.94,4.54,5.32,7.85,7.49,7.4,2.18-.45,1.33-4.49.39-9.03-.94-4.54-4.39-7.85-6.57-7.4-2.18.45-2.26,4.49-1.32,9.03Z"/>
        <path class="cls-18" d="M296.14,425.48c-.94,4.54-5.32,7.85-7.49,7.4-2.18-.45-1.33-4.49-.39-9.03.94-4.54,4.39-7.85,6.57-7.4,2.18.45,2.26,4.49,1.32,9.03Z"/>
        <path class="cls-9" d="M261.66,474.44h16.63c9.87,0,17.87-8,17.87-17.87l-26.18-7.39-26.18,7.39c0,9.87,8,17.87,17.87,17.87Z"/>
        <path class="cls-18" d="M283.43,455.75v-2.77l-13.46-3.8-13.72,3.87v2.69c0,7.51,6.09,13.59,13.59,13.59s13.59-6.09,13.59-13.59Z"/>
        <rect class="cls-18" x="260.93" y="415.83" width="18.07" height="46.8"/>
        <path class="cls-12" d="M269.97,454.75c4.99,0,9.04-4.05,9.04-9.04v-18.07c0-4.99-4.05-9.04-9.04-9.04s-9.04,4.05-9.04,9.04v18.07c0,4.99,4.05,9.04,9.04,9.04Z"/>
        <path class="cls-18" d="M261.48,445.48l2.79,1.83c3.46,2.27,7.94,2.27,11.4,0l2.79-1.83c8-5.25,12.83-14.18,12.83-23.75v-19.41c0-11.77-9.54-21.31-21.31-21.31s-21.31,9.54-21.31,21.31v19.41c0,9.57,4.82,18.5,12.83,23.75Z"/>
        <path class="cls-2" d="M290,430.15l5.39-18.2c5.01-16.92-7.67-33.89-25.31-33.89s-30.39,17.09-25.27,34.03l4.14,13.69c1.35-15.72,6.01-16.74,8.74-27.57,16.58,4.48,32.69,13.67,32.31,31.93Z"/>
        <g>
          <path class="cls-1" d="M293.93,393.17c-1.29-2.72-3.04-5.2-5.16-7.34-.07.18-.14.38-.21.59-.32.9-.77,1.96-1.32,3.09-.56,1.13-1.28,2.32-2.16,3.47-.88,1.15-1.94,2.27-3.15,3.28-1.23,1-2.62,1.9-4.18,2.64-.78.35-1.58.72-2.43.99-.42.15-.85.27-1.29.39l-.66.18-.67.16c-1.8.39-3.68.59-5.56.6-.14,0-.27,0-.41-.01,5.42,2.18,10.44,5,14.41,8.64.77-.41,1.52-.85,2.24-1.33,2.32-1.51,4.31-3.38,5.91-5.36,1.58-2,2.74-4.12,3.52-6.14.51-1.35.87-2.64,1.1-3.86Z"/>
          <path class="cls-1" d="M256.54,398.92c-1.56-.74-2.95-1.64-4.18-2.64-1.21-1.01-2.27-2.13-3.15-3.28-.6-.79-1.12-1.6-1.58-2.4-2.03,3.28-3.36,7.01-3.8,10.95.36.54.75,1.09,1.17,1.62,1.59,1.98,3.58,3.85,5.91,5.36.67.44,1.37.86,2.08,1.24,1.51-3.16,3.13-5.92,4.41-10.47-.29-.13-.58-.25-.86-.38Z"/>
        </g>
        <g>
          <path class="cls-4" d="M263.2,426.33c.92-1.64.41-3.85-1.28-5.15-1.84-1.41-4.36-1.21-5.63.44-1.07,1.39-.92,3.37.25,4.81.85,0,5.22-.1,6.67-.1Z"/>
          <path class="cls-4" d="M251.95,420.89s.28.18.72.38c.44.2,1.04.38,1.63.42.59.04,1.16-.04,1.59-.14.42-.1.7-.2.7-.2l.15,2.31s-.09-.01-.25-.04c-.16-.02-.39-.07-.66-.12-.54-.12-1.26-.35-1.89-.71-.64-.36-1.16-.85-1.49-1.23-.33-.39-.5-.67-.5-.67Z"/>
          <path class="cls-4" d="M252.4,423.31s.31.13.77.26c.46.13,1.09.22,1.67.16.59-.06,1.14-.23,1.54-.39.4-.17.66-.3.66-.3l.52,2.26s-.09,0-.25,0c-.16,0-.39,0-.67-.02-.55-.03-1.3-.15-1.98-.4-.69-.25-1.28-.65-1.66-.98-.38-.33-.6-.58-.6-.58Z"/>
        </g>
        <g>
          <path class="cls-4" d="M276.97,426.33c-.92-1.64-.41-3.85,1.28-5.15,1.84-1.41,4.36-1.21,5.63.44,1.07,1.39.92,3.37-.25,4.81-.61,0-5.36-.1-6.67-.1Z"/>
          <path class="cls-4" d="M288.21,420.89s-.17.28-.5.67c-.32.39-.84.87-1.49,1.23-.64.36-1.36.59-1.89.71-.27.06-.5.1-.66.12-.16.02-.25.04-.25.04l.15-2.31s.28.1.7.2c.42.1,1,.18,1.59.14.59-.04,1.19-.22,1.63-.42.44-.2.72-.38.72-.38Z"/>
          <path class="cls-4" d="M287.76,423.31s-.22.25-.6.58c-.38.33-.97.73-1.66.98-.69.25-1.43.37-1.98.4-.28.01-.51.02-.67.02-.16,0-.25,0-.25,0l.52-2.26s.26.14.66.3c.4.17.96.34,1.54.39.59.06,1.21-.03,1.67-.16.46-.13.77-.26.77-.26Z"/>
        </g>
        <path class="cls-3" d="M270.08,439.81c-2.17,0-4.34-.54-6.49-1.63-.57-.29-.8-.98-.51-1.56.29-.57.98-.8,1.56-.51,3.67,1.85,7.23,1.85,10.9,0,.57-.29,1.27-.06,1.56.51.29.57.06,1.27-.51,1.56-2.15,1.09-4.32,1.63-6.49,1.63Z"/>
        <path class="cls-2" d="M287.75,418.63c-.99-2.05-3.44-3.24-5.53-3.88-2.78-.86-5.69-.04-8.15,1.31-.76.42-1.05,1.5-.33,2.09.83.68,1.97.42,2.82-.03,1.87-1,3.95-1.4,6.05-1.12,1.74.24,3.06,1.22,4.56,2.02.23.12.71-.07.57-.38Z"/>
        <path class="cls-2" d="M251.38,418.63c.99-2.05,3.44-3.24,5.53-3.88,2.78-.86,5.69-.04,8.15,1.31.76.42,1.05,1.5.33,2.09-.83.68-1.97.42-2.82-.03-1.87-1-3.95-1.4-6.05-1.12-1.74.24-3.06,1.22-4.56,2.02-.23.12-.71-.07-.57-.38Z"/>
      </g>
      <g>
        <path class="cls-18" d="M250.5,310.99c.93,4.49,5.27,7.77,7.42,7.33s1.32-4.45.39-8.94c-.93-4.49-4.35-7.77-6.5-7.33-2.16.45-2.24,4.45-1.31,8.94Z"/>
        <path class="cls-18" d="M302.12,310.99c-.93,4.49-5.27,7.77-7.42,7.33s-1.32-4.45-.39-8.94c.93-4.49,4.35-7.77,6.5-7.33,2.16.45,2.24,4.45,1.31,8.94Z"/>
        <path class="cls-15" d="M267.97,359.49h16.47c9.77,0,17.7-7.92,17.7-17.7,0,0-25.93-7.32-25.93-7.32l-25.93,7.32c0,9.77,7.92,17.7,17.7,17.7Z"/>
        <path class="cls-18" d="M276.2,347.78c5.54,0,10.03-4.49,10.03-10.03v-26.3c0-5.54-4.49-10.03-10.03-10.03s-10.03,4.49-10.03,10.03v26.3c0,5.54,4.49,10.03,10.03,10.03Z"/>
        <rect class="cls-12" x="266.18" y="304.18" width="20.06" height="35.8" rx="9.42" ry="9.42"/>
        <path class="cls-18" d="M267.8,332.63c5.1,3.35,11.71,3.35,16.81,0,7.93-5.2,12.7-14.04,12.7-23.52v-21.06c0-11.66-9.45-21.11-21.11-21.11s-21.11,9.45-21.11,21.11v21.06c0,9.48,4.78,18.32,12.7,23.52Z"/>
        <path class="cls-14" d="M293.47,317.87c-10.94,9.65-23.79,9.52-34.88,0l-3.5-19.73v12.8c0,9.48,4.78,18.32,12.7,23.52,5.1,3.35,11.71,3.35,16.81,0,7.93-5.2,12.7-14.04,12.7-23.52v-12.8l-3.85,19.73Z"/>
        <ellipse class="cls-14" cx="276.2" cy="325.39" rx="10.03" ry="8.2"/>
        <path class="cls-14" d="M296.24,315.61c0,.22-.01.41.04.63,1.63-1.84,7.84-29.02,6.72-33.79-.59-2.51-1.86-5.14-4.25-6.11.5-1.34.88-2.79.62-4.2-.26-1.41-1.31-2.76-2.73-2.94-1.42-.19-2.93,1.22-2.53,2.59.93-4.86-.64-8.9-6.47-9.44-4.07-.38-4.15,2.21-12.56,1.91-2.82-.1-6.64-.15-9.17,1.08-2.54,1.23-4.64,3.8-4.44,6.62-2.17-.3-5.61,1.08-7,2.76-4.19,5.07-4.19,19.75.92,36.58-.39-1.3,3.49-22.19,5.96-26.71,7.72,4.99,27.49,5.88,32.76,5.65,1.21,8.81,2.14,16.42,2.14,25.37Z"/>
        <g>
          <path class="cls-11" d="M260.13,287.2c-.82-.48-1.6-1-2.3-1.52-.69-.51-1.35-1.1-1.66-1.43-.94-1.1-1.58-2.39-1.95-3.58-.36-1.2-.47-2.32-.41-3.22.04-.91.23-1.62.38-2.1.08-.24.12-.38.2-.53-1.82,2.21-2.84,6.35-2.96,11.72.1.2.19.4.3.61.72,1.22,1.46,1.99,2.25,2.83.79.81,1.65,1.58,2.57,2.32.61.49,1.25.96,1.93,1.42.58-2.43,1.19-4.68,1.76-6.43-.04-.02-.09-.05-.13-.07Z"/>
          <path class="cls-11" d="M300.11,284.23l.07-.05s.11-.08.07-.05c.04-.03.14-.12.14-.12l.22-.19c.19-.17.38-.35.51-.5.58-.64.99-1.3,1.28-1.92.07-.15.13-.29.19-.43-.43-1.23-1.05-2.4-1.91-3.31-.02.11-.06.24-.1.4-.13.44-.41,1.07-.93,1.7-.53.63-1.32,1.19-2.28,1.39-.97.22-2.19,0-3-.6-.44-.32-.89-.79-1.4-1.45-.52-.67-1.06-1.47-1.85-2.45l-.28-.34-.06-.08s-.1-.11-.1-.11l-.18-.2c-.24-.26-.5-.52-.77-.77-.55-.5-1.15-.97-1.87-1.4-.71-.42-1.53-.8-2.52-1.04-.98-.23-2.16-.28-3.34,0l-.23.06-.27.08-.33.11c-.05.02-.25.1-.25.1l-.21.09c-.14.06-.28.13-.41.2-.54.28-1.03.63-1.45,1-.86.75-1.48,1.6-1.95,2.44-.12.21-.23.42-.33.64-.1.22-.19.41-.29.68l-.12.31-.04.11-.02.05-.04.14-.1.3-.08.27c-.21.71-.36,1.32-.52,1.93-.3,1.18-.58,2.35-.88,2.95-.39.92-.84,1.76-1.32,2.44-.48.69-1.01,1.21-1.51,1.55-.02.01-.04.03-.06.04,3.27.69,6.76,1.17,10.05,1.49.4-.88.72-1.76.99-2.62l.08-.26.06-.2.03-.11c.45-1.75.83-3.5,1.31-5.25.12-.45.3-.95.72-1.16.56-.28,1.21.1,1.69.49,1.95,1.57,3.12,3.64,5.51,4.63l.11.05c.17.08.06.03.1.04.06.02.23.07.23.07.16.05.31.1.47.15l.27.08.24.05c.16.03.31.07.47.09.62.1,1.23.13,1.81.09,1.17-.07,2.23-.38,3.15-.82.46-.23.88-.48,1.26-.77Z"/>
        </g>
        <g>
          <path class="cls-4" d="M264.74,310.5c1.76-.3,3.42-.1,4.64.45.92-1.62.41-3.81-1.27-5.1-1.82-1.4-4.32-1.2-5.58.44-1.06,1.38-.91,3.34.25,4.76.6-.24,1.26-.43,1.96-.55Z"/>
          <path class="cls-4" d="M287.67,310.5c-1.76-.3-3.42-.1-4.64.45-.92-1.62-.41-3.81,1.27-5.1,1.82-1.4,4.32-1.2,5.58.44,1.06,1.38.91,3.34-.25,4.76-.6-.24-1.26-.43-1.96-.55Z"/>
          <path class="cls-14" d="M270.67,304.05c-.24,0-.49-.06-.72-.17-3.49-1.76-6.89-1.76-10.39,0-.79.4-1.76.08-2.16-.71-.4-.79-.08-1.76.71-2.16,4.4-2.22,8.87-2.22,13.28,0,.79.4,1.11,1.37.71,2.16-.28.56-.85.88-1.44.88Z"/>
          <path class="cls-14" d="M293.56,304.05c-.24,0-.49-.06-.72-.17-3.49-1.76-6.89-1.76-10.39,0-.79.4-1.76.08-2.16-.71-.4-.79-.08-1.76.71-2.16,4.4-2.22,8.87-2.22,13.28,0,.79.4,1.11,1.37.71,2.16-.28.56-.85.88-1.44.88Z"/>
          <path class="cls-18" d="M276.2,327.49c-2.38,0-4.74-1.1-7.01-3.27-.47-.45-.61-1.13-.37-1.73s.82-.99,1.47-.99h11.83c.65,0,1.23.39,1.47.99.24.6.09,1.28-.37,1.73-2.27,2.17-4.62,3.27-7.01,3.27Z"/>
          <path class="cls-12" d="M276.22,325.58c-2.15,0-4.3-.54-6.43-1.61-.57-.29-.79-.98-.51-1.54.29-.57.97-.79,1.54-.51,3.63,1.83,7.17,1.83,10.8,0,.57-.28,1.26-.06,1.54.51.29.57.06,1.26-.51,1.54-2.13,1.08-4.28,1.61-6.43,1.61Z"/>
        </g>
      </g>
      <g>
        <path class="cls-13" d="M358.98,346.6c9.36.72,20.92,8.17,21.4,18.09.22,4.52.9,10.22.9,15.43.84,9.1,1.48,19.04-3.74,26.6-3.9,5.65-10.64,9.02-17.52,9.93-6.88.91-13.9-.42-20.47-2.65-5.23-1.78-14.72-5.67-14.04-23.74.23-6,1.06-21.58,2.2-27.33,1.5-7.61,9.35-11.13,14.22-13.17,5.37-2.25,11.22-3.59,17.04-3.15Z"/>
        <path class="cls-19" d="M345.54,435.82h16.63c9.87,0,17.87-8,17.87-17.87,0,0-26.18-7.39-26.18-7.39l-26.18,7.39c0,9.87,8,17.87,17.87,17.87Z"/>
        <path class="cls-13" d="M367.31,417.13v-2.77l-13.46-3.8-13.72,3.87v2.69c0,7.51,6.09,13.59,13.59,13.59s13.59-6.09,13.59-13.59Z"/>
        <polygon class="cls-18" points="344.82 418.44 353.85 424 362.89 418.44 362.89 377.2 344.82 377.2 344.82 418.44"/>
        <path class="cls-12" d="M353.85,416.12c4.99,0,9.04-4.05,9.04-9.04v-18.07c0-4.99-4.05-9.04-9.04-9.04s-9.04,4.05-9.04,9.04v18.07c0,4.99,4.05,9.04,9.04,9.04Z"/>
        <path class="cls-18" d="M345.37,406.85l2.79,1.83c3.46,2.27,7.94,2.27,11.4,0l2.79-1.83c8-5.25,12.83-14.18,12.83-23.75v-19.41c0-11.77-9.54-21.31-21.31-21.31s-21.31,9.54-21.31,21.31v19.41c0,9.57,4.82,18.5,12.83,23.75Z"/>
        <g>
          <path class="cls-4" d="M346.97,386.81c.92-1.64.41-3.85-1.28-5.15-1.84-1.41-4.36-1.21-5.63.44-1.07,1.39-.92,3.37.25,4.81.85,0,5.22-.1,6.67-.1Z"/>
          <path class="cls-4" d="M335.73,381.37s.28.18.72.38c.44.2,1.04.38,1.63.42.59.04,1.16-.04,1.59-.14.42-.1.7-.2.7-.2l.15,2.31s-.09-.01-.25-.04c-.16-.02-.39-.07-.66-.12-.54-.12-1.26-.35-1.89-.71-.64-.36-1.16-.85-1.49-1.23-.33-.39-.5-.67-.5-.67Z"/>
          <path class="cls-4" d="M336.18,383.79s.31.13.77.26c.46.13,1.09.22,1.67.16.59-.06,1.14-.23,1.54-.39.4-.17.66-.3.66-.3l.52,2.26s-.09,0-.25,0c-.16,0-.39,0-.67-.02-.55-.03-1.3-.15-1.98-.4-.69-.25-1.28-.65-1.66-.98-.38-.33-.6-.58-.6-.58Z"/>
        </g>
        <g>
          <path class="cls-4" d="M360.74,386.81c-.92-1.64-.41-3.85,1.28-5.15,1.84-1.41,4.36-1.21,5.63.44,1.07,1.39.92,3.37-.25,4.81-.61,0-5.36-.1-6.67-.1Z"/>
          <path class="cls-4" d="M371.98,381.37s-.17.28-.5.67c-.32.39-.84.87-1.49,1.23-.64.36-1.36.59-1.89.71-.27.06-.5.1-.66.12-.16.02-.25.04-.25.04l.15-2.31s.28.1.7.2c.42.1,1,.18,1.59.14.59-.04,1.19-.22,1.63-.42.44-.2.72-.38.72-.38Z"/>
          <path class="cls-4" d="M371.53,383.79s-.22.25-.6.58c-.38.33-.97.73-1.66.98-.69.25-1.43.37-1.98.4-.28.01-.51.02-.67.02-.16,0-.25,0-.25,0l.52-2.26s.26.14.66.3c.4.17.96.34,1.54.39.59.06,1.21-.03,1.67-.16.46-.13.77-.26.77-.26Z"/>
        </g>
        <path class="cls-3" d="M353.85,400.29c-2.17,0-4.34-.54-6.49-1.63-.57-.29-.8-.98-.51-1.56.29-.57.98-.8,1.56-.51,3.67,1.85,7.23,1.85,10.9,0,.57-.29,1.27-.06,1.56.51.29.57.06,1.27-.51,1.56-2.15,1.09-4.32,1.63-6.49,1.63Z"/>
        <path class="cls-13" d="M353.96,339.44c-17.71,0-30.39,17.09-25.27,34.03l4.14,13.69,3.16-23.16v9.72h3.17l.58-9.27.58,9.27h31.02v-10.27c.75,5.53,2.7,20.66,2.55,28.07l5.39-18.2c5.01-16.92-7.67-33.89-25.31-33.89Z"/>
        <path class="cls-5" d="M374.98,349.88c-.2.37-.42.75-.69,1.13-.6.89-1.33,1.8-2.27,2.64-.47.42-.95.85-1.52,1.23-.27.2-.57.39-.85.58-.31.18-.6.38-.93.55-.63.36-1.33.68-2.03,1-.73.29-1.47.59-2.26.84-1.57.5-3.27.9-5.04,1.16-1.76.27-3.6.39-5.43.4-1.83,0-3.66-.13-5.43-.4-1.77-.26-3.47-.65-5.04-1.16-.79-.25-1.54-.54-2.26-.84-.71-.32-1.4-.64-2.03-1-.33-.17-.62-.37-.93-.55-.28-.2-.59-.38-.85-.58-.57-.38-1.05-.82-1.52-1.23-.94-.85-1.67-1.76-2.27-2.65-.26-.38-.48-.76-.68-1.13-1.66,2.19-2.98,4.63-3.89,7.24.21.41.44.83.69,1.24,1.04,1.7,2.44,3.41,4.15,4.88.21.18.43.37.65.55.23.17.45.35.68.52.22.17.45.33.67.49l.11-.8v.87c.21.14.43.29.64.43.9.57,1.85,1.11,2.84,1.59l.28-2.44.31,2.71c2.07.95,4.28,1.69,6.56,2.17,2.4.52,4.87.77,7.35.78,2.47-.01,4.95-.25,7.35-.77,2.4-.5,4.73-1.29,6.89-2.31,1.08-.5,2.12-1.1,3.1-1.72.05-.03.05-1.87.05-1.87.07.49.14,1.06.23,1.68.88-.59,1.72-1.21,2.48-1.89,1.71-1.47,3.11-3.17,4.15-4.88.25-.41.48-.83.68-1.24-.92-2.61-2.24-5.06-3.9-7.25Z"/>
        <path class="cls-8" d="M344.82,432.46l9.04-8.46c-4.88-3.86-8.22-8.04-9.04-12.74l-3.77,2.92c-.38,6.87,1.09,12.86,3.77,18.28Z"/>
        <path class="cls-8" d="M362.89,432.46l-9.04-8.46c4.88-3.86,8.22-8.04,9.04-12.74l3.77,2.92c.38,6.87-1.09,12.86-3.77,18.28Z"/>
        <path class="cls-13" d="M371.53,379.11c-.99-2.05-3.44-3.24-5.53-3.88-2.78-.86-5.69-.04-8.15,1.31-.76.42-1.05,1.5-.33,2.09.83.68,1.97.42,2.82-.03,1.87-1,3.95-1.4,6.05-1.12,1.74.24,3.06,1.22,4.56,2.02.23.12.71-.07.57-.38Z"/>
        <path class="cls-13" d="M335.16,379.11c.99-2.05,3.44-3.24,5.53-3.88,2.78-.86,5.69-.04,8.15,1.31.76.42,1.05,1.5.33,2.09-.83.68-1.97.42-2.82-.03-1.87-1-3.95-1.4-6.05-1.12-1.74.24-3.06,1.22-4.56,2.02-.23.12-.71-.07-.57-.38Z"/>
      </g>
      <g>
        <path class="cls-18" d="M402.18,311.58c.94,4.54,5.32,7.85,7.49,7.4,2.18-.45,1.33-4.49.39-9.03-.94-4.54-4.39-7.85-6.57-7.4-2.18.45-2.26,4.49-1.32,9.03Z"/>
        <path class="cls-18" d="M454.3,311.58c-.94,4.54-5.32,7.85-7.49,7.4-2.18-.45-1.33-4.49-.39-9.03.94-4.54,4.39-7.85,6.57-7.4,2.18.45,2.26,4.49,1.32,9.03Z"/>
        <path class="cls-14" d="M419.82,360.54h16.63c9.87,0,17.87-8,17.87-17.87l-26.18-7.39-26.18,7.39c0,9.87,8,17.87,17.87,17.87Z"/>
        <path class="cls-18" d="M441.57,339.12s-13.44-3.84-13.44-3.84l-13.59,3.84c0,7.14,5.79,12.92,12.92,12.92h1.18c7.14,0,12.92-5.79,12.92-12.92Z"/>
        <path class="cls-18" d="M428.13,348.73c5.59,0,10.12-4.53,10.12-10.12v-36.67h-20.25v36.67c0,5.59,4.53,10.12,10.12,10.12Z"/>
        <rect class="cls-12" x="418.01" y="304.71" width="20.25" height="36.14" rx="9.42" ry="9.42"/>
        <path class="cls-18" d="M419.64,333.43c5.15,3.38,11.82,3.38,16.98,0,8-5.25,12.83-14.18,12.83-23.75v-21.27c0-11.77-9.54-21.31-21.31-21.31s-21.31,9.54-21.31,21.31v21.27c0,9.57,4.82,18.5,12.83,23.75Z"/>
        <path class="cls-17" d="M428.13,267.1c-11.77,0-21.31,9.54-21.31,21.31v15.06l4.96-15.52h32.9l4.77,15.52v-15.06c0-11.77-9.54-21.31-21.31-21.31Z"/>
        <g>
          <path class="cls-4" d="M416.56,311.08c1.78-.3,3.45-.1,4.69.46.92-1.64.41-3.85-1.28-5.15-1.84-1.41-4.36-1.21-5.63.44-1.07,1.39-.92,3.37.25,4.81.61-.24,1.27-.44,1.98-.56Z"/>
          <path class="cls-4" d="M439.7,311.08c-1.78-.3-3.45-.1-4.69.46-.92-1.64-.41-3.85,1.28-5.15,1.84-1.41,4.36-1.21,5.63.44,1.07,1.39.92,3.37-.25,4.81-.61-.24-1.27-.44-1.98-.56Z"/>
          <path class="cls-17" d="M422.54,304.57c-.25,0-.49-.06-.73-.17-3.53-1.78-6.96-1.78-10.49,0-.8.4-1.77.08-2.18-.72-.4-.8-.08-1.77.72-2.18,4.45-2.24,8.96-2.24,13.41,0,.8.4,1.12,1.38.72,2.18-.28.57-.86.89-1.45.89Z"/>
          <path class="cls-12" d="M428.13,325.02c-2.17,0-4.34-.54-6.49-1.63-.57-.29-.8-.98-.51-1.56.29-.57.98-.8,1.56-.51,3.67,1.85,7.23,1.85,10.9,0,.57-.29,1.27-.06,1.56.51.29.57.06,1.27-.51,1.56-2.15,1.09-4.32,1.63-6.49,1.63Z"/>
          <path class="cls-17" d="M445.65,304.57c-.25,0-.49-.06-.73-.17-3.53-1.78-6.96-1.78-10.49,0-.8.4-1.77.08-2.18-.72-.4-.8-.08-1.77.72-2.18,4.45-2.24,8.96-2.24,13.41,0,.8.4,1.12,1.38.72,2.18-.28.57-.86.89-1.45.89Z"/>
        </g>
        <path class="cls-17" d="M433.66,325.65c-3.79.83-7.68.8-11.48-.07-7.46-1.71-12.94-8.07-13.87-15.66l-1.5-12.24v12.93c0,9.57,4.82,18.5,12.83,23.75,5.15,3.38,11.82,3.38,16.98,0,8-5.25,12.83-14.18,12.83-23.75v-12.93l-1.74,12.56c-1.05,7.55-6.6,13.79-14.04,15.41Z"/>
        <path class="cls-17" d="M418.01,324.73c0,4.57,4.53,8.28,10.12,8.28s10.12-3.71,10.12-8.28-4.53-5.5-10.12-5.5-10.12.93-10.12,5.5Z"/>
        <path class="cls-18" d="M428.12,327.31c-2.41,0-4.79-1.11-7.08-3.3-.47-.45-.62-1.14-.38-1.75.24-.6.83-1,1.48-1h11.95c.65,0,1.24.4,1.48,1,.24.6.09,1.3-.38,1.75-2.29,2.19-4.67,3.3-7.08,3.3Z"/>
        <path class="cls-12" d="M428.14,325.38c-2.17,0-4.34-.54-6.49-1.63-.57-.29-.8-.99-.51-1.56.29-.57.98-.8,1.56-.51,3.67,1.85,7.23,1.85,10.9,0,.57-.29,1.27-.06,1.56.51.29.57.06,1.27-.51,1.56-2.15,1.09-4.32,1.63-6.49,1.63Z"/>
        <g>
          <path class="cls-5" d="M424.29,265.82h12.59c4.51,0,8.38,3.23,9.19,7.67l.89,4.92-2.29,9.53h-33.01l-2.27-9.7c1.32-7.2,7.59-12.43,14.91-12.43Z"/>
          <path class="cls-5" d="M442.6,266.25c-.26-.04-.67.36-.29.48,4.03,1.21,4.18,6.07,4.12,9.52-.07,3.87-1.18,7.78-4.28,10.29-.92.74.48,1.38,1.17.83,3.73-2.99,4.77-7.5,4.72-12.1-.04-3.86-1.03-8.3-5.43-9.01Z"/>
          <path class="cls-5" d="M447.82,268.02c-.18-.13-.69.07-.49.31,2.21,2.69,1.58,6.84.67,9.95-1.03,3.53-3.22,5.93-5.63,8.55-.65.7.69.86,1.13.58,3-1.93,5.22-5.69,6.08-9.1.82-3.25,1.34-8.04-1.76-10.3Z"/>
          <path class="cls-17" d="M440.85,266.71c1.9,1.27,2.44,8.65-2.66,11.06-1.39,0-2.02-.7-2.56-.99-3-1.63-6.23-2.24-9.6-1.67-2.37.4-4.28,1.28-6.5-.03-2.33-1.38-3.54-3.9-3.56-6.55,0-.07,0-.14.01-.22-2.95,1.94-5.2,4.89-6.23,8.42,2.63,3.59,7.24,5.76,11.99,5.46,2.08-.13,3.98-1.09,6.02-1.32,2-.23,4.2,1.1,6.16,1.47,3.98.75,6.87-2.07,8.95-5.05,1.21-1.74,2.08-3.83,2.51-6.01-.92-2.03-2.54-3.65-4.53-4.59Z"/>
        </g>
      </g>
      <g>
        <path class="cls-18" d="M415.71,425.51c.94,4.54,5.32,7.85,7.49,7.4,2.18-.45,1.33-4.49.39-9.03-.94-4.54-4.39-7.85-6.57-7.4-2.18.45-2.26,4.49-1.32,9.03Z"/>
        <path class="cls-18" d="M467.83,425.51c-.94,4.54-5.32,7.85-7.49,7.4-2.18-.45-1.33-4.49-.39-9.03.94-4.54,4.39-7.85,6.57-7.4,2.18.45,2.26,4.49,1.32,9.03Z"/>
        <path class="cls-8" d="M433.35,474.47h16.63c9.87,0,17.87-8,17.87-17.87l-26.18-7.39-26.18,7.39c0,9.87,8,17.87,17.87,17.87Z"/>
        <path class="cls-19" d="M455.1,453.05s-13.44-3.84-13.44-3.84l-13.59,3.84c0,7.14,5.79,12.92,12.92,12.92h1.18c7.14,0,12.92-5.79,12.92-12.92Z"/>
        <path class="cls-18" d="M431.54,415.86h20.25v37.38c0,5.2-4.22,9.42-9.42,9.42h-1.4c-5.2,0-9.42-4.22-9.42-9.42v-37.38h0Z"/>
        <rect class="cls-12" x="431.54" y="418.64" width="20.25" height="36.14" rx="9.42" ry="9.42"/>
        <path class="cls-18" d="M433.17,447.36c5.15,3.38,11.82,3.38,16.98,0,8-5.25,12.83-14.18,12.83-23.75v-21.27c0-11.77-9.54-21.31-21.31-21.31s-21.31,9.54-21.31,21.31v21.27c0,9.57,4.82,18.5,12.83,23.75Z"/>
        <path class="cls-13" d="M461.89,430.17c0,.22-.01.41.04.63,1.1-1.24,7.74-12.01,5.21-32.94-1.7-14.06-14.3-21.47-27.75-19.72-9.5,1.24-11.96,5.9-12.62,7.96-3.19-1.02-6.65,2.49-8.06,4.19-4.23,5.11-7.65,20.7,1.54,35.68,1.78-14.83,5.1-13.9,6.81-26.24,1.83,4.66,7.62,10.23,12.78,13.6.97.63,2.03-.66,1.22-1.48-1.53-1.57-3.37-3.38-4.23-5.71,6.6,4.87,15.26,6.83,23.31,5.3,1,6.26,1.73,12.33,1.73,18.74Z"/>
        <g>
          <path class="cls-5" d="M465.09,393.52c.1-.88.15-1.73.16-2.54-1.51-3.33-3.77-6.07-6.54-8.17-.04.46-.1.96-.17,1.59-.11.94-.29,2.06-.55,3.28-.29,1.22-.68,2.53-1.24,3.86-.15.32-.3.66-.45.99-.18.32-.33.66-.52.98-.37.65-.77,1.31-1.24,1.93-.47.62-.95,1.25-1.52,1.83-.27.3-.58.57-.86.87-.31.27-.6.56-.94.82-1.28,1.08-2.76,2.01-4.35,2.81-1.6.78-3.33,1.38-5.1,1.8-1.78.4-3.6.62-5.38.61-1.78-.02-3.52-.22-5.14-.63-.41-.09-.8-.22-1.2-.33-.38-.15-.78-.25-1.15-.41-.06-.02-.12-.05-.18-.07,2.6,3.88,7.07,7.93,11.15,10.59.97.63,2.03-.66,1.22-1.48-1.53-1.57-3.37-3.38-4.23-5.71,4.56,3.36,10.1,5.34,15.74,5.73.55-.31,1.08-.65,1.6-.99.58-.41,1.15-.82,1.69-1.26.55-.43,1.07-.9,1.59-1.36.5-.48.99-.96,1.45-1.48.92-1.01,1.77-2.07,2.47-3.18.72-1.1,1.34-2.24,1.85-3.38,1.01-2.29,1.61-4.58,1.85-6.68Z"/>
          <path class="cls-5" d="M426.72,401.82c-1.37-.74-2.62-1.61-3.69-2.56-1.08-.95-2.01-1.96-2.79-2.94-.77-.98-1.42-1.91-1.92-2.72-.34-.54-.62-1.01-.85-1.41-1.25,2.27-2.3,5.49-2.76,9.3.45,1.02,1,2.09,1.69,3.17,1.13,1.79,2.67,3.59,4.57,5.21.84.72,1.77,1.39,2.76,2.01,1.11-2.76,2.21-5.31,3.04-10.04,0,0-.02,0-.03-.01Z"/>
        </g>
        <g>
          <path class="cls-4" d="M430.09,425.01c1.78-.3,3.45-.1,4.69.46.92-1.64.41-3.85-1.28-5.15-1.84-1.41-4.36-1.21-5.63.44-1.07,1.39-.92,3.37.25,4.81.61-.24,1.27-.44,1.98-.56Z"/>
          <path class="cls-4" d="M453.23,425.01c-1.78-.3-3.45-.1-4.69.46-.92-1.64-.41-3.85,1.28-5.15,1.84-1.41,4.36-1.21,5.63.44,1.07,1.39.92,3.37-.25,4.81-.61-.24-1.27-.44-1.98-.56Z"/>
          <path class="cls-17" d="M436.08,418.5c-.25,0-.49-.06-.73-.17-3.53-1.78-6.96-1.78-10.49,0-.8.4-1.77.08-2.18-.72-.4-.8-.08-1.77.72-2.18,4.45-2.24,8.96-2.24,13.41,0,.8.4,1.12,1.38.72,2.18-.29.57-.86.89-1.45.89Z"/>
          <path class="cls-12" d="M441.66,438.95c-2.17,0-4.34-.54-6.49-1.63-.57-.29-.8-.98-.51-1.56.29-.57.98-.8,1.56-.51,3.67,1.85,7.23,1.85,10.9,0,.57-.29,1.27-.06,1.56.51.29.57.06,1.27-.51,1.56-2.15,1.09-4.32,1.63-6.49,1.63Z"/>
          <path class="cls-17" d="M459.18,418.5c-.25,0-.49-.06-.73-.17-3.53-1.78-6.96-1.78-10.49,0-.8.4-1.78.08-2.18-.72-.4-.8-.08-1.77.72-2.18,4.45-2.24,8.96-2.24,13.41,0,.8.4,1.12,1.38.72,2.18-.29.57-.86.89-1.45.89Z"/>
        </g>
      </g>
    </g>
  </g>
</svg>