<?xml version="1.0" encoding="UTF-8"?>
<svg id="_レイヤー_2" data-name="レイヤー 2" xmlns="http://www.w3.org/2000/svg" viewBox="0 0 282.62 151.03">
  <defs>
    <style>
      .cls-1 {
        fill: #e58707;
      }

      .cls-2 {
        isolation: isolate;
      }
    </style>
  </defs>
  <g id="_レイヤー_1-2" data-name="レイヤー 1">
    <g class="cls-2">
      <g>
        <path class="cls-1" d="M147.82,122.65c0-6.86,3.63-10.81,8.65-10.81s8.69,3.96,8.69,10.81-3.68,10.95-8.69,10.95-8.65-4.09-8.65-10.95ZM159.46,122.65c0-4.79-1.38-6.3-2.99-6.3s-2.99,1.52-2.99,6.3,1.38,6.44,2.99,6.44,2.99-1.66,2.99-6.44ZM176.11,111.84h4.69l-18.49,35.52h-4.65l18.45-35.52ZM173.31,136.4c0-6.86,3.68-10.86,8.65-10.86s8.65,4,8.65,10.86-3.68,10.95-8.65,10.95-8.65-4.09-8.65-10.95ZM184.9,136.4c0-4.83-1.33-6.3-2.94-6.3s-3.04,1.47-3.04,6.3,1.43,6.39,3.04,6.39,2.94-1.61,2.94-6.39Z"/>
        <path class="cls-1" d="M195.07,119.89c-.32-2.39-1.47-6.16-2.58-8.92l5.47-1.84c1.24,2.71,2.39,6.26,2.9,8.65l-5.8,2.12ZM214.99,143.53c0,2.9-.46,4.65-2.3,5.66-1.79,1.01-4.05,1.1-7.18,1.1-.18-1.79-.97-4.55-1.75-6.21,1.47.09,3.41.09,4,.09.6-.05.78-.18.78-.78v-2.25h-7.68v9.25h-6.35v-30.46h6.81v-12.61h6.62v12.61h7.04v23.6ZM200.86,126.14v1.89h7.68v-1.89h-7.68ZM208.55,135.58v-1.98h-7.68v1.98h7.68ZM208.27,118.18c.97-2.58,1.98-6.49,2.44-9.43l6.62,1.38c-1.2,3.5-2.44,7.04-3.5,9.38l-5.57-1.33ZM224.23,139.12h-6.49v-26.08h6.49v26.08ZM234.45,108.25v34.87c0,3.73-.69,5.52-2.81,6.62-2.16,1.06-5.47,1.29-9.71,1.29-.28-1.93-1.33-5.06-2.3-6.95,2.9.14,5.93.14,6.95.14.87,0,1.24-.28,1.24-1.15v-34.83h6.62Z"/>
        <path class="cls-1" d="M245.3,129.5c-1.47-1.47-4.78-3.45-7.36-4.6l3.68-4.92c2.58.97,5.93,2.67,7.64,4.14l-3.96,5.38ZM249.12,134.88c-1.52,5.15-3.27,10.44-5.11,15.23l-6.07-3.31c1.7-3.73,4.05-9.66,5.8-15.32l5.38,3.4ZM247.56,117.22c-1.52-1.52-4.83-3.54-7.45-4.78l3.73-4.88c2.58,1.06,6.03,2.81,7.73,4.32l-4,5.34ZM281.37,123.11c-1.43,6.07-3.4,11.46-6.07,16.06.51,2.39,1.06,3.77,1.56,3.77.55.05.92-2.12,1.1-6.21,1.01,1.29,3.68,2.99,4.65,3.5-1.24,8.92-3.91,10.67-5.84,10.67-2.48-.05-4.33-1.98-5.8-5.57-1.75,2.07-3.73,3.91-5.89,5.47-.87-1.1-3.13-3.27-4.37-4.28,2.16-1.33,4.09-2.94,5.8-4.83h-5.47v2.25h-4.23v-15.55h10.44v12.47c.64-.78,1.29-1.56,1.84-2.44-.92-4.97-1.56-11.36-1.93-18.77h-11.13v7.36c0,6.99-.6,17.44-4.23,23.92-1.06-1.01-3.63-2.76-5.01-3.36,3.22-5.84,3.45-14.4,3.45-20.56v-13.2h16.7c-.05-1.89-.09-3.86-.14-5.89h6.07l.05,2.44,3.08-2.9c2.02,1.01,4.55,2.71,5.8,4.05l-2.35,2.3h1.7v5.84h-7.96c.18,3.27.41,6.35.69,9.11.69-2.12,1.29-4.37,1.79-6.72l5.71,1.06ZM266.47,126.42h-9.16v-4.79h9.16v4.79ZM262.92,133.14h-1.89v3.77h1.89v-3.77ZM272.95,113.81h3.86c-1.15-.97-2.58-2.02-3.91-2.85l.05,2.85Z"/>
      </g>
      <g>
        <path class="cls-1" d="M59.96,70.89h-27.22l-4.35,14.64c.65-.08,1.27-.13,1.86-.17.59-.04,1.13-.06,1.63-.06,8.58,0,15.61,2.9,21.1,8.69,5.53,5.76,8.29,13.13,8.29,22.13s-3.13,16.96-9.38,22.99c-6.25,6.02-14.12,9.04-23.62,9.04-11.7,0-20.93-5.49-27.67-16.47l10.06-8.52c2.78,4.73,5.58,8.06,8.41,10.01,2.82,1.91,6.27,2.86,10.35,2.86,5.34,0,9.82-1.87,13.44-5.6,3.62-3.85,5.43-8.52,5.43-14.01s-1.79-10.25-5.38-13.84c-3.58-3.7-8.06-5.55-13.44-5.55-5.99,0-11.15,2.61-15.5,7.83h-4.4l13.9-46.43h36.48v12.46Z"/>
        <path class="cls-1" d="M132.23,70.89h-27.22l-4.35,14.64c.65-.08,1.27-.13,1.86-.17.59-.04,1.13-.06,1.63-.06,8.58,0,15.61,2.9,21.1,8.69,5.53,5.76,8.29,13.13,8.29,22.13s-3.13,16.96-9.38,22.99c-6.25,6.02-14.12,9.04-23.62,9.04-11.7,0-20.93-5.49-27.67-16.47l10.06-8.52c2.78,4.73,5.58,8.06,8.41,10.01,2.82,1.91,6.27,2.86,10.35,2.86,5.34,0,9.82-1.87,13.44-5.6,3.62-3.85,5.43-8.52,5.43-14.01s-1.79-10.25-5.38-13.84c-3.58-3.7-8.06-5.55-13.44-5.55-5.99,0-11.15,2.61-15.5,7.83h-4.4l13.9-46.43h36.48v12.46Z"/>
      </g>
    </g>
    <g class="cls-2">
      <path class="cls-1" d="M39.19,28.23h-4.39v7.28h-6.19v-1.71h-6.11v.5c0,2.76-.63,3.93-2.43,4.77-1.8.75-4.1.84-7.7.84-.29-1.38-1.21-3.47-1.97-4.68,1.71.08,4.18.08,4.85.08.79-.04,1.04-.29,1.04-1v-.5H4.06v-4.31h12.25v-1.25H0v-4.56h16.31v-1.13H4.35v-4.01h11.96v-1.25H5.27v-8.87h11.04v-1.25H1.05V2.43h15.27V.04h6.19v2.38h15.64v4.73h-15.64v1.25h11.54v8.87h-11.54v1.25h12.3v5.14h4.39v4.56ZM16.31,13.55v-1.42h-5.23v1.42h5.23ZM22.5,12.13v1.42h5.31v-1.42h-5.31ZM22.5,23.67h6.11v-1.13h-6.11v1.13ZM28.61,28.23h-6.11v1.25h6.11v-1.25Z"/>
      <path class="cls-1" d="M78.09,9.16c-.96,2.09-2.17,3.89-3.6,5.44,2.05.84,4.35,1.51,6.86,1.92-1.3,1.21-3.01,3.6-3.81,5.14-3.01-.75-5.69-1.84-8.03-3.22-1,.54-2.01,1.05-3.09,1.51h4.68c-.08,1.21-.21,2.38-.33,3.51h9.08s-.08,1.46-.17,2.22c-.63,6.9-1.34,10.21-2.55,11.54-1,1.13-2.01,1.51-3.3,1.71-1.09.17-2.8.21-4.73.17-.08-1.71-.71-4.06-1.63-5.56,1.34.13,2.59.17,3.26.17.59,0,.92-.08,1.34-.5.46-.46.92-1.84,1.3-4.77h-3.6c-1.46,4.81-4.43,8.7-11.04,11.38-.67-1.46-2.22-3.6-3.47-4.73,4.56-1.63,6.9-3.93,8.16-6.65h-4.14v-4.93c-.33,1.34-.67,2.55-1.05,3.6l-4.01-1.88c.33-1.42.67-3.3.92-5.23h-1.3v13.38c0,2.63-.38,4.22-2.05,5.19-1.63.92-3.68,1.04-6.32,1.04-.17-1.67-.96-4.18-1.71-5.81,1.42.08,3.14.08,3.68.08.5-.04.67-.13.67-.63v-6.57c-1.3,2.55-2.89,4.85-4.68,6.4-.5-1.76-1.8-4.27-2.72-5.94,2.17-1.76,4.1-4.39,5.48-7.15h-4.6v-5.27h8.41c-2.22-1.17-4.89-2.34-7.07-3.18l3.81-3.89c.88.29,1.84.63,2.84,1,.59-.54,1.21-1.13,1.76-1.76h-9.08V1.84h13.22l.92-.21,3.85,2.38c-1.34,2.3-3.51,4.77-5.77,6.78,1.09.54,2.05,1.04,2.8,1.51l-2.3,2.43h1.42l.79-.25,3.64,1.17-.04.29c1.38-.33,2.63-.75,3.81-1.3-.75-.75-1.46-1.59-2.13-2.47-.42.42-.84.79-1.21,1.13-1.17-.96-3.55-2.59-4.94-3.35,3.26-2.34,6.36-6.15,8.03-9.95l5.65,1.59c-.42.88-.88,1.76-1.38,2.59h11.54v4.98h-2.05ZM64.74,23.46c.12-.96.21-1.97.29-2.97-1.21.42-2.47.84-3.76,1.17-.25-.5-.71-1.17-1.17-1.84-.25,1.25-.54,2.47-.84,3.64h5.48ZM66.63,9.16c.75.92,1.63,1.76,2.68,2.51.75-.75,1.42-1.59,1.97-2.51h-4.64Z"/>
      <path class="cls-1" d="M100.46,13.43c-.75,4.31-1.84,8.2-3.26,11.71,1.71,2.34,3.22,4.6,4.14,6.57l-4.85,4.14c-.58-1.38-1.42-2.93-2.47-4.6-2.13,3.3-4.81,6.06-8.03,8.24-.75-1.21-2.84-3.68-4.06-4.77,3.64-2.09,6.4-5.06,8.45-8.78-2.13-2.89-4.47-5.77-6.69-8.24l4.27-3.47c1.59,1.71,3.3,3.64,4.98,5.6.71-2.26,1.25-4.68,1.63-7.24l5.9.84ZM122.08,14.76h-4.18v17.65c0,3.26-.54,4.98-2.3,6.02-1.8,1.05-4.48,1.3-7.95,1.3-.17-1.8-1.04-4.73-1.88-6.57,2.17.12,4.39.12,5.14.12.71,0,.96-.21.96-.92V14.76h-9.95v-2.93h-18.74v-5.6h6.94V.08h5.81v6.15h7.4v2.72h8.53V.04h6.02v8.91h4.18v5.81ZM105.82,17.48c1.92,2.68,3.93,6.19,4.6,8.7l-5.23,2.68c-.59-2.43-2.38-6.19-4.22-8.99l4.85-2.38Z"/>
      <path class="cls-1" d="M133.38,15.06c0,6.99-.71,17.9-4.6,24.59-1.13-1-3.85-2.8-5.27-3.43,3.51-6.02,3.76-15.01,3.76-21.16V4.64h14.72V.04h6.36v4.6h14.72v5.77h-16.56c3.14,1.55,6.94,3.68,8.99,5.4l-4.39,4.52c-2.05-1.97-6.61-4.81-10.08-6.57l3.39-3.35h-11.04v4.64ZM132.16,33.96c1.59-3.22,2.34-7.91,2.68-12.71l5.48,1.17c-.38,4.98-1,10.5-2.76,13.93l-5.4-2.38ZM158.26,36.26c-.21-1.63-.71-3.68-1.42-5.86-.54,6.65-2.05,8.62-6.02,8.62h-3.81c-4.89,0-6.06-1.8-6.06-7.11v-13.68h6.02v13.63c0,1.59.17,1.76,1.09,1.76h2.17c1,0,1.21-.96,1.38-6.48,1.13.92,3.39,1.84,4.94,2.3-.84-2.47-1.92-5.1-3.05-7.36l5.44-2.09c2.34,4.39,4.68,9.95,5.31,13.84l-5.98,2.43Z"/>
      <path class="cls-1" d="M180.43,31.75h-8.2v3.89h-5.6V2.51h13.8v29.24ZM172.23,7.91v6.32h2.55v-6.32h-2.55ZM174.78,26.35v-6.86h-2.55v6.86h2.55ZM201.17,17.48v2.89h3.56v5.27h-3.56v7.95c0,2.76-.5,4.27-2.34,5.14s-4.18,1-7.19,1c-.21-1.67-1.09-4.1-1.88-5.69,1.76.08,4.02.08,4.64.08s.84-.13.84-.67v-7.82h-14.05v-5.27h14.05v-2.89h-14.05v-5.31h8.87v-2.76h-7.7v-5.23h7.7V0h5.98v4.18h7.99v5.23h-7.99v2.76h8.91v5.31h-3.76ZM186.87,35.3c-.71-1.92-2.72-4.81-4.52-6.9l4.85-2.76c1.84,1.97,4.01,4.64,4.89,6.65l-5.23,3.01Z"/>
      <path class="cls-1" d="M214.77,17.19v22.59h-6.02V1.55h16.65v15.64h-10.62ZM214.77,5.86v1.42h4.93v-1.42h-4.93ZM219.7,12.92v-1.63h-4.93v1.63h4.93ZM244.75,32.83c0,3.09-.58,4.81-2.43,5.81-1.88,1-4.39,1.13-8.07,1.13-.13-1.05-.5-2.51-.96-3.89h-9.45v2.13h-5.48v-18.65h16.48v14.35h2.76c.75,0,1-.25,1-.96v-15.43h-10.92V1.55h17.06v31.28ZM223.84,23.76v1.76h5.31v-1.76h-5.31ZM229.15,31.49v-1.76h-5.31v1.76h5.31ZM233.46,5.86v1.42h5.14v-1.42h-5.14ZM238.61,13.05v-1.76h-5.14v1.76h5.14Z"/>
    </g>
  </g>
</svg>