<?xml version="1.0" encoding="UTF-8"?>
<svg id="_レイヤー_2" data-name="レイヤー 2" xmlns="http://www.w3.org/2000/svg" viewBox="0 0 289.3 151.33">
  <defs>
    <style>
      .cls-1 {
        isolation: isolate;
      }

      .cls-2 {
        fill: #0079b9;
      }
    </style>
  </defs>
  <g id="_レイヤー_1-2" data-name="レイヤー 1">
    <g>
      <path class="cls-2" d="M200.79,116.14v5.61h-42.28v-5.61h42.28ZM164.95,136.15h29.49v15h-6.95v-1.24h-15.96v1.38h-6.58v-15.14ZM193.61,128.24h-27.79v-5.2h27.79v5.2ZM165.83,129.57h27.79v5.2h-27.79v-5.2ZM192.69,114.85h-25.9v-5.2h25.9v5.2ZM171.53,141.67v2.81h15.96v-2.81h-15.96Z"/>
      <path class="cls-2" d="M220.71,120.65h-17.44v-5.2h17.44v5.2ZM219.42,149.67h-8.51v1.66h-5.57v-15.96h14.08v14.31ZM219.01,127.18h-13.48v-4.97h13.48v4.97ZM205.53,128.74h13.48v4.97h-13.48v-4.97ZM219.1,113.93h-13.29v-4.97h13.29v4.97ZM210.91,140.57v3.91h2.85v-3.91h-2.85ZM247.16,125.98v5.8h-26.96v-5.8h5.43c.23-1.1.46-2.3.64-3.54h-3.5v-5.61h4.37l.32-2.44h-5.43v-5.66h23.42v5.66h-11.5l-.37,2.44h9.71v9.16h3.86ZM223.52,133.62h20.66v17.53h-6.53v-1.38h-7.87v1.56h-6.26v-17.71ZM229.77,139.55v4.28h7.87v-4.28h-7.87ZM232.72,122.44c-.23,1.24-.41,2.44-.64,3.54h4.83v-3.54h-4.19Z"/>
    </g>
    <g>
      <path class="cls-2" d="M28.58,134.44h32.88v12.52H2.17l30.65-37.11c3.01-3.7,5.54-6.9,7.58-9.61,2.04-2.71,3.59-4.97,4.66-6.8,2.17-3.58,3.26-6.8,3.26-9.66,0-4.12-1.45-7.57-4.35-10.35-2.9-2.78-6.48-4.17-10.75-4.17-8.92,0-14.03,5.28-15.33,15.84H4.63c2.13-18.6,11.53-27.9,28.19-27.9,8.04,0,14.79,2.55,20.24,7.66,5.49,5.11,8.23,11.44,8.23,18.98,0,4.8-1.28,9.51-3.83,14.12-1.3,2.4-3.19,5.25-5.69,8.55-2.5,3.3-5.65,7.2-9.46,11.69l-13.72,16.24Z"/>
      <path class="cls-2" d="M129.28,122.32h9.38v12.12h-9.38v12.52h-13.32v-12.52h-43.34l56.67-82.34v70.22ZM115.96,122.32v-29.56l-20.36,29.56h20.36Z"/>
    </g>
    <g class="cls-1">
      <path class="cls-2" d="M18.53,13.68c-.75,4.31-1.84,8.2-3.26,11.71,1.71,2.34,3.22,4.6,4.14,6.57l-4.85,4.14c-.58-1.38-1.42-2.93-2.47-4.6-2.13,3.3-4.81,6.06-8.03,8.24-.75-1.21-2.84-3.68-4.06-4.77,3.64-2.09,6.4-5.06,8.45-8.78-2.13-2.89-4.47-5.77-6.69-8.24l4.27-3.47c1.59,1.71,3.3,3.64,4.98,5.6.71-2.26,1.25-4.68,1.63-7.24l5.9.84ZM40.15,15.01h-4.18v17.65c0,3.26-.54,4.98-2.3,6.02-1.8,1.05-4.48,1.3-7.95,1.3-.17-1.8-1.04-4.73-1.88-6.57,2.17.12,4.39.12,5.14.12.71,0,.96-.21.96-.92V15.01h-9.95v-2.93H1.25v-5.6h6.94V.33h5.81v6.15h7.4v2.72h8.53V.29h6.02v8.91h4.18v5.81ZM23.88,17.73c1.92,2.68,3.93,6.19,4.6,8.7l-5.23,2.68c-.59-2.43-2.38-6.19-4.22-8.99l4.85-2.38Z"/>
      <path class="cls-2" d="M51.44,15.31c0,6.99-.71,17.9-4.6,24.59-1.13-1-3.85-2.8-5.27-3.43,3.51-6.02,3.76-15.01,3.76-21.16V4.89h14.72V.29h6.36v4.6h14.72v5.77h-16.56c3.14,1.55,6.94,3.68,8.99,5.4l-4.39,4.52c-2.05-1.97-6.61-4.81-10.08-6.57l3.39-3.35h-11.04v4.64ZM50.23,34.21c1.59-3.22,2.34-7.91,2.68-12.71l5.48,1.17c-.38,4.98-1,10.5-2.76,13.93l-5.4-2.38ZM76.33,36.51c-.21-1.63-.71-3.68-1.42-5.86-.54,6.65-2.05,8.62-6.02,8.62h-3.81c-4.89,0-6.06-1.8-6.06-7.11v-13.68h6.02v13.63c0,1.59.17,1.76,1.09,1.76h2.17c1,0,1.21-.96,1.38-6.48,1.13.92,3.39,1.84,4.94,2.3-.84-2.47-1.92-5.1-3.05-7.36l5.44-2.09c2.34,4.39,4.68,9.95,5.31,13.84l-5.98,2.43Z"/>
      <path class="cls-2" d="M122.42,9.16h-4.68v23.5c0,3.43-.79,5.19-3.01,6.15-2.3,1.04-5.44,1.17-9.83,1.17-.33-1.8-1.59-4.81-2.55-6.44,2.8.21,6.61.17,7.61.17s1.38-.29,1.38-1.17V9.16h-27.14V3.01h38.23v6.15ZM93.73,29.65v3.14h-5.9V13.01h18.24v16.65h-12.34ZM93.73,18.78v5.1h6.32v-5.1h-6.32Z"/>
      <path class="cls-2" d="M141.03,15.18c-.12-.63-.33-1.34-.59-2.09-5.44.38-10.92.75-15.18,1.05l-.46-5.73c1-.04,2.09-.08,3.26-.13,1.09-2.59,2.09-5.73,2.68-8.28l6.36,1.3c-.88,2.3-1.84,4.64-2.8,6.73l3.93-.17c-.5-1-1-2.01-1.55-2.93l5.19-1.92c1.92,3.05,3.97,7.03,4.73,9.83V.5h6.06v5.31c2.34-1,4.6-2.13,6.32-3.18l3.81,4.39c-3.1,1.51-6.73,2.8-10.12,3.81v1.5c0,1.55.21,1.71,1.59,1.71h3.43c1.21,0,1.46-.58,1.63-4.01,1.21.92,3.72,1.88,5.35,2.22-.63,5.6-2.22,7.19-6.4,7.19h-4.94c-5.23,0-6.61-1.59-6.73-6.44l-5.56,2.17ZM143.67,34.13c0,2.47-.46,3.93-2.05,4.81-1.59.92-3.56,1-6.02,1-.29-1.59-1.17-3.93-1.92-5.35,1.21.08,2.8.08,3.3.04.5,0,.67-.13.67-.63v-1.63h-4.77v7.61h-5.6V15.52h16.39v18.61ZM132.88,20.45v1.42h4.77v-1.42h-4.77ZM137.64,27.94v-1.63h-4.77v1.63h4.77ZM157.84,34.5c1.3,0,1.55-.75,1.76-4.77,1.25.92,3.68,1.84,5.31,2.22-.63,6.06-2.17,7.82-6.48,7.82h-5.1c-5.39,0-6.73-1.71-6.73-6.99v-12.67h6.02v4.98c2.47-1.09,4.81-2.38,6.57-3.55l3.97,4.43c-3.18,1.67-6.98,3.14-10.54,4.31v2.47c0,1.59.25,1.76,1.67,1.76h3.55Z"/>
      <path class="cls-2" d="M205.36,8.03v5.1h-38.44v-5.1h38.44ZM172.77,26.22h26.81v13.63h-6.32v-1.13h-14.51v1.25h-5.98v-13.76ZM198.83,19.03h-25.26v-4.73h25.26v4.73ZM173.57,20.24h25.26v4.73h-25.26v-4.73ZM197.99,6.86h-23.55V2.13h23.55v4.73ZM178.75,31.24v2.55h14.51v-2.55h-14.51Z"/>
      <path class="cls-2" d="M223.46,12.13h-15.85v-4.73h15.85v4.73ZM222.29,38.52h-7.74v1.51h-5.06v-14.51h12.8v13.01ZM221.92,18.07h-12.25v-4.52h12.25v4.52ZM209.66,19.49h12.25v4.52h-12.25v-4.52ZM222,6.02h-12.09V1.51h12.09v4.52ZM214.56,30.24v3.55h2.59v-3.55h-2.59ZM247.51,16.98v5.27h-24.51v-5.27h4.94c.21-1,.42-2.09.59-3.22h-3.18v-5.1h3.97l.29-2.22h-4.93V1.3h21.29v5.14h-10.46l-.33,2.22h8.83v8.32h3.51ZM226.02,23.92h18.78v15.93h-5.94v-1.25h-7.15v1.42h-5.69v-16.1ZM231.7,29.32v3.89h7.15v-3.89h-7.15ZM234.38,13.76c-.21,1.13-.38,2.22-.59,3.22h4.39v-3.22h-3.81Z"/>
      <path class="cls-2" d="M286.45,13.38c-.79,5.9-2.09,10.87-4.18,15.01,1.84,2.64,4.14,4.77,7.03,6.23-1.38,1.21-3.3,3.64-4.22,5.31-2.64-1.59-4.81-3.6-6.57-5.94-2.22,2.47-4.98,4.52-8.37,6.19-.33-.79-1.05-2.05-1.8-3.22l-2.38,2.43c-1.05-.96-2.47-2.01-4.06-3.05-2.51,1.76-5.86,2.89-10.33,3.76-.33-1.71-1.38-3.81-2.38-5.02,3.14-.33,5.56-.84,7.49-1.76-.46-.21-.88-.42-1.34-.63l-.33.58-5.31-1.55c.88-1.42,1.92-3.18,2.93-5.06h-3.64v-4.85h6.15c.46-.92.88-1.8,1.25-2.63l.79.17v-2.97c-1.76,1.63-3.76,3.09-5.6,4.14-.67-1.3-1.97-3.3-3.05-4.39,2.34-.92,4.89-2.59,6.86-4.43h-5.77v-4.73h2.63c-.42-1.34-1.17-3.05-1.92-4.39l4.31-1.8c1.04,1.55,2.09,3.64,2.43,5.1l-2.51,1.09h2.63V.25h5.56v5.48c.88-1.46,1.92-3.6,2.51-5.1l5.1,1.97c-1.25,1.59-2.43,3.22-3.39,4.39h3.39v4.73h-5.69c1.84,1,4.06,2.26,4.81,2.76l-3.18,4.14c-.84-.84-2.17-2.01-3.56-3.18v4.39h-3.35l2.59.54-.71,1.46h8.57c-1-.96-2.22-2.01-3.01-2.59,3.51-4.22,5.48-11.46,6.36-18.99l6.15.88c-.33,2.26-.71,4.47-1.21,6.65h10.58v5.6h-2.26ZM257.89,28.23c.96.38,1.92.79,2.84,1.21.42-.79.79-1.71,1.09-2.76h-3.09l-.84,1.55ZM262.74,6.98h2.63l-2.63-1.17v1.17ZM267.51,26.68c-.42,2.09-1.05,3.85-1.84,5.35,1,.59,1.97,1.21,2.8,1.76,2.8-1.42,4.98-3.3,6.69-5.56-.88-2.01-1.63-4.22-2.26-6.52-.42.67-.84,1.3-1.3,1.88-.29-.33-.67-.75-1.13-1.17v4.27h-2.97ZM276.79,13.38c.46,2.68,1.09,5.27,1.88,7.65.71-2.3,1.21-4.85,1.55-7.65h-3.43Z"/>
    </g>
  </g>
</svg>