<?xml version="1.0" encoding="UTF-8"?>
<svg id="_レイヤー_2" data-name="レイヤー 2" xmlns="http://www.w3.org/2000/svg" viewBox="0 0 627.07 120.35">
  <defs>
    <style>
      .cls-1 {
        isolation: isolate;
      }

      .cls-2 {
        fill: #d94015;
      }
    </style>
  </defs>
  <g id="_レイヤー_1-2" data-name="レイヤー 1">
    <path class="cls-2" d="M597.57,89.37c-.9-1.25-2.16-2.86-3.46-4.46v17.81h-7.22v-16.21c-1.76,1.55-3.56,2.91-5.37,4.01-.6-1.96-2.31-5.62-3.36-7.02,5.17-2.66,10.03-7.38,13.15-12.69h-11.19v-6.57h6.77v-9.18h7.22v9.18h1.1l1.25-.25,4.06,2.66c-1.41,3.76-3.31,7.38-5.57,10.64,2.41,1.96,6.02,5.17,7.02,6.17l-4.41,5.92ZM627.07,94.09v7.17h-28.7v-7.17h10.99v-17.01h-8.88v-7.02h8.88v-14.5h7.53v14.5h8.93v7.02h-8.93v17.01h10.18Z"/>
    <g>
      <path class="cls-2" d="M244.44,84.25h35.86v13.66h-64.67l33.42-40.47c3.29-4.03,6.04-7.52,8.26-10.48,2.22-2.95,3.92-5.42,5.08-7.42,2.37-3.91,3.55-7.42,3.55-10.54,0-4.49-1.58-8.25-4.74-11.29-3.16-3.03-7.07-4.55-11.72-4.55-9.73,0-15.3,5.76-16.71,17.27h-14.47c2.33-20.29,12.57-30.43,30.74-30.43,8.77,0,16.13,2.79,22.08,8.36,5.99,5.57,8.98,12.47,8.98,20.7,0,5.24-1.39,10.37-4.18,15.4-1.41,2.62-3.48,5.73-6.21,9.32-2.72,3.6-6.16,7.85-10.32,12.75l-14.96,17.71Z"/>
      <path class="cls-2" d="M308.79,79.88l12.47,4.86-17.77,35.61-9.48-3.93,14.78-36.54Z"/>
      <path class="cls-2" d="M336.1,49.14c0-15.34,3.58-27.58,10.73-36.73,6.4-8.27,14.16-12.41,23.26-12.41s16.86,4.14,23.26,12.41c7.15,9.15,10.73,21.6,10.73,37.35s-3.58,28.14-10.73,37.29c-6.4,8.27-14.13,12.41-23.2,12.41s-16.84-4.14-23.32-12.41c-7.15-9.14-10.73-21.78-10.73-37.91ZM350.38,49.2c0,10.68,1.85,19.56,5.55,26.63,3.7,6.94,8.42,10.41,14.16,10.41s10.41-3.47,14.16-10.41c3.74-6.9,5.61-15.61,5.61-26.13s-1.87-19.25-5.61-26.19c-3.74-6.9-8.46-10.35-14.16-10.35s-10.35,3.45-14.09,10.35c-3.74,6.86-5.61,15.42-5.61,25.69Z"/>
      <path class="cls-2" d="M414.92,49.14c0-15.34,3.58-27.58,10.73-36.73,6.4-8.27,14.16-12.41,23.26-12.41s16.86,4.14,23.26,12.41c7.15,9.15,10.73,21.6,10.73,37.35s-3.58,28.14-10.73,37.29c-6.4,8.27-14.13,12.41-23.2,12.41s-16.84-4.14-23.32-12.41c-7.15-9.14-10.73-21.78-10.73-37.91ZM429.2,49.2c0,10.68,1.85,19.56,5.55,26.63,3.7,6.94,8.42,10.41,14.16,10.41s10.41-3.47,14.16-10.41c3.74-6.9,5.61-15.61,5.61-26.13s-1.87-19.25-5.61-26.19c-3.74-6.9-8.46-10.35-14.16-10.35s-10.35,3.45-14.09,10.35c-3.74,6.86-5.61,15.42-5.61,25.69Z"/>
      <path class="cls-2" d="M493.74,49.14c0-15.34,3.58-27.58,10.73-36.73,6.4-8.27,14.16-12.41,23.26-12.41s16.86,4.14,23.26,12.41c7.15,9.15,10.73,21.6,10.73,37.35s-3.58,28.14-10.73,37.29c-6.4,8.27-14.13,12.41-23.2,12.41s-16.84-4.14-23.32-12.41c-7.15-9.14-10.73-21.78-10.73-37.91ZM508.02,49.2c0,10.68,1.85,19.56,5.55,26.63,3.7,6.94,8.42,10.41,14.16,10.41s10.41-3.47,14.16-10.41c3.74-6.9,5.61-15.61,5.61-26.13s-1.87-19.25-5.61-26.19c-3.74-6.9-8.46-10.35-14.16-10.35s-10.35,3.45-14.09,10.35c-3.74,6.86-5.61,15.42-5.61,25.69Z"/>
    </g>
    <g class="cls-1">
      <path class="cls-2" d="M32.43,62.93h9.81v4.93h-9.81v2.55c0,2.83-.5,4.33-2.6,5.2-2.01.82-4.52.87-7.71.87-.27-1.73-1.19-4.1-2.01-5.7,1.82.14,4.38.14,5.02.09.68,0,.91-.14.91-.64v-2.37h-11.31c1.46,1.14,2.92,2.37,3.79,3.38l-4.83,4.01c-1.09-1.5-3.69-3.83-5.7-5.38l2.46-2.01H.32v-4.93h25.72v-1.37c-2.78,0-5.34-.05-7.3-.14-4.52-.18-7.39-1.14-9.58-4.06-2.14,1.46-4.38,2.83-6.98,4.42l-2.19-5.15c1.64-.68,3.56-1.6,5.34-2.6v-4.97H.46v-4.93h10.85v9.03c1.32,2.46,3.74,3.42,7.43,3.56,5.7.23,17.7.09,24.35-.41-.55,1.19-1.32,3.51-1.6,4.97-2.42.09-5.7.18-9.08.23v1.41ZM7.62,43c-1.19-1.73-3.92-4.24-6.2-5.97l4.24-3.6c2.28,1.55,5.15,3.88,6.48,5.61l-4.52,3.97ZM23.72,40.99h-11.4v-4.33h6.29c-.37-.91-.82-1.87-1.23-2.69l5.38-.91c.68,1.05,1.41,2.42,1.87,3.6h5.43c.64-1.19,1.23-2.6,1.6-3.65l6.25.91c-.64,1.05-1.23,1.96-1.78,2.74h6.2v4.33h-12.63l-.46.96h9.4v13.77H15.87v-13.77h7.66l.18-.96ZM32.25,44.69h-10.26v1h10.26v-1ZM32.25,48.29h-10.26v1.05h10.26v-1.05ZM32.25,51.94h-10.26v1.09h10.26v-1.09Z"/>
      <path class="cls-2" d="M70.69,35.57c0,8.99,1.32,25.45,17.6,34.94-1.5,1.19-4.2,4.15-5.34,5.84-8.67-5.2-13.5-13.23-16.1-21.16-3.47,9.53-8.85,16.74-16.19,21.25-1.23-1.41-4.33-4.2-6.07-5.43,9.21-4.56,14.55-13.23,16.88-24.81l3.28.59c-.27-1.55-.46-3.06-.59-4.47h-10.08v-6.75h16.6Z"/>
      <path class="cls-2" d="M106.82,64.39c-.82-1.14-1.96-2.6-3.15-4.06v16.19h-6.57v-14.73c-1.6,1.41-3.24,2.65-4.88,3.65-.55-1.78-2.1-5.11-3.06-6.39,4.7-2.42,9.12-6.7,11.95-11.54h-10.17v-5.97h6.16v-8.35h6.57v8.35h1l1.14-.23,3.69,2.42c-1.28,3.42-3.01,6.7-5.06,9.67,2.19,1.78,5.47,4.7,6.39,5.61l-4.01,5.38ZM133.64,68.68v6.52h-26.09v-6.52h9.99v-15.46h-8.07v-6.38h8.07v-13.18h6.84v13.18h8.12v6.38h-8.12v15.46h9.26Z"/>
      <path class="cls-2" d="M175.87,47.42c-.87,6.43-2.28,11.86-4.56,16.37,2.01,2.87,4.52,5.2,7.66,6.8-1.5,1.32-3.6,3.97-4.61,5.79-2.87-1.73-5.24-3.92-7.16-6.48-2.42,2.69-5.43,4.92-9.12,6.75-.36-.87-1.14-2.24-1.96-3.51l-2.6,2.65c-1.14-1.05-2.69-2.19-4.42-3.33-2.74,1.92-6.39,3.15-11.27,4.1-.36-1.87-1.5-4.15-2.6-5.47,3.42-.37,6.07-.91,8.16-1.92-.5-.23-.96-.46-1.46-.68l-.36.64-5.79-1.69c.96-1.55,2.1-3.47,3.19-5.52h-3.97v-5.29h6.7c.5-1,.96-1.96,1.37-2.87l.87.18v-3.24c-1.92,1.78-4.1,3.38-6.11,4.51-.73-1.41-2.14-3.6-3.33-4.79,2.55-1,5.34-2.83,7.48-4.83h-6.29v-5.15h2.87c-.46-1.46-1.28-3.33-2.1-4.79l4.7-1.96c1.14,1.69,2.28,3.97,2.65,5.56l-2.74,1.19h2.87v-7.34h6.07v5.97c.96-1.6,2.1-3.92,2.74-5.56l5.56,2.14c-1.37,1.73-2.65,3.51-3.69,4.79h3.69v5.15h-6.2c2.01,1.09,4.42,2.46,5.25,3.01l-3.47,4.52c-.91-.91-2.37-2.19-3.88-3.47v4.79h-3.65l2.83.59-.78,1.6h9.35c-1.09-1.05-2.42-2.19-3.28-2.83,3.83-4.61,5.97-12.5,6.93-20.71l6.7.96c-.37,2.46-.78,4.88-1.32,7.25h11.54v6.11h-2.46ZM144.72,63.62c1.05.41,2.1.87,3.1,1.32.46-.87.87-1.87,1.19-3.01h-3.38l-.91,1.69ZM150.01,40.45h2.87l-2.87-1.28v1.28ZM155.21,61.93c-.46,2.28-1.14,4.2-2.01,5.84,1.09.64,2.14,1.32,3.06,1.92,3.06-1.55,5.43-3.6,7.3-6.07-.96-2.19-1.78-4.61-2.46-7.12-.46.73-.91,1.41-1.41,2.05-.32-.36-.73-.82-1.23-1.28v4.65h-3.24ZM165.34,47.42c.5,2.92,1.19,5.75,2.05,8.35.78-2.51,1.32-5.29,1.69-8.35h-3.74Z"/>
    </g>
    <g class="cls-1">
      <path class="cls-2" d="M9.82,100.36c-.77-1.09-1.11-1.7-1.49-2.7-.49-1.26-.73-2.46-.73-3.78s.22-2.42.7-3.65c.4-1,.73-1.6,1.51-2.7h1.92c-.96,1.2-1.35,1.82-1.74,2.72-.48,1.12-.71,2.29-.71,3.63s.23,2.61.73,3.75c.38.9.77,1.51,1.74,2.72h-1.92Z"/>
      <path class="cls-2" d="M14.64,99.31c-1.07,0-1.29.01-1.77.07.08-.78.18-1.26.36-1.75.37-1,.99-1.88,1.88-2.68.48-.42.89-.74,2.26-1.66,1.26-.86,1.64-1.31,1.64-2.01,0-.93-.73-1.51-1.89-1.51-.79,0-1.4.27-1.74.81-.23.33-.33.63-.42,1.26l-1.96-.23c.19-1.04.44-1.6.94-2.19.68-.79,1.77-1.22,3.13-1.22,2.4,0,3.87,1.15,3.87,3.02,0,.9-.3,1.56-.97,2.19-.38.36-.52.47-2.3,1.68-.6.42-1.29,1-1.63,1.37-.41.44-.57.71-.78,1.23h3.83c.86,0,1.55-.04,2-.11v1.81c-.64-.05-1.19-.08-2.07-.08h-4.39Z"/>
      <path class="cls-2" d="M23.86,98.42c-.41-.41-.73-.89-.9-1.38-.36-.97-.53-2.04-.53-3.15,0-1.45.33-2.96.83-3.79.74-1.23,1.97-1.9,3.49-1.9,1.16,0,2.16.38,2.89,1.11.41.41.73.89.9,1.38.36.96.53,2.05.53,3.18,0,1.68-.37,3.16-1.01,4.05-.77,1.07-1.9,1.61-3.33,1.61-1.16,0-2.15-.38-2.87-1.11ZM28.23,97.36c.62-.64.96-1.92.96-3.52s-.34-2.83-.96-3.5c-.33-.37-.88-.58-1.49-.58-.66,0-1.14.22-1.53.7-.6.71-.9,1.83-.9,3.33s.26,2.63.7,3.26c.42.6,1,.89,1.75.89.6,0,1.14-.21,1.48-.58Z"/>
      <path class="cls-2" d="M34.12,99.31c-1.07,0-1.29.01-1.77.07.08-.78.18-1.26.36-1.75.37-1,.99-1.88,1.88-2.68.48-.42.89-.74,2.26-1.66,1.26-.86,1.64-1.31,1.64-2.01,0-.93-.73-1.51-1.89-1.51-.79,0-1.4.27-1.74.81-.23.33-.33.63-.42,1.26l-1.96-.23c.19-1.04.44-1.6.94-2.19.68-.79,1.77-1.22,3.13-1.22,2.4,0,3.87,1.15,3.87,3.02,0,.9-.3,1.56-.97,2.19-.38.36-.52.47-2.3,1.68-.6.42-1.29,1-1.63,1.37-.41.44-.57.71-.78,1.23h3.83c.86,0,1.55-.04,2-.11v1.81c-.64-.05-1.19-.08-2.07-.08h-4.39Z"/>
      <path class="cls-2" d="M44.06,96.47c.12.4.22.58.41.79.38.46.96.7,1.68.7,1.35,0,2.24-.9,2.24-2.26s-.85-2.2-2.15-2.2c-.67,0-1.27.22-1.7.63-.19.19-.29.32-.41.62l-1.71-.16c.14-.97.15-1.04.18-1.42l.31-3.39c.01-.25.04-.71.05-1.4.41.03.73.04,1.45.04h3.37c.94,0,1.29-.01,1.9-.11v1.72c-.6-.08-1.14-.11-1.89-.11h-3.22l-.22,2.4c-.01.11-.04.3-.08.58.67-.58,1.4-.83,2.34-.83,1.11,0,2,.33,2.67,1.03.67.66.97,1.48.97,2.57,0,2.41-1.57,3.9-4.12,3.9-1.35,0-2.37-.38-3.12-1.19-.37-.4-.56-.73-.86-1.49l1.89-.4Z"/>
      <path class="cls-2" d="M53.99,92.96c0-.3-.01-.51-.04-.79.29.03.59.04.96.04h2.98v-1.78h-2.86c-.71,1.11-1.38,1.9-2.26,2.7-.4-.59-.55-.77-1.01-1.22,1.4-1.19,2.11-2.09,2.67-3.44.19-.44.29-.73.33-1l1.63.33c-.08.16-.11.21-.21.41-.01.04-.15.33-.4.86h6.41c.64,0,.99-.01,1.4-.07v1.49c-.42-.05-.78-.07-1.4-.07h-2.79v1.78h2.2c.63,0,1-.01,1.41-.07v1.45c-.41-.04-.78-.05-1.37-.05h-2.24v2.22h3.18c.63,0,1.07-.03,1.49-.08v1.56c-.42-.05-.9-.08-1.49-.08h-3.18v1.71c0,.7.01,1.07.08,1.46h-1.67c.05-.4.08-.77.08-1.49v-1.68h-4.6c-.6,0-1.04.03-1.49.08v-1.56c.44.05.88.08,1.49.08h.7v-2.79ZM57.89,95.75v-2.22h-2.46v2.22h2.46Z"/>
      <path class="cls-2" d="M67.29,99.31c-1.07,0-1.29.01-1.77.07.08-.78.18-1.26.36-1.75.37-1,.99-1.88,1.88-2.68.48-.42.89-.74,2.26-1.66,1.26-.86,1.64-1.31,1.64-2.01,0-.93-.73-1.51-1.89-1.51-.79,0-1.4.27-1.74.81-.23.33-.33.63-.42,1.26l-1.96-.23c.19-1.04.44-1.6.94-2.19.68-.79,1.77-1.22,3.13-1.22,2.4,0,3.87,1.15,3.87,3.02,0,.9-.3,1.56-.97,2.19-.38.36-.52.47-2.3,1.68-.6.42-1.29,1-1.63,1.37-.41.44-.57.71-.78,1.23h3.83c.86,0,1.55-.04,2-.11v1.81c-.64-.05-1.19-.08-2.07-.08h-4.39Z"/>
      <path class="cls-2" d="M78.47,95.98c-.12.7-.23,1.15-.4,1.63-.37,1.04-.83,1.83-1.62,2.71-.4-.53-.74-.88-1.27-1.26.77-.77,1.15-1.38,1.46-2.41.41-1.27.55-2.87.55-6.43,0-.99-.01-1.59-.07-2.07.53.06.9.07,1.6.07h5.71c.75,0,1.12-.01,1.59-.07-.05.37-.07.74-.07,1.55v8.87c0,.68-.15,1.08-.49,1.3-.3.21-.68.27-1.59.27-.44,0-.89-.01-1.59-.05-.08-.66-.16-.97-.4-1.53.7.11,1.45.17,2.01.17.41,0,.51-.07.51-.37v-2.37h-5.94ZM84.41,94.59v-1.83h-5.67c0,.42-.03.73-.11,1.83h5.78ZM84.41,91.36v-1.71h-5.65v1.71h5.65Z"/>
      <path class="cls-2" d="M89.3,89.75c0-.62-.01-.97-.06-1.38.3.03.56.04,1.2.04h1.66c.62,0,.86-.01,1.19-.04-.04.31-.04.56-.04,1.35v7.83c0,.73.01,1.03.04,1.37h-1.4v-.68h-1.25v1.15h-1.44c.05-.42.08-.9.08-1.63v-8.01ZM90.67,92.57h1.23v-2.86h-1.23v2.86ZM90.67,96.91h1.23v-3.08h-1.23v3.08ZM95.38,90.44q-1.14.03-1.46.07v-1.45c.38.06.82.08,1.42.08h1.2v-.37c0-.38-.03-.68-.08-1.03h1.57c-.04.31-.07.6-.07,1.03v.37h1.49c.59,0,1.04-.03,1.42-.08v1.45c-.38-.05-.79-.07-1.41-.07h-1.51v1.3h1.89c.66,0,1.15-.03,1.49-.08v1.45c-.37-.05-.74-.07-1.34-.07h-.23v1.16h.18c.66,0,1.03-.01,1.35-.07v1.49c-.4-.07-.74-.08-1.35-.08h-.18v3.09c0,.79-.14,1.12-.55,1.31-.34.15-.82.22-1.51.22q-.12,0-1.07-.01c-.03-.59-.12-1-.33-1.44.34.05,1.05.11,1.53.11.42,0,.51-.07.51-.37v-2.92h-3.27c-.51,0-1.03.03-1.46.08v-1.49c.36.05.78.07,1.49.07h3.24v-1.16h-3.24c-.58,0-1.08.03-1.51.07v-1.45c.34.06.86.08,1.52.08h1.41v-1.3h-1.16ZM95.92,98.72c-.55-.92-1.07-1.57-1.75-2.25l1.16-.77c.67.6,1.22,1.23,1.79,2.09l-1.2.92Z"/>
      <path class="cls-2" d="M102.38,99.51c.47-.52.67-.78.97-1.31.3-.55.44-.85.64-1.56l1.35.48c-.44,1.35-.85,2.16-1.6,3.16l-1.37-.77ZM109.27,91.75h2.57c.77,0,1.2-.01,1.56-.07-.04.34-.05.67-.05,1.14v2.55c0,.46.01.74.05,1.07-.38-.04-.79-.05-1.33-.05h-6.72c-.53,0-.94.01-1.3.05.04-.36.05-.64.05-1.04v-2.57c0-.47-.01-.75-.05-1.14.38.06.88.07,1.55.07h2.12v-2.77c0-.53-.03-.94-.1-1.34h1.72c-.05.34-.08.68-.08,1.2v.22h3.67c.63,0,1.05-.03,1.46-.08v1.51c-.48-.05-.9-.08-1.46-.08h-3.67v1.34ZM105.6,93.09v1.93h6.26v-1.93h-6.26ZM106.57,100.27c.01-.25.01-.44.01-.56,0-.78-.07-1.62-.21-2.55l1.31-.21c.22,1.27.31,2.03.36,3.07l-1.48.25ZM109.93,100.29c-.19-1.01-.51-2.11-.92-3.12l1.27-.36c.51,1.15.75,1.86,1.08,2.97l-1.44.51ZM113.43,100.25c-.56-1.41-.89-2.07-1.57-3.15l1.29-.51c.68,1.03.81,1.23,1.7,2.93l-1.41.73Z"/>
      <path class="cls-2" d="M115.97,100.36c.97-1.22,1.35-1.82,1.74-2.72.49-1.14.73-2.35.73-3.75s-.22-2.5-.7-3.63c-.4-.9-.79-1.52-1.75-2.72h1.93c.77,1.08,1.1,1.68,1.49,2.7.48,1.25.7,2.35.7,3.65s-.23,2.52-.71,3.78c-.4,1-.73,1.6-1.49,2.7h-1.93Z"/>
    </g>
  </g>
</svg>