<?xml version="1.0" encoding="UTF-8"?>
<svg id="_レイヤー_2" data-name="レイヤー 2" xmlns="http://www.w3.org/2000/svg" viewBox="0 0 726.2 101">
  <defs>
    <style>
      .cls-1 {
        fill: #e58707;
      }

      .cls-2 {
        isolation: isolate;
      }
    </style>
  </defs>
  <g id="_レイヤー_1-2" data-name="レイヤー 1">
    <g class="cls-2">
      <g>
        <path class="cls-1" d="M579.2,70.04c0-7.48,3.96-11.79,9.43-11.79s9.48,4.31,9.48,11.79-4.01,11.94-9.48,11.94-9.43-4.46-9.43-11.94ZM591.89,70.04c0-5.22-1.5-6.87-3.26-6.87s-3.26,1.66-3.26,6.87,1.5,7.02,3.26,7.02,3.26-1.81,3.26-7.02ZM610.05,58.25h5.12l-20.17,38.73h-5.07l20.12-38.73ZM606.99,85.04c0-7.48,4.01-11.84,9.43-11.84s9.43,4.36,9.43,11.84-4.01,11.94-9.43,11.94-9.43-4.46-9.43-11.94ZM619.64,85.04c0-5.27-1.46-6.87-3.21-6.87s-3.31,1.61-3.31,6.87,1.56,6.97,3.31,6.97,3.21-1.76,3.21-6.97Z"/>
        <path class="cls-1" d="M630.72,67.03c-.35-2.61-1.61-6.72-2.81-9.73l5.97-2.01c1.35,2.96,2.61,6.82,3.16,9.43l-6.32,2.31ZM652.45,92.82c0,3.16-.5,5.07-2.51,6.17-1.96,1.1-4.42,1.2-7.83,1.2-.2-1.96-1.05-4.97-1.91-6.77,1.61.1,3.71.1,4.36.1.65-.05.85-.2.85-.85v-2.46h-8.38v10.08h-6.92v-33.21h7.43v-13.75h7.22v13.75h7.68v25.74ZM637.05,73.85v2.06h8.38v-2.06h-8.38ZM645.42,84.14v-2.16h-8.38v2.16h8.38ZM645.12,65.17c1.05-2.81,2.16-7.07,2.66-10.29l7.22,1.5c-1.3,3.81-2.66,7.68-3.81,10.23l-6.07-1.45ZM662.53,88h-7.07v-28.45h7.07v28.45ZM673.67,54.34v38.03c0,4.06-.75,6.02-3.06,7.22-2.36,1.15-5.97,1.4-10.59,1.4-.3-2.11-1.46-5.52-2.51-7.58,3.16.15,6.47.15,7.58.15.95,0,1.35-.3,1.35-1.25v-37.98h7.22Z"/>
        <path class="cls-1" d="M685.51,77.52c-1.61-1.61-5.22-3.76-8.03-5.02l4.01-5.37c2.81,1.05,6.47,2.91,8.33,4.52l-4.31,5.87ZM689.67,83.39c-1.66,5.62-3.56,11.39-5.57,16.61l-6.62-3.61c1.86-4.06,4.42-10.54,6.32-16.71l5.87,3.71ZM687.97,64.12c-1.66-1.66-5.27-3.86-8.13-5.22l4.06-5.32c2.81,1.15,6.57,3.06,8.43,4.72l-4.36,5.82ZM724.84,70.54c-1.55,6.62-3.71,12.49-6.62,17.51.55,2.61,1.15,4.11,1.71,4.11.6.05,1-2.31,1.2-6.77,1.1,1.4,4.01,3.26,5.07,3.81-1.35,9.73-4.26,11.64-6.37,11.64-2.71-.05-4.72-2.16-6.32-6.07-1.91,2.26-4.06,4.26-6.42,5.97-.95-1.2-3.41-3.56-4.77-4.67,2.36-1.45,4.46-3.21,6.32-5.27h-5.97v2.46h-4.62v-16.96h11.39v13.6c.7-.85,1.41-1.71,2.01-2.66-1-5.42-1.71-12.39-2.11-20.47h-12.14v8.03c0,7.62-.65,19.01-4.62,26.09-1.15-1.1-3.96-3.01-5.47-3.66,3.51-6.37,3.76-15.7,3.76-22.43v-14.4h18.21c-.05-2.06-.1-4.21-.15-6.42h6.62l.05,2.66,3.36-3.16c2.21,1.1,4.97,2.96,6.32,4.42l-2.56,2.51h1.86v6.37h-8.68c.2,3.56.45,6.92.75,9.93.75-2.31,1.41-4.77,1.96-7.33l6.22,1.15ZM708.59,74.16h-9.98v-5.22h9.98v5.22ZM704.73,81.48h-2.06v4.11h2.06v-4.11ZM715.66,60.41h4.21c-1.25-1.05-2.81-2.21-4.26-3.11l.05,3.11Z"/>
      </g>
      <g>
        <path class="cls-1" d="M476.75,13.59h-29.68l-4.74,15.96c.71-.08,1.38-.14,2.03-.19.64-.04,1.24-.06,1.78-.06,9.35,0,17.02,3.16,23.01,9.48,6.03,6.28,9.04,14.32,9.04,24.13s-3.41,18.5-10.23,25.07c-6.82,6.57-15.4,9.85-25.75,9.85-12.76,0-22.82-5.99-30.18-17.96l10.98-9.29c3.03,5.16,6.09,8.79,9.17,10.91,3.08,2.08,6.84,3.12,11.29,3.12,5.82,0,10.7-2.04,14.65-6.11,3.95-4.2,5.92-9.29,5.92-15.28s-1.96-11.18-5.86-15.09c-3.91-4.03-8.79-6.05-14.65-6.05-6.53,0-12.16,2.85-16.9,8.54h-4.8L436.96,0h39.78v13.59Z"/>
        <path class="cls-1" d="M555.56,13.59h-29.68l-4.74,15.96c.71-.08,1.38-.14,2.03-.19.64-.04,1.24-.06,1.78-.06,9.35,0,17.02,3.16,23.01,9.48,6.03,6.28,9.04,14.32,9.04,24.13s-3.41,18.5-10.23,25.07c-6.82,6.57-15.4,9.85-25.75,9.85-12.76,0-22.82-5.99-30.18-17.96l10.98-9.29c3.03,5.16,6.09,8.79,9.17,10.91,3.08,2.08,6.84,3.12,11.29,3.12,5.82,0,10.7-2.04,14.65-6.11,3.95-4.2,5.92-9.29,5.92-15.28s-1.96-11.18-5.86-15.09c-3.91-4.03-8.79-6.05-14.65-6.05-6.53,0-12.16,2.85-16.9,8.54h-4.8l15.15-50.63h39.78v13.59Z"/>
      </g>
    </g>
    <g class="cls-2">
      <path class="cls-1" d="M42.74,62.27h-4.79v7.94h-6.75v-1.87h-6.66v.55c0,3.01-.68,4.29-2.65,5.2-1.96.82-4.47.91-8.39.91-.32-1.5-1.32-3.79-2.14-5.11,1.87.09,4.56.09,5.29.09.87-.05,1.14-.32,1.14-1.09v-.55H4.42v-4.7h13.36v-1.37H0v-4.97h17.79v-1.23H4.74v-4.38h13.04v-1.37H5.75v-9.67h12.04v-1.37H1.14v-5.15h16.65v-2.6h6.75v2.6h17.06v5.15h-17.06v1.37h12.59v9.67h-12.59v1.37h13.41v5.61h4.79v4.97ZM17.79,46.26v-1.55h-5.7v1.55h5.7ZM24.54,44.71v1.55h5.79v-1.55h-5.79ZM24.54,57.3h6.66v-1.23h-6.66v1.23ZM31.2,62.27h-6.66v1.37h6.66v-1.37Z"/>
      <path class="cls-1" d="M85.15,41.47c-1.05,2.28-2.37,4.24-3.92,5.93,2.23.91,4.74,1.64,7.48,2.1-1.41,1.32-3.28,3.92-4.15,5.61-3.28-.82-6.2-2.01-8.76-3.51-1.09.59-2.19,1.14-3.38,1.64h5.11c-.09,1.32-.23,2.6-.36,3.83h9.9s-.09,1.6-.18,2.42c-.68,7.53-1.46,11.13-2.78,12.59-1.09,1.23-2.19,1.64-3.6,1.87-1.19.18-3.06.23-5.15.18-.09-1.87-.78-4.42-1.78-6.07,1.46.14,2.83.18,3.56.18.64,0,1-.09,1.46-.55.5-.5,1-2.01,1.41-5.2h-3.92c-1.6,5.25-4.83,9.49-12.04,12.41-.73-1.6-2.42-3.92-3.79-5.15,4.97-1.78,7.53-4.29,8.89-7.25h-4.52v-5.38c-.36,1.46-.73,2.78-1.14,3.92l-4.38-2.05c.37-1.55.73-3.6,1-5.7h-1.41v14.59c0,2.87-.41,4.61-2.23,5.66-1.78,1-4.01,1.14-6.89,1.14-.18-1.82-1.05-4.56-1.87-6.34,1.55.09,3.42.09,4.01.09.55-.05.73-.14.73-.68v-7.16c-1.41,2.78-3.15,5.29-5.11,6.98-.55-1.92-1.96-4.65-2.96-6.48,2.37-1.92,4.47-4.79,5.97-7.8h-5.02v-5.75h9.17c-2.42-1.28-5.34-2.55-7.71-3.47l4.15-4.24c.96.32,2.01.68,3.1,1.09.64-.59,1.32-1.23,1.92-1.92h-9.9v-5.52h14.41l1-.23,4.2,2.6c-1.46,2.51-3.83,5.2-6.29,7.39,1.19.59,2.23,1.14,3.06,1.64l-2.51,2.65h1.55l.87-.27,3.97,1.28-.05.32c1.5-.37,2.87-.82,4.15-1.41-.82-.82-1.6-1.73-2.33-2.69-.46.46-.91.87-1.32,1.23-1.28-1.05-3.88-2.83-5.38-3.65,3.56-2.55,6.93-6.7,8.76-10.85l6.16,1.73c-.46.96-.96,1.92-1.5,2.83h12.59v5.43h-2.23ZM70.6,57.07c.14-1.05.23-2.14.32-3.24-1.32.46-2.69.91-4.1,1.28-.27-.55-.78-1.28-1.28-2.01-.27,1.37-.59,2.69-.91,3.97h5.98ZM72.66,41.47c.82,1,1.78,1.92,2.92,2.74.82-.82,1.55-1.73,2.14-2.74h-5.06Z"/>
      <path class="cls-1" d="M109.55,46.12c-.82,4.7-2.01,8.94-3.56,12.77,1.87,2.55,3.51,5.02,4.52,7.16l-5.29,4.52c-.64-1.5-1.55-3.19-2.69-5.02-2.33,3.6-5.25,6.61-8.76,8.99-.82-1.32-3.1-4.01-4.42-5.2,3.97-2.28,6.98-5.52,9.21-9.58-2.33-3.15-4.88-6.29-7.3-8.98l4.65-3.79c1.73,1.87,3.6,3.97,5.43,6.11.78-2.46,1.37-5.11,1.78-7.89l6.43.91ZM133.13,47.58h-4.56v19.25c0,3.56-.59,5.43-2.51,6.57-1.96,1.14-4.88,1.41-8.67,1.41-.18-1.96-1.14-5.15-2.05-7.16,2.37.14,4.79.14,5.61.14.78,0,1.05-.23,1.05-1v-19.2h-10.85v-3.19h-20.43v-6.11h7.57v-6.7h6.34v6.7h8.07v2.96h9.3v-9.71h6.57v9.71h4.56v6.34ZM115.39,50.55c2.1,2.92,4.29,6.75,5.02,9.49l-5.7,2.92c-.64-2.65-2.6-6.75-4.61-9.81l5.29-2.6Z"/>
      <path class="cls-1" d="M145.45,47.9c0,7.62-.78,19.52-5.02,26.82-1.23-1.09-4.2-3.06-5.75-3.74,3.83-6.57,4.1-16.37,4.1-23.08v-11.36h16.05v-5.02h6.93v5.02h16.05v6.29h-18.06c3.42,1.69,7.57,4.01,9.81,5.88l-4.79,4.93c-2.23-2.14-7.21-5.25-10.99-7.16l3.69-3.65h-12.04v5.06ZM144.13,68.52c1.73-3.51,2.55-8.62,2.92-13.87l5.97,1.28c-.41,5.43-1.09,11.45-3.01,15.19l-5.88-2.6ZM172.59,71.02c-.23-1.78-.78-4.01-1.55-6.39-.59,7.25-2.23,9.4-6.57,9.4h-4.15c-5.34,0-6.61-1.96-6.61-7.75v-14.91h6.57v14.87c0,1.73.18,1.92,1.19,1.92h2.37c1.09,0,1.32-1.05,1.5-7.07,1.23,1,3.69,2.01,5.38,2.51-.91-2.69-2.1-5.56-3.33-8.03l5.93-2.28c2.55,4.79,5.11,10.86,5.79,15.1l-6.52,2.65Z"/>
      <path class="cls-1" d="M196.76,66.1h-8.94v4.24h-6.11v-36.12h15.05v31.88ZM187.82,40.1v6.89h2.78v-6.89h-2.78ZM190.6,60.21v-7.48h-2.78v7.48h2.78ZM219.38,50.55v3.15h3.88v5.75h-3.88v8.67c0,3.01-.55,4.65-2.55,5.61-2.01.96-4.56,1.09-7.84,1.09-.23-1.82-1.19-4.47-2.05-6.2,1.92.09,4.38.09,5.06.09s.91-.14.91-.73v-8.53h-15.32v-5.75h15.32v-3.15h-15.32v-5.79h9.67v-3.01h-8.39v-5.7h8.39v-4.56h6.52v4.56h8.71v5.7h-8.71v3.01h9.71v5.79h-4.1ZM203.78,69.98c-.78-2.1-2.96-5.25-4.93-7.53l5.29-3.01c2.01,2.14,4.38,5.06,5.34,7.25l-5.7,3.28Z"/>
      <path class="cls-1" d="M234.21,50.23v24.63h-6.57v-41.69h18.15v17.06h-11.58ZM234.21,37.87v1.55h5.38v-1.55h-5.38ZM239.59,45.57v-1.78h-5.38v1.78h5.38ZM266.91,67.28c0,3.38-.64,5.25-2.65,6.34-2.05,1.09-4.79,1.23-8.8,1.23-.14-1.14-.55-2.74-1.05-4.24h-10.31v2.33h-5.98v-20.34h17.97v15.64h3.01c.82,0,1.09-.27,1.09-1.05v-16.83h-11.9v-17.19h18.61v34.12ZM244.1,57.39v1.92h5.79v-1.92h-5.79ZM249.9,65.83v-1.92h-5.79v1.92h5.79ZM254.59,37.87v1.55h5.61v-1.55h-5.61ZM260.2,45.71v-1.92h-5.61v1.92h5.61Z"/>
    </g>
  </g>
</svg>