<?xml version="1.0" encoding="UTF-8"?>
<svg id="_レイヤー_2" data-name="レイヤー 2" xmlns="http://www.w3.org/2000/svg" viewBox="0 0 310.18 290.63">
  <defs>
    <style>
      .cls-1 {
        fill: #0d1828;
      }

      .cls-2 {
        fill: #ffaf50;
      }

      .cls-3 {
        isolation: isolate;
      }

      .cls-4 {
        fill: #fff;
      }

      .cls-5 {
        fill: #0079b9;
      }

      .cls-6 {
        fill: #d3dee5;
      }
    </style>
  </defs>
  <g id="_レイヤー_1-2" data-name="レイヤー 1">
    <g class="cls-3">
      <polygon class="cls-4" points="204.12 190.92 2 190.92 2 2 308.18 2 308.18 190.92 227.87 190.92 200.1 205.03 204.12 190.92"/>
      <path class="cls-5" d="M306.18,4v184.92h-78.78l-.85.43-23.26,11.81,2.04-7.15,1.45-5.1H4V4h302.18M310.18,0H0v192.92h201.47l-4.55,15.96,31.43-15.96h81.83V0h0Z"/>
    </g>
    <g class="cls-3">
      <path class="cls-5" d="M43.99,57.69c6.51-5.92,10.89-10.64,10.89-14.42,0-2.38-1.33-3.67-3.4-3.67-1.79,0-3.19,1.19-4.41,2.52l-3.4-3.36c2.56-2.69,4.94-4.03,8.65-4.03,5.04,0,8.54,3.22,8.54,8.19,0,4.48-3.85,9.42-7.84,13.44,1.3-.17,3.08-.35,4.24-.35h4.8v5.25h-18.06v-3.57Z"/>
      <path class="cls-5" d="M83.89,54.75h-2.91v6.51h-5.81v-6.51h-10.92v-4.31l9.07-15.23h7.67v14.81h2.91v4.73ZM75.18,50.02v-3.82c0-1.64.17-4.13.24-5.78h-.14c-.67,1.47-1.37,2.98-2.1,4.45l-2.98,5.15h4.97Z"/>
      <path class="cls-5" d="M97.96,57.87h-6.86v3.26h-4.69v-27.72h11.55v24.47ZM91.1,37.91v5.29h2.14v-5.29h-2.14ZM93.24,53.35v-5.74h-2.14v5.74h2.14ZM115.33,45.93v2.42h2.98v4.41h-2.98v6.65c0,2.31-.42,3.57-1.96,4.31s-3.5.84-6.02.84c-.18-1.4-.91-3.43-1.58-4.76,1.47.07,3.36.07,3.89.07s.7-.1.7-.56v-6.55h-11.76v-4.41h11.76v-2.42h-11.76v-4.45h7.42v-2.31h-6.44v-4.38h6.44v-3.5h5.01v3.5h6.69v4.38h-6.69v2.31h7.46v4.45h-3.15ZM103.35,60.84c-.59-1.61-2.27-4.03-3.78-5.78l4.06-2.31c1.54,1.65,3.36,3.89,4.1,5.57l-4.38,2.52Z"/>
      <path class="cls-5" d="M126.7,45.68v18.9h-5.04v-31.99h13.93v13.09h-8.89ZM126.7,36.2v1.19h4.13v-1.19h-4.13ZM130.83,42.11v-1.36h-4.13v1.36h4.13ZM151.8,58.78c0,2.59-.49,4.03-2.03,4.87-1.58.84-3.68.95-6.76.95-.1-.88-.42-2.1-.81-3.25h-7.91v1.79h-4.59v-15.61h13.79v12.01h2.31c.63,0,.84-.21.84-.81v-12.92h-9.14v-13.2h14.28v26.18ZM134.29,51.18v1.47h4.45v-1.47h-4.45ZM138.74,57.66v-1.47h-4.45v1.47h4.45ZM142.34,36.2v1.19h4.31v-1.19h-4.31ZM146.65,42.22v-1.47h-4.31v1.47h4.31Z"/>
      <path class="cls-5" d="M162.5,43.06c2.7,0,4.9,2.21,4.9,4.9s-2.21,4.9-4.9,4.9-4.9-2.21-4.9-4.9,2.21-4.9,4.9-4.9Z"/>
      <path class="cls-5" d="M75.6,98.34c-4.17,10.57-13.83,14.56-26.22,16.24-.39-1.37-1.33-3.46-2.17-4.62,4.76-.46,9.14-1.29,12.78-2.77-1.19-1.01-2.87-2.21-4.27-3.08-1.44.67-2.94,1.29-4.55,1.89-.6-1.19-2.03-3.08-3.08-3.96,5.5-1.61,9.59-3.82,12.43-6.27-4.17,2.21-9.03,3.71-14.07,4.69-.46-1.26-1.44-3.22-2.31-4.31,3.85-.56,7.6-1.5,10.92-2.83-1.05-.84-2.49-1.75-3.75-2.45-1.12.53-2.28,1.05-3.54,1.54-.7-1.19-2.28-2.94-3.36-3.75,6.16-1.89,10.36-4.66,12.74-7.49l5.5,1.19c-.42.49-.88.95-1.29,1.4h5.88l.81-.21,3.29,1.89c-1.75,3.33-4.27,6.02-7.32,8.16l4.38,1.01c-.67.77-1.33,1.5-2.03,2.21h4.97l.88-.21,3.4,1.72ZM56.42,87.91c-.28.21-.56.39-.84.56,1.51.8,3.12,1.79,4.1,2.59,1.54-.95,2.94-2,4.1-3.15h-7.35ZM61.21,101.04c-.35.25-.7.46-1.05.67,1.54.91,3.36,2.06,4.45,3.04,1.5-1.05,2.8-2.28,3.82-3.71h-7.21Z"/>
      <path class="cls-5" d="M110.81,87.81v4.27h-32.17v-4.27h32.17ZM83.54,103.04h22.44v11.41h-5.29v-.95h-12.15v1.05h-5.01v-11.52ZM105.35,97.01h-21.14v-3.96h21.14v3.96ZM84.21,98.03h21.14v3.96h-21.14v-3.96ZM104.65,86.83h-19.71v-3.96h19.71v3.96ZM88.55,107.24v2.13h12.15v-2.13h-12.15Z"/>
      <path class="cls-5" d="M125.96,91.24h-13.27v-3.96h13.27v3.96ZM124.98,113.33h-6.48v1.26h-4.24v-12.15h10.71v10.89ZM124.67,96.21h-10.26v-3.78h10.26v3.78ZM114.41,97.4h10.26v3.78h-10.26v-3.78ZM124.74,86.13h-10.12v-3.78h10.12v3.78ZM118.51,106.4v2.97h2.17v-2.97h-2.17ZM146.09,95.3v4.41h-20.51v-4.41h4.13c.18-.84.35-1.75.49-2.7h-2.66v-4.27h3.33l.25-1.85h-4.13v-4.31h17.82v4.31h-8.75l-.28,1.85h7.39v6.97h2.94ZM128.1,101.11h15.72v13.34h-4.97v-1.05h-5.99v1.19h-4.76v-13.48ZM132.86,105.62v3.26h5.99v-3.26h-5.99ZM135.1,92.6c-.17.95-.31,1.86-.49,2.7h3.68v-2.7h-3.19Z"/>
      <path class="cls-5" d="M162.37,92.53c-.63,3.6-1.54,6.86-2.73,9.8,1.44,1.96,2.7,3.85,3.46,5.5l-4.06,3.47c-.49-1.16-1.19-2.45-2.06-3.85-1.79,2.77-4.03,5.08-6.72,6.9-.63-1.01-2.38-3.08-3.4-3.99,3.04-1.75,5.36-4.24,7.07-7.35-1.79-2.42-3.75-4.83-5.6-6.9l3.57-2.91c1.33,1.43,2.77,3.04,4.17,4.69.6-1.89,1.05-3.92,1.37-6.06l4.94.7ZM180.46,93.65h-3.5v14.77c0,2.73-.46,4.17-1.92,5.04-1.5.88-3.75,1.08-6.65,1.08-.14-1.5-.88-3.96-1.57-5.5,1.82.1,3.68.1,4.3.1.6,0,.81-.17.81-.77v-14.74h-8.33v-2.45h-15.68v-4.69h5.81v-5.15h4.87v5.15h6.2v2.28h7.14v-7.46h5.04v7.46h3.5v4.87ZM166.85,95.93c1.61,2.24,3.29,5.18,3.85,7.28l-4.38,2.24c-.49-2.03-2-5.18-3.54-7.53l4.06-2Z"/>
      <path class="cls-5" d="M189.91,93.9c0,5.85-.6,14.98-3.85,20.58-.95-.84-3.22-2.35-4.41-2.87,2.94-5.04,3.15-12.57,3.15-17.71v-8.72h12.32v-3.85h5.32v3.85h12.32v4.83h-13.86c2.62,1.29,5.81,3.08,7.53,4.52l-3.67,3.78c-1.72-1.65-5.53-4.03-8.44-5.5l2.84-2.8h-9.24v3.88ZM188.89,109.72c1.33-2.7,1.96-6.62,2.24-10.64l4.59.98c-.32,4.17-.84,8.79-2.31,11.66l-4.52-2ZM210.74,111.65c-.17-1.37-.6-3.08-1.19-4.9-.46,5.57-1.71,7.21-5.04,7.21h-3.19c-4.1,0-5.08-1.5-5.08-5.95v-11.45h5.04v11.41c0,1.33.14,1.47.91,1.47h1.82c.84,0,1.01-.8,1.16-5.43.94.77,2.83,1.54,4.13,1.93-.7-2.07-1.61-4.27-2.55-6.16l4.55-1.75c1.96,3.68,3.92,8.33,4.45,11.59l-5,2.03Z"/>
      <path class="cls-5" d="M231.91,108.04c1.47-.17,2.42-.38,3.4-.63,4.41-1.08,7.35-4.17,7.35-8.72s-2.17-7.67-6.16-8.61c-.46,2.8-1.08,5.84-2.03,9.03-2.06,6.93-5.18,11.59-9.28,11.59s-7.56-4.66-7.56-10.57c0-8.23,7.11-15.23,16.38-15.23s14.42,6.09,14.42,13.97c0,7.28-4.31,12.64-13.34,14.14l-3.19-4.97ZM230.79,90.19c-5.15,1.4-7.7,6.06-7.7,9.38,0,3.01,1.05,4.59,2.24,4.59,1.4,0,2.45-2.1,3.68-6.13.77-2.34,1.37-5.11,1.79-7.84Z"/>
      <path class="cls-5" d="M66.5,162.31l.04-1.75h-15.37c-1.33,0-3.54.11-4.8.25v-6.06c1.36.11,2.98.21,4.62.21h15.58v-13.3h-15.16c-1.57,0-3.54.07-4.62.14v-5.88c1.4.14,3.36.25,4.62.25h17.85c1.12,0,2.8-.07,3.33-.1-.03.84-.1,2.38-.1,3.54v18.17c0,1.19.07,3.18.18,4.55h-6.16Z"/>
      <path class="cls-5" d="M78.92,144.46c1.4.11,4.34.25,6.06.25h18.59c1.58,0,3.29-.17,4.31-.25v6.69c-.91-.04-2.87-.21-4.31-.21h-18.59c-2,0-4.62.11-6.06.21v-6.69Z"/>
      <path class="cls-5" d="M110.35,159.76c3.19-2.21,4.97-5.5,5.88-8.26.98-2.87,1.02-9.31,1.02-13.69,0-1.65-.14-2.66-.39-3.61h6.23s-.28,1.86-.28,3.54c0,4.31-.1,11.62-1.02,15.16-1.08,4.06-3.22,7.53-6.27,10.29l-5.18-3.43ZM126.67,160.46c.17-.74.31-1.82.31-2.91v-20.09c0-1.71-.31-3.25-.31-3.25h6.3s-.28,1.58-.28,3.29v17.22c2.62-1.08,5.6-3.61,7.77-6.69l3.26,4.69c-2.83,3.61-7.95,7.49-11.83,9.49-.81.42-1.19.8-1.68,1.16l-3.54-2.91Z"/>
      <path class="cls-5" d="M163,150.93c2.13-1.89,4.27-4.73,5.21-6.41-1.26.25-5.11,1.01-9.35,1.85v8.61c0,2.07.46,2.8,4.1,2.8s7.67-.52,11.13-1.22l-.17,5.74c-2.76.39-7.35.77-10.78.77-8.79,0-9.91-2.03-9.91-6.58v-8.96c-2.91.6-5.46,1.12-6.97,1.47l-1.02-5.53c1.68-.21,4.66-.7,7.98-1.29v-4.41c0-1.26-.14-3.4-.31-4.48h6.3c-.17,1.08-.35,3.19-.35,4.48v3.36c4.55-.84,8.82-1.72,10.43-2.1,1.12-.28,2.06-.52,2.83-.95l4.1,3.19c-.35.56-.95,1.47-1.3,2.17-1.5,2.94-4.94,7.98-7.28,10.22l-4.66-2.73Z"/>
      <path class="cls-5" d="M191.94,153.07c6.3-3.64,11.03-9.07,13.37-14l3.29,5.99c-2.8,4.97-7.77,9.84-13.62,13.27-3.57,2.1-8.12,3.92-12.53,4.62l-3.61-5.6c5.15-.7,9.66-2.27,13.09-4.27ZM193.13,141.62l-4.34,4.45c-1.86-2.03-6.27-5.88-8.79-7.67l4.03-4.31c2.42,1.65,7,5.29,9.1,7.53Z"/>
      <path class="cls-5" d="M239.58,138.96c-.46.77-.98,1.82-1.37,2.87-.88,2.45-2.42,5.81-4.66,9.07,1.29.84,2.45,1.61,3.33,2.24l-3.85,5.01c-.84-.74-2-1.61-3.25-2.52-3.08,3.29-7,6.27-12.43,8.37l-4.94-4.27c6.16-1.93,9.87-4.62,12.6-7.35-2.13-1.4-4.24-2.7-5.88-3.64l3.61-4.06c1.72.91,3.85,2.07,5.95,3.29,1.47-2.17,2.73-4.66,3.15-6.41h-9c-2.56,3.33-5.92,6.69-9.21,8.96l-4.59-3.54c6.2-3.82,9.24-8.37,11.1-11.31.63-.98,1.47-2.8,1.86-4.17l6.12,1.89c-.77,1.09-1.58,2.45-2.1,3.36h5.81c1.16,0,2.55-.17,3.46-.46l4.27,2.66Z"/>
      <path class="cls-5" d="M242.62,144.46c1.4.11,4.34.25,6.06.25h18.59c1.58,0,3.29-.17,4.3-.25v6.69c-.91-.04-2.87-.21-4.3-.21h-18.59c-2,0-4.62.11-6.06.21v-6.69Z"/>
    </g>
    <g id="woman">
      <g>
        <path class="cls-4" d="M161.23,267.45c-2.62-1.24-5.97-4.14-5.97-7.9v-2.17l-7.54-5.5-9.18-7.58v15.25c0,3.76-3.34,6.66-5.97,7.9-5.38,2.55-7.56,5.87-7.56,5.87l15.9,8.69h11.97l15.9-8.69s-2.17-3.32-7.56-5.87Z"/>
        <path class="cls-1" d="M169.41,272.92c-.09-.14-2.35-3.52-7.86-6.13-1.81-.86-4.71-2.98-5.4-5.95,0-.02,0-.04,0-.04,0-.13-.02-.26-.08-.37-.05-.29-.07-.58-.07-.89v-2.17c0-.23-.11-.44-.3-.58l-7.52-5.49-9.17-7.56c-.22-.18-.53-.22-.79-.1-.26.12-.43.37-.43.66v15.25c0,3.65-3.49,6.27-5.55,7.25-5.51,2.6-7.77,5.98-7.86,6.13-.11.17-.14.37-.09.57.05.19.18.36.36.46l15.9,8.69c.36.19.81.07,1.01-.28.2-.35.07-.79-.29-.98l-15.16-8.29c.88-1.04,3.03-3.22,6.78-4.99,3.18-1.5,6.39-4.73,6.39-8.55v-13.7l7.97,6.57s.02.02.03.03l7.24,5.29v1.81c0,.48.05.94.14,1.4-.04.86-.09,3.87.8,5.66.13.26.39.41.67.41.11,0,.22-.02.32-.07.37-.17.52-.61.34-.97-.21-.43-.36-.97-.46-1.53,1.22,1.59,2.9,2.86,4.58,3.65,3.75,1.77,5.89,3.95,6.78,4.99l-15.16,8.29c-.36.19-.48.64-.29.98.14.24.39.37.65.37.12,0,.25-.03.36-.09l15.9-8.69c.18-.1.31-.26.36-.46.05-.19.02-.4-.09-.57Z"/>
      </g>
      <g>
        <path class="cls-4" d="M154.7,276.19c-4.31.83-17.26-4.05-17.26-4.05l8.77,17.77h19.87l1.42-8.86-4.27-9.78s-3.79,4.01-8.52,4.93Z"/>
        <path class="cls-1" d="M146.2,290.63c-.27,0-.54-.15-.67-.41l-8.77-17.77c-.13-.27-.08-.59.12-.8.21-.22.53-.29.81-.18,3.55,1.34,13.49,4.67,16.86,4.02,4.43-.86,8.09-4.67,8.12-4.71.17-.18.42-.26.67-.22.25.04.46.2.55.43l4.27,9.78c.05.12.07.26.05.4l-1.42,8.86c-.06.39-.44.66-.84.6-.4-.06-.68-.43-.62-.83l1.39-8.65-3.77-8.62c-1.39,1.26-4.46,3.67-8.13,4.38-3.54.68-12.22-2.15-15.94-3.46l7.97,16.15c.18.36.02.79-.34.97-.1.05-.21.07-.32.07Z"/>
      </g>
      <g>
        <path class="cls-6" d="M170.64,272.07h0l-7.45-4.48-2.2-2.3-4.88-2.47s7.53,16.41,7.53,20.63c0,1.25-.36,3.68-.86,6.47h15.81c-1.51-5.73-2.88-10.76-3.4-12.31-1.54-4.57-4.56-5.53-4.56-5.53Z"/>
        <path class="cls-1" d="M178.61,290.63c-.33,0-.63-.22-.72-.54-1.8-6.8-2.94-10.92-3.39-12.26-1.39-4.13-3.98-5.03-4.09-5.07-.05-.02-.11-.04-.15-.07l-7.45-4.48c-.06-.03-.11-.08-.15-.12l-2.11-2.21-2.9-1.47c1.99,4.48,6.75,15.55,6.75,19.05,0,1.18-.29,3.34-.87,6.59-.07.39-.45.66-.86.59-.4-.07-.67-.44-.6-.84.56-3.13.85-5.26.85-6.34,0-3.21-4.88-14.71-7.47-20.34-.13-.28-.06-.61.17-.82.23-.21.57-.26.85-.12l4.88,2.47c.08.04.14.09.2.15l2.13,2.23,7.3,4.39c.57.22,3.44,1.49,4.94,5.96.46,1.37,1.61,5.53,3.42,12.35.1.39-.14.78-.53.88-.06.02-.12.02-.19.02Z"/>
      </g>
      <g>
        <path class="cls-6" d="M137.68,262.16l-3.75,3.36v1.11l-8.69,5.44s-6.47,1.34-7.65,7.5c-.42,2.2-.04,6.19.74,10.33h35l-2.65-6.47-13.01-21.28Z"/>
        <path class="cls-1" d="M153.34,290.63c-.29,0-.57-.17-.69-.45l-2.63-6.41-12.51-20.47-2.84,2.55v.79c0,.25-.13.48-.34.61l-8.69,5.44c-.08.05-.16.08-.25.1-.24.05-6,1.33-7.08,6.93-.37,1.94-.1,5.6.74,10.07.07.39-.19.77-.59.84-.4.07-.79-.19-.86-.58-.51-2.72-1.3-7.72-.74-10.6,1.17-6.13,7.07-7.8,8.09-8.05l8.24-5.16v-.71c0-.2.09-.4.24-.53l3.75-3.36c.16-.15.39-.21.61-.18.22.03.41.16.53.34l13.01,21.28s.04.07.05.1l2.65,6.47c.15.37-.03.79-.41.94-.09.04-.18.05-.27.05Z"/>
      </g>
      <path class="cls-1" d="M166.8,290.63c-.06,0-.13,0-.19-.02-.39-.1-.63-.5-.52-.89l.05-.19,1.85-12.31-3.74-2.82c-.18-.13-.28-.33-.29-.55,0-.22.09-.42.25-.57l1.71-1.46-3.29-3.76c-.27-.3-.23-.76.08-1.02.31-.26.78-.22,1.04.08l3.77,4.31c.26.3.23.75-.08,1.02l-1.58,1.35,3.37,2.54c.21.16.32.42.28.68l-1.92,12.77s0,.05-.02.08l-.06.23c-.09.32-.39.54-.71.54Z"/>
      <g>
        <g>
          <g>
            <path class="cls-2" d="M135.85,223.69c3.48-4.86,6.67-5.07,8.22-4.86.57-1.05,3.11-2.84,8.41-2.1,2.97.41,8.29,2.41,11.87,6.61,5.98,7.03,5.45,14.64,5.45,14.64,0,0,1.23,11.68-.87,15.76-1.17,2.27-3.67,4.58-7.8,4.75-2.23.09-22.37-14.32-22.37-14.32,0,1.06.14,7.31,1.35,9.96,1.21,2.65,3.21,3.26,3.21,3.26,0,0-2.01,1.78-5.46,1.15-2.93-.54-7.83-3.29-8.47-11.35-.48-6.14,1.96-17.19,6.46-23.48Z"/>
            <path class="cls-1" d="M128.65,247.23c.79,10,7.69,11.76,9.07,12.01.57.1,1.1.15,1.6.15,1,0,1.85-.18,2.54-.42,0,0,0,0,.01,0,1.21-.42,1.9-1.01,1.95-1.05.2-.17.28-.44.23-.69-.06-.25-.25-.46-.5-.53-.06-.02-1.71-.57-2.75-2.86-.84-1.84-1.16-5.81-1.25-8.22,1.82,1.29,5.43,3.83,9.16,6.35,10.83,7.32,11.94,7.28,12.47,7.25,5.32-.22,7.67-3.67,8.43-5.15,2.12-4.11,1.06-15.09.95-16.1.04-.82.25-8.18-5.63-15.08-3.92-4.61-9.6-6.48-12.33-6.86-5.12-.72-7.87.85-8.87,2.06-2.16-.14-5.26.74-8.46,5.21-4.57,6.38-7.1,17.53-6.59,23.95ZM136.46,224.11c3-4.18,5.72-4.79,7.48-4.56.14.04.9.26,1.34.92.14.21.38.33.62.33.14,0,.28-.04.4-.12.34-.22.44-.66.22-1-.35-.53-.8-.89-1.22-1.13.98-.76,3.18-1.66,7.07-1.11,3.28.46,8.25,2.64,11.41,6.36,5.7,6.71,5.29,14.05,5.28,14.12,0,.04,0,.08,0,.12.01.11,1.19,11.52-.8,15.36-.64,1.25-2.63,4.17-7.17,4.35-1.58-.11-13.76-8.36-21.9-14.18-.22-.16-.52-.18-.77-.06-.25.12-.4.37-.4.65,0,.07.02,7.19,1.41,10.25.7,1.54,1.66,2.47,2.43,3-.11.05-.24.1-.38.15-3.3.34-5.1-3.69-5.11-3.73-.16-.37-.59-.54-.97-.38-.38.16-.55.58-.39.95.05.13.88,1.98,2.51,3.31-1.83-.48-6.75-2.53-7.39-10.59-.48-6.04,2.01-16.98,6.33-23.01Z"/>
          </g>
          <g>
            <path class="cls-4" d="M159.56,231.67c-3.65-3.1-3-4.03-6.62-6.43-3.14-2.09-4.92-.67-4.92-.67,0,0-.28,5.71-2.14,9.24-3.17,6.03-5.6,6.19-5.6,6.19l-1.74-.77c0,1.35,0,2.26,0,2.26v4.83l5.63,8.31s6.77,6.26,12.48,6.2c3.36-.03,10.29-6.7,10.29-14.02,0-3.74.51-5.49.66-7.07.06-.65.05-2.26-.53-3.07-.58-.81-3.86-1.92-7.49-5Z"/>
            <path class="cls-1" d="M143.66,255.17c-.3-.27-.31-.73-.03-1.02.28-.29.75-.3,1.04-.03.07.06,6.56,6,11.89,6,.02,0,.05,0,.07,0,2.99-.03,9.56-6.48,9.56-13.3,0-2.73.26-4.41.47-5.75.08-.52.15-.96.19-1.39.07-.72,0-2.04-.4-2.59-.14-.2-.93-.64-1.63-1.03-1.4-.78-3.52-1.96-5.74-3.85-1.71-1.45-2.51-2.44-3.21-3.31-.81-1.01-1.46-1.81-3.34-3.07-2-1.33-3.28-1.05-3.79-.84-.1,1.38-.55,6.02-2.2,9.14-3.27,6.22-5.92,6.57-6.21,6.58-.12,0-.24-.01-.35-.06l-.7-.31c0,.71,0,1.14,0,1.14v4.83c0,.4-.33.72-.74.72s-.74-.32-.74-.72v-4.83s0-.91,0-2.27c0-.25.13-.47.34-.61s.48-.15.7-.05l1.51.67c.54-.19,2.45-1.15,4.87-5.76,1.76-3.35,2.06-8.89,2.06-8.95.01-.2.11-.4.27-.53.09-.07,2.24-1.73,5.8.63,2.07,1.38,2.81,2.3,3.67,3.37.66.82,1.41,1.76,3.01,3.12,2.11,1.79,4.07,2.88,5.51,3.68,1.11.62,1.78.99,2.11,1.45.88,1.22.67,3.46.67,3.56-.05.47-.12.96-.2,1.47-.2,1.3-.46,2.91-.46,5.53,0,7.4-6.97,14.71-11.02,14.75-.03,0-.06,0-.08,0-5.91,0-12.62-6.14-12.91-6.4Z"/>
          </g>
          <g>
            <path class="cls-4" d="M139.61,239.12c-1.11-1.1-5.68-1.61-5.68,3.89,0,3.5,3.59,6.83,6.88,6l-.11-7.97s-.21-1.05-1.08-1.92Z"/>
            <path class="cls-1" d="M139.77,249.86c.41,0,.82-.05,1.22-.15.4-.1.63-.49.53-.88-.1-.39-.51-.62-.9-.52-1.16.29-2.48-.04-3.63-.91-1.44-1.09-2.33-2.77-2.33-4.39,0-1.94.61-3.22,1.77-3.68,1.1-.44,2.31-.04,2.65.3.69.69.88,1.54.88,1.55.08.39.47.64.87.57.4-.08.66-.45.58-.84-.01-.05-.26-1.28-1.28-2.29-.81-.8-2.66-1.26-4.26-.62-1,.4-2.69,1.59-2.69,5.02,0,2.06,1.11,4.18,2.9,5.53,1.14.86,2.43,1.32,3.68,1.32Z"/>
          </g>
          <g>
            <path class="cls-4" d="M138.83,248.87c0,.71.59,1.29,1.31,1.29.73,0,1.31-.58,1.31-1.29,0-.71-.59-1.29-1.31-1.29-.73,0-1.31.58-1.31,1.29Z"/>
            <path class="cls-1" d="M138.09,248.87c0-1.11.92-2.01,2.05-2.01h0c.55,0,1.06.21,1.45.59.39.38.6.88.6,1.42,0,1.11-.92,2.01-2.05,2.01h0c-1.13,0-2.05-.9-2.05-2.01ZM140.15,248.31c-.32,0-.57.25-.57.56,0,.31.26.56.57.56h0c.32,0,.57-.25.57-.56,0-.15-.06-.29-.17-.4-.11-.11-.25-.16-.41-.16h0Z"/>
          </g>
        </g>
        <path class="cls-1" d="M158.5,248.8c.02-.25.47-.31.91-.61.43-.33.65-.75.88-.67.23.08.61,1.04-.25,1.69-.89.6-1.56-.14-1.54-.4Z"/>
        <path class="cls-1" d="M147.8,237.93c-.19,0-.37-.08-.5-.23-.23-.27-.2-.68.08-.91,1.13-.93,3.78-1.93,6.46-.86.34.13.5.51.36.84-.14.33-.52.49-.86.35-2.14-.85-4.23-.08-5.12.65-.12.1-.27.15-.42.15Z"/>
        <path class="cls-1" d="M164.3,237.51c-.12,0-.24-.03-.34-.1-.68-.41-2.27-.92-3.93-.25-.34.14-.72-.02-.86-.35-.14-.33.02-.7.36-.84,2.15-.87,4.23-.19,5.12.35.31.19.4.58.21.89-.12.2-.34.31-.56.31Z"/>
        <path class="cls-1" d="M156.38,255.95h0c-2.68,0-3.65-3.85-3.69-4.01-.05-.19,0-.39.12-.55.12-.15.31-.24.52-.24h6.19c.2,0,.4.1.52.25.12.16.17.36.12.56-.04.16-1.09,4-3.77,4ZM154.23,252.43c.35.9,1.07,2.23,2.15,2.23h0c1.09,0,1.83-1.33,2.21-2.23h-4.36Z"/>
        <path class="cls-1" d="M148.41,241.03c-.05,0-.1,0-.16-.02-.4-.08-.65-.47-.57-.86.26-1.19,1.57-1.94,2.17-2.12,2.12-.63,3.35.66,3.4.71.27.3.25.75-.05,1.02-.3.27-.76.24-1.04-.04-.07-.07-.7-.66-1.88-.31-.35.1-1.05.58-1.15,1.04-.07.34-.38.57-.72.57Z"/>
        <path class="cls-1" d="M159.63,241.03c-.08,0-.17-.01-.25-.04-.38-.14-.58-.55-.44-.93.36-.97,1.2-1.64,2.36-1.89.95-.21,2.35.01,3.15,1.3.21.34.1.79-.25.99-.35.21-.8.1-1.02-.24-.51-.82-1.39-.68-1.57-.64-.67.15-1.11.47-1.29.97-.11.29-.39.48-.69.48Z"/>
        <path class="cls-1" d="M150.53,239.9c.31-.32.71-.5,1.09-.51.29,0,.6.12.86.36.37.33.6.83.6,1.3,0,.43-.21.88-.57,1.21-.28.26-.61.4-.93.4-.01,0-.02,0-.03,0-.7-.01-1.44-.85-1.49-1.69-.02-.35.15-.75.47-1.07Z"/>
        <path class="cls-1" d="M161.6,239.9c.28-.31.64-.5.98-.51.26,0,.54.12.77.36.33.33.54.83.54,1.3,0,.43-.19.88-.51,1.21-.25.26-.55.4-.83.4,0,0-.02,0-.03,0-.63-.01-1.29-.85-1.34-1.69-.02-.35.14-.75.42-1.07Z"/>
      </g>
      <path class="cls-1" d="M172.9,290.63c-.39,0-.71-.29-.74-.68-.28-4.24-.94-8.58-.95-8.62-.06-.4.22-.76.62-.82.4-.06.78.21.84.61,0,.04.68,4.44.96,8.75.03.4-.28.74-.69.77-.02,0-.03,0-.05,0Z"/>
      <g>
        <path class="cls-4" d="M206.58,256.79c.13-.13.44-.53.04-1.17-.58-.93-3.9.41-5.18,1.1-1.24-.68-4.3-.31-9.6,4.55,0,0-3.71,3.37-3.98,3.45.22-.77,2.6-3.53,3.16-4.46.84-1.37.24-2.96-.55-3.08-1.6-.25-1.79,1.55-3.57,3.31-1.78,1.76-5.59,6.83-6.31,9.4-.76,2.68.41,5.27.41,5.27l-1.66,12.23,8.42,1.61s1.49-10.61,2.48-11.87c.99-1.26,5.59-6.31,8.58-8.77,3.6-2.96,5.93-5.44,6.33-5.95,1.02-1.3-.09-2.47-.95-2.07,1.53-1.32,3.24-1.73,3.06-2.84-.05-.31-.24-.61-.69-.69Z"/>
        <path class="cls-1" d="M185.98,273.46c-.09,0-.17-.01-.26-.04-.38-.14-.58-.55-.44-.93,1.2-3.17,3.44-4.04,5.61-4.87,1.2-.46,2.33-.9,3.34-1.71.32-.25.78-.21,1.04.1.26.31.21.77-.1,1.02-1.2.96-2.49,1.46-3.74,1.94-2.04.78-3.8,1.46-4.77,4.03-.11.29-.39.47-.69.47Z"/>
        <path class="cls-1" d="M208,257.36c-.06-.36-.22-.67-.46-.89.06-.36,0-.78-.29-1.23-.99-1.57-4.7.11-5.84.67-1.27-.44-4.17-.43-9.58,4.37.49-1.04.36-2.08.04-2.75-.29-.6-.76-1-1.29-1.08-1.49-.23-2.18.79-2.84,1.78-.36.54-.77,1.14-1.37,1.74-1.79,1.78-5.72,6.95-6.5,9.72-.7,2.49.1,4.86.37,5.55l-1.63,12.04c-.05.4.23.76.64.81.4.05.78-.23.83-.62l1.45-10.72h0c.15.16.34.23.54.23.18,0,.37-.07.51-.2.3-.27.31-.73.03-1.02l-.98-1.01c-.19-.49-.92-2.58-.33-4.68.68-2.41,4.43-7.41,6.13-9.09.7-.7,1.17-1.4,1.55-1.96.67-1,.88-1.22,1.36-1.15.05.02.18.15.27.42.16.5.08,1.09-.22,1.58-.2.32-.68.95-1.19,1.61-.87,1.12-1.49,1.94-1.82,2.52l-1.17.05c-.41.02-.72.36-.7.76.02.39.35.69.74.69.01,0,.02,0,.03,0l1.62-.07s.01,0,.02,0c.04,0,.08,0,.11-.02,0,0,.02,0,.03,0,0,0,0,0,.01,0,.03,0,.06-.02.11-.04,0,0,0,0,.01,0,.26-.13.98-.68,4.16-3.57,3.13-2.86,5.27-4,6.66-4.4-2.33,1.66-5.24,4.12-5.41,4.26-.31.26-.34.72-.08,1.02.15.17.35.25.56.25.17,0,.34-.06.48-.18,1.48-1.25,5.65-4.66,7.19-5.37,0,0,0,0,.01,0,0,0,.02,0,.03-.01,1.54-.82,3.7-1.49,4.22-1.3,0,0,0,0,0,0-.6.06-1.54.33-2.91,1.13-1.79,1.04-7.8,5.85-8.05,6.06-.32.25-.36.71-.1,1.02.15.17.36.27.57.27.16,0,.33-.05.47-.16.06-.05,6.18-4.94,7.87-5.93,1.79-1.05,2.52-.93,2.53-.93-.04,0-.06-.02-.06-.02h0s.08.02.12.03c.04,0,.05.01.06.01h0s.01.02.02.08c.04.23-.43.54-1.14.99-.51.32-1.08.68-1.65,1.17l-7.03,5.15c-.33.24-.39.69-.15,1.01.15.19.37.29.59.29.15,0,.31-.05.44-.14l6.95-5.09c.06,0,.13.04.17.09.13.16.16.48-.16.89-.41.52-2.73,2.97-6.22,5.84-2.95,2.43-7.6,7.49-8.69,8.89-1.03,1.31-2.27,9.68-2.62,12.21-.06.4.23.76.63.82.03,0,.07,0,.1,0,.36,0,.68-.26.73-.63.72-5.12,1.79-10.83,2.33-11.53.89-1.14,5.44-6.16,8.47-8.66,3.63-2.99,6-5.49,6.45-6.07.84-1.08.6-2.12.14-2.68-.03-.03-.06-.06-.08-.1.14-.09.27-.17.41-.26.98-.61,1.99-1.25,1.8-2.43Z"/>
      </g>
      <g>
        <path class="cls-6" d="M176.33,289.91h13.21c.33-2.77.56-4.66.56-4.66,0,0-7.59-2.38-12.47-3.79-.43,2.87-.89,5.84-1.3,8.45Z"/>
        <path class="cls-1" d="M176.33,290.63s-.07,0-.11,0c-.4-.06-.68-.43-.62-.82.48-3.12.92-5.97,1.3-8.45.03-.21.15-.39.33-.5.18-.11.4-.14.61-.08,4.84,1.39,12.42,3.77,12.49,3.8.34.11.55.43.51.78,0,0-.23,1.9-.56,4.66-.05.4-.41.68-.82.63-.41-.05-.7-.41-.65-.8.22-1.85.4-3.31.49-4.07-1.75-.55-7.07-2.2-11.06-3.37-.35,2.29-.74,4.85-1.17,7.63-.06.36-.37.61-.73.61Z"/>
      </g>
      <g>
        <path class="cls-1" d="M148.46,253.12c.24,0,.49,0,.73-.02.41-.03.71-.37.69-.77-.03-.4-.38-.7-.79-.67-6.42.44-9.86-5.94-10.36-6.94v-9.44c.02-.36.5-7.79,5.18-10.7.34-.21.45-.66.23-1-.22-.34-.68-.44-1.02-.22-5.43,3.37-5.85,11.52-5.87,11.87,0,.01,0,.02,0,.03v9.63c0,.1.02.2.06.29.04.09.97,2.14,2.88,4.14,2.38,2.5,5.22,3.81,8.27,3.81Z"/>
        <g>
          <ellipse class="cls-1" cx="149.13" cy="252.37" rx=".99" ry=".96"/>
          <path class="cls-1" d="M147.41,252.37c0-.93.77-1.69,1.72-1.69s1.72.76,1.72,1.69-.77,1.69-1.72,1.69-1.72-.76-1.72-1.69ZM148.89,252.37c0,.13.11.24.25.24s.25-.11.25-.24-.11-.24-.25-.24-.25.11-.25.24Z"/>
        </g>
        <g>
          <path class="cls-4" d="M133.47,244.11c0-3.17,1.37-5.76,3.11-5.96h0s2.6-.01,2.6-.01c1.84,0,3.32,2.68,3.32,5.98s-1.49,5.98-3.32,5.98h-2.39s0,0,0,0c0,0,0,0,0,0h-.21c-1.74-.21-3.11-2.8-3.11-5.98Z"/>
          <path class="cls-1" d="M132.73,244.11c0,3.48,1.54,6.3,3.62,6.66.07.03.15.04.24.04h.2s.01,0,.02,0,.01,0,.02,0h2.37c2.28,0,4.06-2.94,4.06-6.7s-1.78-6.7-4.06-6.7h-2.6c-.09,0-.17.01-.25.04-2.07.36-3.6,3.18-3.6,6.66ZM134.21,244.11c0-2.97,1.27-5.11,2.46-5.24.02,0,.04,0,.06,0h.07c.77,0,1.57.83,2.07,2.18.11.29.39.48.69.48.08,0,.17-.01.25-.04.38-.14.58-.55.44-.93-.24-.65-.54-1.2-.89-1.67,1.17.19,2.41,2.29,2.41,5.24s-1.23,5.04-2.41,5.24c.35-.46.65-1.02.89-1.67.14-.38-.06-.79-.44-.93-.38-.14-.81.06-.95.43-.5,1.34-1.29,2.18-2.07,2.18h-.07s-.04,0-.06,0c-1.19-.14-2.46-2.27-2.46-5.24Z"/>
        </g>
      </g>
      <g>
        <path class="cls-4" d="M136.88,253.75l-.2-5.23s1.02-3.44.87-4.72c-.2-1.66-1.3-1.47-1.3-1.47,0,0-.01-.69-.58-1.07-.57-.38-1-.21-1-.21,0,0,.51-1.56-.85-1.94-1.29-.36-2.27,1.44-2.27,1.44,0,0-2.65,1.36-3.39,2.59-.74,1.23-1.88,4.12-1.88,4.12,0,0-.25,5.67-.02,7.06.11.63,1.72,3.57,2.83,6.28,1.32,3.22,2.11,6.36,2.11,6.36l-2.19,15.61,8.8,3.56,1.06-18.37s.74-2.84.51-5.17c-.23-2.33-2.5-8.85-2.5-8.85Z"/>
        <path class="cls-1" d="M140.12,262.52c-.22-2.25-2.2-8.04-2.5-8.91l-.19-5.01c.2-.69,1.01-3.6.86-4.89-.1-.82-.4-1.41-.9-1.77-.18-.13-.36-.21-.53-.26-.12-.33-.34-.72-.78-1.01-.2-.13-.39-.22-.58-.28,0-.32-.06-.69-.25-1.04-.25-.45-.67-.78-1.23-.93-1.36-.38-2.48.75-3.01,1.6-.68.37-2.76,1.56-3.49,2.76-.77,1.27-1.89,4.11-1.94,4.23-.03.07-.05.15-.05.23-.03.59-.25,5.79-.01,7.2.07.4.41,1.12,1.11,2.58.54,1.12,1.22,2.52,1.76,3.84,1.14,2.76,1.88,5.51,2.05,6.13l-2.17,15.47c-.06.4.23.76.63.82.4.05.78-.22.83-.62l2.19-15.61c.01-.09,0-.18-.01-.27-.03-.13-.82-3.23-2.15-6.46-.56-1.36-1.25-2.78-1.8-3.92-.44-.92-.94-1.95-.99-2.2-.17-1.05-.04-5.15.03-6.79.21-.53,1.16-2.87,1.78-3.9.2-.34.65-.73,1.16-1.11l-2.01,4.67c-.03.08-.05.16-.06.25l-.27,5.95c-.02.4.3.74.71.75.01,0,.02,0,.03,0,.39,0,.72-.3.74-.69l.26-5.82,2.86-6.65c.16-.28.82-1.23,1.4-1.07.21.06.29.15.32.22.07.13.08.32.07.49-.48.22-1.17.71-1.65,1.76-.42.94-1.98,4.97-2.04,5.15-.03.07-.04.15-.05.23l-.18,5.53c-.01.4.31.73.72.75,0,0,.02,0,.02,0,.4,0,.73-.31.74-.7l.17-5.41c.26-.67,1.6-4.14,1.97-4.96.31-.68.73-.95.95-1.05.08,0,.16-.03.24-.08.04,0,.16.01.33.12.02.01.03.03.05.04-.4.28-.84.8-1.19,1.78-.31.87-1.24,3.96-1.28,4.09-.02.07-.03.14-.03.2v5.33c0,.4.33.72.74.72s.74-.32.74-.72v-5.22c.17-.55.96-3.18,1.23-3.93.28-.8.57-1.03.67-1.09.06,0,.12,0,.18-.02.22,0,.39.32.46.84.1.82-.46,3.15-.84,4.43-.02.07-.03.15-.03.23l.2,5.23c0,.07.02.14.04.21.02.06,2.25,6.46,2.46,8.68.21,2.17-.48,4.89-.49,4.92-.01.05-.02.09-.02.14l-1.06,18.37c-.02.4.29.74.7.76.01,0,.03,0,.04,0,.39,0,.72-.3.74-.68l1.06-18.3c.12-.47.73-3.1.51-5.34Z"/>
      </g>
      <g>
        <path class="cls-6" d="M126.93,289.91h13.9c.63-5.4,1.16-10.1,1.16-10.1l-12.51-6.24-2.55,16.34Z"/>
        <path class="cls-1" d="M126.93,290.63s-.07,0-.11,0c-.4-.06-.68-.43-.62-.82l2.55-16.34c.04-.23.18-.43.39-.53.21-.11.46-.11.67,0l12.51,6.24c.27.14.43.42.4.72,0,.05-.54,4.76-1.16,10.1-.05.4-.41.68-.82.64-.41-.05-.7-.4-.65-.8.51-4.33.95-8.25,1.1-9.6l-11.14-5.56-2.4,15.35c-.06.36-.37.61-.73.61Z"/>
      </g>
      <path class="cls-1" d="M127.91,277.7c-.24,0-.47-.11-.61-.32-.52-.75-1.08-1.44-1.68-2.07-.28-.29-.26-.75.04-1.02.3-.27.77-.26,1.04.03.65.68,1.27,1.44,1.82,2.25.23.33.14.78-.2,1-.13.08-.27.12-.41.12Z"/>
      <g>
        <path class="cls-1" d="M184.4,243.34c-.2,0-.4-.08-.55-.24-.27-.3-.25-.76.06-1.02l2.57-2.25c.3-.27.77-.24,1.04.06.27.3.25.76-.06,1.02l-2.57,2.25c-.14.12-.32.18-.49.18Z"/>
        <path class="cls-1" d="M181.23,241.21c-.06,0-.12,0-.17-.02-.4-.09-.64-.48-.55-.87l.68-2.76c.1-.39.49-.63.89-.53.4.09.64.48.55.87l-.68,2.76c-.08.33-.38.55-.72.55Z"/>
        <path class="cls-1" d="M186.21,246.66c-.37,0-.68-.27-.73-.63-.05-.4.24-.76.64-.81l2.88-.36c.4-.05.77.23.83.63.05.4-.24.76-.64.81l-2.88.36s-.06,0-.09,0Z"/>
      </g>
    </g>
  </g>
</svg>