<?xml version="1.0" encoding="UTF-8"?>
<svg id="_レイヤー_2" data-name="レイヤー 2" xmlns="http://www.w3.org/2000/svg" viewBox="0 0 710 142.92">
  <defs>
    <style>
      .cls-1 {
        fill: #202933;
      }

      .cls-2 {
        fill: #ffaf50;
      }

      .cls-3 {
        isolation: isolate;
      }

      .cls-4 {
        fill: #fff;
      }

      .cls-5 {
        fill: #0079b9;
      }

      .cls-6 {
        fill: #4c84d6;
      }
    </style>
  </defs>
  <g id="_レイヤー_1-2" data-name="レイヤー 1">
    <g class="cls-3">
      <polygon class="cls-4" points="145 140.92 145 81.08 126.59 83.31 145 65.19 145 2 708 2 708 140.92 145 140.92"/>
      <path class="cls-5" d="M706,4v134.92H147v-60.1l-4.48.54-10.34,1.25,13.63-13.41,1.19-1.18V4h559M710,0H143v64.36l-22,21.64,22-2.67v59.59h567V0h0Z"/>
    </g>
    <g class="cls-3">
      <path class="cls-5" d="M199,31.86v35.27h-6.28v-2.64h-16.6v2.64h-6V31.86h28.88ZM176.12,37.74v7.32h16.6v-7.32h-16.6ZM192.72,58.62v-7.8h-16.6v7.8h16.6Z"/>
      <path class="cls-5" d="M231,42.94c3.04,5.52,7.8,10.64,13.24,13.6-1.44,1.2-3.52,3.64-4.52,5.28-2.2-1.44-4.24-3.16-6.12-5.16v4.6h-6.04v6.36h-6.2v-6.36h-6.32v-4.12c-1.76,1.84-3.72,3.48-5.8,4.84-1-1.44-2.92-3.68-4.24-4.84,5.4-3.04,10.04-8.4,13-14.2h-11.32v-5.92h14.68v-7.4h6.2v7.4h14.8v5.92h-11.36ZM221.36,55.34v-6.76c-1.4,2.44-2.96,4.72-4.68,6.76h4.68ZM232.4,55.34c-1.8-2.08-3.4-4.4-4.84-6.88v6.88h4.84Z"/>
      <path class="cls-5" d="M260.64,40.94h-15.16v-4.52h15.16v4.52ZM259.52,66.17h-7.4v1.44h-4.84v-13.88h12.24v12.44ZM259.16,46.62h-11.72v-4.32h11.72v4.32ZM247.44,47.98h11.72v4.32h-11.72v-4.32ZM259.24,35.1h-11.56v-4.32h11.56v4.32ZM252.12,58.26v3.4h2.48v-3.4h-2.48ZM283.63,45.58v5.04h-23.44v-5.04h4.72c.2-.96.4-2,.56-3.08h-3.04v-4.88h3.8l.28-2.12h-4.72v-4.92h20.36v4.92h-10l-.32,2.12h8.44v7.96h3.36ZM263.08,52.22h17.96v15.24h-5.68v-1.2h-6.84v1.36h-5.44v-15.4ZM268.52,57.38v3.72h6.84v-3.72h-6.84ZM271.08,42.5c-.2,1.08-.36,2.12-.56,3.08h4.2v-3.08h-3.64Z"/>
      <path class="cls-5" d="M321.2,42.22c-.76,5.64-2,10.36-4,14.32,1.76,2.52,3.96,4.6,6.76,6.04-1.32,1.16-3.16,3.48-4.04,5.08-2.56-1.52-4.6-3.48-6.32-5.8-2.12,2.4-4.76,4.36-8,5.96-.56-1.36-2.24-4.08-3.32-5.32,3.56-1.48,6.2-3.52,8.16-6.16-.88-2.04-1.64-4.28-2.28-6.64-.4.68-.84,1.28-1.32,1.88-.6-.72-1.8-1.88-2.96-2.84-1.52,1.88-3.48,3.88-5.4,5.52v.36c2.24-.16,4.52-.32,6.72-.48v4.92c-2.2.2-4.48.36-6.72.52v2.8c0,2.36-.4,3.68-2,4.44-1.6.76-3.56.84-6.08.84-.2-1.48-.92-3.56-1.6-4.92,1.32.04,3.08.04,3.56.04.52,0,.68-.12.68-.56v-2.2l-7.16.52-.56-5.12c2.2-.12,4.84-.28,7.72-.44v-2.88h1.68c.48-.44.96-.92,1.44-1.44h-1.92c-1.76,1.44-3.64,2.72-5.6,3.84-.76-1.16-2.72-3.4-3.84-4.44,1.48-.72,2.92-1.56,4.28-2.48v-1.36h1.88c.6-.48,1.2-.96,1.76-1.48h-7v-4.96h5.36v-2h-4.12v-4.84h4.12v-3.32h5.36v3.32h3.32v2.84c.92-1.64,1.68-3.36,2.36-5.16l5.36,1.52c-1.08,2.72-2.36,5.28-3.8,7.64h1.68v2.6c1.68-3.68,2.8-8.16,3.44-12.8l5.88.92c-.36,2.16-.8,4.28-1.32,6.36h10.12v5.36h-2.28ZM296.44,39.78h.76c.48-.64.96-1.32,1.4-2h-2.16v2ZM301.08,45.94l1.44,1.16c.56-.72,1.12-1.52,1.64-2.36h-4c-.44.52-.84,1-1.28,1.48h1.16l1.04-.28ZM312.04,42.22c.44,2.52,1,4.96,1.76,7.2.64-2.16,1.12-4.56,1.44-7.2h-3.2Z"/>
      <path class="cls-5" d="M357.48,47.3l-.24-.32v15.44c0,2.6-.64,3.8-2.52,4.52-1.88.68-4.4.72-7.68.72-.28-1.4-1.04-3.32-1.72-4.6,1.72.12,4.44.12,5.04.08.72,0,.96-.2.96-.76v-.92h-13.72v6.2h-5.84v-21.08h25.16c-.48-.6-1.08-1.2-1.72-1.88-9.88.4-20.28.68-27.28.84l-.16-5.2,5.6-.04c.52-.84,1-1.68,1.48-2.52h-8.36v-5.04h14.96v-3.16h6v3.16h14.88v5.04h-6.64c2.6,2.04,5.4,4.4,6.96,6.28l-5.16,3.24ZM337.6,51.22v1.2h13.72v-1.2h-13.72ZM351.32,57.54v-1.24h-13.72v1.24h13.72ZM342.16,37.78c-.68.84-1.4,1.64-2.08,2.44,3.2-.04,6.6-.08,10-.16-.56-.44-1.12-.88-1.64-1.28l1.68-1h-7.96Z"/>
      <path class="cls-5" d="M374.48,43.02c3.08,0,5.6,2.52,5.6,5.6s-2.52,5.6-5.6,5.6-5.6-2.52-5.6-5.6,2.52-5.6,5.6-5.6Z"/>
      <path class="cls-5" d="M385.24,63.82c2.36-1.56,4.16-4.08,5.04-6.76l4.88,1.76c-1.08,3.12-2.64,6.12-5.4,8.08l-4.52-3.08ZM421.99,42.22h-34.95v-4.44h8.08c-.2-.64-.4-1.32-.6-1.88h-5.48v-4.44h12.48v-1.84h5.84v1.84h12.48v4.44h-4.72c-.48.72-.92,1.36-1.32,1.88h8.2v4.44ZM407.92,62.58c1.36,0,1.6-.4,1.8-2.88,1.12.76,3.4,1.52,4.88,1.8-.6,4.52-2.08,5.68-6.12,5.68h-5.88c-5.64,0-6.96-1.4-6.96-5.76v-3.68h4l1.64-1.6h-10.2v-12.56h27.32v12.56h-11.96c1.16.6,2.2,1.2,2.96,1.76l-3.52,3.56c-1-.84-2.8-1.96-4.6-2.84v2.72c0,1.12.32,1.24,2.04,1.24h4.6ZM396.56,48.22h16.08v-1.2h-16.08v1.2ZM396.56,52.7h16.08v-1.24h-16.08v1.24ZM400.28,35.9c.24.68.48,1.36.6,1.88h7.32l-.2-.04c.2-.56.48-1.24.72-1.84h-8.44ZM417.4,56.5c2.32,2.12,5.04,5.12,6.24,7.4l-4.84,2.76c-1.04-2.16-3.6-5.4-5.92-7.68l4.52-2.48Z"/>
      <path class="cls-5" d="M438.28,40.78h-12.8v-4.52h12.8v4.52ZM437.52,65.5h-6.24v1.52h-4.36v-13.88h10.6v12.36ZM437.36,46.3h-10.28v-4.32h10.28v4.32ZM427.08,47.5h10.28v4.32h-10.28v-4.32ZM437.36,35.1h-10.12v-4.32h10.12v4.32ZM431.28,57.62v3.4h1.76v-3.4h-1.76ZM463.11,51.7c-1.2,3.08-2.84,5.88-4.68,8.32.32.88.72,1.36,1.2,1.44.48.04.8-1.56.92-4.08.76,1.16,2.68,2.72,3.48,3.28-1.12,5.84-3.16,7.12-4.68,7.04-2-.16-3.48-1.36-4.52-3.64-1.52,1.44-3.08,2.68-4.64,3.64-.64-.92-2.12-2.4-3.16-3.2.56-.32,1.12-.72,1.68-1.12h-5.04v1.16h-4.32v-15.48h11.64v12.44c.8-.76,1.6-1.6,2.36-2.48-.56-3.04-.88-6.8-1.04-11.32h-14.24v-4.6h2.56c-.04-1.36-.36-3.2-.84-4.68l3.6-.8h-4.56v-4.28h3.72v-3.72h5.28v3.72h3.64v4.28h-4.04l3.56.56c-.52,1.8-.88,3.6-1.2,4.92h2.4c-.12-4-.12-8.44-.12-13.4h4.92l-.08,4.04,3.52-1.32c1.48,2.2,2.8,5.2,3.28,7.28l-4.6,1.84c-.28-1.68-1.16-4.08-2.2-6.12-.04,2.72-.04,5.32-.04,7.68h6.44v4.6h-6.36c.08,2,.16,3.8.28,5.4.64-1.2,1.16-2.48,1.64-3.8l4.24,2.4ZM443.6,37.62c.6,1.52,1.04,3.52,1.08,4.88l-2.52.6h5.48l-1.84-.36c.24-1.48.52-3.56.6-5.12h-2.8ZM443.68,52.98v1.32h2.68v-1.32h-2.68ZM446.36,59.46v-1.4h-2.68v1.4h2.68Z"/>
      <path class="cls-5" d="M500.59,41.94c-.96,5.72-2.4,10.44-4.64,14.4,2.12,2.56,4.8,4.64,8.2,6-1.32,1.16-3.16,3.56-4,5.16-3.24-1.56-5.84-3.6-7.96-6.08-2.52,2.64-5.64,4.76-9.56,6.4-.6-1.32-2.36-3.92-3.48-5.16,4.16-1.48,7.32-3.56,9.68-6.32-1.28-2.44-2.28-5.16-3.16-8.12-.36.52-.76,1.04-1.16,1.52-.56-.52-1.48-1.24-2.44-1.96v1.56h-5.6v-1.24h-4.16v6.72c0,1.52.2,1.68,1.52,1.68h3.2c1.12,0,1.36-.52,1.52-3.92,1.12.88,3.56,1.84,5.16,2.2-.68,5.64-2.2,7.2-6.16,7.2h-4.6c-4.88,0-6.28-1.6-6.28-7.08v-12.04h9.8v-5.08h-9.76v-5.36h15.36v10.08c2.16-3.52,3.68-8.12,4.56-12.84l6.08,1.12c-.4,1.92-.92,3.84-1.48,5.68h12.24v5.48h-2.88ZM489.72,41.94c.64,3.08,1.48,5.92,2.64,8.52,1.04-2.48,1.76-5.32,2.24-8.52h-4.88Z"/>
      <path class="cls-5" d="M542.91,62.22h-15.52v5.4h-6.08v-5.4h-15.16v-5.24h15.16v-1.68h-10.88v-10.92h10.88v-1.48h-7.24v-5.76h-7.32v-4.88h7.32v-2.68h5.72v2.68h9.08v-2.68h6.04v2.68h7.32v4.88h-7.32v5.76h-7.52v1.48h11.44v10.92h-11.44v1.68h15.52v5.24ZM521.32,50.9v-2.08h-5v2.08h5ZM519.8,38.7h9.08v-1.56h-9.08v1.56ZM527.4,48.82v2.08h5.16v-2.08h-5.16Z"/>
      <path class="cls-5" d="M549.48,35.66c3.72-.32,9.72-.8,16.96-1.44,3.96-.32,8.64-.56,11.52-.68l.04,6.16c-2.04.04-5.4.04-7.6.48-4.28.96-7.96,5.6-7.96,10.28,0,5.84,5.48,8.12,12.32,8.52l-2.24,6.68c-8.84-.68-16.4-5.48-16.4-13.92,0-5.44,2.88-9.64,5-11.56-3.4.36-10.36,1.16-15.12,2.2l-.6-6.52c1.6-.04,3.32-.12,4.08-.2ZM575.6,48.38l-3.56,1.56c-1.08-2.32-1.76-3.64-3.04-5.48l3.48-1.44c1,1.48,2.4,3.88,3.12,5.36ZM580.31,46.3l-3.52,1.68c-1.16-2.28-1.92-3.52-3.24-5.32l3.44-1.56c1.04,1.44,2.52,3.76,3.32,5.2Z"/>
      <path class="cls-5" d="M187.52,111.34c1.12.12,2.28.16,3.48.16,2.52,0,9.04,0,12.16-.12-.84,1.36-1.76,4.16-2.04,5.92h-10.44c-6.96,0-12.2-1.12-15.8-6.28-1.24,2.76-2.88,5.08-5,6.88-.96-1.04-3.44-3.12-4.8-4,4.28-3.04,6.16-8.52,6.76-15.2l6.08.6c-.2,1.72-.48,3.4-.84,4.96,1.04,2.64,2.52,4.32,4.36,5.4v-12.52h-7.76v-5.52h21.44v5.52h-7.6v4.08h10.48v5.44h-10.48v4.68ZM172.76,94.22h-5.72v-10.8h14.28v-3.72h6.24v3.72h14.4v10.8h-6v-5.32h-23.2v5.32Z"/>
      <path class="cls-5" d="M220.16,98.5c-.16.4-.32.76-.48,1.16h19.48v17.92h-6.12v-1h-12.4v1h-5.8v-9.68c-1.68,2.08-3.56,3.92-5.6,5.36-.88-1.16-3.08-3.36-4.32-4.36,3.88-2.32,7-6.04,8.88-10.4h-7.24v-4.48h14.84v-1.04h-10.96v-4.12h10.96v-1.12h-13.08v-4.44h6.32c-.4-.76-.88-1.56-1.36-2.2l5.16-1.6c1,1.12,1.92,2.64,2.36,3.8h7.6c.64-1.16,1.4-2.68,1.76-3.8l6.4,1.52c-.68.84-1.36,1.6-1.92,2.28h6.28v4.44h-13.52v1.12h11.32v4.12h-11.32v1.04h15v4.48h-22.24ZM220.64,103.7v.88h12.4v-.88h-12.4ZM233.04,107.66h-12.4v.88h12.4v-.88ZM233.04,112.54v-.92h-12.4v.92h12.4Z"/>
      <path class="cls-5" d="M267.36,105.62h15.36v5.36h-15.36v6.6h-6v-6.6h-15.04v-5.36h15.04v-2.2l-5.32.4-.44-2.6c-2.44,1.2-5,2.36-7.16,3.32l-2.72-4.68c2.56-.76,6.44-2.16,10.16-3.52l.68,2.8,2.48-.08c.56-.52,1.12-1.08,1.72-1.68-1.48-1.16-3.36-2.52-4.92-3.56l-3.12,2.6c-1.2-1.28-3.84-3.2-5.88-4.44l3.84-3.08c1.8.96,4.16,2.48,5.64,3.68l1.84-2.28.84.52c.52-.8.96-1.6,1.4-2.4h-12.68v-5.24h13.64v-3.52h6v3.52h14.04v5.24h-16.08l.68.24c-1.2,1.52-2.44,3.08-3.56,4.4.52.32.96.68,1.4,1,1.28-1.48,2.48-3,3.4-4.32l4.48,2c-1.48,1.68-3.12,3.4-4.8,5.08l3.56-1.48c.6.88,1.28,1.84,1.84,2.84l2.6-2.04c2.56,1.32,6.16,3.44,8,4.96l-4.2,3.44c-1.08-1.04-3-2.4-4.96-3.64.28.64.52,1.24.68,1.8l-4.36,1.92c-.16-.56-.36-1.2-.64-1.88-2.44.2-4.88.4-7.2.6h5.12v2.28ZM267.44,98.7c-.28-.52-.6-1.04-.92-1.48-.56.52-1.12,1.08-1.68,1.6l2.6-.12ZM271.96,93.7c1.64-1.36,3.72-3.48,4.92-5.12l5.24,2.44c-2.04,1.88-4.24,3.68-5.92,4.88l-4.24-2.2Z"/>
      <path class="cls-5" d="M321.75,86.74c-.48.6-1.4,1.76-1.8,2.4-2.04,3.36-5.84,8.36-9.44,10.96l-5-4c2.96-1.88,5.72-4.92,6.6-6.6h-19.76c-1.76,0-3,.12-5.08.32v-6.68c1.64.24,3.32.44,5.08.44h20.76c1.32,0,3.96-.16,4.8-.4l3.84,3.56ZM305.28,92.18c0,9.4.2,18.04-11.08,24.32l-5.64-4.6c1.4-.48,2.88-1.16,4.56-2.44,4.44-3.36,5.44-6.76,5.44-13.28,0-1.4-.08-2.56-.32-4h7.04Z"/>
      <path class="cls-5" d="M333.32,101.02l-5.92,2.2c-.68-2.16-2.6-7.4-3.68-9.32l5.84-2.08c1.12,2.24,2.96,6.88,3.76,9.2ZM353.76,92.94c-.56,1.56-.84,2.52-1.12,3.48-1.04,3.84-2.72,7.92-5.36,11.36-3.72,4.88-8.76,8.36-13.56,10.2l-5.08-5.2c4.24-1.08,10.08-4.12,13.4-8.32,2.64-3.32,4.52-8.76,4.88-13.72l6.84,2.2ZM342.2,98.5l-5.8,2c-.56-2-2.24-6.72-3.32-8.96l5.76-1.88c.8,1.76,2.76,6.96,3.36,8.84Z"/>
      <path class="cls-5" d="M380.72,84.86c.68,0,1.8-.04,2.88-.2-.04-.16-.04-.36-.04-.52,0-2.72,2.24-4.96,4.96-4.96s4.96,2.24,4.96,4.96-2.2,4.88-4.84,4.96c-.2.6-.36,1.2-.48,1.68-.96,3.76-2.6,9.84-6.04,14.48-3.6,4.84-9.24,8.96-16.28,11.24l-5.28-5.8c8.04-1.8,12.56-5.32,15.72-9.24,2.56-3.16,3.88-7.12,4.4-10.32h-17.6c-1.96,0-4.16.12-5.2.2v-6.84c1.24.16,3.88.36,5.2.36h17.64ZM390.64,84.14c0-1.16-.96-2.12-2.12-2.12s-2.12.96-2.12,2.12.96,2.12,2.12,2.12,2.12-.96,2.12-2.12Z"/>
    </g>
    <g>
      <g>
        <path class="cls-4" d="M75.17,64.14c-1.93-2.04-2.98-3.75-2.98-7.98v-8.35l-10.12,5.43-10.12-5.43v8.35c0,4.23-1.05,5.94-2.98,7.98-1.54,1.63-8.68,5.56-8.68,5.56l14.28,13.54h14.99l14.28-13.54s-7.14-3.93-8.68-5.56Z"/>
        <path class="cls-1" d="M69.58,84.06c-.22,0-.43-.09-.59-.25-.31-.33-.3-.84.03-1.15l13.47-12.78c-2.07-1.17-6.62-3.82-7.91-5.17-2.12-2.24-3.2-4.18-3.2-8.54v-6.99l-8.92,4.79c-.24.13-.53.13-.77,0l-8.92-4.79v6.99c0,4.36-1.08,6.3-3.2,8.54-1.28,1.36-5.84,4-7.91,5.17l13.47,12.78c.33.31.34.82.03,1.15-.31.33-.82.34-1.15.03l-14.28-13.54c-.19-.18-.28-.44-.25-.69.03-.26.19-.48.41-.61,1.95-1.08,7.29-4.15,8.48-5.41,1.9-2.01,2.75-3.56,2.75-7.42v-8.35c0-.29.15-.55.4-.7.25-.15.55-.15.8-.02l9.73,5.22,9.73-5.22c.25-.14.56-.13.8.02.25.15.4.41.4.7v8.35c0,3.86.85,5.41,2.75,7.42,1.19,1.26,6.53,4.33,8.48,5.41.23.13.38.35.41.61.03.26-.06.52-.25.69l-14.28,13.54c-.16.15-.36.22-.56.22Z"/>
      </g>
      <g>
        <g>
          <path class="cls-4" d="M47.24,62.1l1.24-.83,2.66-4.36s.87.65,5.43,3.87c2.53,1.78,5.5,3.39,5.5,3.39h0s0,0,0,0h0s2.97-1.6,5.5-3.39c4.56-3.22,5.43-3.87,5.43-3.87l2.66,4.36,1.24.83,2.06,2.03-3.3,18.68-7.53,34.04h-12.13l-7.53-34.04-3.3-18.68,2.06-2.03Z"/>
          <path class="cls-1" d="M68.15,117.66h-12.13c-.38,0-.71-.27-.8-.64l-7.53-34.04s0-.02,0-.03l-3.3-18.68c-.05-.26.04-.53.23-.72l2.06-2.03s.08-.07.12-.1l1.09-.73,2.57-4.21c.12-.2.32-.33.54-.38.23-.04.46.01.64.15,0,0,.93.7,5.41,3.86,1.93,1.36,4.16,2.63,5.03,3.12.88-.49,3.1-1.76,5.03-3.12,4.48-3.16,5.4-3.85,5.41-3.86.18-.14.42-.19.64-.15.23.04.42.18.54.38l2.57,4.21,1.09.73s.08.06.12.1l2.06,2.03c.19.19.28.46.23.72l-3.3,18.68s0,.02,0,.03l-7.53,34.04c-.08.37-.41.64-.8.64ZM56.67,116.03h10.83l7.38-33.38,3.23-18.24-1.7-1.67-1.18-.78c-.1-.07-.18-.15-.24-.25l-2.2-3.61c-.73.52-2.13,1.52-4.73,3.36-2.54,1.79-5.46,3.37-5.59,3.44-.24.13-.53.13-.77,0-.12-.07-3.05-1.65-5.59-3.44-2.6-1.83-4-2.83-4.73-3.36l-2.2,3.61c-.06.1-.15.19-.24.25l-1.18.78-1.7,1.67,3.23,18.24,7.38,33.38Z"/>
        </g>
        <path class="cls-1" d="M55.37,73.07c-.18,0-.37-.06-.52-.19-.35-.29-.39-.8-.11-1.15l6.71-8.08c.15-.19.38-.29.63-.29s.47.11.63.29l6.06,7.3,1.27-1.64c.28-.36.79-.42,1.14-.15.36.28.42.79.15,1.14l-1.89,2.44c-.15.2-.38.31-.63.32-.24.01-.48-.1-.64-.29l-6.08-7.32-6.08,7.32c-.16.19-.39.29-.63.29Z"/>
        <path class="cls-1" d="M64.01,72.49s.75-2.4,1.16-4.58l-3.06-3.69-.04-.04-.04.04-3.06,3.69c.42,2.19,1.16,4.58,1.16,4.58,0,0-1.14,5.67-1.53,9.02-.27,2.3-1.85,26.33-2.81,41.14l12.55.02c-.96-14.81-2.55-38.86-2.82-41.16-.39-3.35-1.53-9.02-1.53-9.02Z"/>
      </g>
      <path class="cls-4" d="M107.02,109.29c-.04-.23-.08-.47-.13-.71-.18-1-.39-2.09-.62-3.27-.04-.19-.07-.38-.11-.57-.33-1.69-.7-3.58-1.1-5.68-.03-.17-.07-.34-.1-.52-.03-.18-.07-.37-.1-.55-.18-.95-.35-1.86-.51-2.72-.05-.25-.09-.5-.14-.75-.7-3.81-1.23-6.81-1.72-9.3-.06-.31-.12-.62-.18-.92-.42-2.1-.83-3.85-1.3-5.44-.06-.21-.13-.42-.19-.62-.48-1.5-1.03-2.9-1.74-4.37-.14-.28-.29-.54-.45-.78-.17-.26-.36-.49-.55-.71-.5-.56-1.05-.98-1.57-1.31-.15-.09-.29-.17-.44-.25-.99-.53-1.8-.69-1.8-.69,0,0-1.5-.4-3.62-1.14-.22-.08-.45-.16-.68-.24-.7-.25-1.44-.54-2.21-.85-1.1-.45-2.07-.86-2.92-1.24-.32-.14-.62-.28-.9-.4-1.7-.77-2.66-1.27-2.66-1.27l-1.73-2.63-3.8-2.25s-.57,3.46-1.34,7.96c-.05.32-.11.64-.17.97-.51,2.96-1.08,6.27-1.62,9.31-.04.24-.09.49-.13.73-.21,1.14-.41,2.23-.59,3.25-.04.2-.08.41-.11.6-.38,2.01-.71,3.66-.94,4.64-.06.26-.14.56-.24.9-.07.24-.14.5-.22.77-.43,1.43-1.05,3.3-1.76,5.36-.08.23-.16.46-.24.7-.59,1.69-1.22,3.48-1.86,5.26-.1.28-.2.56-.3.84-.65,1.79-1.29,3.55-1.87,5.12-.12.32-.23.63-.34.93-.9,2.43-1.61,4.32-1.9,5.09-.09.24-.14.38-.14.38,0,0-.04-.11-.11-.3-.27-.71-1-2.66-1.93-5.18-.09-.23-.17-.47-.26-.71-2.37-6.41-5.81-15.95-6.58-19.17-.23-.94-.54-2.5-.9-4.4-.06-.31-.12-.64-.18-.97-.51-2.74-1.1-6.06-1.66-9.27-.05-.26-.09-.52-.14-.78-.19-1.1-.38-2.19-.55-3.23-.04-.21-.07-.42-.11-.63-.79-4.61-1.38-8.18-1.38-8.18l-3.78,2.23h-.02s-.4.62-.4.62l-1.33,2.02s-.88.45-2.44,1.17c-.26.12-.54.25-.84.38-.91.4-1.98.87-3.21,1.36-.65.26-1.27.5-1.87.72-.28.1-.56.2-.82.3-2.22.78-3.82,1.21-3.82,1.21,0,0-.62,0-1.43.33-.27.11-.55.26-.84.46-.45.3-.91.73-1.32,1.31-.18.25-.34.52-.5.83-.02.04-.04.08-.06.12-.44.92-.88,2.83-1.33,5.35-.02.13-.05.27-.07.4-.18,1.01-.35,2.11-.54,3.28-.05.3-.09.6-.14.91-.44,2.87-.89,6.1-1.38,9.37-.04.25-.07.5-.11.74-.07.45-.14.89-.2,1.34-.09.61-.19,1.22-.28,1.83-.04.27-.08.54-.13.81-.5,3.23-1.01,6.41-1.47,9.3-.05.32-.1.64-.15.95-.67,4.16-1.24,7.63-1.58,9.67,0,.02,0,.05-.01.07-.2,1.2-.31,1.89-.31,1.89l1.36-.02h.99s3.06-.06,3.06-.06h.98s3.08-.06,3.08-.06h.95s2.33-.05,2.33-.05l.76.08.99.1,3.16.33.69.07,13.41,1.4.92.1,3.1.32.88.09,13.39,1.39.77.08,3.13.33.97.1,8.04.84,1.9,4.68.19.48.64,1.58s5.14-1.63,11.22-3.73c5.06-1.74,7.57-2.72,9.48-4.27.07-.06.15-.12.22-.18.68-.58,1.29-1.25,1.92-2.07,1.86-2.4,1.8-5.2.71-11.35Z"/>
      <g>
        <path class="cls-6" d="M96.51,71.06c-.15-.09-.29-.17-.44-.25.02.04.05.07.08.1.1.1.23.15.36.15Z"/>
        <path class="cls-6" d="M98.62,73.08c-.17-.26-.36-.49-.55-.71-.09.19-.06.42.09.57.12.12.29.17.45.14Z"/>
        <path class="cls-6" d="M90.66,68.98c-.22-.08-.45-.16-.68-.24.02.05.06.11.1.15.16.16.39.19.58.09Z"/>
        <path class="cls-6" d="M92.1,70.21c-.2.2-.2.51,0,.71.2.2.51.2.71,0,.2-.2.2-.51,0-.71-.2-.2-.51-.2-.71,0Z"/>
        <path class="cls-6" d="M94.13,72.23c-.2.2-.2.51,0,.71.2.2.51.2.71,0,.2-.2.2-.51,0-.71-.2-.2-.51-.2-.71,0Z"/>
        <path class="cls-6" d="M96.15,74.25c-.2.2-.2.51,0,.71.2.2.51.2.71,0,.2-.2.2-.51,0-.71-.2-.2-.51-.2-.71,0Z"/>
        <path class="cls-6" d="M98.17,76.28c-.2.2-.2.51,0,.71.2.2.51.2.71,0,.2-.2.2-.51,0-.71-.2-.2-.51-.2-.71,0Z"/>
        <path class="cls-6" d="M100.9,79.01s.08-.1.1-.15c-.06-.21-.13-.42-.19-.62-.19-.12-.45-.1-.62.07-.2.2-.2.51,0,.71.2.2.51.2.71,0Z"/>
        <path class="cls-6" d="M84.72,66.87c.06-.06.1-.13.12-.21-.32-.14-.62-.28-.9-.4-.12.19-.1.45.07.62.2.2.51.2.71,0Z"/>
        <path class="cls-6" d="M86.03,68.19c-.2.2-.2.51,0,.71.2.2.51.2.71,0,.2-.2.2-.51,0-.71-.2-.2-.51-.2-.71,0Z"/>
        <path class="cls-6" d="M88.06,70.21c-.2.2-.2.51,0,.71.2.2.51.2.71,0,.2-.2.2-.51,0-.71-.2-.2-.51-.2-.71,0Z"/>
        <path class="cls-6" d="M90.08,72.23c-.2.2-.2.51,0,.71.2.2.51.2.71,0,.2-.2.2-.51,0-.71-.2-.2-.51-.2-.71,0Z"/>
        <path class="cls-6" d="M92.1,74.25c-.2.2-.2.51,0,.71.2.2.51.2.71,0,.2-.2.2-.51,0-.71-.2-.2-.51-.2-.71,0Z"/>
        <path class="cls-6" d="M94.13,76.28c-.2.2-.2.51,0,.71.2.2.51.2.71,0,.2-.2.2-.51,0-.71-.2-.2-.51-.2-.71,0Z"/>
        <path class="cls-6" d="M96.15,78.3c-.2.2-.2.51,0,.71.2.2.51.2.71,0,.2-.2.2-.51,0-.71-.2-.2-.51-.2-.71,0Z"/>
        <path class="cls-6" d="M98.17,80.32c-.2.2-.2.51,0,.71.2.2.51.2.71,0,.2-.2.2-.51,0-.71-.2-.2-.51-.2-.71,0Z"/>
        <path class="cls-6" d="M100.19,82.35c-.2.2-.2.51,0,.71.2.2.51.2.71,0,.2-.2.2-.51,0-.71-.2-.2-.51-.2-.71,0Z"/>
        <path class="cls-6" d="M102.49,85.22c-.06-.31-.12-.62-.18-.92-.03.02-.06.04-.09.07-.2.2-.2.51,0,.71.08.08.17.12.27.14Z"/>
        <path class="cls-6" d="M75.92,62.12c-.2.2-.2.51,0,.71.2.2.51.2.71,0,.2-.2.2-.51,0-.71-.2-.2-.51-.2-.71,0Z"/>
        <path class="cls-6" d="M77.94,64.14c-.2.2-.2.51,0,.71.2.2.51.2.71,0,.2-.2.2-.51,0-.71-.2-.2-.51-.2-.71,0Z"/>
        <path class="cls-6" d="M79.97,66.16c-.2.2-.2.51,0,.71.2.2.51.2.71,0,.2-.2.2-.51,0-.71-.2-.2-.51-.2-.71,0Z"/>
        <path class="cls-6" d="M81.99,68.19c-.2.2-.2.51,0,.71.2.2.51.2.71,0,.2-.2.2-.51,0-.71-.2-.2-.51-.2-.71,0Z"/>
        <path class="cls-6" d="M84.01,70.21c-.2.2-.2.51,0,.71.2.2.51.2.71,0,.2-.2.2-.51,0-.71-.2-.2-.51-.2-.71,0Z"/>
        <path class="cls-6" d="M86.03,72.23c-.2.2-.2.51,0,.71.2.2.51.2.71,0,.2-.2.2-.51,0-.71s-.51-.2-.71,0Z"/>
        <path class="cls-6" d="M88.06,74.25c-.2.2-.2.51,0,.71s.51.2.71,0c.2-.2.2-.51,0-.71-.2-.2-.51-.2-.71,0Z"/>
        <path class="cls-6" d="M90.08,76.28c-.2.2-.2.51,0,.71.2.2.51.2.71,0,.2-.2.2-.51,0-.71-.2-.2-.51-.2-.71,0Z"/>
        <path class="cls-6" d="M92.1,78.3c-.2.2-.2.51,0,.71.2.2.51.2.71,0,.2-.2.2-.51,0-.71-.2-.2-.51-.2-.71,0Z"/>
        <path class="cls-6" d="M94.13,80.32c-.2.2-.2.51,0,.71.2.2.51.2.71,0,.2-.2.2-.51,0-.71-.2-.2-.51-.2-.71,0Z"/>
        <path class="cls-6" d="M96.15,82.35c-.2.2-.2.51,0,.71.2.2.51.2.71,0,.2-.2.2-.51,0-.71s-.51-.2-.71,0Z"/>
        <path class="cls-6" d="M98.17,84.37c-.2.2-.2.51,0,.71.2.2.51.2.71,0,.2-.2.2-.51,0-.71-.2-.2-.51-.2-.71,0Z"/>
        <path class="cls-6" d="M100.19,86.39c-.2.2-.2.51,0,.71.2.2.51.2.71,0,.2-.2.2-.51,0-.71-.2-.2-.51-.2-.71,0Z"/>
        <path class="cls-6" d="M102.22,88.41c-.2.2-.2.51,0,.71.2.2.51.2.71,0,.2-.2.2-.51,0-.71-.2-.2-.51-.2-.71,0Z"/>
        <path class="cls-6" d="M75.92,66.16c-.2.2-.2.51,0,.71.2.2.51.2.71,0,.2-.2.2-.51,0-.71-.2-.2-.51-.2-.71,0Z"/>
        <path class="cls-6" d="M77.94,68.19c-.2.2-.2.51,0,.71.2.2.51.2.71,0,.2-.2.2-.51,0-.71-.2-.2-.51-.2-.71,0Z"/>
        <path class="cls-6" d="M79.97,70.21c-.2.2-.2.51,0,.71.2.2.51.2.71,0,.2-.2.2-.51,0-.71-.2-.2-.51-.2-.71,0Z"/>
        <path class="cls-6" d="M81.99,72.23c-.2.2-.2.51,0,.71.2.2.51.2.71,0,.2-.2.2-.51,0-.71-.2-.2-.51-.2-.71,0Z"/>
        <path class="cls-6" d="M84.01,74.25c-.2.2-.2.51,0,.71.2.2.51.2.71,0s.2-.51,0-.71c-.2-.2-.51-.2-.71,0Z"/>
        <path class="cls-6" d="M86.03,76.28c-.2.2-.2.51,0,.71s.51.2.71,0,.2-.51,0-.71c-.2-.2-.51-.2-.71,0Z"/>
        <path class="cls-6" d="M88.06,78.3c-.2.2-.2.51,0,.71.2.2.51.2.71,0,.2-.2.2-.51,0-.71-.2-.2-.51-.2-.71,0Z"/>
        <path class="cls-6" d="M90.08,80.32c-.2.2-.2.51,0,.71.2.2.51.2.71,0,.2-.2.2-.51,0-.71s-.51-.2-.71,0Z"/>
        <path class="cls-6" d="M92.1,82.35c-.2.2-.2.51,0,.71s.51.2.71,0c.2-.2.2-.51,0-.71-.2-.2-.51-.2-.71,0Z"/>
        <path class="cls-6" d="M94.13,84.37c-.2.2-.2.51,0,.71.2.2.51.2.71,0,.2-.2.2-.51,0-.71-.2-.2-.51-.2-.71,0Z"/>
        <path class="cls-6" d="M96.15,86.39c-.2.2-.2.51,0,.71s.51.2.71,0,.2-.51,0-.71c-.2-.2-.51-.2-.71,0Z"/>
        <path class="cls-6" d="M98.17,88.41c-.2.2-.2.51,0,.71.2.2.51.2.71,0,.2-.2.2-.51,0-.71-.2-.2-.51-.2-.71,0Z"/>
        <path class="cls-6" d="M100.19,90.44c-.2.2-.2.51,0,.71.2.2.51.2.71,0,.2-.2.2-.51,0-.71-.2-.2-.51-.2-.71,0Z"/>
        <path class="cls-6" d="M102.22,92.46c-.2.2-.2.51,0,.71s.51.2.71,0,.2-.51,0-.71c-.2-.2-.51-.2-.71,0Z"/>
        <path class="cls-6" d="M104.35,95.27c-.05-.25-.09-.5-.14-.75-.16.2-.15.49.03.67.03.03.07.06.11.08Z"/>
        <path class="cls-6" d="M74.41,68.07c-.05.32-.11.64-.17.97.13,0,.26-.05.36-.15.2-.2.2-.51,0-.71-.06-.06-.12-.09-.19-.12Z"/>
        <path class="cls-6" d="M75.92,70.21c-.2.2-.2.51,0,.71.2.2.51.2.71,0,.2-.2.2-.51,0-.71-.2-.2-.51-.2-.71,0Z"/>
        <path class="cls-6" d="M77.94,72.23c-.2.2-.2.51,0,.71.2.2.51.2.71,0,.2-.2.2-.51,0-.71s-.51-.2-.71,0Z"/>
        <path class="cls-6" d="M79.97,74.25c-.2.2-.2.51,0,.71s.51.2.71,0c.2-.2.2-.51,0-.71-.2-.2-.51-.2-.71,0Z"/>
        <path class="cls-6" d="M81.99,76.28c-.2.2-.2.51,0,.71.2.2.51.2.71,0,.2-.2.2-.51,0-.71-.2-.2-.51-.2-.71,0Z"/>
        <path class="cls-6" d="M84.01,78.3c-.2.2-.2.51,0,.71.2.2.51.2.71,0,.2-.2.2-.51,0-.71-.2-.2-.51-.2-.71,0Z"/>
        <path class="cls-6" d="M86.03,80.32c-.2.2-.2.51,0,.71.2.2.51.2.71,0,.2-.2.2-.51,0-.71-.2-.2-.51-.2-.71,0Z"/>
        <path class="cls-6" d="M88.06,82.35c-.2.2-.2.51,0,.71.2.2.51.2.71,0,.2-.2.2-.51,0-.71-.2-.2-.51-.2-.71,0Z"/>
        <path class="cls-6" d="M90.08,84.37c-.2.2-.2.51,0,.71s.51.2.71,0c.2-.2.2-.51,0-.71-.2-.2-.51-.2-.71,0Z"/>
        <path class="cls-6" d="M92.1,86.39c-.2.2-.2.51,0,.71.2.2.51.2.71,0,.2-.2.2-.51,0-.71-.2-.2-.51-.2-.71,0Z"/>
        <path class="cls-6" d="M94.13,88.41c-.2.2-.2.51,0,.71.2.2.51.2.71,0,.2-.2.2-.51,0-.71-.2-.2-.51-.2-.71,0Z"/>
        <path class="cls-6" d="M96.15,90.44c-.2.2-.2.51,0,.71.2.2.51.2.71,0,.2-.2.2-.51,0-.71-.2-.2-.51-.2-.71,0Z"/>
        <path class="cls-6" d="M98.17,92.46c-.2.2-.2.51,0,.71.2.2.51.2.71,0,.2-.2.2-.51,0-.71-.2-.2-.51-.2-.71,0Z"/>
        <path class="cls-6" d="M100.19,94.48c-.2.2-.2.51,0,.71.2.2.51.2.71,0,.2-.2.2-.51,0-.71-.2-.2-.51-.2-.71,0Z"/>
        <path class="cls-6" d="M102.22,96.51c-.2.2-.2.51,0,.71.2.2.51.2.71,0,.2-.2.2-.51,0-.71-.2-.2-.51-.2-.71,0Z"/>
        <path class="cls-6" d="M104.95,99.24c.05-.05.09-.11.11-.17-.03-.17-.07-.34-.1-.52,0,0,0-.01-.01-.02-.2-.2-.51-.2-.71,0-.2.2-.2.51,0,.71.2.2.51.2.71,0Z"/>
        <path class="cls-6" d="M73.9,72.23c-.2.2-.2.51,0,.71.2.2.51.2.71,0,.2-.2.2-.51,0-.71-.2-.2-.51-.2-.71,0Z"/>
        <path class="cls-6" d="M75.92,74.25c-.2.2-.2.51,0,.71.2.2.51.2.71,0,.2-.2.2-.51,0-.71-.2-.2-.51-.2-.71,0Z"/>
        <path class="cls-6" d="M77.94,76.28c-.2.2-.2.51,0,.71.2.2.51.2.71,0s.2-.51,0-.71c-.2-.2-.51-.2-.71,0Z"/>
        <path class="cls-6" d="M79.97,78.3c-.2.2-.2.51,0,.71.2.2.51.2.71,0,.2-.2.2-.51,0-.71-.2-.2-.51-.2-.71,0Z"/>
        <path class="cls-6" d="M81.99,80.32c-.2.2-.2.51,0,.71.2.2.51.2.71,0,.2-.2.2-.51,0-.71-.2-.2-.51-.2-.71,0Z"/>
        <path class="cls-6" d="M84.01,82.35c-.2.2-.2.51,0,.71.2.2.51.2.71,0,.2-.2.2-.51,0-.71-.2-.2-.51-.2-.71,0Z"/>
        <path class="cls-6" d="M86.03,84.37c-.2.2-.2.51,0,.71.2.2.51.2.71,0,.2-.2.2-.51,0-.71-.2-.2-.51-.2-.71,0Z"/>
        <path class="cls-6" d="M88.06,86.39c-.2.2-.2.51,0,.71.2.2.51.2.71,0,.2-.2.2-.51,0-.71-.2-.2-.51-.2-.71,0Z"/>
        <path class="cls-6" d="M90.08,88.41c-.2.2-.2.51,0,.71.2.2.51.2.71,0,.2-.2.2-.51,0-.71-.2-.2-.51-.2-.71,0Z"/>
        <path class="cls-6" d="M92.1,90.44c-.2.2-.2.51,0,.71.2.2.51.2.71,0,.2-.2.2-.51,0-.71-.2-.2-.51-.2-.71,0Z"/>
        <path class="cls-6" d="M94.13,92.46c-.2.2-.2.51,0,.71s.51.2.71,0c.2-.2.2-.51,0-.71-.2-.2-.51-.2-.71,0Z"/>
        <path class="cls-6" d="M96.15,94.48c-.2.2-.2.51,0,.71.2.2.51.2.71,0,.2-.2.2-.51,0-.71-.2-.2-.51-.2-.71,0Z"/>
        <path class="cls-6" d="M98.17,96.51c-.2.2-.2.51,0,.71.2.2.51.2.71,0,.2-.2.2-.51,0-.71-.2-.2-.51-.2-.71,0Z"/>
        <path class="cls-6" d="M100.19,98.53c-.2.2-.2.51,0,.71.2.2.51.2.71,0,.2-.2.2-.51,0-.71-.2-.2-.51-.2-.71,0Z"/>
        <path class="cls-6" d="M102.22,100.55c-.2.2-.2.51,0,.71.2.2.51.2.71,0,.2-.2.2-.51,0-.71s-.51-.2-.71,0Z"/>
        <path class="cls-6" d="M104.24,102.58c-.2.2-.2.51,0,.71.2.2.51.2.71,0,.2-.2.2-.51,0-.71-.2-.2-.51-.2-.71,0Z"/>
        <path class="cls-6" d="M106.27,105.31c-.04-.19-.07-.38-.11-.57-.08.18-.05.41.1.56,0,0,0,0,.01,0Z"/>
        <path class="cls-6" d="M73.9,76.28c-.2.2-.2.51,0,.71s.51.2.71,0c.2-.2.2-.51,0-.71-.2-.2-.51-.2-.71,0Z"/>
        <path class="cls-6" d="M75.92,78.3c-.2.2-.2.51,0,.71.2.2.51.2.71,0,.2-.2.2-.51,0-.71-.2-.2-.51-.2-.71,0Z"/>
        <path class="cls-6" d="M77.94,80.32c-.2.2-.2.51,0,.71.2.2.51.2.71,0,.2-.2.2-.51,0-.71-.2-.2-.51-.2-.71,0Z"/>
        <path class="cls-6" d="M79.97,82.35c-.2.2-.2.51,0,.71.2.2.51.2.71,0s.2-.51,0-.71c-.2-.2-.51-.2-.71,0Z"/>
        <path class="cls-6" d="M81.99,84.37c-.2.2-.2.51,0,.71.2.2.51.2.71,0,.2-.2.2-.51,0-.71-.2-.2-.51-.2-.71,0Z"/>
        <path class="cls-6" d="M84.01,86.39c-.2.2-.2.51,0,.71.2.2.51.2.71,0,.2-.2.2-.51,0-.71-.2-.2-.51-.2-.71,0Z"/>
        <path class="cls-6" d="M86.03,88.41c-.2.2-.2.51,0,.71.2.2.51.2.71,0,.2-.2.2-.51,0-.71-.2-.2-.51-.2-.71,0Z"/>
        <path class="cls-6" d="M88.06,90.44c-.2.2-.2.51,0,.71.2.2.51.2.71,0,.2-.2.2-.51,0-.71-.2-.2-.51-.2-.71,0Z"/>
        <path class="cls-6" d="M90.08,92.46c-.2.2-.2.51,0,.71.2.2.51.2.71,0s.2-.51,0-.71c-.2-.2-.51-.2-.71,0Z"/>
        <path class="cls-6" d="M92.1,94.48c-.2.2-.2.51,0,.71.2.2.51.2.71,0,.2-.2.2-.51,0-.71-.2-.2-.51-.2-.71,0Z"/>
        <path class="cls-6" d="M94.13,96.51c-.2.2-.2.51,0,.71.2.2.51.2.71,0,.2-.2.2-.51,0-.71-.2-.2-.51-.2-.71,0Z"/>
        <path class="cls-6" d="M96.15,98.53c-.2.2-.2.51,0,.71.2.2.51.2.71,0,.2-.2.2-.51,0-.71-.2-.2-.51-.2-.71,0Z"/>
        <path class="cls-6" d="M98.17,100.55c-.2.2-.2.51,0,.71.2.2.51.2.71,0,.2-.2.2-.51,0-.71-.2-.2-.51-.2-.71,0Z"/>
        <path class="cls-6" d="M100.19,102.58c-.2.2-.2.51,0,.71.2.2.51.2.71,0,.2-.2.2-.51,0-.71-.2-.2-.51-.2-.71,0Z"/>
        <path class="cls-6" d="M102.22,104.6c-.2.2-.2.51,0,.71.2.2.51.2.71,0,.2-.2.2-.51,0-.71-.2-.2-.51-.2-.71,0Z"/>
        <path class="cls-6" d="M104.24,106.62c-.2.2-.2.51,0,.71.2.2.51.2.71,0,.2-.2.2-.51,0-.71-.2-.2-.51-.2-.71,0Z"/>
        <path class="cls-6" d="M106.97,109.35s.04-.04.05-.06c-.04-.23-.08-.47-.13-.71-.19-.13-.46-.11-.63.06-.2.2-.2.51,0,.71.2.2.51.2.71,0Z"/>
        <path class="cls-6" d="M72.62,78.35c-.04.24-.09.49-.13.73.03-.02.06-.04.09-.07.18-.18.19-.46.04-.66Z"/>
        <path class="cls-6" d="M73.9,80.32c-.2.2-.2.51,0,.71.2.2.51.2.71,0,.2-.2.2-.51,0-.71-.2-.2-.51-.2-.71,0Z"/>
        <path class="cls-6" d="M75.92,82.35c-.2.2-.2.51,0,.71.2.2.51.2.71,0,.2-.2.2-.51,0-.71s-.51-.2-.71,0Z"/>
        <path class="cls-6" d="M77.94,84.37c-.2.2-.2.51,0,.71.2.2.51.2.71,0,.2-.2.2-.51,0-.71-.2-.2-.51-.2-.71,0Z"/>
        <path class="cls-6" d="M79.97,86.39c-.2.2-.2.51,0,.71.2.2.51.2.71,0,.2-.2.2-.51,0-.71-.2-.2-.51-.2-.71,0Z"/>
        <path class="cls-6" d="M81.99,88.41c-.2.2-.2.51,0,.71.2.2.51.2.71,0,.2-.2.2-.51,0-.71-.2-.2-.51-.2-.71,0Z"/>
        <path class="cls-6" d="M84.01,90.44c-.2.2-.2.51,0,.71.2.2.51.2.71,0,.2-.2.2-.51,0-.71-.2-.2-.51-.2-.71,0Z"/>
        <path class="cls-6" d="M86.03,92.46c-.2.2-.2.51,0,.71.2.2.51.2.71,0,.2-.2.2-.51,0-.71s-.51-.2-.71,0Z"/>
        <path class="cls-6" d="M88.06,94.48c-.2.2-.2.51,0,.71s.51.2.71,0c.2-.2.2-.51,0-.71-.2-.2-.51-.2-.71,0Z"/>
        <path class="cls-6" d="M90.08,96.51c-.2.2-.2.51,0,.71.2.2.51.2.71,0,.2-.2.2-.51,0-.71-.2-.2-.51-.2-.71,0Z"/>
        <path class="cls-6" d="M92.1,98.53c-.2.2-.2.51,0,.71.2.2.51.2.71,0,.2-.2.2-.51,0-.71-.2-.2-.51-.2-.71,0Z"/>
        <path class="cls-6" d="M94.13,100.55c-.2.2-.2.51,0,.71.2.2.51.2.71,0,.2-.2.2-.51,0-.71-.2-.2-.51-.2-.71,0Z"/>
        <path class="cls-6" d="M96.15,102.58c-.2.2-.2.51,0,.71.2.2.51.2.71,0,.2-.2.2-.51,0-.71s-.51-.2-.71,0Z"/>
        <path class="cls-6" d="M98.17,104.6c-.2.2-.2.51,0,.71.2.2.51.2.71,0,.2-.2.2-.51,0-.71-.2-.2-.51-.2-.71,0Z"/>
        <path class="cls-6" d="M100.19,106.62c-.2.2-.2.51,0,.71.2.2.51.2.71,0,.2-.2.2-.51,0-.71-.2-.2-.51-.2-.71,0Z"/>
        <path class="cls-6" d="M102.22,108.64c-.2.2-.2.51,0,.71.2.2.51.2.71,0,.2-.2.2-.51,0-.71-.2-.2-.51-.2-.71,0Z"/>
        <path class="cls-6" d="M104.24,110.67c-.2.2-.2.51,0,.71.2.2.51.2.71,0,.2-.2.2-.51,0-.71-.2-.2-.51-.2-.71,0Z"/>
        <path class="cls-6" d="M106.97,113.4c.2-.2.2-.51,0-.71-.2-.2-.51-.2-.71,0-.2.2-.2.51,0,.71.2.2.51.2.71,0Z"/>
        <path class="cls-6" d="M71.9,82.33c-.04.2-.08.41-.11.6.02.04.05.09.09.13.2.2.51.2.71,0,.2-.2.2-.51,0-.71-.19-.19-.49-.19-.68-.02Z"/>
        <path class="cls-6" d="M73.9,84.37c-.2.2-.2.51,0,.71.2.2.51.2.71,0s.2-.51,0-.71c-.2-.2-.51-.2-.71,0Z"/>
        <path class="cls-6" d="M75.92,86.39c-.2.2-.2.51,0,.71s.51.2.71,0,.2-.51,0-.71c-.2-.2-.51-.2-.71,0Z"/>
        <path class="cls-6" d="M77.94,88.41c-.2.2-.2.51,0,.71.2.2.51.2.71,0,.2-.2.2-.51,0-.71-.2-.2-.51-.2-.71,0Z"/>
        <path class="cls-6" d="M79.97,90.44c-.2.2-.2.51,0,.71.2.2.51.2.71,0,.2-.2.2-.51,0-.71s-.51-.2-.71,0Z"/>
        <path class="cls-6" d="M81.99,92.46c-.2.2-.2.51,0,.71s.51.2.71,0c.2-.2.2-.51,0-.71-.2-.2-.51-.2-.71,0Z"/>
        <path class="cls-6" d="M84.01,94.48c-.2.2-.2.51,0,.71.2.2.51.2.71,0s.2-.51,0-.71c-.2-.2-.51-.2-.71,0Z"/>
        <path class="cls-6" d="M86.03,96.51c-.2.2-.2.51,0,.71s.51.2.71,0,.2-.51,0-.71c-.2-.2-.51-.2-.71,0Z"/>
        <path class="cls-6" d="M88.06,98.53c-.2.2-.2.51,0,.71.2.2.51.2.71,0,.2-.2.2-.51,0-.71-.2-.2-.51-.2-.71,0Z"/>
        <path class="cls-6" d="M90.08,100.55c-.2.2-.2.51,0,.71.2.2.51.2.71,0,.2-.2.2-.51,0-.71s-.51-.2-.71,0Z"/>
        <path class="cls-6" d="M92.1,102.58c-.2.2-.2.51,0,.71s.51.2.71,0c.2-.2.2-.51,0-.71-.2-.2-.51-.2-.71,0Z"/>
        <path class="cls-6" d="M94.13,104.6c-.2.2-.2.51,0,.71.2.2.51.2.71,0,.2-.2.2-.51,0-.71-.2-.2-.51-.2-.71,0Z"/>
        <path class="cls-6" d="M96.15,106.62c-.2.2-.2.51,0,.71.2.2.51.2.71,0,.2-.2.2-.51,0-.71-.2-.2-.51-.2-.71,0Z"/>
        <path class="cls-6" d="M98.17,108.64c-.2.2-.2.51,0,.71.2.2.51.2.71,0,.2-.2.2-.51,0-.71-.2-.2-.51-.2-.71,0Z"/>
        <path class="cls-6" d="M100.19,110.67c-.2.2-.2.51,0,.71.2.2.51.2.71,0,.2-.2.2-.51,0-.71-.2-.2-.51-.2-.71,0Z"/>
        <path class="cls-6" d="M102.22,112.69c-.2.2-.2.51,0,.71.2.2.51.2.71,0,.2-.2.2-.51,0-.71-.2-.2-.51-.2-.71,0Z"/>
        <path class="cls-6" d="M104.24,114.71c-.2.2-.2.51,0,.71.2.2.51.2.71,0,.2-.2.2-.51,0-.71-.2-.2-.51-.2-.71,0Z"/>
        <path class="cls-6" d="M106.26,116.74c-.2.2-.2.51,0,.71.2.2.51.2.71,0,.2-.2.2-.51,0-.71-.2-.2-.51-.2-.71,0Z"/>
        <path class="cls-6" d="M47.6,62.12c-.2.2-.2.51,0,.71.2.2.51.2.71,0,.2-.2.2-.51,0-.71-.2-.2-.51-.2-.71,0Z"/>
        <path class="cls-6" d="M71.87,86.39c-.2.2-.2.51,0,.71.2.2.51.2.71,0,.2-.2.2-.51,0-.71-.2-.2-.51-.2-.71,0Z"/>
        <path class="cls-6" d="M73.9,88.41c-.2.2-.2.51,0,.71.2.2.51.2.71,0,.2-.2.2-.51,0-.71s-.51-.2-.71,0Z"/>
        <path class="cls-6" d="M75.92,90.44c-.2.2-.2.51,0,.71.2.2.51.2.71,0,.2-.2.2-.51,0-.71-.2-.2-.51-.2-.71,0Z"/>
        <path class="cls-6" d="M77.94,92.46c-.2.2-.2.51,0,.71.2.2.51.2.71,0,.2-.2.2-.51,0-.71s-.51-.2-.71,0Z"/>
        <path class="cls-6" d="M79.97,94.48c-.2.2-.2.51,0,.71s.51.2.71,0c.2-.2.2-.51,0-.71-.2-.2-.51-.2-.71,0Z"/>
        <path class="cls-6" d="M81.99,96.51c-.2.2-.2.51,0,.71.2.2.51.2.71,0,.2-.2.2-.51,0-.71-.2-.2-.51-.2-.71,0Z"/>
        <path class="cls-6" d="M84.01,98.53c-.2.2-.2.51,0,.71.2.2.51.2.71,0,.2-.2.2-.51,0-.71s-.51-.2-.71,0Z"/>
        <path class="cls-6" d="M86.03,100.55c-.2.2-.2.51,0,.71.2.2.51.2.71,0,.2-.2.2-.51,0-.71-.2-.2-.51-.2-.71,0Z"/>
        <path class="cls-6" d="M88.06,102.58c-.2.2-.2.51,0,.71.2.2.51.2.71,0,.2-.2.2-.51,0-.71-.2-.2-.51-.2-.71,0Z"/>
        <path class="cls-6" d="M90.08,104.6c-.2.2-.2.51,0,.71s.51.2.71,0c.2-.2.2-.51,0-.71-.2-.2-.51-.2-.71,0Z"/>
        <path class="cls-6" d="M92.1,106.62c-.2.2-.2.51,0,.71.2.2.51.2.71,0,.2-.2.2-.51,0-.71-.2-.2-.51-.2-.71,0Z"/>
        <path class="cls-6" d="M94.13,108.64c-.2.2-.2.51,0,.71.2.2.51.2.71,0,.2-.2.2-.51,0-.71-.2-.2-.51-.2-.71,0Z"/>
        <path class="cls-6" d="M96.15,110.67c-.2.2-.2.51,0,.71.2.2.51.2.71,0,.2-.2.2-.51,0-.71-.2-.2-.51-.2-.71,0Z"/>
        <path class="cls-6" d="M98.17,112.69c-.2.2-.2.51,0,.71.2.2.51.2.71,0,.2-.2.2-.51,0-.71-.2-.2-.51-.2-.71,0Z"/>
        <path class="cls-6" d="M100.19,114.71c-.2.2-.2.51,0,.71.2.2.51.2.71,0,.2-.2.2-.51,0-.71-.2-.2-.51-.2-.71,0Z"/>
        <path class="cls-6" d="M102.22,116.74c-.2.2-.2.51,0,.71.2.2.51.2.71,0,.2-.2.2-.51,0-.71-.2-.2-.51-.2-.71,0Z"/>
        <path class="cls-6" d="M104.24,118.76c-.2.2-.2.51,0,.71.2.2.51.2.71,0,.2-.2.2-.51,0-.71-.2-.2-.51-.2-.71,0Z"/>
        <path class="cls-6" d="M44.39,62.34h-.02s-.4.62-.4.62c.11-.01.21-.06.29-.14.13-.13.17-.31.13-.48Z"/>
        <path class="cls-6" d="M45.58,64.14c-.2.2-.2.51,0,.71.2.2.51.2.71,0,.2-.2.2-.51,0-.71-.2-.2-.51-.2-.71,0Z"/>
        <path class="cls-6" d="M47.6,66.16c-.2.2-.2.51,0,.71.2.2.51.2.71,0,.2-.2.2-.51,0-.71-.2-.2-.51-.2-.71,0Z"/>
        <path class="cls-6" d="M49.65,68.92c-.04-.21-.07-.42-.11-.63-.11.19-.09.44.08.6,0,0,.02.02.03.02Z"/>
        <path class="cls-6" d="M70.6,88.47c-.07.24-.14.5-.22.77.07-.02.13-.06.18-.11.18-.18.19-.46.04-.65Z"/>
        <path class="cls-6" d="M71.87,90.44c-.2.2-.2.51,0,.71.2.2.51.2.71,0,.2-.2.2-.51,0-.71-.2-.2-.51-.2-.71,0Z"/>
        <path class="cls-6" d="M73.9,92.46c-.2.2-.2.51,0,.71.2.2.51.2.71,0,.2-.2.2-.51,0-.71-.2-.2-.51-.2-.71,0Z"/>
        <path class="cls-6" d="M75.92,94.48c-.2.2-.2.51,0,.71.2.2.51.2.71,0,.2-.2.2-.51,0-.71-.2-.2-.51-.2-.71,0Z"/>
        <path class="cls-6" d="M77.94,96.51c-.2.2-.2.51,0,.71.2.2.51.2.71,0s.2-.51,0-.71c-.2-.2-.51-.2-.71,0Z"/>
        <path class="cls-6" d="M79.97,98.53c-.2.2-.2.51,0,.71.2.2.51.2.71,0,.2-.2.2-.51,0-.71-.2-.2-.51-.2-.71,0Z"/>
        <path class="cls-6" d="M81.99,100.55c-.2.2-.2.51,0,.71.2.2.51.2.71,0,.2-.2.2-.51,0-.71-.2-.2-.51-.2-.71,0Z"/>
        <path class="cls-6" d="M84.01,102.58c-.2.2-.2.51,0,.71.2.2.51.2.71,0,.2-.2.2-.51,0-.71-.2-.2-.51-.2-.71,0Z"/>
        <path class="cls-6" d="M86.03,104.6c-.2.2-.2.51,0,.71.2.2.51.2.71,0,.2-.2.2-.51,0-.71-.2-.2-.51-.2-.71,0Z"/>
        <path class="cls-6" d="M88.06,106.62c-.2.2-.2.51,0,.71.2.2.51.2.71,0,.2-.2.2-.51,0-.71-.2-.2-.51-.2-.71,0Z"/>
        <path class="cls-6" d="M90.08,108.64c-.2.2-.2.51,0,.71.2.2.51.2.71,0,.2-.2.2-.51,0-.71-.2-.2-.51-.2-.71,0Z"/>
        <path class="cls-6" d="M92.1,110.67c-.2.2-.2.51,0,.71.2.2.51.2.71,0,.2-.2.2-.51,0-.71-.2-.2-.51-.2-.71,0Z"/>
        <path class="cls-6" d="M94.13,112.69c-.2.2-.2.51,0,.71.2.2.51.2.71,0,.2-.2.2-.51,0-.71-.2-.2-.51-.2-.71,0Z"/>
        <path class="cls-6" d="M96.15,114.71c-.2.2-.2.51,0,.71.2.2.51.2.71,0,.2-.2.2-.51,0-.71-.2-.2-.51-.2-.71,0Z"/>
        <path class="cls-6" d="M98.17,116.74c-.2.2-.2.51,0,.71.2.2.51.2.71,0,.2-.2.2-.51,0-.71-.2-.2-.51-.2-.71,0Z"/>
        <path class="cls-6" d="M100.19,118.76c-.2.2-.2.51,0,.71.2.2.51.2.71,0,.2-.2.2-.51,0-.71-.2-.2-.51-.2-.71,0Z"/>
        <path class="cls-6" d="M102.22,120.78c-.2.2-.2.51,0,.71.2.2.51.2.71,0,.2-.2.2-.51,0-.71s-.51-.2-.71,0Z"/>
        <path class="cls-6" d="M104.18,122.88c.07-.06.15-.12.22-.18-.06.02-.11.06-.15.1-.02.02-.05.05-.06.08Z"/>
        <path class="cls-6" d="M43.55,66.16c-.2.2-.2.51,0,.71.2.2.51.2.71,0,.2-.2.2-.51,0-.71-.2-.2-.51-.2-.71,0Z"/>
        <path class="cls-6" d="M45.58,68.19c-.2.2-.2.51,0,.71.2.2.51.2.71,0,.2-.2.2-.51,0-.71-.2-.2-.51-.2-.71,0Z"/>
        <path class="cls-6" d="M47.6,70.21c-.2.2-.2.51,0,.71.2.2.51.2.71,0,.2-.2.2-.51,0-.71-.2-.2-.51-.2-.71,0Z"/>
        <path class="cls-6" d="M50.33,72.94s0,0,.01-.01c-.05-.26-.09-.52-.14-.78-.19-.1-.43-.07-.58.09-.2.2-.2.51,0,.71.2.2.51.2.71,0Z"/>
        <path class="cls-6" d="M69.85,92.46c-.2.2-.2.51,0,.71.2.2.51.2.71,0s.2-.51,0-.71c-.2-.2-.51-.2-.71,0Z"/>
        <path class="cls-6" d="M71.87,94.48c-.2.2-.2.51,0,.71.2.2.51.2.71,0,.2-.2.2-.51,0-.71-.2-.2-.51-.2-.71,0Z"/>
        <path class="cls-6" d="M73.9,96.51c-.2.2-.2.51,0,.71s.51.2.71,0c.2-.2.2-.51,0-.71-.2-.2-.51-.2-.71,0Z"/>
        <path class="cls-6" d="M75.92,98.53c-.2.2-.2.51,0,.71.2.2.51.2.71,0,.2-.2.2-.51,0-.71-.2-.2-.51-.2-.71,0Z"/>
        <path class="cls-6" d="M77.94,100.55c-.2.2-.2.51,0,.71.2.2.51.2.71,0,.2-.2.2-.51,0-.71-.2-.2-.51-.2-.71,0Z"/>
        <path class="cls-6" d="M79.97,102.58c-.2.2-.2.51,0,.71.2.2.51.2.71,0s.2-.51,0-.71c-.2-.2-.51-.2-.71,0Z"/>
        <path class="cls-6" d="M81.99,104.6c-.2.2-.2.51,0,.71.2.2.51.2.71,0,.2-.2.2-.51,0-.71-.2-.2-.51-.2-.71,0Z"/>
        <path class="cls-6" d="M84.01,106.62c-.2.2-.2.51,0,.71.2.2.51.2.71,0,.2-.2.2-.51,0-.71-.2-.2-.51-.2-.71,0Z"/>
        <path class="cls-6" d="M86.03,108.64c-.2.2-.2.51,0,.71.2.2.51.2.71,0,.2-.2.2-.51,0-.71-.2-.2-.51-.2-.71,0Z"/>
        <path class="cls-6" d="M88.06,110.67c-.2.2-.2.51,0,.71.2.2.51.2.71,0,.2-.2.2-.51,0-.71-.2-.2-.51-.2-.71,0Z"/>
        <path class="cls-6" d="M90.08,112.69c-.2.2-.2.51,0,.71s.51.2.71,0c.2-.2.2-.51,0-.71-.2-.2-.51-.2-.71,0Z"/>
        <path class="cls-6" d="M92.1,114.71c-.2.2-.2.51,0,.71.2.2.51.2.71,0,.2-.2.2-.51,0-.71-.2-.2-.51-.2-.71,0Z"/>
        <path class="cls-6" d="M94.13,116.74c-.2.2-.2.51,0,.71.2.2.51.2.71,0,.2-.2.2-.51,0-.71-.2-.2-.51-.2-.71,0Z"/>
        <path class="cls-6" d="M96.15,118.76c-.2.2-.2.51,0,.71.2.2.51.2.71,0,.2-.2.2-.51,0-.71-.2-.2-.51-.2-.71,0Z"/>
        <path class="cls-6" d="M98.17,120.78c-.2.2-.2.51,0,.71.2.2.51.2.71,0,.2-.2.2-.51,0-.71-.2-.2-.51-.2-.71,0Z"/>
        <path class="cls-6" d="M100.19,122.8c-.2.2-.2.51,0,.71.2.2.51.2.71,0,.2-.2.2-.51,0-.71-.2-.2-.51-.2-.71,0Z"/>
        <path class="cls-6" d="M40.2,66.15c-.26.12-.54.25-.84.38,0,.12.05.24.15.34.2.2.51.2.71,0,.2-.2.2-.51,0-.71,0,0,0,0-.01,0Z"/>
        <path class="cls-6" d="M41.53,68.19c-.2.2-.2.51,0,.71.2.2.51.2.71,0,.2-.2.2-.51,0-.71s-.51-.2-.71,0Z"/>
        <path class="cls-6" d="M43.55,70.21c-.2.2-.2.51,0,.71.2.2.51.2.71,0,.2-.2.2-.51,0-.71-.2-.2-.51-.2-.71,0Z"/>
        <path class="cls-6" d="M45.58,72.23c-.2.2-.2.51,0,.71.2.2.51.2.71,0,.2-.2.2-.51,0-.71s-.51-.2-.71,0Z"/>
        <path class="cls-6" d="M47.6,74.25c-.2.2-.2.51,0,.71s.51.2.71,0c.2-.2.2-.51,0-.71-.2-.2-.51-.2-.71,0Z"/>
        <path class="cls-6" d="M49.62,76.28c-.2.2-.2.51,0,.71.2.2.51.2.71,0,.2-.2.2-.51,0-.71-.2-.2-.51-.2-.71,0Z"/>
        <path class="cls-6" d="M68.62,94.6c-.08.23-.16.46-.24.7.06-.02.11-.06.16-.11.16-.16.19-.4.08-.59Z"/>
        <path class="cls-6" d="M69.85,96.51c-.2.2-.2.51,0,.71.2.2.51.2.71,0,.2-.2.2-.51,0-.71-.2-.2-.51-.2-.71,0Z"/>
        <path class="cls-6" d="M71.87,98.53c-.2.2-.2.51,0,.71.2.2.51.2.71,0,.2-.2.2-.51,0-.71-.2-.2-.51-.2-.71,0Z"/>
        <path class="cls-6" d="M73.9,100.55c-.2.2-.2.51,0,.71.2.2.51.2.71,0,.2-.2.2-.51,0-.71-.2-.2-.51-.2-.71,0Z"/>
        <path class="cls-6" d="M75.92,102.58c-.2.2-.2.51,0,.71.2.2.51.2.71,0,.2-.2.2-.51,0-.71s-.51-.2-.71,0Z"/>
        <path class="cls-6" d="M77.94,104.6c-.2.2-.2.51,0,.71.2.2.51.2.71,0,.2-.2.2-.51,0-.71-.2-.2-.51-.2-.71,0Z"/>
        <path class="cls-6" d="M79.97,106.62c-.2.2-.2.51,0,.71.2.2.51.2.71,0,.2-.2.2-.51,0-.71s-.51-.2-.71,0Z"/>
        <path class="cls-6" d="M81.99,108.64c-.2.2-.2.51,0,.71.2.2.51.2.71,0,.2-.2.2-.51,0-.71-.2-.2-.51-.2-.71,0Z"/>
        <path class="cls-6" d="M84.01,110.67c-.2.2-.2.51,0,.71.2.2.51.2.71,0,.2-.2.2-.51,0-.71-.2-.2-.51-.2-.71,0Z"/>
        <path class="cls-6" d="M86.03,112.69c-.2.2-.2.51,0,.71.2.2.51.2.71,0,.2-.2.2-.51,0-.71-.2-.2-.51-.2-.71,0Z"/>
        <path class="cls-6" d="M88.06,114.71c-.2.2-.2.51,0,.71.2.2.51.2.71,0,.2-.2.2-.51,0-.71-.2-.2-.51-.2-.71,0Z"/>
        <path class="cls-6" d="M90.08,116.74c-.2.2-.2.51,0,.71.2.2.51.2.71,0,.2-.2.2-.51,0-.71-.2-.2-.51-.2-.71,0Z"/>
        <path class="cls-6" d="M92.1,118.76c-.2.2-.2.51,0,.71.2.2.51.2.71,0,.2-.2.2-.51,0-.71-.2-.2-.51-.2-.71,0Z"/>
        <path class="cls-6" d="M94.13,120.78c-.2.2-.2.51,0,.71.2.2.51.2.71,0,.2-.2.2-.51,0-.71-.2-.2-.51-.2-.71,0Z"/>
        <path class="cls-6" d="M96.15,122.8c-.2.2-.2.51,0,.71.2.2.51.2.71,0,.2-.2.2-.51,0-.71-.2-.2-.51-.2-.71,0Z"/>
        <path class="cls-6" d="M98.17,124.83c-.2.2-.2.51,0,.71.2.2.51.2.71,0,.2-.2.2-.51,0-.71-.2-.2-.51-.2-.71,0Z"/>
        <path class="cls-6" d="M37.48,68.19c-.2.2-.2.51,0,.71.2.2.51.2.71,0,.2-.2.2-.51,0-.71-.2-.2-.51-.2-.71,0Z"/>
        <path class="cls-6" d="M39.51,70.21c-.2.2-.2.51,0,.71.2.2.51.2.71,0,.2-.2.2-.51,0-.71-.2-.2-.51-.2-.71,0Z"/>
        <path class="cls-6" d="M41.53,72.23c-.2.2-.2.51,0,.71.2.2.51.2.71,0,.2-.2.2-.51,0-.71-.2-.2-.51-.2-.71,0Z"/>
        <path class="cls-6" d="M43.55,74.25c-.2.2-.2.51,0,.71.2.2.51.2.71,0s.2-.51,0-.71c-.2-.2-.51-.2-.71,0Z"/>
        <path class="cls-6" d="M45.58,76.28c-.2.2-.2.51,0,.71.2.2.51.2.71,0s.2-.51,0-.71c-.2-.2-.51-.2-.71,0Z"/>
        <path class="cls-6" d="M47.6,78.3c-.2.2-.2.51,0,.71.2.2.51.2.71,0,.2-.2.2-.51,0-.71-.2-.2-.51-.2-.71,0Z"/>
        <path class="cls-6" d="M49.62,80.32c-.2.2-.2.51,0,.71.2.2.51.2.71,0,.2-.2.2-.51,0-.71s-.51-.2-.71,0Z"/>
        <path class="cls-6" d="M52.18,83.17c-.06-.31-.12-.64-.18-.97-.13,0-.26.05-.35.15-.2.2-.2.51,0,.71.14.14.35.18.53.11Z"/>
        <path class="cls-6" d="M67.83,98.53c-.2.2-.2.51,0,.71.2.2.51.2.71,0,.2-.2.2-.51,0-.71-.2-.2-.51-.2-.71,0Z"/>
        <path class="cls-6" d="M69.85,100.55c-.2.2-.2.51,0,.71.2.2.51.2.71,0,.2-.2.2-.51,0-.71s-.51-.2-.71,0Z"/>
        <path class="cls-6" d="M71.87,102.58c-.2.2-.2.51,0,.71.2.2.51.2.71,0,.2-.2.2-.51,0-.71-.2-.2-.51-.2-.71,0Z"/>
        <path class="cls-6" d="M73.9,104.6c-.2.2-.2.51,0,.71.2.2.51.2.71,0s.2-.51,0-.71c-.2-.2-.51-.2-.71,0Z"/>
        <path class="cls-6" d="M75.92,106.62c-.2.2-.2.51,0,.71.2.2.51.2.71,0,.2-.2.2-.51,0-.71-.2-.2-.51-.2-.71,0Z"/>
        <path class="cls-6" d="M77.94,108.64c-.2.2-.2.51,0,.71.2.2.51.2.71,0,.2-.2.2-.51,0-.71-.2-.2-.51-.2-.71,0Z"/>
        <path class="cls-6" d="M79.97,110.67c-.2.2-.2.51,0,.71.2.2.51.2.71,0,.2-.2.2-.51,0-.71-.2-.2-.51-.2-.71,0Z"/>
        <path class="cls-6" d="M81.99,112.69c-.2.2-.2.51,0,.71.2.2.51.2.71,0,.2-.2.2-.51,0-.71-.2-.2-.51-.2-.71,0Z"/>
        <path class="cls-6" d="M84.01,114.71c-.2.2-.2.51,0,.71.2.2.51.2.71,0,.2-.2.2-.51,0-.71-.2-.2-.51-.2-.71,0Z"/>
        <path class="cls-6" d="M86.03,116.74c-.2.2-.2.51,0,.71.2.2.51.2.71,0,.2-.2.2-.51,0-.71-.2-.2-.51-.2-.71,0Z"/>
        <path class="cls-6" d="M88.06,118.76c-.2.2-.2.51,0,.71.2.2.51.2.71,0,.2-.2.2-.51,0-.71-.2-.2-.51-.2-.71,0Z"/>
        <path class="cls-6" d="M90.08,120.78c-.2.2-.2.51,0,.71.2.2.51.2.71,0,.2-.2.2-.51,0-.71s-.51-.2-.71,0Z"/>
        <path class="cls-6" d="M92.1,122.8c-.2.2-.2.51,0,.71.2.2.51.2.71,0,.2-.2.2-.51,0-.71-.2-.2-.51-.2-.71,0Z"/>
        <path class="cls-6" d="M94.13,124.83c-.2.2-.2.51,0,.71.2.2.51.2.71,0,.2-.2.2-.51,0-.71-.2-.2-.51-.2-.71,0Z"/>
        <path class="cls-6" d="M34.15,68.89c.08-.08.12-.17.14-.28-.28.1-.56.2-.82.3.2.17.5.17.68-.02Z"/>
        <path class="cls-6" d="M35.46,70.21c-.2.2-.2.51,0,.71.2.2.51.2.71,0,.2-.2.2-.51,0-.71-.2-.2-.51-.2-.71,0Z"/>
        <path class="cls-6" d="M37.48,72.23c-.2.2-.2.51,0,.71.2.2.51.2.71,0,.2-.2.2-.51,0-.71-.2-.2-.51-.2-.71,0Z"/>
        <path class="cls-6" d="M39.51,74.25c-.2.2-.2.51,0,.71.2.2.51.2.71,0,.2-.2.2-.51,0-.71-.2-.2-.51-.2-.71,0Z"/>
        <path class="cls-6" d="M41.53,76.28c-.2.2-.2.51,0,.71.2.2.51.2.71,0,.2-.2.2-.51,0-.71-.2-.2-.51-.2-.71,0Z"/>
        <path class="cls-6" d="M43.55,78.3c-.2.2-.2.51,0,.71.2.2.51.2.71,0,.2-.2.2-.51,0-.71-.2-.2-.51-.2-.71,0Z"/>
        <path class="cls-6" d="M45.58,80.32c-.2.2-.2.51,0,.71.2.2.51.2.71,0,.2-.2.2-.51,0-.71-.2-.2-.51-.2-.71,0Z"/>
        <path class="cls-6" d="M47.6,82.35c-.2.2-.2.51,0,.71.2.2.51.2.71,0,.2-.2.2-.51,0-.71-.2-.2-.51-.2-.71,0Z"/>
        <path class="cls-6" d="M49.62,84.37c-.2.2-.2.51,0,.71.2.2.51.2.71,0,.2-.2.2-.51,0-.71-.2-.2-.51-.2-.71,0Z"/>
        <path class="cls-6" d="M51.64,86.39c-.2.2-.2.51,0,.71.2.2.51.2.71,0,.2-.2.2-.51,0-.71-.2-.2-.51-.2-.71,0Z"/>
        <path class="cls-6" d="M66.52,100.56c-.1.28-.2.56-.3.84.11-.01.22-.06.3-.14.19-.19.2-.51,0-.7Z"/>
        <path class="cls-6" d="M67.83,102.58c-.2.2-.2.51,0,.71.2.2.51.2.71,0,.2-.2.2-.51,0-.71-.2-.2-.51-.2-.71,0Z"/>
        <path class="cls-6" d="M69.85,104.6c-.2.2-.2.51,0,.71s.51.2.71,0c.2-.2.2-.51,0-.71-.2-.2-.51-.2-.71,0Z"/>
        <path class="cls-6" d="M71.87,106.62c-.2.2-.2.51,0,.71.2.2.51.2.71,0,.2-.2.2-.51,0-.71-.2-.2-.51-.2-.71,0Z"/>
        <path class="cls-6" d="M73.9,108.64c-.2.2-.2.51,0,.71.2.2.51.2.71,0,.2-.2.2-.51,0-.71s-.51-.2-.71,0Z"/>
        <path class="cls-6" d="M75.92,110.67c-.2.2-.2.51,0,.71.2.2.51.2.71,0,.2-.2.2-.51,0-.71-.2-.2-.51-.2-.71,0Z"/>
        <path class="cls-6" d="M77.94,112.69c-.2.2-.2.51,0,.71.2.2.51.2.71,0,.2-.2.2-.51,0-.71-.2-.2-.51-.2-.71,0Z"/>
        <path class="cls-6" d="M79.97,114.71c-.2.2-.2.51,0,.71.2.2.51.2.71,0,.2-.2.2-.51,0-.71-.2-.2-.51-.2-.71,0Z"/>
        <path class="cls-6" d="M81.99,116.74c-.2.2-.2.51,0,.71.2.2.51.2.71,0,.2-.2.2-.51,0-.71-.2-.2-.51-.2-.71,0Z"/>
        <path class="cls-6" d="M84.01,118.76c-.2.2-.2.51,0,.71.2.2.51.2.71,0,.2-.2.2-.51,0-.71-.2-.2-.51-.2-.71,0Z"/>
        <path class="cls-6" d="M86.03,120.78c-.2.2-.2.51,0,.71.2.2.51.2.71,0,.2-.2.2-.51,0-.71-.2-.2-.51-.2-.71,0Z"/>
        <path class="cls-6" d="M88.06,122.8c-.2.2-.2.51,0,.71.2.2.51.2.71,0,.2-.2.2-.51,0-.71-.2-.2-.51-.2-.71,0Z"/>
        <path class="cls-6" d="M90.08,124.83c-.2.2-.2.51,0,.71.2.2.51.2.71,0,.2-.2.2-.51,0-.71-.2-.2-.51-.2-.71,0Z"/>
        <path class="cls-6" d="M92.1,126.85c-.2.2-.2.51,0,.71.2.2.51.2.71,0,.2-.2.2-.51,0-.71-.2-.2-.51-.2-.71,0Z"/>
        <path class="cls-6" d="M31.42,70.21c-.2.2-.2.51,0,.71.2.2.51.2.71,0,.2-.2.2-.51,0-.71-.2-.2-.51-.2-.71,0Z"/>
        <path class="cls-6" d="M33.44,72.23c-.2.2-.2.51,0,.71.2.2.51.2.71,0,.2-.2.2-.51,0-.71-.2-.2-.51-.2-.71,0Z"/>
        <path class="cls-6" d="M35.46,74.25c-.2.2-.2.51,0,.71s.51.2.71,0c.2-.2.2-.51,0-.71-.2-.2-.51-.2-.71,0Z"/>
        <path class="cls-6" d="M37.48,76.28c-.2.2-.2.51,0,.71.2.2.51.2.71,0,.2-.2.2-.51,0-.71-.2-.2-.51-.2-.71,0Z"/>
        <path class="cls-6" d="M39.51,78.3c-.2.2-.2.51,0,.71.2.2.51.2.71,0,.2-.2.2-.51,0-.71-.2-.2-.51-.2-.71,0Z"/>
        <path class="cls-6" d="M41.53,80.32c-.2.2-.2.51,0,.71.2.2.51.2.71,0,.2-.2.2-.51,0-.71-.2-.2-.51-.2-.71,0Z"/>
        <path class="cls-6" d="M43.55,82.35c-.2.2-.2.51,0,.71.2.2.51.2.71,0,.2-.2.2-.51,0-.71-.2-.2-.51-.2-.71,0Z"/>
        <path class="cls-6" d="M45.58,84.37c-.2.2-.2.51,0,.71s.51.2.71,0c.2-.2.2-.51,0-.71-.2-.2-.51-.2-.71,0Z"/>
        <path class="cls-6" d="M47.6,86.39c-.2.2-.2.51,0,.71.2.2.51.2.71,0,.2-.2.2-.51,0-.71-.2-.2-.51-.2-.71,0Z"/>
        <path class="cls-6" d="M49.62,88.41c-.2.2-.2.51,0,.71.2.2.51.2.71,0,.2-.2.2-.51,0-.71-.2-.2-.51-.2-.71,0Z"/>
        <path class="cls-6" d="M51.64,90.44c-.2.2-.2.51,0,.71.2.2.51.2.71,0,.2-.2.2-.51,0-.71-.2-.2-.51-.2-.71,0Z"/>
        <path class="cls-6" d="M53.67,92.46c-.2.2-.2.51,0,.71.2.2.51.2.71,0,.2-.2.2-.51,0-.71-.2-.2-.51-.2-.71,0Z"/>
        <path class="cls-6" d="M65.81,104.6c-.2.2-.2.51,0,.71.2.2.51.2.71,0,.2-.2.2-.51,0-.71-.2-.2-.51-.2-.71,0Z"/>
        <path class="cls-6" d="M67.83,106.62c-.2.2-.2.51,0,.71.2.2.51.2.71,0,.2-.2.2-.51,0-.71-.2-.2-.51-.2-.71,0Z"/>
        <path class="cls-6" d="M69.85,108.64c-.2.2-.2.51,0,.71.2.2.51.2.71,0,.2-.2.2-.51,0-.71-.2-.2-.51-.2-.71,0Z"/>
        <path class="cls-6" d="M71.87,110.67c-.2.2-.2.51,0,.71.2.2.51.2.71,0,.2-.2.2-.51,0-.71-.2-.2-.51-.2-.71,0Z"/>
        <path class="cls-6" d="M73.9,112.69c-.2.2-.2.51,0,.71.2.2.51.2.71,0s.2-.51,0-.71c-.2-.2-.51-.2-.71,0Z"/>
        <path class="cls-6" d="M75.92,114.71c-.2.2-.2.51,0,.71.2.2.51.2.71,0,.2-.2.2-.51,0-.71-.2-.2-.51-.2-.71,0Z"/>
        <path class="cls-6" d="M77.94,116.74c-.2.2-.2.51,0,.71.2.2.51.2.71,0,.2-.2.2-.51,0-.71-.2-.2-.51-.2-.71,0Z"/>
        <path class="cls-6" d="M79.97,118.76c-.2.2-.2.51,0,.71.2.2.51.2.71,0,.2-.2.2-.51,0-.71-.2-.2-.51-.2-.71,0Z"/>
        <path class="cls-6" d="M81.99,120.78c-.2.2-.2.51,0,.71.2.2.51.2.71,0,.2-.2.2-.51,0-.71-.2-.2-.51-.2-.71,0Z"/>
        <path class="cls-6" d="M84.01,122.8c-.2.2-.2.51,0,.71.2.2.51.2.71,0,.2-.2.2-.51,0-.71-.2-.2-.51-.2-.71,0Z"/>
        <path class="cls-6" d="M86.03,124.83c-.2.2-.2.51,0,.71.2.2.51.2.71,0,.2-.2.2-.51,0-.71-.2-.2-.51-.2-.71,0Z"/>
        <path class="cls-6" d="M88.06,126.85c-.2.2-.2.51,0,.71.2.2.51.2.71,0,.2-.2.2-.51,0-.71-.2-.2-.51-.2-.71,0Z"/>
        <path class="cls-6" d="M28.08,70.92c.12-.12.17-.3.14-.46-.27.11-.55.26-.84.46.2.19.51.19.7,0Z"/>
        <path class="cls-6" d="M29.39,72.23c-.2.2-.2.51,0,.71.2.2.51.2.71,0,.2-.2.2-.51,0-.71-.2-.2-.51-.2-.71,0Z"/>
        <path class="cls-6" d="M31.42,74.25c-.2.2-.2.51,0,.71.2.2.51.2.71,0,.2-.2.2-.51,0-.71-.2-.2-.51-.2-.71,0Z"/>
        <path class="cls-6" d="M33.44,76.28c-.2.2-.2.51,0,.71.2.2.51.2.71,0,.2-.2.2-.51,0-.71-.2-.2-.51-.2-.71,0Z"/>
        <path class="cls-6" d="M35.46,78.3c-.2.2-.2.51,0,.71.2.2.51.2.71,0,.2-.2.2-.51,0-.71-.2-.2-.51-.2-.71,0Z"/>
        <path class="cls-6" d="M37.48,80.32c-.2.2-.2.51,0,.71.2.2.51.2.71,0,.2-.2.2-.51,0-.71-.2-.2-.51-.2-.71,0Z"/>
        <path class="cls-6" d="M39.51,82.35c-.2.2-.2.51,0,.71s.51.2.71,0,.2-.51,0-.71c-.2-.2-.51-.2-.71,0Z"/>
        <path class="cls-6" d="M41.53,84.37c-.2.2-.2.51,0,.71.2.2.51.2.71,0s.2-.51,0-.71c-.2-.2-.51-.2-.71,0Z"/>
        <path class="cls-6" d="M43.55,86.39c-.2.2-.2.51,0,.71.2.2.51.2.71,0,.2-.2.2-.51,0-.71-.2-.2-.51-.2-.71,0Z"/>
        <path class="cls-6" d="M45.58,88.41c-.2.2-.2.51,0,.71.2.2.51.2.71,0,.2-.2.2-.51,0-.71-.2-.2-.51-.2-.71,0Z"/>
        <path class="cls-6" d="M47.6,90.44c-.2.2-.2.51,0,.71.2.2.51.2.71,0,.2-.2.2-.51,0-.71-.2-.2-.51-.2-.71,0Z"/>
        <path class="cls-6" d="M49.62,92.46c-.2.2-.2.51,0,.71.2.2.51.2.71,0s.2-.51,0-.71c-.2-.2-.51-.2-.71,0Z"/>
        <path class="cls-6" d="M51.64,94.48c-.2.2-.2.51,0,.71.2.2.51.2.71,0s.2-.51,0-.71c-.2-.2-.51-.2-.71,0Z"/>
        <path class="cls-6" d="M53.67,96.51c-.2.2-.2.51,0,.71.2.2.51.2.71,0,.2-.2.2-.51,0-.71-.2-.2-.51-.2-.71,0Z"/>
        <path class="cls-6" d="M55.69,98.53c-.2.2-.2.51,0,.71.2.2.51.2.71,0,.2-.2.2-.51,0-.71-.2-.2-.51-.2-.71,0Z"/>
        <path class="cls-6" d="M64.34,106.52c-.12.32-.23.63-.34.93.17.05.36,0,.49-.13.2-.2.2-.51,0-.71-.04-.04-.09-.08-.15-.1Z"/>
        <path class="cls-6" d="M65.81,108.64c-.2.2-.2.51,0,.71.2.2.51.2.71,0,.2-.2.2-.51,0-.71-.2-.2-.51-.2-.71,0Z"/>
        <path class="cls-6" d="M67.83,110.67c-.2.2-.2.51,0,.71.2.2.51.2.71,0,.2-.2.2-.51,0-.71-.2-.2-.51-.2-.71,0Z"/>
        <path class="cls-6" d="M69.85,112.69c-.2.2-.2.51,0,.71s.51.2.71,0c.2-.2.2-.51,0-.71-.2-.2-.51-.2-.71,0Z"/>
        <path class="cls-6" d="M71.87,114.71c-.2.2-.2.51,0,.71.2.2.51.2.71,0,.2-.2.2-.51,0-.71-.2-.2-.51-.2-.71,0Z"/>
        <path class="cls-6" d="M73.9,116.74c-.2.2-.2.51,0,.71.2.2.51.2.71,0,.2-.2.2-.51,0-.71-.2-.2-.51-.2-.71,0Z"/>
        <path class="cls-6" d="M75.92,118.76c-.2.2-.2.51,0,.71.2.2.51.2.71,0,.2-.2.2-.51,0-.71-.2-.2-.51-.2-.71,0Z"/>
        <path class="cls-6" d="M77.94,120.78c-.2.2-.2.51,0,.71.2.2.51.2.71,0,.2-.2.2-.51,0-.71-.2-.2-.51-.2-.71,0Z"/>
        <path class="cls-6" d="M79.97,122.8c-.2.2-.2.51,0,.71.2.2.51.2.71,0,.2-.2.2-.51,0-.71-.2-.2-.51-.2-.71,0Z"/>
        <path class="cls-6" d="M81.99,124.83c-.2.2-.2.51,0,.71.2.2.51.2.71,0,.2-.2.2-.51,0-.71-.2-.2-.51-.2-.71,0Z"/>
        <path class="cls-6" d="M84.01,126.85c-.2.2-.2.51,0,.71.2.2.51.2.71,0,.2-.2.2-.51,0-.71-.2-.2-.51-.2-.71,0Z"/>
        <path class="cls-6" d="M86.03,128.87c-.2.2-.2.51,0,.71.2.2.51.2.71,0,.2-.2.2-.51,0-.71-.2-.2-.51-.2-.71,0Z"/>
        <path class="cls-6" d="M26.05,72.23c-.18.25-.34.52-.5.83.17.05.37.01.5-.12.2-.2.2-.51,0-.71,0,0,0,0,0,0Z"/>
        <path class="cls-6" d="M27.37,74.25c-.2.2-.2.51,0,.71.2.2.51.2.71,0,.2-.2.2-.51,0-.71-.2-.2-.51-.2-.71,0Z"/>
        <path class="cls-6" d="M29.39,76.28c-.2.2-.2.51,0,.71.2.2.51.2.71,0,.2-.2.2-.51,0-.71-.2-.2-.51-.2-.71,0Z"/>
        <path class="cls-6" d="M31.42,78.3c-.2.2-.2.51,0,.71.2.2.51.2.71,0,.2-.2.2-.51,0-.71-.2-.2-.51-.2-.71,0Z"/>
        <path class="cls-6" d="M33.44,80.32c-.2.2-.2.51,0,.71.2.2.51.2.71,0,.2-.2.2-.51,0-.71-.2-.2-.51-.2-.71,0Z"/>
        <path class="cls-6" d="M35.46,82.35c-.2.2-.2.51,0,.71.2.2.51.2.71,0,.2-.2.2-.51,0-.71s-.51-.2-.71,0Z"/>
        <path class="cls-6" d="M37.48,84.37c-.2.2-.2.51,0,.71.2.2.51.2.71,0,.2-.2.2-.51,0-.71-.2-.2-.51-.2-.71,0Z"/>
        <path class="cls-6" d="M39.51,86.39c-.2.2-.2.51,0,.71.2.2.51.2.71,0,.2-.2.2-.51,0-.71-.2-.2-.51-.2-.71,0Z"/>
        <path class="cls-6" d="M41.53,88.41c-.2.2-.2.51,0,.71.2.2.51.2.71,0,.2-.2.2-.51,0-.71s-.51-.2-.71,0Z"/>
        <path class="cls-6" d="M43.55,90.44c-.2.2-.2.51,0,.71.2.2.51.2.71,0,.2-.2.2-.51,0-.71-.2-.2-.51-.2-.71,0Z"/>
        <path class="cls-6" d="M45.58,92.46c-.2.2-.2.51,0,.71.2.2.51.2.71,0,.2-.2.2-.51,0-.71s-.51-.2-.71,0Z"/>
        <path class="cls-6" d="M47.6,94.48c-.2.2-.2.51,0,.71s.51.2.71,0c.2-.2.2-.51,0-.71-.2-.2-.51-.2-.71,0Z"/>
        <path class="cls-6" d="M49.62,96.51c-.2.2-.2.51,0,.71.2.2.51.2.71,0,.2-.2.2-.51,0-.71-.2-.2-.51-.2-.71,0Z"/>
        <path class="cls-6" d="M51.64,98.53c-.2.2-.2.51,0,.71.2.2.51.2.71,0,.2-.2.2-.51,0-.71s-.51-.2-.71,0Z"/>
        <path class="cls-6" d="M53.67,100.55c-.2.2-.2.51,0,.71.2.2.51.2.71,0,.2-.2.2-.51,0-.71-.2-.2-.51-.2-.71,0Z"/>
        <path class="cls-6" d="M55.69,102.58c-.2.2-.2.51,0,.71.2.2.51.2.71,0,.2-.2.2-.51,0-.71s-.51-.2-.71,0Z"/>
        <path class="cls-6" d="M57.71,104.6c-.2.2-.2.51,0,.71.2.2.51.2.71,0,.2-.2.2-.51,0-.71-.2-.2-.51-.2-.71,0Z"/>
        <path class="cls-6" d="M59.92,107.44c-.09-.23-.17-.47-.26-.71-.11.19-.08.43.08.6.05.05.11.09.18.11Z"/>
        <path class="cls-6" d="M63.78,110.67c-.2.2-.2.51,0,.71.2.2.51.2.71,0,.2-.2.2-.51,0-.71-.2-.2-.51-.2-.71,0Z"/>
        <path class="cls-6" d="M65.81,112.69c-.2.2-.2.51,0,.71.2.2.51.2.71,0,.2-.2.2-.51,0-.71-.2-.2-.51-.2-.71,0Z"/>
        <path class="cls-6" d="M67.83,114.71c-.2.2-.2.51,0,.71.2.2.51.2.71,0,.2-.2.2-.51,0-.71-.2-.2-.51-.2-.71,0Z"/>
        <path class="cls-6" d="M69.85,116.74c-.2.2-.2.51,0,.71.2.2.51.2.71,0,.2-.2.2-.51,0-.71-.2-.2-.51-.2-.71,0Z"/>
        <path class="cls-6" d="M71.87,118.76c-.2.2-.2.51,0,.71.2.2.51.2.71,0,.2-.2.2-.51,0-.71-.2-.2-.51-.2-.71,0Z"/>
        <path class="cls-6" d="M73.9,120.78c-.2.2-.2.51,0,.71.2.2.51.2.71,0,.2-.2.2-.51,0-.71-.2-.2-.51-.2-.71,0Z"/>
        <path class="cls-6" d="M75.92,122.8c-.2.2-.2.51,0,.71.2.2.51.2.71,0,.2-.2.2-.51,0-.71-.2-.2-.51-.2-.71,0Z"/>
        <path class="cls-6" d="M82.64,128.83l.19.48c.02-.15-.02-.31-.14-.43-.02-.02-.04-.03-.06-.05Z"/>
        <path class="cls-6" d="M25.35,76.28c-.2.2-.2.51,0,.71.2.2.51.2.71,0,.2-.2.2-.51,0-.71-.2-.2-.51-.2-.71,0Z"/>
        <path class="cls-6" d="M27.37,78.3c-.2.2-.2.51,0,.71.2.2.51.2.71,0,.2-.2.2-.51,0-.71-.2-.2-.51-.2-.71,0Z"/>
        <path class="cls-6" d="M29.39,80.32c-.2.2-.2.51,0,.71.2.2.51.2.71,0,.2-.2.2-.51,0-.71s-.51-.2-.71,0Z"/>
        <path class="cls-6" d="M31.42,82.35c-.2.2-.2.51,0,.71.2.2.51.2.71,0,.2-.2.2-.51,0-.71-.2-.2-.51-.2-.71,0Z"/>
        <path class="cls-6" d="M33.44,84.37c-.2.2-.2.51,0,.71.2.2.51.2.71,0s.2-.51,0-.71c-.2-.2-.51-.2-.71,0Z"/>
        <path class="cls-6" d="M35.46,86.39c-.2.2-.2.51,0,.71.2.2.51.2.71,0s.2-.51,0-.71c-.2-.2-.51-.2-.71,0Z"/>
        <path class="cls-6" d="M37.48,88.41c-.2.2-.2.51,0,.71.2.2.51.2.71,0,.2-.2.2-.51,0-.71-.2-.2-.51-.2-.71,0Z"/>
        <path class="cls-6" d="M39.51,90.44c-.2.2-.2.51,0,.71.2.2.51.2.71,0,.2-.2.2-.51,0-.71s-.51-.2-.71,0Z"/>
        <path class="cls-6" d="M41.53,92.46c-.2.2-.2.51,0,.71s.51.2.71,0c.2-.2.2-.51,0-.71-.2-.2-.51-.2-.71,0Z"/>
        <path class="cls-6" d="M43.55,94.48c-.2.2-.2.51,0,.71.2.2.51.2.71,0s.2-.51,0-.71c-.2-.2-.51-.2-.71,0Z"/>
        <path class="cls-6" d="M45.58,96.51c-.2.2-.2.51,0,.71.2.2.51.2.71,0s.2-.51,0-.71c-.2-.2-.51-.2-.71,0Z"/>
        <path class="cls-6" d="M47.6,98.53c-.2.2-.2.51,0,.71.2.2.51.2.71,0,.2-.2.2-.51,0-.71-.2-.2-.51-.2-.71,0Z"/>
        <path class="cls-6" d="M49.62,100.55c-.2.2-.2.51,0,.71.2.2.51.2.71,0,.2-.2.2-.51,0-.71s-.51-.2-.71,0Z"/>
        <path class="cls-6" d="M51.64,102.58c-.2.2-.2.51,0,.71s.51.2.71,0c.2-.2.2-.51,0-.71-.2-.2-.51-.2-.71,0Z"/>
        <path class="cls-6" d="M53.67,104.6c-.2.2-.2.51,0,.71.2.2.51.2.71,0,.2-.2.2-.51,0-.71-.2-.2-.51-.2-.71,0Z"/>
        <path class="cls-6" d="M55.69,106.62c-.2.2-.2.51,0,.71.2.2.51.2.71,0,.2-.2.2-.51,0-.71-.2-.2-.51-.2-.71,0Z"/>
        <path class="cls-6" d="M57.71,108.64c-.2.2-.2.51,0,.71.2.2.51.2.71,0,.2-.2.2-.51,0-.71-.2-.2-.51-.2-.71,0Z"/>
        <path class="cls-6" d="M59.74,110.67c-.2.2-.2.51,0,.71.2.2.51.2.71,0,.2-.2.2-.51,0-.71-.2-.2-.51-.2-.71,0Z"/>
        <path class="cls-6" d="M62.1,112.54c-.09.24-.14.38-.14.38,0,0-.04-.11-.11-.3-.03.02-.06.04-.09.07-.2.2-.2.51,0,.71.2.2.51.2.71,0s.2-.51,0-.71c-.1-.1-.23-.15-.37-.15Z"/>
        <path class="cls-6" d="M63.78,114.71c-.2.2-.2.51,0,.71.2.2.51.2.71,0,.2-.2.2-.51,0-.71-.2-.2-.51-.2-.71,0Z"/>
        <path class="cls-6" d="M65.81,116.74c-.2.2-.2.51,0,.71.2.2.51.2.71,0,.2-.2.2-.51,0-.71-.2-.2-.51-.2-.71,0Z"/>
        <path class="cls-6" d="M67.83,118.76c-.2.2-.2.51,0,.71.2.2.51.2.71,0,.2-.2.2-.51,0-.71-.2-.2-.51-.2-.71,0Z"/>
        <path class="cls-6" d="M69.85,120.78c-.2.2-.2.51,0,.71.2.2.51.2.71,0,.2-.2.2-.51,0-.71s-.51-.2-.71,0Z"/>
        <path class="cls-6" d="M71.87,122.8c-.11.11-.16.26-.14.41l.97.1c.06-.17.02-.37-.12-.51-.2-.2-.51-.2-.71,0Z"/>
        <path class="cls-6" d="M24.16,78.53c-.02.13-.05.27-.07.4.08-.12.1-.27.07-.4Z"/>
        <path class="cls-6" d="M25.35,80.32c-.2.2-.2.51,0,.71.2.2.51.2.71,0,.2-.2.2-.51,0-.71-.2-.2-.51-.2-.71,0Z"/>
        <path class="cls-6" d="M27.37,82.35c-.2.2-.2.51,0,.71.2.2.51.2.71,0,.2-.2.2-.51,0-.71-.2-.2-.51-.2-.71,0Z"/>
        <path class="cls-6" d="M29.39,84.37c-.2.2-.2.51,0,.71.2.2.51.2.71,0,.2-.2.2-.51,0-.71-.2-.2-.51-.2-.71,0Z"/>
        <path class="cls-6" d="M31.42,86.39c-.2.2-.2.51,0,.71.2.2.51.2.71,0,.2-.2.2-.51,0-.71-.2-.2-.51-.2-.71,0Z"/>
        <path class="cls-6" d="M33.44,88.41c-.2.2-.2.51,0,.71.2.2.51.2.71,0,.2-.2.2-.51,0-.71s-.51-.2-.71,0Z"/>
        <path class="cls-6" d="M35.46,90.44c-.2.2-.2.51,0,.71.2.2.51.2.71,0,.2-.2.2-.51,0-.71-.2-.2-.51-.2-.71,0Z"/>
        <path class="cls-6" d="M37.48,92.46c-.2.2-.2.51,0,.71.2.2.51.2.71,0,.2-.2.2-.51,0-.71-.2-.2-.51-.2-.71,0Z"/>
        <path class="cls-6" d="M39.51,94.48c-.2.2-.2.51,0,.71.2.2.51.2.71,0,.2-.2.2-.51,0-.71-.2-.2-.51-.2-.71,0Z"/>
        <path class="cls-6" d="M41.53,96.51c-.2.2-.2.51,0,.71.2.2.51.2.71,0,.2-.2.2-.51,0-.71-.2-.2-.51-.2-.71,0Z"/>
        <path class="cls-6" d="M43.55,98.53c-.2.2-.2.51,0,.71.2.2.51.2.71,0,.2-.2.2-.51,0-.71s-.51-.2-.71,0Z"/>
        <path class="cls-6" d="M45.58,100.55c-.2.2-.2.51,0,.71.2.2.51.2.71,0,.2-.2.2-.51,0-.71-.2-.2-.51-.2-.71,0Z"/>
        <path class="cls-6" d="M47.6,102.58c-.2.2-.2.51,0,.71.2.2.51.2.71,0,.2-.2.2-.51,0-.71-.2-.2-.51-.2-.71,0Z"/>
        <path class="cls-6" d="M49.62,104.6c-.2.2-.2.51,0,.71.2.2.51.2.71,0,.2-.2.2-.51,0-.71-.2-.2-.51-.2-.71,0Z"/>
        <path class="cls-6" d="M51.64,106.62c-.2.2-.2.51,0,.71.2.2.51.2.71,0,.2-.2.2-.51,0-.71-.2-.2-.51-.2-.71,0Z"/>
        <path class="cls-6" d="M53.67,108.64c-.2.2-.2.51,0,.71.2.2.51.2.71,0,.2-.2.2-.51,0-.71-.2-.2-.51-.2-.71,0Z"/>
        <path class="cls-6" d="M55.69,110.67c-.2.2-.2.51,0,.71.2.2.51.2.71,0,.2-.2.2-.51,0-.71-.2-.2-.51-.2-.71,0Z"/>
        <path class="cls-6" d="M57.71,112.69c-.2.2-.2.51,0,.71.2.2.51.2.71,0,.2-.2.2-.51,0-.71-.2-.2-.51-.2-.71,0Z"/>
        <path class="cls-6" d="M59.74,114.71c-.2.2-.2.51,0,.71.2.2.51.2.71,0,.2-.2.2-.51,0-.71-.2-.2-.51-.2-.71,0Z"/>
        <path class="cls-6" d="M61.76,116.74c-.2.2-.2.51,0,.71.2.2.51.2.71,0,.2-.2.2-.51,0-.71-.2-.2-.51-.2-.71,0Z"/>
        <path class="cls-6" d="M63.78,118.76c-.2.2-.2.51,0,.71.2.2.51.2.71,0,.2-.2.2-.51,0-.71-.2-.2-.51-.2-.71,0Z"/>
        <path class="cls-6" d="M65.81,120.78c-.2.2-.2.51,0,.71.2.2.51.2.71,0,.2-.2.2-.51,0-.71-.2-.2-.51-.2-.71,0Z"/>
        <path class="cls-6" d="M67.83,122.8s0,0,0,0l.77.08s-.04-.06-.07-.08c-.2-.2-.51-.2-.71,0Z"/>
        <path class="cls-6" d="M23.56,82.22c-.05.3-.09.6-.14.91.19.12.45.1.62-.07.2-.2.2-.51,0-.71-.13-.13-.31-.17-.48-.13Z"/>
        <path class="cls-6" d="M25.35,84.37c-.2.2-.2.51,0,.71s.51.2.71,0c.2-.2.2-.51,0-.71-.2-.2-.51-.2-.71,0Z"/>
        <path class="cls-6" d="M27.37,86.39c-.2.2-.2.51,0,.71.2.2.51.2.71,0,.2-.2.2-.51,0-.71-.2-.2-.51-.2-.71,0Z"/>
        <path class="cls-6" d="M29.39,88.41c-.2.2-.2.51,0,.71.2.2.51.2.71,0,.2-.2.2-.51,0-.71-.2-.2-.51-.2-.71,0Z"/>
        <path class="cls-6" d="M31.42,90.44c-.2.2-.2.51,0,.71.2.2.51.2.71,0,.2-.2.2-.51,0-.71-.2-.2-.51-.2-.71,0Z"/>
        <path class="cls-6" d="M33.44,92.46c-.2.2-.2.51,0,.71.2.2.51.2.71,0,.2-.2.2-.51,0-.71-.2-.2-.51-.2-.71,0Z"/>
        <path class="cls-6" d="M35.46,94.48c-.2.2-.2.51,0,.71s.51.2.71,0c.2-.2.2-.51,0-.71-.2-.2-.51-.2-.71,0Z"/>
        <path class="cls-6" d="M37.48,96.51c-.2.2-.2.51,0,.71.2.2.51.2.71,0,.2-.2.2-.51,0-.71-.2-.2-.51-.2-.71,0Z"/>
        <path class="cls-6" d="M39.51,98.53c-.2.2-.2.51,0,.71.2.2.51.2.71,0,.2-.2.2-.51,0-.71-.2-.2-.51-.2-.71,0Z"/>
        <path class="cls-6" d="M41.53,100.55c-.2.2-.2.51,0,.71.2.2.51.2.71,0,.2-.2.2-.51,0-.71-.2-.2-.51-.2-.71,0Z"/>
        <path class="cls-6" d="M43.55,102.58c-.2.2-.2.51,0,.71.2.2.51.2.71,0,.2-.2.2-.51,0-.71-.2-.2-.51-.2-.71,0Z"/>
        <path class="cls-6" d="M45.58,104.6c-.2.2-.2.51,0,.71s.51.2.71,0c.2-.2.2-.51,0-.71-.2-.2-.51-.2-.71,0Z"/>
        <path class="cls-6" d="M47.6,106.62c-.2.2-.2.51,0,.71.2.2.51.2.71,0,.2-.2.2-.51,0-.71-.2-.2-.51-.2-.71,0Z"/>
        <path class="cls-6" d="M49.62,108.64c-.2.2-.2.51,0,.71.2.2.51.2.71,0,.2-.2.2-.51,0-.71-.2-.2-.51-.2-.71,0Z"/>
        <path class="cls-6" d="M51.64,110.67c-.2.2-.2.51,0,.71.2.2.51.2.71,0,.2-.2.2-.51,0-.71-.2-.2-.51-.2-.71,0Z"/>
        <path class="cls-6" d="M53.67,112.69c-.2.2-.2.51,0,.71.2.2.51.2.71,0,.2-.2.2-.51,0-.71-.2-.2-.51-.2-.71,0Z"/>
        <path class="cls-6" d="M55.69,114.71c-.2.2-.2.51,0,.71.2.2.51.2.71,0,.2-.2.2-.51,0-.71-.2-.2-.51-.2-.71,0Z"/>
        <path class="cls-6" d="M57.71,116.74c-.2.2-.2.51,0,.71.2.2.51.2.71,0,.2-.2.2-.51,0-.71-.2-.2-.51-.2-.71,0Z"/>
        <path class="cls-6" d="M59.74,118.76c-.2.2-.2.51,0,.71.2.2.51.2.71,0,.2-.2.2-.51,0-.71-.2-.2-.51-.2-.71,0Z"/>
        <path class="cls-6" d="M61.76,120.78c-.2.2-.2.51,0,.71.2.2.51.2.71,0,.2-.2.2-.51,0-.71-.2-.2-.51-.2-.71,0Z"/>
        <path class="cls-6" d="M23.32,86.39c-.2.2-.2.51,0,.71s.51.2.71,0c.2-.2.2-.51,0-.71-.2-.2-.51-.2-.71,0Z"/>
        <path class="cls-6" d="M25.35,88.41c-.2.2-.2.51,0,.71.2.2.51.2.71,0,.2-.2.2-.51,0-.71-.2-.2-.51-.2-.71,0Z"/>
        <path class="cls-6" d="M27.37,90.44c-.2.2-.2.51,0,.71.2.2.51.2.71,0,.2-.2.2-.51,0-.71-.2-.2-.51-.2-.71,0Z"/>
        <path class="cls-6" d="M29.39,92.46c-.2.2-.2.51,0,.71s.51.2.71,0,.2-.51,0-.71c-.2-.2-.51-.2-.71,0Z"/>
        <path class="cls-6" d="M31.42,94.48c-.2.2-.2.51,0,.71.2.2.51.2.71,0,.2-.2.2-.51,0-.71-.2-.2-.51-.2-.71,0Z"/>
        <path class="cls-6" d="M33.44,96.51c-.2.2-.2.51,0,.71.2.2.51.2.71,0,.2-.2.2-.51,0-.71-.2-.2-.51-.2-.71,0Z"/>
        <path class="cls-6" d="M35.46,98.53c-.2.2-.2.51,0,.71.2.2.51.2.71,0,.2-.2.2-.51,0-.71-.2-.2-.51-.2-.71,0Z"/>
        <path class="cls-6" d="M37.48,100.55c-.2.2-.2.51,0,.71.2.2.51.2.71,0,.2-.2.2-.51,0-.71-.2-.2-.51-.2-.71,0Z"/>
        <path class="cls-6" d="M39.51,102.58c-.2.2-.2.51,0,.71s.51.2.71,0,.2-.51,0-.71c-.2-.2-.51-.2-.71,0Z"/>
        <path class="cls-6" d="M41.53,104.6c-.2.2-.2.51,0,.71.2.2.51.2.71,0s.2-.51,0-.71c-.2-.2-.51-.2-.71,0Z"/>
        <path class="cls-6" d="M43.55,106.62c-.2.2-.2.51,0,.71.2.2.51.2.71,0,.2-.2.2-.51,0-.71-.2-.2-.51-.2-.71,0Z"/>
        <path class="cls-6" d="M45.58,108.64c-.2.2-.2.51,0,.71.2.2.51.2.71,0,.2-.2.2-.51,0-.71-.2-.2-.51-.2-.71,0Z"/>
        <path class="cls-6" d="M47.6,110.67c-.2.2-.2.51,0,.71.2.2.51.2.71,0,.2-.2.2-.51,0-.71-.2-.2-.51-.2-.71,0Z"/>
        <path class="cls-6" d="M49.62,112.69c-.2.2-.2.51,0,.71.2.2.51.2.71,0,.2-.2.2-.51,0-.71-.2-.2-.51-.2-.71,0Z"/>
        <path class="cls-6" d="M51.64,114.71c-.2.2-.2.51,0,.71.2.2.51.2.71,0,.2-.2.2-.51,0-.71-.2-.2-.51-.2-.71,0Z"/>
        <path class="cls-6" d="M53.67,116.74c-.2.2-.2.51,0,.71.2.2.51.2.71,0,.2-.2.2-.51,0-.71-.2-.2-.51-.2-.71,0Z"/>
        <path class="cls-6" d="M55.69,118.76c-.2.2-.2.51,0,.71.2.2.51.2.71,0,.2-.2.2-.51,0-.71-.2-.2-.51-.2-.71,0Z"/>
        <path class="cls-6" d="M57.71,120.78c-.2.2-.2.51,0,.71.2.2.51.2.71,0,.2-.2.2-.51,0-.71-.2-.2-.51-.2-.71,0Z"/>
        <path class="cls-6" d="M23.32,90.44c-.2.2-.2.51,0,.71.2.2.51.2.71,0,.2-.2.2-.51,0-.71-.2-.2-.51-.2-.71,0Z"/>
        <path class="cls-6" d="M25.35,92.46c-.2.2-.2.51,0,.71.2.2.51.2.71,0,.2-.2.2-.51,0-.71-.2-.2-.51-.2-.71,0Z"/>
        <path class="cls-6" d="M27.37,94.48c-.2.2-.2.51,0,.71.2.2.51.2.71,0,.2-.2.2-.51,0-.71-.2-.2-.51-.2-.71,0Z"/>
        <path class="cls-6" d="M29.39,96.51c-.2.2-.2.51,0,.71.2.2.51.2.71,0,.2-.2.2-.51,0-.71-.2-.2-.51-.2-.71,0Z"/>
        <path class="cls-6" d="M31.42,98.53c-.2.2-.2.51,0,.71.2.2.51.2.71,0,.2-.2.2-.51,0-.71-.2-.2-.51-.2-.71,0Z"/>
        <path class="cls-6" d="M33.44,100.55c-.2.2-.2.51,0,.71.2.2.51.2.71,0,.2-.2.2-.51,0-.71-.2-.2-.51-.2-.71,0Z"/>
        <path class="cls-6" d="M35.46,102.58c-.2.2-.2.51,0,.71.2.2.51.2.71,0,.2-.2.2-.51,0-.71s-.51-.2-.71,0Z"/>
        <path class="cls-6" d="M37.48,104.6c-.2.2-.2.51,0,.71.2.2.51.2.71,0,.2-.2.2-.51,0-.71-.2-.2-.51-.2-.71,0Z"/>
        <path class="cls-6" d="M39.51,106.62c-.2.2-.2.51,0,.71.2.2.51.2.71,0,.2-.2.2-.51,0-.71s-.51-.2-.71,0Z"/>
        <path class="cls-6" d="M41.53,108.64c-.2.2-.2.51,0,.71.2.2.51.2.71,0,.2-.2.2-.51,0-.71s-.51-.2-.71,0Z"/>
        <path class="cls-6" d="M43.55,110.67c-.2.2-.2.51,0,.71.2.2.51.2.71,0,.2-.2.2-.51,0-.71-.2-.2-.51-.2-.71,0Z"/>
        <path class="cls-6" d="M45.58,112.69c-.2.2-.2.51,0,.71s.51.2.71,0c.2-.2.2-.51,0-.71-.2-.2-.51-.2-.71,0Z"/>
        <path class="cls-6" d="M47.6,114.71c-.2.2-.2.51,0,.71.2.2.51.2.71,0,.2-.2.2-.51,0-.71-.2-.2-.51-.2-.71,0Z"/>
        <path class="cls-6" d="M49.62,116.74c-.2.2-.2.51,0,.71.2.2.51.2.71,0,.2-.2.2-.51,0-.71-.2-.2-.51-.2-.71,0Z"/>
        <path class="cls-6" d="M51.64,118.76c-.2.2-.2.51,0,.71.2.2.51.2.71,0,.2-.2.2-.51,0-.71-.2-.2-.51-.2-.71,0Z"/>
        <path class="cls-6" d="M53.67,120.78c-.15.15-.18.36-.11.54l.88.09c.13-.19.11-.46-.06-.63-.2-.2-.51-.2-.71,0Z"/>
        <path class="cls-6" d="M22.04,92.49c-.04.25-.07.5-.11.74.03-.02.06-.04.09-.07.19-.19.19-.48.03-.68Z"/>
        <path class="cls-6" d="M23.32,94.48c-.2.2-.2.51,0,.71.2.2.51.2.71,0s.2-.51,0-.71c-.2-.2-.51-.2-.71,0Z"/>
        <path class="cls-6" d="M25.35,96.51c-.2.2-.2.51,0,.71.2.2.51.2.71,0,.2-.2.2-.51,0-.71-.2-.2-.51-.2-.71,0Z"/>
        <path class="cls-6" d="M27.37,98.53c-.2.2-.2.51,0,.71.2.2.51.2.71,0,.2-.2.2-.51,0-.71-.2-.2-.51-.2-.71,0Z"/>
        <path class="cls-6" d="M29.39,100.55c-.2.2-.2.51,0,.71.2.2.51.2.71,0,.2-.2.2-.51,0-.71s-.51-.2-.71,0Z"/>
        <path class="cls-6" d="M31.42,102.58c-.2.2-.2.51,0,.71.2.2.51.2.71,0,.2-.2.2-.51,0-.71-.2-.2-.51-.2-.71,0Z"/>
        <path class="cls-6" d="M33.44,104.6c-.2.2-.2.51,0,.71.2.2.51.2.71,0s.2-.51,0-.71c-.2-.2-.51-.2-.71,0Z"/>
        <path class="cls-6" d="M35.46,106.62c-.2.2-.2.51,0,.71.2.2.51.2.71,0,.2-.2.2-.51,0-.71-.2-.2-.51-.2-.71,0Z"/>
        <path class="cls-6" d="M37.48,108.64c-.2.2-.2.51,0,.71.2.2.51.2.71,0,.2-.2.2-.51,0-.71-.2-.2-.51-.2-.71,0Z"/>
        <path class="cls-6" d="M39.51,110.67c-.2.2-.2.51,0,.71.2.2.51.2.71,0,.2-.2.2-.51,0-.71-.2-.2-.51-.2-.71,0Z"/>
        <path class="cls-6" d="M41.53,112.69c-.2.2-.2.51,0,.71.2.2.51.2.71,0s.2-.51,0-.71c-.2-.2-.51-.2-.71,0Z"/>
        <path class="cls-6" d="M43.55,114.71c-.2.2-.2.51,0,.71.2.2.51.2.71,0,.2-.2.2-.51,0-.71-.2-.2-.51-.2-.71,0Z"/>
        <path class="cls-6" d="M45.58,116.74c-.2.2-.2.51,0,.71.2.2.51.2.71,0,.2-.2.2-.51,0-.71-.2-.2-.51-.2-.71,0Z"/>
        <path class="cls-6" d="M47.6,118.76c-.2.2-.2.51,0,.71.2.2.51.2.71,0,.2-.2.2-.51,0-.71-.2-.2-.51-.2-.71,0Z"/>
        <path class="cls-6" d="M49.62,120.78s-.06.08-.09.12l.92.1c-.02-.08-.06-.15-.12-.21-.2-.2-.51-.2-.71,0Z"/>
        <path class="cls-6" d="M21.44,96.41c-.04.27-.08.54-.13.81.2.19.51.18.7,0,.2-.2.2-.51,0-.71-.16-.16-.39-.19-.57-.09Z"/>
        <path class="cls-6" d="M23.32,98.53c-.2.2-.2.51,0,.71.2.2.51.2.71,0,.2-.2.2-.51,0-.71s-.51-.2-.71,0Z"/>
        <path class="cls-6" d="M25.35,100.55c-.2.2-.2.51,0,.71.2.2.51.2.71,0,.2-.2.2-.51,0-.71-.2-.2-.51-.2-.71,0Z"/>
        <path class="cls-6" d="M27.37,102.58c-.2.2-.2.51,0,.71.2.2.51.2.71,0,.2-.2.2-.51,0-.71-.2-.2-.51-.2-.71,0Z"/>
        <path class="cls-6" d="M29.39,104.6c-.2.2-.2.51,0,.71.2.2.51.2.71,0,.2-.2.2-.51,0-.71-.2-.2-.51-.2-.71,0Z"/>
        <path class="cls-6" d="M31.42,106.62c-.2.2-.2.51,0,.71.2.2.51.2.71,0,.2-.2.2-.51,0-.71-.2-.2-.51-.2-.71,0Z"/>
        <path class="cls-6" d="M33.44,108.64c-.2.2-.2.51,0,.71.2.2.51.2.71,0,.2-.2.2-.51,0-.71s-.51-.2-.71,0Z"/>
        <path class="cls-6" d="M35.46,110.67c-.2.2-.2.51,0,.71.2.2.51.2.71,0,.2-.2.2-.51,0-.71-.2-.2-.51-.2-.71,0Z"/>
        <path class="cls-6" d="M37.48,112.69c-.2.2-.2.51,0,.71.2.2.51.2.71,0,.2-.2.2-.51,0-.71-.2-.2-.51-.2-.71,0Z"/>
        <path class="cls-6" d="M39.51,114.71c-.2.2-.2.51,0,.71.2.2.51.2.71,0,.2-.2.2-.51,0-.71-.2-.2-.51-.2-.71,0Z"/>
        <path class="cls-6" d="M41.53,116.74c-.2.2-.2.51,0,.71.2.2.51.2.71,0,.2-.2.2-.51,0-.71-.2-.2-.51-.2-.71,0Z"/>
        <path class="cls-6" d="M43.55,118.76c-.2.2-.2.51,0,.71.2.2.51.2.71,0,.2-.2.2-.51,0-.71-.2-.2-.51-.2-.71,0Z"/>
        <path class="cls-6" d="M21.3,100.55c-.2.2-.2.51,0,.71.2.2.51.2.71,0,.2-.2.2-.51,0-.71-.2-.2-.51-.2-.71,0Z"/>
        <path class="cls-6" d="M23.32,102.58c-.2.2-.2.51,0,.71.2.2.51.2.71,0,.2-.2.2-.51,0-.71-.2-.2-.51-.2-.71,0Z"/>
        <path class="cls-6" d="M25.35,104.6c-.2.2-.2.51,0,.71s.51.2.71,0c.2-.2.2-.51,0-.71-.2-.2-.51-.2-.71,0Z"/>
        <path class="cls-6" d="M27.37,106.62c-.2.2-.2.51,0,.71.2.2.51.2.71,0,.2-.2.2-.51,0-.71-.2-.2-.51-.2-.71,0Z"/>
        <path class="cls-6" d="M29.39,108.64c-.2.2-.2.51,0,.71.2.2.51.2.71,0,.2-.2.2-.51,0-.71-.2-.2-.51-.2-.71,0Z"/>
        <path class="cls-6" d="M31.42,110.67c-.2.2-.2.51,0,.71.2.2.51.2.71,0,.2-.2.2-.51,0-.71-.2-.2-.51-.2-.71,0Z"/>
        <path class="cls-6" d="M33.44,112.69c-.2.2-.2.51,0,.71.2.2.51.2.71,0s.2-.51,0-.71c-.2-.2-.51-.2-.71,0Z"/>
        <path class="cls-6" d="M35.46,114.71c-.2.2-.2.51,0,.71.2.2.51.2.71,0,.2-.2.2-.51,0-.71-.2-.2-.51-.2-.71,0Z"/>
        <path class="cls-6" d="M37.48,116.74c-.2.2-.2.51,0,.71.2.2.51.2.71,0,.2-.2.2-.51,0-.71-.2-.2-.51-.2-.71,0Z"/>
        <path class="cls-6" d="M39.51,118.76c-.2.2-.2.51,0,.71.2.2.51.2.71,0,.2-.2.2-.51,0-.71-.2-.2-.51-.2-.71,0Z"/>
        <path class="cls-6" d="M21.3,104.6c-.2.2-.2.51,0,.71.2.2.51.2.71,0,.2-.2.2-.51,0-.71-.2-.2-.51-.2-.71,0Z"/>
        <path class="cls-6" d="M23.32,106.62c-.2.2-.2.51,0,.71.2.2.51.2.71,0,.2-.2.2-.51,0-.71-.2-.2-.51-.2-.71,0Z"/>
        <path class="cls-6" d="M25.35,108.64c-.2.2-.2.51,0,.71.2.2.51.2.71,0,.2-.2.2-.51,0-.71-.2-.2-.51-.2-.71,0Z"/>
        <path class="cls-6" d="M27.37,110.67c-.2.2-.2.51,0,.71.2.2.51.2.71,0,.2-.2.2-.51,0-.71-.2-.2-.51-.2-.71,0Z"/>
        <path class="cls-6" d="M29.39,112.69c-.2.2-.2.51,0,.71.2.2.51.2.71,0,.2-.2.2-.51,0-.71-.2-.2-.51-.2-.71,0Z"/>
        <path class="cls-6" d="M31.42,114.71c-.2.2-.2.51,0,.71.2.2.51.2.71,0,.2-.2.2-.51,0-.71-.2-.2-.51-.2-.71,0Z"/>
        <path class="cls-6" d="M33.44,116.74c-.2.2-.2.51,0,.71.2.2.51.2.71,0,.2-.2.2-.51,0-.71-.2-.2-.51-.2-.71,0Z"/>
        <path class="cls-6" d="M35.46,118.76c-.18.18-.19.47-.03.67l.69.07s.03-.02.04-.04c.2-.2.2-.51,0-.71-.2-.2-.51-.2-.71,0Z"/>
        <path class="cls-6" d="M19.84,106.52c-.05.32-.1.64-.15.95.11-.01.22-.06.3-.14.2-.2.2-.51,0-.71-.04-.04-.09-.08-.15-.1Z"/>
        <path class="cls-6" d="M21.3,108.64c-.2.2-.2.51,0,.71.2.2.51.2.71,0,.2-.2.2-.51,0-.71-.2-.2-.51-.2-.71,0Z"/>
        <path class="cls-6" d="M23.32,110.67c-.2.2-.2.51,0,.71.2.2.51.2.71,0,.2-.2.2-.51,0-.71-.2-.2-.51-.2-.71,0Z"/>
        <path class="cls-6" d="M25.35,112.69c-.2.2-.2.51,0,.71s.51.2.71,0c.2-.2.2-.51,0-.71-.2-.2-.51-.2-.71,0Z"/>
        <path class="cls-6" d="M27.37,114.71c-.2.2-.2.51,0,.71.2.2.51.2.71,0,.2-.2.2-.51,0-.71-.2-.2-.51-.2-.71,0Z"/>
        <path class="cls-6" d="M29.39,116.74c-.2.2-.2.51,0,.71.2.2.51.2.71,0,.2-.2.2-.51,0-.71-.2-.2-.51-.2-.71,0Z"/>
        <path class="cls-6" d="M31.42,118.76c-.07.07-.11.15-.13.24l.99.1c0-.12-.05-.25-.15-.34-.2-.2-.51-.2-.71,0Z"/>
        <path class="cls-6" d="M19.28,110.67c-.2.2-.2.51,0,.71.2.2.51.2.71,0,.2-.2.2-.51,0-.71-.2-.2-.51-.2-.71,0Z"/>
        <path class="cls-6" d="M21.3,112.69c-.2.2-.2.51,0,.71.2.2.51.2.71,0,.2-.2.2-.51,0-.71-.2-.2-.51-.2-.71,0Z"/>
        <path class="cls-6" d="M23.32,114.71c-.2.2-.2.51,0,.71.2.2.51.2.71,0,.2-.2.2-.51,0-.71-.2-.2-.51-.2-.71,0Z"/>
        <path class="cls-6" d="M25.35,116.74c-.2.2-.2.51,0,.71.2.2.51.2.71,0,.2-.2.2-.51,0-.71-.2-.2-.51-.2-.71,0Z"/>
        <path class="cls-6" d="M27.37,118.76c-.06.06-.1.13-.12.21h.95c-.02-.08-.06-.15-.12-.21-.2-.2-.51-.2-.71,0Z"/>
        <path class="cls-6" d="M19.28,114.71c-.2.2-.2.51,0,.71.2.2.51.2.71,0,.2-.2.2-.51,0-.71-.2-.2-.51-.2-.71,0Z"/>
        <path class="cls-6" d="M21.3,116.74c-.2.2-.2.51,0,.71.2.2.51.2.71,0,.2-.2.2-.51,0-.71-.2-.2-.51-.2-.71,0Z"/>
        <path class="cls-6" d="M23.32,118.76c-.07.07-.12.17-.14.26h.98c-.02-.11-.06-.19-.13-.26-.2-.2-.51-.2-.71,0Z"/>
        <path class="cls-6" d="M19.28,118.76c-.09.09-.14.2-.14.32h.99c-.01-.13-.06-.23-.14-.32-.2-.2-.51-.2-.71,0Z"/>
      </g>
      <path class="cls-1" d="M41.51,84.06c-.29,0-.57-.15-.71-.42-1.49-2.71-2.38-4.35-2.39-4.37-.15-.29-.12-.64.08-.89l3.13-3.96-2.72-2.96c-.26-.28-.29-.7-.07-1.02l1.54-2.22c.26-.37.76-.46,1.13-.21.37.26.46.76.21,1.13l-1.17,1.69,2.75,2.99c.27.29.29.74.04,1.06l-3.23,4.09c.36.67,1.1,2.02,2.13,3.88.22.39.07.89-.32,1.11-.12.07-.26.1-.39.1Z"/>
      <g>
        <g>
          <g>
            <path class="cls-4" d="M77.41,32.6v-7.89c0-2.28-.57-4.52-1.66-6.51-2.09-3.81-6.32-9.15-13.61-9.18h-.13c-7.28.03-11.51,5.37-13.61,9.18-1.1,1.99-1.66,4.24-1.66,6.51v7.89c-1.7-.64-4.56-.23-4.48,4.75.07,4.4,3.27,6.76,5.22,7.01.2.84.44,1.66.76,2.39,2.03,4.6,7.53,9.55,11.96,10.75,0,0,.79.21,1.88.21s1.88-.21,1.88-.21c4.43-1.2,9.93-6.15,11.96-10.75.31-.73.56-1.55.76-2.39,1.96-.24,5.15-2.6,5.22-7.01.08-4.97-2.79-5.39-4.48-4.75Z"/>
            <path class="cls-1" d="M62.08,58.53c-1.18,0-2.05-.23-2.09-.24-4.65-1.26-10.37-6.39-12.49-11.21-.26-.6-.48-1.28-.68-2.03-2.31-.61-5.3-3.24-5.37-7.69-.04-2.5.61-4.23,1.92-5.16.73-.51,1.64-.72,2.56-.63v-6.86c0-2.41.61-4.8,1.76-6.9,1.96-3.57,6.43-9.57,14.32-9.6.02,0,.05,0,.07,0,.02,0,.04,0,.07,0,7.89.03,12.35,6.03,14.32,9.6,1.15,2.1,1.76,4.49,1.76,6.9v6.86c.93-.1,1.84.12,2.56.63,1.32.92,1.96,2.66,1.92,5.16-.07,4.45-3.06,7.08-5.37,7.69-.2.75-.42,1.43-.67,2.02-2.13,4.82-7.84,9.96-12.49,11.22-.04.01-.91.24-2.1.24ZM45.48,33.19c-.37,0-.79.08-1.17.35-.84.59-1.26,1.9-1.23,3.8.06,4,2.97,6.02,4.51,6.21.34.04.62.29.69.62.2.86.44,1.63.71,2.26,1.91,4.34,7.25,9.15,11.42,10.28,0,0,.71.18,1.67.18s1.67-.18,1.68-.18c4.16-1.13,9.5-5.94,11.42-10.29.27-.63.51-1.39.71-2.25.08-.33.35-.58.69-.62,1.54-.19,4.44-2.21,4.51-6.21.03-1.9-.39-3.21-1.23-3.8-.85-.6-1.86-.28-2.15-.17-.25.1-.53.06-.75-.09-.22-.15-.35-.4-.35-.67v-7.89c0-2.14-.54-4.26-1.56-6.12-2.18-3.98-6.2-8.73-12.9-8.76-.02,0-.04,0-.06,0-.02,0-.04,0-.06,0-6.7.03-10.71,4.78-12.9,8.76-1.02,1.86-1.56,3.98-1.56,6.12v7.89c0,.27-.13.52-.35.67-.22.15-.5.19-.75.09-.16-.06-.53-.18-.98-.18Z"/>
          </g>
          <path class="cls-2" d="M72.04,9.28c-5.42-1.86-6.19-2.89-10.87-2.89-4.03,0-7.94,1.96-7.25,5.28-.44-.02-6.21-2.86-10.59,4.91-1.7,3.7-1.45,5.81-1.14,7.54,0,0,.56,3.98.64,4.39.65,3.42.65,6.94.65,6.94h1.84s1.43-2.85,1.43-2.85c0,0,.31-3.65.95-4.42,1.65-1.98-.02-10.33,4.88-10.33h18.03c5.57-.01,3.32,8.52,5.16,10.33.65.65,1.64,4.42,1.64,4.42l1.49,2.24,1.43-.04s.4-3.12.42-4.71c.02-1.59-.29-1.7.59-4.09.77-1.83,1.46-3.6-.03-6.83-2.13-6.32-4.94-8.39-9.28-9.88Z"/>
          <path class="cls-1" d="M82.07,18.86c-2.24-6.62-5.28-8.81-9.77-10.35-1.51-.52-2.63-.96-3.62-1.35-2.57-1.02-3.99-1.58-7.51-1.58-3.07,0-5.82,1.04-7.18,2.71-.56.69-.88,1.47-.95,2.31-5.29-1.21-8.57,2.32-10.42,5.59-.01.02-.02.04-.03.06-1.75,3.82-1.55,6.05-1.2,8.01.07.48.56,4,.64,4.41.63,3.3.64,6.75.64,6.79,0,.22.09.42.24.58.15.15.36.24.57.24h1.85c.31-.01.59-.18.72-.46l1.43-2.84c.05-.09.08-.19.08-.3.15-1.78.51-3.64.76-3.97.74-.88.92-2.43,1.12-4.22.4-3.41.85-5.82,3.14-5.82h1.19c.45,0,.81-.36.81-.81s-.36-.81-.81-.81h-1.19c-3.91,0-4.4,4.2-4.75,7.26-.16,1.41-.33,2.86-.76,3.36-.7.84-1.01,3.47-1.12,4.72l-1.14,2.25h-.54c-.04-1.25-.18-3.77-.65-6.27-.05-.29-.41-2.76-.63-4.35,0-.01,0-.02,0-.03-.31-1.7-.48-3.64,1.06-7.02,2.36-4.17,5.45-5.72,9.18-4.63.18.59.61,1.55,1.65,2.61.16.16.37.24.58.24s.41-.08.57-.23c.32-.32.32-.83,0-1.15-1.17-1.19-1.3-2.13-1.31-2.2,0,0,0,0,0,0,0-.03,0-.06-.01-.09-.17-.83,0-1.54.54-2.2,1.04-1.28,3.37-2.11,5.92-2.11,3.21,0,4.45.49,6.91,1.46.96.38,2.15.85,3.7,1.38,4.12,1.41,6.74,3.32,8.77,9.37,0,.03.02.06.03.08,1.38,2.98.72,4.53.02,6.17,0,.01,0,.02-.01.04-.7,1.89-.71,2.49-.66,3.48.01.26.02.53.02.88-.02,1.08-.21,2.93-.33,3.93h-.28s-1.17-1.74-1.17-1.74c-.34-1.27-1.12-3.97-1.82-4.67-.44-.43-.58-1.94-.7-3.26-.14-1.54-.31-3.29-.93-4.68-.12-.26-.25-.5-.4-.73.41.12.82.24,1.23.35.43.12.88-.13,1-.56.12-.43-.13-.88-.56-1-2.69-.75-5.31-1.59-7.51-2.32-.05-.03-.1-.05-.16-.06-.03,0-.06-.01-.09-.02-2.15-.72-3.88-1.35-4.84-1.7-1.67-.62-3.56-.45-4.81.42-.98.68-1.5,1.72-1.5,2.99,0,.57.3,1.77,1.43,2.67.15.12.33.17.5.17.24,0,.48-.11.64-.31.28-.35.22-.87-.14-1.14-.78-.61-.81-1.37-.81-1.39,0-.73.27-1.28.8-1.65.8-.56,2.17-.66,3.32-.23.06.02.13.05.2.07-1.11.24-2.01.65-2.51,1.14-.32.31-.33.83-.02,1.15.16.16.37.25.58.25s.41-.08.57-.23c.61-.59,3.3-1.33,6.12-.64.66.22,1.36.45,2.09.69-.03.09-.05.18-.05.27,0,.45.36.81.81.81,2.66,0,3.08,2.31,3.41,5.84.17,1.84.32,3.42,1.18,4.27.31.34.99,2.37,1.43,4.05.02.09.06.17.11.25l1.49,2.24c.16.23.42.37.7.36l1.43-.04c.4-.01.73-.31.78-.71.02-.13.4-3.19.43-4.8,0-.4,0-.71-.02-.98-.03-.78-.05-1.17.56-2.83.76-1.79,1.62-3.83-.03-7.43Z"/>
          <g>
            <path class="cls-4" d="M77.41,32.6l-.05,2.94-.21,5.51-.48,3.31c1.96-.24,5.15-2.6,5.22-7.01.08-4.97-2.79-5.39-4.48-4.75Z"/>
            <path class="cls-1" d="M76.67,45.17c-.22,0-.43-.09-.58-.24-.18-.18-.26-.44-.22-.69l.48-3.31c.06-.44.48-.75.92-.69.45.06.75.48.69.92l-.29,2.03c1.53-.76,3.37-2.68,3.42-5.86.03-1.9-.39-3.21-1.23-3.8-.56-.39-1.19-.39-1.64-.31l-.04,2.33c0,.45-.38.81-.83.8-.45,0-.81-.38-.8-.83l.05-2.94c0-.33.21-.63.53-.75,1.28-.49,2.65-.35,3.67.36,1.32.92,1.96,2.66,1.92,5.16-.08,4.83-3.59,7.51-5.94,7.8-.03,0-.07,0-.1,0Z"/>
          </g>
          <g>
            <path class="cls-4" d="M46.8,35.55l-.05-2.94c-1.7-.64-4.56-.23-4.48,4.75.07,4.4,3.27,6.76,5.22,7.01l-.48-3.31-.21-5.51Z"/>
            <path class="cls-1" d="M47.49,45.17s-.07,0-.1,0c-2.35-.29-5.86-2.98-5.94-7.8-.04-2.5.61-4.23,1.92-5.16,1.01-.71,2.38-.85,3.67-.36.31.12.52.41.53.75l.05,2.94c0,.45-.35.82-.8.83-.45.01-.82-.35-.83-.8l-.04-2.33c-.45-.08-1.08-.08-1.64.31-.84.59-1.26,1.9-1.23,3.8.05,3.17,1.89,5.1,3.42,5.86l-.29-2.03c-.06-.45.24-.86.69-.92.44-.07.86.24.92.69l.48,3.31c.04.25-.05.51-.22.69-.15.16-.36.24-.58.24Z"/>
          </g>
        </g>
        <g>
          <path class="cls-1" d="M61.03,42.74c.15-.17.54.02,1.05.03.52-.01.91-.2,1.05-.03.15.17-.02,1.04-1.05,1.07-1.03-.03-1.21-.89-1.06-1.07Z"/>
          <path class="cls-1" d="M60.8,51.39c-.06,0-.13,0-.19-.03-2.44-.77-3.78-3.22-3.84-3.32-.11-.2-.1-.43.01-.63.11-.19.32-.31.54-.31h9.51c.22,0,.43.12.54.31.11.19.12.43.01.63-.05.1-1.31,2.39-3.6,3.24-.33.12-.69-.05-.81-.37-.12-.33.05-.69.37-.81,1-.37,1.77-1.11,2.27-1.72h-7.08c.53.64,1.37,1.44,2.45,1.78.33.11.52.46.41.79-.09.27-.33.44-.6.44Z"/>
          <path class="cls-1" d="M72.44,31.06c-.08,0-.16-.02-.24-.05-.03-.01-3.21-1.29-5.81-.13-.32.14-.69,0-.84-.32-.14-.32,0-.69.32-.84,3.11-1.38,6.66.06,6.81.12.32.13.48.5.34.83-.1.24-.34.39-.59.39Z"/>
          <path class="cls-1" d="M71.18,35.13c-.15,0-.31-.05-.44-.15h0s-.57-.4-1.84-.64c-1.04-.2-1.64.1-1.67.12-.35.2-.78.07-.98-.28-.2-.35-.07-.79.28-.99.11-.06,1.08-.57,2.64-.27,1.63.31,2.37.85,2.45.91.32.24.38.7.14,1.01-.14.19-.36.28-.58.28Z"/>
          <path class="cls-1" d="M51.72,31.06c-.25,0-.49-.15-.59-.39-.13-.32.02-.69.34-.83.15-.06,3.7-1.5,6.81-.12.32.14.46.52.32.84-.14.32-.52.46-.84.32-2.61-1.16-5.78.12-5.81.13-.08.03-.16.05-.24.05Z"/>
          <path class="cls-1" d="M52.98,35.13c-.22,0-.43-.1-.58-.29-.24-.32-.18-.78.14-1.02.08-.06.82-.6,2.45-.91,1.55-.3,2.53.21,2.63.27.35.19.48.63.28.98-.19.35-.63.47-.97.29-.04-.02-.65-.31-1.67-.12-1.28.25-1.85.65-1.85.65-.13.1-.28.15-.43.15Z"/>
          <path class="cls-1" d="M62.08,35.47s-.08,0-.12-.01c-.34-.07-.57-.4-.5-.74.01-.07.32-1.93-1.45-3.02-.3-.18-.39-.57-.21-.87.18-.3.57-.39.87-.21,2.54,1.55,2.05,4.23,2.03,4.34-.06.3-.32.51-.62.51Z"/>
        </g>
      </g>
      <path class="cls-1" d="M61.96,113.74c-.1,0-.19-.02-.29-.05-.42-.16-.63-.63-.47-1.05.08-.2,7.68-20.35,8.85-25.26,1.18-4.93,4.86-27.18,4.9-27.4.04-.27.22-.49.46-.61.24-.11.53-.1.76.04l3.8,2.25c.11.06.2.15.27.25l1.61,2.45c.61.31,2.7,1.33,5.76,2.59.42.17.61.65.44,1.06-.17.42-.65.61-1.06.44-3.74-1.54-5.98-2.7-6.08-2.74-.12-.06-.23-.16-.31-.28l-1.62-2.47-2.61-1.55c-.79,4.72-3.68,21.95-4.73,26.34-1.2,5.01-8.6,24.62-8.91,25.46-.12.33-.43.53-.76.53Z"/>
      <path class="cls-1" d="M83.48,131.7c-.35,0-.67-.22-.78-.57-.14-.43.1-.89.53-1.02.05-.02,5.2-1.65,11.2-3.72,2.16-.74,3.88-1.36,5.26-1.93.42-.17.89.03,1.06.44.17.42-.03.89-.44,1.06-1.43.59-3.17,1.21-5.36,1.97-6.02,2.08-11.19,3.72-11.24,3.74-.08.03-.17.04-.25.04Z"/>
      <path class="cls-1" d="M23.2,85.38s-.08,0-.12,0c-.44-.07-.75-.48-.69-.93.89-6,1.6-10.03,2.36-11.62,1.51-3.14,4.14-3.47,4.76-3.51.51-.14,3.24-.92,6.33-2.18,3.32-1.35,5.59-2.46,6.23-2.78l1.61-2.45c.07-.1.16-.19.27-.25l3.8-2.25c.23-.14.52-.15.76-.04.24.11.42.34.46.61.02.14,2.26,13.66,3.8,21.95.08.44-.21.87-.65.95-.44.08-.87-.21-.95-.65-1.28-6.87-3.03-17.33-3.61-20.81l-2.61,1.55-1.62,2.47c-.08.12-.18.21-.31.28-.1.05-2.54,1.31-6.55,2.94-3.51,1.43-6.48,2.23-6.61,2.26-.07.02-.15.03-.22.03-.08,0-2.18.05-3.41,2.59-.75,1.55-1.54,6.57-2.22,11.15-.06.4-.41.69-.8.69Z"/>
      <g>
        <g>
          <g>
            <path class="cls-4" d="M10.56,127.89l-5.11-36.34c-.13-.92.54-1.77,1.47-1.85l51.76-4.58c.86-.08,1.64.54,1.76,1.4l5.11,36.34c.13.92-.54,1.77-1.47,1.85l-51.76,4.58c-.86.08-1.64-.54-1.76-1.4Z"/>
            <path class="cls-1" d="M12.17,130.11c-1.21,0-2.25-.89-2.42-2.1l-5.11-36.34c-.09-.66.09-1.34.51-1.86.41-.52,1.03-.85,1.7-.91l51.76-4.58c1.3-.12,2.45.8,2.63,2.09l5.11,36.34c.09.66-.09,1.34-.51,1.86-.41.52-1.03.85-1.7.91l-51.76,4.58c-.07,0-.15,0-.22,0ZM58.83,85.93s-.05,0-.07,0l-51.76,4.58c-.22.02-.43.13-.57.3-.14.18-.2.4-.17.62l5.11,36.34h0c.06.43.45.73.88.7l51.76-4.58c.22-.02.43-.13.57-.3.14-.18.2-.4.17-.62l-5.11-36.34c-.06-.41-.4-.7-.81-.7Z"/>
          </g>
          <polygon class="cls-4" points="13.26 126.24 8.52 92.53 57.74 88.17 62.48 121.88 13.26 126.24"/>
          <path class="cls-1" d="M20.39,120.63c-.42,0-.77-.32-.81-.74-.04-.45.29-.84.74-.88l34.74-3.08c.45-.04.84.29.88.74.04.45-.29.84-.74.88l-34.74,3.08s-.05,0-.07,0Z"/>
          <path class="cls-1" d="M21.83,120.5c-.4,0-.75-.3-.81-.7l-.82-5.86c-.03-.22.03-.45.17-.62.14-.17.34-.28.57-.3l5.79-.51c.43-.04.82.27.88.7l.82,5.86c.03.22-.03.45-.17.62-.14.17-.34.28-.57.3l-5.79.51s-.05,0-.07,0ZM21.94,114.56l.6,4.25,4.17-.37-.6-4.25-4.17.37Z"/>
          <g>
            <polygon class="cls-6" points="36.31 118.41 30.52 118.92 29.05 108.46 34.84 107.94 36.31 118.41"/>
            <path class="cls-1" d="M30.52,119.73c-.4,0-.75-.3-.81-.7l-1.47-10.46c-.03-.22.03-.45.17-.62.14-.17.34-.28.57-.3l5.79-.51c.43-.04.82.27.88.7l1.47,10.46c.03.22-.03.45-.17.62-.14.17-.34.28-.57.3l-5.79.51s-.05,0-.07,0ZM29.98,109.19l1.24,8.85,4.17-.37-1.24-8.85-4.17.37Z"/>
          </g>
          <g>
            <polygon class="cls-4" points="45 117.64 39.21 118.15 36.86 101.47 42.65 100.96 45 117.64"/>
            <path class="cls-1" d="M39.21,118.96c-.4,0-.75-.3-.81-.7l-2.34-16.68c-.03-.22.03-.45.17-.62.14-.17.34-.28.57-.3l5.79-.51c.43-.04.82.27.88.7l2.34,16.68c.03.22-.03.45-.17.62s-.34.28-.57.3l-5.79.51s-.05,0-.07,0ZM37.79,102.21l2.12,15.06,4.17-.37-2.12-15.06-4.17.37Z"/>
          </g>
          <g>
            <polygon class="cls-6" points="53.68 116.87 47.89 117.38 45.04 97.06 50.83 96.54 53.68 116.87"/>
            <path class="cls-1" d="M47.89,118.19c-.4,0-.75-.3-.81-.7l-2.86-20.32c-.03-.22.03-.45.17-.62s.34-.28.57-.3l5.79-.51c.43-.04.82.27.88.7l2.86,20.32c.03.22-.03.45-.17.62-.14.17-.34.28-.57.3l-5.79.51s-.05,0-.07,0ZM45.96,97.79l2.63,18.71,4.17-.37-2.63-18.71-4.17.37Z"/>
          </g>
          <path class="cls-1" d="M17.53,100.31c-.42,0-.77-.32-.81-.74-.04-.45.29-.84.74-.88l10.13-.9c.45-.04.84.29.88.74.04.45-.29.84-.74.88l-10.13.9s-.05,0-.07,0Z"/>
          <path class="cls-1" d="M17.84,102.51c-.42,0-.77-.32-.81-.74-.04-.45.29-.84.74-.88l7.24-.64c.45-.04.84.29.88.74.04.45-.29.84-.74.88l-7.24.64s-.05,0-.07,0Z"/>
          <path class="cls-1" d="M61.66,116.88c-.4,0-.75-.29-.81-.7l-3.81-27.13-36.5,3.23c-.45.04-.84-.29-.88-.74-.04-.45.29-.84.74-.88l37.27-3.3c.43-.04.82.27.88.7l3.92,27.9c.06.45-.25.86-.69.92-.04,0-.08,0-.11,0Z"/>
          <path class="cls-1" d="M13.26,127.05c-.4,0-.75-.3-.81-.7l-3.37-23.94c-.06-.45.25-.86.69-.92.45-.07.86.25.92.69l3.26,23.18,41.1-3.64c.45-.04.84.29.88.74.04.45-.29.84-.74.88l-41.87,3.71s-.05,0-.07,0Z"/>
        </g>
        <g>
          <path class="cls-4" d="M6.73,100.65l1.61-2.02s3.16-.32,4.61-1.5.03-2.6.03-2.6c0,0,3.17.26,4.02-1.9.56-1.42-1.11-2.16-1.11-2.16,0,0,2.22.16,2.25-1.7.04-2.44-7.45-2.31-7.45-2.31,0,0,4.42.28,6.8-.79,1.16-.52,1.58-1.29,1.27-2.17-.34-.94-2.11-.83-3.96-.62-2.61.3-5.04.07-5.93.48-1.01.46-4.18,4.6-4.18,4.6,0,0-2.63,1.23-3.15,3.17-.27,1,.31,2.3.31,2.3,0,0-1.07,1.13-1.05,2.76.03,1.64.54,2.57.54,2.57,0,0,1.63,4.88,2.87,6.22,1.24,1.34,3.43,2.22,3.43,2.22l-.92-6.56Z"/>
          <path class="cls-1" d="M19.54,83.22c-.59-1.64-3.03-1.36-4.82-1.15-1.1.13-2.17.16-3.12.18-1.39.04-2.4.07-3.06.37-1.05.48-3.48,3.54-4.37,4.69-.66.35-2.87,1.63-3.41,3.6-.23.86-.01,1.81.17,2.37-.38.55-.96,1.59-.94,2.92.03,1.58.46,2.59.6,2.87.25.73,1.74,5.08,3.03,6.46,1.35,1.46,3.63,2.38,3.73,2.42.1.04.2.06.3.06.18,0,.36-.06.5-.17.23-.18.34-.47.3-.75l-.87-6.21,1.19-1.49c.93-.12,3.35-.54,4.7-1.64.74-.6.92-1.28.95-1.73.01-.27-.02-.52-.09-.75,1.19-.17,2.78-.71,3.43-2.35.31-.79.18-1.46-.13-1.99.21-.1.41-.23.59-.4.48-.44.74-1.05.75-1.76,0-.55-.21-1.05-.63-1.47-.27-.27-.63-.49-1.04-.68.19-.06.36-.13.53-.21,1.53-.69,2.17-1.88,1.7-3.19ZM17.34,88.75c0,.35-.13.5-.22.58-.32.3-.97.33-1.16.32,0,0-.01,0-.02,0,0,0-.01,0-.02,0-1.13-.03-6.84-.17-7.81.01-1.03.19-3.1,1.26-3.33,1.38-.4.21-.55.7-.34,1.1.15.28.43.44.72.44.13,0,.26-.03.38-.09.79-.41,2.28-1.11,2.87-1.22.54-.1,4.12-.07,7.29,0,.25.14.77.51.55,1.05-.62,1.57-3.18,1.39-3.2,1.39-.02,0-.04,0-.06,0-.01,0-.02,0-.03,0l-4.67.15c-.12,0-.24.04-.35.09l-3.62,1.91c-.4.21-.55.7-.34,1.1.15.28.43.43.72.43.13,0,.26-.03.38-.09l3.45-1.82,4.07-.13c.1.17.2.38.19.59,0,.07-.01.28-.35.55-1.03.84-3.37,1.24-4.18,1.32-.22.02-.42.13-.55.3l-1.61,2.02c-.14.17-.2.4-.17.62l.71,5.03c-.61-.35-1.31-.82-1.82-1.36-.92-.99-2.26-4.62-2.69-5.93-.01-.04-.03-.09-.05-.13,0,0-.42-.82-.44-2.2-.02-1.26.82-2.18.82-2.19.23-.24.29-.59.15-.89-.15-.34-.42-1.21-.27-1.75.34-1.24,1.97-2.28,2.65-2.62l5.8-1.45c.24.01.8.03,1.53.03,1.92.1,4.17.44,4.88,1.15.15.15.15.25.15.29ZM17.17,84.92c-1.33.6-3.43.73-4.86.75-.82-.04-1.43-.03-1.62-.03,0,0,0,0,0,0-.02,0-.05,0-.07,0-.03,0-.06,0-.09.01,0,0,0,0-.01,0l-3.66.91c1.05-1.26,2.03-2.32,2.37-2.48.35-.16,1.4-.19,2.42-.22.98-.03,2.09-.06,3.26-.19.88-.1,1.51-.14,1.96-.14.99,0,1.12.17,1.14.22.07.2.24.67-.83,1.15Z"/>
        </g>
        <path class="cls-4" d="M81.27,126.24l-9.22,3.33s-4.88,2.47-6.41,2.88c-1.54.41-10.16,1.42-11.41.97-.56-.2-4.88-3.86-4.88-3.86,0,0-2.34.07-4.11.07-2.47,0-3.62-.29-3.76-1.21-.27-1.81,2.68-1.9,2.68-1.9l14.09-1.25,1.13-1.2s1.92-3.15,4.86-3.79c2.94-.64,4.73-.07,4.73-.07l7.34-2.67,4.97,8.7Z"/>
        <path class="cls-1" d="M81.98,125.83l-4.97-8.7c-.2-.34-.61-.5-.99-.36l-7.1,2.58c-.66-.15-2.4-.42-4.86.12-3.02.66-5,3.57-5.34,4.09l-.86.92-13.76,1.22c-.31.01-2.12.13-2.99,1.18-.39.46-.54,1.04-.44,1.66.27,1.75,2.4,1.9,4.57,1.9,1.38,0,3.12-.04,3.82-.06,1.98,1.67,4.33,3.61,4.89,3.81.29.11.86.15,1.6.15,3.09,0,9.13-.79,10.3-1.1,1.54-.41,6-2.65,6.53-2.92l9.17-3.32c.23-.08.4-.26.49-.48.08-.23.06-.48-.06-.68ZM71.78,128.81s-.06.02-.09.04c-1.33.68-5.06,2.5-6.25,2.82-1.66.44-9.8,1.31-10.91,1-.45-.25-2.7-2.07-4.65-3.73-.15-.13-.35-.2-.55-.19-.02,0-2.35.07-4.09.07-2.6,0-2.93-.36-2.95-.51-.03-.2.02-.3.08-.37.31-.38,1.25-.57,1.81-.59.02,0,.03,0,.05,0l10.27-.91c-.82.61-1.53,1.41-1.74,2.42-.19.92.09,1.74.78,2.24.49.36,1.15.54,1.85.54s1.38-.17,1.98-.51c1.21-.67,4.41-2.08,5.06-2.37l1.88-.19c.45-.04.77-.44.73-.89-.04-.45-.44-.78-.89-.73l-2.01.2c-.08,0-.17.03-.24.06-.16.07-3.91,1.7-5.32,2.49-.65.36-1.64.4-2.08.08-.08-.06-.24-.18-.15-.6.3-1.42,2.88-2.47,3.76-2.73.14-.04.27-.12.37-.22l1.49-1.59s.07-.09.1-.13c.02-.03,1.78-2.86,4.34-3.42,2.66-.58,4.3-.09,4.31-.09.17.06.36.05.53,0l6.69-2.43,4.15,7.27-8.31,3.01Z"/>
        <g>
          <path class="cls-4" d="M80.48,129.85s-1.4-3.97-3.11-7.04c-1.71-3.07-4.74-6.21-4.74-6.21l3.97-1.17s2.17,1.49,4.42,5.54c1.67,2.77,3.27,7.48,3.27,7.48l-3.82,1.39Z"/>
          <path class="cls-1" d="M80.48,130.67c-.12,0-.24-.03-.35-.08-.2-.09-.35-.26-.42-.47-.01-.04-1.4-3.95-3.05-6.92-1.64-2.94-4.59-6.01-4.62-6.04-.2-.2-.27-.5-.2-.77.07-.28.28-.49.56-.57l3.97-1.17c.23-.07.49-.03.69.11.09.07,2.35,1.64,4.67,5.8,1.69,2.81,3.27,7.43,3.34,7.63.14.42-.08.88-.49,1.03l-3.82,1.39c-.09.03-.18.05-.28.05ZM74.11,117.02c1.05,1.19,2.8,3.29,3.97,5.4,1.29,2.31,2.38,5.07,2.88,6.4l2.29-.84c-.52-1.42-1.72-4.56-2.93-6.57,0,0,0-.02-.01-.02-1.66-2.99-3.25-4.5-3.88-5.04l-2.31.68Z"/>
        </g>
      </g>
    </g>
  </g>
</svg>