<?xml version="1.0" encoding="UTF-8"?>
<svg id="_レイヤー_2" data-name="レイヤー 2" xmlns="http://www.w3.org/2000/svg" viewBox="0 0 310.18 310.93">
  <defs>
    <style>
      .cls-1 {
        fill: #202933;
      }

      .cls-2 {
        fill: #ffaf50;
      }

      .cls-3 {
        isolation: isolate;
      }

      .cls-4 {
        fill: #fff;
      }

      .cls-5 {
        fill: #0079b9;
      }

      .cls-6 {
        fill: #4c84d6;
      }
    </style>
  </defs>
  <g id="_レイヤー_1-2" data-name="レイヤー 1">
    <g class="cls-3">
      <polygon class="cls-4" points="204.12 190.92 2 190.92 2 2 308.18 2 308.18 190.92 227.87 190.92 200.1 205.03 204.12 190.92"/>
      <path class="cls-5" d="M306.18,4v184.92h-78.78l-.85.43-23.26,11.81,2.04-7.15,1.45-5.1H4V4h302.18M310.18,0H0v192.92h201.47l-4.55,15.96,31.43-15.96h81.83V0h0Z"/>
    </g>
    <g class="cls-3">
      <path class="cls-5" d="M83.76,33.05v30.87h-5.5v-2.31h-14.53v2.31h-5.25v-30.87h25.27ZM63.74,38.19v6.41h14.53v-6.41h-14.53ZM78.26,56.47v-6.83h-14.53v6.83h14.53Z"/>
      <path class="cls-5" d="M111.76,42.75c2.66,4.83,6.83,9.31,11.59,11.9-1.26,1.05-3.08,3.19-3.96,4.62-1.92-1.26-3.71-2.77-5.36-4.52v4.03h-5.29v5.57h-5.43v-5.57h-5.53v-3.61c-1.54,1.61-3.26,3.05-5.08,4.24-.88-1.26-2.55-3.22-3.71-4.24,4.73-2.66,8.79-7.35,11.38-12.43h-9.91v-5.18h12.85v-6.48h5.43v6.48h12.95v5.18h-9.94ZM103.32,53.6v-5.92c-1.22,2.13-2.59,4.13-4.1,5.92h4.1ZM112.98,53.6c-1.58-1.82-2.98-3.85-4.24-6.02v6.02h4.24Z"/>
      <path class="cls-5" d="M137.69,40.99h-13.27v-3.96h13.27v3.96ZM136.71,63.08h-6.48v1.26h-4.24v-12.15h10.71v10.89ZM136.4,45.96h-10.26v-3.78h10.26v3.78ZM126.14,47.16h10.26v3.78h-10.26v-3.78ZM136.47,35.88h-10.12v-3.78h10.12v3.78ZM130.24,56.15v2.97h2.17v-2.97h-2.17ZM157.82,45.05v4.41h-20.51v-4.41h4.13c.17-.84.35-1.75.49-2.7h-2.66v-4.27h3.33l.25-1.85h-4.13v-4.31h17.82v4.31h-8.75l-.28,1.85h7.39v6.97h2.94ZM139.83,50.87h15.72v13.34h-4.97v-1.05h-5.99v1.19h-4.76v-13.48ZM144.59,55.38v3.26h5.99v-3.26h-5.99ZM146.83,42.36c-.17.95-.31,1.86-.49,2.7h3.68v-2.7h-3.19Z"/>
      <path class="cls-5" d="M190.69,42.11c-.67,4.94-1.75,9.07-3.5,12.53,1.54,2.21,3.47,4.03,5.92,5.29-1.16,1.01-2.77,3.04-3.54,4.45-2.24-1.33-4.03-3.04-5.53-5.08-1.85,2.1-4.17,3.82-7,5.21-.49-1.19-1.96-3.57-2.91-4.66,3.12-1.29,5.43-3.08,7.14-5.39-.77-1.79-1.44-3.75-2-5.81-.35.6-.74,1.12-1.16,1.65-.53-.63-1.58-1.65-2.59-2.49-1.33,1.65-3.04,3.4-4.73,4.83v.32c1.96-.14,3.96-.28,5.88-.42v4.31c-1.92.17-3.92.31-5.88.46v2.45c0,2.06-.35,3.22-1.75,3.88s-3.12.74-5.32.74c-.17-1.29-.81-3.12-1.4-4.31,1.16.04,2.7.04,3.12.04.46,0,.6-.1.6-.49v-1.92l-6.27.46-.49-4.48c1.92-.11,4.24-.25,6.76-.38v-2.52h1.47c.42-.39.84-.81,1.26-1.26h-1.68c-1.54,1.26-3.19,2.38-4.9,3.36-.67-1.01-2.38-2.97-3.36-3.88,1.29-.63,2.55-1.37,3.75-2.17v-1.19h1.65c.52-.42,1.05-.84,1.54-1.29h-6.13v-4.34h4.69v-1.75h-3.61v-4.24h3.61v-2.91h4.69v2.91h2.91v2.49c.81-1.44,1.47-2.94,2.07-4.52l4.69,1.33c-.95,2.38-2.07,4.62-3.33,6.69h1.47v2.28c1.47-3.22,2.45-7.14,3.01-11.2l5.15.8c-.32,1.89-.7,3.75-1.16,5.57h8.86v4.69h-2ZM169.02,39.98h.67c.42-.56.84-1.16,1.23-1.75h-1.89v1.75ZM173.08,45.37l1.26,1.01c.49-.63.98-1.33,1.43-2.06h-3.5c-.39.46-.74.88-1.12,1.29h1.01l.91-.25ZM182.67,42.11c.39,2.21.88,4.34,1.54,6.3.56-1.89.98-3.99,1.26-6.3h-2.8Z"/>
      <path class="cls-5" d="M222.43,46.56l-.21-.28v13.51c0,2.28-.56,3.33-2.21,3.96-1.65.59-3.85.63-6.72.63-.25-1.23-.91-2.91-1.5-4.03,1.5.11,3.88.11,4.41.07.63,0,.84-.18.84-.67v-.81h-12.01v5.43h-5.11v-18.45h22.02c-.42-.52-.94-1.05-1.5-1.64-8.65.35-17.75.59-23.87.73l-.14-4.55,4.9-.04c.46-.74.88-1.47,1.3-2.21h-7.32v-4.41h13.09v-2.76h5.25v2.76h13.02v4.41h-5.81c2.28,1.79,4.73,3.85,6.09,5.5l-4.52,2.84ZM205.03,49.99v1.05h12.01v-1.05h-12.01ZM217.04,55.52v-1.09h-12.01v1.09h12.01ZM209.02,38.23c-.59.73-1.23,1.43-1.82,2.13,2.8-.04,5.78-.07,8.75-.14-.49-.38-.98-.77-1.44-1.12l1.47-.88h-6.97Z"/>
      <path class="cls-5" d="M237.3,42.81c2.7,0,4.9,2.21,4.9,4.9s-2.21,4.9-4.9,4.9-4.9-2.21-4.9-4.9,2.21-4.9,4.9-4.9Z"/>
      <path class="cls-5" d="M54.22,111.02c2.07-1.37,3.64-3.57,4.41-5.92l4.27,1.54c-.95,2.73-2.31,5.36-4.73,7.07l-3.96-2.7ZM86.38,92.11h-30.59v-3.88h7.07c-.17-.56-.35-1.16-.52-1.65h-4.8v-3.89h10.92v-1.61h5.11v1.61h10.92v3.89h-4.13c-.42.63-.8,1.19-1.16,1.65h7.18v3.88ZM74.06,109.93c1.19,0,1.4-.35,1.58-2.52.98.67,2.98,1.33,4.27,1.58-.52,3.96-1.82,4.97-5.36,4.97h-5.15c-4.94,0-6.09-1.23-6.09-5.04v-3.22h3.5l1.43-1.4h-8.93v-10.99h23.91v10.99h-10.47c1.02.53,1.93,1.05,2.59,1.54l-3.08,3.12c-.88-.73-2.45-1.71-4.03-2.49v2.38c0,.98.28,1.08,1.79,1.08h4.03ZM64.12,97.37h14.07v-1.05h-14.07v1.05ZM64.12,101.29h14.07v-1.08h-14.07v1.08ZM67.38,86.58c.21.59.42,1.19.53,1.65h6.41l-.17-.04c.17-.49.42-1.08.63-1.61h-7.39ZM82.36,104.61c2.03,1.85,4.41,4.48,5.46,6.48l-4.24,2.42c-.91-1.89-3.15-4.73-5.18-6.72l3.96-2.17Z"/>
      <path class="cls-5" d="M100.63,90.85h-11.2v-3.96h11.2v3.96ZM99.96,112.49h-5.46v1.33h-3.82v-12.15h9.28v10.82ZM99.82,95.68h-9v-3.78h9v3.78ZM90.83,96.74h9v3.78h-9v-3.78ZM99.82,85.88h-8.86v-3.78h8.86v3.78ZM94.5,105.59v2.98h1.54v-2.98h-1.54ZM122.36,100.41c-1.05,2.7-2.49,5.15-4.1,7.28.28.77.63,1.19,1.05,1.26.42.04.7-1.37.8-3.57.67,1.02,2.35,2.38,3.04,2.87-.98,5.11-2.76,6.23-4.09,6.16-1.75-.14-3.05-1.19-3.96-3.19-1.33,1.26-2.7,2.35-4.06,3.19-.56-.81-1.86-2.1-2.77-2.8.49-.28.98-.63,1.47-.98h-4.41v1.01h-3.78v-13.55h10.19v10.89c.7-.67,1.4-1.4,2.07-2.17-.49-2.66-.77-5.95-.91-9.91h-12.46v-4.03h2.24c-.04-1.19-.32-2.8-.74-4.1l3.15-.7h-3.99v-3.75h3.25v-3.25h4.62v3.25h3.19v3.75h-3.54l3.12.49c-.46,1.58-.77,3.15-1.05,4.31h2.1c-.11-3.5-.11-7.39-.11-11.73h4.31l-.07,3.54,3.08-1.15c1.29,1.92,2.45,4.55,2.87,6.37l-4.03,1.61c-.25-1.47-1.02-3.57-1.93-5.36-.04,2.38-.04,4.66-.04,6.72h5.64v4.03h-5.57c.07,1.75.14,3.33.25,4.73.56-1.05,1.02-2.17,1.44-3.33l3.71,2.1ZM105.28,88.09c.53,1.33.91,3.08.95,4.27l-2.21.53h4.8l-1.61-.32c.21-1.29.46-3.12.52-4.48h-2.45ZM105.35,101.53v1.16h2.35v-1.16h-2.35ZM107.7,107.2v-1.22h-2.35v1.22h2.35Z"/>
      <path class="cls-5" d="M155.16,91.87c-.84,5.01-2.1,9.14-4.06,12.6,1.86,2.24,4.2,4.06,7.18,5.25-1.16,1.01-2.77,3.12-3.5,4.52-2.84-1.37-5.11-3.15-6.97-5.32-2.21,2.31-4.94,4.17-8.37,5.6-.53-1.15-2.07-3.43-3.04-4.51,3.64-1.3,6.41-3.12,8.47-5.53-1.12-2.13-2-4.52-2.77-7.11-.31.46-.67.91-1.01,1.33-.49-.46-1.29-1.08-2.14-1.71v1.37h-4.9v-1.09h-3.64v5.88c0,1.33.18,1.47,1.33,1.47h2.8c.98,0,1.19-.46,1.33-3.43.98.77,3.12,1.61,4.52,1.92-.59,4.94-1.93,6.3-5.39,6.3h-4.03c-4.27,0-5.5-1.4-5.5-6.2v-10.54h8.58v-4.45h-8.54v-4.69h13.44v8.82c1.89-3.08,3.22-7.11,3.99-11.24l5.32.98c-.35,1.68-.81,3.36-1.3,4.97h10.71v4.79h-2.52ZM145.64,91.87c.56,2.7,1.3,5.18,2.31,7.46.91-2.17,1.54-4.66,1.96-7.46h-4.27Z"/>
      <path class="cls-5" d="M192.19,109.62h-13.58v4.73h-5.32v-4.73h-13.27v-4.58h13.27v-1.47h-9.52v-9.56h9.52v-1.29h-6.34v-5.04h-6.41v-4.27h6.41v-2.34h5.01v2.34h7.95v-2.34h5.29v2.34h6.41v4.27h-6.41v5.04h-6.58v1.29h10.01v9.56h-10.01v1.47h13.58v4.58ZM173.29,99.71v-1.82h-4.38v1.82h4.38ZM171.96,89.03h7.95v-1.37h-7.95v1.37ZM178.61,97.89v1.82h4.52v-1.82h-4.52Z"/>
      <path class="cls-5" d="M197.93,86.37c3.26-.28,8.51-.7,14.84-1.26,3.47-.28,7.56-.49,10.08-.6l.04,5.39c-1.79.04-4.73.04-6.65.42-3.75.84-6.97,4.9-6.97,9,0,5.11,4.79,7.11,10.78,7.46l-1.96,5.85c-7.74-.6-14.35-4.8-14.35-12.18,0-4.76,2.52-8.44,4.38-10.12-2.98.32-9.07,1.02-13.23,1.93l-.53-5.71c1.4-.04,2.91-.1,3.57-.17ZM220.78,97.5l-3.12,1.37c-.94-2.03-1.54-3.19-2.66-4.79l3.05-1.26c.88,1.29,2.1,3.4,2.73,4.69ZM224.91,95.68l-3.08,1.47c-1.02-2-1.68-3.08-2.84-4.66l3.01-1.37c.91,1.26,2.21,3.29,2.91,4.55Z"/>
      <path class="cls-5" d="M73.71,158.85c.98.1,2,.14,3.04.14,2.21,0,7.91,0,10.64-.1-.74,1.19-1.54,3.64-1.79,5.18h-9.14c-6.09,0-10.68-.98-13.83-5.5-1.08,2.42-2.52,4.45-4.38,6.02-.84-.91-3.01-2.73-4.2-3.5,3.75-2.66,5.39-7.46,5.92-13.3l5.32.53c-.18,1.5-.42,2.97-.74,4.34.91,2.31,2.21,3.78,3.82,4.73v-10.96h-6.79v-4.83h18.76v4.83h-6.65v3.57h9.17v4.76h-9.17v4.1ZM60.8,143.87h-5.01v-9.45h12.5v-3.26h5.46v3.26h12.6v9.45h-5.25v-4.66h-20.3v4.66Z"/>
      <path class="cls-5" d="M102.27,147.61c-.14.35-.28.67-.42,1.01h17.05v15.68h-5.36v-.88h-10.85v.88h-5.08v-8.47c-1.47,1.82-3.12,3.43-4.9,4.69-.77-1.01-2.7-2.94-3.78-3.82,3.4-2.03,6.13-5.29,7.77-9.1h-6.34v-3.92h12.99v-.91h-9.59v-3.61h9.59v-.98h-11.45v-3.89h5.53c-.35-.67-.77-1.37-1.19-1.92l4.51-1.4c.88.98,1.68,2.31,2.07,3.33h6.65c.56-1.01,1.22-2.34,1.54-3.33l5.6,1.33c-.6.74-1.19,1.4-1.68,2h5.5v3.89h-11.83v.98h9.91v3.61h-9.91v.91h13.13v3.92h-19.46ZM102.69,152.16v.77h10.85v-.77h-10.85ZM113.54,155.63h-10.85v.77h10.85v-.77ZM113.54,159.9v-.8h-10.85v.8h10.85Z"/>
      <path class="cls-5" d="M143.57,153.84h13.44v4.69h-13.44v5.78h-5.25v-5.78h-13.16v-4.69h13.16v-1.92l-4.66.35-.38-2.28c-2.14,1.05-4.38,2.07-6.27,2.91l-2.38-4.09c2.24-.67,5.64-1.89,8.89-3.08l.6,2.45,2.17-.07c.49-.46.98-.95,1.5-1.47-1.29-1.01-2.94-2.21-4.3-3.12l-2.73,2.28c-1.05-1.12-3.36-2.8-5.15-3.89l3.36-2.7c1.58.84,3.64,2.17,4.94,3.22l1.61-2,.73.46c.46-.7.84-1.4,1.23-2.1h-11.1v-4.58h11.94v-3.08h5.25v3.08h12.29v4.58h-14.07l.59.21c-1.05,1.33-2.14,2.7-3.12,3.85.46.28.84.59,1.22.88,1.12-1.29,2.17-2.62,2.98-3.78l3.92,1.75c-1.3,1.47-2.73,2.98-4.2,4.45l3.12-1.29c.53.77,1.12,1.61,1.61,2.49l2.28-1.79c2.24,1.16,5.39,3.01,7,4.34l-3.68,3.01c-.95-.91-2.62-2.1-4.34-3.19.25.56.46,1.09.59,1.58l-3.82,1.68c-.14-.49-.32-1.05-.56-1.65-2.13.18-4.27.35-6.3.53h4.48v2ZM143.64,147.79c-.25-.46-.52-.91-.8-1.29-.49.46-.98.95-1.47,1.4l2.28-.11ZM147.6,143.41c1.43-1.19,3.25-3.05,4.3-4.48l4.59,2.13c-1.79,1.65-3.71,3.22-5.18,4.27l-3.71-1.92Z"/>
      <path class="cls-5" d="M191.18,137.32c-.42.52-1.23,1.54-1.58,2.1-1.79,2.94-5.11,7.32-8.26,9.59l-4.38-3.5c2.59-1.64,5.01-4.31,5.78-5.78h-17.29c-1.54,0-2.63.11-4.45.28v-5.85c1.44.21,2.91.38,4.45.38h18.17c1.16,0,3.47-.14,4.2-.35l3.36,3.12ZM176.75,142.08c0,8.23.17,15.79-9.7,21.28l-4.94-4.03c1.23-.42,2.52-1.01,3.99-2.13,3.88-2.94,4.76-5.92,4.76-11.62,0-1.23-.07-2.24-.28-3.5h6.16Z"/>
      <path class="cls-5" d="M201.29,149.82l-5.18,1.92c-.59-1.89-2.28-6.48-3.22-8.16l5.11-1.82c.98,1.96,2.59,6.02,3.29,8.05ZM219.18,142.75c-.49,1.36-.74,2.21-.98,3.04-.91,3.36-2.38,6.93-4.69,9.94-3.25,4.27-7.67,7.32-11.87,8.93l-4.45-4.55c3.71-.95,8.82-3.61,11.73-7.28,2.31-2.91,3.96-7.67,4.27-12.01l5.99,1.93ZM209.06,147.61l-5.08,1.75c-.49-1.75-1.96-5.88-2.91-7.84l5.04-1.65c.7,1.54,2.42,6.09,2.94,7.74Z"/>
      <path class="cls-5" d="M242.77,135.67c.59,0,1.58-.04,2.52-.17-.04-.14-.04-.32-.04-.46,0-2.38,1.96-4.34,4.34-4.34s4.34,1.96,4.34,4.34-1.92,4.27-4.24,4.34c-.17.52-.32,1.05-.42,1.47-.84,3.29-2.28,8.61-5.29,12.67-3.15,4.24-8.08,7.84-14.25,9.84l-4.62-5.08c7.04-1.58,10.99-4.66,13.76-8.09,2.24-2.76,3.4-6.23,3.85-9.03h-15.4c-1.72,0-3.64.1-4.55.17v-5.99c1.08.14,3.4.31,4.55.31h15.44ZM251.45,135.04c0-1.02-.84-1.86-1.86-1.86s-1.85.84-1.85,1.86.84,1.86,1.85,1.86,1.86-.84,1.86-1.86Z"/>
    </g>
    <g>
      <g>
        <path class="cls-4" d="M169.09,255.65c-1.52-1.6-2.34-2.95-2.34-6.28v-6.58l-7.97,4.27-7.97-4.27v6.58c0,3.33-.82,4.68-2.34,6.28-1.21,1.28-6.83,4.38-6.83,4.38l11.24,10.66h11.81l11.24-10.66s-5.62-3.1-6.83-4.38Z"/>
        <path class="cls-1" d="M164.69,271.33c-.17,0-.34-.07-.47-.2-.24-.26-.23-.66.02-.91l10.61-10.06c-1.63-.92-5.21-3-6.23-4.07-1.67-1.76-2.52-3.29-2.52-6.73v-5.51l-7.02,3.77c-.19.1-.42.1-.61,0l-7.02-3.77v5.51c0,3.44-.85,4.96-2.52,6.73-1.01,1.07-4.6,3.15-6.23,4.07l10.61,10.06c.26.24.27.65.02.91-.24.26-.65.27-.91.02l-11.24-10.66c-.15-.14-.22-.34-.19-.55.03-.2.15-.38.33-.48,1.54-.85,5.74-3.27,6.68-4.26,1.5-1.58,2.17-2.8,2.17-5.84v-6.58c0-.23.12-.43.31-.55.19-.12.43-.12.63-.01l7.66,4.11,7.66-4.11c.2-.11.44-.1.63.01.19.12.31.32.31.55v6.58c0,3.04.67,4.26,2.17,5.84.94.99,5.14,3.41,6.68,4.26.18.1.3.28.33.48.03.2-.05.41-.19.55l-11.24,10.66c-.12.12-.28.18-.44.18Z"/>
      </g>
      <g>
        <g>
          <path class="cls-4" d="M147.1,254.05l.98-.65,2.09-3.43s.68.51,4.28,3.05c1.99,1.4,4.33,2.67,4.33,2.67h0s0,0,0,0h0s2.34-1.26,4.33-2.67c3.59-2.53,4.28-3.05,4.28-3.05l2.09,3.43.98.65,1.62,1.6-2.6,14.71-5.93,26.8h-9.55l-5.93-26.8-2.6-14.71,1.62-1.6Z"/>
          <path class="cls-1" d="M163.56,297.8h-9.55c-.3,0-.56-.21-.63-.5l-5.93-26.8s0-.02,0-.03l-2.6-14.71c-.04-.21.03-.42.18-.57l1.62-1.6s.06-.05.1-.08l.86-.57,2.02-3.31c.09-.15.25-.26.43-.3.18-.03.36,0,.51.12,0,0,.73.55,4.26,3.04,1.52,1.07,3.27,2.07,3.96,2.46.69-.39,2.44-1.39,3.96-2.46,3.53-2.49,4.26-3.03,4.26-3.04.14-.11.33-.15.51-.12.18.03.33.14.43.3l2.02,3.31.86.57s.07.05.1.08l1.62,1.6c.15.15.22.36.18.57l-2.6,14.71s0,.02,0,.03l-5.93,26.8c-.06.29-.33.5-.63.5ZM154.52,296.51h8.52l5.81-26.29,2.54-14.36-1.34-1.32-.93-.62c-.08-.05-.14-.12-.19-.2l-1.73-2.84c-.57.41-1.68,1.2-3.72,2.64-2,1.41-4.3,2.66-4.4,2.71-.19.1-.42.1-.61,0-.1-.05-2.4-1.3-4.4-2.71-2.05-1.44-3.15-2.23-3.72-2.64l-1.73,2.84c-.05.08-.11.15-.19.2l-.93.62-1.34,1.32,2.54,14.36,5.81,26.29Z"/>
        </g>
        <path class="cls-1" d="M153.5,262.68c-.14,0-.29-.05-.41-.15-.27-.23-.31-.63-.08-.9l5.28-6.36c.12-.15.3-.23.49-.23s.37.08.49.23l4.77,5.75,1-1.29c.22-.28.62-.33.9-.11.28.22.33.62.11.9l-1.49,1.92c-.12.15-.3.25-.5.25-.19.01-.38-.08-.5-.23l-4.79-5.77-4.79,5.77c-.13.15-.31.23-.49.23Z"/>
        <path class="cls-1" d="M160.3,262.22s.59-1.89.92-3.61l-2.41-2.91-.03-.03-.03.03-2.41,2.91c.33,1.72.92,3.61.92,3.61,0,0-.89,4.47-1.2,7.1-.21,1.81-1.46,20.73-2.22,32.39l9.88.02c-.76-11.66-2-30.6-2.22-32.41-.31-2.64-1.2-7.1-1.2-7.1Z"/>
      </g>
      <path class="cls-4" d="M194.17,291.2c-.03-.18-.07-.37-.1-.56-.14-.79-.31-1.64-.49-2.57-.03-.15-.06-.3-.09-.45-.26-1.33-.55-2.82-.87-4.47-.03-.13-.05-.27-.08-.41-.03-.14-.05-.29-.08-.43-.14-.75-.27-1.46-.4-2.14-.04-.2-.07-.4-.11-.59-.55-3-.97-5.36-1.35-7.33-.05-.25-.1-.49-.14-.72-.33-1.66-.65-3.03-1.03-4.29-.05-.17-.1-.33-.15-.49-.38-1.18-.81-2.28-1.37-3.44-.11-.22-.23-.43-.35-.62-.14-.2-.28-.39-.43-.56-.39-.44-.82-.77-1.24-1.03-.12-.07-.23-.14-.34-.2-.78-.42-1.42-.54-1.42-.54,0,0-1.18-.32-2.85-.9-.17-.06-.35-.12-.54-.19-.55-.2-1.14-.42-1.74-.67-.86-.35-1.63-.68-2.3-.97-.25-.11-.49-.22-.71-.32-1.34-.61-2.1-1-2.1-1l-1.36-2.07-2.99-1.77s-.45,2.72-1.05,6.27c-.04.25-.09.51-.13.77-.4,2.33-.85,4.94-1.28,7.33-.03.19-.07.38-.1.57-.16.9-.32,1.76-.47,2.56-.03.16-.06.32-.09.47-.3,1.58-.56,2.88-.74,3.65-.05.21-.11.44-.19.71-.05.19-.11.39-.18.61-.34,1.12-.82,2.6-1.38,4.22-.06.18-.13.36-.19.55-.46,1.33-.96,2.74-1.47,4.14-.08.22-.16.44-.24.67-.51,1.41-1.01,2.79-1.47,4.03-.09.25-.18.5-.27.73-.71,1.91-1.27,3.4-1.49,4.01-.07.19-.11.3-.11.3,0,0-.03-.08-.09-.24-.21-.56-.79-2.09-1.52-4.08-.07-.18-.14-.37-.21-.56-1.86-5.05-4.57-12.56-5.18-15.09-.18-.74-.42-1.96-.71-3.46-.05-.25-.09-.5-.14-.76-.4-2.16-.86-4.77-1.3-7.3-.04-.21-.07-.41-.11-.62-.15-.87-.3-1.72-.44-2.54-.03-.17-.06-.33-.08-.49-.62-3.63-1.08-6.44-1.08-6.44l-2.98,1.76h-.02s-.31.49-.31.49l-1.04,1.59s-.69.36-1.92.92c-.21.09-.43.19-.66.3-.72.32-1.56.68-2.52,1.07-.51.21-1,.4-1.47.57-.22.08-.44.16-.65.23-1.75.62-3.01.96-3.01.96,0,0-.49,0-1.13.26-.21.09-.43.2-.66.36-.35.24-.71.57-1.04,1.03-.14.19-.27.41-.39.66-.02.03-.03.06-.05.09-.35.72-.69,2.23-1.05,4.21-.02.1-.04.21-.06.32-.14.8-.28,1.66-.42,2.58-.04.24-.07.47-.11.72-.34,2.26-.7,4.8-1.09,7.38-.03.19-.06.39-.09.59-.05.35-.11.7-.16,1.06-.07.48-.15.96-.22,1.44-.03.21-.07.43-.1.64-.4,2.55-.79,5.05-1.16,7.32-.04.25-.08.5-.12.75-.53,3.27-.98,6.01-1.24,7.61,0,.02,0,.04,0,.06-.16.95-.25,1.49-.25,1.49l1.07-.02h.78s2.41-.04,2.41-.04h.77s2.43-.04,2.43-.04h.75s1.83-.04,1.83-.04l.6.06.78.08,2.49.26.55.06,10.56,1.1.72.08,2.44.25.7.07,10.54,1.1.61.06,2.47.26.76.08,6.33.66,1.5,3.68.15.38.51,1.25s4.05-1.29,8.84-2.94c3.98-1.37,5.96-2.14,7.46-3.37.06-.05.11-.1.17-.14.53-.46,1.02-.98,1.51-1.63,1.47-1.89,1.42-4.09.56-8.93Z"/>
      <g>
        <path class="cls-6" d="M185.89,261.1c-.12-.07-.23-.14-.34-.2.02.03.04.06.06.08.08.08.18.12.28.12Z"/>
        <path class="cls-6" d="M187.56,262.69c-.14-.2-.28-.39-.43-.56-.07.15-.05.33.07.45.1.1.23.13.36.11Z"/>
        <path class="cls-6" d="M181.29,259.47c-.17-.06-.35-.12-.54-.19.02.04.05.08.08.12.12.12.31.15.46.07Z"/>
        <path class="cls-6" d="M182.42,260.43c-.15.15-.15.4,0,.56.15.15.4.15.56,0,.15-.15.15-.4,0-.56-.15-.15-.4-.15-.56,0Z"/>
        <path class="cls-6" d="M184.02,262.02c-.15.15-.15.4,0,.56.15.15.4.15.56,0,.15-.15.15-.4,0-.56-.15-.15-.4-.15-.56,0Z"/>
        <path class="cls-6" d="M185.61,263.62c-.15.15-.15.4,0,.56.15.15.4.15.56,0,.15-.15.15-.4,0-.56-.15-.15-.4-.15-.56,0Z"/>
        <path class="cls-6" d="M187.2,265.21c-.15.15-.15.4,0,.56.15.15.4.15.56,0,.15-.15.15-.4,0-.56-.15-.15-.4-.15-.56,0Z"/>
        <path class="cls-6" d="M189.35,267.36s.06-.08.08-.12c-.05-.17-.1-.33-.15-.49-.15-.1-.36-.08-.49.05-.15.15-.15.4,0,.56.15.15.4.15.56,0Z"/>
        <path class="cls-6" d="M176.61,257.8s.08-.11.1-.17c-.25-.11-.49-.22-.71-.32-.09.15-.08.35.06.48.15.15.4.15.56,0Z"/>
        <path class="cls-6" d="M177.65,258.84c-.15.15-.15.4,0,.56.15.15.4.15.56,0,.15-.15.15-.4,0-.56-.15-.15-.4-.15-.56,0Z"/>
        <path class="cls-6" d="M179.24,260.43c-.15.15-.15.4,0,.56.15.15.4.15.56,0,.15-.15.15-.4,0-.56-.15-.15-.4-.15-.56,0Z"/>
        <path class="cls-6" d="M180.83,262.02c-.15.15-.15.4,0,.56.15.15.4.15.56,0,.15-.15.15-.4,0-.56-.15-.15-.4-.15-.56,0Z"/>
        <path class="cls-6" d="M182.42,263.62c-.15.15-.15.4,0,.56.15.15.4.15.56,0,.15-.15.15-.4,0-.56-.15-.15-.4-.15-.56,0Z"/>
        <path class="cls-6" d="M184.02,265.21c-.15.15-.15.4,0,.56.15.15.4.15.56,0,.15-.15.15-.4,0-.56-.15-.15-.4-.15-.56,0Z"/>
        <path class="cls-6" d="M185.61,266.8c-.15.15-.15.4,0,.56.15.15.4.15.56,0,.15-.15.15-.4,0-.56-.15-.15-.4-.15-.56,0Z"/>
        <path class="cls-6" d="M187.2,268.39c-.15.15-.15.4,0,.56.15.15.4.15.56,0,.15-.15.15-.4,0-.56-.15-.15-.4-.15-.56,0Z"/>
        <path class="cls-6" d="M188.8,269.99c-.15.15-.15.4,0,.56.15.15.4.15.56,0,.15-.15.15-.4,0-.56-.15-.15-.4-.15-.56,0Z"/>
        <path class="cls-6" d="M190.6,272.25c-.05-.25-.1-.49-.14-.72-.03.02-.05.03-.07.06-.15.15-.15.4,0,.56.06.06.14.1.22.11Z"/>
        <path class="cls-6" d="M169.68,254.06c-.15.15-.15.4,0,.56.15.15.4.15.56,0,.15-.15.15-.4,0-.56-.15-.15-.4-.15-.56,0Z"/>
        <path class="cls-6" d="M171.27,255.65c-.15.15-.15.4,0,.56.15.15.4.15.56,0,.15-.15.15-.4,0-.56-.15-.15-.4-.15-.56,0Z"/>
        <path class="cls-6" d="M172.87,257.24c-.15.15-.15.4,0,.56.15.15.4.15.56,0,.15-.15.15-.4,0-.56-.15-.15-.4-.15-.56,0Z"/>
        <path class="cls-6" d="M174.46,258.84c-.15.15-.15.4,0,.56.15.15.4.15.56,0,.15-.15.15-.4,0-.56-.15-.15-.4-.15-.56,0Z"/>
        <path class="cls-6" d="M176.05,260.43c-.15.15-.15.4,0,.56.15.15.4.15.56,0,.15-.15.15-.4,0-.56-.15-.15-.4-.15-.56,0Z"/>
        <path class="cls-6" d="M177.65,262.02c-.15.15-.15.4,0,.56.15.15.4.15.56,0,.15-.15.15-.4,0-.56s-.4-.15-.56,0Z"/>
        <path class="cls-6" d="M179.24,263.62c-.15.15-.15.4,0,.56s.4.15.56,0c.15-.15.15-.4,0-.56-.15-.15-.4-.15-.56,0Z"/>
        <path class="cls-6" d="M180.83,265.21c-.15.15-.15.4,0,.56.15.15.4.15.56,0,.15-.15.15-.4,0-.56-.15-.15-.4-.15-.56,0Z"/>
        <path class="cls-6" d="M182.42,266.8c-.15.15-.15.4,0,.56.15.15.4.15.56,0,.15-.15.15-.4,0-.56-.15-.15-.4-.15-.56,0Z"/>
        <path class="cls-6" d="M184.02,268.39c-.15.15-.15.4,0,.56.15.15.4.15.56,0,.15-.15.15-.4,0-.56-.15-.15-.4-.15-.56,0Z"/>
        <path class="cls-6" d="M185.61,269.99c-.15.15-.15.4,0,.56.15.15.4.15.56,0,.15-.15.15-.4,0-.56s-.4-.15-.56,0Z"/>
        <path class="cls-6" d="M187.2,271.58c-.15.15-.15.4,0,.56.15.15.4.15.56,0,.15-.15.15-.4,0-.56-.15-.15-.4-.15-.56,0Z"/>
        <path class="cls-6" d="M188.8,273.17c-.15.15-.15.4,0,.56.15.15.4.15.56,0,.15-.15.15-.4,0-.56-.15-.15-.4-.15-.56,0Z"/>
        <path class="cls-6" d="M190.39,274.77c-.15.15-.15.4,0,.56.15.15.4.15.56,0,.15-.15.15-.4,0-.56-.15-.15-.4-.15-.56,0Z"/>
        <path class="cls-6" d="M169.68,257.24c-.15.15-.15.4,0,.56.15.15.4.15.56,0,.15-.15.15-.4,0-.56-.15-.15-.4-.15-.56,0Z"/>
        <path class="cls-6" d="M171.27,258.84c-.15.15-.15.4,0,.56.15.15.4.15.56,0,.15-.15.15-.4,0-.56-.15-.15-.4-.15-.56,0Z"/>
        <path class="cls-6" d="M172.87,260.43c-.15.15-.15.4,0,.56.15.15.4.15.56,0,.15-.15.15-.4,0-.56-.15-.15-.4-.15-.56,0Z"/>
        <path class="cls-6" d="M174.46,262.02c-.15.15-.15.4,0,.56.15.15.4.15.56,0,.15-.15.15-.4,0-.56-.15-.15-.4-.15-.56,0Z"/>
        <path class="cls-6" d="M176.05,263.62c-.15.15-.15.4,0,.56.15.15.4.15.56,0s.15-.4,0-.56c-.15-.15-.4-.15-.56,0Z"/>
        <path class="cls-6" d="M177.65,265.21c-.15.15-.15.4,0,.56s.4.15.56,0,.15-.4,0-.56c-.15-.15-.4-.15-.56,0Z"/>
        <path class="cls-6" d="M179.24,266.8c-.15.15-.15.4,0,.56.15.15.4.15.56,0,.15-.15.15-.4,0-.56-.15-.15-.4-.15-.56,0Z"/>
        <path class="cls-6" d="M180.83,268.39c-.15.15-.15.4,0,.56.15.15.4.15.56,0,.15-.15.15-.4,0-.56s-.4-.15-.56,0Z"/>
        <path class="cls-6" d="M182.42,269.99c-.15.15-.15.4,0,.56s.4.15.56,0c.15-.15.15-.4,0-.56-.15-.15-.4-.15-.56,0Z"/>
        <path class="cls-6" d="M184.02,271.58c-.15.15-.15.4,0,.56.15.15.4.15.56,0,.15-.15.15-.4,0-.56-.15-.15-.4-.15-.56,0Z"/>
        <path class="cls-6" d="M185.61,273.17c-.15.15-.15.4,0,.56s.4.15.56,0,.15-.4,0-.56c-.15-.15-.4-.15-.56,0Z"/>
        <path class="cls-6" d="M187.2,274.77c-.15.15-.15.4,0,.56.15.15.4.15.56,0,.15-.15.15-.4,0-.56-.15-.15-.4-.15-.56,0Z"/>
        <path class="cls-6" d="M188.8,276.36c-.15.15-.15.4,0,.56.15.15.4.15.56,0,.15-.15.15-.4,0-.56-.15-.15-.4-.15-.56,0Z"/>
        <path class="cls-6" d="M190.39,277.95c-.15.15-.15.4,0,.56s.4.15.56,0,.15-.4,0-.56c-.15-.15-.4-.15-.56,0Z"/>
        <path class="cls-6" d="M192.07,280.16c-.04-.2-.07-.4-.11-.59-.13.15-.12.38.02.53.03.03.06.05.09.06Z"/>
        <path class="cls-6" d="M168.5,258.74c-.04.25-.09.51-.13.77.1,0,.2-.04.28-.12.15-.15.15-.4,0-.56-.04-.04-.1-.07-.15-.09Z"/>
        <path class="cls-6" d="M169.68,260.43c-.15.15-.15.4,0,.56.15.15.4.15.56,0,.15-.15.15-.4,0-.56-.15-.15-.4-.15-.56,0Z"/>
        <path class="cls-6" d="M171.27,262.02c-.15.15-.15.4,0,.56.15.15.4.15.56,0,.15-.15.15-.4,0-.56s-.4-.15-.56,0Z"/>
        <path class="cls-6" d="M172.87,263.62c-.15.15-.15.4,0,.56s.4.15.56,0c.15-.15.15-.4,0-.56-.15-.15-.4-.15-.56,0Z"/>
        <path class="cls-6" d="M174.46,265.21c-.15.15-.15.4,0,.56.15.15.4.15.56,0,.15-.15.15-.4,0-.56-.15-.15-.4-.15-.56,0Z"/>
        <path class="cls-6" d="M176.05,266.8c-.15.15-.15.4,0,.56.15.15.4.15.56,0,.15-.15.15-.4,0-.56-.15-.15-.4-.15-.56,0Z"/>
        <path class="cls-6" d="M177.65,268.39c-.15.15-.15.4,0,.56.15.15.4.15.56,0,.15-.15.15-.4,0-.56-.15-.15-.4-.15-.56,0Z"/>
        <path class="cls-6" d="M179.24,269.99c-.15.15-.15.4,0,.56.15.15.4.15.56,0,.15-.15.15-.4,0-.56-.15-.15-.4-.15-.56,0Z"/>
        <path class="cls-6" d="M180.83,271.58c-.15.15-.15.4,0,.56s.4.15.56,0c.15-.15.15-.4,0-.56-.15-.15-.4-.15-.56,0Z"/>
        <path class="cls-6" d="M182.42,273.17c-.15.15-.15.4,0,.56.15.15.4.15.56,0,.15-.15.15-.4,0-.56-.15-.15-.4-.15-.56,0Z"/>
        <path class="cls-6" d="M184.02,274.77c-.15.15-.15.4,0,.56.15.15.4.15.56,0,.15-.15.15-.4,0-.56-.15-.15-.4-.15-.56,0Z"/>
        <path class="cls-6" d="M185.61,276.36c-.15.15-.15.4,0,.56.15.15.4.15.56,0,.15-.15.15-.4,0-.56-.15-.15-.4-.15-.56,0Z"/>
        <path class="cls-6" d="M187.2,277.95c-.15.15-.15.4,0,.56.15.15.4.15.56,0,.15-.15.15-.4,0-.56-.15-.15-.4-.15-.56,0Z"/>
        <path class="cls-6" d="M188.8,279.54c-.15.15-.15.4,0,.56.15.15.4.15.56,0,.15-.15.15-.4,0-.56-.15-.15-.4-.15-.56,0Z"/>
        <path class="cls-6" d="M190.39,281.14c-.15.15-.15.4,0,.56.15.15.4.15.56,0,.15-.15.15-.4,0-.56-.15-.15-.4-.15-.56,0Z"/>
        <path class="cls-6" d="M192.54,283.29s.07-.09.09-.14c-.03-.13-.05-.27-.08-.41,0,0,0,0-.01-.01-.15-.15-.4-.15-.56,0-.15.15-.15.4,0,.56.15.15.4.15.56,0Z"/>
        <path class="cls-6" d="M168.09,262.02c-.15.15-.15.4,0,.56.15.15.4.15.56,0,.15-.15.15-.4,0-.56-.15-.15-.4-.15-.56,0Z"/>
        <path class="cls-6" d="M169.68,263.62c-.15.15-.15.4,0,.56.15.15.4.15.56,0,.15-.15.15-.4,0-.56-.15-.15-.4-.15-.56,0Z"/>
        <path class="cls-6" d="M171.27,265.21c-.15.15-.15.4,0,.56.15.15.4.15.56,0s.15-.4,0-.56c-.15-.15-.4-.15-.56,0Z"/>
        <path class="cls-6" d="M172.87,266.8c-.15.15-.15.4,0,.56.15.15.4.15.56,0,.15-.15.15-.4,0-.56-.15-.15-.4-.15-.56,0Z"/>
        <path class="cls-6" d="M174.46,268.39c-.15.15-.15.4,0,.56.15.15.4.15.56,0,.15-.15.15-.4,0-.56-.15-.15-.4-.15-.56,0Z"/>
        <path class="cls-6" d="M176.05,269.99c-.15.15-.15.4,0,.56.15.15.4.15.56,0,.15-.15.15-.4,0-.56-.15-.15-.4-.15-.56,0Z"/>
        <path class="cls-6" d="M177.65,271.58c-.15.15-.15.4,0,.56.15.15.4.15.56,0,.15-.15.15-.4,0-.56-.15-.15-.4-.15-.56,0Z"/>
        <path class="cls-6" d="M179.24,273.17c-.15.15-.15.4,0,.56.15.15.4.15.56,0,.15-.15.15-.4,0-.56-.15-.15-.4-.15-.56,0Z"/>
        <path class="cls-6" d="M180.83,274.77c-.15.15-.15.4,0,.56.15.15.4.15.56,0,.15-.15.15-.4,0-.56-.15-.15-.4-.15-.56,0Z"/>
        <path class="cls-6" d="M182.42,276.36c-.15.15-.15.4,0,.56.15.15.4.15.56,0,.15-.15.15-.4,0-.56-.15-.15-.4-.15-.56,0Z"/>
        <path class="cls-6" d="M184.02,277.95c-.15.15-.15.4,0,.56s.4.15.56,0c.15-.15.15-.4,0-.56-.15-.15-.4-.15-.56,0Z"/>
        <path class="cls-6" d="M185.61,279.54c-.15.15-.15.4,0,.56.15.15.4.15.56,0,.15-.15.15-.4,0-.56-.15-.15-.4-.15-.56,0Z"/>
        <path class="cls-6" d="M187.2,281.14c-.15.15-.15.4,0,.56.15.15.4.15.56,0,.15-.15.15-.4,0-.56-.15-.15-.4-.15-.56,0Z"/>
        <path class="cls-6" d="M188.8,282.73c-.15.15-.15.4,0,.56.15.15.4.15.56,0,.15-.15.15-.4,0-.56-.15-.15-.4-.15-.56,0Z"/>
        <path class="cls-6" d="M190.39,284.32c-.15.15-.15.4,0,.56.15.15.4.15.56,0,.15-.15.15-.4,0-.56s-.4-.15-.56,0Z"/>
        <path class="cls-6" d="M191.98,285.92c-.15.15-.15.4,0,.56.15.15.4.15.56,0,.15-.15.15-.4,0-.56-.15-.15-.4-.15-.56,0Z"/>
        <path class="cls-6" d="M193.58,288.07c-.03-.15-.06-.3-.09-.45-.07.15-.04.32.08.44,0,0,0,0,0,0Z"/>
        <path class="cls-6" d="M168.09,265.21c-.15.15-.15.4,0,.56s.4.15.56,0c.15-.15.15-.4,0-.56-.15-.15-.4-.15-.56,0Z"/>
        <path class="cls-6" d="M169.68,266.8c-.15.15-.15.4,0,.56.15.15.4.15.56,0,.15-.15.15-.4,0-.56-.15-.15-.4-.15-.56,0Z"/>
        <path class="cls-6" d="M171.27,268.39c-.15.15-.15.4,0,.56.15.15.4.15.56,0,.15-.15.15-.4,0-.56-.15-.15-.4-.15-.56,0Z"/>
        <path class="cls-6" d="M172.87,269.99c-.15.15-.15.4,0,.56.15.15.4.15.56,0s.15-.4,0-.56c-.15-.15-.4-.15-.56,0Z"/>
        <path class="cls-6" d="M174.46,271.58c-.15.15-.15.4,0,.56.15.15.4.15.56,0,.15-.15.15-.4,0-.56-.15-.15-.4-.15-.56,0Z"/>
        <path class="cls-6" d="M176.05,273.17c-.15.15-.15.4,0,.56.15.15.4.15.56,0,.15-.15.15-.4,0-.56-.15-.15-.4-.15-.56,0Z"/>
        <path class="cls-6" d="M177.65,274.77c-.15.15-.15.4,0,.56.15.15.4.15.56,0,.15-.15.15-.4,0-.56-.15-.15-.4-.15-.56,0Z"/>
        <path class="cls-6" d="M179.24,276.36c-.15.15-.15.4,0,.56.15.15.4.15.56,0,.15-.15.15-.4,0-.56-.15-.15-.4-.15-.56,0Z"/>
        <path class="cls-6" d="M180.83,277.95c-.15.15-.15.4,0,.56.15.15.4.15.56,0s.15-.4,0-.56c-.15-.15-.4-.15-.56,0Z"/>
        <path class="cls-6" d="M182.42,279.54c-.15.15-.15.4,0,.56.15.15.4.15.56,0,.15-.15.15-.4,0-.56-.15-.15-.4-.15-.56,0Z"/>
        <path class="cls-6" d="M184.02,281.14c-.15.15-.15.4,0,.56.15.15.4.15.56,0,.15-.15.15-.4,0-.56-.15-.15-.4-.15-.56,0Z"/>
        <path class="cls-6" d="M185.61,282.73c-.15.15-.15.4,0,.56.15.15.4.15.56,0,.15-.15.15-.4,0-.56-.15-.15-.4-.15-.56,0Z"/>
        <path class="cls-6" d="M187.2,284.32c-.15.15-.15.4,0,.56.15.15.4.15.56,0,.15-.15.15-.4,0-.56-.15-.15-.4-.15-.56,0Z"/>
        <path class="cls-6" d="M188.8,285.92c-.15.15-.15.4,0,.56.15.15.4.15.56,0,.15-.15.15-.4,0-.56-.15-.15-.4-.15-.56,0Z"/>
        <path class="cls-6" d="M190.39,287.51c-.15.15-.15.4,0,.56.15.15.4.15.56,0,.15-.15.15-.4,0-.56-.15-.15-.4-.15-.56,0Z"/>
        <path class="cls-6" d="M191.98,289.1c-.15.15-.15.4,0,.56.15.15.4.15.56,0,.15-.15.15-.4,0-.56-.15-.15-.4-.15-.56,0Z"/>
        <path class="cls-6" d="M194.13,291.25s.03-.03.04-.05c-.03-.18-.07-.37-.1-.56-.15-.1-.36-.09-.5.05-.15.15-.15.4,0,.56.15.15.4.15.56,0Z"/>
        <path class="cls-6" d="M167.09,266.84c-.03.19-.07.38-.1.57.02-.02.05-.03.07-.05.14-.14.15-.36.03-.52Z"/>
        <path class="cls-6" d="M168.09,268.39c-.15.15-.15.4,0,.56.15.15.4.15.56,0,.15-.15.15-.4,0-.56-.15-.15-.4-.15-.56,0Z"/>
        <path class="cls-6" d="M169.68,269.99c-.15.15-.15.4,0,.56.15.15.4.15.56,0,.15-.15.15-.4,0-.56s-.4-.15-.56,0Z"/>
        <path class="cls-6" d="M171.27,271.58c-.15.15-.15.4,0,.56.15.15.4.15.56,0,.15-.15.15-.4,0-.56-.15-.15-.4-.15-.56,0Z"/>
        <path class="cls-6" d="M172.87,273.17c-.15.15-.15.4,0,.56.15.15.4.15.56,0,.15-.15.15-.4,0-.56-.15-.15-.4-.15-.56,0Z"/>
        <path class="cls-6" d="M174.46,274.77c-.15.15-.15.4,0,.56.15.15.4.15.56,0,.15-.15.15-.4,0-.56-.15-.15-.4-.15-.56,0Z"/>
        <path class="cls-6" d="M176.05,276.36c-.15.15-.15.4,0,.56.15.15.4.15.56,0,.15-.15.15-.4,0-.56-.15-.15-.4-.15-.56,0Z"/>
        <path class="cls-6" d="M177.65,277.95c-.15.15-.15.4,0,.56.15.15.4.15.56,0,.15-.15.15-.4,0-.56s-.4-.15-.56,0Z"/>
        <path class="cls-6" d="M179.24,279.54c-.15.15-.15.4,0,.56s.4.15.56,0c.15-.15.15-.4,0-.56-.15-.15-.4-.15-.56,0Z"/>
        <path class="cls-6" d="M180.83,281.14c-.15.15-.15.4,0,.56.15.15.4.15.56,0,.15-.15.15-.4,0-.56-.15-.15-.4-.15-.56,0Z"/>
        <path class="cls-6" d="M182.42,282.73c-.15.15-.15.4,0,.56.15.15.4.15.56,0,.15-.15.15-.4,0-.56-.15-.15-.4-.15-.56,0Z"/>
        <path class="cls-6" d="M184.02,284.32c-.15.15-.15.4,0,.56.15.15.4.15.56,0,.15-.15.15-.4,0-.56-.15-.15-.4-.15-.56,0Z"/>
        <path class="cls-6" d="M185.61,285.92c-.15.15-.15.4,0,.56.15.15.4.15.56,0,.15-.15.15-.4,0-.56s-.4-.15-.56,0Z"/>
        <path class="cls-6" d="M187.2,287.51c-.15.15-.15.4,0,.56.15.15.4.15.56,0,.15-.15.15-.4,0-.56-.15-.15-.4-.15-.56,0Z"/>
        <path class="cls-6" d="M188.8,289.1c-.15.15-.15.4,0,.56.15.15.4.15.56,0,.15-.15.15-.4,0-.56-.15-.15-.4-.15-.56,0Z"/>
        <path class="cls-6" d="M190.39,290.69c-.15.15-.15.4,0,.56.15.15.4.15.56,0,.15-.15.15-.4,0-.56-.15-.15-.4-.15-.56,0Z"/>
        <path class="cls-6" d="M191.98,292.29c-.15.15-.15.4,0,.56.15.15.4.15.56,0,.15-.15.15-.4,0-.56-.15-.15-.4-.15-.56,0Z"/>
        <path class="cls-6" d="M194.13,294.44c.15-.15.15-.4,0-.56-.15-.15-.4-.15-.56,0-.15.15-.15.4,0,.56.15.15.4.15.56,0Z"/>
        <path class="cls-6" d="M166.51,269.97c-.03.16-.06.32-.09.47.02.04.04.07.07.1.15.15.4.15.56,0,.15-.15.15-.4,0-.56-.15-.15-.38-.15-.54-.02Z"/>
        <path class="cls-6" d="M168.09,271.58c-.15.15-.15.4,0,.56.15.15.4.15.56,0s.15-.4,0-.56c-.15-.15-.4-.15-.56,0Z"/>
        <path class="cls-6" d="M169.68,273.17c-.15.15-.15.4,0,.56s.4.15.56,0,.15-.4,0-.56c-.15-.15-.4-.15-.56,0Z"/>
        <path class="cls-6" d="M171.27,274.77c-.15.15-.15.4,0,.56.15.15.4.15.56,0,.15-.15.15-.4,0-.56-.15-.15-.4-.15-.56,0Z"/>
        <path class="cls-6" d="M172.87,276.36c-.15.15-.15.4,0,.56.15.15.4.15.56,0,.15-.15.15-.4,0-.56s-.4-.15-.56,0Z"/>
        <path class="cls-6" d="M174.46,277.95c-.15.15-.15.4,0,.56s.4.15.56,0c.15-.15.15-.4,0-.56-.15-.15-.4-.15-.56,0Z"/>
        <path class="cls-6" d="M176.05,279.54c-.15.15-.15.4,0,.56.15.15.4.15.56,0s.15-.4,0-.56c-.15-.15-.4-.15-.56,0Z"/>
        <path class="cls-6" d="M177.65,281.14c-.15.15-.15.4,0,.56s.4.15.56,0,.15-.4,0-.56c-.15-.15-.4-.15-.56,0Z"/>
        <path class="cls-6" d="M179.24,282.73c-.15.15-.15.4,0,.56.15.15.4.15.56,0,.15-.15.15-.4,0-.56-.15-.15-.4-.15-.56,0Z"/>
        <path class="cls-6" d="M180.83,284.32c-.15.15-.15.4,0,.56.15.15.4.15.56,0,.15-.15.15-.4,0-.56s-.4-.15-.56,0Z"/>
        <path class="cls-6" d="M182.42,285.92c-.15.15-.15.4,0,.56s.4.15.56,0c.15-.15.15-.4,0-.56-.15-.15-.4-.15-.56,0Z"/>
        <path class="cls-6" d="M184.02,287.51c-.15.15-.15.4,0,.56.15.15.4.15.56,0,.15-.15.15-.4,0-.56-.15-.15-.4-.15-.56,0Z"/>
        <path class="cls-6" d="M185.61,289.1c-.15.15-.15.4,0,.56.15.15.4.15.56,0,.15-.15.15-.4,0-.56-.15-.15-.4-.15-.56,0Z"/>
        <path class="cls-6" d="M187.2,290.69c-.15.15-.15.4,0,.56.15.15.4.15.56,0,.15-.15.15-.4,0-.56-.15-.15-.4-.15-.56,0Z"/>
        <path class="cls-6" d="M188.8,292.29c-.15.15-.15.4,0,.56.15.15.4.15.56,0,.15-.15.15-.4,0-.56-.15-.15-.4-.15-.56,0Z"/>
        <path class="cls-6" d="M190.39,293.88c-.15.15-.15.4,0,.56.15.15.4.15.56,0,.15-.15.15-.4,0-.56-.15-.15-.4-.15-.56,0Z"/>
        <path class="cls-6" d="M191.98,295.47c-.15.15-.15.4,0,.56.15.15.4.15.56,0,.15-.15.15-.4,0-.56-.15-.15-.4-.15-.56,0Z"/>
        <path class="cls-6" d="M193.57,297.07c-.15.15-.15.4,0,.56.15.15.4.15.56,0,.15-.15.15-.4,0-.56-.15-.15-.4-.15-.56,0Z"/>
        <path class="cls-6" d="M147.38,254.06c-.15.15-.15.4,0,.56.15.15.4.15.56,0,.15-.15.15-.4,0-.56-.15-.15-.4-.15-.56,0Z"/>
        <path class="cls-6" d="M166.5,273.17c-.15.15-.15.4,0,.56.15.15.4.15.56,0,.15-.15.15-.4,0-.56-.15-.15-.4-.15-.56,0Z"/>
        <path class="cls-6" d="M168.09,274.77c-.15.15-.15.4,0,.56.15.15.4.15.56,0,.15-.15.15-.4,0-.56s-.4-.15-.56,0Z"/>
        <path class="cls-6" d="M169.68,276.36c-.15.15-.15.4,0,.56.15.15.4.15.56,0,.15-.15.15-.4,0-.56-.15-.15-.4-.15-.56,0Z"/>
        <path class="cls-6" d="M171.27,277.95c-.15.15-.15.4,0,.56.15.15.4.15.56,0,.15-.15.15-.4,0-.56s-.4-.15-.56,0Z"/>
        <path class="cls-6" d="M172.87,279.54c-.15.15-.15.4,0,.56s.4.15.56,0c.15-.15.15-.4,0-.56-.15-.15-.4-.15-.56,0Z"/>
        <path class="cls-6" d="M174.46,281.14c-.15.15-.15.4,0,.56.15.15.4.15.56,0,.15-.15.15-.4,0-.56-.15-.15-.4-.15-.56,0Z"/>
        <path class="cls-6" d="M176.05,282.73c-.15.15-.15.4,0,.56.15.15.4.15.56,0,.15-.15.15-.4,0-.56s-.4-.15-.56,0Z"/>
        <path class="cls-6" d="M177.65,284.32c-.15.15-.15.4,0,.56.15.15.4.15.56,0,.15-.15.15-.4,0-.56-.15-.15-.4-.15-.56,0Z"/>
        <path class="cls-6" d="M179.24,285.92c-.15.15-.15.4,0,.56.15.15.4.15.56,0,.15-.15.15-.4,0-.56-.15-.15-.4-.15-.56,0Z"/>
        <path class="cls-6" d="M180.83,287.51c-.15.15-.15.4,0,.56s.4.15.56,0c.15-.15.15-.4,0-.56-.15-.15-.4-.15-.56,0Z"/>
        <path class="cls-6" d="M182.42,289.1c-.15.15-.15.4,0,.56.15.15.4.15.56,0,.15-.15.15-.4,0-.56-.15-.15-.4-.15-.56,0Z"/>
        <path class="cls-6" d="M184.02,290.69c-.15.15-.15.4,0,.56.15.15.4.15.56,0,.15-.15.15-.4,0-.56-.15-.15-.4-.15-.56,0Z"/>
        <path class="cls-6" d="M185.61,292.29c-.15.15-.15.4,0,.56.15.15.4.15.56,0,.15-.15.15-.4,0-.56-.15-.15-.4-.15-.56,0Z"/>
        <path class="cls-6" d="M187.2,293.88c-.15.15-.15.4,0,.56.15.15.4.15.56,0,.15-.15.15-.4,0-.56-.15-.15-.4-.15-.56,0Z"/>
        <path class="cls-6" d="M188.8,295.47c-.15.15-.15.4,0,.56.15.15.4.15.56,0,.15-.15.15-.4,0-.56-.15-.15-.4-.15-.56,0Z"/>
        <path class="cls-6" d="M190.39,297.07c-.15.15-.15.4,0,.56.15.15.4.15.56,0,.15-.15.15-.4,0-.56-.15-.15-.4-.15-.56,0Z"/>
        <path class="cls-6" d="M191.98,298.66c-.15.15-.15.4,0,.56.15.15.4.15.56,0,.15-.15.15-.4,0-.56-.15-.15-.4-.15-.56,0Z"/>
        <path class="cls-6" d="M144.85,254.24h-.02s-.31.49-.31.49c.08-.01.17-.05.23-.11.1-.1.14-.25.1-.38Z"/>
        <path class="cls-6" d="M145.79,255.65c-.15.15-.15.4,0,.56.15.15.4.15.56,0,.15-.15.15-.4,0-.56-.15-.15-.4-.15-.56,0Z"/>
        <path class="cls-6" d="M147.38,257.24c-.15.15-.15.4,0,.56.15.15.4.15.56,0,.15-.15.15-.4,0-.56-.15-.15-.4-.15-.56,0Z"/>
        <path class="cls-6" d="M149,259.41c-.03-.17-.06-.33-.08-.49-.09.15-.07.35.06.47,0,0,.02.01.02.02Z"/>
        <path class="cls-6" d="M165.49,274.81c-.05.19-.11.39-.18.61.05-.02.1-.05.14-.09.14-.14.15-.36.03-.52Z"/>
        <path class="cls-6" d="M166.5,276.36c-.15.15-.15.4,0,.56.15.15.4.15.56,0,.15-.15.15-.4,0-.56-.15-.15-.4-.15-.56,0Z"/>
        <path class="cls-6" d="M168.09,277.95c-.15.15-.15.4,0,.56.15.15.4.15.56,0,.15-.15.15-.4,0-.56-.15-.15-.4-.15-.56,0Z"/>
        <path class="cls-6" d="M169.68,279.54c-.15.15-.15.4,0,.56.15.15.4.15.56,0,.15-.15.15-.4,0-.56-.15-.15-.4-.15-.56,0Z"/>
        <path class="cls-6" d="M171.27,281.14c-.15.15-.15.4,0,.56.15.15.4.15.56,0s.15-.4,0-.56c-.15-.15-.4-.15-.56,0Z"/>
        <path class="cls-6" d="M172.87,282.73c-.15.15-.15.4,0,.56.15.15.4.15.56,0,.15-.15.15-.4,0-.56-.15-.15-.4-.15-.56,0Z"/>
        <path class="cls-6" d="M174.46,284.32c-.15.15-.15.4,0,.56.15.15.4.15.56,0,.15-.15.15-.4,0-.56-.15-.15-.4-.15-.56,0Z"/>
        <path class="cls-6" d="M176.05,285.92c-.15.15-.15.4,0,.56.15.15.4.15.56,0,.15-.15.15-.4,0-.56-.15-.15-.4-.15-.56,0Z"/>
        <path class="cls-6" d="M177.65,287.51c-.15.15-.15.4,0,.56.15.15.4.15.56,0,.15-.15.15-.4,0-.56-.15-.15-.4-.15-.56,0Z"/>
        <path class="cls-6" d="M179.24,289.1c-.15.15-.15.4,0,.56.15.15.4.15.56,0,.15-.15.15-.4,0-.56-.15-.15-.4-.15-.56,0Z"/>
        <path class="cls-6" d="M180.83,290.69c-.15.15-.15.4,0,.56.15.15.4.15.56,0,.15-.15.15-.4,0-.56-.15-.15-.4-.15-.56,0Z"/>
        <path class="cls-6" d="M182.42,292.29c-.15.15-.15.4,0,.56.15.15.4.15.56,0,.15-.15.15-.4,0-.56-.15-.15-.4-.15-.56,0Z"/>
        <path class="cls-6" d="M184.02,293.88c-.15.15-.15.4,0,.56.15.15.4.15.56,0,.15-.15.15-.4,0-.56-.15-.15-.4-.15-.56,0Z"/>
        <path class="cls-6" d="M185.61,295.47c-.15.15-.15.4,0,.56.15.15.4.15.56,0,.15-.15.15-.4,0-.56-.15-.15-.4-.15-.56,0Z"/>
        <path class="cls-6" d="M187.2,297.07c-.15.15-.15.4,0,.56.15.15.4.15.56,0,.15-.15.15-.4,0-.56-.15-.15-.4-.15-.56,0Z"/>
        <path class="cls-6" d="M188.8,298.66c-.15.15-.15.4,0,.56.15.15.4.15.56,0,.15-.15.15-.4,0-.56-.15-.15-.4-.15-.56,0Z"/>
        <path class="cls-6" d="M190.39,300.25c-.15.15-.15.4,0,.56.15.15.4.15.56,0,.15-.15.15-.4,0-.56s-.4-.15-.56,0Z"/>
        <path class="cls-6" d="M191.93,301.91c.06-.05.11-.1.17-.14-.04.02-.08.05-.12.08-.02.02-.04.04-.05.06Z"/>
        <path class="cls-6" d="M144.19,257.24c-.15.15-.15.4,0,.56.15.15.4.15.56,0,.15-.15.15-.4,0-.56-.15-.15-.4-.15-.56,0Z"/>
        <path class="cls-6" d="M145.79,258.84c-.15.15-.15.4,0,.56.15.15.4.15.56,0,.15-.15.15-.4,0-.56-.15-.15-.4-.15-.56,0Z"/>
        <path class="cls-6" d="M147.38,260.43c-.15.15-.15.4,0,.56.15.15.4.15.56,0,.15-.15.15-.4,0-.56-.15-.15-.4-.15-.56,0Z"/>
        <path class="cls-6" d="M149.53,262.58s0,0,0-.01c-.04-.21-.07-.41-.11-.62-.15-.08-.33-.05-.46.07-.15.15-.15.4,0,.56.15.15.4.15.56,0Z"/>
        <path class="cls-6" d="M164.9,277.95c-.15.15-.15.4,0,.56.15.15.4.15.56,0s.15-.4,0-.56c-.15-.15-.4-.15-.56,0Z"/>
        <path class="cls-6" d="M166.5,279.54c-.15.15-.15.4,0,.56.15.15.4.15.56,0,.15-.15.15-.4,0-.56-.15-.15-.4-.15-.56,0Z"/>
        <path class="cls-6" d="M168.09,281.14c-.15.15-.15.4,0,.56s.4.15.56,0c.15-.15.15-.4,0-.56-.15-.15-.4-.15-.56,0Z"/>
        <path class="cls-6" d="M169.68,282.73c-.15.15-.15.4,0,.56.15.15.4.15.56,0,.15-.15.15-.4,0-.56-.15-.15-.4-.15-.56,0Z"/>
        <path class="cls-6" d="M171.27,284.32c-.15.15-.15.4,0,.56.15.15.4.15.56,0,.15-.15.15-.4,0-.56-.15-.15-.4-.15-.56,0Z"/>
        <path class="cls-6" d="M172.87,285.92c-.15.15-.15.4,0,.56.15.15.4.15.56,0s.15-.4,0-.56c-.15-.15-.4-.15-.56,0Z"/>
        <path class="cls-6" d="M174.46,287.51c-.15.15-.15.4,0,.56.15.15.4.15.56,0,.15-.15.15-.4,0-.56-.15-.15-.4-.15-.56,0Z"/>
        <path class="cls-6" d="M176.05,289.1c-.15.15-.15.4,0,.56.15.15.4.15.56,0,.15-.15.15-.4,0-.56-.15-.15-.4-.15-.56,0Z"/>
        <path class="cls-6" d="M177.65,290.69c-.15.15-.15.4,0,.56.15.15.4.15.56,0,.15-.15.15-.4,0-.56-.15-.15-.4-.15-.56,0Z"/>
        <path class="cls-6" d="M179.24,292.29c-.15.15-.15.4,0,.56.15.15.4.15.56,0,.15-.15.15-.4,0-.56-.15-.15-.4-.15-.56,0Z"/>
        <path class="cls-6" d="M180.83,293.88c-.15.15-.15.4,0,.56s.4.15.56,0c.15-.15.15-.4,0-.56-.15-.15-.4-.15-.56,0Z"/>
        <path class="cls-6" d="M182.42,295.47c-.15.15-.15.4,0,.56.15.15.4.15.56,0,.15-.15.15-.4,0-.56-.15-.15-.4-.15-.56,0Z"/>
        <path class="cls-6" d="M184.02,297.07c-.15.15-.15.4,0,.56.15.15.4.15.56,0,.15-.15.15-.4,0-.56-.15-.15-.4-.15-.56,0Z"/>
        <path class="cls-6" d="M185.61,298.66c-.15.15-.15.4,0,.56.15.15.4.15.56,0,.15-.15.15-.4,0-.56-.15-.15-.4-.15-.56,0Z"/>
        <path class="cls-6" d="M187.2,300.25c-.15.15-.15.4,0,.56.15.15.4.15.56,0,.15-.15.15-.4,0-.56-.15-.15-.4-.15-.56,0Z"/>
        <path class="cls-6" d="M188.8,301.84c-.15.15-.15.4,0,.56.15.15.4.15.56,0,.15-.15.15-.4,0-.56-.15-.15-.4-.15-.56,0Z"/>
        <path class="cls-6" d="M141.56,257.24c-.21.09-.43.19-.66.3,0,.1.04.19.11.27.15.15.4.15.56,0,.15-.15.15-.4,0-.56,0,0,0,0,0,0Z"/>
        <path class="cls-6" d="M142.6,258.84c-.15.15-.15.4,0,.56.15.15.4.15.56,0,.15-.15.15-.4,0-.56s-.4-.15-.56,0Z"/>
        <path class="cls-6" d="M144.19,260.43c-.15.15-.15.4,0,.56.15.15.4.15.56,0,.15-.15.15-.4,0-.56-.15-.15-.4-.15-.56,0Z"/>
        <path class="cls-6" d="M145.79,262.02c-.15.15-.15.4,0,.56.15.15.4.15.56,0,.15-.15.15-.4,0-.56s-.4-.15-.56,0Z"/>
        <path class="cls-6" d="M147.38,263.62c-.15.15-.15.4,0,.56s.4.15.56,0c.15-.15.15-.4,0-.56-.15-.15-.4-.15-.56,0Z"/>
        <path class="cls-6" d="M148.97,265.21c-.15.15-.15.4,0,.56.15.15.4.15.56,0,.15-.15.15-.4,0-.56-.15-.15-.4-.15-.56,0Z"/>
        <path class="cls-6" d="M163.93,279.64c-.06.18-.13.36-.19.55.04-.02.09-.05.12-.08.13-.13.15-.32.07-.47Z"/>
        <path class="cls-6" d="M164.9,281.14c-.15.15-.15.4,0,.56.15.15.4.15.56,0,.15-.15.15-.4,0-.56-.15-.15-.4-.15-.56,0Z"/>
        <path class="cls-6" d="M166.5,282.73c-.15.15-.15.4,0,.56.15.15.4.15.56,0,.15-.15.15-.4,0-.56-.15-.15-.4-.15-.56,0Z"/>
        <path class="cls-6" d="M168.09,284.32c-.15.15-.15.4,0,.56.15.15.4.15.56,0,.15-.15.15-.4,0-.56-.15-.15-.4-.15-.56,0Z"/>
        <path class="cls-6" d="M169.68,285.92c-.15.15-.15.4,0,.56.15.15.4.15.56,0,.15-.15.15-.4,0-.56s-.4-.15-.56,0Z"/>
        <path class="cls-6" d="M171.27,287.51c-.15.15-.15.4,0,.56.15.15.4.15.56,0,.15-.15.15-.4,0-.56-.15-.15-.4-.15-.56,0Z"/>
        <path class="cls-6" d="M172.87,289.1c-.15.15-.15.4,0,.56.15.15.4.15.56,0,.15-.15.15-.4,0-.56s-.4-.15-.56,0Z"/>
        <path class="cls-6" d="M174.46,290.69c-.15.15-.15.4,0,.56.15.15.4.15.56,0,.15-.15.15-.4,0-.56-.15-.15-.4-.15-.56,0Z"/>
        <path class="cls-6" d="M176.05,292.29c-.15.15-.15.4,0,.56.15.15.4.15.56,0,.15-.15.15-.4,0-.56-.15-.15-.4-.15-.56,0Z"/>
        <path class="cls-6" d="M177.65,293.88c-.15.15-.15.4,0,.56.15.15.4.15.56,0,.15-.15.15-.4,0-.56-.15-.15-.4-.15-.56,0Z"/>
        <path class="cls-6" d="M179.24,295.47c-.15.15-.15.4,0,.56.15.15.4.15.56,0,.15-.15.15-.4,0-.56-.15-.15-.4-.15-.56,0Z"/>
        <path class="cls-6" d="M180.83,297.07c-.15.15-.15.4,0,.56.15.15.4.15.56,0,.15-.15.15-.4,0-.56-.15-.15-.4-.15-.56,0Z"/>
        <path class="cls-6" d="M182.42,298.66c-.15.15-.15.4,0,.56.15.15.4.15.56,0,.15-.15.15-.4,0-.56-.15-.15-.4-.15-.56,0Z"/>
        <path class="cls-6" d="M184.02,300.25c-.15.15-.15.4,0,.56.15.15.4.15.56,0,.15-.15.15-.4,0-.56-.15-.15-.4-.15-.56,0Z"/>
        <path class="cls-6" d="M185.61,301.84c-.15.15-.15.4,0,.56.15.15.4.15.56,0,.15-.15.15-.4,0-.56-.15-.15-.4-.15-.56,0Z"/>
        <path class="cls-6" d="M187.2,303.44c-.15.15-.15.4,0,.56.15.15.4.15.56,0,.15-.15.15-.4,0-.56-.15-.15-.4-.15-.56,0Z"/>
        <path class="cls-6" d="M139.42,258.84c-.15.15-.15.4,0,.56.15.15.4.15.56,0,.15-.15.15-.4,0-.56-.15-.15-.4-.15-.56,0Z"/>
        <path class="cls-6" d="M141.01,260.43c-.15.15-.15.4,0,.56.15.15.4.15.56,0,.15-.15.15-.4,0-.56-.15-.15-.4-.15-.56,0Z"/>
        <path class="cls-6" d="M142.6,262.02c-.15.15-.15.4,0,.56.15.15.4.15.56,0,.15-.15.15-.4,0-.56-.15-.15-.4-.15-.56,0Z"/>
        <path class="cls-6" d="M144.19,263.62c-.15.15-.15.4,0,.56.15.15.4.15.56,0s.15-.4,0-.56c-.15-.15-.4-.15-.56,0Z"/>
        <path class="cls-6" d="M145.79,265.21c-.15.15-.15.4,0,.56.15.15.4.15.56,0s.15-.4,0-.56c-.15-.15-.4-.15-.56,0Z"/>
        <path class="cls-6" d="M147.38,266.8c-.15.15-.15.4,0,.56.15.15.4.15.56,0,.15-.15.15-.4,0-.56-.15-.15-.4-.15-.56,0Z"/>
        <path class="cls-6" d="M148.97,268.39c-.15.15-.15.4,0,.56.15.15.4.15.56,0,.15-.15.15-.4,0-.56s-.4-.15-.56,0Z"/>
        <path class="cls-6" d="M150.99,270.63c-.05-.25-.09-.5-.14-.76-.1,0-.2.04-.28.12-.15.15-.15.4,0,.56.11.11.28.14.42.09Z"/>
        <path class="cls-6" d="M163.31,282.73c-.15.15-.15.4,0,.56.15.15.4.15.56,0,.15-.15.15-.4,0-.56-.15-.15-.4-.15-.56,0Z"/>
        <path class="cls-6" d="M164.9,284.32c-.15.15-.15.4,0,.56.15.15.4.15.56,0,.15-.15.15-.4,0-.56s-.4-.15-.56,0Z"/>
        <path class="cls-6" d="M166.5,285.92c-.15.15-.15.4,0,.56.15.15.4.15.56,0,.15-.15.15-.4,0-.56-.15-.15-.4-.15-.56,0Z"/>
        <path class="cls-6" d="M168.09,287.51c-.15.15-.15.4,0,.56.15.15.4.15.56,0s.15-.4,0-.56c-.15-.15-.4-.15-.56,0Z"/>
        <path class="cls-6" d="M169.68,289.1c-.15.15-.15.4,0,.56.15.15.4.15.56,0,.15-.15.15-.4,0-.56-.15-.15-.4-.15-.56,0Z"/>
        <path class="cls-6" d="M171.27,290.69c-.15.15-.15.4,0,.56.15.15.4.15.56,0,.15-.15.15-.4,0-.56-.15-.15-.4-.15-.56,0Z"/>
        <path class="cls-6" d="M172.87,292.29c-.15.15-.15.4,0,.56.15.15.4.15.56,0,.15-.15.15-.4,0-.56-.15-.15-.4-.15-.56,0Z"/>
        <path class="cls-6" d="M174.46,293.88c-.15.15-.15.4,0,.56.15.15.4.15.56,0,.15-.15.15-.4,0-.56-.15-.15-.4-.15-.56,0Z"/>
        <path class="cls-6" d="M176.05,295.47c-.15.15-.15.4,0,.56.15.15.4.15.56,0,.15-.15.15-.4,0-.56-.15-.15-.4-.15-.56,0Z"/>
        <path class="cls-6" d="M177.65,297.07c-.15.15-.15.4,0,.56.15.15.4.15.56,0,.15-.15.15-.4,0-.56-.15-.15-.4-.15-.56,0Z"/>
        <path class="cls-6" d="M179.24,298.66c-.15.15-.15.4,0,.56.15.15.4.15.56,0,.15-.15.15-.4,0-.56-.15-.15-.4-.15-.56,0Z"/>
        <path class="cls-6" d="M180.83,300.25c-.15.15-.15.4,0,.56.15.15.4.15.56,0,.15-.15.15-.4,0-.56s-.4-.15-.56,0Z"/>
        <path class="cls-6" d="M182.42,301.84c-.15.15-.15.4,0,.56.15.15.4.15.56,0,.15-.15.15-.4,0-.56-.15-.15-.4-.15-.56,0Z"/>
        <path class="cls-6" d="M184.02,303.44c-.15.15-.15.4,0,.56.15.15.4.15.56,0,.15-.15.15-.4,0-.56-.15-.15-.4-.15-.56,0Z"/>
        <path class="cls-6" d="M136.79,259.39c.06-.06.1-.14.11-.22-.22.08-.44.16-.65.23.15.14.39.13.54-.02Z"/>
        <path class="cls-6" d="M137.82,260.43c-.15.15-.15.4,0,.56.15.15.4.15.56,0,.15-.15.15-.4,0-.56-.15-.15-.4-.15-.56,0Z"/>
        <path class="cls-6" d="M139.42,262.02c-.15.15-.15.4,0,.56.15.15.4.15.56,0,.15-.15.15-.4,0-.56-.15-.15-.4-.15-.56,0Z"/>
        <path class="cls-6" d="M141.01,263.62c-.15.15-.15.4,0,.56.15.15.4.15.56,0,.15-.15.15-.4,0-.56-.15-.15-.4-.15-.56,0Z"/>
        <path class="cls-6" d="M142.6,265.21c-.15.15-.15.4,0,.56.15.15.4.15.56,0,.15-.15.15-.4,0-.56-.15-.15-.4-.15-.56,0Z"/>
        <path class="cls-6" d="M144.19,266.8c-.15.15-.15.4,0,.56.15.15.4.15.56,0,.15-.15.15-.4,0-.56-.15-.15-.4-.15-.56,0Z"/>
        <path class="cls-6" d="M145.79,268.39c-.15.15-.15.4,0,.56.15.15.4.15.56,0,.15-.15.15-.4,0-.56-.15-.15-.4-.15-.56,0Z"/>
        <path class="cls-6" d="M147.38,269.99c-.15.15-.15.4,0,.56.15.15.4.15.56,0,.15-.15.15-.4,0-.56-.15-.15-.4-.15-.56,0Z"/>
        <path class="cls-6" d="M148.97,271.58c-.15.15-.15.4,0,.56.15.15.4.15.56,0,.15-.15.15-.4,0-.56-.15-.15-.4-.15-.56,0Z"/>
        <path class="cls-6" d="M150.57,273.17c-.15.15-.15.4,0,.56.15.15.4.15.56,0,.15-.15.15-.4,0-.56-.15-.15-.4-.15-.56,0Z"/>
        <path class="cls-6" d="M162.28,284.33c-.08.22-.16.44-.24.67.09,0,.17-.05.24-.11.15-.15.15-.4,0-.55Z"/>
        <path class="cls-6" d="M163.31,285.92c-.15.15-.15.4,0,.56.15.15.4.15.56,0,.15-.15.15-.4,0-.56-.15-.15-.4-.15-.56,0Z"/>
        <path class="cls-6" d="M164.9,287.51c-.15.15-.15.4,0,.56s.4.15.56,0c.15-.15.15-.4,0-.56-.15-.15-.4-.15-.56,0Z"/>
        <path class="cls-6" d="M166.5,289.1c-.15.15-.15.4,0,.56.15.15.4.15.56,0,.15-.15.15-.4,0-.56-.15-.15-.4-.15-.56,0Z"/>
        <path class="cls-6" d="M168.09,290.69c-.15.15-.15.4,0,.56.15.15.4.15.56,0,.15-.15.15-.4,0-.56s-.4-.15-.56,0Z"/>
        <path class="cls-6" d="M169.68,292.29c-.15.15-.15.4,0,.56.15.15.4.15.56,0,.15-.15.15-.4,0-.56-.15-.15-.4-.15-.56,0Z"/>
        <path class="cls-6" d="M171.27,293.88c-.15.15-.15.4,0,.56.15.15.4.15.56,0,.15-.15.15-.4,0-.56-.15-.15-.4-.15-.56,0Z"/>
        <path class="cls-6" d="M172.87,295.47c-.15.15-.15.4,0,.56.15.15.4.15.56,0,.15-.15.15-.4,0-.56-.15-.15-.4-.15-.56,0Z"/>
        <path class="cls-6" d="M174.46,297.07c-.15.15-.15.4,0,.56.15.15.4.15.56,0,.15-.15.15-.4,0-.56-.15-.15-.4-.15-.56,0Z"/>
        <path class="cls-6" d="M176.05,298.66c-.15.15-.15.4,0,.56.15.15.4.15.56,0,.15-.15.15-.4,0-.56-.15-.15-.4-.15-.56,0Z"/>
        <path class="cls-6" d="M177.65,300.25c-.15.15-.15.4,0,.56.15.15.4.15.56,0,.15-.15.15-.4,0-.56-.15-.15-.4-.15-.56,0Z"/>
        <path class="cls-6" d="M179.24,301.84c-.15.15-.15.4,0,.56.15.15.4.15.56,0,.15-.15.15-.4,0-.56-.15-.15-.4-.15-.56,0Z"/>
        <path class="cls-6" d="M180.83,303.44c-.15.15-.15.4,0,.56.15.15.4.15.56,0,.15-.15.15-.4,0-.56-.15-.15-.4-.15-.56,0Z"/>
        <path class="cls-6" d="M182.42,305.03c-.15.15-.15.4,0,.56.15.15.4.15.56,0,.15-.15.15-.4,0-.56-.15-.15-.4-.15-.56,0Z"/>
        <path class="cls-6" d="M134.64,260.43c-.15.15-.15.4,0,.56.15.15.4.15.56,0,.15-.15.15-.4,0-.56-.15-.15-.4-.15-.56,0Z"/>
        <path class="cls-6" d="M136.23,262.02c-.15.15-.15.4,0,.56.15.15.4.15.56,0,.15-.15.15-.4,0-.56-.15-.15-.4-.15-.56,0Z"/>
        <path class="cls-6" d="M137.82,263.62c-.15.15-.15.4,0,.56s.4.15.56,0c.15-.15.15-.4,0-.56-.15-.15-.4-.15-.56,0Z"/>
        <path class="cls-6" d="M139.42,265.21c-.15.15-.15.4,0,.56.15.15.4.15.56,0,.15-.15.15-.4,0-.56-.15-.15-.4-.15-.56,0Z"/>
        <path class="cls-6" d="M141.01,266.8c-.15.15-.15.4,0,.56.15.15.4.15.56,0,.15-.15.15-.4,0-.56-.15-.15-.4-.15-.56,0Z"/>
        <path class="cls-6" d="M142.6,268.39c-.15.15-.15.4,0,.56.15.15.4.15.56,0,.15-.15.15-.4,0-.56-.15-.15-.4-.15-.56,0Z"/>
        <path class="cls-6" d="M144.19,269.99c-.15.15-.15.4,0,.56.15.15.4.15.56,0,.15-.15.15-.4,0-.56-.15-.15-.4-.15-.56,0Z"/>
        <path class="cls-6" d="M145.79,271.58c-.15.15-.15.4,0,.56s.4.15.56,0c.15-.15.15-.4,0-.56-.15-.15-.4-.15-.56,0Z"/>
        <path class="cls-6" d="M147.38,273.17c-.15.15-.15.4,0,.56.15.15.4.15.56,0,.15-.15.15-.4,0-.56-.15-.15-.4-.15-.56,0Z"/>
        <path class="cls-6" d="M148.97,274.77c-.15.15-.15.4,0,.56.15.15.4.15.56,0,.15-.15.15-.4,0-.56-.15-.15-.4-.15-.56,0Z"/>
        <path class="cls-6" d="M150.57,276.36c-.15.15-.15.4,0,.56.15.15.4.15.56,0,.15-.15.15-.4,0-.56-.15-.15-.4-.15-.56,0Z"/>
        <path class="cls-6" d="M152.16,277.95c-.15.15-.15.4,0,.56.15.15.4.15.56,0,.15-.15.15-.4,0-.56-.15-.15-.4-.15-.56,0Z"/>
        <path class="cls-6" d="M161.72,287.51c-.15.15-.15.4,0,.56.15.15.4.15.56,0,.15-.15.15-.4,0-.56-.15-.15-.4-.15-.56,0Z"/>
        <path class="cls-6" d="M163.31,289.1c-.15.15-.15.4,0,.56.15.15.4.15.56,0,.15-.15.15-.4,0-.56-.15-.15-.4-.15-.56,0Z"/>
        <path class="cls-6" d="M164.9,290.69c-.15.15-.15.4,0,.56.15.15.4.15.56,0,.15-.15.15-.4,0-.56-.15-.15-.4-.15-.56,0Z"/>
        <path class="cls-6" d="M166.5,292.29c-.15.15-.15.4,0,.56.15.15.4.15.56,0,.15-.15.15-.4,0-.56-.15-.15-.4-.15-.56,0Z"/>
        <path class="cls-6" d="M168.09,293.88c-.15.15-.15.4,0,.56.15.15.4.15.56,0s.15-.4,0-.56c-.15-.15-.4-.15-.56,0Z"/>
        <path class="cls-6" d="M169.68,295.47c-.15.15-.15.4,0,.56.15.15.4.15.56,0,.15-.15.15-.4,0-.56-.15-.15-.4-.15-.56,0Z"/>
        <path class="cls-6" d="M171.27,297.07c-.15.15-.15.4,0,.56.15.15.4.15.56,0,.15-.15.15-.4,0-.56-.15-.15-.4-.15-.56,0Z"/>
        <path class="cls-6" d="M172.87,298.66c-.15.15-.15.4,0,.56.15.15.4.15.56,0,.15-.15.15-.4,0-.56-.15-.15-.4-.15-.56,0Z"/>
        <path class="cls-6" d="M174.46,300.25c-.15.15-.15.4,0,.56.15.15.4.15.56,0,.15-.15.15-.4,0-.56-.15-.15-.4-.15-.56,0Z"/>
        <path class="cls-6" d="M176.05,301.84c-.15.15-.15.4,0,.56.15.15.4.15.56,0,.15-.15.15-.4,0-.56-.15-.15-.4-.15-.56,0Z"/>
        <path class="cls-6" d="M177.65,303.44c-.15.15-.15.4,0,.56.15.15.4.15.56,0,.15-.15.15-.4,0-.56-.15-.15-.4-.15-.56,0Z"/>
        <path class="cls-6" d="M179.24,305.03c-.15.15-.15.4,0,.56.15.15.4.15.56,0,.15-.15.15-.4,0-.56-.15-.15-.4-.15-.56,0Z"/>
        <path class="cls-6" d="M132.01,260.99c.1-.1.13-.23.11-.36-.21.09-.43.2-.66.36.15.15.4.15.56,0Z"/>
        <path class="cls-6" d="M133.04,262.02c-.15.15-.15.4,0,.56.15.15.4.15.56,0,.15-.15.15-.4,0-.56-.15-.15-.4-.15-.56,0Z"/>
        <path class="cls-6" d="M134.64,263.62c-.15.15-.15.4,0,.56.15.15.4.15.56,0,.15-.15.15-.4,0-.56-.15-.15-.4-.15-.56,0Z"/>
        <path class="cls-6" d="M136.23,265.21c-.15.15-.15.4,0,.56.15.15.4.15.56,0,.15-.15.15-.4,0-.56-.15-.15-.4-.15-.56,0Z"/>
        <path class="cls-6" d="M137.82,266.8c-.15.15-.15.4,0,.56.15.15.4.15.56,0,.15-.15.15-.4,0-.56-.15-.15-.4-.15-.56,0Z"/>
        <path class="cls-6" d="M139.42,268.39c-.15.15-.15.4,0,.56.15.15.4.15.56,0,.15-.15.15-.4,0-.56-.15-.15-.4-.15-.56,0Z"/>
        <path class="cls-6" d="M141.01,269.99c-.15.15-.15.4,0,.56s.4.15.56,0,.15-.4,0-.56c-.15-.15-.4-.15-.56,0Z"/>
        <path class="cls-6" d="M142.6,271.58c-.15.15-.15.4,0,.56.15.15.4.15.56,0s.15-.4,0-.56c-.15-.15-.4-.15-.56,0Z"/>
        <path class="cls-6" d="M144.19,273.17c-.15.15-.15.4,0,.56.15.15.4.15.56,0,.15-.15.15-.4,0-.56-.15-.15-.4-.15-.56,0Z"/>
        <path class="cls-6" d="M145.79,274.77c-.15.15-.15.4,0,.56.15.15.4.15.56,0,.15-.15.15-.4,0-.56-.15-.15-.4-.15-.56,0Z"/>
        <path class="cls-6" d="M147.38,276.36c-.15.15-.15.4,0,.56.15.15.4.15.56,0,.15-.15.15-.4,0-.56-.15-.15-.4-.15-.56,0Z"/>
        <path class="cls-6" d="M148.97,277.95c-.15.15-.15.4,0,.56.15.15.4.15.56,0s.15-.4,0-.56c-.15-.15-.4-.15-.56,0Z"/>
        <path class="cls-6" d="M150.57,279.54c-.15.15-.15.4,0,.56.15.15.4.15.56,0s.15-.4,0-.56c-.15-.15-.4-.15-.56,0Z"/>
        <path class="cls-6" d="M152.16,281.14c-.15.15-.15.4,0,.56.15.15.4.15.56,0,.15-.15.15-.4,0-.56-.15-.15-.4-.15-.56,0Z"/>
        <path class="cls-6" d="M153.75,282.73c-.15.15-.15.4,0,.56.15.15.4.15.56,0,.15-.15.15-.4,0-.56-.15-.15-.4-.15-.56,0Z"/>
        <path class="cls-6" d="M160.57,289.02c-.09.25-.18.5-.27.73.13.04.28,0,.39-.1.15-.15.15-.4,0-.56-.03-.03-.07-.06-.12-.08Z"/>
        <path class="cls-6" d="M161.72,290.69c-.15.15-.15.4,0,.56.15.15.4.15.56,0,.15-.15.15-.4,0-.56-.15-.15-.4-.15-.56,0Z"/>
        <path class="cls-6" d="M163.31,292.29c-.15.15-.15.4,0,.56.15.15.4.15.56,0,.15-.15.15-.4,0-.56-.15-.15-.4-.15-.56,0Z"/>
        <path class="cls-6" d="M164.9,293.88c-.15.15-.15.4,0,.56s.4.15.56,0c.15-.15.15-.4,0-.56-.15-.15-.4-.15-.56,0Z"/>
        <path class="cls-6" d="M166.5,295.47c-.15.15-.15.4,0,.56.15.15.4.15.56,0,.15-.15.15-.4,0-.56-.15-.15-.4-.15-.56,0Z"/>
        <path class="cls-6" d="M168.09,297.07c-.15.15-.15.4,0,.56.15.15.4.15.56,0,.15-.15.15-.4,0-.56-.15-.15-.4-.15-.56,0Z"/>
        <path class="cls-6" d="M169.68,298.66c-.15.15-.15.4,0,.56.15.15.4.15.56,0,.15-.15.15-.4,0-.56-.15-.15-.4-.15-.56,0Z"/>
        <path class="cls-6" d="M171.27,300.25c-.15.15-.15.4,0,.56.15.15.4.15.56,0,.15-.15.15-.4,0-.56-.15-.15-.4-.15-.56,0Z"/>
        <path class="cls-6" d="M172.87,301.84c-.15.15-.15.4,0,.56.15.15.4.15.56,0,.15-.15.15-.4,0-.56-.15-.15-.4-.15-.56,0Z"/>
        <path class="cls-6" d="M174.46,303.44c-.15.15-.15.4,0,.56.15.15.4.15.56,0,.15-.15.15-.4,0-.56-.15-.15-.4-.15-.56,0Z"/>
        <path class="cls-6" d="M176.05,305.03c-.15.15-.15.4,0,.56.15.15.4.15.56,0,.15-.15.15-.4,0-.56-.15-.15-.4-.15-.56,0Z"/>
        <path class="cls-6" d="M177.65,306.62c-.15.15-.15.4,0,.56.15.15.4.15.56,0,.15-.15.15-.4,0-.56-.15-.15-.4-.15-.56,0Z"/>
        <path class="cls-6" d="M130.41,262.02c-.14.19-.27.41-.39.66.14.04.29.01.4-.1.15-.15.15-.4,0-.56,0,0,0,0,0,0Z"/>
        <path class="cls-6" d="M131.45,263.62c-.15.15-.15.4,0,.56.15.15.4.15.56,0,.15-.15.15-.4,0-.56-.15-.15-.4-.15-.56,0Z"/>
        <path class="cls-6" d="M133.04,265.21c-.15.15-.15.4,0,.56.15.15.4.15.56,0,.15-.15.15-.4,0-.56-.15-.15-.4-.15-.56,0Z"/>
        <path class="cls-6" d="M134.64,266.8c-.15.15-.15.4,0,.56.15.15.4.15.56,0,.15-.15.15-.4,0-.56-.15-.15-.4-.15-.56,0Z"/>
        <path class="cls-6" d="M136.23,268.39c-.15.15-.15.4,0,.56.15.15.4.15.56,0,.15-.15.15-.4,0-.56-.15-.15-.4-.15-.56,0Z"/>
        <path class="cls-6" d="M137.82,269.99c-.15.15-.15.4,0,.56.15.15.4.15.56,0,.15-.15.15-.4,0-.56s-.4-.15-.56,0Z"/>
        <path class="cls-6" d="M139.42,271.58c-.15.15-.15.4,0,.56.15.15.4.15.56,0,.15-.15.15-.4,0-.56-.15-.15-.4-.15-.56,0Z"/>
        <path class="cls-6" d="M141.01,273.17c-.15.15-.15.4,0,.56.15.15.4.15.56,0,.15-.15.15-.4,0-.56-.15-.15-.4-.15-.56,0Z"/>
        <path class="cls-6" d="M142.6,274.77c-.15.15-.15.4,0,.56.15.15.4.15.56,0,.15-.15.15-.4,0-.56s-.4-.15-.56,0Z"/>
        <path class="cls-6" d="M144.19,276.36c-.15.15-.15.4,0,.56.15.15.4.15.56,0,.15-.15.15-.4,0-.56-.15-.15-.4-.15-.56,0Z"/>
        <path class="cls-6" d="M145.79,277.95c-.15.15-.15.4,0,.56.15.15.4.15.56,0,.15-.15.15-.4,0-.56s-.4-.15-.56,0Z"/>
        <path class="cls-6" d="M147.38,279.54c-.15.15-.15.4,0,.56s.4.15.56,0c.15-.15.15-.4,0-.56-.15-.15-.4-.15-.56,0Z"/>
        <path class="cls-6" d="M148.97,281.14c-.15.15-.15.4,0,.56.15.15.4.15.56,0,.15-.15.15-.4,0-.56-.15-.15-.4-.15-.56,0Z"/>
        <path class="cls-6" d="M150.57,282.73c-.15.15-.15.4,0,.56.15.15.4.15.56,0,.15-.15.15-.4,0-.56s-.4-.15-.56,0Z"/>
        <path class="cls-6" d="M152.16,284.32c-.15.15-.15.4,0,.56.15.15.4.15.56,0,.15-.15.15-.4,0-.56-.15-.15-.4-.15-.56,0Z"/>
        <path class="cls-6" d="M153.75,285.92c-.15.15-.15.4,0,.56.15.15.4.15.56,0,.15-.15.15-.4,0-.56s-.4-.15-.56,0Z"/>
        <path class="cls-6" d="M155.35,287.51c-.15.15-.15.4,0,.56.15.15.4.15.56,0,.15-.15.15-.4,0-.56-.15-.15-.4-.15-.56,0Z"/>
        <path class="cls-6" d="M157.08,289.75c-.07-.18-.14-.37-.21-.56-.08.15-.06.34.06.47.04.04.09.07.14.09Z"/>
        <path class="cls-6" d="M160.12,292.29c-.15.15-.15.4,0,.56.15.15.4.15.56,0,.15-.15.15-.4,0-.56-.15-.15-.4-.15-.56,0Z"/>
        <path class="cls-6" d="M161.72,293.88c-.15.15-.15.4,0,.56.15.15.4.15.56,0,.15-.15.15-.4,0-.56-.15-.15-.4-.15-.56,0Z"/>
        <path class="cls-6" d="M163.31,295.47c-.15.15-.15.4,0,.56.15.15.4.15.56,0,.15-.15.15-.4,0-.56-.15-.15-.4-.15-.56,0Z"/>
        <path class="cls-6" d="M164.9,297.07c-.15.15-.15.4,0,.56.15.15.4.15.56,0,.15-.15.15-.4,0-.56-.15-.15-.4-.15-.56,0Z"/>
        <path class="cls-6" d="M166.5,298.66c-.15.15-.15.4,0,.56.15.15.4.15.56,0,.15-.15.15-.4,0-.56-.15-.15-.4-.15-.56,0Z"/>
        <path class="cls-6" d="M168.09,300.25c-.15.15-.15.4,0,.56.15.15.4.15.56,0,.15-.15.15-.4,0-.56-.15-.15-.4-.15-.56,0Z"/>
        <path class="cls-6" d="M169.68,301.84c-.15.15-.15.4,0,.56.15.15.4.15.56,0,.15-.15.15-.4,0-.56-.15-.15-.4-.15-.56,0Z"/>
        <path class="cls-6" d="M174.97,306.59l.15.38c.02-.12-.02-.25-.11-.34-.01-.01-.03-.02-.04-.04Z"/>
        <path class="cls-6" d="M129.86,265.21c-.15.15-.15.4,0,.56.15.15.4.15.56,0,.15-.15.15-.4,0-.56-.15-.15-.4-.15-.56,0Z"/>
        <path class="cls-6" d="M131.45,266.8c-.15.15-.15.4,0,.56.15.15.4.15.56,0,.15-.15.15-.4,0-.56-.15-.15-.4-.15-.56,0Z"/>
        <path class="cls-6" d="M133.04,268.39c-.15.15-.15.4,0,.56.15.15.4.15.56,0,.15-.15.15-.4,0-.56s-.4-.15-.56,0Z"/>
        <path class="cls-6" d="M134.64,269.99c-.15.15-.15.4,0,.56.15.15.4.15.56,0,.15-.15.15-.4,0-.56-.15-.15-.4-.15-.56,0Z"/>
        <path class="cls-6" d="M136.23,271.58c-.15.15-.15.4,0,.56.15.15.4.15.56,0s.15-.4,0-.56c-.15-.15-.4-.15-.56,0Z"/>
        <path class="cls-6" d="M137.82,273.17c-.15.15-.15.4,0,.56.15.15.4.15.56,0s.15-.4,0-.56c-.15-.15-.4-.15-.56,0Z"/>
        <path class="cls-6" d="M139.42,274.77c-.15.15-.15.4,0,.56.15.15.4.15.56,0,.15-.15.15-.4,0-.56-.15-.15-.4-.15-.56,0Z"/>
        <path class="cls-6" d="M141.01,276.36c-.15.15-.15.4,0,.56.15.15.4.15.56,0,.15-.15.15-.4,0-.56s-.4-.15-.56,0Z"/>
        <path class="cls-6" d="M142.6,277.95c-.15.15-.15.4,0,.56s.4.15.56,0c.15-.15.15-.4,0-.56-.15-.15-.4-.15-.56,0Z"/>
        <path class="cls-6" d="M144.19,279.54c-.15.15-.15.4,0,.56.15.15.4.15.56,0s.15-.4,0-.56c-.15-.15-.4-.15-.56,0Z"/>
        <path class="cls-6" d="M145.79,281.14c-.15.15-.15.4,0,.56.15.15.4.15.56,0s.15-.4,0-.56c-.15-.15-.4-.15-.56,0Z"/>
        <path class="cls-6" d="M147.38,282.73c-.15.15-.15.4,0,.56.15.15.4.15.56,0,.15-.15.15-.4,0-.56-.15-.15-.4-.15-.56,0Z"/>
        <path class="cls-6" d="M148.97,284.32c-.15.15-.15.4,0,.56.15.15.4.15.56,0,.15-.15.15-.4,0-.56s-.4-.15-.56,0Z"/>
        <path class="cls-6" d="M150.57,285.92c-.15.15-.15.4,0,.56s.4.15.56,0c.15-.15.15-.4,0-.56-.15-.15-.4-.15-.56,0Z"/>
        <path class="cls-6" d="M152.16,287.51c-.15.15-.15.4,0,.56.15.15.4.15.56,0,.15-.15.15-.4,0-.56-.15-.15-.4-.15-.56,0Z"/>
        <path class="cls-6" d="M153.75,289.1c-.15.15-.15.4,0,.56.15.15.4.15.56,0,.15-.15.15-.4,0-.56-.15-.15-.4-.15-.56,0Z"/>
        <path class="cls-6" d="M155.35,290.69c-.15.15-.15.4,0,.56.15.15.4.15.56,0,.15-.15.15-.4,0-.56-.15-.15-.4-.15-.56,0Z"/>
        <path class="cls-6" d="M156.94,292.29c-.15.15-.15.4,0,.56.15.15.4.15.56,0,.15-.15.15-.4,0-.56-.15-.15-.4-.15-.56,0Z"/>
        <path class="cls-6" d="M158.8,293.77c-.07.19-.11.3-.11.3,0,0-.03-.08-.09-.24-.02.02-.05.03-.07.05-.15.15-.15.4,0,.56.15.15.4.15.56,0s.15-.4,0-.56c-.08-.08-.18-.12-.29-.11Z"/>
        <path class="cls-6" d="M160.12,295.47c-.15.15-.15.4,0,.56.15.15.4.15.56,0,.15-.15.15-.4,0-.56-.15-.15-.4-.15-.56,0Z"/>
        <path class="cls-6" d="M161.72,297.07c-.15.15-.15.4,0,.56.15.15.4.15.56,0,.15-.15.15-.4,0-.56-.15-.15-.4-.15-.56,0Z"/>
        <path class="cls-6" d="M163.31,298.66c-.15.15-.15.4,0,.56.15.15.4.15.56,0,.15-.15.15-.4,0-.56-.15-.15-.4-.15-.56,0Z"/>
        <path class="cls-6" d="M164.9,300.25c-.15.15-.15.4,0,.56.15.15.4.15.56,0,.15-.15.15-.4,0-.56s-.4-.15-.56,0Z"/>
        <path class="cls-6" d="M166.5,301.84c-.09.09-.12.21-.11.32l.76.08c.04-.14.01-.29-.09-.4-.15-.15-.4-.15-.56,0Z"/>
        <path class="cls-6" d="M128.93,266.98c-.02.1-.04.21-.06.32.06-.09.08-.21.06-.32Z"/>
        <path class="cls-6" d="M129.86,268.39c-.15.15-.15.4,0,.56.15.15.4.15.56,0,.15-.15.15-.4,0-.56-.15-.15-.4-.15-.56,0Z"/>
        <path class="cls-6" d="M131.45,269.99c-.15.15-.15.4,0,.56.15.15.4.15.56,0,.15-.15.15-.4,0-.56-.15-.15-.4-.15-.56,0Z"/>
        <path class="cls-6" d="M133.04,271.58c-.15.15-.15.4,0,.56.15.15.4.15.56,0,.15-.15.15-.4,0-.56-.15-.15-.4-.15-.56,0Z"/>
        <path class="cls-6" d="M134.64,273.17c-.15.15-.15.4,0,.56.15.15.4.15.56,0,.15-.15.15-.4,0-.56-.15-.15-.4-.15-.56,0Z"/>
        <path class="cls-6" d="M136.23,274.77c-.15.15-.15.4,0,.56.15.15.4.15.56,0,.15-.15.15-.4,0-.56s-.4-.15-.56,0Z"/>
        <path class="cls-6" d="M137.82,276.36c-.15.15-.15.4,0,.56.15.15.4.15.56,0,.15-.15.15-.4,0-.56-.15-.15-.4-.15-.56,0Z"/>
        <path class="cls-6" d="M139.42,277.95c-.15.15-.15.4,0,.56.15.15.4.15.56,0,.15-.15.15-.4,0-.56-.15-.15-.4-.15-.56,0Z"/>
        <path class="cls-6" d="M141.01,279.54c-.15.15-.15.4,0,.56.15.15.4.15.56,0,.15-.15.15-.4,0-.56-.15-.15-.4-.15-.56,0Z"/>
        <path class="cls-6" d="M142.6,281.14c-.15.15-.15.4,0,.56.15.15.4.15.56,0,.15-.15.15-.4,0-.56-.15-.15-.4-.15-.56,0Z"/>
        <path class="cls-6" d="M144.19,282.73c-.15.15-.15.4,0,.56.15.15.4.15.56,0,.15-.15.15-.4,0-.56s-.4-.15-.56,0Z"/>
        <path class="cls-6" d="M145.79,284.32c-.15.15-.15.4,0,.56.15.15.4.15.56,0,.15-.15.15-.4,0-.56-.15-.15-.4-.15-.56,0Z"/>
        <path class="cls-6" d="M147.38,285.92c-.15.15-.15.4,0,.56.15.15.4.15.56,0,.15-.15.15-.4,0-.56-.15-.15-.4-.15-.56,0Z"/>
        <path class="cls-6" d="M148.97,287.51c-.15.15-.15.4,0,.56.15.15.4.15.56,0,.15-.15.15-.4,0-.56-.15-.15-.4-.15-.56,0Z"/>
        <path class="cls-6" d="M150.57,289.1c-.15.15-.15.4,0,.56.15.15.4.15.56,0,.15-.15.15-.4,0-.56-.15-.15-.4-.15-.56,0Z"/>
        <path class="cls-6" d="M152.16,290.69c-.15.15-.15.4,0,.56.15.15.4.15.56,0,.15-.15.15-.4,0-.56-.15-.15-.4-.15-.56,0Z"/>
        <path class="cls-6" d="M153.75,292.29c-.15.15-.15.4,0,.56.15.15.4.15.56,0,.15-.15.15-.4,0-.56-.15-.15-.4-.15-.56,0Z"/>
        <path class="cls-6" d="M155.35,293.88c-.15.15-.15.4,0,.56.15.15.4.15.56,0,.15-.15.15-.4,0-.56-.15-.15-.4-.15-.56,0Z"/>
        <path class="cls-6" d="M156.94,295.47c-.15.15-.15.4,0,.56.15.15.4.15.56,0,.15-.15.15-.4,0-.56-.15-.15-.4-.15-.56,0Z"/>
        <path class="cls-6" d="M158.53,297.07c-.15.15-.15.4,0,.56.15.15.4.15.56,0,.15-.15.15-.4,0-.56-.15-.15-.4-.15-.56,0Z"/>
        <path class="cls-6" d="M160.12,298.66c-.15.15-.15.4,0,.56.15.15.4.15.56,0,.15-.15.15-.4,0-.56-.15-.15-.4-.15-.56,0Z"/>
        <path class="cls-6" d="M161.72,300.25c-.15.15-.15.4,0,.56.15.15.4.15.56,0,.15-.15.15-.4,0-.56-.15-.15-.4-.15-.56,0Z"/>
        <path class="cls-6" d="M163.31,301.84s0,0,0,0l.61.06s-.03-.04-.05-.06c-.15-.15-.4-.15-.56,0Z"/>
        <path class="cls-6" d="M128.45,269.88c-.04.24-.07.47-.11.72.15.09.35.08.48-.06.15-.15.15-.4,0-.56-.1-.1-.24-.13-.37-.1Z"/>
        <path class="cls-6" d="M129.86,271.58c-.15.15-.15.4,0,.56s.4.15.56,0c.15-.15.15-.4,0-.56-.15-.15-.4-.15-.56,0Z"/>
        <path class="cls-6" d="M131.45,273.17c-.15.15-.15.4,0,.56.15.15.4.15.56,0,.15-.15.15-.4,0-.56-.15-.15-.4-.15-.56,0Z"/>
        <path class="cls-6" d="M133.04,274.77c-.15.15-.15.4,0,.56.15.15.4.15.56,0,.15-.15.15-.4,0-.56-.15-.15-.4-.15-.56,0Z"/>
        <path class="cls-6" d="M134.64,276.36c-.15.15-.15.4,0,.56.15.15.4.15.56,0,.15-.15.15-.4,0-.56-.15-.15-.4-.15-.56,0Z"/>
        <path class="cls-6" d="M136.23,277.95c-.15.15-.15.4,0,.56.15.15.4.15.56,0,.15-.15.15-.4,0-.56-.15-.15-.4-.15-.56,0Z"/>
        <path class="cls-6" d="M137.82,279.54c-.15.15-.15.4,0,.56s.4.15.56,0c.15-.15.15-.4,0-.56-.15-.15-.4-.15-.56,0Z"/>
        <path class="cls-6" d="M139.42,281.14c-.15.15-.15.4,0,.56.15.15.4.15.56,0,.15-.15.15-.4,0-.56-.15-.15-.4-.15-.56,0Z"/>
        <path class="cls-6" d="M141.01,282.73c-.15.15-.15.4,0,.56.15.15.4.15.56,0,.15-.15.15-.4,0-.56-.15-.15-.4-.15-.56,0Z"/>
        <path class="cls-6" d="M142.6,284.32c-.15.15-.15.4,0,.56.15.15.4.15.56,0,.15-.15.15-.4,0-.56-.15-.15-.4-.15-.56,0Z"/>
        <path class="cls-6" d="M144.19,285.92c-.15.15-.15.4,0,.56.15.15.4.15.56,0,.15-.15.15-.4,0-.56-.15-.15-.4-.15-.56,0Z"/>
        <path class="cls-6" d="M145.79,287.51c-.15.15-.15.4,0,.56s.4.15.56,0c.15-.15.15-.4,0-.56-.15-.15-.4-.15-.56,0Z"/>
        <path class="cls-6" d="M147.38,289.1c-.15.15-.15.4,0,.56.15.15.4.15.56,0,.15-.15.15-.4,0-.56-.15-.15-.4-.15-.56,0Z"/>
        <path class="cls-6" d="M148.97,290.69c-.15.15-.15.4,0,.56.15.15.4.15.56,0,.15-.15.15-.4,0-.56-.15-.15-.4-.15-.56,0Z"/>
        <path class="cls-6" d="M150.57,292.29c-.15.15-.15.4,0,.56.15.15.4.15.56,0,.15-.15.15-.4,0-.56-.15-.15-.4-.15-.56,0Z"/>
        <path class="cls-6" d="M152.16,293.88c-.15.15-.15.4,0,.56.15.15.4.15.56,0,.15-.15.15-.4,0-.56-.15-.15-.4-.15-.56,0Z"/>
        <path class="cls-6" d="M153.75,295.47c-.15.15-.15.4,0,.56.15.15.4.15.56,0,.15-.15.15-.4,0-.56-.15-.15-.4-.15-.56,0Z"/>
        <path class="cls-6" d="M155.35,297.07c-.15.15-.15.4,0,.56.15.15.4.15.56,0,.15-.15.15-.4,0-.56-.15-.15-.4-.15-.56,0Z"/>
        <path class="cls-6" d="M156.94,298.66c-.15.15-.15.4,0,.56.15.15.4.15.56,0,.15-.15.15-.4,0-.56-.15-.15-.4-.15-.56,0Z"/>
        <path class="cls-6" d="M158.53,300.25c-.15.15-.15.4,0,.56.15.15.4.15.56,0,.15-.15.15-.4,0-.56-.15-.15-.4-.15-.56,0Z"/>
        <path class="cls-6" d="M128.27,273.17c-.15.15-.15.4,0,.56s.4.15.56,0c.15-.15.15-.4,0-.56-.15-.15-.4-.15-.56,0Z"/>
        <path class="cls-6" d="M129.86,274.77c-.15.15-.15.4,0,.56.15.15.4.15.56,0,.15-.15.15-.4,0-.56-.15-.15-.4-.15-.56,0Z"/>
        <path class="cls-6" d="M131.45,276.36c-.15.15-.15.4,0,.56.15.15.4.15.56,0,.15-.15.15-.4,0-.56-.15-.15-.4-.15-.56,0Z"/>
        <path class="cls-6" d="M133.04,277.95c-.15.15-.15.4,0,.56s.4.15.56,0,.15-.4,0-.56c-.15-.15-.4-.15-.56,0Z"/>
        <path class="cls-6" d="M134.64,279.54c-.15.15-.15.4,0,.56.15.15.4.15.56,0,.15-.15.15-.4,0-.56-.15-.15-.4-.15-.56,0Z"/>
        <path class="cls-6" d="M136.23,281.14c-.15.15-.15.4,0,.56.15.15.4.15.56,0,.15-.15.15-.4,0-.56-.15-.15-.4-.15-.56,0Z"/>
        <path class="cls-6" d="M137.82,282.73c-.15.15-.15.4,0,.56.15.15.4.15.56,0,.15-.15.15-.4,0-.56-.15-.15-.4-.15-.56,0Z"/>
        <path class="cls-6" d="M139.42,284.32c-.15.15-.15.4,0,.56.15.15.4.15.56,0,.15-.15.15-.4,0-.56-.15-.15-.4-.15-.56,0Z"/>
        <path class="cls-6" d="M141.01,285.92c-.15.15-.15.4,0,.56s.4.15.56,0,.15-.4,0-.56c-.15-.15-.4-.15-.56,0Z"/>
        <path class="cls-6" d="M142.6,287.51c-.15.15-.15.4,0,.56.15.15.4.15.56,0s.15-.4,0-.56c-.15-.15-.4-.15-.56,0Z"/>
        <path class="cls-6" d="M144.19,289.1c-.15.15-.15.4,0,.56.15.15.4.15.56,0,.15-.15.15-.4,0-.56-.15-.15-.4-.15-.56,0Z"/>
        <path class="cls-6" d="M145.79,290.69c-.15.15-.15.4,0,.56.15.15.4.15.56,0,.15-.15.15-.4,0-.56-.15-.15-.4-.15-.56,0Z"/>
        <path class="cls-6" d="M147.38,292.29c-.15.15-.15.4,0,.56.15.15.4.15.56,0,.15-.15.15-.4,0-.56-.15-.15-.4-.15-.56,0Z"/>
        <path class="cls-6" d="M148.97,293.88c-.15.15-.15.4,0,.56.15.15.4.15.56,0,.15-.15.15-.4,0-.56-.15-.15-.4-.15-.56,0Z"/>
        <path class="cls-6" d="M150.57,295.47c-.15.15-.15.4,0,.56.15.15.4.15.56,0,.15-.15.15-.4,0-.56-.15-.15-.4-.15-.56,0Z"/>
        <path class="cls-6" d="M152.16,297.07c-.15.15-.15.4,0,.56.15.15.4.15.56,0,.15-.15.15-.4,0-.56-.15-.15-.4-.15-.56,0Z"/>
        <path class="cls-6" d="M153.75,298.66c-.15.15-.15.4,0,.56.15.15.4.15.56,0,.15-.15.15-.4,0-.56-.15-.15-.4-.15-.56,0Z"/>
        <path class="cls-6" d="M155.35,300.25c-.15.15-.15.4,0,.56.15.15.4.15.56,0,.15-.15.15-.4,0-.56-.15-.15-.4-.15-.56,0Z"/>
        <path class="cls-6" d="M128.27,276.36c-.15.15-.15.4,0,.56.15.15.4.15.56,0,.15-.15.15-.4,0-.56-.15-.15-.4-.15-.56,0Z"/>
        <path class="cls-6" d="M129.86,277.95c-.15.15-.15.4,0,.56.15.15.4.15.56,0,.15-.15.15-.4,0-.56-.15-.15-.4-.15-.56,0Z"/>
        <path class="cls-6" d="M131.45,279.54c-.15.15-.15.4,0,.56.15.15.4.15.56,0,.15-.15.15-.4,0-.56-.15-.15-.4-.15-.56,0Z"/>
        <path class="cls-6" d="M133.04,281.14c-.15.15-.15.4,0,.56.15.15.4.15.56,0,.15-.15.15-.4,0-.56-.15-.15-.4-.15-.56,0Z"/>
        <path class="cls-6" d="M134.64,282.73c-.15.15-.15.4,0,.56.15.15.4.15.56,0,.15-.15.15-.4,0-.56-.15-.15-.4-.15-.56,0Z"/>
        <path class="cls-6" d="M136.23,284.32c-.15.15-.15.4,0,.56.15.15.4.15.56,0,.15-.15.15-.4,0-.56-.15-.15-.4-.15-.56,0Z"/>
        <path class="cls-6" d="M137.82,285.92c-.15.15-.15.4,0,.56.15.15.4.15.56,0,.15-.15.15-.4,0-.56s-.4-.15-.56,0Z"/>
        <path class="cls-6" d="M139.42,287.51c-.15.15-.15.4,0,.56.15.15.4.15.56,0,.15-.15.15-.4,0-.56-.15-.15-.4-.15-.56,0Z"/>
        <path class="cls-6" d="M141.01,289.1c-.15.15-.15.4,0,.56.15.15.4.15.56,0,.15-.15.15-.4,0-.56s-.4-.15-.56,0Z"/>
        <path class="cls-6" d="M142.6,290.69c-.15.15-.15.4,0,.56.15.15.4.15.56,0,.15-.15.15-.4,0-.56s-.4-.15-.56,0Z"/>
        <path class="cls-6" d="M144.19,292.29c-.15.15-.15.4,0,.56.15.15.4.15.56,0,.15-.15.15-.4,0-.56-.15-.15-.4-.15-.56,0Z"/>
        <path class="cls-6" d="M145.79,293.88c-.15.15-.15.4,0,.56s.4.15.56,0c.15-.15.15-.4,0-.56-.15-.15-.4-.15-.56,0Z"/>
        <path class="cls-6" d="M147.38,295.47c-.15.15-.15.4,0,.56.15.15.4.15.56,0,.15-.15.15-.4,0-.56-.15-.15-.4-.15-.56,0Z"/>
        <path class="cls-6" d="M148.97,297.07c-.15.15-.15.4,0,.56.15.15.4.15.56,0,.15-.15.15-.4,0-.56-.15-.15-.4-.15-.56,0Z"/>
        <path class="cls-6" d="M150.57,298.66c-.15.15-.15.4,0,.56.15.15.4.15.56,0,.15-.15.15-.4,0-.56-.15-.15-.4-.15-.56,0Z"/>
        <path class="cls-6" d="M152.16,300.25c-.11.11-.14.28-.09.42l.7.07c.1-.15.08-.36-.05-.5-.15-.15-.4-.15-.56,0Z"/>
        <path class="cls-6" d="M127.25,277.98c-.03.19-.06.39-.09.59.02-.02.05-.03.07-.05.15-.15.15-.38.02-.53Z"/>
        <path class="cls-6" d="M128.27,279.54c-.15.15-.15.4,0,.56.15.15.4.15.56,0s.15-.4,0-.56c-.15-.15-.4-.15-.56,0Z"/>
        <path class="cls-6" d="M129.86,281.14c-.15.15-.15.4,0,.56.15.15.4.15.56,0,.15-.15.15-.4,0-.56-.15-.15-.4-.15-.56,0Z"/>
        <path class="cls-6" d="M131.45,282.73c-.15.15-.15.4,0,.56.15.15.4.15.56,0,.15-.15.15-.4,0-.56-.15-.15-.4-.15-.56,0Z"/>
        <path class="cls-6" d="M133.04,284.32c-.15.15-.15.4,0,.56.15.15.4.15.56,0,.15-.15.15-.4,0-.56s-.4-.15-.56,0Z"/>
        <path class="cls-6" d="M134.64,285.92c-.15.15-.15.4,0,.56.15.15.4.15.56,0,.15-.15.15-.4,0-.56-.15-.15-.4-.15-.56,0Z"/>
        <path class="cls-6" d="M136.23,287.51c-.15.15-.15.4,0,.56.15.15.4.15.56,0s.15-.4,0-.56c-.15-.15-.4-.15-.56,0Z"/>
        <path class="cls-6" d="M137.82,289.1c-.15.15-.15.4,0,.56.15.15.4.15.56,0,.15-.15.15-.4,0-.56-.15-.15-.4-.15-.56,0Z"/>
        <path class="cls-6" d="M139.42,290.69c-.15.15-.15.4,0,.56.15.15.4.15.56,0,.15-.15.15-.4,0-.56-.15-.15-.4-.15-.56,0Z"/>
        <path class="cls-6" d="M141.01,292.29c-.15.15-.15.4,0,.56.15.15.4.15.56,0,.15-.15.15-.4,0-.56-.15-.15-.4-.15-.56,0Z"/>
        <path class="cls-6" d="M142.6,293.88c-.15.15-.15.4,0,.56.15.15.4.15.56,0s.15-.4,0-.56c-.15-.15-.4-.15-.56,0Z"/>
        <path class="cls-6" d="M144.19,295.47c-.15.15-.15.4,0,.56.15.15.4.15.56,0,.15-.15.15-.4,0-.56-.15-.15-.4-.15-.56,0Z"/>
        <path class="cls-6" d="M145.79,297.07c-.15.15-.15.4,0,.56.15.15.4.15.56,0,.15-.15.15-.4,0-.56-.15-.15-.4-.15-.56,0Z"/>
        <path class="cls-6" d="M147.38,298.66c-.15.15-.15.4,0,.56.15.15.4.15.56,0,.15-.15.15-.4,0-.56-.15-.15-.4-.15-.56,0Z"/>
        <path class="cls-6" d="M148.97,300.25s-.05.06-.07.09l.72.08c-.02-.06-.05-.12-.1-.17-.15-.15-.4-.15-.56,0Z"/>
        <path class="cls-6" d="M126.78,281.06c-.03.21-.07.43-.1.64.15.15.4.15.55,0,.15-.15.15-.4,0-.56-.12-.12-.3-.15-.45-.07Z"/>
        <path class="cls-6" d="M128.27,282.73c-.15.15-.15.4,0,.56.15.15.4.15.56,0,.15-.15.15-.4,0-.56s-.4-.15-.56,0Z"/>
        <path class="cls-6" d="M129.86,284.32c-.15.15-.15.4,0,.56.15.15.4.15.56,0,.15-.15.15-.4,0-.56-.15-.15-.4-.15-.56,0Z"/>
        <path class="cls-6" d="M131.45,285.92c-.15.15-.15.4,0,.56.15.15.4.15.56,0,.15-.15.15-.4,0-.56-.15-.15-.4-.15-.56,0Z"/>
        <path class="cls-6" d="M133.04,287.51c-.15.15-.15.4,0,.56.15.15.4.15.56,0,.15-.15.15-.4,0-.56-.15-.15-.4-.15-.56,0Z"/>
        <path class="cls-6" d="M134.64,289.1c-.15.15-.15.4,0,.56.15.15.4.15.56,0,.15-.15.15-.4,0-.56-.15-.15-.4-.15-.56,0Z"/>
        <path class="cls-6" d="M136.23,290.69c-.15.15-.15.4,0,.56.15.15.4.15.56,0,.15-.15.15-.4,0-.56s-.4-.15-.56,0Z"/>
        <path class="cls-6" d="M137.82,292.29c-.15.15-.15.4,0,.56.15.15.4.15.56,0,.15-.15.15-.4,0-.56-.15-.15-.4-.15-.56,0Z"/>
        <path class="cls-6" d="M139.42,293.88c-.15.15-.15.4,0,.56.15.15.4.15.56,0,.15-.15.15-.4,0-.56-.15-.15-.4-.15-.56,0Z"/>
        <path class="cls-6" d="M141.01,295.47c-.15.15-.15.4,0,.56.15.15.4.15.56,0,.15-.15.15-.4,0-.56-.15-.15-.4-.15-.56,0Z"/>
        <path class="cls-6" d="M142.6,297.07c-.15.15-.15.4,0,.56.15.15.4.15.56,0,.15-.15.15-.4,0-.56-.15-.15-.4-.15-.56,0Z"/>
        <path class="cls-6" d="M144.19,298.66c-.15.15-.15.4,0,.56.15.15.4.15.56,0,.15-.15.15-.4,0-.56-.15-.15-.4-.15-.56,0Z"/>
        <path class="cls-6" d="M126.67,284.32c-.15.15-.15.4,0,.56.15.15.4.15.56,0,.15-.15.15-.4,0-.56-.15-.15-.4-.15-.56,0Z"/>
        <path class="cls-6" d="M128.27,285.92c-.15.15-.15.4,0,.56.15.15.4.15.56,0,.15-.15.15-.4,0-.56-.15-.15-.4-.15-.56,0Z"/>
        <path class="cls-6" d="M129.86,287.51c-.15.15-.15.4,0,.56s.4.15.56,0c.15-.15.15-.4,0-.56-.15-.15-.4-.15-.56,0Z"/>
        <path class="cls-6" d="M131.45,289.1c-.15.15-.15.4,0,.56.15.15.4.15.56,0,.15-.15.15-.4,0-.56-.15-.15-.4-.15-.56,0Z"/>
        <path class="cls-6" d="M133.04,290.69c-.15.15-.15.4,0,.56.15.15.4.15.56,0,.15-.15.15-.4,0-.56-.15-.15-.4-.15-.56,0Z"/>
        <path class="cls-6" d="M134.64,292.29c-.15.15-.15.4,0,.56.15.15.4.15.56,0,.15-.15.15-.4,0-.56-.15-.15-.4-.15-.56,0Z"/>
        <path class="cls-6" d="M136.23,293.88c-.15.15-.15.4,0,.56.15.15.4.15.56,0s.15-.4,0-.56c-.15-.15-.4-.15-.56,0Z"/>
        <path class="cls-6" d="M137.82,295.47c-.15.15-.15.4,0,.56.15.15.4.15.56,0,.15-.15.15-.4,0-.56-.15-.15-.4-.15-.56,0Z"/>
        <path class="cls-6" d="M139.42,297.07c-.15.15-.15.4,0,.56.15.15.4.15.56,0,.15-.15.15-.4,0-.56-.15-.15-.4-.15-.56,0Z"/>
        <path class="cls-6" d="M141.01,298.66c-.15.15-.15.4,0,.56.15.15.4.15.56,0,.15-.15.15-.4,0-.56-.15-.15-.4-.15-.56,0Z"/>
        <path class="cls-6" d="M126.67,287.51c-.15.15-.15.4,0,.56.15.15.4.15.56,0,.15-.15.15-.4,0-.56-.15-.15-.4-.15-.56,0Z"/>
        <path class="cls-6" d="M128.27,289.1c-.15.15-.15.4,0,.56.15.15.4.15.56,0,.15-.15.15-.4,0-.56-.15-.15-.4-.15-.56,0Z"/>
        <path class="cls-6" d="M129.86,290.69c-.15.15-.15.4,0,.56.15.15.4.15.56,0,.15-.15.15-.4,0-.56-.15-.15-.4-.15-.56,0Z"/>
        <path class="cls-6" d="M131.45,292.29c-.15.15-.15.4,0,.56.15.15.4.15.56,0,.15-.15.15-.4,0-.56-.15-.15-.4-.15-.56,0Z"/>
        <path class="cls-6" d="M133.04,293.88c-.15.15-.15.4,0,.56.15.15.4.15.56,0,.15-.15.15-.4,0-.56-.15-.15-.4-.15-.56,0Z"/>
        <path class="cls-6" d="M134.64,295.47c-.15.15-.15.4,0,.56.15.15.4.15.56,0,.15-.15.15-.4,0-.56-.15-.15-.4-.15-.56,0Z"/>
        <path class="cls-6" d="M136.23,297.07c-.15.15-.15.4,0,.56.15.15.4.15.56,0,.15-.15.15-.4,0-.56-.15-.15-.4-.15-.56,0Z"/>
        <path class="cls-6" d="M137.82,298.66c-.15.15-.15.37-.02.53l.55.06s.02-.02.03-.03c.15-.15.15-.4,0-.56-.15-.15-.4-.15-.56,0Z"/>
        <path class="cls-6" d="M125.52,289.02c-.04.25-.08.5-.12.75.09,0,.17-.05.24-.11.15-.15.15-.4,0-.56-.03-.03-.07-.06-.12-.08Z"/>
        <path class="cls-6" d="M126.67,290.69c-.15.15-.15.4,0,.56.15.15.4.15.56,0,.15-.15.15-.4,0-.56-.15-.15-.4-.15-.56,0Z"/>
        <path class="cls-6" d="M128.27,292.29c-.15.15-.15.4,0,.56.15.15.4.15.56,0,.15-.15.15-.4,0-.56-.15-.15-.4-.15-.56,0Z"/>
        <path class="cls-6" d="M129.86,293.88c-.15.15-.15.4,0,.56s.4.15.56,0c.15-.15.15-.4,0-.56-.15-.15-.4-.15-.56,0Z"/>
        <path class="cls-6" d="M131.45,295.47c-.15.15-.15.4,0,.56.15.15.4.15.56,0,.15-.15.15-.4,0-.56-.15-.15-.4-.15-.56,0Z"/>
        <path class="cls-6" d="M133.04,297.07c-.15.15-.15.4,0,.56.15.15.4.15.56,0,.15-.15.15-.4,0-.56-.15-.15-.4-.15-.56,0Z"/>
        <path class="cls-6" d="M134.64,298.66c-.05.05-.09.12-.1.19l.78.08c0-.1-.04-.19-.11-.27-.15-.15-.4-.15-.56,0Z"/>
        <path class="cls-6" d="M125.08,292.29c-.15.15-.15.4,0,.56.15.15.4.15.56,0,.15-.15.15-.4,0-.56-.15-.15-.4-.15-.56,0Z"/>
        <path class="cls-6" d="M126.67,293.88c-.15.15-.15.4,0,.56.15.15.4.15.56,0,.15-.15.15-.4,0-.56-.15-.15-.4-.15-.56,0Z"/>
        <path class="cls-6" d="M128.27,295.47c-.15.15-.15.4,0,.56.15.15.4.15.56,0,.15-.15.15-.4,0-.56-.15-.15-.4-.15-.56,0Z"/>
        <path class="cls-6" d="M129.86,297.07c-.15.15-.15.4,0,.56.15.15.4.15.56,0,.15-.15.15-.4,0-.56-.15-.15-.4-.15-.56,0Z"/>
        <path class="cls-6" d="M131.45,298.66s-.08.1-.1.16h.75c-.02-.07-.05-.12-.09-.16-.15-.15-.4-.15-.56,0Z"/>
        <path class="cls-6" d="M125.08,295.47c-.15.15-.15.4,0,.56.15.15.4.15.56,0,.15-.15.15-.4,0-.56-.15-.15-.4-.15-.56,0Z"/>
        <path class="cls-6" d="M126.67,297.07c-.15.15-.15.4,0,.56.15.15.4.15.56,0,.15-.15.15-.4,0-.56-.15-.15-.4-.15-.56,0Z"/>
        <path class="cls-6" d="M128.27,298.66c-.06.06-.09.13-.11.21h.77c-.02-.08-.05-.15-.11-.21-.15-.15-.4-.15-.56,0Z"/>
        <path class="cls-6" d="M125.08,298.66c-.07.07-.11.16-.11.25h.78c0-.1-.04-.18-.11-.25-.15-.15-.4-.15-.56,0Z"/>
      </g>
      <path class="cls-1" d="M142.59,271.33c-.23,0-.45-.12-.56-.33-1.18-2.13-1.88-3.42-1.88-3.44-.12-.23-.1-.5.06-.7l2.47-3.12-2.15-2.33c-.2-.22-.23-.55-.06-.8l1.21-1.75c.2-.29.6-.36.89-.16.29.2.36.6.16.89l-.92,1.33,2.17,2.35c.21.23.23.58.03.83l-2.54,3.22c.29.53.87,1.59,1.68,3.06.17.31.06.7-.25.87-.1.05-.2.08-.31.08Z"/>
      <g>
        <g>
          <g>
            <path class="cls-4" d="M170.86,230.82v-6.21c0-1.79-.45-3.56-1.31-5.13-1.65-3-4.98-7.2-10.71-7.23h-.1c-5.74.02-9.07,4.23-10.71,7.23-.86,1.57-1.31,3.33-1.31,5.13v6.21c-1.34-.51-3.59-.18-3.53,3.74.06,3.47,2.57,5.33,4.11,5.52.15.66.35,1.31.59,1.89,1.6,3.62,5.93,7.52,9.41,8.46,0,0,.62.16,1.48.16s1.48-.16,1.48-.16c3.49-.95,7.82-4.84,9.41-8.46.25-.58.44-1.22.59-1.89,1.54-.19,4.06-2.05,4.11-5.52.06-3.92-2.19-4.24-3.53-3.74Z"/>
            <path class="cls-1" d="M158.78,251.23c-.93,0-1.62-.18-1.65-.19-3.66-.99-8.17-5.03-9.84-8.83-.2-.47-.38-1-.53-1.6-1.82-.48-4.17-2.55-4.23-6.06-.03-1.97.48-3.33,1.51-4.06.57-.4,1.29-.57,2.02-.49v-5.4c0-1.9.48-3.78,1.39-5.44,1.54-2.81,5.06-7.53,11.27-7.56.02,0,.04,0,.05,0,.02,0,.04,0,.05,0,6.21.03,9.73,4.75,11.27,7.56.91,1.65,1.39,3.53,1.39,5.44v5.4c.73-.08,1.45.09,2.02.49,1.04.73,1.54,2.09,1.51,4.06-.06,3.51-2.41,5.57-4.23,6.06-.15.59-.33,1.12-.53,1.59-1.67,3.8-6.18,7.84-9.84,8.83-.03,0-.72.19-1.65.19ZM145.71,231.28c-.29,0-.62.07-.92.28-.66.46-.99,1.5-.97,2.99.05,3.15,2.34,4.74,3.55,4.89.27.03.48.23.55.49.16.68.35,1.28.56,1.78,1.51,3.42,5.71,7.21,8.99,8.1,0,0,.56.14,1.31.14s1.31-.14,1.32-.14c3.28-.89,7.48-4.68,8.99-8.1.21-.49.4-1.09.56-1.77.06-.26.28-.46.55-.49,1.21-.15,3.5-1.74,3.55-4.89.02-1.5-.31-2.53-.97-2.99-.67-.47-1.47-.22-1.69-.14-.2.07-.42.05-.59-.07-.17-.12-.28-.32-.28-.53v-6.21c0-1.69-.43-3.35-1.23-4.82-1.72-3.13-4.88-6.87-10.15-6.89-.02,0-.03,0-.05,0-.02,0-.03,0-.05,0-5.28.02-8.43,3.76-10.15,6.89-.81,1.47-1.23,3.13-1.23,4.82v6.21c0,.21-.1.41-.28.53-.17.12-.39.15-.59.07-.12-.05-.42-.14-.77-.14Z"/>
          </g>
          <path class="cls-2" d="M166.62,212.45c-4.27-1.46-4.87-2.27-8.56-2.27-3.17,0-6.25,1.54-5.71,4.16-.35-.01-4.89-2.25-8.34,3.87-1.33,2.91-1.14,4.58-.89,5.94,0,0,.44,3.13.5,3.46.51,2.7.51,5.46.51,5.46h1.45s1.13-2.24,1.13-2.24c0,0,.24-2.88.75-3.48,1.3-1.56-.01-8.14,3.85-8.14h14.2c4.39-.01,2.62,6.71,4.06,8.14.52.51,1.29,3.48,1.29,3.48l1.17,1.76,1.13-.03s.31-2.46.33-3.71c.02-1.25-.23-1.34.47-3.22.61-1.44,1.15-2.83-.03-5.38-1.68-4.98-3.89-6.61-7.31-7.78Z"/>
          <path class="cls-1" d="M174.53,220c-1.76-5.21-4.16-6.94-7.7-8.15-1.19-.41-2.07-.76-2.85-1.07-2.03-.8-3.14-1.24-5.91-1.24-2.42,0-4.58.82-5.66,2.13-.44.54-.7,1.16-.75,1.82-4.16-.96-6.75,1.83-8.21,4.4,0,.02-.02.03-.02.05-1.38,3.01-1.22,4.77-.94,6.3.05.38.44,3.15.51,3.48.49,2.6.5,5.32.5,5.35,0,.17.07.33.19.45.12.12.28.19.45.19h1.45c.24,0,.46-.14.57-.36l1.13-2.24c.04-.07.06-.15.07-.23.12-1.4.4-2.87.6-3.13.58-.69.72-1.91.89-3.32.31-2.68.67-4.58,2.47-4.58h.94c.35,0,.64-.29.64-.64s-.29-.64-.64-.64h-.94c-3.08,0-3.46,3.3-3.74,5.72-.13,1.11-.26,2.25-.59,2.65-.55.66-.8,2.73-.89,3.72l-.89,1.78h-.43c-.03-.99-.14-2.97-.51-4.94-.04-.23-.32-2.17-.5-3.43,0,0,0-.02,0-.03-.24-1.34-.38-2.87.84-5.53,1.86-3.28,4.29-4.51,7.23-3.65.14.47.48,1.22,1.3,2.06.13.13.29.19.46.19s.33-.06.45-.18c.25-.25.26-.65,0-.91-.92-.94-1.03-1.68-1.03-1.73,0,0,0,0,0,0,0-.02,0-.05-.01-.07-.13-.65,0-1.22.42-1.73.82-1.01,2.65-1.66,4.66-1.66,2.53,0,3.5.39,5.44,1.15.76.3,1.7.67,2.91,1.09,3.24,1.11,5.3,2.62,6.91,7.38,0,.02.02.04.03.06,1.08,2.35.57,3.57.02,4.86,0,0,0,.02-.01.03-.55,1.49-.56,1.96-.52,2.74,0,.21.02.42.01.69-.01.85-.17,2.31-.26,3.1h-.22s-.92-1.37-.92-1.37c-.26-1-.88-3.12-1.44-3.67-.34-.34-.45-1.52-.55-2.57-.11-1.21-.24-2.59-.73-3.68-.09-.21-.2-.4-.31-.57.32.09.64.19.97.28.34.1.69-.1.79-.44.1-.34-.1-.69-.44-.79-2.12-.59-4.18-1.25-5.92-1.83-.04-.02-.08-.04-.13-.05-.02,0-.05-.01-.07-.02-1.69-.57-3.05-1.06-3.81-1.34-1.31-.49-2.8-.36-3.79.33-.77.54-1.18,1.35-1.18,2.35,0,.45.24,1.4,1.13,2.1.12.09.26.14.4.14.19,0,.38-.08.5-.24.22-.28.17-.68-.11-.9-.61-.48-.64-1.08-.64-1.09,0-.57.21-1.01.63-1.3.63-.44,1.71-.52,2.61-.18.05.02.1.04.16.06-.87.19-1.58.51-1.98.89-.25.25-.26.65-.01.91.13.13.29.19.46.19s.32-.06.45-.18c.48-.47,2.6-1.05,4.82-.5.52.17,1.07.36,1.64.54-.02.07-.04.14-.04.22,0,.35.29.64.64.64,2.1,0,2.42,1.82,2.68,4.6.13,1.45.25,2.7.93,3.36.25.27.78,1.87,1.13,3.19.02.07.05.13.09.19l1.17,1.76c.12.18.33.29.55.29l1.13-.03c.32,0,.58-.25.62-.56.01-.1.32-2.51.33-3.78,0-.32,0-.56-.02-.77-.03-.61-.04-.92.44-2.23.6-1.41,1.27-3.02-.03-5.85Z"/>
          <g>
            <path class="cls-4" d="M170.86,230.82l-.04,2.32-.17,4.34-.38,2.6c1.54-.19,4.06-2.05,4.11-5.52.06-3.92-2.19-4.24-3.53-3.74Z"/>
            <path class="cls-1" d="M170.28,240.72c-.17,0-.34-.07-.46-.19-.14-.14-.21-.34-.18-.54l.38-2.6c.05-.35.38-.59.73-.54.35.05.59.38.54.73l-.23,1.6c1.2-.6,2.65-2.11,2.69-4.61.02-1.5-.31-2.53-.97-2.99-.44-.31-.94-.31-1.29-.25l-.03,1.84c0,.35-.3.64-.65.63-.35,0-.64-.3-.63-.65l.04-2.32c0-.26.17-.5.41-.59,1.01-.38,2.09-.28,2.89.29,1.04.73,1.54,2.09,1.51,4.06-.06,3.8-2.83,5.91-4.67,6.14-.03,0-.05,0-.08,0Z"/>
          </g>
          <g>
            <path class="cls-4" d="M146.75,233.14l-.04-2.32c-1.34-.51-3.59-.18-3.53,3.74.06,3.47,2.57,5.33,4.11,5.52l-.38-2.6-.17-4.34Z"/>
            <path class="cls-1" d="M147.29,240.72s-.05,0-.08,0c-1.85-.23-4.61-2.34-4.67-6.14-.03-1.97.48-3.33,1.51-4.06.8-.56,1.88-.67,2.89-.29.25.09.41.33.41.59l.04,2.32c0,.35-.28.65-.63.65-.35,0-.65-.28-.65-.63l-.03-1.84c-.35-.06-.85-.06-1.29.25-.66.46-.99,1.5-.97,2.99.04,2.5,1.49,4.02,2.69,4.61l-.23-1.6c-.05-.35.19-.68.54-.73.35-.05.68.19.73.54l.38,2.6c.03.2-.04.4-.18.54-.12.12-.29.19-.46.19Z"/>
          </g>
        </g>
        <g>
          <path class="cls-1" d="M157.95,238.8c.11-.13.42.01.83.02.41,0,.72-.16.83-.02.12.14-.02.82-.83.84-.81-.02-.95-.7-.83-.84Z"/>
          <path class="cls-1" d="M157.77,245.61s-.1,0-.15-.02c-1.92-.61-2.98-2.53-3.02-2.61-.08-.15-.08-.34.01-.49.09-.15.25-.24.43-.24h7.49c.18,0,.34.09.43.24.09.15.09.34.01.49-.04.08-1.03,1.88-2.84,2.55-.26.1-.55-.04-.64-.29-.1-.26.04-.55.29-.64.78-.29,1.39-.88,1.79-1.35h-5.57c.42.51,1.08,1.13,1.93,1.4.26.08.41.36.33.63-.07.21-.26.35-.48.35Z"/>
          <path class="cls-1" d="M166.94,229.61c-.06,0-.13-.01-.19-.04-.02-.01-2.53-1.01-4.58-.1-.25.11-.55,0-.66-.25-.11-.25,0-.55.25-.66,2.45-1.09,5.24.05,5.36.09.25.11.38.4.27.65-.08.19-.27.31-.46.31Z"/>
          <path class="cls-1" d="M165.95,232.81c-.12,0-.24-.04-.35-.12h0s-.44-.31-1.45-.51c-.82-.16-1.29.08-1.31.09-.27.15-.62.05-.77-.22-.15-.27-.05-.62.22-.78.08-.05.85-.45,2.08-.21,1.28.25,1.87.67,1.93.72.25.19.3.55.11.8-.11.15-.28.22-.45.22Z"/>
          <path class="cls-1" d="M150.62,229.61c-.2,0-.38-.12-.46-.31-.1-.25.02-.55.27-.65.12-.05,2.91-1.18,5.36-.09.25.11.37.41.25.66-.11.25-.41.37-.66.25-2.05-.91-4.55.09-4.58.1-.06.03-.13.04-.19.04Z"/>
          <path class="cls-1" d="M151.62,232.81c-.17,0-.34-.08-.45-.23-.19-.25-.14-.61.11-.8.06-.05.65-.47,1.93-.72,1.22-.24,1.99.16,2.07.21.28.15.38.5.22.77-.15.27-.49.37-.77.23-.03-.02-.51-.25-1.31-.09-1.01.2-1.46.51-1.46.51-.1.08-.22.12-.34.12Z"/>
          <path class="cls-1" d="M158.78,233.08s-.06,0-.09,0c-.27-.05-.45-.31-.4-.58.01-.06.26-1.52-1.14-2.38-.23-.14-.31-.45-.16-.69.14-.23.45-.31.69-.16,2,1.22,1.62,3.33,1.6,3.42-.05.24-.25.4-.49.4Z"/>
        </g>
      </g>
      <path class="cls-1" d="M158.69,294.71c-.08,0-.15-.01-.23-.04-.33-.13-.5-.5-.37-.83.06-.16,6.04-16.02,6.97-19.89.93-3.89,3.83-21.4,3.86-21.58.03-.21.17-.39.36-.48.19-.09.42-.08.6.03l2.99,1.77c.08.05.16.12.21.2l1.27,1.93c.48.24,2.12,1.05,4.53,2.04.33.13.48.51.35.84-.13.33-.51.48-.84.35-2.94-1.21-4.71-2.12-4.78-2.16-.1-.05-.18-.13-.24-.22l-1.28-1.95-2.06-1.22c-.62,3.72-2.9,17.29-3.72,20.74-.94,3.95-6.77,19.39-7.02,20.04-.1.26-.34.41-.6.41Z"/>
      <path class="cls-1" d="M175.63,308.85c-.27,0-.52-.17-.61-.45-.11-.34.08-.7.42-.81.04-.01,4.09-1.3,8.82-2.93,1.7-.58,3.05-1.07,4.14-1.52.33-.14.7.02.84.35.14.33-.02.7-.35.84-1.12.47-2.5.96-4.22,1.55-4.74,1.63-8.81,2.93-8.85,2.94-.06.02-.13.03-.19.03Z"/>
      <path class="cls-1" d="M128.17,272.38s-.06,0-.1,0c-.35-.05-.59-.38-.54-.73.7-4.72,1.26-7.9,1.86-9.15,1.19-2.47,3.26-2.74,3.75-2.76.41-.11,2.55-.73,4.98-1.71,2.62-1.06,4.4-1.94,4.91-2.19l1.27-1.93c.05-.08.13-.15.21-.2l2.99-1.77c.18-.11.41-.12.6-.03.19.09.33.27.36.48.02.11,1.78,10.76,3,17.28.06.35-.16.68-.51.75-.35.06-.68-.16-.75-.51-1.01-5.41-2.39-13.64-2.85-16.39l-2.06,1.22-1.28,1.95c-.06.09-.14.17-.24.22-.08.04-2,1.03-5.16,2.31-2.77,1.12-5.1,1.76-5.2,1.78-.06.02-.11.02-.17.02-.06,0-1.72.04-2.69,2.04-.59,1.22-1.21,5.17-1.75,8.78-.05.32-.32.55-.63.55Z"/>
      <g>
        <g>
          <g>
            <path class="cls-4" d="M118.22,305.85l-4.02-28.62c-.1-.73.43-1.39,1.16-1.46l40.76-3.61c.68-.06,1.29.42,1.38,1.1l4.02,28.62c.1.73-.43,1.39-1.16,1.46l-40.76,3.61c-.68.06-1.29-.42-1.38-1.1Z"/>
            <path class="cls-1" d="M119.49,307.6c-.95,0-1.77-.7-1.9-1.66l-4.02-28.62c-.07-.52.07-1.05.4-1.46.33-.41.81-.67,1.34-.72l40.76-3.61c1.02-.09,1.93.63,2.07,1.65l4.02,28.62c.07.52-.07,1.05-.4,1.46-.33.41-.81.67-1.34.72l-40.76,3.61c-.06,0-.12,0-.17,0ZM156.22,272.81s-.04,0-.06,0l-40.76,3.61c-.18.02-.33.1-.45.24-.11.14-.16.31-.13.49l4.02,28.62h0c.05.34.35.58.69.55l40.76-3.61c.18-.02.33-.1.45-.24.11-.14.16-.31.13-.49l-4.02-28.62c-.04-.32-.32-.55-.63-.55Z"/>
          </g>
          <polygon class="cls-4" points="120.34 304.55 116.61 278.01 155.37 274.57 159.1 301.12 120.34 304.55"/>
          <path class="cls-1" d="M125.95,300.13c-.33,0-.61-.25-.64-.58-.03-.35.23-.66.58-.7l27.36-2.42c.35-.03.66.23.7.58.03.35-.23.66-.58.7l-27.36,2.42s-.04,0-.06,0Z"/>
          <path class="cls-1" d="M127.09,300.03c-.32,0-.59-.23-.63-.55l-.65-4.62c-.02-.17.02-.35.13-.49.11-.14.27-.22.45-.24l4.56-.4c.34-.03.64.21.69.55l.65,4.62c.02.17-.02.35-.13.49-.11.14-.27.22-.45.24l-4.56.4s-.04,0-.06,0ZM127.17,295.35l.47,3.34,3.28-.29-.47-3.34-3.28.29Z"/>
          <g>
            <polygon class="cls-6" points="138.49 298.38 133.93 298.79 132.78 290.55 137.33 290.14 138.49 298.38"/>
            <path class="cls-1" d="M133.93,299.43c-.32,0-.59-.23-.63-.55l-1.16-8.24c-.02-.17.02-.35.13-.49.11-.14.27-.22.45-.24l4.56-.4c.34-.03.64.21.69.55l1.16,8.24c.02.17-.02.35-.13.49-.11.14-.27.22-.45.24l-4.56.4s-.04,0-.06,0ZM133.5,291.13l.98,6.97,3.28-.29-.98-6.97-3.28.29Z"/>
          </g>
          <g>
            <polygon class="cls-4" points="145.33 297.78 140.77 298.18 138.93 285.05 143.49 284.64 145.33 297.78"/>
            <path class="cls-1" d="M140.77,298.82c-.32,0-.59-.23-.63-.55l-1.85-13.13c-.02-.17.02-.35.13-.49.11-.14.27-.22.45-.24l4.56-.4c.34-.03.64.21.69.55l1.85,13.13c.02.17-.02.35-.13.49s-.27.22-.45.24l-4.56.4s-.04,0-.06,0ZM139.66,285.63l1.67,11.86,3.28-.29-1.67-11.86-3.28.29Z"/>
          </g>
          <g>
            <polygon class="cls-6" points="152.17 297.17 147.61 297.57 145.36 281.57 149.92 281.17 152.17 297.17"/>
            <path class="cls-1" d="M147.61,298.21c-.32,0-.59-.23-.63-.55l-2.25-16c-.02-.17.02-.35.13-.49s.27-.22.45-.24l4.56-.4c.34-.03.64.21.69.55l2.25,16c.02.17-.02.35-.13.49-.11.14-.27.22-.45.24l-4.56.4s-.04,0-.06,0ZM146.09,282.15l2.07,14.73,3.28-.29-2.07-14.73-3.28.29Z"/>
          </g>
          <path class="cls-1" d="M123.7,284.13c-.33,0-.61-.25-.64-.58-.03-.35.23-.66.58-.7l7.98-.71c.35-.03.66.23.7.58.03.35-.23.66-.58.7l-7.98.71s-.04,0-.06,0Z"/>
          <path class="cls-1" d="M123.95,285.86c-.33,0-.61-.25-.64-.58-.03-.35.23-.66.58-.7l5.7-.5c.35-.03.66.23.7.58.03.35-.23.66-.58.7l-5.7.5s-.04,0-.06,0Z"/>
          <path class="cls-1" d="M158.45,297.18c-.31,0-.59-.23-.63-.55l-3-21.36-28.74,2.55c-.35.03-.66-.23-.7-.58-.03-.35.23-.66.58-.7l29.35-2.6c.34-.03.64.21.69.55l3.09,21.97c.05.35-.2.67-.55.72-.03,0-.06,0-.09,0Z"/>
          <path class="cls-1" d="M120.34,305.19c-.32,0-.59-.23-.63-.55l-2.65-18.85c-.05-.35.2-.67.55-.72.35-.05.67.19.72.55l2.56,18.25,32.36-2.87c.35-.03.66.23.7.58.03.35-.23.66-.58.7l-32.97,2.92s-.04,0-.06,0Z"/>
        </g>
        <g>
          <path class="cls-4" d="M115.2,284.4l1.27-1.59s2.49-.25,3.63-1.18.02-2.05.02-2.05c0,0,2.49.21,3.17-1.5.44-1.12-.87-1.7-.87-1.7,0,0,1.75.13,1.77-1.34.03-1.92-5.87-1.82-5.87-1.82,0,0,3.48.22,5.35-.62.91-.41,1.25-1.01,1-1.71-.27-.74-1.66-.65-3.12-.49-2.06.24-3.97.06-4.67.38-.79.36-3.29,3.62-3.29,3.62,0,0-2.07.97-2.48,2.5-.21.79.25,1.81.25,1.81,0,0-.84.89-.82,2.17.02,1.29.42,2.03.42,2.03,0,0,1.28,3.85,2.26,4.9s2.7,1.75,2.7,1.75l-.73-5.16Z"/>
          <path class="cls-1" d="M125.29,270.68c-.46-1.29-2.39-1.07-3.79-.91-.87.1-1.71.12-2.46.14-1.1.03-1.89.05-2.41.29-.83.38-2.74,2.79-3.44,3.7-.52.27-2.26,1.29-2.68,2.84-.18.68,0,1.42.14,1.87-.3.43-.75,1.25-.74,2.3.02,1.25.36,2.04.47,2.26.19.58,1.37,4,2.38,5.09,1.07,1.15,2.86,1.88,2.94,1.91.08.03.16.05.24.05.14,0,.28-.05.4-.14.18-.14.27-.37.24-.59l-.69-4.89.93-1.17c.73-.1,2.64-.43,3.7-1.29.58-.48.73-1,.75-1.36.01-.21-.02-.41-.07-.59.93-.13,2.19-.56,2.7-1.85.25-.62.14-1.15-.1-1.57.16-.08.32-.18.46-.31.38-.34.58-.82.59-1.39,0-.43-.16-.83-.49-1.16-.21-.21-.49-.39-.82-.54.15-.05.29-.11.42-.17,1.21-.54,1.71-1.48,1.34-2.51ZM123.56,275.03c0,.27-.1.39-.17.46-.25.23-.76.26-.92.25,0,0-.01,0-.02,0,0,0,0,0-.01,0-.89-.02-5.38-.13-6.15.01-.81.15-2.44.99-2.62,1.09-.31.16-.44.55-.27.87.11.22.34.34.57.34.1,0,.2-.02.3-.07.63-.33,1.79-.88,2.26-.96.43-.08,3.25-.06,5.74,0,.2.11.6.4.44.83-.49,1.24-2.5,1.1-2.52,1.1-.02,0-.03,0-.05,0,0,0-.02,0-.02,0l-3.68.12c-.1,0-.19.03-.28.07l-2.85,1.5c-.31.17-.43.55-.27.87.12.22.34.34.57.34.1,0,.2-.02.3-.07l2.72-1.44,3.2-.11c.08.13.16.3.15.46,0,.05-.01.22-.28.44-.81.66-2.65.98-3.29,1.04-.17.02-.33.1-.44.24l-1.27,1.59c-.11.14-.16.31-.13.49l.56,3.96c-.48-.27-1.03-.64-1.43-1.07-.73-.78-1.78-3.63-2.12-4.67-.01-.03-.03-.07-.04-.1,0,0-.33-.64-.35-1.74-.02-1,.64-1.72.65-1.72.18-.19.23-.47.12-.7-.12-.27-.33-.95-.21-1.38.27-.98,1.55-1.79,2.09-2.06l4.57-1.14c.19,0,.63.03,1.2.02,1.51.08,3.28.35,3.85.91.12.12.12.19.12.23ZM123.42,272.02c-1.05.47-2.7.58-3.83.59-.64-.03-1.13-.03-1.27-.02,0,0,0,0,0,0-.02,0-.04,0-.06,0-.02,0-.05,0-.07.01,0,0,0,0,0,0l-2.88.72c.83-.99,1.6-1.83,1.87-1.95.28-.13,1.11-.15,1.91-.17.77-.02,1.65-.05,2.57-.15.69-.08,1.19-.11,1.55-.11.78,0,.88.14.89.18.06.16.19.53-.66.91Z"/>
        </g>
        <path class="cls-4" d="M173.9,304.55l-7.26,2.63s-3.84,1.95-5.05,2.27c-1.21.32-8,1.12-8.99.76-.44-.16-3.84-3.04-3.84-3.04,0,0-1.84.05-3.24.05-1.94,0-2.85-.23-2.96-.95-.22-1.42,2.11-1.5,2.11-1.5l11.1-.98.89-.95s1.51-2.48,3.83-2.99c2.32-.51,3.73-.05,3.73-.05l5.78-2.1,3.92,6.85Z"/>
        <path class="cls-1" d="M174.45,304.23l-3.92-6.85c-.15-.27-.48-.39-.78-.28l-5.59,2.03c-.52-.12-1.89-.33-3.83.1-2.38.52-3.94,2.81-4.2,3.22l-.68.72-10.84.96c-.24,0-1.67.1-2.35.93-.3.36-.42.82-.35,1.31.21,1.38,1.89,1.49,3.59,1.49,1.09,0,2.46-.03,3.01-.05,1.56,1.32,3.41,2.84,3.85,3,.23.08.68.12,1.26.12,2.43,0,7.19-.62,8.11-.86,1.21-.32,4.72-2.09,5.14-2.3l7.22-2.61c.18-.06.32-.2.38-.38.07-.18.05-.37-.05-.54ZM166.42,306.57s-.05.02-.07.03c-1.05.53-3.98,1.97-4.92,2.22-1.31.35-7.72,1.03-8.59.78-.36-.2-2.13-1.63-3.66-2.93-.12-.1-.27-.16-.43-.15-.02,0-1.85.05-3.22.05-2.04,0-2.31-.28-2.33-.4-.02-.16.02-.23.07-.29.24-.3.98-.45,1.43-.47.01,0,.02,0,.04,0l8.09-.72c-.64.48-1.2,1.11-1.37,1.9-.15.72.07,1.37.62,1.77.38.28.91.42,1.46.42s1.09-.13,1.56-.4c.95-.53,3.47-1.64,3.98-1.86l1.48-.15c.35-.04.61-.35.57-.7-.04-.35-.35-.61-.7-.57l-1.58.16c-.07,0-.13.02-.19.05-.13.05-3.08,1.34-4.19,1.96-.51.29-1.29.31-1.63.06-.07-.05-.19-.14-.12-.47.24-1.11,2.27-1.95,2.96-2.15.11-.03.21-.09.29-.18l1.17-1.25s.06-.07.08-.1c.02-.03,1.4-2.26,3.42-2.7,2.09-.46,3.38-.07,3.39-.07.14.04.28.04.42,0l5.27-1.92,3.27,5.72-6.54,2.37Z"/>
        <g>
          <path class="cls-4" d="M173.27,307.4s-1.1-3.13-2.45-5.55c-1.35-2.42-3.73-4.89-3.73-4.89l3.13-.92s1.71,1.17,3.48,4.36c1.31,2.18,2.58,5.89,2.58,5.89l-3.01,1.1Z"/>
          <path class="cls-1" d="M173.27,308.04c-.09,0-.19-.02-.27-.06-.15-.07-.27-.21-.33-.37-.01-.03-1.1-3.11-2.4-5.45-1.29-2.31-3.61-4.73-3.63-4.75-.16-.16-.22-.39-.16-.61.06-.22.22-.39.44-.45l3.13-.92c.18-.05.38-.02.54.09.07.05,1.85,1.29,3.67,4.57,1.33,2.22,2.58,5.85,2.63,6,.11.33-.06.69-.39.81l-3.01,1.1c-.07.03-.15.04-.22.04ZM168.26,297.29c.83.94,2.2,2.59,3.13,4.25,1.01,1.82,1.88,3.99,2.27,5.04l1.81-.66c-.41-1.12-1.36-3.59-2.31-5.18,0,0,0-.01-.01-.02-1.31-2.35-2.56-3.55-3.06-3.97l-1.82.54Z"/>
        </g>
      </g>
    </g>
  </g>
</svg>