<?xml version="1.0" encoding="UTF-8"?>
<svg id="_レイヤー_2" data-name="レイヤー 2" xmlns="http://www.w3.org/2000/svg" viewBox="0 0 710 142.92">
  <defs>
    <style>
      .cls-1 {
        fill: #202933;
      }

      .cls-2 {
        fill: #ffaf50;
      }

      .cls-3 {
        isolation: isolate;
      }

      .cls-4 {
        fill: #fff;
      }

      .cls-5 {
        fill: #0079b9;
      }

      .cls-6 {
        fill: #4c84d6;
      }
    </style>
  </defs>
  <g id="_レイヤー_1-2" data-name="レイヤー 1">
    <g class="cls-3">
      <polygon class="cls-4" points="145 140.92 145 81.08 126.59 83.31 145 65.19 145 2 708 2 708 140.92 145 140.92"/>
      <path class="cls-5" d="M706,4v134.92H147v-60.1l-4.48.54-10.34,1.25,13.63-13.41,1.19-1.18V4h559M710,0H143v64.36l-22,21.64,22-2.67v59.59h567V0h0Z"/>
    </g>
    <g class="cls-3">
      <path class="cls-5" d="M202.79,60.86v5.68h-36.39v-5.68h15.12v-6.88h-10.36v-5.6h10.36v-6.12h-7.68c-1.12,2.08-2.28,3.96-3.48,5.44-1.16-1-3.76-2.72-5.24-3.52,3.08-3.28,5.64-8.76,7-14.16l6.04,1.36c-.48,1.76-1.08,3.48-1.76,5.2h5.12v-6.96h6.08v6.96h13.08v5.68h-13.08v6.12h11.48v5.6h-11.48v6.88h15.2Z"/>
      <path class="cls-5" d="M213.28,49.78c-1.64-1.16-5.2-3.08-7.56-4.32l3.12-4.32c2.2,1,5.88,2.72,7.68,3.8l-3.24,4.84ZM206.12,63.26c2.12-2.96,5.16-7.8,7.6-12.48l4.28,3.88c-2.12,4.2-4.52,8.52-6.96,12.52l-4.92-3.92ZM214.84,38.74c-1.56-1.16-5-3.08-7.2-4.4l3.28-4.2c2.12,1.08,5.64,2.84,7.36,3.92l-3.44,4.68ZM233.64,46.78v4.24h8.08v16.4h-5.52v-1.44h-10.8v1.6h-5.24v-16.56h7.96v-4.24h-10.24v-5.56h10.24v-3.68c-2.44.36-4.92.64-7.28.84-.2-1.4-.96-3.68-1.56-4.96,6.72-.64,13.88-2,18.32-3.88l4.44,4.56c-2.56,1-5.4,1.84-8.4,2.44v4.68h9.76v5.56h-9.76ZM236.2,56.26h-10.8v4.48h10.8v-4.48Z"/>
      <path class="cls-5" d="M268.76,60.1c0,1.92.08,4.68.4,5.8h-7.68c.16-1.08.32-3.88.32-5.8v-12.04c-4.04,2-8.72,3.88-13.08,5.04l-3.44-5.88c7.16-1.48,13.88-4.4,18.36-7.2,4.04-2.52,8.16-6.08,10.44-9.12l5.2,4.68c-3.2,3.12-6.68,6.08-10.52,8.56v15.96Z"/>
      <path class="cls-5" d="M297.48,54.46c7.2-4.16,12.6-10.36,15.28-16l3.76,6.84c-3.2,5.68-8.88,11.24-15.56,15.16-4.08,2.4-9.28,4.48-14.32,5.28l-4.12-6.4c5.88-.8,11.04-2.6,14.96-4.88ZM298.84,41.38l-4.96,5.08c-2.12-2.32-7.16-6.72-10.04-8.76l4.6-4.92c2.76,1.88,8,6.04,10.4,8.6Z"/>
      <path class="cls-5" d="M349.36,37.18c-.44.88-.8,2.32-1.04,3.2-.96,3.76-2.6,9.84-6.04,14.48-3.6,4.84-9.24,8.96-16.28,11.24l-5.28-5.8c8.04-1.8,12.56-5.32,15.72-9.24,2.56-3.16,3.88-7.12,4.4-10.32h-17.6c-1.96,0-4.16.12-5.2.2v-6.84c1.24.16,3.88.36,5.2.36h17.64c.88,0,2.44-.04,3.68-.36l4.8,3.08Z"/>
      <path class="cls-5" d="M385.12,44.86c-.32.6-.72,1.44-.88,1.92-1.32,3.84-3,7.6-5.96,10.92-3.96,4.44-9.16,7.36-14.28,8.84l-4.84-5.48c6.24-1.32,10.88-3.96,13.76-6.84,1.96-1.96,3.04-3.96,3.72-5.8h-18.2c-1,0-3.28.04-5.08.2v-6.24c1.84.16,3.72.28,5.08.28h19.04c1.52,0,2.72-.2,3.36-.48l4.28,2.68ZM357.12,32.62c1.12.16,3.08.24,4.48.24h15.16c1.28,0,3.56-.08,4.72-.24v6.24c-1.12-.08-3.28-.16-4.8-.16h-15.08c-1.36,0-3.28.04-4.48.16v-6.24Z"/>
      <path class="cls-5" d="M393.94,50.51c0-7.84,3.33-13.48,6.86-16.91l4.03,1.71c-3.22,3.54-6.13,8.23-6.13,15.19s2.91,11.66,6.13,15.19l-4.03,1.71c-3.54-3.43-6.86-9.07-6.86-16.91Z"/>
      <path class="cls-5" d="M418.02,35.5c-.88,2.14-1.92,4.38-3.12,6.51v25.03h-4.83v-17.75c-.77.98-1.57,1.86-2.38,2.66-.42-1.23-1.75-4.03-2.59-5.29,3.22-3.05,6.37-7.88,8.19-12.71l4.73,1.54ZM439.09,61.26v4.83h-22.72v-4.83h8.89v-5.92h-7.04v-4.8h7.04v-5.18h-8.16v-4.83h8.68c-1.57-1.08-3.36-2.24-4.87-3.08l3.36-3.64c2.56,1.29,6.27,3.43,8.09,5.01l-1.54,1.71h7.74v4.83h-8.12v5.18h7.18v4.8h-7.18v5.92h8.65Z"/>
      <path class="cls-5" d="M463.38,52.82v2.21h7.81v12.11h-5.08v-.91h-10.33v.91h-4.87v-12.11h7.35v-2.21h-8.65v-4.52h8.65v-2.38h-8.75c0,6.23-.63,15.61-4.55,21.35-.98-.84-3.25-2.17-4.55-2.66,3.67-5.25,3.96-13.16,3.96-18.73v-10.36h27.02v10.4h-8.02v2.38h9.91v4.52h-9.91ZM449.52,39.94v1.58h16.73v-1.58h-16.73ZM466.11,59.44h-10.33v2.38h10.33v-2.38Z"/>
      <path class="cls-5" d="M483.57,45.61c2.7,0,4.9,2.21,4.9,4.9s-2.21,4.9-4.9,4.9-4.9-2.21-4.9-4.9,2.21-4.9,4.9-4.9Z"/>
      <path class="cls-5" d="M502.26,58.63c1.19,2.21,3.29,3.08,6.58,3.22,4.38.21,12.81.1,18.03-.35-.56,1.16-1.33,3.5-1.58,4.94-4.58.25-12.04.32-16.52.11-3.99-.17-6.58-1.08-8.65-3.75-1.5,1.29-3.04,2.55-5,4.03l-2.31-5.08c1.44-.8,3.08-1.75,4.59-2.8v-6.83h-4.13v-4.69h9v11.2ZM499.67,43.55c-1.12-1.64-3.82-4.06-5.95-5.67l3.5-3.29c2.13,1.44,4.94,3.64,6.23,5.29l-3.78,3.67ZM509.65,60.8h-4.76v-18.13h6.54c-1.19-.52-2.41-1.05-3.46-1.47l3.08-2.52h-5.67v-3.78h15.54l.98-.25,2.97,2.42c-1.64,1.58-3.71,3.26-5.84,4.69.67.32,1.29.63,1.82.91h4.17v13.93c0,1.96-.31,2.98-1.58,3.64-1.19.67-2.76.7-4.73.7-.17-1.23-.7-2.87-1.22-3.96.8.04,1.89.04,2.21.04.38,0,.49-.14.49-.49v-.67h-3.05v4.8h-4.51v-4.8h-2.98v4.94ZM509.65,46.28v1.23h2.98v-1.23h-2.98ZM512.63,52.26v-1.3h-2.98v1.3h2.98ZM511.61,38.68c1.02.35,2.17.81,3.33,1.26.59-.39,1.19-.81,1.75-1.26h-5.08ZM517.14,46.28v1.23h3.05v-1.23h-3.05ZM520.19,52.26v-1.3h-3.05v1.3h3.05Z"/>
      <path class="cls-5" d="M540.52,35.5c-.88,2.14-1.92,4.38-3.12,6.51v25.03h-4.83v-17.75c-.77.98-1.57,1.86-2.38,2.66-.42-1.23-1.75-4.03-2.59-5.29,3.22-3.05,6.37-7.88,8.19-12.71l4.73,1.54ZM561.56,40.19v4.06h-22.4v-4.06h22.4ZM541.22,55.59h18.62v11.41h-5.15v-1.12h-8.61v1.22h-4.87v-11.52ZM559.25,49.32h-17.36v-3.92h17.36v3.92ZM541.88,50.48h17.19v3.92h-17.19v-3.92ZM558.62,39.03h-16.1v-3.92h16.1v3.92ZM546.08,59.47v2.45h8.61v-2.45h-8.61Z"/>
      <path class="cls-5" d="M582.48,43.72c-1.44.38-3.54.84-5.88,1.19-1.61,4.87-4.55,10.89-7.35,14.91l-5.08-2.56c2.73-3.4,5.39-8.26,6.9-11.87-.39.04-.77.04-1.12.04-1.47,0-2.87-.04-4.48-.14l-.38-4.83c1.61.17,3.67.25,4.83.25.91,0,1.79-.04,2.7-.1.49-1.89.8-3.89.88-5.67l5.74.56c-.24,1.09-.63,2.66-1.12,4.41,1.61-.32,3.08-.67,4.23-1.02l.14,4.83ZM587.35,46.35c-.1,1.5-.04,3.15,0,4.87.04.81.11,2.17.18,3.61,3.01,1.16,5.46,2.91,7.18,4.52l-2.77,4.52c-1.09-1.02-2.49-2.35-4.2-3.54-.1,3.33-1.92,5.81-7.04,5.81-4.59,0-8.16-2.14-8.16-6.16,0-3.46,2.73-6.44,8.09-6.44.63,0,1.23.04,1.82.1-.14-2.48-.28-5.32-.38-7.28h5.29ZM582.63,58c-.74-.14-1.54-.25-2.35-.25-1.71,0-2.77.7-2.77,1.68,0,1.12.95,1.89,2.42,1.89,2.06,0,2.7-1.22,2.7-3.15v-.17ZM592.74,48.69c-2.06-1.61-6.12-3.96-8.54-5l2.7-4.17c2.49,1.09,6.97,3.47,8.82,4.76l-2.98,4.41Z"/>
      <path class="cls-5" d="M622.11,44.77c-1.22.74-2.49,1.4-3.88,2.1-2.07,1.01-4.97,2.34-8.02,4.3-2.7,1.75-4.62,3.61-4.62,5.88s2.21,3.36,6.65,3.36c3.43,0,8.16-.59,11.45-1.33l-.07,6.06c-3.15.53-6.62.88-11.24.88-7.14,0-12.64-1.92-12.64-8.33,0-3.96,2.45-6.79,5.63-9.21-1.61-2.97-3.22-6.51-4.76-10.15l5.29-2.14c1.26,3.5,2.8,6.65,4.17,9.24,2.24-1.33,4.34-2.42,5.81-3.25,1.47-.84,2.59-1.51,3.61-2.35l2.62,4.94ZM622.53,35.46c.88,1.29,2.1,3.57,2.73,4.79l-3.33,1.4c-.74-1.44-1.75-3.5-2.7-4.87l3.29-1.33ZM626.83,33.78c.91,1.33,2.17,3.57,2.77,4.76l-3.29,1.4c-.7-1.44-1.82-3.5-2.76-4.83l3.29-1.33Z"/>
      <path class="cls-5" d="M638.73,50.51c0,7.84-3.33,13.48-6.86,16.91l-4.03-1.71c3.22-3.54,6.13-8.23,6.13-15.19s-2.91-11.66-6.13-15.19l4.03-1.71c3.54,3.43,6.86,9.07,6.86,16.91Z"/>
      <path class="cls-5" d="M663.78,60.14c1.68-.2,2.76-.44,3.88-.72,5.04-1.24,8.4-4.76,8.4-9.96s-2.48-8.76-7.04-9.84c-.52,3.2-1.24,6.68-2.32,10.32-2.36,7.92-5.92,13.24-10.6,13.24s-8.64-5.32-8.64-12.08c0-9.4,8.12-17.4,18.72-17.4s16.48,6.96,16.48,15.96c0,8.32-4.92,14.44-15.24,16.16l-3.64-5.68ZM662.5,39.74c-5.88,1.6-8.8,6.92-8.8,10.72,0,3.44,1.2,5.24,2.56,5.24,1.6,0,2.8-2.4,4.2-7,.88-2.68,1.56-5.84,2.04-8.96Z"/>
      <path class="cls-5" d="M189.64,107.42c2.64,3.04,7,4.4,14.08,4.68-1.28,1.32-2.8,3.88-3.52,5.56-7.48-.8-11.84-2.88-14.84-7.04-2.2,3.12-6.92,5.88-16.68,7.12-.68-1.4-2.2-3.6-3.32-4.88,9.52-1.12,13.44-3.2,14.96-5.44h-13.84v-4.84h14.64v-2.04h5.92v2.04h15.48v4.84h-12.88ZM193.24,85.9c-.52,6.48-1.96,11.44-7.68,14.64-.48-1.04-1.48-2.44-2.48-3.44l.04,1.36c-5.92.68-12.16,1.32-16.8,1.8l-.44-4.72c1.88-.12,4.12-.32,6.56-.52v-2.6h-5.12v-4.28h5.12v-1.76h-5.84v-4.28h5.84v-2.48h5.36v2.48h5.2v4.28h-5.2v1.76h4.68v4.28h-4.68v2.12l5.2-.48.04,2c3.64-2.36,4.52-5.72,4.84-10.16h-3.96v-4.84h18.24s0,1.44-.04,2.08c-.32,9.44-.72,13.4-1.76,14.76-.88,1.2-1.8,1.6-3,1.8-1.08.2-2.68.24-4.48.24-.08-1.6-.68-3.8-1.48-5.16,1.24.12,2.32.12,2.96.12.52,0,.88-.08,1.24-.52.48-.64.72-2.88.96-8.48h-3.32Z"/>
      <path class="cls-5" d="M242.71,86.18s0,1.88-.04,2.6c-.52,17.36-1,23.8-2.68,26-1.24,1.72-2.44,2.24-4.24,2.56-1.52.28-3.96.28-6.32.2-.08-1.64-.88-4.2-1.96-5.84,2.44.2,4.68.2,5.76.2.8,0,1.24-.16,1.72-.72,1.16-1.2,1.64-6.88,2.04-19.52h-9.92c-1,1.88-2.12,3.6-3.24,4.96-.8-.72-2.4-1.84-3.76-2.72,1.28,2.48,2.44,5.28,2.84,7.28l-4.36,2c-.12-.6-.28-1.28-.48-2l-1.56.12v3.08l3.56-1.16c1,2.4,2.04,5.48,2.52,7.52l-4.48,1.64c-.28-1.56-.92-3.76-1.6-5.8v11.04h-5.12v-12.4c-.36,3.56-1.16,7.24-2.16,9.6-1-.64-3.16-1.64-4.36-2.08,1.04-2.32,1.6-5.92,1.84-9.24l4.68.84v-2.64l-5.64.4-.48-5,3.16-.12c.48-.6.92-1.24,1.4-1.88-1.16-1.76-2.96-3.8-4.56-5.36l2.68-4.04.8.68c1-2.16,2-4.68,2.6-6.72l5.12,1.76c-1.52,2.84-3.16,5.96-4.56,8.2.28.36.6.72.84,1.04,1.28-2.12,2.48-4.28,3.36-6.16l4.88,2c-1.64,2.48-3.48,5.2-5.36,7.72l3.32-1.48c2.88-3.12,5.16-8.12,6.32-13.16l6.04,1.32c-.48,1.8-1.08,3.56-1.72,5.28h13.12ZM216.4,96.66c-.32-.76-.64-1.48-1-2.16-.6.8-1.16,1.56-1.76,2.28l2.76-.12ZM228.4,107.46c-.68-2.48-2.68-6.32-4.6-9.2l4.64-2.32c2,2.72,4.2,6.36,5,8.92l-5.04,2.6Z"/>
      <path class="cls-5" d="M260.76,81.74c-.96,2.28-2.12,4.64-3.44,6.92v28.88h-6.04v-20.04c-1.16,1.36-2.32,2.64-3.48,3.72-.56-1.4-2.2-4.56-3.2-6,4.16-3.6,8.24-9.44,10.6-15.32l5.56,1.84ZM271.96,96.78c.96,7.96,2.76,13.2,5.4,13.64.8.08,1.2-1.8,1.44-6.08,1.12,1.24,3.72,2.8,4.76,3.36-1.12,8.24-3.6,9.96-5.92,9.8-6.92-.72-10.04-7.8-11.48-19.88l-6.88.96-.84-5.6,7.2-1c-.28-3.56-.44-7.48-.56-11.72h5.92c.04,3.88.16,7.56.4,10.92l11.12-1.52.8,5.52-11.36,1.6ZM278.08,89.06c-.84-1.88-3.04-4.72-4.92-6.76l4.4-2.68c1.92,1.88,4.24,4.56,5.24,6.48l-4.72,2.96Z"/>
      <path class="cls-5" d="M301.36,90.54c-1.16,2-2.6,4.08-4.16,6.08v21h-5.84v-14.44c-.88.8-1.72,1.6-2.56,2.28-.8-1.24-2.76-3.88-3.92-5.08,4.04-2.8,8.4-7.44,10.96-11.96l5.52,2.12ZM299.96,81.94c-3.04,3.96-7.48,8.24-11.44,10.96-.72-1.32-2.2-3.64-3.2-4.8,3.32-2.08,7.16-5.72,9.04-8.48l5.6,2.32ZM323.07,98.46h-5.24v12.64c0,2.96-.52,4.56-2.52,5.44-1.92.88-4.6.96-8,.96-.2-1.72-.96-4.28-1.72-5.96,1.96.12,4.6.12,5.32.12s.96-.16.96-.72v-12.48h-10.96v-5.52h22.16v5.52ZM322.07,87.34h-19.48v-5.52h19.48v5.52Z"/>
    </g>
    <g>
      <g>
        <path class="cls-2" d="M15.88,56.05c-7.7,8.27-2.33,14.96.23,16.89,3.36,2.53,11.12,1.9,11.12,1.9l.95-38.96h-5.11s.65,11.75-7.19,20.18Z"/>
        <path class="cls-1" d="M25.07,75.72c-2.65,0-7.03-.31-9.46-2.13-1.88-1.41-4.18-4.36-4.5-8-.3-3.41,1.1-6.8,4.17-10.1,7.5-8.06,6.98-19.46,6.97-19.58-.01-.22.07-.44.22-.6.15-.16.37-.25.59-.25h5.11c.45,0,.81.36.81.81s-.36.81-.81.81h-4.28c0,2.92-.58,12.57-7.42,19.92-2.74,2.94-4,5.92-3.74,8.84.27,3.11,2.25,5.62,3.86,6.84,3.07,2.32,10.49,1.74,10.57,1.74.45-.03.84.3.88.75.04.45-.3.84-.74.88-.11,0-.97.08-2.22.08Z"/>
      </g>
      <g>
        <g>
          <path class="cls-4" d="M45.23,60.19c-.34-1.01-.53-3.55-.53-5.35v-2.45l-8.31-6.19-10.12-8.52s.54,13.94,0,17.16c-.91,5.44-1.52,6.81-3.01,7.87-5.29,3.75-10.59,7.71-10.59,7.71l16.22,9.69,29.22-2.4,1.82-8.11s-2.14-1.96-8.37-5.53c-1.6-.92-6-2.88-6.33-3.88Z"/>
          <path class="cls-1" d="M51.97,63.36c-.43-.25-1.02-.55-1.71-.9-1.27-.65-3.91-2-4.26-2.56-.26-.82-.48-3.12-.48-5.07v-2.45c0-.26-.12-.5-.33-.65l-8.29-6.18-10.1-8.51c-.25-.21-.59-.25-.88-.11-.29.14-.47.44-.46.76,0,.14.53,13.89.01,17-.89,5.29-1.45,6.47-2.68,7.35-5.23,3.72-10.55,7.68-10.61,7.72-.22.16-.34.42-.33.69.01.27.16.52.4.66l16.22,9.69c.13.08.27.12.42.12.28,0,.55-.14.7-.4.23-.39.1-.89-.28-1.12l-15.18-9.06c1.78-1.32,5.71-4.22,9.6-6.97,1.76-1.25,2.42-2.9,3.34-8.4.43-2.59.2-11.57.08-15.49l8.71,7.34s.03.02.04.03l7.98,5.95v2.04c0,1.88.2,4.49.58,5.61.31.91,1.74,1.77,5.06,3.47.64.33,1.25.64,1.64.86,4.69,2.69,7.04,4.46,7.87,5.13l-1.71,7.63c-.1.44.18.87.62.97.44.1.87-.18.97-.62l1.82-8.11c.06-.29-.03-.58-.25-.78-.09-.08-2.28-2.06-8.51-5.64Z"/>
        </g>
        <g>
          <g>
            <polygon class="cls-4" points="50.19 64.14 43.85 72.95 41.41 73.28 22.36 64.21 23.49 116.59 62.84 116.59 59.65 77.18 50.19 64.14"/>
            <path class="cls-1" d="M62.84,117.4H23.49c-.44,0-.8-.35-.81-.8l-1.13-52.38c0-.28.13-.55.37-.7.24-.15.54-.17.79-.05l18.82,8.97,1.86-.25,6.14-8.53c.15-.21.4-.34.66-.34h0c.26,0,.51.12.66.34l9.46,13.04c.09.12.14.26.15.41l3.19,39.41c.02.23-.06.45-.21.62-.15.17-.37.26-.6.26ZM24.29,115.77h37.67l-3.1-38.3-8.66-11.94-5.68,7.9c-.13.18-.33.3-.55.33l-2.45.33c-.16.02-.32,0-.46-.07l-17.85-8.51,1.08,50.26ZM43.85,72.95h0,0Z"/>
          </g>
          <path class="cls-1" d="M45.73,77.51c-.32,0-.62-.19-.75-.49l-.76-1.78c-.18-.41.02-.89.43-1.07.41-.18.89.02,1.07.43l.76,1.78c.18.41-.02.89-.43,1.07-.1.04-.21.07-.32.07Z"/>
          <path class="cls-1" d="M42.16,80.22c-.41,0-.76-.3-.81-.72l-.75-6.13c-.05-.45.26-.85.71-.91.45-.05.85.26.91.71l.75,6.13c.05.45-.26.85-.71.91-.03,0-.07,0-.1,0Z"/>
        </g>
        <path class="cls-4" d="M38.3,111.05c-.02-.26-.05-.52-.07-.79-.09-.99-.19-2.04-.3-3.12-.03-.32-.06-.65-.1-.98-.11-1.11-.23-2.26-.35-3.44,0-.05-.01-.1-.02-.15-.34-3.17-.72-6.51-1.14-9.77-.03-.24-.06-.48-.09-.72-.14-1.07-.28-2.12-.43-3.16-.04-.3-.09-.6-.13-.9-.5-3.39-1.04-6.56-1.61-9.22-.07-.33-.14-.66-.22-.97-.12-.52-.24-1.02-.36-1.49-.24-.94-.71-2.22-1.29-3.68-.12-.29-.24-.59-.37-.9-.68-1.65-1.49-3.46-2.29-5.21-.05-.11-.1-.22-.15-.33-1.49-3.24-2.96-6.24-3.64-7.63-.17-.34-.29-.59-.35-.71-.03-.06-.05-.09-.05-.09,0,0-5.46,5.84-12.67,10.24-.17.1-.34.21-.51.32-.19.12-.38.24-.57.36-.53.35-1.08.72-1.62,1.15-.25.2-.5.4-.75.62-.46.4-.91.85-1.35,1.34-.21.24-.42.49-.62.75-.39.51-.77,1.06-1.13,1.67-.09.16-.19.32-.28.49-.77,1.42-1.44,3.13-1.94,5.22-.07.29-.13.58-.2.89-.21,1-.38,2.08-.5,3.26-.02.17-.04.34-.05.51-.04.44-.08.88-.11,1.34-.36,5.47-.81,11.3-1.2,16.22-.02.3-.05.6-.07.89-.09,1.08-.17,2.12-.25,3.09-.03.33-.05.65-.08.97-.1,1.24-.2,2.35-.28,3.31-.01.15-.03.3-.04.45-.17,1.99-.27,3.17-.27,3.17v1.92l2.69.3.26.03,3.37.37.99.11,3.21.35.59.06,13.42,1.47.98.11,3.18.35.65.07,8.91.98s-.27-3.72-.77-9.11Z"/>
        <g>
          <path class="cls-6" d="M25.73,58.58c-.17-.34-.29-.59-.35-.71-.09.19-.06.42.09.57.07.07.16.12.26.14Z"/>
          <path class="cls-6" d="M23.45,59.76c-.2.2-.2.51,0,.71.2.2.51.2.71,0,.2-.2.2-.51,0-.71-.2-.2-.51-.2-.71,0Z"/>
          <path class="cls-6" d="M25.47,61.78c-.2.2-.2.51,0,.71.2.2.51.2.71,0,.2-.2.2-.51,0-.71-.2-.2-.51-.2-.71,0Z"/>
          <path class="cls-6" d="M27.5,63.8c-.2.2-.2.51,0,.71.2.2.51.2.71,0,.2-.2.2-.51,0-.71-.2-.2-.51-.2-.71,0Z"/>
          <path class="cls-6" d="M29.53,66.54c-.05-.11-.1-.22-.15-.33,0,.12.05.24.14.33,0,0,0,0,0,0Z"/>
          <path class="cls-6" d="M21.43,61.78c-.2.2-.2.51,0,.71.2.2.51.2.71,0,.2-.2.2-.51,0-.71-.2-.2-.51-.2-.71,0Z"/>
          <path class="cls-6" d="M23.45,63.8c-.2.2-.2.51,0,.71.2.2.51.2.71,0,.2-.2.2-.51,0-.71s-.51-.2-.71,0Z"/>
          <path class="cls-6" d="M25.47,65.83c-.2.2-.2.51,0,.71.2.2.51.2.71,0,.2-.2.2-.51,0-.71-.2-.2-.51-.2-.71,0Z"/>
          <path class="cls-6" d="M27.5,67.85c-.2.2-.2.51,0,.71.2.2.51.2.71,0,.2-.2.2-.51,0-.71s-.51-.2-.71,0Z"/>
          <path class="cls-6" d="M29.52,69.87c-.2.2-.2.51,0,.71.2.2.51.2.71,0,.2-.2.2-.51,0-.71-.2-.2-.51-.2-.71,0Z"/>
          <path class="cls-6" d="M32.19,72.66c-.12-.29-.24-.59-.37-.9-.1.02-.2.06-.28.14-.2.2-.2.51,0,.71.18.18.45.19.65.05Z"/>
          <path class="cls-6" d="M19.41,63.8c-.2.2-.2.51,0,.71.2.2.51.2.71,0,.2-.2.2-.51,0-.71-.2-.2-.51-.2-.71,0Z"/>
          <path class="cls-6" d="M21.43,65.83c-.2.2-.2.51,0,.71.2.2.51.2.71,0,.2-.2.2-.51,0-.71-.2-.2-.51-.2-.71,0Z"/>
          <path class="cls-6" d="M23.45,67.85c-.2.2-.2.51,0,.71.2.2.51.2.71,0,.2-.2.2-.51,0-.71-.2-.2-.51-.2-.71,0Z"/>
          <path class="cls-6" d="M25.47,69.87c-.2.2-.2.51,0,.71s.51.2.71,0c.2-.2.2-.51,0-.71-.2-.2-.51-.2-.71,0Z"/>
          <path class="cls-6" d="M27.5,71.9c-.2.2-.2.51,0,.71.2.2.51.2.71,0s.2-.51,0-.71c-.2-.2-.51-.2-.71,0Z"/>
          <path class="cls-6" d="M29.52,73.92c-.2.2-.2.51,0,.71.2.2.51.2.71,0,.2-.2.2-.51,0-.71-.2-.2-.51-.2-.71,0Z"/>
          <path class="cls-6" d="M31.54,75.94c-.2.2-.2.51,0,.71.2.2.51.2.71,0,.2-.2.2-.51,0-.71s-.51-.2-.71,0Z"/>
          <path class="cls-6" d="M34.06,78.8c-.07-.33-.14-.66-.22-.97-.1.02-.2.06-.28.14-.2.2-.2.51,0,.71.13.13.33.17.5.12Z"/>
          <path class="cls-6" d="M17.38,65.83c-.2.2-.2.51,0,.71.2.2.51.2.71,0,.2-.2.2-.51,0-.71-.2-.2-.51-.2-.71,0Z"/>
          <path class="cls-6" d="M19.41,67.85c-.2.2-.2.51,0,.71.2.2.51.2.71,0,.2-.2.2-.51,0-.71-.2-.2-.51-.2-.71,0Z"/>
          <path class="cls-6" d="M21.43,69.87c-.2.2-.2.51,0,.71.2.2.51.2.71,0,.2-.2.2-.51,0-.71-.2-.2-.51-.2-.71,0Z"/>
          <path class="cls-6" d="M23.45,71.9c-.2.2-.2.51,0,.71s.51.2.71,0c.2-.2.2-.51,0-.71-.2-.2-.51-.2-.71,0Z"/>
          <path class="cls-6" d="M25.47,73.92c-.2.2-.2.51,0,.71.2.2.51.2.71,0,.2-.2.2-.51,0-.71-.2-.2-.51-.2-.71,0Z"/>
          <path class="cls-6" d="M27.5,75.94c-.2.2-.2.51,0,.71.2.2.51.2.71,0,.2-.2.2-.51,0-.71-.2-.2-.51-.2-.71,0Z"/>
          <path class="cls-6" d="M29.52,77.96c-.2.2-.2.51,0,.71s.51.2.71,0,.2-.51,0-.71c-.2-.2-.51-.2-.71,0Z"/>
          <path class="cls-6" d="M31.54,79.99c-.2.2-.2.51,0,.71.2.2.51.2.71,0,.2-.2.2-.51,0-.71-.2-.2-.51-.2-.71,0Z"/>
          <path class="cls-6" d="M33.57,82.01c-.2.2-.2.51,0,.71s.51.2.71,0c.2-.2.2-.51,0-.71-.2-.2-.51-.2-.71,0Z"/>
          <path class="cls-6" d="M15.36,67.85c-.2.2-.2.51,0,.71.2.2.51.2.71,0,.2-.2.2-.51,0-.71-.2-.2-.51-.2-.71,0Z"/>
          <path class="cls-6" d="M17.38,69.87c-.2.2-.2.51,0,.71s.51.2.71,0c.2-.2.2-.51,0-.71-.2-.2-.51-.2-.71,0Z"/>
          <path class="cls-6" d="M19.41,71.9c-.2.2-.2.51,0,.71.2.2.51.2.71,0,.2-.2.2-.51,0-.71-.2-.2-.51-.2-.71,0Z"/>
          <path class="cls-6" d="M21.43,73.92c-.2.2-.2.51,0,.71.2.2.51.2.71,0,.2-.2.2-.51,0-.71-.2-.2-.51-.2-.71,0Z"/>
          <path class="cls-6" d="M23.45,75.94c-.2.2-.2.51,0,.71.2.2.51.2.71,0,.2-.2.2-.51,0-.71-.2-.2-.51-.2-.71,0Z"/>
          <path class="cls-6" d="M25.47,77.96c-.2.2-.2.51,0,.71.2.2.51.2.71,0,.2-.2.2-.51,0-.71-.2-.2-.51-.2-.71,0Z"/>
          <path class="cls-6" d="M27.5,79.99c-.2.2-.2.51,0,.71s.51.2.71,0c.2-.2.2-.51,0-.71-.2-.2-.51-.2-.71,0Z"/>
          <path class="cls-6" d="M29.52,82.01c-.2.2-.2.51,0,.71.2.2.51.2.71,0,.2-.2.2-.51,0-.71-.2-.2-.51-.2-.71,0Z"/>
          <path class="cls-6" d="M31.54,84.03c-.2.2-.2.51,0,.71.2.2.51.2.71,0,.2-.2.2-.51,0-.71-.2-.2-.51-.2-.71,0Z"/>
          <path class="cls-6" d="M33.57,86.06c-.2.2-.2.51,0,.71.2.2.51.2.71,0,.2-.2.2-.51,0-.71-.2-.2-.51-.2-.71,0Z"/>
          <path class="cls-6" d="M35.8,88.91c-.04-.3-.09-.6-.13-.9-.03.02-.06.04-.08.07-.2.2-.2.51,0,.71.06.06.14.1.21.12Z"/>
          <path class="cls-6" d="M12.02,68.56c.06-.06.1-.14.13-.22-.19.12-.38.24-.57.36.16.03.32-.02.44-.14Z"/>
          <path class="cls-6" d="M13.34,69.87c-.2.2-.2.51,0,.71.2.2.51.2.71,0s.2-.51,0-.71c-.2-.2-.51-.2-.71,0Z"/>
          <path class="cls-6" d="M15.36,71.9c-.2.2-.2.51,0,.71.2.2.51.2.71,0,.2-.2.2-.51,0-.71-.2-.2-.51-.2-.71,0Z"/>
          <path class="cls-6" d="M17.38,73.92c-.2.2-.2.51,0,.71.2.2.51.2.71,0,.2-.2.2-.51,0-.71-.2-.2-.51-.2-.71,0Z"/>
          <path class="cls-6" d="M19.41,75.94c-.2.2-.2.51,0,.71.2.2.51.2.71,0,.2-.2.2-.51,0-.71s-.51-.2-.71,0Z"/>
          <path class="cls-6" d="M21.43,77.96c-.2.2-.2.51,0,.71.2.2.51.2.71,0s.2-.51,0-.71c-.2-.2-.51-.2-.71,0Z"/>
          <path class="cls-6" d="M23.45,79.99c-.2.2-.2.51,0,.71.2.2.51.2.71,0s.2-.51,0-.71c-.2-.2-.51-.2-.71,0Z"/>
          <path class="cls-6" d="M25.47,82.01c-.2.2-.2.51,0,.71.2.2.51.2.71,0,.2-.2.2-.51,0-.71-.2-.2-.51-.2-.71,0Z"/>
          <path class="cls-6" d="M27.5,84.03c-.2.2-.2.51,0,.71.2.2.51.2.71,0,.2-.2.2-.51,0-.71-.2-.2-.51-.2-.71,0Z"/>
          <path class="cls-6" d="M29.52,86.06c-.2.2-.2.51,0,.71.2.2.51.2.71,0,.2-.2.2-.51,0-.71s-.51-.2-.71,0Z"/>
          <path class="cls-6" d="M31.54,88.08c-.2.2-.2.51,0,.71.2.2.51.2.71,0s.2-.51,0-.71c-.2-.2-.51-.2-.71,0Z"/>
          <path class="cls-6" d="M33.57,90.1c-.2.2-.2.51,0,.71.2.2.51.2.71,0s.2-.51,0-.71c-.2-.2-.51-.2-.71,0Z"/>
          <path class="cls-6" d="M36.3,92.83s.02-.03.03-.04c-.03-.24-.06-.48-.09-.72-.2-.14-.47-.13-.65.05-.2.2-.2.51,0,.71s.51.2.71,0Z"/>
          <path class="cls-6" d="M9.96,69.84c-.25.2-.5.4-.75.62.02.04.05.08.08.11.2.2.51.2.71,0,.2-.2.2-.51,0-.71-.01-.01-.03-.02-.04-.03Z"/>
          <path class="cls-6" d="M11.31,71.9c-.2.2-.2.51,0,.71.2.2.51.2.71,0,.2-.2.2-.51,0-.71-.2-.2-.51-.2-.71,0Z"/>
          <path class="cls-6" d="M13.34,73.92c-.2.2-.2.51,0,.71.2.2.51.2.71,0,.2-.2.2-.51,0-.71-.2-.2-.51-.2-.71,0Z"/>
          <path class="cls-6" d="M15.36,75.94c-.2.2-.2.51,0,.71.2.2.51.2.71,0,.2-.2.2-.51,0-.71-.2-.2-.51-.2-.71,0Z"/>
          <path class="cls-6" d="M17.38,77.96c-.2.2-.2.51,0,.71.2.2.51.2.71,0,.2-.2.2-.51,0-.71s-.51-.2-.71,0Z"/>
          <path class="cls-6" d="M19.41,79.99c-.2.2-.2.51,0,.71.2.2.51.2.71,0,.2-.2.2-.51,0-.71-.2-.2-.51-.2-.71,0Z"/>
          <path class="cls-6" d="M21.43,82.01c-.2.2-.2.51,0,.71.2.2.51.2.71,0,.2-.2.2-.51,0-.71-.2-.2-.51-.2-.71,0Z"/>
          <path class="cls-6" d="M23.45,84.03c-.2.2-.2.51,0,.71.2.2.51.2.71,0,.2-.2.2-.51,0-.71s-.51-.2-.71,0Z"/>
          <path class="cls-6" d="M25.47,86.06c-.2.2-.2.51,0,.71.2.2.51.2.71,0,.2-.2.2-.51,0-.71-.2-.2-.51-.2-.71,0Z"/>
          <path class="cls-6" d="M27.5,88.08c-.2.2-.2.51,0,.71.2.2.51.2.71,0,.2-.2.2-.51,0-.71s-.51-.2-.71,0Z"/>
          <path class="cls-6" d="M29.52,90.1c-.2.2-.2.51,0,.71.2.2.51.2.71,0,.2-.2.2-.51,0-.71-.2-.2-.51-.2-.71,0Z"/>
          <path class="cls-6" d="M31.54,92.13c-.2.2-.2.51,0,.71.2.2.51.2.71,0,.2-.2.2-.51,0-.71-.2-.2-.51-.2-.71,0Z"/>
          <path class="cls-6" d="M33.57,94.15c-.2.2-.2.51,0,.71.2.2.51.2.71,0,.2-.2.2-.51,0-.71s-.51-.2-.71,0Z"/>
          <path class="cls-6" d="M35.59,96.17c-.2.2-.2.51,0,.71.2.2.51.2.71,0,.2-.2.2-.51,0-.71-.2-.2-.51-.2-.71,0Z"/>
          <path class="cls-6" d="M7.85,71.81c-.21.24-.42.49-.62.75.01.02.02.03.04.05.2.2.51.2.71,0s.2-.51,0-.71c-.04-.04-.08-.06-.12-.09Z"/>
          <path class="cls-6" d="M9.29,73.92c-.2.2-.2.51,0,.71.2.2.51.2.71,0,.2-.2.2-.51,0-.71-.2-.2-.51-.2-.71,0Z"/>
          <path class="cls-6" d="M11.31,75.94c-.2.2-.2.51,0,.71.2.2.51.2.71,0,.2-.2.2-.51,0-.71-.2-.2-.51-.2-.71,0Z"/>
          <path class="cls-6" d="M13.34,77.96c-.2.2-.2.51,0,.71.2.2.51.2.71,0,.2-.2.2-.51,0-.71-.2-.2-.51-.2-.71,0Z"/>
          <path class="cls-6" d="M15.36,79.99c-.2.2-.2.51,0,.71s.51.2.71,0c.2-.2.2-.51,0-.71-.2-.2-.51-.2-.71,0Z"/>
          <path class="cls-6" d="M17.38,82.01c-.2.2-.2.51,0,.71.2.2.51.2.71,0s.2-.51,0-.71c-.2-.2-.51-.2-.71,0Z"/>
          <path class="cls-6" d="M19.41,84.03c-.2.2-.2.51,0,.71.2.2.51.2.71,0,.2-.2.2-.51,0-.71-.2-.2-.51-.2-.71,0Z"/>
          <path class="cls-6" d="M21.43,86.06c-.2.2-.2.51,0,.71.2.2.51.2.71,0,.2-.2.2-.51,0-.71s-.51-.2-.71,0Z"/>
          <path class="cls-6" d="M23.45,88.08c-.2.2-.2.51,0,.71.2.2.51.2.71,0,.2-.2.2-.51,0-.71-.2-.2-.51-.2-.71,0Z"/>
          <path class="cls-6" d="M25.47,90.1c-.2.2-.2.51,0,.71s.51.2.71,0c.2-.2.2-.51,0-.71-.2-.2-.51-.2-.71,0Z"/>
          <path class="cls-6" d="M27.5,92.13c-.2.2-.2.51,0,.71.2.2.51.2.71,0s.2-.51,0-.71c-.2-.2-.51-.2-.71,0Z"/>
          <path class="cls-6" d="M29.52,94.15c-.2.2-.2.51,0,.71.2.2.51.2.71,0,.2-.2.2-.51,0-.71-.2-.2-.51-.2-.71,0Z"/>
          <path class="cls-6" d="M31.54,96.17c-.2.2-.2.51,0,.71.2.2.51.2.71,0,.2-.2.2-.51,0-.71s-.51-.2-.71,0Z"/>
          <path class="cls-6" d="M33.57,98.19c-.2.2-.2.51,0,.71.2.2.51.2.71,0,.2-.2.2-.51,0-.71-.2-.2-.51-.2-.71,0Z"/>
          <path class="cls-6" d="M35.59,100.22c-.2.2-.2.51,0,.71.2.2.51.2.71,0,.2-.2.2-.51,0-.71-.2-.2-.51-.2-.71,0Z"/>
          <path class="cls-6" d="M37.47,102.57c0,.05,0,.1.02.15,0-.05-.01-.1-.02-.15Z"/>
          <path class="cls-6" d="M6.1,74.23c-.09.16-.19.32-.28.49.05-.02.09-.05.13-.09.11-.11.15-.25.14-.4Z"/>
          <path class="cls-6" d="M7.27,75.94c-.2.2-.2.51,0,.71.2.2.51.2.71,0,.2-.2.2-.51,0-.71-.2-.2-.51-.2-.71,0Z"/>
          <path class="cls-6" d="M9.29,77.96c-.2.2-.2.51,0,.71s.51.2.71,0,.2-.51,0-.71c-.2-.2-.51-.2-.71,0Z"/>
          <path class="cls-6" d="M11.31,79.99c-.2.2-.2.51,0,.71.2.2.51.2.71,0s.2-.51,0-.71c-.2-.2-.51-.2-.71,0Z"/>
          <path class="cls-6" d="M13.34,82.01c-.2.2-.2.51,0,.71s.51.2.71,0c.2-.2.2-.51,0-.71-.2-.2-.51-.2-.71,0Z"/>
          <path class="cls-6" d="M15.36,84.03c-.2.2-.2.51,0,.71.2.2.51.2.71,0,.2-.2.2-.51,0-.71-.2-.2-.51-.2-.71,0Z"/>
          <path class="cls-6" d="M17.38,86.06c-.2.2-.2.51,0,.71.2.2.51.2.71,0,.2-.2.2-.51,0-.71-.2-.2-.51-.2-.71,0Z"/>
          <path class="cls-6" d="M19.41,88.08c-.2.2-.2.51,0,.71s.51.2.71,0,.2-.51,0-.71c-.2-.2-.51-.2-.71,0Z"/>
          <path class="cls-6" d="M21.43,90.1c-.2.2-.2.51,0,.71.2.2.51.2.71,0,.2-.2.2-.51,0-.71-.2-.2-.51-.2-.71,0Z"/>
          <path class="cls-6" d="M23.45,92.13c-.2.2-.2.51,0,.71s.51.2.71,0c.2-.2.2-.51,0-.71-.2-.2-.51-.2-.71,0Z"/>
          <path class="cls-6" d="M25.47,94.15c-.2.2-.2.51,0,.71.2.2.51.2.71,0,.2-.2.2-.51,0-.71-.2-.2-.51-.2-.71,0Z"/>
          <path class="cls-6" d="M27.5,96.17c-.2.2-.2.51,0,.71.2.2.51.2.71,0,.2-.2.2-.51,0-.71-.2-.2-.51-.2-.71,0Z"/>
          <path class="cls-6" d="M29.52,98.19c-.2.2-.2.51,0,.71s.51.2.71,0,.2-.51,0-.71c-.2-.2-.51-.2-.71,0Z"/>
          <path class="cls-6" d="M31.54,100.22c-.2.2-.2.51,0,.71.2.2.51.2.71,0,.2-.2.2-.51,0-.71-.2-.2-.51-.2-.71,0Z"/>
          <path class="cls-6" d="M33.57,102.24c-.2.2-.2.51,0,.71.2.2.51.2.71,0,.2-.2.2-.51,0-.71-.2-.2-.51-.2-.71,0Z"/>
          <path class="cls-6" d="M35.59,104.26c-.2.2-.2.51,0,.71.2.2.51.2.71,0,.2-.2.2-.51,0-.71-.2-.2-.51-.2-.71,0Z"/>
          <path class="cls-6" d="M37.93,107.14c-.03-.32-.06-.65-.1-.98-.08.02-.16.06-.22.13-.2.2-.2.51,0,.71.09.09.2.14.32.14Z"/>
          <path class="cls-6" d="M5.24,77.96c-.2.2-.2.51,0,.71.2.2.51.2.71,0,.2-.2.2-.51,0-.71-.2-.2-.51-.2-.71,0Z"/>
          <path class="cls-6" d="M7.27,79.99c-.2.2-.2.51,0,.71s.51.2.71,0c.2-.2.2-.51,0-.71-.2-.2-.51-.2-.71,0Z"/>
          <path class="cls-6" d="M9.29,82.01c-.2.2-.2.51,0,.71.2.2.51.2.71,0,.2-.2.2-.51,0-.71-.2-.2-.51-.2-.71,0Z"/>
          <path class="cls-6" d="M11.31,84.03c-.2.2-.2.51,0,.71.2.2.51.2.71,0,.2-.2.2-.51,0-.71s-.51-.2-.71,0Z"/>
          <path class="cls-6" d="M13.34,86.06c-.2.2-.2.51,0,.71.2.2.51.2.71,0,.2-.2.2-.51,0-.71-.2-.2-.51-.2-.71,0Z"/>
          <path class="cls-6" d="M15.36,88.08c-.2.2-.2.51,0,.71.2.2.51.2.71,0,.2-.2.2-.51,0-.71-.2-.2-.51-.2-.71,0Z"/>
          <path class="cls-6" d="M17.38,90.1c-.2.2-.2.51,0,.71s.51.2.71,0c.2-.2.2-.51,0-.71-.2-.2-.51-.2-.71,0Z"/>
          <path class="cls-6" d="M19.41,92.13c-.2.2-.2.51,0,.71.2.2.51.2.71,0,.2-.2.2-.51,0-.71-.2-.2-.51-.2-.71,0Z"/>
          <path class="cls-6" d="M21.43,94.15c-.2.2-.2.51,0,.71.2.2.51.2.71,0,.2-.2.2-.51,0-.71-.2-.2-.51-.2-.71,0Z"/>
          <path class="cls-6" d="M23.45,96.17c-.2.2-.2.51,0,.71.2.2.51.2.71,0,.2-.2.2-.51,0-.71-.2-.2-.51-.2-.71,0Z"/>
          <path class="cls-6" d="M25.47,98.19c-.2.2-.2.51,0,.71.2.2.51.2.71,0,.2-.2.2-.51,0-.71-.2-.2-.51-.2-.71,0Z"/>
          <path class="cls-6" d="M27.5,100.22c-.2.2-.2.51,0,.71s.51.2.71,0c.2-.2.2-.51,0-.71-.2-.2-.51-.2-.71,0Z"/>
          <path class="cls-6" d="M29.52,102.24c-.2.2-.2.51,0,.71.2.2.51.2.71,0,.2-.2.2-.51,0-.71s-.51-.2-.71,0Z"/>
          <path class="cls-6" d="M31.54,104.26c-.2.2-.2.51,0,.71.2.2.51.2.71,0,.2-.2.2-.51,0-.71-.2-.2-.51-.2-.71,0Z"/>
          <path class="cls-6" d="M33.57,106.29c-.2.2-.2.51,0,.71.2.2.51.2.71,0,.2-.2.2-.51,0-.71-.2-.2-.51-.2-.71,0Z"/>
          <path class="cls-6" d="M35.59,108.31c-.2.2-.2.51,0,.71.2.2.51.2.71,0,.2-.2.2-.51,0-.71-.2-.2-.51-.2-.71,0Z"/>
          <path class="cls-6" d="M38.3,111.05c-.02-.26-.05-.52-.07-.79-.19-.12-.45-.1-.62.07-.2.2-.2.51,0,.71.19.19.49.19.69.01Z"/>
          <path class="cls-6" d="M3.88,79.95c-.07.29-.13.58-.2.89.09-.02.18-.06.25-.13.2-.2.2-.51,0-.71-.02-.02-.03-.03-.05-.04Z"/>
          <path class="cls-6" d="M5.24,82.01c-.2.2-.2.51,0,.71.2.2.51.2.71,0,.2-.2.2-.51,0-.71-.2-.2-.51-.2-.71,0Z"/>
          <path class="cls-6" d="M7.27,84.03c-.2.2-.2.51,0,.71.2.2.51.2.71,0,.2-.2.2-.51,0-.71-.2-.2-.51-.2-.71,0Z"/>
          <path class="cls-6" d="M9.29,86.06c-.2.2-.2.51,0,.71.2.2.51.2.71,0,.2-.2.2-.51,0-.71s-.51-.2-.71,0Z"/>
          <path class="cls-6" d="M11.31,88.08c-.2.2-.2.51,0,.71.2.2.51.2.71,0,.2-.2.2-.51,0-.71-.2-.2-.51-.2-.71,0Z"/>
          <path class="cls-6" d="M13.34,90.1c-.2.2-.2.51,0,.71.2.2.51.2.71,0s.2-.51,0-.71c-.2-.2-.51-.2-.71,0Z"/>
          <path class="cls-6" d="M15.36,92.13c-.2.2-.2.51,0,.71.2.2.51.2.71,0,.2-.2.2-.51,0-.71-.2-.2-.51-.2-.71,0Z"/>
          <path class="cls-6" d="M17.38,94.15c-.2.2-.2.51,0,.71.2.2.51.2.71,0,.2-.2.2-.51,0-.71-.2-.2-.51-.2-.71,0Z"/>
          <path class="cls-6" d="M19.41,96.17c-.2.2-.2.51,0,.71.2.2.51.2.71,0,.2-.2.2-.51,0-.71s-.51-.2-.71,0Z"/>
          <path class="cls-6" d="M21.43,98.19c-.2.2-.2.51,0,.71.2.2.51.2.71,0s.2-.51,0-.71c-.2-.2-.51-.2-.71,0Z"/>
          <path class="cls-6" d="M23.45,100.22c-.2.2-.2.51,0,.71.2.2.51.2.71,0s.2-.51,0-.71c-.2-.2-.51-.2-.71,0Z"/>
          <path class="cls-6" d="M25.47,102.24c-.2.2-.2.51,0,.71.2.2.51.2.71,0,.2-.2.2-.51,0-.71-.2-.2-.51-.2-.71,0Z"/>
          <path class="cls-6" d="M27.5,104.26c-.2.2-.2.51,0,.71.2.2.51.2.71,0,.2-.2.2-.51,0-.71-.2-.2-.51-.2-.71,0Z"/>
          <path class="cls-6" d="M29.52,106.29c-.2.2-.2.51,0,.71.2.2.51.2.71,0,.2-.2.2-.51,0-.71-.2-.2-.51-.2-.71,0Z"/>
          <path class="cls-6" d="M31.54,108.31c-.2.2-.2.51,0,.71.2.2.51.2.71,0,.2-.2.2-.51,0-.71-.2-.2-.51-.2-.71,0Z"/>
          <path class="cls-6" d="M33.57,110.33c-.2.2-.2.51,0,.71.2.2.51.2.71,0,.2-.2.2-.51,0-.71-.2-.2-.51-.2-.71,0Z"/>
          <path class="cls-6" d="M35.59,112.35c-.2.2-.2.51,0,.71.2.2.51.2.71,0,.2-.2.2-.51,0-.71-.2-.2-.51-.2-.71,0Z"/>
          <path class="cls-6" d="M38.32,115.09c.2-.2.2-.51,0-.71-.2-.2-.51-.2-.71,0-.2.2-.2.51,0,.71.2.2.51.2.71,0Z"/>
          <path class="cls-6" d="M3.22,84.03s-.03.04-.04.05c-.02.17-.04.34-.05.51.02.05.06.1.1.14.2.2.51.2.71,0,.2-.2.2-.51,0-.71s-.51-.2-.71,0Z"/>
          <path class="cls-6" d="M5.24,86.06c-.2.2-.2.51,0,.71.2.2.51.2.71,0,.2-.2.2-.51,0-.71-.2-.2-.51-.2-.71,0Z"/>
          <path class="cls-6" d="M7.27,88.08c-.2.2-.2.51,0,.71.2.2.51.2.71,0,.2-.2.2-.51,0-.71s-.51-.2-.71,0Z"/>
          <path class="cls-6" d="M9.29,90.1c-.2.2-.2.51,0,.71.2.2.51.2.71,0,.2-.2.2-.51,0-.71-.2-.2-.51-.2-.71,0Z"/>
          <path class="cls-6" d="M11.31,92.13c-.2.2-.2.51,0,.71.2.2.51.2.71,0,.2-.2.2-.51,0-.71-.2-.2-.51-.2-.71,0Z"/>
          <path class="cls-6" d="M13.34,94.15c-.2.2-.2.51,0,.71.2.2.51.2.71,0,.2-.2.2-.51,0-.71s-.51-.2-.71,0Z"/>
          <path class="cls-6" d="M15.36,96.17c-.2.2-.2.51,0,.71.2.2.51.2.71,0,.2-.2.2-.51,0-.71-.2-.2-.51-.2-.71,0Z"/>
          <path class="cls-6" d="M17.38,98.19c-.2.2-.2.51,0,.71.2.2.51.2.71,0,.2-.2.2-.51,0-.71s-.51-.2-.71,0Z"/>
          <path class="cls-6" d="M19.41,100.22c-.2.2-.2.51,0,.71.2.2.51.2.71,0,.2-.2.2-.51,0-.71-.2-.2-.51-.2-.71,0Z"/>
          <path class="cls-6" d="M21.43,102.24c-.2.2-.2.51,0,.71.2.2.51.2.71,0,.2-.2.2-.51,0-.71s-.51-.2-.71,0Z"/>
          <path class="cls-6" d="M23.45,104.26c-.2.2-.2.51,0,.71.2.2.51.2.71,0,.2-.2.2-.51,0-.71s-.51-.2-.71,0Z"/>
          <path class="cls-6" d="M25.47,106.29c-.2.2-.2.51,0,.71.2.2.51.2.71,0,.2-.2.2-.51,0-.71-.2-.2-.51-.2-.71,0Z"/>
          <path class="cls-6" d="M27.5,108.31c-.2.2-.2.51,0,.71s.51.2.71,0c.2-.2.2-.51,0-.71-.2-.2-.51-.2-.71,0Z"/>
          <path class="cls-6" d="M29.52,110.33c-.2.2-.2.51,0,.71.2.2.51.2.71,0,.2-.2.2-.51,0-.71-.2-.2-.51-.2-.71,0Z"/>
          <path class="cls-6" d="M31.54,112.35c-.2.2-.2.51,0,.71.2.2.51.2.71,0,.2-.2.2-.51,0-.71-.2-.2-.51-.2-.71,0Z"/>
          <path class="cls-6" d="M33.57,114.38c-.2.2-.2.51,0,.71.2.2.51.2.71,0,.2-.2.2-.51,0-.71-.2-.2-.51-.2-.71,0Z"/>
          <path class="cls-6" d="M35.59,116.4c-.2.2-.2.51,0,.71.2.2.51.2.71,0,.2-.2.2-.51,0-.71-.2-.2-.51-.2-.71,0Z"/>
          <path class="cls-6" d="M37.61,118.42c-.2.2-.2.51,0,.71.2.2.51.2.71,0,.2-.2.2-.51,0-.71-.2-.2-.51-.2-.71,0Z"/>
          <path class="cls-6" d="M3.22,88.08c-.2.2-.2.51,0,.71.2.2.51.2.71,0,.2-.2.2-.51,0-.71-.2-.2-.51-.2-.71,0Z"/>
          <path class="cls-6" d="M5.24,90.1c-.2.2-.2.51,0,.71s.51.2.71,0c.2-.2.2-.51,0-.71-.2-.2-.51-.2-.71,0Z"/>
          <path class="cls-6" d="M7.27,92.13c-.2.2-.2.51,0,.71.2.2.51.2.71,0s.2-.51,0-.71c-.2-.2-.51-.2-.71,0Z"/>
          <path class="cls-6" d="M9.29,94.15c-.2.2-.2.51,0,.71.2.2.51.2.71,0,.2-.2.2-.51,0-.71-.2-.2-.51-.2-.71,0Z"/>
          <path class="cls-6" d="M11.31,96.17c-.2.2-.2.51,0,.71.2.2.51.2.71,0,.2-.2.2-.51,0-.71-.2-.2-.51-.2-.71,0Z"/>
          <path class="cls-6" d="M13.34,98.19c-.2.2-.2.51,0,.71.2.2.51.2.71,0,.2-.2.2-.51,0-.71-.2-.2-.51-.2-.71,0Z"/>
          <path class="cls-6" d="M15.36,100.22c-.2.2-.2.51,0,.71s.51.2.71,0c.2-.2.2-.51,0-.71-.2-.2-.51-.2-.71,0Z"/>
          <path class="cls-6" d="M17.38,102.24c-.2.2-.2.51,0,.71.2.2.51.2.71,0,.2-.2.2-.51,0-.71-.2-.2-.51-.2-.71,0Z"/>
          <path class="cls-6" d="M19.41,104.26c-.2.2-.2.51,0,.71.2.2.51.2.71,0,.2-.2.2-.51,0-.71-.2-.2-.51-.2-.71,0Z"/>
          <path class="cls-6" d="M21.43,106.29c-.2.2-.2.51,0,.71.2.2.51.2.71,0,.2-.2.2-.51,0-.71-.2-.2-.51-.2-.71,0Z"/>
          <path class="cls-6" d="M23.45,108.31c-.2.2-.2.51,0,.71.2.2.51.2.71,0s.2-.51,0-.71c-.2-.2-.51-.2-.71,0Z"/>
          <path class="cls-6" d="M25.47,110.33c-.2.2-.2.51,0,.71.2.2.51.2.71,0,.2-.2.2-.51,0-.71-.2-.2-.51-.2-.71,0Z"/>
          <path class="cls-6" d="M27.5,112.35c-.2.2-.2.51,0,.71.2.2.51.2.71,0,.2-.2.2-.51,0-.71-.2-.2-.51-.2-.71,0Z"/>
          <path class="cls-6" d="M29.52,114.38c-.2.2-.2.51,0,.71.2.2.51.2.71,0,.2-.2.2-.51,0-.71-.2-.2-.51-.2-.71,0Z"/>
          <path class="cls-6" d="M31.54,116.4c-.2.2-.2.51,0,.71.2.2.51.2.71,0,.2-.2.2-.51,0-.71s-.51-.2-.71,0Z"/>
          <path class="cls-6" d="M33.57,118.42c-.2.2-.2.51,0,.71.2.2.51.2.71,0,.2-.2.2-.51,0-.71-.2-.2-.51-.2-.71,0Z"/>
          <path class="cls-6" d="M3.22,92.13c-.2.2-.2.51,0,.71s.51.2.71,0c.2-.2.2-.51,0-.71-.2-.2-.51-.2-.71,0Z"/>
          <path class="cls-6" d="M5.24,94.15c-.2.2-.2.51,0,.71.2.2.51.2.71,0,.2-.2.2-.51,0-.71-.2-.2-.51-.2-.71,0Z"/>
          <path class="cls-6" d="M7.27,96.17c-.2.2-.2.51,0,.71.2.2.51.2.71,0,.2-.2.2-.51,0-.71-.2-.2-.51-.2-.71,0Z"/>
          <path class="cls-6" d="M9.29,98.19c-.2.2-.2.51,0,.71s.51.2.71,0,.2-.51,0-.71c-.2-.2-.51-.2-.71,0Z"/>
          <path class="cls-6" d="M11.31,100.22c-.2.2-.2.51,0,.71.2.2.51.2.71,0s.2-.51,0-.71c-.2-.2-.51-.2-.71,0Z"/>
          <path class="cls-6" d="M13.34,102.24c-.2.2-.2.51,0,.71.2.2.51.2.71,0,.2-.2.2-.51,0-.71-.2-.2-.51-.2-.71,0Z"/>
          <path class="cls-6" d="M15.36,104.26c-.2.2-.2.51,0,.71.2.2.51.2.71,0,.2-.2.2-.51,0-.71-.2-.2-.51-.2-.71,0Z"/>
          <path class="cls-6" d="M17.38,106.29c-.2.2-.2.51,0,.71.2.2.51.2.71,0,.2-.2.2-.51,0-.71-.2-.2-.51-.2-.71,0Z"/>
          <path class="cls-6" d="M19.41,108.31c-.2.2-.2.51,0,.71.2.2.51.2.71,0,.2-.2.2-.51,0-.71-.2-.2-.51-.2-.71,0Z"/>
          <path class="cls-6" d="M21.43,110.33c-.2.2-.2.51,0,.71.2.2.51.2.71,0,.2-.2.2-.51,0-.71-.2-.2-.51-.2-.71,0Z"/>
          <path class="cls-6" d="M23.45,112.35c-.2.2-.2.51,0,.71.2.2.51.2.71,0,.2-.2.2-.51,0-.71-.2-.2-.51-.2-.71,0Z"/>
          <path class="cls-6" d="M25.47,114.38c-.2.2-.2.51,0,.71.2.2.51.2.71,0,.2-.2.2-.51,0-.71-.2-.2-.51-.2-.71,0Z"/>
          <path class="cls-6" d="M27.5,116.4c-.2.2-.2.51,0,.71.2.2.51.2.71,0,.2-.2.2-.51,0-.71-.2-.2-.51-.2-.71,0Z"/>
          <path class="cls-6" d="M29.52,118.42c-.19.19-.19.5-.01.69l.65.07s.05-.04.07-.06c.2-.2.2-.51,0-.71-.2-.2-.51-.2-.71,0Z"/>
          <path class="cls-6" d="M3.22,96.17c-.2.2-.2.51,0,.71.2.2.51.2.71,0,.2-.2.2-.51,0-.71-.2-.2-.51-.2-.71,0Z"/>
          <path class="cls-6" d="M5.24,98.19c-.2.2-.2.51,0,.71.2.2.51.2.71,0,.2-.2.2-.51,0-.71-.2-.2-.51-.2-.71,0Z"/>
          <path class="cls-6" d="M7.27,100.22c-.2.2-.2.51,0,.71s.51.2.71,0c.2-.2.2-.51,0-.71-.2-.2-.51-.2-.71,0Z"/>
          <path class="cls-6" d="M9.29,102.24c-.2.2-.2.51,0,.71.2.2.51.2.71,0,.2-.2.2-.51,0-.71s-.51-.2-.71,0Z"/>
          <path class="cls-6" d="M11.31,104.26c-.2.2-.2.51,0,.71.2.2.51.2.71,0,.2-.2.2-.51,0-.71s-.51-.2-.71,0Z"/>
          <path class="cls-6" d="M13.34,106.29c-.2.2-.2.51,0,.71.2.2.51.2.71,0,.2-.2.2-.51,0-.71-.2-.2-.51-.2-.71,0Z"/>
          <path class="cls-6" d="M15.36,108.31c-.2.2-.2.51,0,.71s.51.2.71,0c.2-.2.2-.51,0-.71-.2-.2-.51-.2-.71,0Z"/>
          <path class="cls-6" d="M17.38,110.33c-.2.2-.2.51,0,.71.2.2.51.2.71,0,.2-.2.2-.51,0-.71-.2-.2-.51-.2-.71,0Z"/>
          <path class="cls-6" d="M19.41,112.35c-.2.2-.2.51,0,.71.2.2.51.2.71,0,.2-.2.2-.51,0-.71-.2-.2-.51-.2-.71,0Z"/>
          <path class="cls-6" d="M21.43,114.38c-.2.2-.2.51,0,.71.2.2.51.2.71,0,.2-.2.2-.51,0-.71-.2-.2-.51-.2-.71,0Z"/>
          <path class="cls-6" d="M23.45,116.4c-.2.2-.2.51,0,.71.2.2.51.2.71,0,.2-.2.2-.51,0-.71-.2-.2-.51-.2-.71,0Z"/>
          <path class="cls-6" d="M25.47,118.42c-.07.07-.11.15-.13.24l.98.11c0-.12-.05-.25-.15-.34-.2-.2-.51-.2-.71,0Z"/>
          <path class="cls-6" d="M3.22,100.22c-.2.2-.2.51,0,.71.2.2.51.2.71,0s.2-.51,0-.71c-.2-.2-.51-.2-.71,0Z"/>
          <path class="cls-6" d="M5.24,102.24c-.2.2-.2.51,0,.71.2.2.51.2.71,0,.2-.2.2-.51,0-.71-.2-.2-.51-.2-.71,0Z"/>
          <path class="cls-6" d="M7.27,104.26c-.2.2-.2.51,0,.71.2.2.51.2.71,0,.2-.2.2-.51,0-.71-.2-.2-.51-.2-.71,0Z"/>
          <path class="cls-6" d="M9.29,106.29c-.2.2-.2.51,0,.71.2.2.51.2.71,0,.2-.2.2-.51,0-.71-.2-.2-.51-.2-.71,0Z"/>
          <path class="cls-6" d="M11.31,108.31c-.2.2-.2.51,0,.71.2.2.51.2.71,0s.2-.51,0-.71c-.2-.2-.51-.2-.71,0Z"/>
          <path class="cls-6" d="M13.34,110.33c-.2.2-.2.51,0,.71.2.2.51.2.71,0,.2-.2.2-.51,0-.71-.2-.2-.51-.2-.71,0Z"/>
          <path class="cls-6" d="M15.36,112.35c-.2.2-.2.51,0,.71.2.2.51.2.71,0,.2-.2.2-.51,0-.71-.2-.2-.51-.2-.71,0Z"/>
          <path class="cls-6" d="M17.38,114.38c-.2.2-.2.51,0,.71.2.2.51.2.71,0,.2-.2.2-.51,0-.71-.2-.2-.51-.2-.71,0Z"/>
          <path class="cls-6" d="M19.41,116.4c-.2.2-.2.51,0,.71.2.2.51.2.71,0,.2-.2.2-.51,0-.71s-.51-.2-.71,0Z"/>
          <path class="cls-6" d="M1.81,102.17c-.02.3-.05.6-.07.89.06-.02.12-.06.17-.11.2-.2.2-.51,0-.71-.03-.03-.06-.05-.1-.07Z"/>
          <path class="cls-6" d="M3.22,104.26c-.2.2-.2.51,0,.71.2.2.51.2.71,0,.2-.2.2-.51,0-.71s-.51-.2-.71,0Z"/>
          <path class="cls-6" d="M5.24,106.29c-.2.2-.2.51,0,.71.2.2.51.2.71,0,.2-.2.2-.51,0-.71-.2-.2-.51-.2-.71,0Z"/>
          <path class="cls-6" d="M7.27,108.31c-.2.2-.2.51,0,.71s.51.2.71,0c.2-.2.2-.51,0-.71-.2-.2-.51-.2-.71,0Z"/>
          <path class="cls-6" d="M9.29,110.33c-.2.2-.2.51,0,.71.2.2.51.2.71,0,.2-.2.2-.51,0-.71-.2-.2-.51-.2-.71,0Z"/>
          <path class="cls-6" d="M11.31,112.35c-.2.2-.2.51,0,.71.2.2.51.2.71,0,.2-.2.2-.51,0-.71-.2-.2-.51-.2-.71,0Z"/>
          <path class="cls-6" d="M13.34,114.38c-.2.2-.2.51,0,.71.2.2.51.2.71,0,.2-.2.2-.51,0-.71-.2-.2-.51-.2-.71,0Z"/>
          <path class="cls-6" d="M15.36,116.4c-.2.2-.2.51,0,.71.2.2.51.2.71,0,.2-.2.2-.51,0-.71-.2-.2-.51-.2-.71,0Z"/>
          <path class="cls-6" d="M1.49,106.15c-.03.33-.05.65-.08.97.17.05.37.01.5-.12.2-.2.2-.51,0-.71-.11-.11-.27-.16-.42-.14Z"/>
          <path class="cls-6" d="M3.22,108.31c-.2.2-.2.51,0,.71.2.2.51.2.71,0s.2-.51,0-.71c-.2-.2-.51-.2-.71,0Z"/>
          <path class="cls-6" d="M5.24,110.33c-.2.2-.2.51,0,.71.2.2.51.2.71,0,.2-.2.2-.51,0-.71-.2-.2-.51-.2-.71,0Z"/>
          <path class="cls-6" d="M7.27,112.35c-.2.2-.2.51,0,.71.2.2.51.2.71,0,.2-.2.2-.51,0-.71-.2-.2-.51-.2-.71,0Z"/>
          <path class="cls-6" d="M9.29,114.38c-.2.2-.2.51,0,.71.2.2.51.2.71,0,.2-.2.2-.51,0-.71-.2-.2-.51-.2-.71,0Z"/>
          <path class="cls-6" d="M11.31,116.4c-.2.2-.2.51,0,.71,0,0,0,0,.01.01l.59.06s.07-.05.1-.08c.2-.2.2-.51,0-.71-.2-.2-.51-.2-.71,0Z"/>
          <path class="cls-6" d="M1.2,110.33s-.05.06-.07.09c-.01.15-.03.3-.04.45.02.06.06.12.11.17.2.2.51.2.71,0,.2-.2.2-.51,0-.71-.2-.2-.51-.2-.71,0Z"/>
          <path class="cls-6" d="M3.22,112.35c-.2.2-.2.51,0,.71.2.2.51.2.71,0,.2-.2.2-.51,0-.71-.2-.2-.51-.2-.71,0Z"/>
          <path class="cls-6" d="M5.24,114.38c-.2.2-.2.51,0,.71.2.2.51.2.71,0,.2-.2.2-.51,0-.71-.2-.2-.51-.2-.71,0Z"/>
          <path class="cls-6" d="M7.27,116.4c-.07.07-.12.16-.14.26l.99.11c0-.13-.04-.27-.15-.37-.2-.2-.51-.2-.71,0Z"/>
          <path class="cls-6" d="M1.2,114.38c-.2.2-.2.51,0,.71.2.2.51.2.71,0,.2-.2.2-.51,0-.71-.2-.2-.51-.2-.71,0Z"/>
          <path class="cls-6" d="M3.5,116.26l.26.03c-.08-.03-.17-.04-.26-.03Z"/>
        </g>
        <g>
          <g>
            <g>
              <path class="cls-4" d="M56.65,30.69c.01-3.68-1.07-12.76-8.03-18.85-3.29-2.89-8.55-4.11-12.69-3.68-11.61,1.2-12.04,14.83-11.59,20.27.3,3.67.61,7.12.61,7.12l.49,5.42,7.02,8.75s8.07,6.34,14.32,5.71c3.68-.37,10.61-8.54,9.86-16.74-.38-4.19,0-6.21.01-7.99Z"/>
              <path class="cls-1" d="M46.77,56.24s.06,0,.09,0c4.44-.45,11.34-9.33,10.59-17.62-.27-2.94-.15-4.77-.06-6.24.04-.59.07-1.14.07-1.67,0-2.03-.36-12.51-8.3-19.47-3.65-3.2-9.18-4.26-13.12-3.9-.06,0-.13.01-.19.02-5.28.55-9.09,3.69-11,9.08-1.69,4.77-1.49,10.03-1.32,12.06.3,3.63.61,7.09.61,7.13l.49,5.42c.04.45.44.78.88.74s.78-.44.74-.88l-.49-5.42s-.32-3.49-.61-7.11c-.16-1.93-.35-6.91,1.23-11.38,1.71-4.83,4.95-7.52,9.63-8.01.06,0,.12-.01.18-.02,3.59-.33,8.61.62,11.9,3.5,7.42,6.5,7.76,16.33,7.75,18.24,0,.48-.03.99-.07,1.57-.1,1.53-.21,3.43.06,6.49.69,7.64-5.86,15.53-9.13,15.86-.03,0-.05,0-.08,0-5.84.53-13.58-5.48-13.66-5.55-.35-.28-.87-.22-1.14.14-.28.35-.22.87.14,1.14.34.27,8.32,6.47,14.81,5.89Z"/>
            </g>
            <path class="cls-2" d="M48.01,10.75c-7.58-7.55-19.35-4.19-24.52,1.71-3.96,4.52-5.73,9.19-6.03,13.53-.85,8.53,4.79,14.75,4.79,14.75l4.67-6.71,2.11-.18s1.89-3.75,2.86-5.17c.98-1.42,6.26-3.51,6.26-3.51,0,0,3.85-.54,6.31-2.74,2.07-2.07,3.16-5.79,1.79-9.56l3.25,1.94c6.54,4.54,7.1,14.2,7.1,14.2,0,0,1.89-4.28.42-9.24-1.44-4.88-4.84-8.27-9-9.03Z"/>
            <g>
              <path class="cls-4" d="M25.89,32.77c-1.33-1.12-6.4-1.24-5.84,4.93.36,3.93,4.63,7.3,8.16,6.04l-.94-8.92s-.34-1.16-1.38-2.04Z"/>
              <path class="cls-1" d="M27.16,44.79c.45-.04.9-.14,1.32-.29.42-.15.64-.62.49-1.04-.15-.42-.62-.64-1.04-.49-1.24.44-2.73.2-4.07-.66-1.69-1.08-2.83-2.87-3-4.69-.2-2.18.34-3.67,1.57-4.3,1.16-.6,2.53-.27,2.94.07.83.7,1.12,1.64,1.12,1.65.13.43.58.68,1.01.56.43-.13.68-.58.56-1.01-.02-.06-.42-1.41-1.64-2.44-.97-.82-3.05-1.15-4.74-.27-1.06.55-2.79,2.05-2.44,5.89.21,2.3,1.64,4.57,3.74,5.91,1.34.85,2.8,1.23,4.18,1.11Z"/>
            </g>
            <path class="cls-2" d="M26.09,40.51s3.61-.46,4.43-8.04c.36-3.29,1.72-5.23,1.72-5.23l-5.83,4.69c1.38,4.76-.32,8.59-.32,8.59Z"/>
            <path class="cls-1" d="M25.35,40.18s1.57-3.64.29-8.03c-.13-.43.12-.88.55-1.01.43-.13.88.12,1.01.55.82,2.82.62,5.32.28,6.99.87-.96,1.86-2.8,2.24-6.31.37-3.46,1.8-5.52,1.86-5.61.26-.37.77-.45,1.13-.2.09.06.15.13.21.22,1.72-1.07,4.07-2.04,4.84-2.35.44-.32,3.3-2.58,3.47-6.97.02-.45.4-.8.84-.78.45.02.8.39.78.84-.1,2.7-1.07,4.71-2.05,6.08,1.03-.39,2.18-.96,3.1-1.77,1.73-1.74,2.89-5.1,1.58-8.68-.15-.42.06-.89.49-1.04.42-.15.89.06,1.04.49,1.56,4.27.13,8.31-1.98,10.41-.01.01-.02.02-.03.03-2.41,2.16-5.98,2.81-6.64,2.92-2.1.84-5.23,2.35-5.8,3.18-.24.35-.53.84-.84,1.39-.16.59-.3,1.27-.38,2.03-.88,8.14-4.97,8.74-5.14,8.77,0,0-.02,0-.03,0-.28.03-.56-.1-.73-.33-.18-.24-.21-.55-.09-.82Z"/>
            <path class="cls-1" d="M16.65,25.92c.35-4.97,2.44-9.68,6.23-14,3.22-3.68,8.65-6.16,13.82-6.34,4.53-.15,8.57,1.37,11.71,4.41,4.38.9,7.88,4.45,9.39,9.55,1.53,5.18-.37,9.62-.46,9.8-.15.34-.52.54-.89.47-.37-.07-.65-.38-.67-.75,0-.09-.63-9.33-6.75-13.58-.37-.26-.46-.76-.2-1.13.26-.37.76-.46,1.13-.2,4.04,2.8,5.9,7.37,6.75,10.7.11-1.4.05-3.08-.47-4.84-1.36-4.59-4.49-7.75-8.37-8.46-.16-.03-.31-.11-.43-.22-3.59-3.58-7.79-4.21-10.69-4.11-4.74.16-9.71,2.43-12.65,5.78-3.55,4.05-5.51,8.43-5.83,13.05,0,0,0,.02,0,.02-.38,3.82.62,7.18,1.78,9.66-.32.9-.37,1.87-.33,2.87-1.63-2.69-3.61-7.21-3.07-12.68Z"/>
          </g>
          <g>
            <path class="cls-4" d="M29.65,43.63c.07.8-.52,1.5-1.32,1.57s-1.5-.52-1.57-1.32c-.07-.8.52-1.5,1.32-1.57.8-.07,1.5.52,1.57,1.32Z"/>
            <path class="cls-1" d="M28.21,46.01c-.53,0-1.04-.18-1.45-.53-.46-.39-.75-.93-.8-1.54-.05-.6.13-1.19.52-1.65.39-.46.93-.75,1.54-.8.6-.05,1.19.13,1.65.52.46.39.75.93.8,1.54,0,0,0,0,0,0,.05.6-.13,1.19-.52,1.65-.39.46-.93.75-1.54.8-.07,0-.13,0-.2,0ZM28.21,43.12s-.04,0-.06,0c-.17.01-.32.09-.43.22-.11.13-.16.29-.15.46.01.17.09.32.22.43.13.11.29.16.46.15.17-.01.32-.09.43-.22.11-.13.16-.29.15-.46-.01-.17-.09-.32-.22-.43-.12-.1-.26-.15-.41-.15Z"/>
          </g>
          <path class="cls-1" d="M47.83,41.71c0-.23.39-.31.76-.62.35-.33.52-.72.72-.67.21.05.61.88-.09,1.53-.74.61-1.38,0-1.38-.24Z"/>
          <path class="cls-1" d="M35.7,33.98s-.06,0-.09,0c-.4-.05-.68-.41-.63-.81.16-1.32,1.5-2.26,2.12-2.51,2.22-.89,3.64.4,3.7.46.29.27.31.73.04,1.02-.27.29-.72.31-1.02.04-.05-.04-.86-.71-2.18-.18-.38.15-1.15.76-1.22,1.34-.05.37-.36.63-.72.63Z"/>
          <path class="cls-1" d="M48.02,32.9c-.06,0-.12,0-.19-.02-.39-.1-.62-.5-.51-.89.29-1.09,1.12-1.9,2.34-2.28,1-.31,2.51-.21,3.48,1.13.24.32.17.78-.16,1.01-.32.24-.78.17-1.01-.16-.69-.94-1.76-.64-1.88-.6-.52.16-1.18.52-1.38,1.27-.09.32-.38.54-.7.54Z"/>
          <path class="cls-1" d="M36.17,32.58c.31-.38.73-.63,1.14-.67.32-.04.67.08.98.32.44.33.74.87.79,1.39.05.48-.14,1.01-.51,1.41-.28.31-.63.5-.98.54-.01,0-.02,0-.04,0-.77.05-1.66-.81-1.8-1.75-.06-.39.09-.86.41-1.24Z"/>
          <path class="cls-1" d="M48.41,31.51c.28-.38.65-.62,1.02-.66.29-.03.6.09.89.33.4.34.67.88.72,1.4.05.48-.12,1.01-.44,1.4-.25.31-.56.5-.87.53-.01,0-.02,0-.03,0-.69.04-1.5-.83-1.64-1.77-.06-.39.08-.85.36-1.24Z"/>
          <path class="cls-1" d="M34.85,30.55c-.16,0-.32-.06-.45-.18-.25-.25-.25-.65,0-.9,1.13-1.14,3.91-2.49,6.92-1.56.33.1.52.46.42.79-.1.33-.46.52-.79.42-2.47-.76-4.73.32-5.64,1.24-.12.12-.29.19-.45.19Z"/>
          <path class="cls-1" d="M47.92,28.59c-.23,0-.45-.12-.56-.34-.16-.31-.04-.69.27-.85,2.25-1.16,4.56-.61,5.58-.1.31.16.44.54.28.85-.16.31-.54.44-.85.28-.8-.4-2.63-.83-4.42.1-.09.05-.19.07-.29.07Z"/>
          <path class="cls-1" d="M44.73,49.63c-.1,0-.21-.03-.31-.08-1.77-.98-2.65-3.6-2.69-3.71-.06-.18-.03-.39.07-.55.11-.16.28-.27.47-.28l6.79-.59c.2-.02.39.06.52.2.13.14.19.34.16.53-.02.11-.45,2.59-1.86,3.92-.25.24-.66.23-.9-.03-.24-.25-.23-.66.03-.9.67-.63,1.07-1.67,1.28-2.4l-5.05.44c.34.73.96,1.78,1.79,2.25.31.17.41.56.24.86-.12.21-.33.33-.55.33Z"/>
        </g>
        <path class="cls-4" d="M80.94,84.35l-.75-.39-7.37-3.8-.59-.3-.87-.45-1.62.13c-.37-.97-.76-1.92-1.16-2.82-.13-.31-.27-.61-.41-.9-.69-1.49-1.4-2.78-2.1-3.72-1.92-2.58-4.96-4.46-7.39-5.81-.29-.16-.57-.31-.84-.46-.48-.26-.93-.49-1.32-.71-2.09-1.14-5.47-3.14-8.05-4.7-.29-.18-.58-.35-.85-.51-1.61-.97-2.74-1.66-2.74-1.66,0,0,.19,2.06.45,2.5.05.08.28.39.64.88.15.21.33.45.52.72.33.46.71,1,1.12,1.61.15.22.3.45.45.68,1.29,1.97,2.77,4.51,3.85,7.14.13.31.25.62.36.93.31.85.58,1.71.77,2.56.39,1.7.71,3.98.97,6.6.03.32.06.65.09.98.09.99.17,2.03.25,3.1.02.29.04.58.06.87.07,1.13.14,2.3.2,3.48,0,.08,0,.16.01.25.66,13.32.46,28.92.46,28.92,0,0,2.14.4,5,.84.12.02.25.04.38.06,1.04.16,2.15.31,3.29.45.32.04.65.08.97.12,1.16.13,2.32.25,3.41.33.09,0,.17.01.26.02,1.73.11,3.27.13,4.37-.02,4.72-.64,5.25-3.19,6.18-5.29.2-.45.57-1.54,1.05-3.03.07-.22.14-.45.22-.69.5-1.58,1.1-3.52,1.74-5.62.03-.09.06-.19.09-.28.95-3.12,1.97-6.54,2.87-9.59.02-.07.04-.14.06-.21.64-2.15,1.21-4.1,1.66-5.62.08-.29.16-.56.24-.81.43-1.47.69-2.36.69-2.36l-6.63-3.42Z"/>
        <g>
          <path class="cls-6" d="M80.8,84.74c.11-.11.15-.25.14-.39l-.75-.39s-.07.04-.1.07c-.2.2-.2.51,0,.71.2.2.51.2.71,0Z"/>
          <path class="cls-6" d="M82.12,86.06c-.2.2-.2.51,0,.71.2.2.51.2.71,0,.2-.2.2-.51,0-.71s-.51-.2-.71,0Z"/>
          <path class="cls-6" d="M84.14,88.08c-.2.2-.2.51,0,.71s.51.2.71,0c.2-.2.2-.51,0-.71-.2-.2-.51-.2-.71,0Z"/>
          <path class="cls-6" d="M86.87,90.1c-.2-.2-.51-.2-.71,0-.2.2-.2.51,0,.71.13.13.32.17.49.13.08-.29.16-.56.24-.81,0,0-.01-.01-.02-.02Z"/>
          <path class="cls-6" d="M58.55,66.54c.07-.07.11-.15.13-.24-.29-.16-.57-.31-.84-.46-.19.2-.19.51,0,.7.2.2.51.2.71,0Z"/>
          <path class="cls-6" d="M59.86,67.85c-.2.2-.2.51,0,.71.2.2.51.2.71,0,.2-.2.2-.51,0-.71-.2-.2-.51-.2-.71,0Z"/>
          <path class="cls-6" d="M61.89,69.87c-.2.2-.2.51,0,.71.2.2.51.2.71,0,.2-.2.2-.51,0-.71-.2-.2-.51-.2-.71,0Z"/>
          <path class="cls-6" d="M63.91,71.9c-.2.2-.2.51,0,.71s.51.2.71,0c.2-.2.2-.51,0-.71-.2-.2-.51-.2-.71,0Z"/>
          <path class="cls-6" d="M65.93,73.92c-.2.2-.2.51,0,.71.2.2.51.2.71,0,.2-.2.2-.51,0-.71-.2-.2-.51-.2-.71,0Z"/>
          <path class="cls-6" d="M68.58,76.72c-.13-.31-.27-.61-.41-.9-.08.02-.16.06-.22.13-.2.2-.2.51,0,.71.17.17.43.19.63.07Z"/>
          <path class="cls-6" d="M72.71,80.7c.14-.14.18-.35.11-.53l-.59-.3c-.08.02-.16.06-.23.13-.2.2-.2.51,0,.71.2.2.51.2.71,0Z"/>
          <path class="cls-6" d="M74.02,82.01c-.2.2-.2.51,0,.71.2.2.51.2.71,0,.2-.2.2-.51,0-.71-.2-.2-.51-.2-.71,0Z"/>
          <path class="cls-6" d="M76.05,84.03c-.2.2-.2.51,0,.71.2.2.51.2.71,0,.2-.2.2-.51,0-.71-.2-.2-.51-.2-.71,0Z"/>
          <path class="cls-6" d="M78.07,86.06c-.2.2-.2.51,0,.71.2.2.51.2.71,0,.2-.2.2-.51,0-.71-.2-.2-.51-.2-.71,0Z"/>
          <path class="cls-6" d="M80.09,88.08c-.2.2-.2.51,0,.71.2.2.51.2.71,0s.2-.51,0-.71c-.2-.2-.51-.2-.71,0Z"/>
          <path class="cls-6" d="M82.12,90.1c-.2.2-.2.51,0,.71.2.2.51.2.71,0,.2-.2.2-.51,0-.71-.2-.2-.51-.2-.71,0Z"/>
          <path class="cls-6" d="M84.14,92.13c-.2.2-.2.51,0,.71.2.2.51.2.71,0,.2-.2.2-.51,0-.71-.2-.2-.51-.2-.71,0Z"/>
          <path class="cls-6" d="M48.43,60.47s.02-.03.03-.04c-.29-.18-.58-.35-.85-.51-.08.18-.04.4.11.55.2.2.51.2.71,0Z"/>
          <path class="cls-6" d="M49.75,61.78c-.2.2-.2.51,0,.71.2.2.51.2.71,0,.2-.2.2-.51,0-.71-.2-.2-.51-.2-.71,0Z"/>
          <path class="cls-6" d="M51.77,63.8c-.2.2-.2.51,0,.71.2.2.51.2.71,0,.2-.2.2-.51,0-.71-.2-.2-.51-.2-.71,0Z"/>
          <path class="cls-6" d="M53.8,65.83c-.2.2-.2.51,0,.71.2.2.51.2.71,0,.2-.2.2-.51,0-.71-.2-.2-.51-.2-.71,0Z"/>
          <path class="cls-6" d="M55.82,67.85c-.2.2-.2.51,0,.71.2.2.51.2.71,0,.2-.2.2-.51,0-.71-.2-.2-.51-.2-.71,0Z"/>
          <path class="cls-6" d="M57.84,69.87c-.2.2-.2.51,0,.71s.51.2.71,0c.2-.2.2-.51,0-.71-.2-.2-.51-.2-.71,0Z"/>
          <path class="cls-6" d="M59.86,71.9c-.2.2-.2.51,0,.71.2.2.51.2.71,0,.2-.2.2-.51,0-.71-.2-.2-.51-.2-.71,0Z"/>
          <path class="cls-6" d="M61.89,73.92c-.2.2-.2.51,0,.71.2.2.51.2.71,0,.2-.2.2-.51,0-.71-.2-.2-.51-.2-.71,0Z"/>
          <path class="cls-6" d="M63.91,75.94c-.2.2-.2.51,0,.71.2.2.51.2.71,0,.2-.2.2-.51,0-.71-.2-.2-.51-.2-.71,0Z"/>
          <path class="cls-6" d="M65.93,77.96c-.2.2-.2.51,0,.71.2.2.51.2.71,0,.2-.2.2-.51,0-.71-.2-.2-.51-.2-.71,0Z"/>
          <path class="cls-6" d="M67.96,79.99c-.2.2-.2.51,0,.71s.51.2.71,0c.2-.2.2-.51,0-.71-.2-.2-.51-.2-.71,0Z"/>
          <path class="cls-6" d="M69.98,82.01c-.2.2-.2.51,0,.71.2.2.51.2.71,0,.2-.2.2-.51,0-.71-.2-.2-.51-.2-.71,0Z"/>
          <path class="cls-6" d="M72,84.03c-.2.2-.2.51,0,.71.2.2.51.2.71,0,.2-.2.2-.51,0-.71-.2-.2-.51-.2-.71,0Z"/>
          <path class="cls-6" d="M74.02,86.06c-.2.2-.2.51,0,.71.2.2.51.2.71,0,.2-.2.2-.51,0-.71-.2-.2-.51-.2-.71,0Z"/>
          <path class="cls-6" d="M76.05,88.08c-.2.2-.2.51,0,.71.2.2.51.2.71,0,.2-.2.2-.51,0-.71-.2-.2-.51-.2-.71,0Z"/>
          <path class="cls-6" d="M78.07,90.1c-.2.2-.2.51,0,.71s.51.2.71,0c.2-.2.2-.51,0-.71-.2-.2-.51-.2-.71,0Z"/>
          <path class="cls-6" d="M80.09,92.13c-.2.2-.2.51,0,.71.2.2.51.2.71,0,.2-.2.2-.51,0-.71-.2-.2-.51-.2-.71,0Z"/>
          <path class="cls-6" d="M82.12,94.15c-.2.2-.2.51,0,.71.2.2.51.2.71,0,.2-.2.2-.51,0-.71-.2-.2-.51-.2-.71,0Z"/>
          <path class="cls-6" d="M84.14,96.17c-.2.2-.2.51,0,.71.2.2.51.2.71,0,.03-.03.06-.07.08-.11.02-.07.04-.14.06-.21,0-.14-.04-.28-.14-.39-.2-.2-.51-.2-.71,0Z"/>
          <path class="cls-6" d="M45.97,61.64c.15.21.33.45.52.72.1-.19.07-.43-.09-.58-.12-.12-.28-.16-.44-.14Z"/>
          <path class="cls-6" d="M47.73,63.8s-.09.11-.11.17c.15.22.3.45.45.68.13,0,.27-.04.37-.15.2-.2.2-.51,0-.71-.2-.2-.51-.2-.71,0Z"/>
          <path class="cls-6" d="M49.75,65.83c-.2.2-.2.51,0,.71.2.2.51.2.71,0,.2-.2.2-.51,0-.71-.2-.2-.51-.2-.71,0Z"/>
          <path class="cls-6" d="M51.77,67.85c-.2.2-.2.51,0,.71.2.2.51.2.71,0,.2-.2.2-.51,0-.71-.2-.2-.51-.2-.71,0Z"/>
          <path class="cls-6" d="M53.8,69.87c-.2.2-.2.51,0,.71.2.2.51.2.71,0s.2-.51,0-.71c-.2-.2-.51-.2-.71,0Z"/>
          <path class="cls-6" d="M55.82,71.9c-.2.2-.2.51,0,.71s.51.2.71,0c.2-.2.2-.51,0-.71-.2-.2-.51-.2-.71,0Z"/>
          <path class="cls-6" d="M57.84,73.92c-.2.2-.2.51,0,.71.2.2.51.2.71,0,.2-.2.2-.51,0-.71-.2-.2-.51-.2-.71,0Z"/>
          <path class="cls-6" d="M59.86,75.94c-.2.2-.2.51,0,.71.2.2.51.2.71,0,.2-.2.2-.51,0-.71s-.51-.2-.71,0Z"/>
          <path class="cls-6" d="M61.89,77.96c-.2.2-.2.51,0,.71.2.2.51.2.71,0s.2-.51,0-.71c-.2-.2-.51-.2-.71,0Z"/>
          <path class="cls-6" d="M63.91,79.99c-.2.2-.2.51,0,.71.2.2.51.2.71,0s.2-.51,0-.71c-.2-.2-.51-.2-.71,0Z"/>
          <path class="cls-6" d="M65.93,82.01c-.2.2-.2.51,0,.71s.51.2.71,0c.2-.2.2-.51,0-.71-.2-.2-.51-.2-.71,0Z"/>
          <path class="cls-6" d="M67.96,84.03c-.2.2-.2.51,0,.71.2.2.51.2.71,0,.2-.2.2-.51,0-.71-.2-.2-.51-.2-.71,0Z"/>
          <path class="cls-6" d="M69.98,86.06c-.2.2-.2.51,0,.71.2.2.51.2.71,0,.2-.2.2-.51,0-.71s-.51-.2-.71,0Z"/>
          <path class="cls-6" d="M72,88.08c-.2.2-.2.51,0,.71.2.2.51.2.71,0s.2-.51,0-.71c-.2-.2-.51-.2-.71,0Z"/>
          <path class="cls-6" d="M74.02,90.1c-.2.2-.2.51,0,.71.2.2.51.2.71,0s.2-.51,0-.71c-.2-.2-.51-.2-.71,0Z"/>
          <path class="cls-6" d="M76.05,92.13c-.2.2-.2.51,0,.71s.51.2.71,0c.2-.2.2-.51,0-.71-.2-.2-.51-.2-.71,0Z"/>
          <path class="cls-6" d="M78.07,94.15c-.2.2-.2.51,0,.71.2.2.51.2.71,0,.2-.2.2-.51,0-.71-.2-.2-.51-.2-.71,0Z"/>
          <path class="cls-6" d="M80.09,96.17c-.2.2-.2.51,0,.71.2.2.51.2.71,0,.2-.2.2-.51,0-.71s-.51-.2-.71,0Z"/>
          <path class="cls-6" d="M82.12,98.19c-.2.2-.2.51,0,.71.2.2.51.2.71,0s.2-.51,0-.71c-.2-.2-.51-.2-.71,0Z"/>
          <path class="cls-6" d="M51.92,71.8c.13.31.25.62.36.93.07-.02.14-.06.2-.12.2-.2.2-.51,0-.71-.15-.15-.38-.18-.56-.1Z"/>
          <path class="cls-6" d="M53.8,73.92c-.2.2-.2.51,0,.71.2.2.51.2.71,0,.2-.2.2-.51,0-.71-.2-.2-.51-.2-.71,0Z"/>
          <path class="cls-6" d="M55.82,75.94c-.2.2-.2.51,0,.71.2.2.51.2.71,0,.2-.2.2-.51,0-.71-.2-.2-.51-.2-.71,0Z"/>
          <path class="cls-6" d="M57.84,77.96c-.2.2-.2.51,0,.71.2.2.51.2.71,0,.2-.2.2-.51,0-.71s-.51-.2-.71,0Z"/>
          <path class="cls-6" d="M59.86,79.99c-.2.2-.2.51,0,.71s.51.2.71,0c.2-.2.2-.51,0-.71-.2-.2-.51-.2-.71,0Z"/>
          <path class="cls-6" d="M61.89,82.01c-.2.2-.2.51,0,.71.2.2.51.2.71,0,.2-.2.2-.51,0-.71-.2-.2-.51-.2-.71,0Z"/>
          <path class="cls-6" d="M63.91,84.03c-.2.2-.2.51,0,.71.2.2.51.2.71,0,.2-.2.2-.51,0-.71s-.51-.2-.71,0Z"/>
          <path class="cls-6" d="M65.93,86.06c-.2.2-.2.51,0,.71.2.2.51.2.71,0,.2-.2.2-.51,0-.71-.2-.2-.51-.2-.71,0Z"/>
          <path class="cls-6" d="M67.96,88.08c-.2.2-.2.51,0,.71.2.2.51.2.71,0,.2-.2.2-.51,0-.71s-.51-.2-.71,0Z"/>
          <path class="cls-6" d="M69.98,90.1c-.2.2-.2.51,0,.71s.51.2.71,0c.2-.2.2-.51,0-.71-.2-.2-.51-.2-.71,0Z"/>
          <path class="cls-6" d="M72,92.13c-.2.2-.2.51,0,.71.2.2.51.2.71,0,.2-.2.2-.51,0-.71-.2-.2-.51-.2-.71,0Z"/>
          <path class="cls-6" d="M74.02,94.15c-.2.2-.2.51,0,.71.2.2.51.2.71,0,.2-.2.2-.51,0-.71s-.51-.2-.71,0Z"/>
          <path class="cls-6" d="M76.05,96.17c-.2.2-.2.51,0,.71.2.2.51.2.71,0,.2-.2.2-.51,0-.71-.2-.2-.51-.2-.71,0Z"/>
          <path class="cls-6" d="M78.07,98.19c-.2.2-.2.51,0,.71.2.2.51.2.71,0,.2-.2.2-.51,0-.71s-.51-.2-.71,0Z"/>
          <path class="cls-6" d="M80.09,100.22c-.2.2-.2.51,0,.71s.51.2.71,0c.2-.2.2-.51,0-.71-.2-.2-.51-.2-.71,0Z"/>
          <path class="cls-6" d="M82.12,102.24c-.2.2-.2.51,0,.71.2.2.51.2.71,0,.2-.2.2-.51,0-.71s-.51-.2-.71,0Z"/>
          <path class="cls-6" d="M53.8,77.96c-.2.2-.2.51,0,.71.2.2.51.2.71,0,.2-.2.2-.51,0-.71-.2-.2-.51-.2-.71,0Z"/>
          <path class="cls-6" d="M55.82,79.99c-.2.2-.2.51,0,.71.2.2.51.2.71,0,.2-.2.2-.51,0-.71-.2-.2-.51-.2-.71,0Z"/>
          <path class="cls-6" d="M57.84,82.01c-.2.2-.2.51,0,.71.2.2.51.2.71,0s.2-.51,0-.71c-.2-.2-.51-.2-.71,0Z"/>
          <path class="cls-6" d="M59.86,84.03c-.2.2-.2.51,0,.71.2.2.51.2.71,0,.2-.2.2-.51,0-.71-.2-.2-.51-.2-.71,0Z"/>
          <path class="cls-6" d="M61.89,86.06c-.2.2-.2.51,0,.71.2.2.51.2.71,0,.2-.2.2-.51,0-.71s-.51-.2-.71,0Z"/>
          <path class="cls-6" d="M63.91,88.08c-.2.2-.2.51,0,.71.2.2.51.2.71,0,.2-.2.2-.51,0-.71-.2-.2-.51-.2-.71,0Z"/>
          <path class="cls-6" d="M65.93,90.1c-.2.2-.2.51,0,.71.2.2.51.2.71,0,.2-.2.2-.51,0-.71-.2-.2-.51-.2-.71,0Z"/>
          <path class="cls-6" d="M67.96,92.13c-.2.2-.2.51,0,.71.2.2.51.2.71,0s.2-.51,0-.71c-.2-.2-.51-.2-.71,0Z"/>
          <path class="cls-6" d="M69.98,94.15c-.2.2-.2.51,0,.71.2.2.51.2.71,0,.2-.2.2-.51,0-.71-.2-.2-.51-.2-.71,0Z"/>
          <path class="cls-6" d="M72,96.17c-.2.2-.2.51,0,.71.2.2.51.2.71,0,.2-.2.2-.51,0-.71s-.51-.2-.71,0Z"/>
          <path class="cls-6" d="M74.02,98.19c-.2.2-.2.51,0,.71s.51.2.71,0c.2-.2.2-.51,0-.71-.2-.2-.51-.2-.71,0Z"/>
          <path class="cls-6" d="M76.05,100.22c-.2.2-.2.51,0,.71.2.2.51.2.71,0,.2-.2.2-.51,0-.71-.2-.2-.51-.2-.71,0Z"/>
          <path class="cls-6" d="M78.07,102.24c-.2.2-.2.51,0,.71.2.2.51.2.71,0,.2-.2.2-.51,0-.71-.2-.2-.51-.2-.71,0Z"/>
          <path class="cls-6" d="M80.09,104.26c-.2.2-.2.51,0,.71.2.2.51.2.71,0,.2-.2.2-.51,0-.71-.2-.2-.51-.2-.71,0Z"/>
          <path class="cls-6" d="M82.06,106.36c-.06.09-.09.18-.09.28.03-.09.06-.19.09-.28Z"/>
          <path class="cls-6" d="M54.03,81.88c.03.32.06.65.09.98.14,0,.28-.04.38-.14.2-.2.2-.51,0-.71-.13-.13-.31-.17-.48-.13Z"/>
          <path class="cls-6" d="M55.82,84.03c-.2.2-.2.51,0,.71.2.2.51.2.71,0,.2-.2.2-.51,0-.71-.2-.2-.51-.2-.71,0Z"/>
          <path class="cls-6" d="M57.84,86.06c-.2.2-.2.51,0,.71.2.2.51.2.71,0,.2-.2.2-.51,0-.71-.2-.2-.51-.2-.71,0Z"/>
          <path class="cls-6" d="M59.86,88.08c-.2.2-.2.51,0,.71.2.2.51.2.71,0s.2-.51,0-.71c-.2-.2-.51-.2-.71,0Z"/>
          <path class="cls-6" d="M61.89,90.1c-.2.2-.2.51,0,.71.2.2.51.2.71,0,.2-.2.2-.51,0-.71-.2-.2-.51-.2-.71,0Z"/>
          <path class="cls-6" d="M63.91,92.13c-.2.2-.2.51,0,.71s.51.2.71,0c.2-.2.2-.51,0-.71-.2-.2-.51-.2-.71,0Z"/>
          <path class="cls-6" d="M65.93,94.15c-.2.2-.2.51,0,.71.2.2.51.2.71,0,.2-.2.2-.51,0-.71-.2-.2-.51-.2-.71,0Z"/>
          <path class="cls-6" d="M67.96,96.17c-.2.2-.2.51,0,.71.2.2.51.2.71,0,.2-.2.2-.51,0-.71-.2-.2-.51-.2-.71,0Z"/>
          <path class="cls-6" d="M69.98,98.19c-.2.2-.2.51,0,.71.2.2.51.2.71,0s.2-.51,0-.71c-.2-.2-.51-.2-.71,0Z"/>
          <path class="cls-6" d="M72,100.22c-.2.2-.2.51,0,.71.2.2.51.2.71,0,.2-.2.2-.51,0-.71-.2-.2-.51-.2-.71,0Z"/>
          <path class="cls-6" d="M74.02,102.24c-.2.2-.2.51,0,.71.2.2.51.2.71,0,.2-.2.2-.51,0-.71-.2-.2-.51-.2-.71,0Z"/>
          <path class="cls-6" d="M76.05,104.26c-.2.2-.2.51,0,.71.2.2.51.2.71,0,.2-.2.2-.51,0-.71-.2-.2-.51-.2-.71,0Z"/>
          <path class="cls-6" d="M78.07,106.29c-.2.2-.2.51,0,.71.2.2.51.2.71,0,.2-.2.2-.51,0-.71-.2-.2-.51-.2-.71,0Z"/>
          <path class="cls-6" d="M80.09,108.31c-.2.2-.2.51,0,.71s.51.2.71,0c.2-.2.2-.51,0-.71-.2-.2-.51-.2-.71,0Z"/>
          <path class="cls-6" d="M54.37,85.96c.02.29.04.58.06.87.03-.02.05-.04.08-.06.2-.2.2-.51,0-.71-.04-.04-.09-.07-.14-.09Z"/>
          <path class="cls-6" d="M55.82,88.08c-.2.2-.2.51,0,.71.2.2.51.2.71,0,.2-.2.2-.51,0-.71-.2-.2-.51-.2-.71,0Z"/>
          <path class="cls-6" d="M57.84,90.1c-.2.2-.2.51,0,.71s.51.2.71,0c.2-.2.2-.51,0-.71-.2-.2-.51-.2-.71,0Z"/>
          <path class="cls-6" d="M59.86,92.13c-.2.2-.2.51,0,.71.2.2.51.2.71,0,.2-.2.2-.51,0-.71-.2-.2-.51-.2-.71,0Z"/>
          <path class="cls-6" d="M61.89,94.15c-.2.2-.2.51,0,.71.2.2.51.2.71,0,.2-.2.2-.51,0-.71-.2-.2-.51-.2-.71,0Z"/>
          <path class="cls-6" d="M63.91,96.17c-.2.2-.2.51,0,.71.2.2.51.2.71,0,.2-.2.2-.51,0-.71-.2-.2-.51-.2-.71,0Z"/>
          <path class="cls-6" d="M65.93,98.19c-.2.2-.2.51,0,.71.2.2.51.2.71,0,.2-.2.2-.51,0-.71-.2-.2-.51-.2-.71,0Z"/>
          <path class="cls-6" d="M67.96,100.22c-.2.2-.2.51,0,.71s.51.2.71,0c.2-.2.2-.51,0-.71-.2-.2-.51-.2-.71,0Z"/>
          <path class="cls-6" d="M69.98,102.24c-.2.2-.2.51,0,.71.2.2.51.2.71,0,.2-.2.2-.51,0-.71s-.51-.2-.71,0Z"/>
          <path class="cls-6" d="M72,104.26c-.2.2-.2.51,0,.71.2.2.51.2.71,0,.2-.2.2-.51,0-.71-.2-.2-.51-.2-.71,0Z"/>
          <path class="cls-6" d="M74.02,106.29c-.2.2-.2.51,0,.71.2.2.51.2.71,0,.2-.2.2-.51,0-.71-.2-.2-.51-.2-.71,0Z"/>
          <path class="cls-6" d="M76.05,108.31c-.2.2-.2.51,0,.71.2.2.51.2.71,0,.2-.2.2-.51,0-.71-.2-.2-.51-.2-.71,0Z"/>
          <path class="cls-6" d="M78.07,110.33c-.2.2-.2.51,0,.71.2.2.51.2.71,0,.2-.2.2-.51,0-.71-.2-.2-.51-.2-.71,0Z"/>
          <path class="cls-6" d="M80.01,112.95c.07-.22.14-.45.22-.69-.05.02-.1.05-.14.09-.16.16-.19.4-.08.59Z"/>
          <path class="cls-6" d="M54.64,90.56c.02-.08.01-.17-.01-.25,0,.08,0,.16.01.25Z"/>
          <path class="cls-6" d="M55.82,92.13c-.2.2-.2.51,0,.71s.51.2.71,0c.2-.2.2-.51,0-.71-.2-.2-.51-.2-.71,0Z"/>
          <path class="cls-6" d="M57.84,94.15c-.2.2-.2.51,0,.71.2.2.51.2.71,0,.2-.2.2-.51,0-.71-.2-.2-.51-.2-.71,0Z"/>
          <path class="cls-6" d="M59.86,96.17c-.2.2-.2.51,0,.71.2.2.51.2.71,0,.2-.2.2-.51,0-.71s-.51-.2-.71,0Z"/>
          <path class="cls-6" d="M61.89,98.19c-.2.2-.2.51,0,.71.2.2.51.2.71,0s.2-.51,0-.71c-.2-.2-.51-.2-.71,0Z"/>
          <path class="cls-6" d="M63.91,100.22c-.2.2-.2.51,0,.71.2.2.51.2.71,0s.2-.51,0-.71c-.2-.2-.51-.2-.71,0Z"/>
          <path class="cls-6" d="M65.93,102.24c-.2.2-.2.51,0,.71.2.2.51.2.71,0,.2-.2.2-.51,0-.71-.2-.2-.51-.2-.71,0Z"/>
          <path class="cls-6" d="M67.96,104.26c-.2.2-.2.51,0,.71.2.2.51.2.71,0,.2-.2.2-.51,0-.71-.2-.2-.51-.2-.71,0Z"/>
          <path class="cls-6" d="M69.98,106.29c-.2.2-.2.51,0,.71.2.2.51.2.71,0,.2-.2.2-.51,0-.71-.2-.2-.51-.2-.71,0Z"/>
          <path class="cls-6" d="M72,108.31c-.2.2-.2.51,0,.71.2.2.51.2.71,0,.2-.2.2-.51,0-.71-.2-.2-.51-.2-.71,0Z"/>
          <path class="cls-6" d="M74.02,110.33c-.2.2-.2.51,0,.71.2.2.51.2.71,0,.2-.2.2-.51,0-.71-.2-.2-.51-.2-.71,0Z"/>
          <path class="cls-6" d="M76.05,112.35c-.2.2-.2.51,0,.71.2.2.51.2.71,0,.2-.2.2-.51,0-.71-.2-.2-.51-.2-.71,0Z"/>
          <path class="cls-6" d="M78.07,114.38c-.2.2-.2.51,0,.71.2.2.51.2.71,0,.2-.2.2-.51,0-.71-.2-.2-.51-.2-.71,0Z"/>
          <path class="cls-6" d="M55.82,96.17c-.2.2-.2.51,0,.71.2.2.51.2.71,0,.2-.2.2-.51,0-.71-.2-.2-.51-.2-.71,0Z"/>
          <path class="cls-6" d="M57.84,98.19c-.2.2-.2.51,0,.71.2.2.51.2.71,0,.2-.2.2-.51,0-.71s-.51-.2-.71,0Z"/>
          <path class="cls-6" d="M59.86,100.22c-.2.2-.2.51,0,.71s.51.2.71,0c.2-.2.2-.51,0-.71-.2-.2-.51-.2-.71,0Z"/>
          <path class="cls-6" d="M61.89,102.24c-.2.2-.2.51,0,.71.2.2.51.2.71,0,.2-.2.2-.51,0-.71s-.51-.2-.71,0Z"/>
          <path class="cls-6" d="M63.91,104.26c-.2.2-.2.51,0,.71.2.2.51.2.71,0,.2-.2.2-.51,0-.71s-.51-.2-.71,0Z"/>
          <path class="cls-6" d="M65.93,106.29c-.2.2-.2.51,0,.71.2.2.51.2.71,0,.2-.2.2-.51,0-.71-.2-.2-.51-.2-.71,0Z"/>
          <path class="cls-6" d="M67.96,108.31c-.2.2-.2.51,0,.71s.51.2.71,0c.2-.2.2-.51,0-.71-.2-.2-.51-.2-.71,0Z"/>
          <path class="cls-6" d="M69.98,110.33c-.2.2-.2.51,0,.71.2.2.51.2.71,0,.2-.2.2-.51,0-.71-.2-.2-.51-.2-.71,0Z"/>
          <path class="cls-6" d="M72,112.35c-.2.2-.2.51,0,.71.2.2.51.2.71,0,.2-.2.2-.51,0-.71-.2-.2-.51-.2-.71,0Z"/>
          <path class="cls-6" d="M74.02,114.38c-.2.2-.2.51,0,.71.2.2.51.2.71,0,.2-.2.2-.51,0-.71-.2-.2-.51-.2-.71,0Z"/>
          <path class="cls-6" d="M76.05,116.4c-.2.2-.2.51,0,.71.2.2.51.2.71,0,.2-.2.2-.51,0-.71-.2-.2-.51-.2-.71,0Z"/>
          <path class="cls-6" d="M55.82,100.22c-.2.2-.2.51,0,.71.2.2.51.2.71,0,.2-.2.2-.51,0-.71-.2-.2-.51-.2-.71,0Z"/>
          <path class="cls-6" d="M57.84,102.24c-.2.2-.2.51,0,.71.2.2.51.2.71,0,.2-.2.2-.51,0-.71-.2-.2-.51-.2-.71,0Z"/>
          <path class="cls-6" d="M59.86,104.26c-.2.2-.2.51,0,.71.2.2.51.2.71,0,.2-.2.2-.51,0-.71-.2-.2-.51-.2-.71,0Z"/>
          <path class="cls-6" d="M61.89,106.29c-.2.2-.2.51,0,.71.2.2.51.2.71,0,.2-.2.2-.51,0-.71-.2-.2-.51-.2-.71,0Z"/>
          <path class="cls-6" d="M63.91,108.31c-.2.2-.2.51,0,.71.2.2.51.2.71,0s.2-.51,0-.71c-.2-.2-.51-.2-.71,0Z"/>
          <path class="cls-6" d="M65.93,110.33c-.2.2-.2.51,0,.71.2.2.51.2.71,0,.2-.2.2-.51,0-.71-.2-.2-.51-.2-.71,0Z"/>
          <path class="cls-6" d="M67.96,112.35c-.2.2-.2.51,0,.71.2.2.51.2.71,0,.2-.2.2-.51,0-.71-.2-.2-.51-.2-.71,0Z"/>
          <path class="cls-6" d="M69.98,114.38c-.2.2-.2.51,0,.71.2.2.51.2.71,0,.2-.2.2-.51,0-.71-.2-.2-.51-.2-.71,0Z"/>
          <path class="cls-6" d="M72,116.4c-.2.2-.2.51,0,.71.2.2.51.2.71,0,.2-.2.2-.51,0-.71s-.51-.2-.71,0Z"/>
          <path class="cls-6" d="M74.02,118.42c-.2.2-.2.51,0,.71.2.2.51.2.71,0,.2-.2.2-.51,0-.71-.2-.2-.51-.2-.71,0Z"/>
          <path class="cls-6" d="M55.82,104.26c-.2.2-.2.51,0,.71.2.2.51.2.71,0,.2-.2.2-.51,0-.71-.2-.2-.51-.2-.71,0Z"/>
          <path class="cls-6" d="M57.84,106.29c-.2.2-.2.51,0,.71.2.2.51.2.71,0,.2-.2.2-.51,0-.71-.2-.2-.51-.2-.71,0Z"/>
          <path class="cls-6" d="M59.86,108.31c-.2.2-.2.51,0,.71s.51.2.71,0c.2-.2.2-.51,0-.71-.2-.2-.51-.2-.71,0Z"/>
          <path class="cls-6" d="M61.89,110.33c-.2.2-.2.51,0,.71.2.2.51.2.71,0,.2-.2.2-.51,0-.71-.2-.2-.51-.2-.71,0Z"/>
          <path class="cls-6" d="M63.91,112.35c-.2.2-.2.51,0,.71.2.2.51.2.71,0,.2-.2.2-.51,0-.71-.2-.2-.51-.2-.71,0Z"/>
          <path class="cls-6" d="M65.93,114.38c-.2.2-.2.51,0,.71.2.2.51.2.71,0,.2-.2.2-.51,0-.71-.2-.2-.51-.2-.71,0Z"/>
          <path class="cls-6" d="M67.96,116.4c-.2.2-.2.51,0,.71.2.2.51.2.71,0,.2-.2.2-.51,0-.71-.2-.2-.51-.2-.71,0Z"/>
          <path class="cls-6" d="M69.98,118.42c-.2.2-.2.51,0,.71.2.2.51.2.71,0,.2-.2.2-.51,0-.71-.2-.2-.51-.2-.71,0Z"/>
          <path class="cls-6" d="M72,120.45c-.2.2-.2.51,0,.71.2.2.51.2.71,0,.2-.2.2-.51,0-.71-.2-.2-.51-.2-.71,0Z"/>
          <path class="cls-6" d="M55.82,108.31c-.2.2-.2.51,0,.71.2.2.51.2.71,0,.2-.2.2-.51,0-.71-.2-.2-.51-.2-.71,0Z"/>
          <path class="cls-6" d="M57.84,110.33c-.2.2-.2.51,0,.71.2.2.51.2.71,0,.2-.2.2-.51,0-.71-.2-.2-.51-.2-.71,0Z"/>
          <path class="cls-6" d="M59.86,112.35c-.2.2-.2.51,0,.71.2.2.51.2.71,0,.2-.2.2-.51,0-.71-.2-.2-.51-.2-.71,0Z"/>
          <path class="cls-6" d="M61.89,114.38c-.2.2-.2.51,0,.71.2.2.51.2.71,0,.2-.2.2-.51,0-.71-.2-.2-.51-.2-.71,0Z"/>
          <path class="cls-6" d="M63.91,116.4c-.2.2-.2.51,0,.71.2.2.51.2.71,0,.2-.2.2-.51,0-.71-.2-.2-.51-.2-.71,0Z"/>
          <path class="cls-6" d="M65.93,118.42c-.2.2-.2.51,0,.71.2.2.51.2.71,0,.2-.2.2-.51,0-.71-.2-.2-.51-.2-.71,0Z"/>
          <path class="cls-6" d="M67.96,120.45c-.2.2-.2.51,0,.71.06.06.12.1.2.12.09,0,.17.01.26.02.09-.02.18-.06.26-.14.2-.2.2-.51,0-.71-.2-.2-.51-.2-.71,0Z"/>
          <path class="cls-6" d="M55.82,112.35c-.2.2-.2.51,0,.71.2.2.51.2.71,0,.2-.2.2-.51,0-.71-.2-.2-.51-.2-.71,0Z"/>
          <path class="cls-6" d="M57.84,114.38c-.2.2-.2.51,0,.71.2.2.51.2.71,0,.2-.2.2-.51,0-.71-.2-.2-.51-.2-.71,0Z"/>
          <path class="cls-6" d="M59.86,116.4c-.2.2-.2.51,0,.71.2.2.51.2.71,0,.2-.2.2-.51,0-.71s-.51-.2-.71,0Z"/>
          <path class="cls-6" d="M61.89,118.42c-.2.2-.2.51,0,.71.2.2.51.2.71,0,.2-.2.2-.51,0-.71-.2-.2-.51-.2-.71,0Z"/>
          <path class="cls-6" d="M63.91,120.45c-.1.1-.15.24-.14.38.32.04.65.08.97.12.05-.17.01-.36-.12-.5-.2-.2-.51-.2-.71,0Z"/>
          <path class="cls-6" d="M55.82,116.4c-.2.2-.2.51,0,.71.2.2.51.2.71,0,.2-.2.2-.51,0-.71-.2-.2-.51-.2-.71,0Z"/>
          <path class="cls-6" d="M57.84,118.42c-.2.2-.2.51,0,.71.2.2.51.2.71,0,.2-.2.2-.51,0-.71-.2-.2-.51-.2-.71,0Z"/>
          <path class="cls-6" d="M60.1,120.32c.12.02.25.04.38.06-.11-.07-.25-.09-.38-.06Z"/>
        </g>
        <path class="cls-1" d="M39.07,120.98s-.06,0-.09,0L.73,116.78c-.45-.05-.77-.45-.72-.9s.45-.77.9-.72l37.28,4.09c-.42-5.38-2.58-31.54-5.49-42.71-1.02-3.89-5.97-14.1-7.58-17.37-1.79,1.79-6.34,6.08-12.03,9.55-2.47,1.51-4.84,3.14-6.65,6.57-.21.4-.7.55-1.1.34-.4-.21-.55-.7-.34-1.1,2-3.79,4.67-5.64,7.24-7.2,7.03-4.29,12.45-10.04,12.5-10.1.18-.19.45-.29.71-.25.26.04.49.2.61.44.28.57,6.95,13.91,8.21,18.71,3.28,12.56,5.59,43.67,5.61,43.98.02.24-.07.48-.25.65-.15.15-.36.23-.57.23Z"/>
        <path class="cls-1" d="M74.43,121.74c-.35,0-.67-.23-.78-.58-.13-.43.12-.88.55-1.01,2.46-.73,3.07-2.23,3.72-3.81.1-.23.19-.46.29-.69,1.15-2.61,8.51-27.86,8.58-28.11.13-.43.58-.68,1.01-.55.43.13.68.58.55,1.01-.3,1.04-7.46,25.61-8.65,28.31-.09.21-.18.43-.27.65-.7,1.69-1.56,3.8-4.76,4.75-.08.02-.16.03-.23.03Z"/>
        <path class="cls-1" d="M55.1,120.29h-.01c-.45,0-.81-.37-.8-.82,0-.33.4-33.45-2.02-44-.87-3.8-3.32-8.44-7.26-13.77-.24-.33-.32-.44-.38-.53-.31-.52-.48-2-.56-2.84-.03-.31.12-.6.38-.77.26-.16.59-.16.85,0,.08.05,7.92,4.84,11.6,6.84.24.13.5.27.77.41,2.64,1.41,6.63,3.54,9.05,6.79.27.36.55.78.83,1.25.23.39.1.89-.28,1.12-.39.23-.89.1-1.12-.28-.25-.42-.5-.79-.73-1.11-2.2-2.95-6-4.98-8.51-6.33-.28-.15-.54-.29-.78-.42-2.74-1.49-7.75-4.5-10.22-6,.05.25.09.43.13.52.03.05.16.22.28.38,4.08,5.51,6.61,10.35,7.54,14.37,2.46,10.74,2.08,43.02,2.06,44.38,0,.45-.37.8-.81.8Z"/>
      </g>
      <g>
        <path class="cls-4" d="M73.31,84.9s5.17-9.47,5.87-11.74-1.41-10.68-1.25-11.42c.15-.73,1.68-8.14,2.45-9.2.77-1.06,5.08-4.84,5.08-4.84,0,0,2.76-2.79,3.94-1.52,1.23,1.33-.64,2.8-.64,2.8l-2.07,1.73s2.48.24,3.12.48c.64.23,2.43,2.72,2.43,2.72,0,0,.75.78,1.46,1.6.48.56,1,1.1.97,1.62-.04.68-.35.97-.35.97,0,0,.82.69.67,1.44-.17.85-.89,1.54-2.13,1.45-.98-.07-1.96-.78-1.96-.78l-1.12,1.01.07,2.91s2.15,3.91,1.36,7.43c-.58,2.56-2.96,6.64-2.96,6.64l-3.74,10.69s-2.63.61-6.07-.49c-3.44-1.1-5.12-3.52-5.12-3.52Z"/>
        <path class="cls-1" d="M95.31,58.01c.08-.22.15-.48.17-.81.05-.79-.51-1.44-1-2.01-.05-.06-.11-.12-.16-.19-.62-.74-1.28-1.42-1.45-1.6-.88-1.22-2.06-2.7-2.78-2.96-.3-.11-.86-.21-1.44-.3l.62-.52c.18-.14,1.26-1.05,1.36-2.27.05-.62-.17-1.22-.63-1.71-.35-.38-.82-.58-1.36-.59-.01,0-.02,0-.03,0-1.55,0-3.31,1.68-3.71,2.07-.54.47-4.39,3.87-5.18,4.95-.21.28-.84,1.15-2.56,9.37l-.03.14c-.08.37,0,.92.42,3.15.47,2.57,1.26,6.88.85,8.2-.53,1.73-4.03,8.34-5.81,11.59-.15.27-.13.6.05.86.08.11,1.88,2.65,5.54,3.83,1.72.55,3.25.7,4.4.7,1.26,0,2.05-.18,2.11-.19.27-.06.49-.26.58-.52l3.71-10.61c.33-.57,2.45-4.31,3.01-6.81.76-3.37-.91-6.97-1.34-7.82l-.05-2.34.39-.35c.45.25,1.12.53,1.82.58,1.75.12,2.76-.97,2.98-2.11.14-.7-.17-1.31-.47-1.71ZM92.92,60.2c-.6-.04-1.32-.47-1.54-.63-.31-.23-.74-.2-1.02.05l-1.12,1.01c-.18.16-.28.39-.27.63l.07,2.91c0,.13.04.26.1.37.02.04,1.99,3.68,1.28,6.86-.54,2.41-2.84,6.37-2.87,6.41-.03.05-.05.09-.07.14l-3.58,10.23c-.84.11-2.82.23-5.21-.54-2.33-.75-3.79-2.16-4.39-2.83,1.08-1.98,5.04-9.36,5.67-11.41.48-1.57-.08-4.99-.81-8.97-.19-1.06-.41-2.26-.42-2.57l.02-.1c1.6-7.65,2.22-8.65,2.28-8.74.53-.72,3.26-3.21,4.96-4.7.01-.01.03-.03.04-.04.65-.65,1.9-1.61,2.57-1.61h.01c.11,0,.15.04.19.07.19.21.21.36.2.47-.03.43-.52.95-.75,1.13,0,0-.01.01-.02.02l-2.07,1.73c-.25.21-.35.55-.25.86.1.31.37.54.7.57.97.1,2.49.29,2.9.42.32.2,1.26,1.32,1.98,2.31.03.15.03.44-.18.61-.29.22-.75-.02-.89-.1l-.65-.64c-.32-.32-.84-.31-1.15,0-.32.32-.31.84,0,1.15l.71.7s.06.06.1.08c.35.25.95.53,1.6.53.43,0,.87-.12,1.29-.44.18-.14.33-.31.44-.47.11.12.21.24.32.37.06.07.11.13.17.2.22.26.59.69.61.84-.02.26-.09.4-.12.45-.05.04-.08.07-.12.11-.1.08-.25.17-.4.17,0,0,0,0,0,0-.31,0-.59-.13-.71-.19l-.61-.59c-.32-.31-.84-.31-1.15.02-.31.32-.31.84.02,1.15l.69.67s.09.08.13.11c.07.05.75.46,1.61.47,0,0,.02,0,.03,0,.36,0,.68-.1.94-.22.03.07.04.13.03.18-.11.55-.57.84-1.27.8Z"/>
        <g>
          <path class="cls-1" d="M74.43,63.51c-.23,0-.46-.1-.62-.29-.29-.34-.24-.86.1-1.15l1.14-.96c.34-.29.86-.24,1.15.1.29.34.24.86-.1,1.15l-1.14.96c-.15.13-.34.19-.52.19Z"/>
          <g>
            <polygon class="cls-4" points="92.78 45.62 74.76 60.74 76.5 62.82 94.52 47.7 97.11 43.75 92.78 45.62"/>
            <path class="cls-1" d="M76.5,63.63c-.23,0-.46-.1-.62-.29l-1.74-2.08c-.14-.17-.21-.38-.19-.59.02-.22.12-.41.29-.55l18.02-15.12c.06-.05.13-.09.2-.12l4.34-1.87c.33-.14.71-.05.95.22.23.28.25.67.06.97l-2.59,3.95c-.04.07-.1.13-.16.18l-18.02,15.12c-.15.13-.34.19-.52.19ZM75.9,60.84l.7.83,17.3-14.52,1.04-1.58-1.73.75-17.3,14.52Z"/>
          </g>
        </g>
        <g>
          <path class="cls-4" d="M87.18,54.96c.06-1.9.07-3.05-1.37-3.32-.98-.19-2.1.83-2.62,3.91-.45,2.65-1.25,3.97-1.25,3.97l5.75,7.9c.05-3.35-1.45-5.95-1.45-5.95,0,0,.88-4.58.94-6.51Z"/>
          <path class="cls-1" d="M87.69,68.23s0,0-.01,0c-.45,0-.81-.38-.8-.83.05-3.09-1.33-5.5-1.34-5.53-.1-.17-.13-.37-.09-.56,0-.05.87-4.53.92-6.38.06-2.15-.07-2.37-.71-2.5-.07-.01-.19-.02-.36.1-.26.18-.92.86-1.3,3.15-.47,2.77-1.32,4.2-1.35,4.26-.23.39-.73.51-1.12.28-.39-.23-.51-.73-.28-1.12,0,0,.73-1.26,1.14-3.69.36-2.13,1.03-3.55,1.98-4.21.49-.34,1.04-.47,1.6-.36,2.15.41,2.09,2.31,2.04,4.14-.05,1.72-.7,5.32-.9,6.36.4.79,1.46,3.16,1.41,6.09,0,.45-.37.8-.81.8Z"/>
        </g>
      </g>
      <g>
        <g>
          <path class="cls-6" d="M31.93,126.15h35.02c.38,0,.72-.24.85-.6l17.47-48c.21-.59-.22-1.21-.85-1.21h-35.02c-.38,0-.72.24-.85.6l-17.47,48c-.21.59.22,1.21.85,1.21Z"/>
          <path class="cls-1" d="M66.95,126.96H31.93c-.56,0-1.09-.27-1.41-.73-.32-.46-.4-1.05-.21-1.57l17.47-48c.25-.68.9-1.13,1.62-1.13h35.02c.56,0,1.09.27,1.41.73.32.46.4,1.05.21,1.57l-17.47,48c-.25.68-.9,1.13-1.62,1.13ZM49.4,77.15s-.07.02-.09.06l-17.47,48s-.02.04.01.08c.03.04.06.04.07.04h35.02s.07-.02.08-.06l17.47-48s.02-.04-.01-.08c-.03-.04-.06-.04-.07-.04h-35.02Z"/>
        </g>
        <g>
          <polygon class="cls-4" points="75.64 76.34 59 76.34 58.34 78.14 58.33 78.14 57.11 81.51 73.75 81.51 74.41 79.7 74.42 79.7 75.64 76.34"/>
          <path class="cls-1" d="M73.75,82.33h-16.65c-.27,0-.51-.13-.67-.35-.15-.22-.19-.5-.1-.75l1.23-3.37s.03-.06.04-.09l.62-1.72c.12-.32.42-.54.77-.54h16.65c.27,0,.51.13.67.35.15.22.19.5.1.75l-1.23,3.37s-.03.06-.04.09l-.62,1.72c-.12.32-.42.54-.77.54ZM58.27,80.7h14.91l.46-1.27s.03-.06.04-.09l.79-2.18h-14.91l-.46,1.27s-.03.06-.04.09l-.79,2.18Z"/>
        </g>
      </g>
      <g>
        <g>
          <path class="cls-4" d="M72.49,106.98s-2.93.23-3.57-.77c-.38-.59,1.5-2.83,2.61-4.02,2.21-2.37,1.89-4.38.71-4.83-1.41-.54-2.82,1.36-4.35,2.82-1.17,1.11-2.16,1.87-6.01,4.98-3.85,3.12-4.49,6.55-4.49,6.55l-11.8.44-.37,11.13s10.89-.46,15.44-.9c4.52-.43,8.3-.45,9.82-1.18,1.52-.72,1.78-1.97,1.78-1.97,0,0,.86-.26,1.26-.85.67-.98.42-1.77.42-1.77,0,0,.7-.22,1.66-1.02.97-.8-.41-3.49.55-4.77.95-1.28,3.35-3.98,1.66-5.66-1.8-1.8-5.34,1.81-5.34,1.81Z"/>
          <path class="cls-1" d="M78.4,104.59c-.48-.48-1.11-.74-1.82-.74,0,0,0,0-.01,0-1.8,0-3.75,1.69-4.43,2.33-1.07.05-2.05-.11-2.4-.31.21-.52,1.11-1.76,2.39-3.13,1.43-1.54,2.08-3.18,1.77-4.51-.18-.78-.68-1.37-1.37-1.64-1.64-.64-3.02.78-4.37,2.15-.27.28-.56.57-.84.84-.89.85-1.69,1.49-3.82,3.21-.6.48-1.3,1.05-2.14,1.73-3.08,2.49-4.22,5.19-4.61,6.4l-11.2.42c-.45.02-.8.39-.78.84.02.45.39.8.84.78l11.79-.44c.22,0,1.42-.06,2.4-.9.34-.29.39-.8.1-1.15-.29-.34-.8-.39-1.15-.1-.02.02-.05.04-.07.05.55-1.2,1.63-2.98,3.7-4.65.84-.68,1.54-1.25,2.14-1.73,2.17-1.75,2.98-2.4,3.92-3.3.3-.29.6-.59.88-.88.97-.99,1.98-2.02,2.61-1.77.23.09.33.31.37.49.14.6-.15,1.72-1.38,3.03-3.5,3.75-2.94,4.64-2.7,5.01.84,1.31,3.52,1.21,4.32,1.15.2-.02.38-.1.52-.24.78-.8,2.43-2.06,3.51-2.07h0c.28,0,.48.08.67.26.94.94-.24,2.66-1.43,4.19-.11.15-.22.28-.31.41-.67.9-.54,2.1-.42,3.16.05.46.14,1.3,0,1.46-.81.67-1.39.87-1.39.87-.21.07-.4.2-.5.4-.1.2-.12.4-.04.61.01.08.07.51-.31,1.08-.19.28-.68.49-.83.53-.28.09-.5.31-.56.6,0,.04-.23.89-1.34,1.42-.94.45-3.18.61-5.78.8-1.14.08-2.43.18-3.76.3-4.47.43-15.29.89-15.4.89-.45.02-.8.4-.78.85.02.44.38.78.81.78.01,0,.02,0,.04,0,.11,0,10.96-.47,15.48-.9,1.32-.13,2.6-.22,3.73-.3,2.99-.22,5.15-.37,6.37-.95,1.27-.6,1.84-1.53,2.08-2.08.38-.17.94-.5,1.29-1.02.45-.66.58-1.27.6-1.72.34-.18.8-.46,1.33-.9.82-.68.69-1.81.57-2.9-.08-.76-.18-1.63.11-2.01.09-.12.19-.25.3-.39,1.16-1.5,3.32-4.31,1.29-6.34Z"/>
        </g>
        <path class="cls-4" d="M52.62,112.75c-.04-.12-.07-.23-.11-.35-.2-.59-.43-1.17-.72-1.73-.4,0-.8,0-1.19.01-.34,0-.67,0-1,.01-1.09.01-2.1.02-3.05.03-.34,0-.67,0-.99,0-1.12.01-2.14.02-3.06.03-.34,0-.67,0-.99,0-1.22.01-2.23.02-3.06.03-.36,0-.68,0-.97,0-1.56.01-2.22.02-2.22.02l-.89.08-.85.08-13.56,1.27-.49.05-3.27.31-.99.09-3.13.29-.77.07-10.5.98c-.12,1.64.04,3.09.4,4.36.08.3.18.58.29.86,1.04,2.7,3.13,4.56,5.69,5.82.17.08.34.16.51.24,1.7.77,3.59,1.3,5.5,1.65.3.06.6.11.9.16,5.79.92,11.67.4,13.5.33,1.04-.04,3.32-.1,6.08-.17.16,0,.33,0,.5-.01,1.09-.03,2.25-.05,3.42-.08.24,0,.49-.01.74-.02,1.08-.03,2.17-.05,3.24-.07.29,0,.58-.01.87-.02,1.09-.02,2.15-.05,3.13-.07.32,0,.64-.01.95-.02,1.19-.03,2.24-.05,3.08-.07.38,0,.71-.02.99-.02.63-.01.99-.02.99-.02,0,0,.22-.58.51-1.56.08-.28.17-.6.26-.94.72-2.8,1.52-7.5.27-11.66Z"/>
        <g>
          <path class="cls-6" d="M50.46,111.04c.1-.1.15-.23.15-.36-.34,0-.67,0-1,.01,0,.13.05.26.15.35.2.2.51.2.71,0Z"/>
          <path class="cls-6" d="M52.48,113.06c.09-.09.13-.2.14-.32-.04-.12-.07-.23-.11-.35-.01-.01-.02-.03-.03-.04-.2-.2-.51-.2-.71,0-.2.2-.2.51,0,.71.2.2.51.2.71,0Z"/>
          <path class="cls-6" d="M46.41,111.04c.09-.09.14-.21.14-.32-.34,0-.67,0-.99,0,0,.11.06.23.14.31.2.2.51.2.71,0Z"/>
          <path class="cls-6" d="M47.73,112.35c-.2.2-.2.51,0,.71.2.2.51.2.71,0,.2-.2.2-.51,0-.71-.2-.2-.51-.2-.71,0Z"/>
          <path class="cls-6" d="M49.75,114.38c-.2.2-.2.51,0,.71.2.2.51.2.71,0,.2-.2.2-.51,0-.71-.2-.2-.51-.2-.71,0Z"/>
          <path class="cls-6" d="M52.48,117.11c.2-.2.2-.51,0-.71s-.51-.2-.71,0c-.2.2-.2.51,0,.71.2.2.51.2.71,0Z"/>
          <path class="cls-6" d="M42.37,111.04c.08-.08.13-.18.14-.28-.34,0-.67,0-.99,0,.02.1.06.2.14.27.2.2.51.2.71,0Z"/>
          <path class="cls-6" d="M43.68,112.35c-.2.2-.2.51,0,.71.2.2.51.2.71,0,.2-.2.2-.51,0-.71-.2-.2-.51-.2-.71,0Z"/>
          <path class="cls-6" d="M45.7,114.38c-.2.2-.2.51,0,.71.2.2.51.2.71,0,.2-.2.2-.51,0-.71-.2-.2-.51-.2-.71,0Z"/>
          <path class="cls-6" d="M47.73,116.4c-.2.2-.2.51,0,.71.2.2.51.2.71,0,.2-.2.2-.51,0-.71-.2-.2-.51-.2-.71,0Z"/>
          <path class="cls-6" d="M49.75,118.42c-.2.2-.2.51,0,.71.2.2.51.2.71,0,.2-.2.2-.51,0-.71-.2-.2-.51-.2-.71,0Z"/>
          <path class="cls-6" d="M51.77,120.45c-.2.2-.2.51,0,.71.2.2.51.2.71,0,.2-.2.2-.51,0-.71-.2-.2-.51-.2-.71,0Z"/>
          <path class="cls-6" d="M38.32,111.04c.07-.07.11-.16.13-.25-.36,0-.68,0-.97,0,.02.09.06.17.13.24.2.2.51.2.71,0Z"/>
          <path class="cls-6" d="M39.63,112.35c-.2.2-.2.51,0,.71.2.2.51.2.71,0,.2-.2.2-.51,0-.71-.2-.2-.51-.2-.71,0Z"/>
          <path class="cls-6" d="M41.66,114.38c-.2.2-.2.51,0,.71.2.2.51.2.71,0,.2-.2.2-.51,0-.71-.2-.2-.51-.2-.71,0Z"/>
          <path class="cls-6" d="M43.68,116.4c-.2.2-.2.51,0,.71.2.2.51.2.71,0,.2-.2.2-.51,0-.71-.2-.2-.51-.2-.71,0Z"/>
          <path class="cls-6" d="M45.7,118.42c-.2.2-.2.51,0,.71.2.2.51.2.71,0,.2-.2.2-.51,0-.71-.2-.2-.51-.2-.71,0Z"/>
          <path class="cls-6" d="M47.73,120.45c-.2.2-.2.51,0,.71.2.2.51.2.71,0,.2-.2.2-.51,0-.71-.2-.2-.51-.2-.71,0Z"/>
          <path class="cls-6" d="M49.75,122.47c-.2.2-.2.51,0,.71.2.2.51.2.71,0,.2-.2.2-.51,0-.71s-.51-.2-.71,0Z"/>
          <path class="cls-6" d="M51.77,124.49c-.2.2-.2.51,0,.71.09.09.21.14.33.14.08-.28.17-.6.26-.94-.19-.1-.43-.07-.58.09Z"/>
          <path class="cls-6" d="M34.27,111.04s.07-.09.1-.14l-.85.08s.03.04.05.06c.2.2.51.2.71,0Z"/>
          <path class="cls-6" d="M35.59,112.35c-.2.2-.2.51,0,.71.2.2.51.2.71,0,.2-.2.2-.51,0-.71-.2-.2-.51-.2-.71,0Z"/>
          <path class="cls-6" d="M37.61,114.38c-.2.2-.2.51,0,.71.2.2.51.2.71,0,.2-.2.2-.51,0-.71-.2-.2-.51-.2-.71,0Z"/>
          <path class="cls-6" d="M39.63,116.4c-.2.2-.2.51,0,.71.2.2.51.2.71,0,.2-.2.2-.51,0-.71s-.51-.2-.71,0Z"/>
          <path class="cls-6" d="M41.66,118.42c-.2.2-.2.51,0,.71.2.2.51.2.71,0,.2-.2.2-.51,0-.71-.2-.2-.51-.2-.71,0Z"/>
          <path class="cls-6" d="M43.68,120.45c-.2.2-.2.51,0,.71.2.2.51.2.71,0,.2-.2.2-.51,0-.71-.2-.2-.51-.2-.71,0Z"/>
          <path class="cls-6" d="M45.7,122.47c-.2.2-.2.51,0,.71s.51.2.71,0c.2-.2.2-.51,0-.71-.2-.2-.51-.2-.71,0Z"/>
          <path class="cls-6" d="M47.73,124.49c-.2.2-.2.51,0,.71.2.2.51.2.71,0,.2-.2.2-.51,0-.71-.2-.2-.51-.2-.71,0Z"/>
          <path class="cls-6" d="M49.75,126.52c-.12.12-.16.28-.14.43.38,0,.71-.02.99-.02.02-.15-.03-.3-.14-.41-.2-.2-.51-.2-.71,0Z"/>
          <path class="cls-6" d="M31.54,112.35c-.2.2-.2.51,0,.71.2.2.51.2.71,0,.2-.2.2-.51,0-.71-.2-.2-.51-.2-.71,0Z"/>
          <path class="cls-6" d="M33.57,114.38c-.2.2-.2.51,0,.71.2.2.51.2.71,0,.2-.2.2-.51,0-.71-.2-.2-.51-.2-.71,0Z"/>
          <path class="cls-6" d="M35.59,116.4c-.2.2-.2.51,0,.71.2.2.51.2.71,0,.2-.2.2-.51,0-.71-.2-.2-.51-.2-.71,0Z"/>
          <path class="cls-6" d="M37.61,118.42c-.2.2-.2.51,0,.71.2.2.51.2.71,0,.2-.2.2-.51,0-.71-.2-.2-.51-.2-.71,0Z"/>
          <path class="cls-6" d="M39.63,120.45c-.2.2-.2.51,0,.71.2.2.51.2.71,0,.2-.2.2-.51,0-.71-.2-.2-.51-.2-.71,0Z"/>
          <path class="cls-6" d="M41.66,122.47c-.2.2-.2.51,0,.71.2.2.51.2.71,0,.2-.2.2-.51,0-.71s-.51-.2-.71,0Z"/>
          <path class="cls-6" d="M43.68,124.49c-.2.2-.2.51,0,.71.2.2.51.2.71,0,.2-.2.2-.51,0-.71-.2-.2-.51-.2-.71,0Z"/>
          <path class="cls-6" d="M45.7,126.52c-.14.14-.18.34-.12.52.32,0,.64-.01.95-.02.05-.17.01-.36-.12-.5-.2-.2-.51-.2-.71,0Z"/>
          <path class="cls-6" d="M27.5,112.35c-.2.2-.2.51,0,.71.2.2.51.2.71,0,.2-.2.2-.51,0-.71-.2-.2-.51-.2-.71,0Z"/>
          <path class="cls-6" d="M29.52,114.38c-.2.2-.2.51,0,.71.2.2.51.2.71,0,.2-.2.2-.51,0-.71-.2-.2-.51-.2-.71,0Z"/>
          <path class="cls-6" d="M31.54,116.4c-.2.2-.2.51,0,.71.2.2.51.2.71,0,.2-.2.2-.51,0-.71s-.51-.2-.71,0Z"/>
          <path class="cls-6" d="M33.57,118.42c-.2.2-.2.51,0,.71.2.2.51.2.71,0,.2-.2.2-.51,0-.71-.2-.2-.51-.2-.71,0Z"/>
          <path class="cls-6" d="M35.59,120.45c-.2.2-.2.51,0,.71.2.2.51.2.71,0,.2-.2.2-.51,0-.71-.2-.2-.51-.2-.71,0Z"/>
          <path class="cls-6" d="M37.61,122.47c-.2.2-.2.51,0,.71.2.2.51.2.71,0s.2-.51,0-.71c-.2-.2-.51-.2-.71,0Z"/>
          <path class="cls-6" d="M39.63,124.49c-.2.2-.2.51,0,.71.2.2.51.2.71,0,.2-.2.2-.51,0-.71-.2-.2-.51-.2-.71,0Z"/>
          <path class="cls-6" d="M41.66,126.52c-.16.17-.19.42-.08.61.29,0,.58-.01.87-.02.1-.19.07-.43-.09-.59-.2-.2-.51-.2-.71,0Z"/>
          <path class="cls-6" d="M23.45,112.35c-.2.2-.2.51,0,.71.2.2.51.2.71,0,.2-.2.2-.51,0-.71-.2-.2-.51-.2-.71,0Z"/>
          <path class="cls-6" d="M25.47,114.38c-.2.2-.2.51,0,.71.2.2.51.2.71,0,.2-.2.2-.51,0-.71-.2-.2-.51-.2-.71,0Z"/>
          <path class="cls-6" d="M27.5,116.4c-.2.2-.2.51,0,.71.2.2.51.2.71,0,.2-.2.2-.51,0-.71-.2-.2-.51-.2-.71,0Z"/>
          <path class="cls-6" d="M29.52,118.42c-.2.2-.2.51,0,.71.2.2.51.2.71,0,.2-.2.2-.51,0-.71-.2-.2-.51-.2-.71,0Z"/>
          <path class="cls-6" d="M31.54,120.45c-.2.2-.2.51,0,.71.2.2.51.2.71,0,.2-.2.2-.51,0-.71-.2-.2-.51-.2-.71,0Z"/>
          <path class="cls-6" d="M33.57,122.47c-.2.2-.2.51,0,.71s.51.2.71,0c.2-.2.2-.51,0-.71-.2-.2-.51-.2-.71,0Z"/>
          <path class="cls-6" d="M35.59,124.49c-.2.2-.2.51,0,.71.2.2.51.2.71,0,.2-.2.2-.51,0-.71-.2-.2-.51-.2-.71,0Z"/>
          <path class="cls-6" d="M37.61,126.52c-.19.19-.19.5,0,.7.24,0,.49-.01.74-.02.17-.2.17-.49-.02-.68-.2-.2-.51-.2-.71,0Z"/>
          <path class="cls-6" d="M19.96,112.25l-.49.05s-.05.04-.07.06c-.2.2-.2.51,0,.71.2.2.51.2.71,0,.2-.2.2-.51,0-.71-.05-.05-.1-.08-.15-.1Z"/>
          <path class="cls-6" d="M21.43,114.38c-.2.2-.2.51,0,.71.2.2.51.2.71,0,.2-.2.2-.51,0-.71-.2-.2-.51-.2-.71,0Z"/>
          <path class="cls-6" d="M23.45,116.4c-.2.2-.2.51,0,.71.2.2.51.2.71,0,.2-.2.2-.51,0-.71-.2-.2-.51-.2-.71,0Z"/>
          <path class="cls-6" d="M25.47,118.42c-.2.2-.2.51,0,.71.2.2.51.2.71,0,.2-.2.2-.51,0-.71-.2-.2-.51-.2-.71,0Z"/>
          <path class="cls-6" d="M27.5,120.45c-.2.2-.2.51,0,.71.2.2.51.2.71,0,.2-.2.2-.51,0-.71-.2-.2-.51-.2-.71,0Z"/>
          <path class="cls-6" d="M29.52,122.47c-.2.2-.2.51,0,.71.2.2.51.2.71,0,.2-.2.2-.51,0-.71s-.51-.2-.71,0Z"/>
          <path class="cls-6" d="M31.54,124.49c-.2.2-.2.51,0,.71.2.2.51.2.71,0,.2-.2.2-.51,0-.71-.2-.2-.51-.2-.71,0Z"/>
          <path class="cls-6" d="M33.57,126.52c-.2.2-.2.51,0,.71.04.04.08.06.12.08.16,0,.33,0,.5-.01.03-.02.07-.04.09-.07.2-.2.2-.51,0-.71-.2-.2-.51-.2-.71,0Z"/>
          <path class="cls-6" d="M16.07,113.06c.12-.12.17-.3.13-.46l-.99.09c0,.13.04.27.15.37.2.2.51.2.71,0Z"/>
          <path class="cls-6" d="M17.38,114.38c-.2.2-.2.51,0,.71.2.2.51.2.71,0,.2-.2.2-.51,0-.71-.2-.2-.51-.2-.71,0Z"/>
          <path class="cls-6" d="M19.41,116.4c-.2.2-.2.51,0,.71.2.2.51.2.71,0,.2-.2.2-.51,0-.71s-.51-.2-.71,0Z"/>
          <path class="cls-6" d="M21.43,118.42c-.2.2-.2.51,0,.71.2.2.51.2.71,0,.2-.2.2-.51,0-.71-.2-.2-.51-.2-.71,0Z"/>
          <path class="cls-6" d="M23.45,120.45c-.2.2-.2.51,0,.71.2.2.51.2.71,0,.2-.2.2-.51,0-.71-.2-.2-.51-.2-.71,0Z"/>
          <path class="cls-6" d="M25.47,122.47c-.2.2-.2.51,0,.71.2.2.51.2.71,0,.2-.2.2-.51,0-.71-.2-.2-.51-.2-.71,0Z"/>
          <path class="cls-6" d="M27.5,124.49c-.2.2-.2.51,0,.71.2.2.51.2.71,0,.2-.2.2-.51,0-.71-.2-.2-.51-.2-.71,0Z"/>
          <path class="cls-6" d="M29.52,126.52c-.2.2-.2.51,0,.71.2.2.51.2.71,0,.2-.2.2-.51,0-.71-.2-.2-.51-.2-.71,0Z"/>
          <path class="cls-6" d="M12.02,113.06s.04-.05.06-.07l-.77.07s0,0,0,0c.2.2.51.2.71,0Z"/>
          <path class="cls-6" d="M13.34,114.38c-.2.2-.2.51,0,.71.2.2.51.2.71,0,.2-.2.2-.51,0-.71-.2-.2-.51-.2-.71,0Z"/>
          <path class="cls-6" d="M15.36,116.4c-.2.2-.2.51,0,.71.2.2.51.2.71,0,.2-.2.2-.51,0-.71-.2-.2-.51-.2-.71,0Z"/>
          <path class="cls-6" d="M17.38,118.42c-.2.2-.2.51,0,.71.2.2.51.2.71,0,.2-.2.2-.51,0-.71-.2-.2-.51-.2-.71,0Z"/>
          <path class="cls-6" d="M19.41,120.45c-.2.2-.2.51,0,.71.2.2.51.2.71,0,.2-.2.2-.51,0-.71-.2-.2-.51-.2-.71,0Z"/>
          <path class="cls-6" d="M21.43,122.47c-.2.2-.2.51,0,.71.2.2.51.2.71,0,.2-.2.2-.51,0-.71s-.51-.2-.71,0Z"/>
          <path class="cls-6" d="M23.45,124.49c-.2.2-.2.51,0,.71.2.2.51.2.71,0,.2-.2.2-.51,0-.71-.2-.2-.51-.2-.71,0Z"/>
          <path class="cls-6" d="M25.47,126.52c-.2.2-.2.51,0,.71s.51.2.71,0c.2-.2.2-.51,0-.71-.2-.2-.51-.2-.71,0Z"/>
          <path class="cls-6" d="M9.29,114.38c-.2.2-.2.51,0,.71.2.2.51.2.71,0,.2-.2.2-.51,0-.71-.2-.2-.51-.2-.71,0Z"/>
          <path class="cls-6" d="M11.31,116.4c-.2.2-.2.51,0,.71.2.2.51.2.71,0,.2-.2.2-.51,0-.71-.2-.2-.51-.2-.71,0Z"/>
          <path class="cls-6" d="M13.34,118.42c-.2.2-.2.51,0,.71.2.2.51.2.71,0,.2-.2.2-.51,0-.71-.2-.2-.51-.2-.71,0Z"/>
          <path class="cls-6" d="M15.36,120.45c-.2.2-.2.51,0,.71.2.2.51.2.71,0,.2-.2.2-.51,0-.71-.2-.2-.51-.2-.71,0Z"/>
          <path class="cls-6" d="M17.38,122.47c-.2.2-.2.51,0,.71.2.2.51.2.71,0s.2-.51,0-.71c-.2-.2-.51-.2-.71,0Z"/>
          <path class="cls-6" d="M19.41,124.49c-.2.2-.2.51,0,.71.2.2.51.2.71,0,.2-.2.2-.51,0-.71-.2-.2-.51-.2-.71,0Z"/>
          <path class="cls-6" d="M21.43,126.52c-.2.2-.2.51,0,.71.2.2.51.2.71,0,.2-.2.2-.51,0-.71-.2-.2-.51-.2-.71,0Z"/>
          <path class="cls-6" d="M5.24,114.38c-.2.2-.2.51,0,.71.2.2.51.2.71,0,.2-.2.2-.51,0-.71-.2-.2-.51-.2-.71,0Z"/>
          <path class="cls-6" d="M7.27,116.4c-.2.2-.2.51,0,.71.2.2.51.2.71,0,.2-.2.2-.51,0-.71-.2-.2-.51-.2-.71,0Z"/>
          <path class="cls-6" d="M9.29,118.42c-.2.2-.2.51,0,.71.2.2.51.2.71,0,.2-.2.2-.51,0-.71-.2-.2-.51-.2-.71,0Z"/>
          <path class="cls-6" d="M11.31,120.45c-.2.2-.2.51,0,.71.2.2.51.2.71,0,.2-.2.2-.51,0-.71-.2-.2-.51-.2-.71,0Z"/>
          <path class="cls-6" d="M13.34,122.47c-.2.2-.2.51,0,.71s.51.2.71,0c.2-.2.2-.51,0-.71-.2-.2-.51-.2-.71,0Z"/>
          <path class="cls-6" d="M15.36,124.49c-.2.2-.2.51,0,.71.2.2.51.2.71,0,.2-.2.2-.51,0-.71-.2-.2-.51-.2-.71,0Z"/>
          <path class="cls-6" d="M17.38,126.52c-.2.2-.2.51,0,.71s.51.2.71,0c.2-.2.2-.51,0-.71-.2-.2-.51-.2-.71,0Z"/>
          <path class="cls-6" d="M1.2,114.38c-.2.2-.2.51,0,.71.2.2.51.2.71,0,.2-.2.2-.51,0-.71-.2-.2-.51-.2-.71,0Z"/>
          <path class="cls-6" d="M3.22,116.4c-.2.2-.2.51,0,.71.2.2.51.2.71,0,.2-.2.2-.51,0-.71-.2-.2-.51-.2-.71,0Z"/>
          <path class="cls-6" d="M5.24,118.42c-.2.2-.2.51,0,.71.2.2.51.2.71,0,.2-.2.2-.51,0-.71-.2-.2-.51-.2-.71,0Z"/>
          <path class="cls-6" d="M7.27,120.45c-.2.2-.2.51,0,.71.2.2.51.2.71,0,.2-.2.2-.51,0-.71-.2-.2-.51-.2-.71,0Z"/>
          <path class="cls-6" d="M9.29,122.47c-.2.2-.2.51,0,.71.2.2.51.2.71,0,.2-.2.2-.51,0-.71s-.51-.2-.71,0Z"/>
          <path class="cls-6" d="M11.31,124.49c-.2.2-.2.51,0,.71.2.2.51.2.71,0,.2-.2.2-.51,0-.71-.2-.2-.51-.2-.71,0Z"/>
          <path class="cls-6" d="M13.34,126.52c-.13.13-.17.31-.13.48.3.06.6.11.9.16.13-.19.11-.46-.06-.63-.2-.2-.51-.2-.71,0Z"/>
          <path class="cls-6" d="M1.21,118.41c.08.3.18.58.29.86.15.02.3-.03.41-.14.2-.2.2-.51,0-.71-.19-.19-.5-.19-.69-.01Z"/>
          <path class="cls-6" d="M3.22,120.45c-.2.2-.2.51,0,.71.2.2.51.2.71,0,.2-.2.2-.51,0-.71-.2-.2-.51-.2-.71,0Z"/>
          <path class="cls-6" d="M5.24,122.47c-.2.2-.2.51,0,.71.2.2.51.2.71,0,.2-.2.2-.51,0-.71-.2-.2-.51-.2-.71,0Z"/>
          <path class="cls-6" d="M7.27,124.49c-.16.16-.19.41-.08.61.17.08.34.16.51.24.1-.02.2-.06.27-.14.2-.2.2-.51,0-.71-.2-.2-.51-.2-.71,0Z"/>
        </g>
        <path class="cls-1" d="M24.97,128.42c-.43,0-.79-.34-.81-.78-.02-.45.33-.83.78-.85.63-.03,1.18-.06,1.64-.08.4-.02.73-.04.99-.05,3.39-.13,20.13-.49,23.43-.56.65-1.97,2.75-9.21.28-14.62-11.77.12-15.98.15-16.02.15h0c-.45,0-.81-.36-.81-.81,0-.45.36-.82.81-.82.04,0,4.36-.03,16.52-.15.3,0,.59.17.73.44,3.59,6.96,0,16.5-.16,16.91-.12.31-.41.51-.74.52-.2,0-20.24.43-23.97.57-.25,0-.57.03-.96.05-.47.03-1.03.06-1.66.08-.01,0-.02,0-.04,0Z"/>
      </g>
    </g>
  </g>
</svg>