<?xml version="1.0" encoding="UTF-8"?>
<svg id="_レイヤー_2" data-name="レイヤー 2" xmlns="http://www.w3.org/2000/svg" viewBox="0 0 710 142.92">
  <defs>
    <style>
      .cls-1 {
        fill: #0d1828;
      }

      .cls-2 {
        fill: #ffaf50;
      }

      .cls-3 {
        isolation: isolate;
      }

      .cls-4 {
        fill: #fff;
      }

      .cls-5 {
        fill: #0079b9;
      }

      .cls-6 {
        fill: #d3dee5;
      }
    </style>
  </defs>
  <g id="_レイヤー_1-2" data-name="レイヤー 1">
    <g class="cls-3">
      <polygon class="cls-4" points="145 140.92 145 81.08 126.59 83.31 145 65.19 145 2 708 2 708 140.92 145 140.92"/>
      <path class="cls-5" d="M706,4v134.92H147v-60.1l-4.48.54-10.34,1.25,13.63-13.41,1.19-1.18V4h559M710,0H143v64.36l-22,21.64,22-2.67v59.59h567V0h0Z"/>
    </g>
    <g class="cls-3">
      <path class="cls-5" d="M166.16,59.74c7.44-6.76,12.44-12.16,12.44-16.48,0-2.72-1.52-4.2-3.88-4.2-2.04,0-3.64,1.36-5.04,2.88l-3.88-3.84c2.92-3.08,5.64-4.6,9.88-4.6,5.76,0,9.76,3.68,9.76,9.36,0,5.12-4.4,10.76-8.96,15.36,1.48-.2,3.52-.4,4.84-.4h5.48v6h-20.64v-4.08Z"/>
      <path class="cls-5" d="M211.76,56.38h-3.32v7.44h-6.64v-7.44h-12.48v-4.92l10.36-17.4h8.76v16.92h3.32v5.4ZM201.8,50.98v-4.36c0-1.88.2-4.72.28-6.6h-.16c-.76,1.68-1.56,3.4-2.4,5.08l-3.4,5.88h5.68Z"/>
      <path class="cls-5" d="M227.84,59.94h-7.84v3.72h-5.36v-31.67h13.2v27.96ZM220,37.14v6.04h2.44v-6.04h-2.44ZM222.44,54.78v-6.56h-2.44v6.56h2.44ZM247.67,46.3v2.76h3.4v5.04h-3.4v7.6c0,2.64-.48,4.08-2.24,4.92-1.76.84-4,.96-6.88.96-.2-1.6-1.04-3.92-1.8-5.44,1.68.08,3.84.08,4.44.08s.8-.12.8-.64v-7.48h-13.44v-5.04h13.44v-2.76h-13.44v-5.08h8.48v-2.64h-7.36v-5h7.36v-4h5.72v4h7.64v5h-7.64v2.64h8.52v5.08h-3.6ZM234,63.34c-.68-1.84-2.6-4.6-4.32-6.6l4.64-2.64c1.76,1.88,3.84,4.44,4.68,6.36l-5,2.88Z"/>
      <path class="cls-5" d="M260.68,46.02v21.6h-5.76V31.06h15.92v14.96h-10.16ZM260.68,35.18v1.36h4.72v-1.36h-4.72ZM265.4,41.94v-1.56h-4.72v1.56h4.72ZM289.35,60.98c0,2.96-.56,4.6-2.32,5.56-1.8.96-4.2,1.08-7.72,1.08-.12-1-.48-2.4-.92-3.72h-9.04v2.04h-5.24v-17.84h15.76v13.72h2.64c.72,0,.96-.24.96-.92v-14.76h-10.44v-15.08h16.32v29.92ZM269.36,52.3v1.68h5.08v-1.68h-5.08ZM274.44,59.7v-1.68h-5.08v1.68h5.08ZM278.56,35.18v1.36h4.92v-1.36h-4.92ZM283.47,42.06v-1.68h-4.92v1.68h4.92Z"/>
      <path class="cls-5" d="M301.6,43.02c3.08,0,5.6,2.52,5.6,5.6s-2.52,5.6-5.6,5.6-5.6-2.52-5.6-5.6,2.52-5.6,5.6-5.6Z"/>
      <path class="cls-5" d="M348.99,49.06c-4.76,12.08-15.8,16.64-29.96,18.56-.44-1.56-1.52-3.96-2.48-5.28,5.44-.52,10.44-1.48,14.6-3.16-1.36-1.16-3.28-2.52-4.88-3.52-1.64.76-3.36,1.48-5.2,2.16-.68-1.36-2.32-3.52-3.52-4.52,6.28-1.84,10.96-4.36,14.2-7.16-4.76,2.52-10.32,4.24-16.08,5.36-.52-1.44-1.64-3.68-2.64-4.92,4.4-.64,8.68-1.72,12.48-3.24-1.2-.96-2.84-2-4.28-2.8-1.28.6-2.6,1.2-4.04,1.76-.8-1.36-2.6-3.36-3.84-4.28,7.04-2.16,11.84-5.32,14.56-8.56l6.28,1.36c-.48.56-1,1.08-1.48,1.6h6.72l.92-.24,3.76,2.16c-2,3.8-4.88,6.88-8.36,9.32l5,1.16c-.76.88-1.52,1.72-2.32,2.52h5.68l1-.24,3.88,1.96ZM327.08,37.14c-.32.24-.64.44-.96.64,1.72.92,3.56,2.04,4.68,2.96,1.76-1.08,3.36-2.28,4.68-3.6h-8.4ZM332.56,52.14c-.4.28-.8.52-1.2.76,1.76,1.04,3.84,2.36,5.08,3.48,1.72-1.2,3.2-2.6,4.36-4.24h-8.24Z"/>
      <path class="cls-5" d="M389.23,37.02v4.88h-36.75v-4.88h36.75ZM358.08,54.42h25.64v13.04h-6.04v-1.08h-13.88v1.2h-5.72v-13.16ZM383,47.54h-24.16v-4.52h24.16v4.52ZM358.84,48.7h24.16v4.52h-24.16v-4.52ZM382.2,35.9h-22.52v-4.52h22.52v4.52ZM363.8,59.22v2.44h13.88v-2.44h-13.88Z"/>
      <path class="cls-5" d="M406.56,40.94h-15.16v-4.52h15.16v4.52ZM405.44,66.17h-7.4v1.44h-4.84v-13.88h12.24v12.44ZM405.08,46.62h-11.72v-4.32h11.72v4.32ZM393.36,47.98h11.72v4.32h-11.72v-4.32ZM405.16,35.1h-11.56v-4.32h11.56v4.32ZM398.04,58.26v3.4h2.48v-3.4h-2.48ZM429.55,45.58v5.04h-23.44v-5.04h4.72c.2-.96.4-2,.56-3.08h-3.04v-4.88h3.8l.28-2.12h-4.72v-4.92h20.36v4.92h-10l-.32,2.12h8.44v7.96h3.36ZM409,52.22h17.96v15.24h-5.68v-1.2h-6.84v1.36h-5.44v-15.4ZM414.44,57.38v3.72h6.84v-3.72h-6.84ZM417,42.5c-.2,1.08-.36,2.12-.56,3.08h4.2v-3.08h-3.64Z"/>
      <path class="cls-5" d="M448.16,42.42c-.72,4.12-1.76,7.84-3.12,11.2,1.64,2.24,3.08,4.4,3.96,6.28l-4.64,3.96c-.56-1.32-1.36-2.8-2.36-4.4-2.04,3.16-4.6,5.8-7.68,7.88-.72-1.16-2.72-3.52-3.88-4.56,3.48-2,6.12-4.84,8.08-8.4-2.04-2.76-4.28-5.52-6.4-7.88l4.08-3.32c1.52,1.64,3.16,3.48,4.76,5.36.68-2.16,1.2-4.48,1.56-6.92l5.64.8ZM468.83,43.7h-4v16.88c0,3.12-.52,4.76-2.2,5.76-1.72,1-4.28,1.24-7.6,1.24-.16-1.72-1-4.52-1.8-6.28,2.08.12,4.2.12,4.92.12.68,0,.92-.2.92-.88v-16.84h-9.52v-2.8h-17.92v-5.36h6.64v-5.88h5.56v5.88h7.08v2.6h8.16v-8.52h5.76v8.52h4v5.56ZM453.28,46.3c1.84,2.56,3.76,5.92,4.4,8.32l-5,2.56c-.56-2.32-2.28-5.92-4.04-8.6l4.64-2.28Z"/>
      <path class="cls-5" d="M479.64,43.98c0,6.68-.68,17.12-4.4,23.52-1.08-.96-3.68-2.68-5.04-3.28,3.36-5.76,3.6-14.36,3.6-20.24v-9.96h14.08v-4.4h6.08v4.4h14.08v5.52h-15.84c3,1.48,6.64,3.52,8.6,5.16l-4.2,4.32c-1.96-1.88-6.32-4.6-9.64-6.28l3.24-3.2h-10.56v4.44ZM478.48,62.06c1.52-3.08,2.24-7.56,2.56-12.16l5.24,1.12c-.36,4.76-.96,10.04-2.64,13.32l-5.16-2.28ZM503.44,64.25c-.2-1.56-.68-3.52-1.36-5.6-.52,6.36-1.96,8.24-5.76,8.24h-3.64c-4.68,0-5.8-1.72-5.8-6.8v-13.08h5.76v13.04c0,1.52.16,1.68,1.04,1.68h2.08c.96,0,1.16-.92,1.32-6.2,1.08.88,3.24,1.76,4.72,2.2-.8-2.36-1.84-4.88-2.92-7.04l5.2-2c2.24,4.2,4.48,9.52,5.08,13.24l-5.72,2.32Z"/>
      <path class="cls-5" d="M527.64,60.14c1.68-.2,2.76-.44,3.88-.72,5.04-1.24,8.4-4.76,8.4-9.96s-2.48-8.76-7.04-9.84c-.52,3.2-1.24,6.68-2.32,10.32-2.36,7.92-5.92,13.24-10.6,13.24s-8.64-5.32-8.64-12.08c0-9.4,8.12-17.4,18.72-17.4s16.48,6.96,16.48,15.96c0,8.32-4.92,14.44-15.24,16.16l-3.64-5.68ZM526.36,39.74c-5.88,1.6-8.8,6.92-8.8,10.72,0,3.44,1.2,5.24,2.56,5.24,1.6,0,2.8-2.4,4.2-7,.88-2.68,1.56-5.84,2.04-8.96Z"/>
      <path class="cls-5" d="M191.88,115.02l.04-2h-17.56c-1.52,0-4.04.12-5.48.28v-6.92c1.56.12,3.4.24,5.28.24h17.8v-15.2h-17.32c-1.8,0-4.04.08-5.28.16v-6.72c1.6.16,3.84.28,5.28.28h20.4c1.28,0,3.2-.08,3.8-.12-.04.96-.12,2.72-.12,4.04v20.76c0,1.36.08,3.64.2,5.2h-7.04Z"/>
      <path class="cls-5" d="M206.08,94.62c1.6.12,4.96.28,6.92.28h21.24c1.8,0,3.76-.2,4.92-.28v7.64c-1.04-.04-3.28-.24-4.92-.24h-21.24c-2.28,0-5.28.12-6.92.24v-7.64Z"/>
      <path class="cls-5" d="M242,112.1c3.64-2.52,5.68-6.28,6.72-9.44,1.12-3.28,1.16-10.64,1.16-15.64,0-1.88-.16-3.04-.44-4.12h7.12s-.32,2.12-.32,4.04c0,4.92-.12,13.28-1.16,17.32-1.24,4.64-3.68,8.6-7.16,11.76l-5.92-3.92ZM260.64,112.9c.2-.84.36-2.08.36-3.32v-22.96c0-1.96-.36-3.72-.36-3.72h7.2s-.32,1.8-.32,3.76v19.68c3-1.24,6.4-4.12,8.88-7.64l3.72,5.36c-3.24,4.12-9.08,8.56-13.52,10.84-.92.48-1.36.92-1.92,1.32l-4.04-3.32Z"/>
      <path class="cls-5" d="M302.16,102.02c2.44-2.16,4.88-5.4,5.96-7.32-1.44.28-5.84,1.16-10.68,2.12v9.84c0,2.36.52,3.2,4.68,3.2s8.76-.6,12.72-1.4l-.2,6.56c-3.16.44-8.4.88-12.32.88-10.04,0-11.32-2.32-11.32-7.52v-10.24c-3.32.68-6.24,1.28-7.96,1.68l-1.16-6.32c1.92-.24,5.32-.8,9.12-1.48v-5.04c0-1.44-.16-3.88-.36-5.12h7.2c-.2,1.24-.4,3.64-.4,5.12v3.84c5.2-.96,10.08-1.96,11.92-2.4,1.28-.32,2.36-.6,3.24-1.08l4.68,3.64c-.4.64-1.08,1.68-1.48,2.48-1.72,3.36-5.64,9.12-8.32,11.68l-5.32-3.12Z"/>
      <path class="cls-5" d="M335.24,104.46c7.2-4.16,12.6-10.36,15.28-16l3.76,6.84c-3.2,5.68-8.88,11.24-15.56,15.16-4.08,2.4-9.28,4.48-14.32,5.28l-4.12-6.4c5.88-.8,11.04-2.6,14.96-4.88ZM336.6,91.38l-4.96,5.08c-2.12-2.32-7.16-6.72-10.04-8.76l4.6-4.92c2.76,1.88,8,6.04,10.4,8.6Z"/>
      <path class="cls-5" d="M389.68,88.34c-.52.88-1.12,2.08-1.56,3.28-1,2.8-2.76,6.64-5.32,10.36,1.48.96,2.8,1.84,3.8,2.56l-4.4,5.72c-.96-.84-2.28-1.84-3.72-2.88-3.52,3.76-8,7.16-14.2,9.56l-5.64-4.88c7.04-2.2,11.28-5.28,14.4-8.4-2.44-1.6-4.84-3.08-6.72-4.16l4.12-4.64c1.96,1.04,4.4,2.36,6.8,3.76,1.68-2.48,3.12-5.32,3.6-7.32h-10.28c-2.92,3.8-6.76,7.64-10.52,10.24l-5.24-4.04c7.08-4.36,10.56-9.56,12.68-12.92.72-1.12,1.68-3.2,2.12-4.76l7,2.16c-.88,1.24-1.8,2.8-2.4,3.84h6.64c1.32,0,2.92-.2,3.96-.52l4.88,3.04Z"/>
      <path class="cls-5" d="M393.16,94.62c1.6.12,4.96.28,6.92.28h21.24c1.8,0,3.76-.2,4.92-.28v7.64c-1.04-.04-3.28-.24-4.92-.24h-21.24c-2.28,0-5.28.12-6.92.24v-7.64Z"/>
    </g>
    <g id="woman">
      <g>
        <path class="cls-4" d="M56.57,90.79c-3.33-1.58-7.58-5.26-7.58-10.03v-2.76l-9.58-6.99-11.66-9.62v19.37c0,4.77-4.25,8.46-7.58,10.03-6.84,3.23-9.6,7.45-9.6,7.45l20.2,11.04h15.2l20.2-11.04s-2.76-4.22-9.6-7.45Z"/>
        <path class="cls-1" d="M66.96,97.75c-.12-.18-2.98-4.47-9.98-7.78-2.3-1.09-5.99-3.78-6.86-7.56,0-.03,0-.05,0-.05.01-.17-.03-.33-.1-.47-.06-.37-.09-.74-.09-1.12v-2.76c0-.29-.14-.56-.38-.74l-9.55-6.97-11.64-9.6c-.28-.23-.67-.28-1-.13-.33.15-.54.48-.54.83v19.37c0,4.63-4.43,7.97-7.05,9.21-7,3.31-9.86,7.6-9.98,7.78-.14.21-.18.47-.12.72.06.25.23.46.45.58l20.2,11.04c.45.25,1.02.09,1.28-.35.25-.44.09-1-.36-1.25l-19.25-10.52c1.12-1.33,3.85-4.09,8.61-6.34,4.04-1.91,8.11-6.01,8.11-10.86v-17.39l10.12,8.35s.03.02.04.03l9.2,6.71v2.3c0,.6.06,1.2.18,1.77-.05,1.09-.12,4.92,1.01,7.19.16.33.5.52.85.52.14,0,.28-.03.41-.09.47-.22.66-.77.43-1.23-.27-.55-.46-1.23-.58-1.94,1.55,2.01,3.68,3.63,5.81,4.64,4.76,2.25,7.48,5.01,8.61,6.34l-19.25,10.52c-.45.25-.61.81-.36,1.25.17.3.49.47.82.47.15,0,.31-.04.46-.12l20.2-11.04c.23-.12.39-.33.45-.58.06-.25.02-.51-.12-.72Z"/>
      </g>
      <g>
        <path class="cls-4" d="M48.28,101.9c-5.48,1.06-21.92-5.15-21.92-5.15l11.13,22.56h25.24l1.8-11.25-5.43-12.43s-4.81,5.1-10.82,6.26Z"/>
        <path class="cls-1" d="M37.49,120.24c-.35,0-.68-.19-.85-.52l-11.13-22.56c-.17-.34-.11-.74.15-1.02.26-.28.67-.37,1.03-.23,4.5,1.7,17.13,5.93,21.41,5.1,5.63-1.09,10.27-5.93,10.32-5.98.22-.23.54-.33.85-.28.31.05.58.26.7.54l5.43,12.43c.07.16.09.33.06.5l-1.8,11.25c-.08.5-.56.84-1.07.77-.51-.08-.86-.55-.78-1.05l1.76-10.99-4.78-10.95c-1.77,1.59-5.67,4.66-10.32,5.56-4.5.87-15.52-2.73-20.25-4.4l10.12,20.51c.23.46.03,1.01-.44,1.23-.13.06-.27.09-.41.09Z"/>
      </g>
      <g>
        <path class="cls-6" d="M68.53,96.67h0l-9.46-5.69-2.79-2.93-6.2-3.14s9.56,20.84,9.56,26.2c0,1.59-.45,4.67-1.09,8.21h20.08c-1.92-7.27-3.66-13.66-4.32-15.63-1.96-5.81-5.79-7.02-5.79-7.02Z"/>
        <path class="cls-1" d="M78.64,120.24c-.42,0-.8-.27-.91-.69-2.28-8.63-3.73-13.87-4.3-15.57-1.77-5.24-5.06-6.39-5.2-6.44-.07-.02-.14-.05-.2-.09l-9.46-5.69c-.07-.04-.14-.1-.19-.16l-2.68-2.81-3.69-1.87c2.53,5.69,8.57,19.75,8.57,24.19,0,1.5-.36,4.24-1.11,8.37-.09.5-.58.83-1.09.75-.51-.09-.85-.56-.76-1.06.72-3.97,1.08-6.68,1.08-8.05,0-4.08-6.2-18.68-9.48-25.83-.16-.36-.08-.78.21-1.04.29-.27.72-.33,1.08-.15l6.2,3.14c.1.05.18.11.25.19l2.7,2.84,9.27,5.58c.73.27,4.36,1.9,6.27,7.56.59,1.74,2.05,7.02,4.34,15.69.13.49-.17.99-.67,1.12-.08.02-.16.03-.24.03Z"/>
      </g>
      <g>
        <path class="cls-6" d="M26.67,84.09l-4.76,4.27v1.41l-11.03,6.91s-8.22,1.7-9.72,9.53c-.54,2.8-.05,7.87.95,13.12h44.44l-3.36-8.21-16.52-27.02Z"/>
        <path class="cls-1" d="M46.55,120.24c-.37,0-.72-.22-.87-.58l-3.33-8.14-15.89-25.99-3.61,3.23v1c0,.31-.16.61-.43.77l-11.03,6.91c-.1.06-.2.1-.31.13-.31.06-7.62,1.68-8.99,8.8-.47,2.46-.13,7.12.95,12.79.09.5-.24.98-.75,1.07-.51.09-1-.24-1.09-.74-.65-3.46-1.65-9.8-.95-13.46,1.49-7.78,8.98-9.91,10.27-10.22l10.46-6.55v-.9c0-.26.11-.5.3-.68l4.76-4.27c.21-.19.49-.27.77-.23.28.04.52.2.67.44l16.52,27.02s.05.08.07.13l3.36,8.21c.19.47-.04,1.01-.52,1.19-.11.04-.23.07-.35.07Z"/>
      </g>
      <path class="cls-1" d="M63.65,120.24c-.08,0-.16,0-.24-.03-.5-.13-.8-.63-.67-1.12l.07-.24,2.35-15.63-4.75-3.58c-.22-.17-.36-.42-.37-.7,0-.28.11-.54.32-.72l2.17-1.85-4.18-4.78c-.34-.39-.29-.97.1-1.3.39-.33.99-.28,1.32.1l4.78,5.47c.33.38.29.96-.1,1.29l-2.01,1.72,4.28,3.23c.27.2.41.53.36.86l-2.44,16.22s-.01.07-.02.1l-.08.29c-.11.41-.49.68-.91.68Z"/>
      <g>
        <g>
          <g>
            <path class="cls-2" d="M24.34,35.23c4.43-6.17,8.47-6.44,10.44-6.17.72-1.33,3.95-3.61,10.67-2.67,3.77.53,10.53,3.06,15.08,8.4,7.59,8.93,6.92,18.59,6.92,18.59,0,0,1.57,14.84-1.11,20.02-1.49,2.89-4.66,5.82-9.91,6.03-2.83.12-28.41-18.19-28.41-18.19,0,1.35.18,9.28,1.71,12.65,1.53,3.36,4.08,4.13,4.08,4.13,0,0-2.55,2.26-6.93,1.46-3.72-.68-9.95-4.18-10.75-14.42-.61-7.8,2.48-21.83,8.21-29.82Z"/>
            <path class="cls-1" d="M15.2,65.12c1,12.7,9.77,14.93,11.52,15.25.72.13,1.4.19,2.03.19,1.27,0,2.35-.23,3.22-.53,0,0,.01,0,.02,0,1.54-.53,2.41-1.28,2.47-1.34.25-.22.36-.56.29-.88-.07-.32-.32-.58-.64-.68-.08-.03-2.17-.73-3.5-3.63-1.07-2.34-1.47-7.38-1.59-10.44,2.31,1.63,6.9,4.87,11.63,8.06,13.75,9.3,15.16,9.24,15.84,9.21,6.76-.28,9.74-4.66,10.7-6.54,2.69-5.22,1.34-19.17,1.21-20.45.05-1.04.32-10.38-7.15-19.15-4.98-5.85-12.19-8.23-15.66-8.72-6.51-.91-9.99,1.08-11.27,2.61-2.75-.18-6.68.94-10.75,6.62-5.8,8.1-9.02,22.27-8.37,30.42ZM25.11,35.76c3.8-5.31,7.26-6.09,9.5-5.8.17.04,1.14.33,1.7,1.17.18.27.48.42.79.42.17,0,.35-.05.51-.15.44-.27.56-.84.28-1.27-.44-.67-1.02-1.13-1.54-1.43,1.25-.96,4.03-2.11,8.98-1.41,4.16.58,10.47,3.36,14.49,8.07,7.25,8.52,6.72,17.84,6.71,17.94,0,.05,0,.1,0,.16.02.15,1.51,14.63-1.01,19.51-.82,1.58-3.34,5.29-9.11,5.53-2.01-.14-17.48-10.62-27.81-18.01-.28-.2-.66-.23-.98-.08-.32.16-.51.47-.51.82,0,.09.02,9.14,1.79,13.02.89,1.96,2.11,3.13,3.08,3.81-.15.07-.31.13-.48.19-4.19.43-6.47-4.69-6.49-4.74-.2-.47-.75-.68-1.23-.49-.48.2-.7.74-.5,1.2.07.16,1.12,2.52,3.18,4.2-2.33-.61-8.57-3.21-9.38-13.45-.6-7.67,2.55-21.56,8.04-29.22Z"/>
          </g>
          <g>
            <path class="cls-4" d="M54.46,45.36c-4.64-3.93-3.81-5.11-8.41-8.17-3.99-2.65-6.24-.85-6.24-.85,0,0-.36,7.25-2.72,11.74-4.02,7.66-7.12,7.87-7.12,7.87l-2.21-.98c0,1.72,0,2.87,0,2.87v6.14l7.15,10.55s8.6,7.95,15.85,7.87c4.27-.04,13.06-8.51,13.06-17.81,0-4.75.65-6.98.84-8.98.08-.83.06-2.87-.68-3.9-.74-1.03-4.91-2.44-9.52-6.35Z"/>
            <path class="cls-1" d="M34.25,75.2c-.38-.35-.39-.93-.04-1.3.36-.37.95-.39,1.33-.04.08.08,8.33,7.62,15.1,7.62.03,0,.06,0,.09,0,3.79-.04,12.14-8.23,12.14-16.89,0-3.47.33-5.6.6-7.3.1-.65.19-1.22.25-1.76.09-.92-.01-2.6-.51-3.29-.18-.25-1.19-.81-2.07-1.3-1.78-.99-4.47-2.49-7.29-4.88-2.17-1.84-3.18-3.1-4.07-4.21-1.03-1.29-1.85-2.3-4.24-3.89-2.53-1.68-4.17-1.33-4.81-1.06-.13,1.75-.7,7.64-2.79,11.61-4.15,7.89-7.52,8.34-7.89,8.36-.15.01-.31-.02-.45-.08l-.89-.39c0,.9,0,1.45,0,1.45v6.14c0,.51-.42.92-.94.92s-.94-.41-.94-.92v-6.14s0-1.16,0-2.88c0-.31.16-.6.43-.77s.6-.19.89-.06l1.92.85c.68-.24,3.11-1.46,6.19-7.32,2.24-4.26,2.61-11.29,2.62-11.36.01-.26.14-.5.34-.67.11-.09,2.85-2.2,7.36.8,2.63,1.75,3.57,2.92,4.66,4.28.84,1.05,1.79,2.23,3.83,3.96,2.68,2.27,5.17,3.66,6.99,4.68,1.41.78,2.26,1.26,2.68,1.84,1.12,1.55.86,4.4.85,4.52-.06.6-.16,1.21-.26,1.87-.26,1.65-.58,3.7-.58,7.03,0,9.4-8.85,18.68-13.99,18.73-.04,0-.07,0-.11,0-7.51,0-16.03-7.79-16.39-8.13Z"/>
          </g>
          <g>
            <path class="cls-4" d="M29.12,54.81c-1.41-1.4-7.22-2.05-7.22,4.94,0,4.45,4.56,8.67,8.74,7.62l-.15-10.12s-.27-1.34-1.37-2.44Z"/>
            <path class="cls-1" d="M29.32,68.45c.52,0,1.04-.06,1.55-.19.5-.13.8-.63.67-1.12-.13-.49-.64-.79-1.14-.66-1.47.37-3.15-.05-4.61-1.16-1.82-1.38-2.96-3.52-2.96-5.57,0-2.47.78-4.08,2.25-4.68,1.39-.56,2.93-.05,3.36.38.88.87,1.12,1.96,1.12,1.97.1.49.6.82,1.1.72.51-.1.84-.58.74-1.07-.01-.07-.33-1.63-1.63-2.91-1.02-1.01-3.38-1.6-5.41-.79-1.27.51-3.41,2.02-3.41,6.38,0,2.61,1.41,5.3,3.68,7.03,1.44,1.1,3.09,1.67,4.68,1.67Z"/>
          </g>
          <g>
            <path class="cls-4" d="M28.13,67.21c0,.9.75,1.63,1.67,1.63.92,0,1.67-.73,1.67-1.63,0-.9-.75-1.63-1.67-1.63-.92,0-1.67.73-1.67,1.63Z"/>
            <path class="cls-1" d="M27.19,67.21c0-1.41,1.17-2.55,2.61-2.55h0c.7,0,1.35.27,1.84.75.49.48.76,1.12.76,1.8,0,1.41-1.17,2.55-2.61,2.55h0c-1.44,0-2.61-1.14-2.61-2.55ZM29.8,66.49c-.4,0-.73.32-.73.72,0,.39.33.71.73.71h0c.4,0,.73-.32.73-.72,0-.19-.08-.37-.21-.51-.14-.13-.32-.21-.52-.21h0Z"/>
          </g>
        </g>
        <path class="cls-1" d="M53.11,67.11c.03-.32.6-.39,1.16-.78.55-.41.83-.95,1.12-.85.29.1.77,1.31-.32,2.15-1.13.77-1.98-.18-1.95-.51Z"/>
        <path class="cls-1" d="M39.51,53.3c-.24,0-.47-.1-.64-.29-.3-.35-.25-.86.1-1.15,1.43-1.18,4.8-2.45,8.2-1.09.43.17.63.65.46,1.06-.17.42-.66.62-1.09.45-2.72-1.08-5.38-.1-6.5.83-.16.13-.35.19-.54.19Z"/>
        <path class="cls-1" d="M60.47,52.77c-.15,0-.3-.04-.44-.12-.86-.52-2.88-1.17-5-.32-.43.17-.91-.03-1.09-.44-.18-.42.03-.89.45-1.07,2.74-1.1,5.38-.24,6.51.44.39.24.51.74.27,1.12-.16.25-.43.39-.71.39Z"/>
        <path class="cls-1" d="M50.41,76.19h0c-3.41,0-4.64-4.89-4.69-5.1-.06-.24,0-.5.16-.7.16-.2.4-.31.65-.31h7.86c.26,0,.5.12.66.32.16.2.21.46.15.7-.06.21-1.39,5.08-4.78,5.08ZM47.68,71.72c.45,1.14,1.35,2.83,2.73,2.84h0c1.39,0,2.33-1.69,2.8-2.83h-5.53Z"/>
        <path class="cls-1" d="M40.29,57.25c-.07,0-.13,0-.2-.02-.51-.11-.83-.6-.72-1.09.33-1.51,2-2.46,2.75-2.69,2.7-.8,4.25.84,4.31.91.35.38.32.96-.07,1.3-.38.34-.97.31-1.32-.06-.09-.09-.89-.83-2.38-.39-.44.13-1.34.73-1.46,1.31-.09.43-.48.73-.92.73Z"/>
        <path class="cls-1" d="M54.55,57.25c-.11,0-.21-.02-.32-.06-.49-.17-.74-.7-.56-1.18.46-1.23,1.52-2.08,3-2.4,1.21-.26,2.98.01,4,1.66.27.43.13,1-.32,1.26-.44.26-1.02.12-1.29-.31-.65-1.04-1.77-.86-1.99-.81-.85.18-1.4.6-1.64,1.23-.14.37-.5.6-.88.6Z"/>
        <path class="cls-1" d="M42.98,55.82c.4-.4.9-.64,1.38-.64.37,0,.76.15,1.09.45.47.42.76,1.05.76,1.64,0,.55-.27,1.12-.72,1.54-.36.33-.77.5-1.18.51-.01,0-.03,0-.04,0-.89-.02-1.82-1.08-1.89-2.14-.03-.45.19-.95.6-1.36Z"/>
        <path class="cls-1" d="M57.05,55.81c.36-.4.81-.63,1.24-.64.33,0,.68.16.98.46.42.42.68,1.05.69,1.65,0,.55-.24,1.12-.65,1.53-.32.32-.69.5-1.06.51-.01,0-.03,0-.04,0-.8-.02-1.64-1.08-1.7-2.15-.03-.45.17-.95.53-1.35Z"/>
      </g>
      <path class="cls-1" d="M71.39,120.24c-.49,0-.9-.37-.94-.86-.35-5.38-1.2-10.9-1.2-10.95-.08-.5.28-.97.79-1.05.51-.08.99.27,1.07.77,0,.06.86,5.64,1.22,11.11.03.51-.36.94-.88.98-.02,0-.04,0-.06,0Z"/>
      <g>
        <path class="cls-4" d="M114.17,77.26c.16-.16.56-.67.05-1.49-.74-1.18-4.95.52-6.58,1.39-1.58-.86-5.46-.39-12.2,5.77,0,0-4.71,4.28-5.06,4.38.27-.97,3.3-4.49,4.02-5.66,1.07-1.74.3-3.76-.7-3.92-2.04-.32-2.28,1.97-4.53,4.21-2.26,2.24-7.1,8.67-8.02,11.94-.96,3.4.52,6.69.52,6.69l-2.11,15.53,10.7,2.04s1.89-13.47,3.15-15.08c1.25-1.6,7.1-8.01,10.9-11.14,4.58-3.76,7.54-6.91,8.04-7.56,1.3-1.66-.12-3.14-1.2-2.63,1.94-1.68,4.11-2.2,3.88-3.6-.07-.4-.3-.78-.87-.87Z"/>
        <path class="cls-1" d="M88.01,98.44c-.11,0-.22-.02-.32-.06-.49-.18-.74-.7-.56-1.18,1.52-4.03,4.37-5.13,7.13-6.19,1.52-.58,2.96-1.14,4.25-2.17.4-.32.99-.26,1.32.13.33.39.27.97-.13,1.29-1.52,1.22-3.16,1.85-4.75,2.46-2.59,1-4.83,1.86-6.05,5.11-.14.37-.5.6-.88.6Z"/>
        <path class="cls-1" d="M115.97,77.99c-.08-.46-.28-.85-.58-1.13.08-.46,0-.99-.37-1.56-1.25-2-5.97.14-7.41.85-1.61-.55-5.3-.54-12.16,5.54.62-1.32.46-2.64.05-3.49-.36-.76-.96-1.26-1.64-1.37-1.89-.3-2.76,1-3.61,2.26-.46.68-.98,1.45-1.74,2.21-2.28,2.26-7.26,8.82-8.26,12.34-.89,3.16.12,6.17.47,7.05l-2.07,15.29c-.07.5.29.97.81,1.03.51.07.99-.29,1.05-.79l1.85-13.62h0c.18.2.43.3.68.3.23,0,.46-.08.65-.25.38-.35.39-.93.04-1.3l-1.24-1.28c-.24-.62-1.17-3.27-.42-5.94.86-3.06,5.63-9.41,7.78-11.54.89-.88,1.49-1.77,1.97-2.49.85-1.27,1.12-1.56,1.73-1.46.06.03.23.19.34.54.21.63.1,1.38-.28,2.01-.25.41-.87,1.21-1.52,2.05-1.1,1.43-1.89,2.46-2.31,3.2l-1.49.07c-.52.02-.92.45-.89.96.02.49.44.88.94.88.01,0,.03,0,.04,0l2.06-.09s.01,0,.02,0c.05,0,.1-.01.14-.02.01,0,.02,0,.04,0,0,0,.01,0,.02,0,.04-.01.08-.02.14-.05,0,0,.01,0,.02,0,.33-.17,1.24-.86,5.28-4.53,3.97-3.64,6.7-5.08,8.46-5.59-2.96,2.11-6.66,5.23-6.87,5.4-.39.33-.43.91-.1,1.3.19.21.45.32.71.32.22,0,.44-.07.61-.22,1.88-1.59,7.18-5.91,9.14-6.82,0,0,.01,0,.02,0,.01,0,.02,0,.03-.02,1.95-1.05,4.7-1.89,5.36-1.66,0,0,0,0,0,0-.77.08-1.96.41-3.7,1.43-2.27,1.33-9.9,7.43-10.23,7.69-.4.32-.46.9-.13,1.29.19.22.46.34.73.34.21,0,.42-.07.59-.21.08-.06,7.85-6.28,10-7.54,2.28-1.33,3.2-1.19,3.21-1.18-.05,0-.08-.02-.08-.02h0c.05.02.1.03.16.04.04,0,.07.02.07.02h0s.02.03.03.1c.05.29-.54.69-1.44,1.25-.65.41-1.38.86-2.1,1.49l-8.93,6.54c-.42.3-.5.88-.19,1.29.18.24.47.37.75.37.2,0,.39-.06.56-.18l8.83-6.47c.07,0,.16.05.22.12.17.2.2.61-.21,1.13-.52.66-3.47,3.77-7.9,7.42-3.75,3.08-9.65,9.51-11.04,11.29-1.3,1.67-2.88,12.29-3.33,15.51-.07.5.29.97.8,1.04.04,0,.09,0,.13,0,.46,0,.86-.33.93-.79.91-6.5,2.27-13.76,2.96-14.64,1.13-1.45,6.9-7.83,10.76-10.99,4.61-3.79,7.61-6.98,8.19-7.71,1.07-1.37.77-2.69.18-3.4-.03-.04-.07-.08-.11-.12.18-.11.35-.22.51-.33,1.24-.78,2.53-1.59,2.28-3.09Z"/>
      </g>
      <g>
        <path class="cls-6" d="M75.75,119.32h16.77c.42-3.51.72-5.92.72-5.92,0,0-9.64-3.03-15.84-4.81-.55,3.64-1.13,7.41-1.65,10.74Z"/>
        <path class="cls-1" d="M75.75,120.24s-.09,0-.14-.01c-.51-.08-.86-.55-.79-1.05.62-3.96,1.17-7.58,1.65-10.73.04-.26.19-.5.42-.64.23-.14.51-.18.77-.11,6.15,1.77,15.77,4.79,15.86,4.82.43.13.7.55.65.98,0,0-.3,2.41-.72,5.92-.06.5-.53.87-1.04.81-.51-.06-.88-.52-.82-1.02.28-2.34.51-4.2.62-5.17-2.22-.69-8.98-2.8-14.05-4.28-.44,2.9-.94,6.16-1.49,9.69-.07.45-.47.78-.93.78Z"/>
      </g>
      <g>
        <path class="cls-1" d="M40.35,72.6c.31,0,.62-.01.93-.03.52-.04.91-.47.87-.98-.04-.51-.48-.89-1-.85-8.15.56-12.52-7.55-13.15-8.82v-11.99c.03-.46.64-9.89,6.58-13.59.44-.27.57-.84.29-1.27-.28-.43-.86-.56-1.3-.28-6.89,4.28-7.43,14.64-7.45,15.07,0,.01,0,.03,0,.04v12.22c0,.13.03.25.08.37.05.11,1.23,2.72,3.65,5.26,3.02,3.18,6.63,4.84,10.5,4.84Z"/>
        <g>
          <ellipse class="cls-1" cx="41.21" cy="71.65" rx="1.25" ry="1.23"/>
          <path class="cls-1" d="M39.02,71.65c0-1.18.98-2.14,2.19-2.14s2.19.96,2.19,2.14-.98,2.14-2.19,2.14-2.19-.96-2.19-2.14ZM40.9,71.65c0,.17.14.31.31.31s.31-.14.31-.31-.14-.31-.31-.31-.31.14-.31.31Z"/>
        </g>
        <g>
          <path class="cls-4" d="M21.32,61.16c0-4.03,1.74-7.32,3.95-7.57v-.02h3.31c2.33,0,4.22,3.4,4.22,7.59s-1.89,7.59-4.22,7.59h-3.03s0,0,0,0c0,0,0,0,0,0h-.27v-.02c-2.21-.25-3.95-3.54-3.95-7.57Z"/>
          <path class="cls-1" d="M20.38,61.16c0,4.42,1.96,8.01,4.59,8.46.09.03.2.05.3.05h.25s.01,0,.02,0,.01,0,.02,0h3.01c2.89,0,5.16-3.74,5.16-8.51s-2.27-8.51-5.16-8.51h-3.3c-.11,0-.21.02-.31.05-2.62.46-4.58,4.04-4.58,8.46ZM22.26,61.16c0-3.77,1.61-6.49,3.12-6.66.02,0,.05,0,.07-.01h.09c.98,0,1.99,1.06,2.63,2.77.14.37.5.6.88.6.11,0,.22-.02.32-.06.49-.17.74-.7.56-1.18-.31-.82-.69-1.53-1.13-2.11,1.49.25,3.06,2.91,3.06,6.65s-1.57,6.4-3.06,6.65c.44-.59.83-1.29,1.13-2.11.18-.48-.07-1-.56-1.18-.49-.17-1.03.07-1.2.55-.64,1.71-1.64,2.76-2.63,2.76h-.09s-.05,0-.07-.01c-1.51-.17-3.12-2.89-3.12-6.66Z"/>
        </g>
      </g>
      <g>
        <path class="cls-4" d="M25.65,73.39l-.26-6.64s1.29-4.37,1.1-5.99c-.25-2.11-1.65-1.87-1.65-1.87,0,0-.01-.88-.74-1.36-.72-.49-1.27-.27-1.27-.27,0,0,.65-1.98-1.08-2.46-1.64-.45-2.88,1.83-2.88,1.83,0,0-3.36,1.73-4.31,3.29-.95,1.56-2.39,5.23-2.39,5.23,0,0-.32,7.2-.03,8.96.13.8,2.18,4.53,3.6,7.97,1.68,4.09,2.68,8.08,2.68,8.08l-2.78,19.82,11.18,4.52,1.35-23.33s.94-3.6.65-6.56c-.29-2.96-3.18-11.23-3.18-11.23Z"/>
        <path class="cls-1" d="M29.76,84.54c-.28-2.86-2.8-10.21-3.18-11.31l-.25-6.36c.25-.87,1.28-4.57,1.09-6.21-.12-1.04-.51-1.79-1.14-2.25-.23-.17-.46-.27-.67-.34-.15-.42-.43-.92-.98-1.29-.25-.17-.5-.28-.74-.36,0-.41-.08-.88-.32-1.32-.32-.58-.86-.99-1.56-1.18-1.73-.48-3.15.95-3.82,2.04-.87.47-3.51,1.98-4.43,3.51-.97,1.61-2.4,5.22-2.46,5.37-.04.09-.06.19-.06.29-.03.75-.32,7.35-.02,9.15.08.51.52,1.43,1.41,3.28.69,1.43,1.55,3.2,2.24,4.88,1.44,3.51,2.39,6.99,2.6,7.79l-2.76,19.64c-.07.5.29.97.8,1.04.51.07.99-.28,1.06-.79l2.78-19.82c.02-.11,0-.23-.02-.34-.04-.17-1.04-4.1-2.72-8.2-.71-1.73-1.58-3.53-2.28-4.98-.56-1.16-1.2-2.48-1.26-2.79-.22-1.33-.06-6.53.03-8.62.27-.68,1.47-3.64,2.26-4.95.26-.43.82-.93,1.47-1.41l-2.55,5.94c-.04.1-.07.21-.07.32l-.34,7.56c-.02.51.38.94.9.96.01,0,.03,0,.04,0,.5,0,.92-.39.94-.88l.33-7.39,3.63-8.44c.2-.36,1.05-1.56,1.78-1.35.27.07.36.19.41.28.09.17.11.41.09.62-.61.28-1.49.9-2.09,2.23-.54,1.19-2.51,6.32-2.59,6.54-.04.09-.06.19-.06.29l-.23,7.02c-.02.51.39.93.91.95.01,0,.02,0,.03,0,.5,0,.92-.39.94-.89l.22-6.87c.33-.85,2.03-5.26,2.5-6.3.39-.86.92-1.2,1.2-1.33.1-.01.21-.04.31-.1.06,0,.21.02.42.16.02.02.04.04.07.05-.51.35-1.07,1.02-1.51,2.26-.39,1.1-1.58,5.03-1.63,5.2-.03.08-.04.17-.04.26v6.77c0,.51.42.92.94.92s.94-.41.94-.92v-6.63c.21-.7,1.23-4.04,1.56-4.99.36-1.02.72-1.31.85-1.38.07,0,.15,0,.22-.03.28,0,.5.41.58,1.06.13,1.04-.59,4.01-1.07,5.63-.03.09-.04.19-.04.29l.26,6.64c0,.09.02.18.05.26.03.08,2.85,8.21,3.13,11.03.27,2.76-.61,6.21-.62,6.24-.01.06-.02.12-.03.17l-1.35,23.33c-.03.51.37.94.88.97.02,0,.04,0,.05,0,.49,0,.91-.38.94-.87l1.34-23.24c.15-.6.93-3.93.65-6.79Z"/>
      </g>
      <g>
        <path class="cls-6" d="M13.02,119.32h17.65c.8-6.86,1.47-12.82,1.47-12.82l-15.88-7.93-3.24,20.75Z"/>
        <path class="cls-1" d="M13.02,120.24s-.1,0-.14-.01c-.51-.08-.86-.55-.79-1.05l3.24-20.75c.05-.29.23-.54.5-.68.27-.14.59-.14.85,0l15.88,7.93c.35.17.55.54.51.92,0,.06-.68,6.04-1.47,12.83-.06.5-.52.86-1.04.81-.52-.06-.88-.51-.83-1.02.64-5.5,1.21-10.48,1.4-12.19l-14.15-7.06-3.05,19.49c-.07.45-.47.78-.93.78Z"/>
      </g>
      <path class="cls-1" d="M14.26,103.81c-.3,0-.6-.14-.78-.4-.66-.95-1.37-1.83-2.13-2.63-.35-.37-.33-.95.05-1.3.38-.35.97-.33,1.33.04.83.87,1.61,1.83,2.32,2.85.29.42.18.99-.25,1.28-.16.11-.34.16-.53.16Z"/>
      <g>
        <path class="cls-1" d="M86,60.18c-.26,0-.51-.1-.7-.31-.35-.38-.31-.96.07-1.3l3.26-2.86c.39-.34.98-.31,1.33.07.35.38.31.96-.07,1.3l-3.26,2.86c-.18.16-.4.23-.63.23Z"/>
        <path class="cls-1" d="M81.97,57.48c-.07,0-.15,0-.22-.03-.5-.12-.81-.62-.69-1.11l.86-3.51c.12-.49.63-.8,1.13-.68.5.12.81.62.69,1.11l-.86,3.51c-.1.42-.49.7-.91.7Z"/>
        <path class="cls-1" d="M88.3,64.39c-.47,0-.87-.34-.93-.8-.07-.5.3-.96.81-1.03l3.66-.45c.51-.06.98.29,1.05.8.07.5-.3.96-.81,1.03l-3.66.45s-.08,0-.12,0Z"/>
      </g>
    </g>
  </g>
</svg>