<?xml version="1.0" encoding="UTF-8"?>
<svg id="_レイヤー_2" data-name="レイヤー 2" xmlns="http://www.w3.org/2000/svg" viewBox="0 0 310.18 306.72">
  <defs>
    <style>
      .cls-1 {
        fill: #202933;
      }

      .cls-2 {
        fill: #ffaf50;
      }

      .cls-3 {
        isolation: isolate;
      }

      .cls-4 {
        fill: #fff;
      }

      .cls-5 {
        fill: #0079b9;
      }

      .cls-6 {
        fill: #4c84d6;
      }
    </style>
  </defs>
  <g id="_レイヤー_1-2" data-name="レイヤー 1">
    <g class="cls-3">
      <polygon class="cls-4" points="204.12 190.92 2 190.92 2 2 308.18 2 308.18 190.92 227.87 190.92 200.1 205.03 204.12 190.92"/>
      <path class="cls-5" d="M306.18,4v184.92h-78.78l-.85.43-23.26,11.81,2.04-7.15,1.45-5.1H4V4h302.18M310.18,0H0v192.92h201.47l-4.55,15.96,31.43-15.96h81.83V0h0Z"/>
    </g>
    <g class="cls-3">
      <path class="cls-5" d="M65.01,56.23v4.97h-31.85v-4.97h13.23v-6.02h-9.07v-4.9h9.07v-5.36h-6.72c-.98,1.82-2,3.47-3.05,4.76-1.02-.88-3.29-2.38-4.59-3.08,2.7-2.87,4.94-7.67,6.13-12.39l5.29,1.19c-.42,1.54-.94,3.04-1.54,4.55h4.48v-6.09h5.32v6.09h11.45v4.97h-11.45v5.36h10.05v4.9h-10.05v6.02h13.3Z"/>
      <path class="cls-5" d="M74.18,46.53c-1.44-1.02-4.55-2.7-6.62-3.78l2.73-3.78c1.93.88,5.15,2.38,6.72,3.33l-2.84,4.24ZM67.92,58.33c1.86-2.59,4.52-6.83,6.65-10.92l3.75,3.4c-1.85,3.67-3.96,7.46-6.09,10.96l-4.31-3.43ZM75.55,36.87c-1.37-1.01-4.38-2.7-6.3-3.85l2.87-3.67c1.85.94,4.94,2.48,6.44,3.43l-3.01,4.1ZM92,43.9v3.71h7.07v14.35h-4.83v-1.26h-9.45v1.4h-4.59v-14.49h6.97v-3.71h-8.96v-4.87h8.96v-3.22c-2.14.31-4.31.56-6.37.73-.17-1.22-.84-3.22-1.37-4.34,5.88-.56,12.15-1.75,16.03-3.4l3.89,3.99c-2.24.88-4.73,1.61-7.35,2.14v4.09h8.54v4.87h-8.54ZM94.24,52.2h-9.45v3.92h9.45v-3.92Z"/>
      <path class="cls-5" d="M122.73,55.56c0,1.68.07,4.09.35,5.08h-6.72c.14-.95.28-3.4.28-5.08v-10.54c-3.54,1.75-7.63,3.39-11.45,4.41l-3.01-5.15c6.27-1.29,12.15-3.85,16.07-6.3,3.54-2.21,7.14-5.32,9.14-7.98l4.55,4.09c-2.8,2.73-5.85,5.32-9.21,7.49v13.97Z"/>
      <path class="cls-5" d="M147.86,50.62c6.3-3.64,11.03-9.07,13.37-14l3.29,5.99c-2.8,4.97-7.77,9.84-13.62,13.27-3.57,2.1-8.12,3.92-12.53,4.62l-3.61-5.6c5.15-.7,9.66-2.27,13.09-4.27ZM149.05,39.18l-4.34,4.45c-1.86-2.03-6.27-5.88-8.79-7.67l4.03-4.31c2.42,1.65,7,5.29,9.1,7.53Z"/>
      <path class="cls-5" d="M193.25,35.5c-.38.77-.7,2.03-.91,2.8-.84,3.29-2.27,8.61-5.29,12.67-3.15,4.24-8.09,7.84-14.25,9.84l-4.62-5.08c7.04-1.58,10.99-4.66,13.76-8.09,2.24-2.77,3.4-6.23,3.85-9.03h-15.4c-1.71,0-3.64.11-4.55.17v-5.99c1.08.14,3.4.32,4.55.32h15.44c.77,0,2.14-.04,3.22-.32l4.2,2.7Z"/>
      <path class="cls-5" d="M224.55,42.22c-.28.53-.63,1.26-.77,1.68-1.16,3.36-2.63,6.65-5.22,9.56-3.47,3.89-8.02,6.44-12.5,7.74l-4.24-4.79c5.46-1.16,9.52-3.47,12.04-5.99,1.72-1.71,2.66-3.46,3.26-5.08h-15.93c-.88,0-2.87.04-4.45.17v-5.46c1.61.14,3.26.25,4.45.25h16.66c1.33,0,2.38-.18,2.94-.42l3.75,2.34ZM200.04,31.51c.98.14,2.7.21,3.92.21h13.27c1.12,0,3.12-.07,4.13-.21v5.46c-.98-.07-2.87-.14-4.2-.14h-13.2c-1.19,0-2.87.04-3.92.14v-5.46Z"/>
      <path class="cls-5" d="M37.15,97.42c0-6.72,2.85-11.55,5.88-14.49l3.45,1.47c-2.76,3.03-5.25,7.05-5.25,13.02s2.49,9.99,5.25,13.02l-3.45,1.47c-3.03-2.94-5.88-7.77-5.88-14.49Z"/>
      <path class="cls-5" d="M57.79,84.55c-.75,1.83-1.65,3.75-2.67,5.58v21.45h-4.14v-15.21c-.66.84-1.35,1.59-2.04,2.28-.36-1.05-1.5-3.45-2.22-4.53,2.76-2.61,5.46-6.75,7.02-10.89l4.05,1.32ZM75.85,106.63v4.14h-19.47v-4.14h7.62v-5.07h-6.03v-4.11h6.03v-4.44h-6.99v-4.14h7.44c-1.35-.93-2.88-1.92-4.17-2.64l2.88-3.12c2.19,1.11,5.37,2.94,6.93,4.29l-1.32,1.47h6.63v4.14h-6.96v4.44h6.15v4.11h-6.15v5.07h7.41Z"/>
      <path class="cls-5" d="M96.67,99.4v1.89h6.69v10.38h-4.35v-.78h-8.85v.78h-4.17v-10.38h6.3v-1.89h-7.41v-3.87h7.41v-2.04h-7.5c0,5.34-.54,13.38-3.9,18.3-.84-.72-2.79-1.86-3.9-2.28,3.15-4.5,3.39-11.28,3.39-16.05v-8.88h23.16v8.91h-6.87v2.04h8.49v3.87h-8.49ZM84.79,88.36v1.35h14.34v-1.35h-14.34ZM99.01,105.07h-8.85v2.04h8.85v-2.04Z"/>
      <path class="cls-5" d="M113.98,93.22c2.31,0,4.2,1.89,4.2,4.2s-1.89,4.2-4.2,4.2-4.2-1.89-4.2-4.2,1.89-4.2,4.2-4.2Z"/>
      <path class="cls-5" d="M130,104.38c1.02,1.89,2.82,2.64,5.64,2.76,3.75.18,10.98.09,15.45-.3-.48.99-1.14,3-1.35,4.23-3.93.21-10.32.27-14.16.09-3.42-.15-5.64-.93-7.41-3.21-1.29,1.11-2.61,2.19-4.29,3.45l-1.98-4.35c1.23-.69,2.64-1.5,3.93-2.4v-5.85h-3.54v-4.02h7.71v9.6ZM127.78,91.45c-.96-1.41-3.27-3.48-5.1-4.86l3-2.82c1.83,1.23,4.23,3.12,5.34,4.53l-3.24,3.15ZM136.33,106.24h-4.08v-15.54h5.61c-1.02-.45-2.07-.9-2.97-1.26l2.64-2.16h-4.86v-3.24h13.32l.84-.21,2.55,2.07c-1.41,1.35-3.18,2.79-5.01,4.02.57.27,1.11.54,1.56.78h3.57v11.94c0,1.68-.27,2.55-1.35,3.12-1.02.57-2.37.6-4.05.6-.15-1.05-.6-2.46-1.05-3.39.69.03,1.62.03,1.89.03.33,0,.42-.12.42-.42v-.57h-2.61v4.11h-3.87v-4.11h-2.55v4.23ZM136.33,93.79v1.05h2.55v-1.05h-2.55ZM138.88,98.92v-1.11h-2.55v1.11h2.55ZM138.01,87.28c.87.3,1.86.69,2.85,1.08.51-.33,1.02-.69,1.5-1.08h-4.35ZM142.75,93.79v1.05h2.61v-1.05h-2.61ZM145.36,98.92v-1.11h-2.61v1.11h2.61Z"/>
      <path class="cls-5" d="M162.79,84.55c-.75,1.83-1.65,3.75-2.67,5.58v21.45h-4.14v-15.21c-.66.84-1.35,1.59-2.04,2.28-.36-1.05-1.5-3.45-2.22-4.53,2.76-2.61,5.46-6.75,7.02-10.89l4.05,1.32ZM180.82,88.57v3.48h-19.2v-3.48h19.2ZM163.39,101.77h15.96v9.78h-4.41v-.96h-7.38v1.05h-4.17v-9.87ZM178.84,96.4h-14.88v-3.36h14.88v3.36ZM163.96,97.39h14.73v3.36h-14.73v-3.36ZM178.3,87.58h-13.8v-3.36h13.8v3.36ZM167.56,105.1v2.1h7.38v-2.1h-7.38Z"/>
      <path class="cls-5" d="M198.76,91.6c-1.23.33-3.03.72-5.04,1.02-1.38,4.17-3.9,9.33-6.3,12.78l-4.35-2.19c2.34-2.91,4.62-7.08,5.91-10.17-.33.03-.66.03-.96.03-1.26,0-2.46-.03-3.84-.12l-.33-4.14c1.38.15,3.15.21,4.14.21.78,0,1.53-.03,2.31-.09.42-1.62.69-3.33.75-4.86l4.92.48c-.21.93-.54,2.28-.96,3.78,1.38-.27,2.64-.57,3.63-.87l.12,4.14ZM202.93,93.85c-.09,1.29-.03,2.7,0,4.17.03.69.09,1.86.15,3.09,2.58.99,4.68,2.49,6.15,3.87l-2.37,3.87c-.93-.87-2.13-2.01-3.6-3.03-.09,2.85-1.65,4.98-6.03,4.98-3.93,0-6.99-1.83-6.99-5.28,0-2.97,2.34-5.52,6.93-5.52.54,0,1.05.03,1.56.09-.12-2.13-.24-4.56-.33-6.24h4.53ZM198.88,103.84c-.63-.12-1.32-.21-2.01-.21-1.47,0-2.37.6-2.37,1.44,0,.96.81,1.62,2.07,1.62,1.77,0,2.31-1.05,2.31-2.7v-.15ZM207.55,95.86c-1.77-1.38-5.25-3.39-7.32-4.29l2.31-3.57c2.13.93,5.97,2.97,7.56,4.08l-2.55,3.78Z"/>
      <path class="cls-5" d="M232.72,92.5c-1.05.63-2.13,1.2-3.33,1.8-1.77.87-4.26,2.01-6.87,3.69-2.31,1.5-3.96,3.09-3.96,5.04s1.89,2.88,5.7,2.88c2.94,0,6.99-.51,9.81-1.14l-.06,5.19c-2.7.45-5.67.75-9.63.75-6.12,0-10.83-1.65-10.83-7.14,0-3.39,2.1-5.82,4.83-7.89-1.38-2.55-2.76-5.58-4.08-8.7l4.53-1.83c1.08,3,2.4,5.7,3.57,7.92,1.92-1.14,3.72-2.07,4.98-2.79s2.22-1.29,3.09-2.01l2.25,4.23ZM233.08,84.52c.75,1.11,1.8,3.06,2.34,4.11l-2.85,1.2c-.63-1.23-1.5-3-2.31-4.17l2.82-1.14ZM236.77,83.08c.78,1.14,1.86,3.06,2.37,4.08l-2.82,1.2c-.6-1.23-1.56-3-2.37-4.14l2.82-1.14Z"/>
      <path class="cls-5" d="M246.97,97.42c0,6.72-2.85,11.55-5.88,14.49l-3.45-1.47c2.76-3.03,5.25-7.05,5.25-13.02s-2.49-9.99-5.25-13.02l3.45-1.47c3.03,2.94,5.88,7.77,5.88,14.49Z"/>
      <path class="cls-5" d="M268.78,105.59c1.47-.17,2.42-.38,3.4-.63,4.41-1.08,7.35-4.17,7.35-8.72s-2.17-7.67-6.16-8.61c-.46,2.8-1.09,5.84-2.03,9.03-2.07,6.93-5.18,11.59-9.28,11.59s-7.56-4.66-7.56-10.57c0-8.23,7.11-15.23,16.38-15.23s14.42,6.09,14.42,13.97c0,7.28-4.31,12.64-13.34,14.14l-3.19-4.97ZM267.66,87.74c-5.15,1.4-7.7,6.06-7.7,9.38,0,3.01,1.05,4.59,2.24,4.59,1.4,0,2.45-2.1,3.68-6.13.77-2.34,1.36-5.11,1.79-7.84Z"/>
      <path class="cls-5" d="M53.5,153.21c2.31,2.66,6.13,3.85,12.32,4.1-1.12,1.16-2.45,3.4-3.08,4.87-6.55-.7-10.36-2.52-12.99-6.16-1.93,2.73-6.06,5.15-14.6,6.23-.59-1.23-1.93-3.15-2.91-4.27,8.33-.98,11.76-2.8,13.09-4.76h-12.11v-4.24h12.81v-1.79h5.18v1.79h13.55v4.24h-11.27ZM56.65,134.38c-.46,5.67-1.71,10.01-6.72,12.81-.42-.91-1.29-2.14-2.17-3.01l.03,1.19c-5.18.59-10.64,1.16-14.7,1.58l-.39-4.13c1.65-.1,3.61-.28,5.74-.46v-2.27h-4.48v-3.75h4.48v-1.54h-5.11v-3.75h5.11v-2.17h4.69v2.17h4.55v3.75h-4.55v1.54h4.1v3.75h-4.1v1.85l4.55-.42.04,1.75c3.19-2.06,3.96-5,4.24-8.89h-3.47v-4.24h15.96s0,1.26-.04,1.82c-.28,8.26-.63,11.73-1.54,12.92-.77,1.05-1.58,1.4-2.63,1.58-.94.17-2.35.21-3.92.21-.07-1.4-.6-3.33-1.29-4.52,1.08.11,2.03.11,2.59.11.46,0,.77-.07,1.08-.46.42-.56.63-2.52.84-7.42h-2.91Z"/>
      <path class="cls-5" d="M99.94,134.63s0,1.65-.03,2.28c-.46,15.19-.88,20.83-2.35,22.75-1.09,1.51-2.14,1.96-3.71,2.24-1.33.25-3.47.25-5.53.17-.07-1.43-.77-3.67-1.72-5.11,2.14.17,4.1.17,5.04.17.7,0,1.09-.14,1.51-.63,1.02-1.05,1.44-6.02,1.79-17.08h-8.68c-.88,1.64-1.85,3.15-2.83,4.34-.7-.63-2.1-1.61-3.29-2.38,1.12,2.17,2.14,4.62,2.49,6.37l-3.82,1.75c-.1-.53-.25-1.12-.42-1.75l-1.37.11v2.7l3.12-1.02c.88,2.1,1.79,4.8,2.21,6.58l-3.92,1.44c-.24-1.37-.8-3.29-1.4-5.08v9.66h-4.48v-10.85c-.31,3.12-1.02,6.33-1.89,8.4-.88-.56-2.77-1.43-3.82-1.82.91-2.03,1.4-5.18,1.61-8.09l4.1.74v-2.31l-4.94.35-.42-4.38,2.77-.1c.42-.53.81-1.08,1.23-1.65-1.02-1.54-2.59-3.33-3.99-4.69l2.35-3.54.7.59c.88-1.89,1.75-4.1,2.27-5.88l4.48,1.54c-1.33,2.48-2.77,5.21-3.99,7.18.25.31.52.63.73.91,1.12-1.85,2.17-3.75,2.94-5.39l4.27,1.75c-1.44,2.17-3.05,4.55-4.69,6.76l2.91-1.3c2.52-2.73,4.52-7.11,5.53-11.52l5.29,1.16c-.42,1.58-.94,3.12-1.5,4.62h11.48ZM76.91,143.8c-.28-.67-.56-1.29-.88-1.89-.53.7-1.02,1.37-1.54,2l2.42-.11ZM87.41,153.25c-.6-2.17-2.35-5.53-4.03-8.05l4.06-2.03c1.75,2.38,3.68,5.57,4.38,7.81l-4.41,2.28Z"/>
      <path class="cls-5" d="M115.73,130.74c-.84,2-1.86,4.06-3.01,6.06v25.27h-5.29v-17.54c-1.02,1.19-2.03,2.31-3.05,3.25-.49-1.22-1.93-3.99-2.8-5.25,3.64-3.15,7.21-8.26,9.28-13.41l4.87,1.61ZM125.53,143.9c.84,6.96,2.42,11.55,4.73,11.94.7.07,1.05-1.58,1.26-5.32.98,1.08,3.26,2.45,4.17,2.94-.98,7.21-3.15,8.72-5.18,8.58-6.06-.63-8.79-6.83-10.05-17.4l-6.02.84-.73-4.9,6.3-.88c-.25-3.12-.39-6.54-.49-10.26h5.18c.04,3.4.14,6.62.35,9.56l9.73-1.33.7,4.83-9.94,1.4ZM130.88,137.15c-.73-1.65-2.66-4.13-4.31-5.92l3.85-2.34c1.68,1.64,3.71,3.99,4.59,5.67l-4.13,2.59Z"/>
      <path class="cls-5" d="M151.25,138.44c-1.02,1.75-2.28,3.57-3.64,5.32v18.38h-5.11v-12.64c-.77.7-1.5,1.4-2.24,2-.7-1.09-2.42-3.4-3.43-4.45,3.54-2.45,7.35-6.51,9.59-10.47l4.83,1.86ZM150.03,130.92c-2.66,3.46-6.55,7.21-10.01,9.59-.63-1.16-1.92-3.19-2.8-4.2,2.91-1.82,6.27-5,7.91-7.42l4.9,2.03ZM170.26,145.37h-4.59v11.06c0,2.59-.46,3.99-2.21,4.76-1.68.77-4.03.84-7,.84-.18-1.51-.84-3.75-1.51-5.22,1.72.1,4.03.1,4.66.1s.84-.14.84-.63v-10.92h-9.59v-4.83h19.39v4.83ZM169.38,135.64h-17.05v-4.83h17.05v4.83Z"/>
    </g>
    <g>
      <g>
        <path class="cls-2" d="M102.91,249.73c-6.07,6.51-1.84,11.78.18,13.3,2.65,1.99,8.76,1.49,8.76,1.49l.75-30.68h-4.02s.52,9.26-5.66,15.89Z"/>
        <path class="cls-1" d="M110.15,265.22c-2.09,0-5.54-.24-7.45-1.68-1.48-1.11-3.29-3.43-3.55-6.3-.24-2.68.87-5.36,3.28-7.95,5.91-6.35,5.49-15.33,5.49-15.42,0-.18.05-.35.17-.48.12-.13.29-.2.47-.2h4.02c.35,0,.64.29.64.64s-.29.64-.64.64h-3.37c0,2.3-.46,9.9-5.85,15.68-2.16,2.32-3.15,4.66-2.95,6.96.21,2.45,1.77,4.43,3.04,5.38,2.42,1.82,8.26,1.37,8.32,1.37.35-.03.66.23.69.59.03.35-.23.66-.59.69-.08,0-.77.06-1.75.06Z"/>
      </g>
      <g>
        <g>
          <path class="cls-4" d="M126.02,252.99c-.27-.79-.42-2.79-.42-4.21v-1.93l-6.54-4.88-7.97-6.71s.43,10.98,0,13.51c-.72,4.28-1.2,5.37-2.37,6.2-4.16,2.96-8.34,6.07-8.34,6.07l12.78,7.63,23.01-1.89,1.43-6.39s-1.69-1.54-6.59-4.36c-1.26-.72-4.72-2.27-4.99-3.06Z"/>
          <path class="cls-1" d="M131.33,255.49c-.34-.19-.81-.43-1.35-.71-1-.51-3.08-1.57-3.36-2.01-.21-.65-.38-2.46-.38-3.99v-1.93c0-.2-.1-.39-.26-.51l-6.53-4.86-7.95-6.7c-.19-.16-.47-.2-.69-.09-.23.11-.37.35-.36.6,0,.11.42,10.94,0,13.38-.7,4.16-1.14,5.09-2.11,5.78-4.12,2.93-8.31,6.05-8.35,6.08-.17.13-.27.33-.26.55.01.21.13.41.31.52l12.78,7.63c.1.06.22.09.33.09.22,0,.43-.11.55-.31.18-.3.08-.7-.22-.88l-11.95-7.14c1.4-1.04,4.5-3.32,7.56-5.49,1.39-.99,1.91-2.28,2.63-6.62.34-2.04.16-9.11.06-12.2l6.86,5.78s.02.02.03.02l6.28,4.68v1.6c0,1.48.16,3.54.45,4.42.24.72,1.37,1.39,3.98,2.73.5.26.98.5,1.29.68,3.69,2.12,5.54,3.52,6.2,4.04l-1.35,6.01c-.08.35.14.69.49.77.35.08.69-.14.77-.49l1.43-6.39c.05-.22-.02-.46-.19-.61-.07-.06-1.8-1.62-6.7-4.44Z"/>
        </g>
        <g>
          <g>
            <polygon class="cls-4" points="129.93 256.1 124.94 263.04 123.01 263.3 108.02 256.15 108.91 297.4 139.89 297.4 137.38 266.37 129.93 256.1"/>
            <path class="cls-1" d="M139.89,298.04h-30.98c-.35,0-.63-.28-.64-.63l-.89-41.25c0-.22.11-.43.29-.55.19-.12.42-.14.62-.04l14.82,7.06,1.46-.2,4.83-6.72c.12-.17.31-.27.52-.27h0c.21,0,.4.1.52.26l7.45,10.27c.07.1.11.21.12.32l2.51,31.03c.01.18-.05.35-.17.49-.12.13-.29.21-.47.21ZM109.53,296.76h29.66l-2.44-30.16-6.82-9.4-4.47,6.22c-.1.14-.26.24-.43.26l-1.93.26c-.12.02-.25,0-.36-.06l-14.06-6.7.85,39.58ZM124.94,263.04h0,0Z"/>
          </g>
          <path class="cls-1" d="M126.41,266.63c-.25,0-.49-.15-.59-.39l-.6-1.41c-.14-.33.01-.7.34-.84.33-.14.7.01.84.34l.6,1.41c.14.33-.01.7-.34.84-.08.04-.17.05-.25.05Z"/>
          <path class="cls-1" d="M123.6,268.77c-.32,0-.6-.24-.64-.56l-.59-4.83c-.04-.35.21-.67.56-.71.35-.04.67.21.71.56l.59,4.83c.04.35-.21.67-.56.71-.03,0-.05,0-.08,0Z"/>
        </g>
        <path class="cls-4" d="M120.57,293.04c-.02-.2-.04-.41-.06-.62-.07-.78-.15-1.61-.23-2.46-.02-.25-.05-.51-.08-.77-.09-.88-.18-1.78-.28-2.71,0-.04,0-.08-.01-.12-.26-2.5-.56-5.12-.9-7.7-.02-.19-.05-.38-.07-.57-.11-.84-.22-1.67-.34-2.49-.03-.24-.07-.47-.1-.71-.39-2.67-.82-5.16-1.27-7.26-.06-.26-.11-.52-.17-.76-.09-.41-.19-.8-.29-1.17-.19-.74-.56-1.75-1.02-2.9-.09-.23-.19-.47-.29-.71-.54-1.3-1.17-2.72-1.8-4.11-.04-.09-.08-.18-.12-.26-1.17-2.55-2.33-4.92-2.87-6.01-.13-.27-.23-.46-.28-.56-.02-.05-.04-.07-.04-.07,0,0-4.3,4.6-9.98,8.06-.13.08-.27.16-.4.25-.15.09-.3.19-.45.28-.42.27-.85.57-1.28.9-.2.16-.4.32-.59.49-.36.32-.72.67-1.07,1.06-.17.19-.33.38-.49.59-.31.4-.61.84-.89,1.32-.07.13-.15.25-.22.39-.61,1.12-1.13,2.46-1.53,4.11-.05.23-.11.46-.16.7-.16.79-.3,1.64-.4,2.57-.01.13-.03.27-.04.4-.03.34-.06.69-.09,1.06-.29,4.31-.64,8.9-.95,12.77-.02.24-.04.47-.06.7-.07.85-.14,1.67-.2,2.43-.02.26-.04.52-.06.76-.08.98-.16,1.85-.22,2.6-.01.12-.02.24-.03.35-.13,1.57-.22,2.5-.22,2.5v1.51l2.12.23.2.02,2.65.29.78.09,2.53.28.46.05,10.57,1.16.78.09,2.5.28.51.06,7.02.77s-.22-2.93-.6-7.18Z"/>
        <g>
          <path class="cls-6" d="M110.67,251.72c-.13-.27-.23-.46-.28-.56-.07.15-.05.33.07.45.06.06.13.09.2.11Z"/>
          <path class="cls-6" d="M108.87,252.65c-.15.15-.15.4,0,.56.15.15.4.15.56,0,.15-.15.15-.4,0-.56-.15-.15-.4-.15-.56,0Z"/>
          <path class="cls-6" d="M110.47,254.24c-.15.15-.15.4,0,.56.15.15.4.15.56,0,.15-.15.15-.4,0-.56-.15-.15-.4-.15-.56,0Z"/>
          <path class="cls-6" d="M112.06,255.84c-.15.15-.15.4,0,.56.15.15.4.15.56,0,.15-.15.15-.4,0-.56-.15-.15-.4-.15-.56,0Z"/>
          <path class="cls-6" d="M113.66,257.99c-.04-.09-.08-.18-.12-.26,0,.09.04.19.11.26,0,0,0,0,0,0Z"/>
          <path class="cls-6" d="M107.28,254.24c-.15.15-.15.4,0,.56.15.15.4.15.56,0,.15-.15.15-.4,0-.56-.15-.15-.4-.15-.56,0Z"/>
          <path class="cls-6" d="M108.87,255.84c-.15.15-.15.4,0,.56.15.15.4.15.56,0,.15-.15.15-.4,0-.56s-.4-.15-.56,0Z"/>
          <path class="cls-6" d="M110.47,257.43c-.15.15-.15.4,0,.56.15.15.4.15.56,0,.15-.15.15-.4,0-.56-.15-.15-.4-.15-.56,0Z"/>
          <path class="cls-6" d="M112.06,259.02c-.15.15-.15.4,0,.56.15.15.4.15.56,0,.15-.15.15-.4,0-.56s-.4-.15-.56,0Z"/>
          <path class="cls-6" d="M113.65,260.62c-.15.15-.15.4,0,.56.15.15.4.15.56,0,.15-.15.15-.4,0-.56-.15-.15-.4-.15-.56,0Z"/>
          <path class="cls-6" d="M115.75,262.81c-.09-.23-.19-.47-.29-.71-.08.01-.16.05-.22.11-.15.15-.15.4,0,.56.14.14.35.15.51.04Z"/>
          <path class="cls-6" d="M105.69,255.84c-.15.15-.15.4,0,.56.15.15.4.15.56,0,.15-.15.15-.4,0-.56-.15-.15-.4-.15-.56,0Z"/>
          <path class="cls-6" d="M107.28,257.43c-.15.15-.15.4,0,.56.15.15.4.15.56,0,.15-.15.15-.4,0-.56-.15-.15-.4-.15-.56,0Z"/>
          <path class="cls-6" d="M108.87,259.02c-.15.15-.15.4,0,.56.15.15.4.15.56,0,.15-.15.15-.4,0-.56-.15-.15-.4-.15-.56,0Z"/>
          <path class="cls-6" d="M110.47,260.62c-.15.15-.15.4,0,.56s.4.15.56,0c.15-.15.15-.4,0-.56-.15-.15-.4-.15-.56,0Z"/>
          <path class="cls-6" d="M112.06,262.21c-.15.15-.15.4,0,.56.15.15.4.15.56,0s.15-.4,0-.56c-.15-.15-.4-.15-.56,0Z"/>
          <path class="cls-6" d="M113.65,263.8c-.15.15-.15.4,0,.56.15.15.4.15.56,0,.15-.15.15-.4,0-.56-.15-.15-.4-.15-.56,0Z"/>
          <path class="cls-6" d="M115.25,265.39c-.15.15-.15.4,0,.56.15.15.4.15.56,0,.15-.15.15-.4,0-.56s-.4-.15-.56,0Z"/>
          <path class="cls-6" d="M117.23,267.64c-.06-.26-.11-.52-.17-.76-.08.01-.16.05-.22.11-.15.15-.15.4,0,.56.11.11.26.14.39.1Z"/>
          <path class="cls-6" d="M104.1,257.43c-.15.15-.15.4,0,.56.15.15.4.15.56,0,.15-.15.15-.4,0-.56-.15-.15-.4-.15-.56,0Z"/>
          <path class="cls-6" d="M105.69,259.02c-.15.15-.15.4,0,.56.15.15.4.15.56,0,.15-.15.15-.4,0-.56-.15-.15-.4-.15-.56,0Z"/>
          <path class="cls-6" d="M107.28,260.62c-.15.15-.15.4,0,.56.15.15.4.15.56,0,.15-.15.15-.4,0-.56-.15-.15-.4-.15-.56,0Z"/>
          <path class="cls-6" d="M108.87,262.21c-.15.15-.15.4,0,.56s.4.15.56,0c.15-.15.15-.4,0-.56-.15-.15-.4-.15-.56,0Z"/>
          <path class="cls-6" d="M110.47,263.8c-.15.15-.15.4,0,.56.15.15.4.15.56,0,.15-.15.15-.4,0-.56-.15-.15-.4-.15-.56,0Z"/>
          <path class="cls-6" d="M112.06,265.39c-.15.15-.15.4,0,.56.15.15.4.15.56,0,.15-.15.15-.4,0-.56-.15-.15-.4-.15-.56,0Z"/>
          <path class="cls-6" d="M113.65,266.99c-.15.15-.15.4,0,.56s.4.15.56,0,.15-.4,0-.56c-.15-.15-.4-.15-.56,0Z"/>
          <path class="cls-6" d="M115.25,268.58c-.15.15-.15.4,0,.56.15.15.4.15.56,0,.15-.15.15-.4,0-.56-.15-.15-.4-.15-.56,0Z"/>
          <path class="cls-6" d="M116.84,270.17c-.15.15-.15.4,0,.56s.4.15.56,0c.15-.15.15-.4,0-.56-.15-.15-.4-.15-.56,0Z"/>
          <path class="cls-6" d="M102.5,259.02c-.15.15-.15.4,0,.56.15.15.4.15.56,0,.15-.15.15-.4,0-.56-.15-.15-.4-.15-.56,0Z"/>
          <path class="cls-6" d="M104.1,260.62c-.15.15-.15.4,0,.56s.4.15.56,0c.15-.15.15-.4,0-.56-.15-.15-.4-.15-.56,0Z"/>
          <path class="cls-6" d="M105.69,262.21c-.15.15-.15.4,0,.56.15.15.4.15.56,0,.15-.15.15-.4,0-.56-.15-.15-.4-.15-.56,0Z"/>
          <path class="cls-6" d="M107.28,263.8c-.15.15-.15.4,0,.56.15.15.4.15.56,0,.15-.15.15-.4,0-.56-.15-.15-.4-.15-.56,0Z"/>
          <path class="cls-6" d="M108.87,265.39c-.15.15-.15.4,0,.56.15.15.4.15.56,0,.15-.15.15-.4,0-.56-.15-.15-.4-.15-.56,0Z"/>
          <path class="cls-6" d="M110.47,266.99c-.15.15-.15.4,0,.56.15.15.4.15.56,0,.15-.15.15-.4,0-.56-.15-.15-.4-.15-.56,0Z"/>
          <path class="cls-6" d="M112.06,268.58c-.15.15-.15.4,0,.56s.4.15.56,0c.15-.15.15-.4,0-.56-.15-.15-.4-.15-.56,0Z"/>
          <path class="cls-6" d="M113.65,270.17c-.15.15-.15.4,0,.56.15.15.4.15.56,0,.15-.15.15-.4,0-.56-.15-.15-.4-.15-.56,0Z"/>
          <path class="cls-6" d="M115.25,271.77c-.15.15-.15.4,0,.56.15.15.4.15.56,0,.15-.15.15-.4,0-.56-.15-.15-.4-.15-.56,0Z"/>
          <path class="cls-6" d="M116.84,273.36c-.15.15-.15.4,0,.56.15.15.4.15.56,0,.15-.15.15-.4,0-.56-.15-.15-.4-.15-.56,0Z"/>
          <path class="cls-6" d="M118.6,275.61c-.03-.24-.07-.47-.1-.71-.02.01-.05.03-.07.05-.15.15-.15.4,0,.56.05.05.11.08.17.1Z"/>
          <path class="cls-6" d="M99.87,259.58c.05-.05.08-.11.1-.17-.15.09-.3.19-.45.28.12.02.25-.01.35-.11Z"/>
          <path class="cls-6" d="M100.91,260.62c-.15.15-.15.4,0,.56.15.15.4.15.56,0s.15-.4,0-.56c-.15-.15-.4-.15-.56,0Z"/>
          <path class="cls-6" d="M102.5,262.21c-.15.15-.15.4,0,.56.15.15.4.15.56,0,.15-.15.15-.4,0-.56-.15-.15-.4-.15-.56,0Z"/>
          <path class="cls-6" d="M104.1,263.8c-.15.15-.15.4,0,.56.15.15.4.15.56,0,.15-.15.15-.4,0-.56-.15-.15-.4-.15-.56,0Z"/>
          <path class="cls-6" d="M105.69,265.39c-.15.15-.15.4,0,.56.15.15.4.15.56,0,.15-.15.15-.4,0-.56s-.4-.15-.56,0Z"/>
          <path class="cls-6" d="M107.28,266.99c-.15.15-.15.4,0,.56.15.15.4.15.56,0s.15-.4,0-.56c-.15-.15-.4-.15-.56,0Z"/>
          <path class="cls-6" d="M108.87,268.58c-.15.15-.15.4,0,.56.15.15.4.15.56,0s.15-.4,0-.56c-.15-.15-.4-.15-.56,0Z"/>
          <path class="cls-6" d="M110.47,270.17c-.15.15-.15.4,0,.56.15.15.4.15.56,0,.15-.15.15-.4,0-.56-.15-.15-.4-.15-.56,0Z"/>
          <path class="cls-6" d="M112.06,271.77c-.15.15-.15.4,0,.56.15.15.4.15.56,0,.15-.15.15-.4,0-.56-.15-.15-.4-.15-.56,0Z"/>
          <path class="cls-6" d="M113.65,273.36c-.15.15-.15.4,0,.56.15.15.4.15.56,0,.15-.15.15-.4,0-.56s-.4-.15-.56,0Z"/>
          <path class="cls-6" d="M115.25,274.95c-.15.15-.15.4,0,.56.15.15.4.15.56,0s.15-.4,0-.56c-.15-.15-.4-.15-.56,0Z"/>
          <path class="cls-6" d="M116.84,276.54c-.15.15-.15.4,0,.56.15.15.4.15.56,0s.15-.4,0-.56c-.15-.15-.4-.15-.56,0Z"/>
          <path class="cls-6" d="M118.99,278.69s.02-.02.02-.03c-.02-.19-.05-.38-.07-.57-.15-.11-.37-.1-.51.04-.15.15-.15.4,0,.56s.4.15.56,0Z"/>
          <path class="cls-6" d="M98.25,260.59c-.2.16-.4.32-.59.49.02.03.04.06.07.09.15.15.4.15.56,0,.15-.15.15-.4,0-.56,0,0-.02-.02-.03-.02Z"/>
          <path class="cls-6" d="M99.32,262.21c-.15.15-.15.4,0,.56.15.15.4.15.56,0,.15-.15.15-.4,0-.56-.15-.15-.4-.15-.56,0Z"/>
          <path class="cls-6" d="M100.91,263.8c-.15.15-.15.4,0,.56.15.15.4.15.56,0,.15-.15.15-.4,0-.56-.15-.15-.4-.15-.56,0Z"/>
          <path class="cls-6" d="M102.5,265.39c-.15.15-.15.4,0,.56.15.15.4.15.56,0,.15-.15.15-.4,0-.56-.15-.15-.4-.15-.56,0Z"/>
          <path class="cls-6" d="M104.1,266.99c-.15.15-.15.4,0,.56.15.15.4.15.56,0,.15-.15.15-.4,0-.56s-.4-.15-.56,0Z"/>
          <path class="cls-6" d="M105.69,268.58c-.15.15-.15.4,0,.56.15.15.4.15.56,0,.15-.15.15-.4,0-.56-.15-.15-.4-.15-.56,0Z"/>
          <path class="cls-6" d="M107.28,270.17c-.15.15-.15.4,0,.56.15.15.4.15.56,0,.15-.15.15-.4,0-.56-.15-.15-.4-.15-.56,0Z"/>
          <path class="cls-6" d="M108.87,271.77c-.15.15-.15.4,0,.56.15.15.4.15.56,0,.15-.15.15-.4,0-.56s-.4-.15-.56,0Z"/>
          <path class="cls-6" d="M110.47,273.36c-.15.15-.15.4,0,.56.15.15.4.15.56,0,.15-.15.15-.4,0-.56-.15-.15-.4-.15-.56,0Z"/>
          <path class="cls-6" d="M112.06,274.95c-.15.15-.15.4,0,.56.15.15.4.15.56,0,.15-.15.15-.4,0-.56s-.4-.15-.56,0Z"/>
          <path class="cls-6" d="M113.65,276.54c-.15.15-.15.4,0,.56.15.15.4.15.56,0,.15-.15.15-.4,0-.56-.15-.15-.4-.15-.56,0Z"/>
          <path class="cls-6" d="M115.25,278.14c-.15.15-.15.4,0,.56.15.15.4.15.56,0,.15-.15.15-.4,0-.56-.15-.15-.4-.15-.56,0Z"/>
          <path class="cls-6" d="M116.84,279.73c-.15.15-.15.4,0,.56.15.15.4.15.56,0,.15-.15.15-.4,0-.56s-.4-.15-.56,0Z"/>
          <path class="cls-6" d="M118.43,281.32c-.15.15-.15.4,0,.56.15.15.4.15.56,0,.15-.15.15-.4,0-.56-.15-.15-.4-.15-.56,0Z"/>
          <path class="cls-6" d="M96.59,262.14c-.17.19-.33.38-.49.59,0,.01.02.03.03.04.15.15.4.15.56,0s.15-.4,0-.56c-.03-.03-.06-.05-.1-.07Z"/>
          <path class="cls-6" d="M97.72,263.8c-.15.15-.15.4,0,.56.15.15.4.15.56,0,.15-.15.15-.4,0-.56-.15-.15-.4-.15-.56,0Z"/>
          <path class="cls-6" d="M99.32,265.39c-.15.15-.15.4,0,.56.15.15.4.15.56,0,.15-.15.15-.4,0-.56-.15-.15-.4-.15-.56,0Z"/>
          <path class="cls-6" d="M100.91,266.99c-.15.15-.15.4,0,.56.15.15.4.15.56,0,.15-.15.15-.4,0-.56-.15-.15-.4-.15-.56,0Z"/>
          <path class="cls-6" d="M102.5,268.58c-.15.15-.15.4,0,.56s.4.15.56,0c.15-.15.15-.4,0-.56-.15-.15-.4-.15-.56,0Z"/>
          <path class="cls-6" d="M104.1,270.17c-.15.15-.15.4,0,.56.15.15.4.15.56,0s.15-.4,0-.56c-.15-.15-.4-.15-.56,0Z"/>
          <path class="cls-6" d="M105.69,271.77c-.15.15-.15.4,0,.56.15.15.4.15.56,0,.15-.15.15-.4,0-.56-.15-.15-.4-.15-.56,0Z"/>
          <path class="cls-6" d="M107.28,273.36c-.15.15-.15.4,0,.56.15.15.4.15.56,0,.15-.15.15-.4,0-.56s-.4-.15-.56,0Z"/>
          <path class="cls-6" d="M108.87,274.95c-.15.15-.15.4,0,.56.15.15.4.15.56,0,.15-.15.15-.4,0-.56-.15-.15-.4-.15-.56,0Z"/>
          <path class="cls-6" d="M110.47,276.54c-.15.15-.15.4,0,.56s.4.15.56,0c.15-.15.15-.4,0-.56-.15-.15-.4-.15-.56,0Z"/>
          <path class="cls-6" d="M112.06,278.14c-.15.15-.15.4,0,.56.15.15.4.15.56,0s.15-.4,0-.56c-.15-.15-.4-.15-.56,0Z"/>
          <path class="cls-6" d="M113.65,279.73c-.15.15-.15.4,0,.56.15.15.4.15.56,0,.15-.15.15-.4,0-.56-.15-.15-.4-.15-.56,0Z"/>
          <path class="cls-6" d="M115.25,281.32c-.15.15-.15.4,0,.56.15.15.4.15.56,0,.15-.15.15-.4,0-.56s-.4-.15-.56,0Z"/>
          <path class="cls-6" d="M116.84,282.92c-.15.15-.15.4,0,.56.15.15.4.15.56,0,.15-.15.15-.4,0-.56-.15-.15-.4-.15-.56,0Z"/>
          <path class="cls-6" d="M118.43,284.51c-.15.15-.15.4,0,.56.15.15.4.15.56,0,.15-.15.15-.4,0-.56-.15-.15-.4-.15-.56,0Z"/>
          <path class="cls-6" d="M119.91,286.36s0,.08.01.12c0-.04,0-.08-.01-.12Z"/>
          <path class="cls-6" d="M95.21,264.05c-.07.13-.15.25-.22.39.04-.02.07-.04.11-.07.09-.09.12-.2.11-.31Z"/>
          <path class="cls-6" d="M96.13,265.39c-.15.15-.15.4,0,.56.15.15.4.15.56,0,.15-.15.15-.4,0-.56-.15-.15-.4-.15-.56,0Z"/>
          <path class="cls-6" d="M97.72,266.99c-.15.15-.15.4,0,.56s.4.15.56,0,.15-.4,0-.56c-.15-.15-.4-.15-.56,0Z"/>
          <path class="cls-6" d="M99.32,268.58c-.15.15-.15.4,0,.56.15.15.4.15.56,0s.15-.4,0-.56c-.15-.15-.4-.15-.56,0Z"/>
          <path class="cls-6" d="M100.91,270.17c-.15.15-.15.4,0,.56s.4.15.56,0c.15-.15.15-.4,0-.56-.15-.15-.4-.15-.56,0Z"/>
          <path class="cls-6" d="M102.5,271.77c-.15.15-.15.4,0,.56.15.15.4.15.56,0,.15-.15.15-.4,0-.56-.15-.15-.4-.15-.56,0Z"/>
          <path class="cls-6" d="M104.1,273.36c-.15.15-.15.4,0,.56.15.15.4.15.56,0,.15-.15.15-.4,0-.56-.15-.15-.4-.15-.56,0Z"/>
          <path class="cls-6" d="M105.69,274.95c-.15.15-.15.4,0,.56s.4.15.56,0,.15-.4,0-.56c-.15-.15-.4-.15-.56,0Z"/>
          <path class="cls-6" d="M107.28,276.54c-.15.15-.15.4,0,.56.15.15.4.15.56,0,.15-.15.15-.4,0-.56-.15-.15-.4-.15-.56,0Z"/>
          <path class="cls-6" d="M108.87,278.14c-.15.15-.15.4,0,.56s.4.15.56,0c.15-.15.15-.4,0-.56-.15-.15-.4-.15-.56,0Z"/>
          <path class="cls-6" d="M110.47,279.73c-.15.15-.15.4,0,.56.15.15.4.15.56,0,.15-.15.15-.4,0-.56-.15-.15-.4-.15-.56,0Z"/>
          <path class="cls-6" d="M112.06,281.32c-.15.15-.15.4,0,.56.15.15.4.15.56,0,.15-.15.15-.4,0-.56-.15-.15-.4-.15-.56,0Z"/>
          <path class="cls-6" d="M113.65,282.92c-.15.15-.15.4,0,.56s.4.15.56,0,.15-.4,0-.56c-.15-.15-.4-.15-.56,0Z"/>
          <path class="cls-6" d="M115.25,284.51c-.15.15-.15.4,0,.56.15.15.4.15.56,0,.15-.15.15-.4,0-.56-.15-.15-.4-.15-.56,0Z"/>
          <path class="cls-6" d="M116.84,286.1c-.15.15-.15.4,0,.56.15.15.4.15.56,0,.15-.15.15-.4,0-.56-.15-.15-.4-.15-.56,0Z"/>
          <path class="cls-6" d="M118.43,287.69c-.15.15-.15.4,0,.56.15.15.4.15.56,0,.15-.15.15-.4,0-.56-.15-.15-.4-.15-.56,0Z"/>
          <path class="cls-6" d="M120.28,289.96c-.02-.25-.05-.51-.08-.77-.06.02-.13.05-.18.1-.15.15-.15.4,0,.56.07.07.16.11.25.11Z"/>
          <path class="cls-6" d="M94.54,266.99c-.15.15-.15.4,0,.56.15.15.4.15.56,0,.15-.15.15-.4,0-.56-.15-.15-.4-.15-.56,0Z"/>
          <path class="cls-6" d="M96.13,268.58c-.15.15-.15.4,0,.56s.4.15.56,0c.15-.15.15-.4,0-.56-.15-.15-.4-.15-.56,0Z"/>
          <path class="cls-6" d="M97.72,270.17c-.15.15-.15.4,0,.56.15.15.4.15.56,0,.15-.15.15-.4,0-.56-.15-.15-.4-.15-.56,0Z"/>
          <path class="cls-6" d="M99.32,271.77c-.15.15-.15.4,0,.56.15.15.4.15.56,0,.15-.15.15-.4,0-.56s-.4-.15-.56,0Z"/>
          <path class="cls-6" d="M100.91,273.36c-.15.15-.15.4,0,.56.15.15.4.15.56,0,.15-.15.15-.4,0-.56-.15-.15-.4-.15-.56,0Z"/>
          <path class="cls-6" d="M102.5,274.95c-.15.15-.15.4,0,.56.15.15.4.15.56,0,.15-.15.15-.4,0-.56-.15-.15-.4-.15-.56,0Z"/>
          <path class="cls-6" d="M104.1,276.54c-.15.15-.15.4,0,.56s.4.15.56,0c.15-.15.15-.4,0-.56-.15-.15-.4-.15-.56,0Z"/>
          <path class="cls-6" d="M105.69,278.14c-.15.15-.15.4,0,.56.15.15.4.15.56,0,.15-.15.15-.4,0-.56-.15-.15-.4-.15-.56,0Z"/>
          <path class="cls-6" d="M107.28,279.73c-.15.15-.15.4,0,.56.15.15.4.15.56,0,.15-.15.15-.4,0-.56-.15-.15-.4-.15-.56,0Z"/>
          <path class="cls-6" d="M108.87,281.32c-.15.15-.15.4,0,.56.15.15.4.15.56,0,.15-.15.15-.4,0-.56-.15-.15-.4-.15-.56,0Z"/>
          <path class="cls-6" d="M110.47,282.92c-.15.15-.15.4,0,.56.15.15.4.15.56,0,.15-.15.15-.4,0-.56-.15-.15-.4-.15-.56,0Z"/>
          <path class="cls-6" d="M112.06,284.51c-.15.15-.15.4,0,.56s.4.15.56,0c.15-.15.15-.4,0-.56-.15-.15-.4-.15-.56,0Z"/>
          <path class="cls-6" d="M113.65,286.1c-.15.15-.15.4,0,.56.15.15.4.15.56,0,.15-.15.15-.4,0-.56s-.4-.15-.56,0Z"/>
          <path class="cls-6" d="M115.25,287.69c-.15.15-.15.4,0,.56.15.15.4.15.56,0,.15-.15.15-.4,0-.56-.15-.15-.4-.15-.56,0Z"/>
          <path class="cls-6" d="M116.84,289.29c-.15.15-.15.4,0,.56.15.15.4.15.56,0,.15-.15.15-.4,0-.56-.15-.15-.4-.15-.56,0Z"/>
          <path class="cls-6" d="M118.43,290.88c-.15.15-.15.4,0,.56.15.15.4.15.56,0,.15-.15.15-.4,0-.56-.15-.15-.4-.15-.56,0Z"/>
          <path class="cls-6" d="M120.57,293.04c-.02-.2-.04-.41-.06-.62-.15-.09-.35-.08-.49.06-.15.15-.15.4,0,.56.15.15.39.15.54.01Z"/>
          <path class="cls-6" d="M93.46,268.55c-.05.23-.11.46-.16.7.07-.02.14-.05.2-.11.15-.15.15-.4,0-.56-.01-.01-.03-.02-.04-.03Z"/>
          <path class="cls-6" d="M94.54,270.17c-.15.15-.15.4,0,.56.15.15.4.15.56,0,.15-.15.15-.4,0-.56-.15-.15-.4-.15-.56,0Z"/>
          <path class="cls-6" d="M96.13,271.77c-.15.15-.15.4,0,.56.15.15.4.15.56,0,.15-.15.15-.4,0-.56-.15-.15-.4-.15-.56,0Z"/>
          <path class="cls-6" d="M97.72,273.36c-.15.15-.15.4,0,.56.15.15.4.15.56,0,.15-.15.15-.4,0-.56s-.4-.15-.56,0Z"/>
          <path class="cls-6" d="M99.32,274.95c-.15.15-.15.4,0,.56.15.15.4.15.56,0,.15-.15.15-.4,0-.56-.15-.15-.4-.15-.56,0Z"/>
          <path class="cls-6" d="M100.91,276.54c-.15.15-.15.4,0,.56.15.15.4.15.56,0s.15-.4,0-.56c-.15-.15-.4-.15-.56,0Z"/>
          <path class="cls-6" d="M102.5,278.14c-.15.15-.15.4,0,.56.15.15.4.15.56,0,.15-.15.15-.4,0-.56-.15-.15-.4-.15-.56,0Z"/>
          <path class="cls-6" d="M104.1,279.73c-.15.15-.15.4,0,.56.15.15.4.15.56,0,.15-.15.15-.4,0-.56-.15-.15-.4-.15-.56,0Z"/>
          <path class="cls-6" d="M105.69,281.32c-.15.15-.15.4,0,.56.15.15.4.15.56,0,.15-.15.15-.4,0-.56s-.4-.15-.56,0Z"/>
          <path class="cls-6" d="M107.28,282.92c-.15.15-.15.4,0,.56.15.15.4.15.56,0s.15-.4,0-.56c-.15-.15-.4-.15-.56,0Z"/>
          <path class="cls-6" d="M108.87,284.51c-.15.15-.15.4,0,.56.15.15.4.15.56,0s.15-.4,0-.56c-.15-.15-.4-.15-.56,0Z"/>
          <path class="cls-6" d="M110.47,286.1c-.15.15-.15.4,0,.56.15.15.4.15.56,0,.15-.15.15-.4,0-.56-.15-.15-.4-.15-.56,0Z"/>
          <path class="cls-6" d="M112.06,287.69c-.15.15-.15.4,0,.56.15.15.4.15.56,0,.15-.15.15-.4,0-.56-.15-.15-.4-.15-.56,0Z"/>
          <path class="cls-6" d="M113.65,289.29c-.15.15-.15.4,0,.56.15.15.4.15.56,0,.15-.15.15-.4,0-.56-.15-.15-.4-.15-.56,0Z"/>
          <path class="cls-6" d="M115.25,290.88c-.15.15-.15.4,0,.56.15.15.4.15.56,0,.15-.15.15-.4,0-.56-.15-.15-.4-.15-.56,0Z"/>
          <path class="cls-6" d="M116.84,292.47c-.15.15-.15.4,0,.56.15.15.4.15.56,0,.15-.15.15-.4,0-.56-.15-.15-.4-.15-.56,0Z"/>
          <path class="cls-6" d="M118.43,294.07c-.15.15-.15.4,0,.56.15.15.4.15.56,0,.15-.15.15-.4,0-.56-.15-.15-.4-.15-.56,0Z"/>
          <path class="cls-6" d="M120.58,296.22c.15-.15.15-.4,0-.56-.15-.15-.4-.15-.56,0-.15.15-.15.4,0,.56.15.15.4.15.56,0Z"/>
          <path class="cls-6" d="M92.95,271.77s-.02.03-.04.04c-.01.13-.03.27-.04.4.02.04.04.08.08.11.15.15.4.15.56,0,.15-.15.15-.4,0-.56s-.4-.15-.56,0Z"/>
          <path class="cls-6" d="M94.54,273.36c-.15.15-.15.4,0,.56.15.15.4.15.56,0,.15-.15.15-.4,0-.56-.15-.15-.4-.15-.56,0Z"/>
          <path class="cls-6" d="M96.13,274.95c-.15.15-.15.4,0,.56.15.15.4.15.56,0,.15-.15.15-.4,0-.56s-.4-.15-.56,0Z"/>
          <path class="cls-6" d="M97.72,276.54c-.15.15-.15.4,0,.56.15.15.4.15.56,0,.15-.15.15-.4,0-.56-.15-.15-.4-.15-.56,0Z"/>
          <path class="cls-6" d="M99.32,278.14c-.15.15-.15.4,0,.56.15.15.4.15.56,0,.15-.15.15-.4,0-.56-.15-.15-.4-.15-.56,0Z"/>
          <path class="cls-6" d="M100.91,279.73c-.15.15-.15.4,0,.56.15.15.4.15.56,0,.15-.15.15-.4,0-.56s-.4-.15-.56,0Z"/>
          <path class="cls-6" d="M102.5,281.32c-.15.15-.15.4,0,.56.15.15.4.15.56,0,.15-.15.15-.4,0-.56-.15-.15-.4-.15-.56,0Z"/>
          <path class="cls-6" d="M104.1,282.92c-.15.15-.15.4,0,.56.15.15.4.15.56,0,.15-.15.15-.4,0-.56s-.4-.15-.56,0Z"/>
          <path class="cls-6" d="M105.69,284.51c-.15.15-.15.4,0,.56.15.15.4.15.56,0,.15-.15.15-.4,0-.56-.15-.15-.4-.15-.56,0Z"/>
          <path class="cls-6" d="M107.28,286.1c-.15.15-.15.4,0,.56.15.15.4.15.56,0,.15-.15.15-.4,0-.56s-.4-.15-.56,0Z"/>
          <path class="cls-6" d="M108.87,287.69c-.15.15-.15.4,0,.56.15.15.4.15.56,0,.15-.15.15-.4,0-.56s-.4-.15-.56,0Z"/>
          <path class="cls-6" d="M110.47,289.29c-.15.15-.15.4,0,.56.15.15.4.15.56,0,.15-.15.15-.4,0-.56-.15-.15-.4-.15-.56,0Z"/>
          <path class="cls-6" d="M112.06,290.88c-.15.15-.15.4,0,.56s.4.15.56,0c.15-.15.15-.4,0-.56-.15-.15-.4-.15-.56,0Z"/>
          <path class="cls-6" d="M113.65,292.47c-.15.15-.15.4,0,.56.15.15.4.15.56,0,.15-.15.15-.4,0-.56-.15-.15-.4-.15-.56,0Z"/>
          <path class="cls-6" d="M115.25,294.07c-.15.15-.15.4,0,.56.15.15.4.15.56,0,.15-.15.15-.4,0-.56-.15-.15-.4-.15-.56,0Z"/>
          <path class="cls-6" d="M116.84,295.66c-.15.15-.15.4,0,.56.15.15.4.15.56,0,.15-.15.15-.4,0-.56-.15-.15-.4-.15-.56,0Z"/>
          <path class="cls-6" d="M118.43,297.25c-.15.15-.15.4,0,.56.15.15.4.15.56,0,.15-.15.15-.4,0-.56-.15-.15-.4-.15-.56,0Z"/>
          <path class="cls-6" d="M120.02,298.84c-.15.15-.15.4,0,.56.15.15.4.15.56,0,.15-.15.15-.4,0-.56-.15-.15-.4-.15-.56,0Z"/>
          <path class="cls-6" d="M92.95,274.95c-.15.15-.15.4,0,.56.15.15.4.15.56,0,.15-.15.15-.4,0-.56-.15-.15-.4-.15-.56,0Z"/>
          <path class="cls-6" d="M94.54,276.54c-.15.15-.15.4,0,.56s.4.15.56,0c.15-.15.15-.4,0-.56-.15-.15-.4-.15-.56,0Z"/>
          <path class="cls-6" d="M96.13,278.14c-.15.15-.15.4,0,.56.15.15.4.15.56,0s.15-.4,0-.56c-.15-.15-.4-.15-.56,0Z"/>
          <path class="cls-6" d="M97.72,279.73c-.15.15-.15.4,0,.56.15.15.4.15.56,0,.15-.15.15-.4,0-.56-.15-.15-.4-.15-.56,0Z"/>
          <path class="cls-6" d="M99.32,281.32c-.15.15-.15.4,0,.56.15.15.4.15.56,0,.15-.15.15-.4,0-.56-.15-.15-.4-.15-.56,0Z"/>
          <path class="cls-6" d="M100.91,282.92c-.15.15-.15.4,0,.56.15.15.4.15.56,0,.15-.15.15-.4,0-.56-.15-.15-.4-.15-.56,0Z"/>
          <path class="cls-6" d="M102.5,284.51c-.15.15-.15.4,0,.56s.4.15.56,0c.15-.15.15-.4,0-.56-.15-.15-.4-.15-.56,0Z"/>
          <path class="cls-6" d="M104.1,286.1c-.15.15-.15.4,0,.56.15.15.4.15.56,0,.15-.15.15-.4,0-.56-.15-.15-.4-.15-.56,0Z"/>
          <path class="cls-6" d="M105.69,287.69c-.15.15-.15.4,0,.56.15.15.4.15.56,0,.15-.15.15-.4,0-.56-.15-.15-.4-.15-.56,0Z"/>
          <path class="cls-6" d="M107.28,289.29c-.15.15-.15.4,0,.56.15.15.4.15.56,0,.15-.15.15-.4,0-.56-.15-.15-.4-.15-.56,0Z"/>
          <path class="cls-6" d="M108.87,290.88c-.15.15-.15.4,0,.56.15.15.4.15.56,0s.15-.4,0-.56c-.15-.15-.4-.15-.56,0Z"/>
          <path class="cls-6" d="M110.47,292.47c-.15.15-.15.4,0,.56.15.15.4.15.56,0,.15-.15.15-.4,0-.56-.15-.15-.4-.15-.56,0Z"/>
          <path class="cls-6" d="M112.06,294.07c-.15.15-.15.4,0,.56.15.15.4.15.56,0,.15-.15.15-.4,0-.56-.15-.15-.4-.15-.56,0Z"/>
          <path class="cls-6" d="M113.65,295.66c-.15.15-.15.4,0,.56.15.15.4.15.56,0,.15-.15.15-.4,0-.56-.15-.15-.4-.15-.56,0Z"/>
          <path class="cls-6" d="M115.25,297.25c-.15.15-.15.4,0,.56.15.15.4.15.56,0,.15-.15.15-.4,0-.56s-.4-.15-.56,0Z"/>
          <path class="cls-6" d="M116.84,298.84c-.15.15-.15.4,0,.56.15.15.4.15.56,0,.15-.15.15-.4,0-.56-.15-.15-.4-.15-.56,0Z"/>
          <path class="cls-6" d="M92.95,278.14c-.15.15-.15.4,0,.56s.4.15.56,0c.15-.15.15-.4,0-.56-.15-.15-.4-.15-.56,0Z"/>
          <path class="cls-6" d="M94.54,279.73c-.15.15-.15.4,0,.56.15.15.4.15.56,0,.15-.15.15-.4,0-.56-.15-.15-.4-.15-.56,0Z"/>
          <path class="cls-6" d="M96.13,281.32c-.15.15-.15.4,0,.56.15.15.4.15.56,0,.15-.15.15-.4,0-.56-.15-.15-.4-.15-.56,0Z"/>
          <path class="cls-6" d="M97.72,282.92c-.15.15-.15.4,0,.56s.4.15.56,0,.15-.4,0-.56c-.15-.15-.4-.15-.56,0Z"/>
          <path class="cls-6" d="M99.32,284.51c-.15.15-.15.4,0,.56.15.15.4.15.56,0s.15-.4,0-.56c-.15-.15-.4-.15-.56,0Z"/>
          <path class="cls-6" d="M100.91,286.1c-.15.15-.15.4,0,.56.15.15.4.15.56,0,.15-.15.15-.4,0-.56-.15-.15-.4-.15-.56,0Z"/>
          <path class="cls-6" d="M102.5,287.69c-.15.15-.15.4,0,.56.15.15.4.15.56,0,.15-.15.15-.4,0-.56-.15-.15-.4-.15-.56,0Z"/>
          <path class="cls-6" d="M104.1,289.29c-.15.15-.15.4,0,.56.15.15.4.15.56,0,.15-.15.15-.4,0-.56-.15-.15-.4-.15-.56,0Z"/>
          <path class="cls-6" d="M105.69,290.88c-.15.15-.15.4,0,.56.15.15.4.15.56,0,.15-.15.15-.4,0-.56-.15-.15-.4-.15-.56,0Z"/>
          <path class="cls-6" d="M107.28,292.47c-.15.15-.15.4,0,.56.15.15.4.15.56,0,.15-.15.15-.4,0-.56-.15-.15-.4-.15-.56,0Z"/>
          <path class="cls-6" d="M108.87,294.07c-.15.15-.15.4,0,.56.15.15.4.15.56,0,.15-.15.15-.4,0-.56-.15-.15-.4-.15-.56,0Z"/>
          <path class="cls-6" d="M110.47,295.66c-.15.15-.15.4,0,.56.15.15.4.15.56,0,.15-.15.15-.4,0-.56-.15-.15-.4-.15-.56,0Z"/>
          <path class="cls-6" d="M112.06,297.25c-.15.15-.15.4,0,.56.15.15.4.15.56,0,.15-.15.15-.4,0-.56-.15-.15-.4-.15-.56,0Z"/>
          <path class="cls-6" d="M113.65,298.84c-.15.15-.15.39,0,.55l.51.06s.04-.03.06-.04c.15-.15.15-.4,0-.56-.15-.15-.4-.15-.56,0Z"/>
          <path class="cls-6" d="M92.95,281.32c-.15.15-.15.4,0,.56.15.15.4.15.56,0,.15-.15.15-.4,0-.56-.15-.15-.4-.15-.56,0Z"/>
          <path class="cls-6" d="M94.54,282.92c-.15.15-.15.4,0,.56.15.15.4.15.56,0,.15-.15.15-.4,0-.56-.15-.15-.4-.15-.56,0Z"/>
          <path class="cls-6" d="M96.13,284.51c-.15.15-.15.4,0,.56s.4.15.56,0c.15-.15.15-.4,0-.56-.15-.15-.4-.15-.56,0Z"/>
          <path class="cls-6" d="M97.72,286.1c-.15.15-.15.4,0,.56.15.15.4.15.56,0,.15-.15.15-.4,0-.56s-.4-.15-.56,0Z"/>
          <path class="cls-6" d="M99.32,287.69c-.15.15-.15.4,0,.56.15.15.4.15.56,0,.15-.15.15-.4,0-.56s-.4-.15-.56,0Z"/>
          <path class="cls-6" d="M100.91,289.29c-.15.15-.15.4,0,.56.15.15.4.15.56,0,.15-.15.15-.4,0-.56-.15-.15-.4-.15-.56,0Z"/>
          <path class="cls-6" d="M102.5,290.88c-.15.15-.15.4,0,.56s.4.15.56,0c.15-.15.15-.4,0-.56-.15-.15-.4-.15-.56,0Z"/>
          <path class="cls-6" d="M104.1,292.47c-.15.15-.15.4,0,.56.15.15.4.15.56,0,.15-.15.15-.4,0-.56-.15-.15-.4-.15-.56,0Z"/>
          <path class="cls-6" d="M105.69,294.07c-.15.15-.15.4,0,.56.15.15.4.15.56,0,.15-.15.15-.4,0-.56-.15-.15-.4-.15-.56,0Z"/>
          <path class="cls-6" d="M107.28,295.66c-.15.15-.15.4,0,.56.15.15.4.15.56,0,.15-.15.15-.4,0-.56-.15-.15-.4-.15-.56,0Z"/>
          <path class="cls-6" d="M108.87,297.25c-.15.15-.15.4,0,.56.15.15.4.15.56,0,.15-.15.15-.4,0-.56-.15-.15-.4-.15-.56,0Z"/>
          <path class="cls-6" d="M110.47,298.84c-.05.05-.09.12-.1.19l.78.09c0-.1-.04-.2-.11-.27-.15-.15-.4-.15-.56,0Z"/>
          <path class="cls-6" d="M92.95,284.51c-.15.15-.15.4,0,.56.15.15.4.15.56,0s.15-.4,0-.56c-.15-.15-.4-.15-.56,0Z"/>
          <path class="cls-6" d="M94.54,286.1c-.15.15-.15.4,0,.56.15.15.4.15.56,0,.15-.15.15-.4,0-.56-.15-.15-.4-.15-.56,0Z"/>
          <path class="cls-6" d="M96.13,287.69c-.15.15-.15.4,0,.56.15.15.4.15.56,0,.15-.15.15-.4,0-.56-.15-.15-.4-.15-.56,0Z"/>
          <path class="cls-6" d="M97.72,289.29c-.15.15-.15.4,0,.56.15.15.4.15.56,0,.15-.15.15-.4,0-.56-.15-.15-.4-.15-.56,0Z"/>
          <path class="cls-6" d="M99.32,290.88c-.15.15-.15.4,0,.56.15.15.4.15.56,0s.15-.4,0-.56c-.15-.15-.4-.15-.56,0Z"/>
          <path class="cls-6" d="M100.91,292.47c-.15.15-.15.4,0,.56.15.15.4.15.56,0,.15-.15.15-.4,0-.56-.15-.15-.4-.15-.56,0Z"/>
          <path class="cls-6" d="M102.5,294.07c-.15.15-.15.4,0,.56.15.15.4.15.56,0,.15-.15.15-.4,0-.56-.15-.15-.4-.15-.56,0Z"/>
          <path class="cls-6" d="M104.1,295.66c-.15.15-.15.4,0,.56.15.15.4.15.56,0,.15-.15.15-.4,0-.56-.15-.15-.4-.15-.56,0Z"/>
          <path class="cls-6" d="M105.69,297.25c-.15.15-.15.4,0,.56.15.15.4.15.56,0,.15-.15.15-.4,0-.56s-.4-.15-.56,0Z"/>
          <path class="cls-6" d="M91.83,286.04c-.02.24-.04.47-.06.7.05-.02.09-.05.13-.09.15-.15.15-.4,0-.56-.02-.02-.05-.04-.08-.06Z"/>
          <path class="cls-6" d="M92.95,287.69c-.15.15-.15.4,0,.56.15.15.4.15.56,0,.15-.15.15-.4,0-.56s-.4-.15-.56,0Z"/>
          <path class="cls-6" d="M94.54,289.29c-.15.15-.15.4,0,.56.15.15.4.15.56,0,.15-.15.15-.4,0-.56-.15-.15-.4-.15-.56,0Z"/>
          <path class="cls-6" d="M96.13,290.88c-.15.15-.15.4,0,.56s.4.15.56,0c.15-.15.15-.4,0-.56-.15-.15-.4-.15-.56,0Z"/>
          <path class="cls-6" d="M97.72,292.47c-.15.15-.15.4,0,.56.15.15.4.15.56,0,.15-.15.15-.4,0-.56-.15-.15-.4-.15-.56,0Z"/>
          <path class="cls-6" d="M99.32,294.07c-.15.15-.15.4,0,.56.15.15.4.15.56,0,.15-.15.15-.4,0-.56-.15-.15-.4-.15-.56,0Z"/>
          <path class="cls-6" d="M100.91,295.66c-.15.15-.15.4,0,.56.15.15.4.15.56,0,.15-.15.15-.4,0-.56-.15-.15-.4-.15-.56,0Z"/>
          <path class="cls-6" d="M102.5,297.25c-.15.15-.15.4,0,.56.15.15.4.15.56,0,.15-.15.15-.4,0-.56-.15-.15-.4-.15-.56,0Z"/>
          <path class="cls-6" d="M91.58,289.18c-.02.26-.04.52-.06.76.14.04.29.01.39-.1.15-.15.15-.4,0-.56-.09-.09-.21-.13-.33-.11Z"/>
          <path class="cls-6" d="M92.95,290.88c-.15.15-.15.4,0,.56.15.15.4.15.56,0s.15-.4,0-.56c-.15-.15-.4-.15-.56,0Z"/>
          <path class="cls-6" d="M94.54,292.47c-.15.15-.15.4,0,.56.15.15.4.15.56,0,.15-.15.15-.4,0-.56-.15-.15-.4-.15-.56,0Z"/>
          <path class="cls-6" d="M96.13,294.07c-.15.15-.15.4,0,.56.15.15.4.15.56,0,.15-.15.15-.4,0-.56-.15-.15-.4-.15-.56,0Z"/>
          <path class="cls-6" d="M97.72,295.66c-.15.15-.15.4,0,.56.15.15.4.15.56,0,.15-.15.15-.4,0-.56-.15-.15-.4-.15-.56,0Z"/>
          <path class="cls-6" d="M99.32,297.25c-.15.15-.15.4,0,.56,0,0,0,0,.01,0l.46.05s.06-.04.08-.06c.15-.15.15-.4,0-.56-.15-.15-.4-.15-.56,0Z"/>
          <path class="cls-6" d="M91.35,292.47s-.04.05-.06.07c-.01.12-.02.24-.03.35.02.05.05.09.09.13.15.15.4.15.56,0,.15-.15.15-.4,0-.56-.15-.15-.4-.15-.56,0Z"/>
          <path class="cls-6" d="M92.95,294.07c-.15.15-.15.4,0,.56.15.15.4.15.56,0,.15-.15.15-.4,0-.56-.15-.15-.4-.15-.56,0Z"/>
          <path class="cls-6" d="M94.54,295.66c-.15.15-.15.4,0,.56.15.15.4.15.56,0,.15-.15.15-.4,0-.56-.15-.15-.4-.15-.56,0Z"/>
          <path class="cls-6" d="M96.13,297.25c-.06.06-.09.13-.11.2l.78.09c0-.1-.03-.21-.11-.29-.15-.15-.4-.15-.56,0Z"/>
          <path class="cls-6" d="M91.35,295.66c-.15.15-.15.4,0,.56.15.15.4.15.56,0,.15-.15.15-.4,0-.56-.15-.15-.4-.15-.56,0Z"/>
          <path class="cls-6" d="M93.17,297.14l.2.02c-.07-.03-.14-.03-.2-.02Z"/>
        </g>
        <g>
          <g>
            <g>
              <path class="cls-4" d="M135.02,229.76c.01-2.89-.84-10.05-6.32-14.84-2.59-2.27-6.73-3.24-9.99-2.9-9.14.95-9.48,11.68-9.13,15.96.24,2.89.48,5.61.48,5.61l.39,4.26,5.53,6.89s6.35,4.99,11.28,4.49c2.9-.29,8.35-6.72,7.76-13.18-.3-3.3,0-4.89,0-6.29Z"/>
              <path class="cls-1" d="M127.24,249.88s.05,0,.07,0c3.49-.35,8.93-7.34,8.34-13.88-.21-2.31-.12-3.76-.05-4.92.03-.46.06-.9.06-1.31,0-1.6-.28-9.85-6.54-15.33-2.87-2.52-7.23-3.35-10.33-3.07-.05,0-.1,0-.15.01-4.16.43-7.15,2.9-8.66,7.15-1.33,3.76-1.17,7.89-1.04,9.5.23,2.86.48,5.59.48,5.61l.39,4.26c.03.35.34.61.7.58s.61-.34.58-.7l-.39-4.26s-.25-2.75-.48-5.6c-.12-1.52-.28-5.44.97-8.96,1.35-3.8,3.9-5.92,7.59-6.31.05,0,.09,0,.14-.01,2.83-.26,6.78.49,9.37,2.76,5.84,5.12,6.11,12.86,6.1,14.36,0,.38-.03.78-.06,1.24-.08,1.2-.17,2.7.05,5.11.55,6.02-4.61,12.23-7.19,12.49-.02,0-.04,0-.06,0-4.6.42-10.69-4.32-10.75-4.37-.28-.22-.68-.17-.9.11-.22.28-.17.68.11.9.27.21,6.55,5.1,11.66,4.64Z"/>
            </g>
            <path class="cls-2" d="M128.21,214.06c-5.96-5.94-15.24-3.3-19.31,1.35-3.12,3.56-4.51,7.24-4.75,10.65-.67,6.72,3.77,11.61,3.77,11.61l3.68-5.28,1.66-.14s1.49-2.96,2.26-4.07c.77-1.12,4.93-2.76,4.93-2.76,0,0,3.03-.42,4.97-2.15,1.63-1.63,2.49-4.56,1.41-7.52l2.56,1.53c5.15,3.57,5.59,11.18,5.59,11.18,0,0,1.48-3.37.33-7.28-1.13-3.84-3.81-6.51-7.09-7.11Z"/>
            <g>
              <path class="cls-4" d="M110.8,231.4c-1.05-.89-5.04-.98-4.6,3.88.28,3.09,3.65,5.75,6.42,4.75l-.74-7.02s-.26-.91-1.09-1.61Z"/>
              <path class="cls-1" d="M111.8,240.87c.36-.03.71-.11,1.04-.23.33-.12.51-.49.39-.82-.12-.33-.49-.51-.82-.39-.98.35-2.15.16-3.21-.52-1.33-.85-2.23-2.26-2.36-3.69-.16-1.71.27-2.89,1.24-3.39.91-.47,1.99-.21,2.31.06.66.55.88,1.29.89,1.3.1.34.45.54.79.44.34-.1.54-.45.44-.79-.01-.04-.33-1.11-1.29-1.92-.76-.64-2.4-.91-3.73-.21-.83.43-2.19,1.62-1.92,4.64.16,1.81,1.29,3.6,2.95,4.65,1.05.67,2.21.97,3.29.87Z"/>
            </g>
            <path class="cls-2" d="M110.96,237.49s2.85-.36,3.49-6.33c.28-2.59,1.35-4.12,1.35-4.12l-4.59,3.69c1.09,3.74-.26,6.76-.26,6.76Z"/>
            <path class="cls-1" d="M110.37,237.23s1.23-2.86.23-6.32c-.1-.34.1-.7.44-.79.34-.1.7.1.79.44.65,2.22.49,4.19.22,5.5.68-.75,1.46-2.2,1.76-4.97.29-2.73,1.42-4.35,1.47-4.42.2-.29.6-.36.89-.15.07.05.12.11.16.17,1.35-.84,3.21-1.61,3.81-1.85.35-.26,2.6-2.03,2.73-5.49.01-.35.31-.63.66-.62.35.01.63.31.62.66-.08,2.13-.84,3.71-1.62,4.79.81-.31,1.72-.75,2.44-1.4,1.37-1.37,2.28-4.02,1.25-6.84-.12-.33.05-.7.38-.82.33-.12.7.05.82.38,1.23,3.36.1,6.54-1.56,8.2,0,0-.02.02-.03.02-1.9,1.7-4.71,2.22-5.23,2.3-1.65.66-4.12,1.85-4.57,2.5-.19.27-.42.66-.66,1.09-.13.47-.24,1-.3,1.6-.69,6.41-3.91,6.88-4.05,6.9,0,0-.01,0-.02,0-.22.02-.44-.08-.57-.26-.14-.19-.17-.43-.07-.64Z"/>
            <path class="cls-1" d="M103.52,226c.28-3.91,1.92-7.62,4.9-11.02,2.54-2.89,6.81-4.85,10.88-4.99,3.56-.12,6.75,1.08,9.22,3.47,3.45.71,6.21,3.5,7.39,7.52,1.21,4.08-.29,7.57-.36,7.72-.12.27-.41.43-.7.37-.29-.05-.51-.3-.53-.59,0-.07-.49-7.35-5.32-10.7-.29-.2-.36-.6-.16-.89.2-.29.6-.36.89-.16,3.18,2.21,4.65,5.8,5.32,8.43.09-1.11.04-2.43-.37-3.81-1.07-3.62-3.53-6.1-6.59-6.66-.13-.02-.25-.08-.34-.18-2.83-2.82-6.14-3.32-8.42-3.24-3.74.13-7.65,1.91-9.96,4.55-2.79,3.19-4.34,6.64-4.59,10.27,0,0,0,.01,0,.02-.3,3.01.49,5.65,1.4,7.61-.25.71-.29,1.47-.26,2.26-1.28-2.12-2.84-5.67-2.42-9.99Z"/>
          </g>
          <g>
            <path class="cls-4" d="M113.76,239.95c.05.63-.41,1.18-1.04,1.23s-1.18-.41-1.23-1.04c-.05-.63.41-1.18,1.04-1.23.63-.05,1.18.41,1.23,1.04Z"/>
            <path class="cls-1" d="M112.62,241.83c-.42,0-.82-.15-1.14-.42-.36-.31-.59-.74-.63-1.21-.04-.47.1-.94.41-1.3.31-.36.74-.59,1.21-.63.47-.04.94.1,1.3.41.36.31.59.74.63,1.21,0,0,0,0,0,0,.04.47-.1.94-.41,1.3-.31.36-.74.59-1.21.63-.05,0-.1,0-.16,0ZM112.62,239.55s-.03,0-.04,0c-.13.01-.25.07-.34.18-.09.1-.13.23-.11.36.01.13.07.25.18.34.1.09.23.13.36.11.13-.01.25-.07.34-.18.09-.1.13-.23.11-.36-.01-.13-.07-.25-.18-.34-.09-.08-.2-.12-.32-.12Z"/>
          </g>
          <path class="cls-1" d="M128.07,238.44c0-.18.3-.25.59-.49.28-.26.41-.57.57-.53.17.04.48.69-.07,1.21-.58.48-1.09,0-1.09-.19Z"/>
          <path class="cls-1" d="M118.52,232.35s-.05,0-.07,0c-.31-.04-.53-.32-.49-.64.13-1.04,1.18-1.78,1.67-1.97,1.74-.7,2.87.32,2.91.36.23.21.24.57.03.81-.21.23-.57.24-.8.03-.04-.03-.67-.56-1.72-.14-.3.12-.9.6-.96,1.06-.04.29-.28.5-.56.5Z"/>
          <path class="cls-1" d="M128.22,231.5s-.1,0-.15-.02c-.3-.08-.48-.39-.4-.7.23-.86.88-1.49,1.85-1.8.78-.25,1.97-.16,2.74.89.19.25.13.61-.12.8-.25.19-.61.13-.8-.12-.54-.74-1.39-.5-1.48-.47-.41.13-.93.41-1.09,1-.07.25-.3.42-.55.42Z"/>
          <path class="cls-1" d="M118.89,231.25c.25-.3.58-.5.9-.53.25-.03.53.06.77.25.34.26.58.68.62,1.1.04.38-.11.79-.4,1.11-.22.25-.5.4-.77.42,0,0-.02,0-.03,0-.6.04-1.31-.64-1.42-1.38-.05-.31.07-.67.32-.98Z"/>
          <path class="cls-1" d="M128.53,230.4c.22-.3.51-.49.81-.52.23-.03.47.07.7.26.31.27.53.69.57,1.1.04.38-.09.79-.35,1.11-.2.24-.44.39-.69.42,0,0-.02,0-.03,0-.54.04-1.18-.65-1.29-1.39-.05-.31.06-.67.28-.97Z"/>
          <path class="cls-1" d="M117.85,229.65c-.13,0-.25-.05-.35-.15-.2-.19-.2-.51,0-.71.89-.89,3.08-1.96,5.45-1.23.26.08.41.36.33.62-.08.26-.36.41-.62.33-1.95-.6-3.72.26-4.44.98-.1.1-.23.15-.35.15Z"/>
          <path class="cls-1" d="M128.14,228.11c-.18,0-.35-.1-.44-.27-.13-.24-.03-.55.21-.67,1.77-.92,3.59-.48,4.39-.08.25.12.35.42.22.67-.12.25-.42.35-.67.22-.63-.32-2.07-.66-3.48.07-.07.04-.15.06-.23.06Z"/>
          <path class="cls-1" d="M125.63,244.68c-.08,0-.17-.02-.24-.06-1.39-.78-2.09-2.83-2.12-2.92-.05-.14-.03-.3.06-.43.08-.13.22-.21.37-.22l5.35-.46c.15-.01.3.05.41.16.1.11.15.27.13.42-.01.08-.35,2.04-1.46,3.09-.2.19-.52.18-.7-.02-.19-.2-.18-.52.02-.7.53-.5.84-1.32,1.01-1.89l-3.98.35c.27.57.75,1.4,1.41,1.77.24.13.33.44.19.68-.09.16-.26.26-.44.26Z"/>
        </g>
        <path class="cls-4" d="M154.15,272.01l-.59-.31-5.8-2.99-.46-.24-.69-.35-1.28.1c-.3-.77-.6-1.52-.91-2.22-.11-.24-.21-.48-.32-.71-.55-1.17-1.1-2.19-1.65-2.93-1.51-2.03-3.91-3.51-5.82-4.57-.23-.13-.45-.25-.67-.36-.38-.2-.73-.39-1.04-.56-1.64-.9-4.31-2.48-6.34-3.7-.23-.14-.45-.27-.67-.4-1.27-.76-2.15-1.31-2.15-1.31,0,0,.15,1.62.35,1.97.04.06.22.31.51.69.12.16.26.36.41.57.26.36.56.79.88,1.27.12.17.24.35.36.54,1.02,1.55,2.18,3.55,3.03,5.62.1.24.2.49.29.73.25.67.46,1.35.61,2.02.31,1.34.56,3.13.76,5.19.03.25.05.51.07.77.07.78.14,1.6.19,2.44.02.23.03.45.05.68.06.89.11,1.81.16,2.74,0,.06,0,.13,0,.19.52,10.49.36,22.77.36,22.77,0,0,1.69.32,3.94.66.1.01.2.03.3.04.82.12,1.7.25,2.59.36.26.03.51.06.77.09.91.11,1.82.2,2.69.26.07,0,.14,0,.2.01,1.36.09,2.58.1,3.44-.01,3.71-.51,4.13-2.51,4.87-4.17.16-.35.45-1.21.83-2.39.06-.17.11-.35.17-.54.4-1.24.87-2.77,1.37-4.42.02-.07.05-.15.07-.22.75-2.45,1.55-5.15,2.26-7.55.02-.05.03-.11.05-.16.5-1.69.95-3.23,1.3-4.43.07-.23.13-.44.19-.64.34-1.15.54-1.86.54-1.86l-5.22-2.69Z"/>
        <g>
          <path class="cls-6" d="M154.03,272.32c.08-.08.12-.2.11-.31l-.59-.31s-.05.03-.08.06c-.15.15-.15.4,0,.56.15.15.4.15.56,0Z"/>
          <path class="cls-6" d="M155.07,273.36c-.15.15-.15.4,0,.56.15.15.4.15.56,0,.15-.15.15-.4,0-.56s-.4-.15-.56,0Z"/>
          <path class="cls-6" d="M156.66,274.95c-.15.15-.15.4,0,.56s.4.15.56,0c.15-.15.15-.4,0-.56-.15-.15-.4-.15-.56,0Z"/>
          <path class="cls-6" d="M158.81,276.54c-.15-.15-.4-.15-.56,0-.15.15-.15.4,0,.56.1.1.25.14.38.1.07-.23.13-.44.19-.64,0,0,0-.01-.01-.02Z"/>
          <path class="cls-6" d="M136.51,257.99c.05-.05.09-.12.1-.19-.23-.13-.45-.25-.67-.36-.15.15-.15.4,0,.55.15.15.4.15.56,0Z"/>
          <path class="cls-6" d="M137.55,259.02c-.15.15-.15.4,0,.56.15.15.4.15.56,0,.15-.15.15-.4,0-.56-.15-.15-.4-.15-.56,0Z"/>
          <path class="cls-6" d="M139.14,260.62c-.15.15-.15.4,0,.56.15.15.4.15.56,0,.15-.15.15-.4,0-.56-.15-.15-.4-.15-.56,0Z"/>
          <path class="cls-6" d="M140.73,262.21c-.15.15-.15.4,0,.56s.4.15.56,0c.15-.15.15-.4,0-.56-.15-.15-.4-.15-.56,0Z"/>
          <path class="cls-6" d="M142.32,263.8c-.15.15-.15.4,0,.56.15.15.4.15.56,0,.15-.15.15-.4,0-.56-.15-.15-.4-.15-.56,0Z"/>
          <path class="cls-6" d="M144.41,266c-.11-.24-.21-.48-.32-.71-.06.02-.12.05-.17.1-.15.15-.15.4,0,.56.13.13.34.15.49.05Z"/>
          <path class="cls-6" d="M147.66,269.14c.11-.11.14-.28.09-.42l-.46-.24c-.07.02-.13.05-.18.1-.15.15-.15.4,0,.56.15.15.4.15.56,0Z"/>
          <path class="cls-6" d="M148.7,270.17c-.15.15-.15.4,0,.56.15.15.4.15.56,0,.15-.15.15-.4,0-.56-.15-.15-.4-.15-.56,0Z"/>
          <path class="cls-6" d="M150.29,271.77c-.15.15-.15.4,0,.56.15.15.4.15.56,0,.15-.15.15-.4,0-.56-.15-.15-.4-.15-.56,0Z"/>
          <path class="cls-6" d="M151.88,273.36c-.15.15-.15.4,0,.56.15.15.4.15.56,0,.15-.15.15-.4,0-.56-.15-.15-.4-.15-.56,0Z"/>
          <path class="cls-6" d="M153.48,274.95c-.15.15-.15.4,0,.56.15.15.4.15.56,0s.15-.4,0-.56c-.15-.15-.4-.15-.56,0Z"/>
          <path class="cls-6" d="M155.07,276.54c-.15.15-.15.4,0,.56.15.15.4.15.56,0,.15-.15.15-.4,0-.56-.15-.15-.4-.15-.56,0Z"/>
          <path class="cls-6" d="M156.66,278.14c-.15.15-.15.4,0,.56.15.15.4.15.56,0,.15-.15.15-.4,0-.56-.15-.15-.4-.15-.56,0Z"/>
          <path class="cls-6" d="M128.55,253.21s.02-.02.02-.03c-.23-.14-.45-.27-.67-.4-.06.14-.03.31.08.43.15.15.4.15.56,0Z"/>
          <path class="cls-6" d="M129.58,254.24c-.15.15-.15.4,0,.56.15.15.4.15.56,0,.15-.15.15-.4,0-.56-.15-.15-.4-.15-.56,0Z"/>
          <path class="cls-6" d="M131.17,255.84c-.15.15-.15.4,0,.56.15.15.4.15.56,0,.15-.15.15-.4,0-.56-.15-.15-.4-.15-.56,0Z"/>
          <path class="cls-6" d="M132.77,257.43c-.15.15-.15.4,0,.56.15.15.4.15.56,0,.15-.15.15-.4,0-.56-.15-.15-.4-.15-.56,0Z"/>
          <path class="cls-6" d="M134.36,259.02c-.15.15-.15.4,0,.56.15.15.4.15.56,0,.15-.15.15-.4,0-.56-.15-.15-.4-.15-.56,0Z"/>
          <path class="cls-6" d="M135.95,260.62c-.15.15-.15.4,0,.56s.4.15.56,0c.15-.15.15-.4,0-.56-.15-.15-.4-.15-.56,0Z"/>
          <path class="cls-6" d="M137.55,262.21c-.15.15-.15.4,0,.56.15.15.4.15.56,0,.15-.15.15-.4,0-.56-.15-.15-.4-.15-.56,0Z"/>
          <path class="cls-6" d="M139.14,263.8c-.15.15-.15.4,0,.56.15.15.4.15.56,0,.15-.15.15-.4,0-.56-.15-.15-.4-.15-.56,0Z"/>
          <path class="cls-6" d="M140.73,265.39c-.15.15-.15.4,0,.56.15.15.4.15.56,0,.15-.15.15-.4,0-.56-.15-.15-.4-.15-.56,0Z"/>
          <path class="cls-6" d="M142.32,266.99c-.15.15-.15.4,0,.56.15.15.4.15.56,0,.15-.15.15-.4,0-.56-.15-.15-.4-.15-.56,0Z"/>
          <path class="cls-6" d="M143.92,268.58c-.15.15-.15.4,0,.56s.4.15.56,0c.15-.15.15-.4,0-.56-.15-.15-.4-.15-.56,0Z"/>
          <path class="cls-6" d="M145.51,270.17c-.15.15-.15.4,0,.56.15.15.4.15.56,0,.15-.15.15-.4,0-.56-.15-.15-.4-.15-.56,0Z"/>
          <path class="cls-6" d="M147.1,271.77c-.15.15-.15.4,0,.56.15.15.4.15.56,0,.15-.15.15-.4,0-.56-.15-.15-.4-.15-.56,0Z"/>
          <path class="cls-6" d="M148.7,273.36c-.15.15-.15.4,0,.56.15.15.4.15.56,0,.15-.15.15-.4,0-.56-.15-.15-.4-.15-.56,0Z"/>
          <path class="cls-6" d="M150.29,274.95c-.15.15-.15.4,0,.56.15.15.4.15.56,0,.15-.15.15-.4,0-.56-.15-.15-.4-.15-.56,0Z"/>
          <path class="cls-6" d="M151.88,276.54c-.15.15-.15.4,0,.56s.4.15.56,0c.15-.15.15-.4,0-.56-.15-.15-.4-.15-.56,0Z"/>
          <path class="cls-6" d="M153.48,278.14c-.15.15-.15.4,0,.56.15.15.4.15.56,0,.15-.15.15-.4,0-.56-.15-.15-.4-.15-.56,0Z"/>
          <path class="cls-6" d="M155.07,279.73c-.15.15-.15.4,0,.56.15.15.4.15.56,0,.15-.15.15-.4,0-.56-.15-.15-.4-.15-.56,0Z"/>
          <path class="cls-6" d="M156.66,281.32c-.15.15-.15.4,0,.56.15.15.4.15.56,0,.03-.03.05-.06.06-.09.02-.05.03-.11.05-.16,0-.11-.03-.22-.11-.31-.15-.15-.4-.15-.56,0Z"/>
          <path class="cls-6" d="M126.61,254.13c.12.16.26.36.41.57.08-.15.06-.34-.07-.46-.09-.09-.22-.13-.34-.11Z"/>
          <path class="cls-6" d="M127.99,255.84s-.07.09-.09.13c.12.17.24.35.36.54.1,0,.21-.04.29-.11.15-.15.15-.4,0-.56-.15-.15-.4-.15-.56,0Z"/>
          <path class="cls-6" d="M129.58,257.43c-.15.15-.15.4,0,.56.15.15.4.15.56,0,.15-.15.15-.4,0-.56-.15-.15-.4-.15-.56,0Z"/>
          <path class="cls-6" d="M131.17,259.02c-.15.15-.15.4,0,.56.15.15.4.15.56,0,.15-.15.15-.4,0-.56-.15-.15-.4-.15-.56,0Z"/>
          <path class="cls-6" d="M132.77,260.62c-.15.15-.15.4,0,.56.15.15.4.15.56,0s.15-.4,0-.56c-.15-.15-.4-.15-.56,0Z"/>
          <path class="cls-6" d="M134.36,262.21c-.15.15-.15.4,0,.56s.4.15.56,0c.15-.15.15-.4,0-.56-.15-.15-.4-.15-.56,0Z"/>
          <path class="cls-6" d="M135.95,263.8c-.15.15-.15.4,0,.56.15.15.4.15.56,0,.15-.15.15-.4,0-.56-.15-.15-.4-.15-.56,0Z"/>
          <path class="cls-6" d="M137.55,265.39c-.15.15-.15.4,0,.56.15.15.4.15.56,0,.15-.15.15-.4,0-.56s-.4-.15-.56,0Z"/>
          <path class="cls-6" d="M139.14,266.99c-.15.15-.15.4,0,.56.15.15.4.15.56,0s.15-.4,0-.56c-.15-.15-.4-.15-.56,0Z"/>
          <path class="cls-6" d="M140.73,268.58c-.15.15-.15.4,0,.56.15.15.4.15.56,0s.15-.4,0-.56c-.15-.15-.4-.15-.56,0Z"/>
          <path class="cls-6" d="M142.32,270.17c-.15.15-.15.4,0,.56s.4.15.56,0c.15-.15.15-.4,0-.56-.15-.15-.4-.15-.56,0Z"/>
          <path class="cls-6" d="M143.92,271.77c-.15.15-.15.4,0,.56.15.15.4.15.56,0,.15-.15.15-.4,0-.56-.15-.15-.4-.15-.56,0Z"/>
          <path class="cls-6" d="M145.51,273.36c-.15.15-.15.4,0,.56.15.15.4.15.56,0,.15-.15.15-.4,0-.56s-.4-.15-.56,0Z"/>
          <path class="cls-6" d="M147.1,274.95c-.15.15-.15.4,0,.56.15.15.4.15.56,0s.15-.4,0-.56c-.15-.15-.4-.15-.56,0Z"/>
          <path class="cls-6" d="M148.7,276.54c-.15.15-.15.4,0,.56.15.15.4.15.56,0s.15-.4,0-.56c-.15-.15-.4-.15-.56,0Z"/>
          <path class="cls-6" d="M150.29,278.14c-.15.15-.15.4,0,.56s.4.15.56,0c.15-.15.15-.4,0-.56-.15-.15-.4-.15-.56,0Z"/>
          <path class="cls-6" d="M151.88,279.73c-.15.15-.15.4,0,.56.15.15.4.15.56,0,.15-.15.15-.4,0-.56-.15-.15-.4-.15-.56,0Z"/>
          <path class="cls-6" d="M153.48,281.32c-.15.15-.15.4,0,.56.15.15.4.15.56,0,.15-.15.15-.4,0-.56s-.4-.15-.56,0Z"/>
          <path class="cls-6" d="M155.07,282.92c-.15.15-.15.4,0,.56.15.15.4.15.56,0s.15-.4,0-.56c-.15-.15-.4-.15-.56,0Z"/>
          <path class="cls-6" d="M131.29,262.13c.1.24.2.49.29.73.06-.02.11-.05.15-.09.15-.15.15-.4,0-.56-.12-.12-.3-.14-.44-.08Z"/>
          <path class="cls-6" d="M132.77,263.8c-.15.15-.15.4,0,.56.15.15.4.15.56,0,.15-.15.15-.4,0-.56-.15-.15-.4-.15-.56,0Z"/>
          <path class="cls-6" d="M134.36,265.39c-.15.15-.15.4,0,.56.15.15.4.15.56,0,.15-.15.15-.4,0-.56-.15-.15-.4-.15-.56,0Z"/>
          <path class="cls-6" d="M135.95,266.99c-.15.15-.15.4,0,.56.15.15.4.15.56,0,.15-.15.15-.4,0-.56s-.4-.15-.56,0Z"/>
          <path class="cls-6" d="M137.55,268.58c-.15.15-.15.4,0,.56s.4.15.56,0c.15-.15.15-.4,0-.56-.15-.15-.4-.15-.56,0Z"/>
          <path class="cls-6" d="M139.14,270.17c-.15.15-.15.4,0,.56.15.15.4.15.56,0,.15-.15.15-.4,0-.56-.15-.15-.4-.15-.56,0Z"/>
          <path class="cls-6" d="M140.73,271.77c-.15.15-.15.4,0,.56.15.15.4.15.56,0,.15-.15.15-.4,0-.56s-.4-.15-.56,0Z"/>
          <path class="cls-6" d="M142.32,273.36c-.15.15-.15.4,0,.56.15.15.4.15.56,0,.15-.15.15-.4,0-.56-.15-.15-.4-.15-.56,0Z"/>
          <path class="cls-6" d="M143.92,274.95c-.15.15-.15.4,0,.56.15.15.4.15.56,0,.15-.15.15-.4,0-.56s-.4-.15-.56,0Z"/>
          <path class="cls-6" d="M145.51,276.54c-.15.15-.15.4,0,.56s.4.15.56,0c.15-.15.15-.4,0-.56-.15-.15-.4-.15-.56,0Z"/>
          <path class="cls-6" d="M147.1,278.14c-.15.15-.15.4,0,.56.15.15.4.15.56,0,.15-.15.15-.4,0-.56-.15-.15-.4-.15-.56,0Z"/>
          <path class="cls-6" d="M148.7,279.73c-.15.15-.15.4,0,.56.15.15.4.15.56,0,.15-.15.15-.4,0-.56s-.4-.15-.56,0Z"/>
          <path class="cls-6" d="M150.29,281.32c-.15.15-.15.4,0,.56.15.15.4.15.56,0,.15-.15.15-.4,0-.56-.15-.15-.4-.15-.56,0Z"/>
          <path class="cls-6" d="M151.88,282.92c-.15.15-.15.4,0,.56.15.15.4.15.56,0,.15-.15.15-.4,0-.56s-.4-.15-.56,0Z"/>
          <path class="cls-6" d="M153.48,284.51c-.15.15-.15.4,0,.56s.4.15.56,0c.15-.15.15-.4,0-.56-.15-.15-.4-.15-.56,0Z"/>
          <path class="cls-6" d="M155.07,286.1c-.15.15-.15.4,0,.56.15.15.4.15.56,0,.15-.15.15-.4,0-.56s-.4-.15-.56,0Z"/>
          <path class="cls-6" d="M132.77,266.99c-.15.15-.15.4,0,.56.15.15.4.15.56,0,.15-.15.15-.4,0-.56-.15-.15-.4-.15-.56,0Z"/>
          <path class="cls-6" d="M134.36,268.58c-.15.15-.15.4,0,.56.15.15.4.15.56,0,.15-.15.15-.4,0-.56-.15-.15-.4-.15-.56,0Z"/>
          <path class="cls-6" d="M135.95,270.17c-.15.15-.15.4,0,.56.15.15.4.15.56,0s.15-.4,0-.56c-.15-.15-.4-.15-.56,0Z"/>
          <path class="cls-6" d="M137.55,271.77c-.15.15-.15.4,0,.56.15.15.4.15.56,0,.15-.15.15-.4,0-.56-.15-.15-.4-.15-.56,0Z"/>
          <path class="cls-6" d="M139.14,273.36c-.15.15-.15.4,0,.56.15.15.4.15.56,0,.15-.15.15-.4,0-.56s-.4-.15-.56,0Z"/>
          <path class="cls-6" d="M140.73,274.95c-.15.15-.15.4,0,.56.15.15.4.15.56,0,.15-.15.15-.4,0-.56-.15-.15-.4-.15-.56,0Z"/>
          <path class="cls-6" d="M142.32,276.54c-.15.15-.15.4,0,.56.15.15.4.15.56,0,.15-.15.15-.4,0-.56-.15-.15-.4-.15-.56,0Z"/>
          <path class="cls-6" d="M143.92,278.14c-.15.15-.15.4,0,.56.15.15.4.15.56,0s.15-.4,0-.56c-.15-.15-.4-.15-.56,0Z"/>
          <path class="cls-6" d="M145.51,279.73c-.15.15-.15.4,0,.56.15.15.4.15.56,0,.15-.15.15-.4,0-.56-.15-.15-.4-.15-.56,0Z"/>
          <path class="cls-6" d="M147.1,281.32c-.15.15-.15.4,0,.56.15.15.4.15.56,0,.15-.15.15-.4,0-.56s-.4-.15-.56,0Z"/>
          <path class="cls-6" d="M148.7,282.92c-.15.15-.15.4,0,.56s.4.15.56,0c.15-.15.15-.4,0-.56-.15-.15-.4-.15-.56,0Z"/>
          <path class="cls-6" d="M150.29,284.51c-.15.15-.15.4,0,.56.15.15.4.15.56,0,.15-.15.15-.4,0-.56-.15-.15-.4-.15-.56,0Z"/>
          <path class="cls-6" d="M151.88,286.1c-.15.15-.15.4,0,.56.15.15.4.15.56,0,.15-.15.15-.4,0-.56-.15-.15-.4-.15-.56,0Z"/>
          <path class="cls-6" d="M153.48,287.69c-.15.15-.15.4,0,.56.15.15.4.15.56,0,.15-.15.15-.4,0-.56-.15-.15-.4-.15-.56,0Z"/>
          <path class="cls-6" d="M155.02,289.35c-.05.07-.07.15-.07.22.02-.07.05-.15.07-.22Z"/>
          <path class="cls-6" d="M132.95,270.07c.03.25.05.51.07.77.11,0,.22-.03.3-.11.15-.15.15-.4,0-.56-.1-.1-.25-.13-.38-.1Z"/>
          <path class="cls-6" d="M134.36,271.77c-.15.15-.15.4,0,.56.15.15.4.15.56,0,.15-.15.15-.4,0-.56-.15-.15-.4-.15-.56,0Z"/>
          <path class="cls-6" d="M135.95,273.36c-.15.15-.15.4,0,.56.15.15.4.15.56,0,.15-.15.15-.4,0-.56-.15-.15-.4-.15-.56,0Z"/>
          <path class="cls-6" d="M137.55,274.95c-.15.15-.15.4,0,.56.15.15.4.15.56,0s.15-.4,0-.56c-.15-.15-.4-.15-.56,0Z"/>
          <path class="cls-6" d="M139.14,276.54c-.15.15-.15.4,0,.56.15.15.4.15.56,0,.15-.15.15-.4,0-.56-.15-.15-.4-.15-.56,0Z"/>
          <path class="cls-6" d="M140.73,278.14c-.15.15-.15.4,0,.56s.4.15.56,0c.15-.15.15-.4,0-.56-.15-.15-.4-.15-.56,0Z"/>
          <path class="cls-6" d="M142.32,279.73c-.15.15-.15.4,0,.56.15.15.4.15.56,0,.15-.15.15-.4,0-.56-.15-.15-.4-.15-.56,0Z"/>
          <path class="cls-6" d="M143.92,281.32c-.15.15-.15.4,0,.56.15.15.4.15.56,0,.15-.15.15-.4,0-.56-.15-.15-.4-.15-.56,0Z"/>
          <path class="cls-6" d="M145.51,282.92c-.15.15-.15.4,0,.56.15.15.4.15.56,0s.15-.4,0-.56c-.15-.15-.4-.15-.56,0Z"/>
          <path class="cls-6" d="M147.1,284.51c-.15.15-.15.4,0,.56.15.15.4.15.56,0,.15-.15.15-.4,0-.56-.15-.15-.4-.15-.56,0Z"/>
          <path class="cls-6" d="M148.7,286.1c-.15.15-.15.4,0,.56.15.15.4.15.56,0,.15-.15.15-.4,0-.56-.15-.15-.4-.15-.56,0Z"/>
          <path class="cls-6" d="M150.29,287.69c-.15.15-.15.4,0,.56.15.15.4.15.56,0,.15-.15.15-.4,0-.56-.15-.15-.4-.15-.56,0Z"/>
          <path class="cls-6" d="M151.88,289.29c-.15.15-.15.4,0,.56.15.15.4.15.56,0,.15-.15.15-.4,0-.56-.15-.15-.4-.15-.56,0Z"/>
          <path class="cls-6" d="M153.48,290.88c-.15.15-.15.4,0,.56s.4.15.56,0c.15-.15.15-.4,0-.56-.15-.15-.4-.15-.56,0Z"/>
          <path class="cls-6" d="M133.22,273.28c.02.23.03.45.05.68.02-.01.04-.03.06-.05.15-.15.15-.4,0-.56-.03-.03-.07-.06-.11-.07Z"/>
          <path class="cls-6" d="M134.36,274.95c-.15.15-.15.4,0,.56.15.15.4.15.56,0,.15-.15.15-.4,0-.56-.15-.15-.4-.15-.56,0Z"/>
          <path class="cls-6" d="M135.95,276.54c-.15.15-.15.4,0,.56s.4.15.56,0c.15-.15.15-.4,0-.56-.15-.15-.4-.15-.56,0Z"/>
          <path class="cls-6" d="M137.55,278.14c-.15.15-.15.4,0,.56.15.15.4.15.56,0,.15-.15.15-.4,0-.56-.15-.15-.4-.15-.56,0Z"/>
          <path class="cls-6" d="M139.14,279.73c-.15.15-.15.4,0,.56.15.15.4.15.56,0,.15-.15.15-.4,0-.56-.15-.15-.4-.15-.56,0Z"/>
          <path class="cls-6" d="M140.73,281.32c-.15.15-.15.4,0,.56.15.15.4.15.56,0,.15-.15.15-.4,0-.56-.15-.15-.4-.15-.56,0Z"/>
          <path class="cls-6" d="M142.32,282.92c-.15.15-.15.4,0,.56.15.15.4.15.56,0,.15-.15.15-.4,0-.56-.15-.15-.4-.15-.56,0Z"/>
          <path class="cls-6" d="M143.92,284.51c-.15.15-.15.4,0,.56s.4.15.56,0c.15-.15.15-.4,0-.56-.15-.15-.4-.15-.56,0Z"/>
          <path class="cls-6" d="M145.51,286.1c-.15.15-.15.4,0,.56.15.15.4.15.56,0,.15-.15.15-.4,0-.56s-.4-.15-.56,0Z"/>
          <path class="cls-6" d="M147.1,287.69c-.15.15-.15.4,0,.56.15.15.4.15.56,0,.15-.15.15-.4,0-.56-.15-.15-.4-.15-.56,0Z"/>
          <path class="cls-6" d="M148.7,289.29c-.15.15-.15.4,0,.56.15.15.4.15.56,0,.15-.15.15-.4,0-.56-.15-.15-.4-.15-.56,0Z"/>
          <path class="cls-6" d="M150.29,290.88c-.15.15-.15.4,0,.56.15.15.4.15.56,0,.15-.15.15-.4,0-.56-.15-.15-.4-.15-.56,0Z"/>
          <path class="cls-6" d="M151.88,292.47c-.15.15-.15.4,0,.56.15.15.4.15.56,0,.15-.15.15-.4,0-.56-.15-.15-.4-.15-.56,0Z"/>
          <path class="cls-6" d="M153.41,294.53c.06-.17.11-.35.17-.54-.04.02-.08.04-.11.07-.13.13-.15.32-.07.47Z"/>
          <path class="cls-6" d="M133.43,276.9c.01-.06,0-.13,0-.19,0,.06,0,.13,0,.19Z"/>
          <path class="cls-6" d="M134.36,278.14c-.15.15-.15.4,0,.56s.4.15.56,0c.15-.15.15-.4,0-.56-.15-.15-.4-.15-.56,0Z"/>
          <path class="cls-6" d="M135.95,279.73c-.15.15-.15.4,0,.56.15.15.4.15.56,0,.15-.15.15-.4,0-.56-.15-.15-.4-.15-.56,0Z"/>
          <path class="cls-6" d="M137.55,281.32c-.15.15-.15.4,0,.56.15.15.4.15.56,0,.15-.15.15-.4,0-.56s-.4-.15-.56,0Z"/>
          <path class="cls-6" d="M139.14,282.92c-.15.15-.15.4,0,.56.15.15.4.15.56,0s.15-.4,0-.56c-.15-.15-.4-.15-.56,0Z"/>
          <path class="cls-6" d="M140.73,284.51c-.15.15-.15.4,0,.56.15.15.4.15.56,0s.15-.4,0-.56c-.15-.15-.4-.15-.56,0Z"/>
          <path class="cls-6" d="M142.32,286.1c-.15.15-.15.4,0,.56.15.15.4.15.56,0,.15-.15.15-.4,0-.56-.15-.15-.4-.15-.56,0Z"/>
          <path class="cls-6" d="M143.92,287.69c-.15.15-.15.4,0,.56.15.15.4.15.56,0,.15-.15.15-.4,0-.56-.15-.15-.4-.15-.56,0Z"/>
          <path class="cls-6" d="M145.51,289.29c-.15.15-.15.4,0,.56.15.15.4.15.56,0,.15-.15.15-.4,0-.56-.15-.15-.4-.15-.56,0Z"/>
          <path class="cls-6" d="M147.1,290.88c-.15.15-.15.4,0,.56.15.15.4.15.56,0,.15-.15.15-.4,0-.56-.15-.15-.4-.15-.56,0Z"/>
          <path class="cls-6" d="M148.7,292.47c-.15.15-.15.4,0,.56.15.15.4.15.56,0,.15-.15.15-.4,0-.56-.15-.15-.4-.15-.56,0Z"/>
          <path class="cls-6" d="M150.29,294.07c-.15.15-.15.4,0,.56.15.15.4.15.56,0,.15-.15.15-.4,0-.56-.15-.15-.4-.15-.56,0Z"/>
          <path class="cls-6" d="M151.88,295.66c-.15.15-.15.4,0,.56.15.15.4.15.56,0,.15-.15.15-.4,0-.56-.15-.15-.4-.15-.56,0Z"/>
          <path class="cls-6" d="M134.36,281.32c-.15.15-.15.4,0,.56.15.15.4.15.56,0,.15-.15.15-.4,0-.56-.15-.15-.4-.15-.56,0Z"/>
          <path class="cls-6" d="M135.95,282.92c-.15.15-.15.4,0,.56.15.15.4.15.56,0,.15-.15.15-.4,0-.56s-.4-.15-.56,0Z"/>
          <path class="cls-6" d="M137.55,284.51c-.15.15-.15.4,0,.56s.4.15.56,0c.15-.15.15-.4,0-.56-.15-.15-.4-.15-.56,0Z"/>
          <path class="cls-6" d="M139.14,286.1c-.15.15-.15.4,0,.56.15.15.4.15.56,0,.15-.15.15-.4,0-.56s-.4-.15-.56,0Z"/>
          <path class="cls-6" d="M140.73,287.69c-.15.15-.15.4,0,.56.15.15.4.15.56,0,.15-.15.15-.4,0-.56s-.4-.15-.56,0Z"/>
          <path class="cls-6" d="M142.32,289.29c-.15.15-.15.4,0,.56.15.15.4.15.56,0,.15-.15.15-.4,0-.56-.15-.15-.4-.15-.56,0Z"/>
          <path class="cls-6" d="M143.92,290.88c-.15.15-.15.4,0,.56s.4.15.56,0c.15-.15.15-.4,0-.56-.15-.15-.4-.15-.56,0Z"/>
          <path class="cls-6" d="M145.51,292.47c-.15.15-.15.4,0,.56.15.15.4.15.56,0,.15-.15.15-.4,0-.56-.15-.15-.4-.15-.56,0Z"/>
          <path class="cls-6" d="M147.1,294.07c-.15.15-.15.4,0,.56.15.15.4.15.56,0,.15-.15.15-.4,0-.56-.15-.15-.4-.15-.56,0Z"/>
          <path class="cls-6" d="M148.7,295.66c-.15.15-.15.4,0,.56.15.15.4.15.56,0,.15-.15.15-.4,0-.56-.15-.15-.4-.15-.56,0Z"/>
          <path class="cls-6" d="M150.29,297.25c-.15.15-.15.4,0,.56.15.15.4.15.56,0,.15-.15.15-.4,0-.56-.15-.15-.4-.15-.56,0Z"/>
          <path class="cls-6" d="M134.36,284.51c-.15.15-.15.4,0,.56.15.15.4.15.56,0,.15-.15.15-.4,0-.56-.15-.15-.4-.15-.56,0Z"/>
          <path class="cls-6" d="M135.95,286.1c-.15.15-.15.4,0,.56.15.15.4.15.56,0,.15-.15.15-.4,0-.56-.15-.15-.4-.15-.56,0Z"/>
          <path class="cls-6" d="M137.55,287.69c-.15.15-.15.4,0,.56.15.15.4.15.56,0,.15-.15.15-.4,0-.56-.15-.15-.4-.15-.56,0Z"/>
          <path class="cls-6" d="M139.14,289.29c-.15.15-.15.4,0,.56.15.15.4.15.56,0,.15-.15.15-.4,0-.56-.15-.15-.4-.15-.56,0Z"/>
          <path class="cls-6" d="M140.73,290.88c-.15.15-.15.4,0,.56.15.15.4.15.56,0s.15-.4,0-.56c-.15-.15-.4-.15-.56,0Z"/>
          <path class="cls-6" d="M142.32,292.47c-.15.15-.15.4,0,.56.15.15.4.15.56,0,.15-.15.15-.4,0-.56-.15-.15-.4-.15-.56,0Z"/>
          <path class="cls-6" d="M143.92,294.07c-.15.15-.15.4,0,.56.15.15.4.15.56,0,.15-.15.15-.4,0-.56-.15-.15-.4-.15-.56,0Z"/>
          <path class="cls-6" d="M145.51,295.66c-.15.15-.15.4,0,.56.15.15.4.15.56,0,.15-.15.15-.4,0-.56-.15-.15-.4-.15-.56,0Z"/>
          <path class="cls-6" d="M147.1,297.25c-.15.15-.15.4,0,.56.15.15.4.15.56,0,.15-.15.15-.4,0-.56s-.4-.15-.56,0Z"/>
          <path class="cls-6" d="M148.7,298.84c-.15.15-.15.4,0,.56.15.15.4.15.56,0,.15-.15.15-.4,0-.56-.15-.15-.4-.15-.56,0Z"/>
          <path class="cls-6" d="M134.36,287.69c-.15.15-.15.4,0,.56.15.15.4.15.56,0,.15-.15.15-.4,0-.56-.15-.15-.4-.15-.56,0Z"/>
          <path class="cls-6" d="M135.95,289.29c-.15.15-.15.4,0,.56.15.15.4.15.56,0,.15-.15.15-.4,0-.56-.15-.15-.4-.15-.56,0Z"/>
          <path class="cls-6" d="M137.55,290.88c-.15.15-.15.4,0,.56s.4.15.56,0c.15-.15.15-.4,0-.56-.15-.15-.4-.15-.56,0Z"/>
          <path class="cls-6" d="M139.14,292.47c-.15.15-.15.4,0,.56.15.15.4.15.56,0,.15-.15.15-.4,0-.56-.15-.15-.4-.15-.56,0Z"/>
          <path class="cls-6" d="M140.73,294.07c-.15.15-.15.4,0,.56.15.15.4.15.56,0,.15-.15.15-.4,0-.56-.15-.15-.4-.15-.56,0Z"/>
          <path class="cls-6" d="M142.32,295.66c-.15.15-.15.4,0,.56.15.15.4.15.56,0,.15-.15.15-.4,0-.56-.15-.15-.4-.15-.56,0Z"/>
          <path class="cls-6" d="M143.92,297.25c-.15.15-.15.4,0,.56.15.15.4.15.56,0,.15-.15.15-.4,0-.56-.15-.15-.4-.15-.56,0Z"/>
          <path class="cls-6" d="M145.51,298.84c-.15.15-.15.4,0,.56.15.15.4.15.56,0,.15-.15.15-.4,0-.56-.15-.15-.4-.15-.56,0Z"/>
          <path class="cls-6" d="M147.1,300.44c-.15.15-.15.4,0,.56.15.15.4.15.56,0,.15-.15.15-.4,0-.56-.15-.15-.4-.15-.56,0Z"/>
          <path class="cls-6" d="M134.36,290.88c-.15.15-.15.4,0,.56.15.15.4.15.56,0,.15-.15.15-.4,0-.56-.15-.15-.4-.15-.56,0Z"/>
          <path class="cls-6" d="M135.95,292.47c-.15.15-.15.4,0,.56.15.15.4.15.56,0,.15-.15.15-.4,0-.56-.15-.15-.4-.15-.56,0Z"/>
          <path class="cls-6" d="M137.55,294.07c-.15.15-.15.4,0,.56.15.15.4.15.56,0,.15-.15.15-.4,0-.56-.15-.15-.4-.15-.56,0Z"/>
          <path class="cls-6" d="M139.14,295.66c-.15.15-.15.4,0,.56.15.15.4.15.56,0,.15-.15.15-.4,0-.56-.15-.15-.4-.15-.56,0Z"/>
          <path class="cls-6" d="M140.73,297.25c-.15.15-.15.4,0,.56.15.15.4.15.56,0,.15-.15.15-.4,0-.56-.15-.15-.4-.15-.56,0Z"/>
          <path class="cls-6" d="M142.32,298.84c-.15.15-.15.4,0,.56.15.15.4.15.56,0,.15-.15.15-.4,0-.56-.15-.15-.4-.15-.56,0Z"/>
          <path class="cls-6" d="M143.92,300.44c-.15.15-.15.4,0,.56.04.04.1.07.15.09.07,0,.14,0,.2.01.07-.01.14-.05.2-.11.15-.15.15-.4,0-.56-.15-.15-.4-.15-.56,0Z"/>
          <path class="cls-6" d="M134.36,294.07c-.15.15-.15.4,0,.56.15.15.4.15.56,0,.15-.15.15-.4,0-.56-.15-.15-.4-.15-.56,0Z"/>
          <path class="cls-6" d="M135.95,295.66c-.15.15-.15.4,0,.56.15.15.4.15.56,0,.15-.15.15-.4,0-.56-.15-.15-.4-.15-.56,0Z"/>
          <path class="cls-6" d="M137.55,297.25c-.15.15-.15.4,0,.56.15.15.4.15.56,0,.15-.15.15-.4,0-.56s-.4-.15-.56,0Z"/>
          <path class="cls-6" d="M139.14,298.84c-.15.15-.15.4,0,.56.15.15.4.15.56,0,.15-.15.15-.4,0-.56-.15-.15-.4-.15-.56,0Z"/>
          <path class="cls-6" d="M140.73,300.44c-.08.08-.12.19-.11.3.26.03.51.06.77.09.04-.13,0-.29-.1-.39-.15-.15-.4-.15-.56,0Z"/>
          <path class="cls-6" d="M134.36,297.25c-.15.15-.15.4,0,.56.15.15.4.15.56,0,.15-.15.15-.4,0-.56-.15-.15-.4-.15-.56,0Z"/>
          <path class="cls-6" d="M135.95,298.84c-.15.15-.15.4,0,.56.15.15.4.15.56,0,.15-.15.15-.4,0-.56-.15-.15-.4-.15-.56,0Z"/>
          <path class="cls-6" d="M137.73,300.34c.1.01.2.03.3.04-.09-.05-.2-.07-.3-.04Z"/>
        </g>
        <path class="cls-1" d="M121.17,300.86s-.05,0-.07,0l-30.12-3.31c-.35-.04-.61-.36-.57-.71s.35-.61.71-.57l29.36,3.22c-.33-4.24-2.03-24.83-4.32-33.63-.8-3.06-4.7-11.1-5.97-13.68-1.41,1.41-4.99,4.79-9.47,7.52-1.94,1.19-3.81,2.47-5.23,5.17-.17.31-.55.43-.87.27-.31-.17-.43-.55-.27-.87,1.58-2.99,3.68-4.44,5.7-5.67,5.53-3.37,9.8-7.91,9.84-7.96.14-.15.35-.23.56-.2.21.03.39.16.48.35.22.45,5.48,10.95,6.46,14.74,2.58,9.89,4.4,34.38,4.42,34.63.01.19-.06.38-.19.51-.12.12-.28.18-.45.18Z"/>
        <path class="cls-1" d="M149.02,301.46c-.28,0-.53-.18-.61-.46-.1-.34.09-.7.43-.8,1.93-.58,2.42-1.75,2.93-3,.08-.18.15-.36.23-.54.91-2.06,6.7-21.94,6.76-22.14.1-.34.45-.54.79-.44.34.1.54.45.44.79-.24.82-5.88,20.16-6.81,22.3-.07.17-.14.34-.22.51-.55,1.33-1.23,2.99-3.75,3.74-.06.02-.12.03-.18.03Z"/>
        <path class="cls-1" d="M133.79,300.32h0c-.35,0-.64-.3-.63-.65,0-.26.31-26.34-1.59-34.65-.69-3-2.61-6.64-5.72-10.84-.19-.26-.26-.35-.3-.41-.24-.41-.38-1.58-.44-2.24-.02-.24.09-.47.3-.6.21-.13.47-.13.67,0,.06.04,6.24,3.81,9.13,5.39.19.1.39.21.61.33,2.08,1.11,5.22,2.79,7.13,5.35.21.28.43.62.65.99.18.3.08.7-.22.88-.3.18-.7.08-.88-.22-.2-.33-.39-.63-.58-.87-1.74-2.33-4.73-3.92-6.7-4.98-.22-.12-.43-.23-.62-.33-2.16-1.18-6.1-3.55-8.04-4.72.04.19.07.34.1.41.03.04.12.17.22.3,3.21,4.34,5.21,8.15,5.93,11.32,1.94,8.45,1.64,33.87,1.62,34.95,0,.35-.29.63-.64.63Z"/>
      </g>
      <g>
        <path class="cls-4" d="M148.14,272.45s4.07-7.46,4.62-9.25-1.11-8.41-.99-8.99c.12-.58,1.32-6.41,1.93-7.24.61-.83,4-3.81,4-3.81,0,0,2.17-2.2,3.1-1.2.97,1.04-.51,2.2-.51,2.2l-1.63,1.37s1.95.19,2.46.38c.51.18,1.92,2.14,1.92,2.14,0,0,.59.61,1.15,1.26.37.44.79.86.76,1.27-.03.54-.28.77-.28.77,0,0,.65.54.53,1.14-.13.67-.7,1.21-1.67,1.14-.77-.05-1.55-.61-1.55-.61l-.88.79.05,2.29s1.69,3.08,1.07,5.85c-.45,2.02-2.33,5.23-2.33,5.23l-2.94,8.42s-2.07.48-4.78-.39c-2.71-.87-4.03-2.77-4.03-2.77Z"/>
        <path class="cls-1" d="M165.46,251.27c.06-.17.12-.38.13-.64.04-.62-.4-1.13-.79-1.58-.04-.05-.08-.1-.13-.15-.49-.58-1.01-1.12-1.14-1.26-.69-.96-1.63-2.13-2.19-2.33-.23-.08-.67-.17-1.13-.23l.49-.41c.14-.11.99-.83,1.07-1.79.04-.49-.13-.96-.5-1.35-.28-.3-.65-.46-1.07-.47,0,0-.02,0-.02,0-1.22,0-2.61,1.32-2.92,1.63-.43.37-3.46,3.05-4.08,3.9-.16.22-.66.91-2.01,7.38l-.02.11c-.06.29,0,.73.33,2.48.37,2.03.99,5.42.67,6.45-.42,1.36-3.17,6.57-4.57,9.13-.12.21-.1.47.04.67.06.08,1.48,2.09,4.36,3.01,1.35.43,2.56.55,3.46.55.99,0,1.61-.14,1.66-.15.21-.05.39-.21.46-.41l2.92-8.36c.26-.45,1.93-3.39,2.37-5.36.6-2.66-.72-5.49-1.06-6.16l-.04-1.85.31-.28c.36.19.88.42,1.43.46,1.38.09,2.17-.76,2.35-1.66.11-.55-.14-1.03-.37-1.35ZM163.57,253c-.48-.03-1.04-.37-1.21-.49-.24-.18-.58-.16-.8.04l-.88.79c-.14.13-.22.31-.21.49l.05,2.29c0,.1.03.2.08.29.02.03,1.57,2.9,1.01,5.4-.43,1.9-2.24,5.02-2.26,5.05-.02.04-.04.07-.05.11l-2.82,8.06c-.66.08-2.22.18-4.1-.43-1.83-.59-2.99-1.7-3.46-2.23.85-1.56,3.97-7.37,4.47-8.99.38-1.23-.06-3.93-.64-7.06-.15-.84-.33-1.78-.33-2.02l.02-.08c1.26-6.03,1.74-6.81,1.8-6.88.41-.57,2.56-2.53,3.91-3.7.01,0,.02-.02.03-.03.51-.51,1.5-1.27,2.02-1.27h0c.09,0,.12.03.15.06.15.16.16.28.16.37-.02.34-.41.75-.59.89,0,0-.01,0-.02.01l-1.63,1.37c-.2.17-.28.43-.2.68.08.25.29.42.55.45.76.08,1.96.23,2.28.33.25.16.99,1.04,1.56,1.82.02.12.03.34-.14.48-.22.18-.59-.02-.7-.08l-.51-.51c-.25-.25-.66-.25-.91,0-.25.25-.25.66,0,.91l.56.55s.05.05.08.07c.28.2.75.41,1.26.41.34,0,.69-.09,1.01-.35.14-.11.26-.24.35-.37.08.09.17.19.25.29.04.05.09.1.13.15.17.2.47.54.48.66-.01.2-.07.31-.09.35-.04.03-.07.06-.09.09-.08.06-.2.13-.32.13,0,0,0,0,0,0-.24,0-.46-.1-.56-.15l-.48-.47c-.25-.25-.66-.24-.91.01-.25.25-.24.66.01.91l.54.53s.07.06.11.08c.06.04.59.36,1.27.37,0,0,.02,0,.02,0,.29,0,.54-.08.74-.18.02.05.03.1.03.14-.09.44-.45.66-1,.63Z"/>
        <g>
          <path class="cls-1" d="M149.01,255.61c-.18,0-.36-.08-.49-.23-.23-.27-.19-.68.08-.9l.9-.75c.27-.23.68-.19.9.08.23.27.19.68-.08.9l-.9.75c-.12.1-.27.15-.41.15Z"/>
          <g>
            <polygon class="cls-4" points="163.46 241.52 149.27 253.42 150.65 255.06 164.84 243.16 166.88 240.05 163.46 241.52"/>
            <path class="cls-1" d="M150.65,255.7c-.18,0-.36-.08-.49-.23l-1.37-1.64c-.11-.13-.16-.3-.15-.47.01-.17.1-.33.23-.44l14.19-11.91s.1-.07.16-.1l3.42-1.47c.26-.11.56-.04.74.18.18.22.2.53.04.76l-2.04,3.11c-.03.05-.08.1-.12.14l-14.19,11.91c-.12.1-.27.15-.41.15ZM150.18,253.5l.55.65,13.63-11.43.82-1.24-1.37.59-13.63,11.43Z"/>
          </g>
        </g>
        <g>
          <path class="cls-4" d="M159.05,248.87c.04-1.49.05-2.4-1.08-2.61-.77-.15-1.65.65-2.06,3.08-.35,2.08-.98,3.13-.98,3.13l4.53,6.22c.04-2.64-1.14-4.68-1.14-4.68,0,0,.69-3.6.74-5.13Z"/>
          <path class="cls-1" d="M159.46,259.32s0,0,0,0c-.35,0-.64-.3-.63-.65.04-2.43-1.05-4.33-1.06-4.35-.08-.13-.1-.29-.07-.44,0-.04.68-3.57.73-5.03.05-1.69-.05-1.87-.56-1.97-.06-.01-.15-.01-.29.08-.21.14-.72.67-1.03,2.48-.37,2.18-1.04,3.3-1.06,3.35-.18.3-.58.4-.88.22-.3-.18-.4-.58-.22-.88,0,0,.57-.99.9-2.9.28-1.68.81-2.79,1.56-3.32.39-.27.82-.37,1.26-.29,1.69.32,1.65,1.82,1.6,3.26-.04,1.35-.55,4.19-.71,5.01.32.62,1.15,2.49,1.11,4.79,0,.35-.29.63-.64.63Z"/>
        </g>
      </g>
      <g>
        <g>
          <path class="cls-6" d="M115.55,304.93h27.58c.3,0,.57-.19.67-.47l13.76-37.8c.17-.46-.17-.96-.67-.96h-27.58c-.3,0-.57.19-.67.47l-13.76,37.8c-.17.46.17.96.67.96Z"/>
          <path class="cls-1" d="M143.13,305.57h-27.58c-.44,0-.86-.22-1.11-.58-.25-.36-.31-.82-.16-1.24l13.76-37.8c.19-.53.71-.89,1.27-.89h27.58c.44,0,.86.22,1.11.58.25.36.31.82.16,1.24l-13.76,37.8c-.19.53-.7.89-1.27.89ZM129.31,266.34s-.06.02-.07.05l-13.76,37.8s-.01.03,0,.07c.02.03.05.03.06.03h27.58s.06-.02.07-.05l13.76-37.8s.01-.03,0-.07c-.02-.03-.05-.03-.06-.03h-27.58Z"/>
        </g>
        <g>
          <polygon class="cls-4" points="149.97 265.7 136.86 265.7 136.34 267.13 136.34 267.13 135.37 269.78 148.48 269.78 149 268.35 149.01 268.35 149.97 265.7"/>
          <path class="cls-1" d="M148.48,270.42h-13.11c-.21,0-.41-.1-.53-.27-.12-.17-.15-.39-.08-.59l.96-2.65s.02-.05.03-.07l.49-1.35c.09-.25.33-.42.6-.42h13.11c.21,0,.41.1.53.27.12.17.15.39.08.59l-.96,2.65s-.02.05-.03.07l-.49,1.35c-.09.25-.33.42-.6.42ZM136.29,269.14h11.74l.37-1s.02-.05.03-.07l.62-1.72h-11.74l-.37,1s-.02.05-.03.07l-.62,1.72Z"/>
        </g>
      </g>
      <g>
        <g>
          <path class="cls-4" d="M147.49,289.83s-2.31.18-2.81-.61c-.3-.46,1.18-2.23,2.05-3.17,1.74-1.87,1.49-3.45.56-3.81-1.11-.43-2.22,1.07-3.42,2.22-.92.88-1.7,1.47-4.73,3.92-3.03,2.45-3.54,5.16-3.54,5.16l-9.29.35-.29,8.76s8.58-.36,12.16-.71c3.56-.34,6.53-.36,7.73-.93,1.2-.57,1.4-1.55,1.4-1.55,0,0,.68-.21,1-.67.53-.77.33-1.39.33-1.39,0,0,.55-.17,1.31-.8.76-.63-.32-2.75.43-3.76.75-1,2.64-3.13,1.31-4.46-1.42-1.42-4.2,1.43-4.2,1.43Z"/>
          <path class="cls-1" d="M152.15,287.95c-.38-.38-.88-.58-1.43-.58,0,0,0,0-.01,0-1.42,0-2.95,1.33-3.49,1.84-.84.04-1.61-.09-1.89-.24.17-.41.87-1.38,1.88-2.47,1.13-1.21,1.64-2.5,1.4-3.55-.14-.61-.53-1.08-1.08-1.29-1.29-.5-2.38.62-3.44,1.69-.22.22-.44.45-.66.66-.7.67-1.33,1.17-3.01,2.53-.47.38-1.03.83-1.69,1.36-2.42,1.96-3.33,4.09-3.63,5.04l-8.82.33c-.35.01-.63.31-.62.66.01.35.31.63.66.62l9.29-.35c.17,0,1.12-.05,1.89-.7.27-.23.3-.63.08-.9-.23-.27-.63-.3-.9-.08-.02.02-.04.03-.06.04.43-.94,1.28-2.34,2.91-3.66.66-.54,1.21-.98,1.69-1.36,1.71-1.38,2.35-1.89,3.08-2.59.24-.23.47-.46.69-.69.76-.78,1.56-1.59,2.06-1.39.18.07.26.25.29.38.11.48-.12,1.35-1.09,2.39-2.76,2.95-2.31,3.65-2.12,3.95.66,1.03,2.77.95,3.4.9.15-.01.3-.08.41-.19.62-.63,1.91-1.63,2.76-1.63h0c.22,0,.38.06.52.21.74.74-.19,2.09-1.13,3.3-.09.12-.17.22-.25.32-.53.71-.42,1.66-.33,2.49.04.36.11,1.03,0,1.15-.64.53-1.09.68-1.09.68-.17.05-.32.15-.39.31-.08.16-.09.32-.03.48.01.06.06.4-.25.85-.15.22-.53.38-.65.42-.22.07-.39.24-.44.47,0,.03-.18.7-1.05,1.11-.74.35-2.51.48-4.55.63-.9.06-1.91.14-2.96.24-3.52.34-12.04.7-12.12.7-.35.02-.63.31-.61.67.01.34.3.61.64.61,0,0,.02,0,.03,0,.09,0,8.63-.37,12.19-.71,1.04-.1,2.04-.17,2.93-.24,2.36-.17,4.06-.29,5.01-.75,1-.48,1.45-1.21,1.63-1.64.3-.14.74-.39,1.02-.8.35-.52.46-1,.48-1.35.27-.14.63-.37,1.05-.71.64-.53.55-1.42.45-2.28-.07-.6-.14-1.28.09-1.58.07-.09.15-.19.23-.3.91-1.19,2.62-3.39,1.02-4.99Z"/>
        </g>
        <path class="cls-4" d="M131.84,294.37c-.03-.09-.06-.18-.09-.28-.15-.47-.34-.92-.57-1.36-.32,0-.63,0-.93,0-.27,0-.53,0-.79,0-.86,0-1.65.02-2.4.02-.27,0-.53,0-.78,0-.88,0-1.68.02-2.41.02-.27,0-.53,0-.78,0-.96,0-1.76.02-2.41.02-.28,0-.54,0-.77,0-1.23,0-1.75.01-1.75.01l-.7.07-.67.06-10.67,1-.38.04-2.58.24-.78.07-2.47.23-.6.06-8.27.77c-.09,1.29.03,2.43.32,3.44.07.23.14.46.22.68.82,2.13,2.46,3.59,4.48,4.59.13.07.27.13.4.19,1.34.61,2.82,1.02,4.33,1.3.24.04.47.09.71.12,4.56.72,9.19.31,10.63.26.82-.03,2.61-.08,4.79-.13.13,0,.26,0,.39,0,.86-.02,1.77-.04,2.7-.06.19,0,.39,0,.58-.01.85-.02,1.71-.04,2.55-.06.23,0,.46-.01.68-.02.86-.02,1.69-.04,2.47-.05.26,0,.5-.01.75-.02.94-.02,1.77-.04,2.42-.05.3,0,.56-.01.78-.02.5-.01.78-.02.78-.02,0,0,.18-.46.4-1.23.06-.22.13-.47.2-.74.57-2.21,1.2-5.9.21-9.18Z"/>
        <g>
          <path class="cls-6" d="M130.14,293.03c.08-.08.12-.18.11-.29-.27,0-.53,0-.79,0,0,.1.04.2.12.28.15.15.4.15.56,0Z"/>
          <path class="cls-6" d="M131.73,294.62c.07-.07.11-.16.11-.25-.03-.09-.06-.18-.09-.28,0-.01-.02-.02-.03-.03-.15-.15-.4-.15-.56,0-.15.15-.15.4,0,.56.15.15.4.15.56,0Z"/>
          <path class="cls-6" d="M126.95,293.03c.07-.07.11-.16.11-.25-.27,0-.53,0-.78,0,0,.09.04.18.11.25.15.15.4.15.56,0Z"/>
          <path class="cls-6" d="M127.99,294.07c-.15.15-.15.4,0,.56.15.15.4.15.56,0,.15-.15.15-.4,0-.56-.15-.15-.4-.15-.56,0Z"/>
          <path class="cls-6" d="M129.58,295.66c-.15.15-.15.4,0,.56.15.15.4.15.56,0,.15-.15.15-.4,0-.56-.15-.15-.4-.15-.56,0Z"/>
          <path class="cls-6" d="M131.73,297.81c.15-.15.15-.4,0-.56s-.4-.15-.56,0c-.15.15-.15.4,0,.56.15.15.4.15.56,0Z"/>
          <path class="cls-6" d="M123.77,293.03c.06-.06.1-.14.11-.22-.27,0-.53,0-.78,0,.01.08.05.15.11.22.15.15.4.15.56,0Z"/>
          <path class="cls-6" d="M124.8,294.07c-.15.15-.15.4,0,.56.15.15.4.15.56,0,.15-.15.15-.4,0-.56-.15-.15-.4-.15-.56,0Z"/>
          <path class="cls-6" d="M126.4,295.66c-.15.15-.15.4,0,.56.15.15.4.15.56,0,.15-.15.15-.4,0-.56-.15-.15-.4-.15-.56,0Z"/>
          <path class="cls-6" d="M127.99,297.25c-.15.15-.15.4,0,.56.15.15.4.15.56,0,.15-.15.15-.4,0-.56-.15-.15-.4-.15-.56,0Z"/>
          <path class="cls-6" d="M129.58,298.84c-.15.15-.15.4,0,.56.15.15.4.15.56,0,.15-.15.15-.4,0-.56-.15-.15-.4-.15-.56,0Z"/>
          <path class="cls-6" d="M131.17,300.44c-.15.15-.15.4,0,.56.15.15.4.15.56,0,.15-.15.15-.4,0-.56-.15-.15-.4-.15-.56,0Z"/>
          <path class="cls-6" d="M120.58,293.03c.06-.06.09-.12.11-.19-.28,0-.54,0-.77,0,.02.07.05.13.1.19.15.15.4.15.56,0Z"/>
          <path class="cls-6" d="M121.62,294.07c-.15.15-.15.4,0,.56.15.15.4.15.56,0,.15-.15.15-.4,0-.56-.15-.15-.4-.15-.56,0Z"/>
          <path class="cls-6" d="M123.21,295.66c-.15.15-.15.4,0,.56.15.15.4.15.56,0,.15-.15.15-.4,0-.56-.15-.15-.4-.15-.56,0Z"/>
          <path class="cls-6" d="M124.8,297.25c-.15.15-.15.4,0,.56.15.15.4.15.56,0,.15-.15.15-.4,0-.56-.15-.15-.4-.15-.56,0Z"/>
          <path class="cls-6" d="M126.4,298.84c-.15.15-.15.4,0,.56.15.15.4.15.56,0,.15-.15.15-.4,0-.56-.15-.15-.4-.15-.56,0Z"/>
          <path class="cls-6" d="M127.99,300.44c-.15.15-.15.4,0,.56.15.15.4.15.56,0,.15-.15.15-.4,0-.56-.15-.15-.4-.15-.56,0Z"/>
          <path class="cls-6" d="M129.58,302.03c-.15.15-.15.4,0,.56.15.15.4.15.56,0,.15-.15.15-.4,0-.56s-.4-.15-.56,0Z"/>
          <path class="cls-6" d="M131.17,303.62c-.15.15-.15.4,0,.56.07.07.16.11.26.11.06-.22.13-.47.2-.74-.15-.08-.33-.05-.46.07Z"/>
          <path class="cls-6" d="M117.4,293.03s.06-.07.08-.11l-.67.06s.02.03.04.05c.15.15.4.15.56,0Z"/>
          <path class="cls-6" d="M118.43,294.07c-.15.15-.15.4,0,.56.15.15.4.15.56,0,.15-.15.15-.4,0-.56-.15-.15-.4-.15-.56,0Z"/>
          <path class="cls-6" d="M120.02,295.66c-.15.15-.15.4,0,.56.15.15.4.15.56,0,.15-.15.15-.4,0-.56-.15-.15-.4-.15-.56,0Z"/>
          <path class="cls-6" d="M121.62,297.25c-.15.15-.15.4,0,.56.15.15.4.15.56,0,.15-.15.15-.4,0-.56s-.4-.15-.56,0Z"/>
          <path class="cls-6" d="M123.21,298.84c-.15.15-.15.4,0,.56.15.15.4.15.56,0,.15-.15.15-.4,0-.56-.15-.15-.4-.15-.56,0Z"/>
          <path class="cls-6" d="M124.8,300.44c-.15.15-.15.4,0,.56.15.15.4.15.56,0,.15-.15.15-.4,0-.56-.15-.15-.4-.15-.56,0Z"/>
          <path class="cls-6" d="M126.4,302.03c-.15.15-.15.4,0,.56s.4.15.56,0c.15-.15.15-.4,0-.56-.15-.15-.4-.15-.56,0Z"/>
          <path class="cls-6" d="M127.99,303.62c-.15.15-.15.4,0,.56.15.15.4.15.56,0,.15-.15.15-.4,0-.56-.15-.15-.4-.15-.56,0Z"/>
          <path class="cls-6" d="M129.58,305.22c-.09.09-.13.22-.11.34.3,0,.56-.01.78-.02.01-.12-.02-.23-.11-.32-.15-.15-.4-.15-.56,0Z"/>
          <path class="cls-6" d="M115.25,294.07c-.15.15-.15.4,0,.56.15.15.4.15.56,0,.15-.15.15-.4,0-.56-.15-.15-.4-.15-.56,0Z"/>
          <path class="cls-6" d="M116.84,295.66c-.15.15-.15.4,0,.56.15.15.4.15.56,0,.15-.15.15-.4,0-.56-.15-.15-.4-.15-.56,0Z"/>
          <path class="cls-6" d="M118.43,297.25c-.15.15-.15.4,0,.56.15.15.4.15.56,0,.15-.15.15-.4,0-.56-.15-.15-.4-.15-.56,0Z"/>
          <path class="cls-6" d="M120.02,298.84c-.15.15-.15.4,0,.56.15.15.4.15.56,0,.15-.15.15-.4,0-.56-.15-.15-.4-.15-.56,0Z"/>
          <path class="cls-6" d="M121.62,300.44c-.15.15-.15.4,0,.56.15.15.4.15.56,0,.15-.15.15-.4,0-.56-.15-.15-.4-.15-.56,0Z"/>
          <path class="cls-6" d="M123.21,302.03c-.15.15-.15.4,0,.56.15.15.4.15.56,0,.15-.15.15-.4,0-.56s-.4-.15-.56,0Z"/>
          <path class="cls-6" d="M124.8,303.62c-.15.15-.15.4,0,.56.15.15.4.15.56,0,.15-.15.15-.4,0-.56-.15-.15-.4-.15-.56,0Z"/>
          <path class="cls-6" d="M126.4,305.22c-.11.11-.14.27-.09.41.26,0,.5-.01.75-.02.04-.13,0-.29-.1-.39-.15-.15-.4-.15-.56,0Z"/>
          <path class="cls-6" d="M112.06,294.07c-.15.15-.15.4,0,.56.15.15.4.15.56,0,.15-.15.15-.4,0-.56-.15-.15-.4-.15-.56,0Z"/>
          <path class="cls-6" d="M113.65,295.66c-.15.15-.15.4,0,.56.15.15.4.15.56,0,.15-.15.15-.4,0-.56-.15-.15-.4-.15-.56,0Z"/>
          <path class="cls-6" d="M115.25,297.25c-.15.15-.15.4,0,.56.15.15.4.15.56,0,.15-.15.15-.4,0-.56s-.4-.15-.56,0Z"/>
          <path class="cls-6" d="M116.84,298.84c-.15.15-.15.4,0,.56.15.15.4.15.56,0,.15-.15.15-.4,0-.56-.15-.15-.4-.15-.56,0Z"/>
          <path class="cls-6" d="M118.43,300.44c-.15.15-.15.4,0,.56.15.15.4.15.56,0,.15-.15.15-.4,0-.56-.15-.15-.4-.15-.56,0Z"/>
          <path class="cls-6" d="M120.02,302.03c-.15.15-.15.4,0,.56.15.15.4.15.56,0s.15-.4,0-.56c-.15-.15-.4-.15-.56,0Z"/>
          <path class="cls-6" d="M121.62,303.62c-.15.15-.15.4,0,.56.15.15.4.15.56,0,.15-.15.15-.4,0-.56-.15-.15-.4-.15-.56,0Z"/>
          <path class="cls-6" d="M123.21,305.22c-.13.13-.15.33-.06.48.23,0,.46-.01.68-.02.08-.15.06-.34-.07-.46-.15-.15-.4-.15-.56,0Z"/>
          <path class="cls-6" d="M108.87,294.07c-.15.15-.15.4,0,.56.15.15.4.15.56,0,.15-.15.15-.4,0-.56-.15-.15-.4-.15-.56,0Z"/>
          <path class="cls-6" d="M110.47,295.66c-.15.15-.15.4,0,.56.15.15.4.15.56,0,.15-.15.15-.4,0-.56-.15-.15-.4-.15-.56,0Z"/>
          <path class="cls-6" d="M112.06,297.25c-.15.15-.15.4,0,.56.15.15.4.15.56,0,.15-.15.15-.4,0-.56-.15-.15-.4-.15-.56,0Z"/>
          <path class="cls-6" d="M113.65,298.84c-.15.15-.15.4,0,.56.15.15.4.15.56,0,.15-.15.15-.4,0-.56-.15-.15-.4-.15-.56,0Z"/>
          <path class="cls-6" d="M115.25,300.44c-.15.15-.15.4,0,.56.15.15.4.15.56,0,.15-.15.15-.4,0-.56-.15-.15-.4-.15-.56,0Z"/>
          <path class="cls-6" d="M116.84,302.03c-.15.15-.15.4,0,.56s.4.15.56,0c.15-.15.15-.4,0-.56-.15-.15-.4-.15-.56,0Z"/>
          <path class="cls-6" d="M118.43,303.62c-.15.15-.15.4,0,.56.15.15.4.15.56,0,.15-.15.15-.4,0-.56-.15-.15-.4-.15-.56,0Z"/>
          <path class="cls-6" d="M120.02,305.22c-.15.15-.15.4,0,.55.19,0,.39,0,.58-.01.14-.15.13-.39-.02-.54-.15-.15-.4-.15-.56,0Z"/>
          <path class="cls-6" d="M106.13,293.99l-.38.04s-.04.03-.06.05c-.15.15-.15.4,0,.56.15.15.4.15.56,0,.15-.15.15-.4,0-.56-.04-.04-.08-.06-.12-.08Z"/>
          <path class="cls-6" d="M107.28,295.66c-.15.15-.15.4,0,.56.15.15.4.15.56,0,.15-.15.15-.4,0-.56-.15-.15-.4-.15-.56,0Z"/>
          <path class="cls-6" d="M108.87,297.25c-.15.15-.15.4,0,.56.15.15.4.15.56,0,.15-.15.15-.4,0-.56-.15-.15-.4-.15-.56,0Z"/>
          <path class="cls-6" d="M110.47,298.84c-.15.15-.15.4,0,.56.15.15.4.15.56,0,.15-.15.15-.4,0-.56-.15-.15-.4-.15-.56,0Z"/>
          <path class="cls-6" d="M112.06,300.44c-.15.15-.15.4,0,.56.15.15.4.15.56,0,.15-.15.15-.4,0-.56-.15-.15-.4-.15-.56,0Z"/>
          <path class="cls-6" d="M113.65,302.03c-.15.15-.15.4,0,.56.15.15.4.15.56,0,.15-.15.15-.4,0-.56s-.4-.15-.56,0Z"/>
          <path class="cls-6" d="M115.25,303.62c-.15.15-.15.4,0,.56.15.15.4.15.56,0,.15-.15.15-.4,0-.56-.15-.15-.4-.15-.56,0Z"/>
          <path class="cls-6" d="M116.84,305.22c-.15.15-.15.4,0,.56.03.03.06.05.09.07.13,0,.26,0,.39,0,.03-.02.05-.03.07-.06.15-.15.15-.4,0-.56-.15-.15-.4-.15-.56,0Z"/>
          <path class="cls-6" d="M103.06,294.62c.1-.1.13-.23.11-.36l-.78.07c0,.1.04.21.11.29.15.15.4.15.56,0Z"/>
          <path class="cls-6" d="M104.1,295.66c-.15.15-.15.4,0,.56.15.15.4.15.56,0,.15-.15.15-.4,0-.56-.15-.15-.4-.15-.56,0Z"/>
          <path class="cls-6" d="M105.69,297.25c-.15.15-.15.4,0,.56.15.15.4.15.56,0,.15-.15.15-.4,0-.56s-.4-.15-.56,0Z"/>
          <path class="cls-6" d="M107.28,298.84c-.15.15-.15.4,0,.56.15.15.4.15.56,0,.15-.15.15-.4,0-.56-.15-.15-.4-.15-.56,0Z"/>
          <path class="cls-6" d="M108.87,300.44c-.15.15-.15.4,0,.56.15.15.4.15.56,0,.15-.15.15-.4,0-.56-.15-.15-.4-.15-.56,0Z"/>
          <path class="cls-6" d="M110.47,302.03c-.15.15-.15.4,0,.56.15.15.4.15.56,0,.15-.15.15-.4,0-.56-.15-.15-.4-.15-.56,0Z"/>
          <path class="cls-6" d="M112.06,303.62c-.15.15-.15.4,0,.56.15.15.4.15.56,0,.15-.15.15-.4,0-.56-.15-.15-.4-.15-.56,0Z"/>
          <path class="cls-6" d="M113.65,305.22c-.15.15-.15.4,0,.56.15.15.4.15.56,0,.15-.15.15-.4,0-.56-.15-.15-.4-.15-.56,0Z"/>
          <path class="cls-6" d="M99.87,294.62s.03-.04.05-.06l-.6.06s0,0,0,0c.15.15.4.15.56,0Z"/>
          <path class="cls-6" d="M100.91,295.66c-.15.15-.15.4,0,.56.15.15.4.15.56,0,.15-.15.15-.4,0-.56-.15-.15-.4-.15-.56,0Z"/>
          <path class="cls-6" d="M102.5,297.25c-.15.15-.15.4,0,.56.15.15.4.15.56,0,.15-.15.15-.4,0-.56-.15-.15-.4-.15-.56,0Z"/>
          <path class="cls-6" d="M104.1,298.84c-.15.15-.15.4,0,.56.15.15.4.15.56,0,.15-.15.15-.4,0-.56-.15-.15-.4-.15-.56,0Z"/>
          <path class="cls-6" d="M105.69,300.44c-.15.15-.15.4,0,.56.15.15.4.15.56,0,.15-.15.15-.4,0-.56-.15-.15-.4-.15-.56,0Z"/>
          <path class="cls-6" d="M107.28,302.03c-.15.15-.15.4,0,.56.15.15.4.15.56,0,.15-.15.15-.4,0-.56s-.4-.15-.56,0Z"/>
          <path class="cls-6" d="M108.87,303.62c-.15.15-.15.4,0,.56.15.15.4.15.56,0,.15-.15.15-.4,0-.56-.15-.15-.4-.15-.56,0Z"/>
          <path class="cls-6" d="M110.47,305.22c-.15.15-.15.4,0,.56s.4.15.56,0c.15-.15.15-.4,0-.56-.15-.15-.4-.15-.56,0Z"/>
          <path class="cls-6" d="M97.72,295.66c-.15.15-.15.4,0,.56.15.15.4.15.56,0,.15-.15.15-.4,0-.56-.15-.15-.4-.15-.56,0Z"/>
          <path class="cls-6" d="M99.32,297.25c-.15.15-.15.4,0,.56.15.15.4.15.56,0,.15-.15.15-.4,0-.56-.15-.15-.4-.15-.56,0Z"/>
          <path class="cls-6" d="M100.91,298.84c-.15.15-.15.4,0,.56.15.15.4.15.56,0,.15-.15.15-.4,0-.56-.15-.15-.4-.15-.56,0Z"/>
          <path class="cls-6" d="M102.5,300.44c-.15.15-.15.4,0,.56.15.15.4.15.56,0,.15-.15.15-.4,0-.56-.15-.15-.4-.15-.56,0Z"/>
          <path class="cls-6" d="M104.1,302.03c-.15.15-.15.4,0,.56.15.15.4.15.56,0s.15-.4,0-.56c-.15-.15-.4-.15-.56,0Z"/>
          <path class="cls-6" d="M105.69,303.62c-.15.15-.15.4,0,.56.15.15.4.15.56,0,.15-.15.15-.4,0-.56-.15-.15-.4-.15-.56,0Z"/>
          <path class="cls-6" d="M107.28,305.22c-.15.15-.15.4,0,.56.15.15.4.15.56,0,.15-.15.15-.4,0-.56-.15-.15-.4-.15-.56,0Z"/>
          <path class="cls-6" d="M94.54,295.66c-.15.15-.15.4,0,.56.15.15.4.15.56,0,.15-.15.15-.4,0-.56-.15-.15-.4-.15-.56,0Z"/>
          <path class="cls-6" d="M96.13,297.25c-.15.15-.15.4,0,.56.15.15.4.15.56,0,.15-.15.15-.4,0-.56-.15-.15-.4-.15-.56,0Z"/>
          <path class="cls-6" d="M97.72,298.84c-.15.15-.15.4,0,.56.15.15.4.15.56,0,.15-.15.15-.4,0-.56-.15-.15-.4-.15-.56,0Z"/>
          <path class="cls-6" d="M99.32,300.44c-.15.15-.15.4,0,.56.15.15.4.15.56,0,.15-.15.15-.4,0-.56-.15-.15-.4-.15-.56,0Z"/>
          <path class="cls-6" d="M100.91,302.03c-.15.15-.15.4,0,.56s.4.15.56,0c.15-.15.15-.4,0-.56-.15-.15-.4-.15-.56,0Z"/>
          <path class="cls-6" d="M102.5,303.62c-.15.15-.15.4,0,.56.15.15.4.15.56,0,.15-.15.15-.4,0-.56-.15-.15-.4-.15-.56,0Z"/>
          <path class="cls-6" d="M104.1,305.22c-.15.15-.15.4,0,.56s.4.15.56,0c.15-.15.15-.4,0-.56-.15-.15-.4-.15-.56,0Z"/>
          <path class="cls-6" d="M91.35,295.66c-.15.15-.15.4,0,.56.15.15.4.15.56,0,.15-.15.15-.4,0-.56-.15-.15-.4-.15-.56,0Z"/>
          <path class="cls-6" d="M92.95,297.25c-.15.15-.15.4,0,.56.15.15.4.15.56,0,.15-.15.15-.4,0-.56-.15-.15-.4-.15-.56,0Z"/>
          <path class="cls-6" d="M94.54,298.84c-.15.15-.15.4,0,.56.15.15.4.15.56,0,.15-.15.15-.4,0-.56-.15-.15-.4-.15-.56,0Z"/>
          <path class="cls-6" d="M96.13,300.44c-.15.15-.15.4,0,.56.15.15.4.15.56,0,.15-.15.15-.4,0-.56-.15-.15-.4-.15-.56,0Z"/>
          <path class="cls-6" d="M97.72,302.03c-.15.15-.15.4,0,.56.15.15.4.15.56,0,.15-.15.15-.4,0-.56s-.4-.15-.56,0Z"/>
          <path class="cls-6" d="M99.32,303.62c-.15.15-.15.4,0,.56.15.15.4.15.56,0,.15-.15.15-.4,0-.56-.15-.15-.4-.15-.56,0Z"/>
          <path class="cls-6" d="M100.91,305.22c-.1.1-.13.25-.1.38.24.04.47.09.71.12.1-.15.09-.36-.05-.5-.15-.15-.4-.15-.56,0Z"/>
          <path class="cls-6" d="M91.36,298.83c.07.23.14.46.22.68.11.01.23-.02.32-.11.15-.15.15-.4,0-.56-.15-.15-.39-.15-.55-.01Z"/>
          <path class="cls-6" d="M92.95,300.44c-.15.15-.15.4,0,.56.15.15.4.15.56,0,.15-.15.15-.4,0-.56-.15-.15-.4-.15-.56,0Z"/>
          <path class="cls-6" d="M94.54,302.03c-.15.15-.15.4,0,.56.15.15.4.15.56,0,.15-.15.15-.4,0-.56-.15-.15-.4-.15-.56,0Z"/>
          <path class="cls-6" d="M96.13,303.62c-.13.13-.15.33-.06.48.13.07.27.13.4.19.08-.01.15-.05.21-.11.15-.15.15-.4,0-.56-.15-.15-.4-.15-.56,0Z"/>
        </g>
        <path class="cls-1" d="M110.07,306.72c-.34,0-.62-.27-.64-.61-.02-.35.26-.65.61-.67.49-.02.93-.05,1.29-.07.32-.02.58-.03.78-.04,2.67-.1,15.85-.39,18.45-.44.51-1.55,2.17-7.25.22-11.51-9.27.1-12.58.12-12.61.12h0c-.35,0-.64-.28-.64-.64,0-.35.28-.64.64-.65.03,0,3.44-.02,13.01-.12.24,0,.47.13.58.35,2.83,5.48,0,12.99-.13,13.31-.09.24-.32.41-.58.41-.16,0-15.94.34-18.87.45-.2,0-.45.02-.76.04-.37.02-.81.04-1.31.07,0,0-.02,0-.03,0Z"/>
      </g>
    </g>
  </g>
</svg>