<svg xmlns="http://www.w3.org/2000/svg" xmlns:xlink="http://www.w3.org/1999/xlink" width="251.765" height="31.767" viewBox="0 0 251.765 31.767">
  <defs>
    <clipPath id="clip-path">
      <rect id="Rectangle_120" data-name="Rectangle 120" width="251.765" height="31.767" fill="none"/>
    </clipPath>
  </defs>
  <g id="Group_113" data-name="Group 113" clip-path="url(#clip-path)">
    <path id="Path_273" data-name="Path 273" d="M16.087,27.922a1.307,1.307,0,0,0,1.353,1.407,1.336,1.336,0,0,0,1.381-1.407,5.073,5.073,0,0,0-1.027-3,.426.426,0,0,0-.681,0,5.073,5.073,0,0,0-1.027,3" transform="translate(-1.737 -2.673)" fill="#0022e4"/>
    <path id="Path_274" data-name="Path 274" d="M10.426,17.527a10.236,10.236,0,0,1,4.9,1.251.8.8,0,0,0,.782,0,10.233,10.233,0,0,1,4.9-1.251,8.6,8.6,0,0,1,8.216,6.091.275.275,0,0,0,.5.055,15.884,15.884,0,1,0-27.9-.392.275.275,0,0,0,.5-.035,8.6,8.6,0,0,1,8.092-5.72m6.159-7.634A5.494,5.494,0,0,1,26.142,6.86,1.045,1.045,0,0,1,25.366,8.6h-.071a1.019,1.019,0,0,1-.751-.339A3.369,3.369,0,1,0,22.05,13.9c.1,0,.206-.006.308-.015l.089-.01c.077-.01.153-.021.229-.036l.078-.014c.1-.021.2-.045.293-.076l.018-.006c.093-.029.183-.062.272-.1l.049-.021c.092-.039.181-.082.269-.129a3.294,3.294,0,0,0,1.287-1.251.253.253,0,0,0-.218-.383H23.115a1.066,1.066,0,0,1-1.047-1.264,1.157,1.157,0,0,1,1.1-.866h3.591a.792.792,0,0,1,.793.792v.008a5.506,5.506,0,0,1-.247,1.632l0,.005c-.014.045-.034.089-.049.134a5.513,5.513,0,0,1-.64,1.3l-.007.011a5.55,5.55,0,0,1-1.473,1.474l-.025.017c-.13.087-.265.169-.4.245l-.06.033c-.145.078-.293.15-.444.214l-.014.007q-.234.1-.478.175l-.105.03c-.123.036-.247.068-.373.1l-.145.029c-.112.021-.222.041-.335.053-.064.007-.128.017-.192.023-.168.015-.337.026-.509.026a5.507,5.507,0,0,1-5.465-6.134M10.256,5.025a5.476,5.476,0,0,1,4.157,1.91A1.018,1.018,0,0,1,13.625,8.6h-.116a1.036,1.036,0,0,1-.764-.346,3.372,3.372,0,1,0-.227,4.763,1.1,1.1,0,0,1,.774-.288,1.066,1.066,0,0,1,.672,1.853,5.5,5.5,0,1,1-3.706-9.56" transform="translate(0 0)" fill="#0022e4"/>
    <path id="Path_275" data-name="Path 275" d="M21.646,22.386a7.883,7.883,0,0,0-3.047.535.31.31,0,0,0-.137.475,7.344,7.344,0,0,1,1.582,4.572,3.756,3.756,0,0,1-3.821,3.847,3.7,3.7,0,0,1-3.794-3.847A7.344,7.344,0,0,1,14.009,23.4a.31.31,0,0,0-.138-.475,7.9,7.9,0,0,0-3.047-.535A6.134,6.134,0,0,0,4.8,28.532a1.511,1.511,0,0,0,.453,1.074,15.875,15.875,0,0,0,21.7.568,2.192,2.192,0,0,0,.723-1.642,6.134,6.134,0,0,0-6.027-6.146" transform="translate(-0.518 -2.417)" fill="#0022e4"/>
    <path id="Path_276" data-name="Path 276" d="M45.122,16.689v-.055a9.764,9.764,0,0,1,9.951-9.978,10.058,10.058,0,0,1,7.552,3l-2.177,2.508a7.675,7.675,0,0,0-5.4-2.4c-3.694,0-6.367,3.032-6.367,6.809v.054c0,3.777,2.673,6.864,6.367,6.864a7.565,7.565,0,0,0,5.54-2.508L62.763,23.2a9.958,9.958,0,0,1-7.828,3.417,9.7,9.7,0,0,1-9.812-9.923" transform="translate(-4.872 -0.719)" fill="#261f1c"/>
    <path id="Path_277" data-name="Path 277" d="M45.122,16.689v-.055a9.764,9.764,0,0,1,9.951-9.978,10.058,10.058,0,0,1,7.552,3l-2.177,2.508a7.675,7.675,0,0,0-5.4-2.4c-3.694,0-6.367,3.032-6.367,6.809v.054c0,3.777,2.673,6.864,6.367,6.864a7.565,7.565,0,0,0,5.54-2.508L62.763,23.2a9.958,9.958,0,0,1-7.828,3.417A9.7,9.7,0,0,1,45.122,16.689Z" transform="translate(-4.872 -0.719)" fill="none" stroke="#261f1c" stroke-linecap="round" stroke-linejoin="round" stroke-width="0.365"/>
    <path id="Path_278" data-name="Path 278" d="M76.138,6.872H79.28L87.769,26.3H84.186L82.23,21.647H73.105L71.122,26.3H67.648Zm4.851,11.77-3.335-7.718-3.308,7.718Z" transform="translate(-7.304 -0.742)" fill="#261f1c"/>
    <path id="Path_279" data-name="Path 279" d="M76.138,6.872H79.28L87.769,26.3H84.186L82.23,21.647H73.105L71.122,26.3H67.648Zm4.851,11.77-3.335-7.718-3.308,7.718Z" transform="translate(-7.304 -0.742)" fill="none" stroke="#261f1c" stroke-linecap="round" stroke-linejoin="round" stroke-width="0.365"/>
    <path id="Path_280" data-name="Path 280" d="M94.533,7.027h3.611l5.871,9.124,5.87-9.124H113.5V26.321h-3.391V12.485l-6.092,9.1H103.9l-6.036-9.041V26.321H94.533Z" transform="translate(-10.207 -0.759)" fill="#261f1c"/>
    <path id="Path_281" data-name="Path 281" d="M94.533,7.027h3.611l5.871,9.124,5.87-9.124H113.5V26.321h-3.391V12.485l-6.092,9.1H103.9l-6.036-9.041V26.321H94.533Z" transform="translate(-10.207 -0.759)" fill="none" stroke="#261f1c" stroke-linecap="round" stroke-linejoin="round" stroke-width="0.365"/>
    <path id="Path_282" data-name="Path 282" d="M127.782,10.169h-6.118V7.026H137.32v3.143H131.2V26.322h-3.418Z" transform="translate(-13.137 -0.759)" fill="#261f1c"/>
    <path id="Path_283" data-name="Path 283" d="M127.782,10.169h-6.118V7.026H137.32v3.143H131.2V26.322h-3.418Z" transform="translate(-13.137 -0.759)" fill="none" stroke="#261f1c" stroke-linecap="round" stroke-linejoin="round" stroke-width="0.365"/>
    <path id="Path_284" data-name="Path 284" d="M143.851,7.027h14.305v3.032H147.24v5.017h9.675v3.032H147.24v5.182h11.053v3.032H143.851Z" transform="translate(-15.533 -0.759)" fill="#261f1c"/>
    <path id="Path_285" data-name="Path 285" d="M143.851,7.027h14.305v3.032H147.24v5.017h9.675v3.032H147.24v5.182h11.053v3.032H143.851Z" transform="translate(-15.533 -0.759)" fill="none" stroke="#261f1c" stroke-linecap="round" stroke-linejoin="round" stroke-width="0.365"/>
    <path id="Path_286" data-name="Path 286" d="M164.215,16.689v-.055a9.764,9.764,0,0,1,9.95-9.978,10.058,10.058,0,0,1,7.553,3l-2.177,2.508a7.677,7.677,0,0,0-5.4-2.4c-3.694,0-6.367,3.032-6.367,6.809v.054c0,3.777,2.673,6.864,6.367,6.864a7.565,7.565,0,0,0,5.54-2.508l2.177,2.205a9.958,9.958,0,0,1-7.828,3.417,9.7,9.7,0,0,1-9.812-9.923" transform="translate(-17.731 -0.719)" fill="#261f1c"/>
    <path id="Path_287" data-name="Path 287" d="M164.215,16.689v-.055a9.764,9.764,0,0,1,9.95-9.978,10.058,10.058,0,0,1,7.553,3l-2.177,2.508a7.677,7.677,0,0,0-5.4-2.4c-3.694,0-6.367,3.032-6.367,6.809v.054c0,3.777,2.673,6.864,6.367,6.864a7.565,7.565,0,0,0,5.54-2.508l2.177,2.205a9.958,9.958,0,0,1-7.828,3.417A9.7,9.7,0,0,1,164.215,16.689Z" transform="translate(-17.731 -0.719)" fill="none" stroke="#261f1c" stroke-linecap="round" stroke-linejoin="round" stroke-width="0.365"/>
    <path id="Path_288" data-name="Path 288" d="M188.6,7.027h3.39v8.021h9.207V7.027h3.39V26.321h-3.39V18.19h-9.207v8.131H188.6Z" transform="translate(-20.364 -0.759)" fill="#261f1c"/>
    <path id="Path_289" data-name="Path 289" d="M188.6,7.027h3.39v8.021h9.207V7.027h3.39V26.321h-3.39V18.19h-9.207v8.131H188.6Z" transform="translate(-20.364 -0.759)" fill="none" stroke="#261f1c" stroke-linecap="round" stroke-linejoin="round" stroke-width="0.365"/>
    <path id="Path_290" data-name="Path 290" d="M228.577,26.44h-7.369a6.3,6.3,0,0,1-6.3-6.3V12.883a6.3,6.3,0,0,1,6.3-6.3h10.266a.2.2,0,0,1,.2.2l-.677,2.193a.2.2,0,0,1-.2.2h-9.588a3.71,3.71,0,0,0-3.71,3.709v7.257a3.71,3.71,0,0,0,3.71,3.71h7.369a.862.862,0,0,0,.862-.863V18.268a.46.46,0,0,0-.46-.46h-5.585a.2.2,0,0,1-.2-.2V15.416a.2.2,0,0,1,.2-.2h5.586a3.05,3.05,0,0,1,3.05,3.05v4.721a3.452,3.452,0,0,1-3.452,3.452" transform="translate(-23.205 -0.711)" fill="#0022e4"/>
    <path id="Path_291" data-name="Path 291" d="M258.458,26.482h-2.194a.2.2,0,0,1-.2-.2V9.439a.266.266,0,0,0-.513-.1L251.26,19.98a3.71,3.71,0,0,1-3.228,2.369,3.58,3.58,0,0,1-3.487-2.245L240.2,9.339a.264.264,0,0,0-.246-.166.267.267,0,0,0-.267.266V26.284a.2.2,0,0,1-.2.2H237.3a.2.2,0,0,1-.2-.2V9.55a2.929,2.929,0,0,1,2.64-2.958A2.846,2.846,0,0,1,242.6,8.371l4.344,10.764a1,1,0,0,0,1.862,0l4.306-10.668a2.946,2.946,0,0,1,2.452-1.873,2.858,2.858,0,0,1,3.09,2.846V26.284a.2.2,0,0,1-.2.2" transform="translate(-25.601 -0.711)" fill="#0022e4"/>
    <path id="Path_292" data-name="Path 292" d="M275.822,26.44H264.807a.2.2,0,0,1-.2-.2l.677-2.193a.2.2,0,0,1,.2-.2h10.395a1.838,1.838,0,0,0,1.843-1.87,2.993,2.993,0,0,0-2.014-2.751l-.052-.019-7.547-2.98a5.576,5.576,0,0,1-3.716-5.2,4.479,4.479,0,0,1,4.489-4.444h10.85a.2.2,0,0,1,.2.2l-.677,2.193a.2.2,0,0,1-.2.2H268.826a1.838,1.838,0,0,0-1.843,1.871,2.987,2.987,0,0,0,2,2.749l.052.019,7.546,2.98A5.583,5.583,0,0,1,280.312,22a4.481,4.481,0,0,1-4.49,4.44" transform="translate(-28.548 -0.711)" fill="#0022e4"/>
  </g>
</svg>
