<svg xmlns="http://www.w3.org/2000/svg" xmlns:xlink="http://www.w3.org/1999/xlink" width="197.076" height="24.866" viewBox="0 0 197.076 24.866">
  <defs>
    <clipPath id="clip-path">
      <rect id="Rectangle_120" data-name="Rectangle 120" width="197.076" height="24.866" fill="#fff"/>
    </clipPath>
  </defs>
  <g id="Group_946" data-name="Group 946" transform="translate(0 0)">
    <g id="Group_113" data-name="Group 113" transform="translate(0 0)" clip-path="url(#clip-path)">
      <path id="Path_273" data-name="Path 273" d="M16.087,27.233a1.023,1.023,0,0,0,1.059,1.1,1.046,1.046,0,0,0,1.081-1.1,3.971,3.971,0,0,0-.8-2.347.333.333,0,0,0-.533,0,3.971,3.971,0,0,0-.8,2.347" transform="translate(-4.854 -7.469)" fill="#fff"/>
      <path id="Path_274" data-name="Path 274" d="M8.161,13.72A8.013,8.013,0,0,1,12,14.7a.629.629,0,0,0,.612,0,8.01,8.01,0,0,1,3.835-.979,6.733,6.733,0,0,1,6.431,4.768.215.215,0,0,0,.394.043,12.434,12.434,0,1,0-21.837-.307.215.215,0,0,0,.395-.027A6.732,6.732,0,0,1,8.161,13.72m4.821-5.976A4.3,4.3,0,0,1,20.463,5.37a.818.818,0,0,1-.607,1.364H19.8a.8.8,0,0,1-.588-.265,2.637,2.637,0,1,0-1.952,4.409c.081,0,.161,0,.241-.012l.07-.008c.06-.008.12-.017.179-.028l.061-.011c.078-.017.154-.036.23-.059l.014,0c.073-.022.143-.049.213-.078l.038-.017c.072-.031.142-.064.21-.1a2.578,2.578,0,0,0,1.008-.979.2.2,0,0,0-.17-.3h-1.26a.834.834,0,0,1-.82-.989.906.906,0,0,1,.86-.678h2.811a.62.62,0,0,1,.621.62V8.24a4.31,4.31,0,0,1-.193,1.277v0c-.011.036-.027.07-.038.1a4.315,4.315,0,0,1-.5,1.016l-.006.008A4.344,4.344,0,0,1,19.673,11.8l-.02.013c-.1.068-.207.132-.316.192l-.047.026c-.113.061-.229.117-.348.168l-.011.006q-.183.076-.374.137l-.082.024c-.1.028-.193.053-.292.075l-.113.023c-.087.016-.174.032-.262.041-.05.006-.1.013-.15.018-.131.012-.264.02-.4.02a4.311,4.311,0,0,1-4.278-4.8M8.029,3.933a4.287,4.287,0,0,1,3.254,1.495.8.8,0,0,1-.617,1.306h-.091a.811.811,0,0,1-.6-.271A2.639,2.639,0,1,0,9.8,10.192a.864.864,0,0,1,.606-.226.835.835,0,0,1,.526,1.45,4.3,4.3,0,1,1-2.9-7.483" transform="translate(0 0)" fill="#fff"/>
      <path id="Path_275" data-name="Path 275" d="M17.986,22.386A6.17,6.17,0,0,0,15.6,22.8a.243.243,0,0,0-.108.372,5.748,5.748,0,0,1,1.238,3.579,2.94,2.94,0,0,1-2.991,3.012,2.9,2.9,0,0,1-2.97-3.012,5.748,5.748,0,0,1,1.238-3.579A.243.243,0,0,0,11.9,22.8a6.183,6.183,0,0,0-2.385-.419A4.8,4.8,0,0,0,4.8,27.2a1.183,1.183,0,0,0,.355.841,12.426,12.426,0,0,0,16.986.445A1.716,1.716,0,0,0,22.7,27.2a4.8,4.8,0,0,0-4.717-4.811" transform="translate(-1.447 -6.755)" fill="#fff"/>
      <path id="Path_276" data-name="Path 276" d="M45.122,14.51v-.043a7.643,7.643,0,0,1,7.789-7.811,7.873,7.873,0,0,1,5.911,2.352l-1.7,1.964a6.008,6.008,0,0,0-4.229-1.877,5.07,5.07,0,0,0-4.984,5.33v.043a5.108,5.108,0,0,0,4.984,5.373,5.921,5.921,0,0,0,4.337-1.963l1.7,1.726A7.8,7.8,0,0,1,52.8,22.277a7.6,7.6,0,0,1-7.681-7.767" transform="translate(-13.615 -2.008)" fill="#fff"/>
      <path id="Path_277" data-name="Path 277" d="M45.122,14.51v-.043a7.643,7.643,0,0,1,7.789-7.811,7.873,7.873,0,0,1,5.911,2.352l-1.7,1.964a6.008,6.008,0,0,0-4.229-1.877,5.07,5.07,0,0,0-4.984,5.33v.043a5.108,5.108,0,0,0,4.984,5.373,5.921,5.921,0,0,0,4.337-1.963l1.7,1.726A7.8,7.8,0,0,1,52.8,22.277,7.6,7.6,0,0,1,45.122,14.51Z" transform="translate(-13.615 -2.008)" fill="#fff"/>
      <path id="Path_278" data-name="Path 278" d="M74.294,6.872h2.459L83.4,22.084h-2.8l-1.531-3.646H71.92l-1.553,3.646H67.648Zm3.8,9.214L75.48,10.044l-2.589,6.041Z" transform="translate(-20.412 -2.074)" fill="#fff"/>
      <path id="Path_279" data-name="Path 279" d="M74.294,6.872h2.459L83.4,22.084h-2.8l-1.531-3.646H71.92l-1.553,3.646H67.648Zm3.8,9.214L75.48,10.044l-2.589,6.041Z" transform="translate(-20.412 -2.074)" fill="#fff"/>
      <path id="Path_280" data-name="Path 280" d="M94.533,7.027H97.36l4.6,7.142,4.6-7.142h2.827v15.1h-2.654V11.3l-4.768,7.119h-.087l-4.725-7.077V22.13H94.533Z" transform="translate(-28.525 -2.12)" fill="#fff"/>
      <path id="Path_281" data-name="Path 281" d="M94.533,7.027H97.36l4.6,7.142,4.6-7.142h2.827v15.1h-2.654V11.3l-4.768,7.119h-.087l-4.725-7.077V22.13H94.533Z" transform="translate(-28.525 -2.12)" fill="#fff"/>
      <path id="Path_282" data-name="Path 282" d="M126.453,9.486h-4.789V7.026h12.255v2.46h-4.79V22.13h-2.676Z" transform="translate(-36.711 -2.12)" fill="#fff"/>
      <path id="Path_283" data-name="Path 283" d="M126.453,9.486h-4.789V7.026h12.255v2.46h-4.79V22.13h-2.676Z" transform="translate(-36.711 -2.12)" fill="#fff"/>
      <path id="Path_284" data-name="Path 284" d="M143.851,7.027h11.2V9.4H146.5v3.927h7.573V15.7H146.5v4.056h8.652V22.13H143.851Z" transform="translate(-43.406 -2.12)" fill="#fff"/>
      <path id="Path_285" data-name="Path 285" d="M143.851,7.027h11.2V9.4H146.5v3.927h7.573V15.7H146.5v4.056h8.652V22.13H143.851Z" transform="translate(-43.406 -2.12)" fill="#fff"/>
      <path id="Path_286" data-name="Path 286" d="M164.215,14.51v-.043A7.643,7.643,0,0,1,172,6.656a7.874,7.874,0,0,1,5.912,2.352l-1.7,1.964a6.009,6.009,0,0,0-4.229-1.877A5.07,5.07,0,0,0,167,14.424v.043a5.108,5.108,0,0,0,4.984,5.373,5.921,5.921,0,0,0,4.337-1.963l1.7,1.726a7.8,7.8,0,0,1-6.128,2.675,7.6,7.6,0,0,1-7.681-7.767" transform="translate(-49.551 -2.008)" fill="#fff"/>
      <path id="Path_287" data-name="Path 287" d="M164.215,14.51v-.043A7.643,7.643,0,0,1,172,6.656a7.874,7.874,0,0,1,5.912,2.352l-1.7,1.964a6.009,6.009,0,0,0-4.229-1.877A5.07,5.07,0,0,0,167,14.424v.043a5.108,5.108,0,0,0,4.984,5.373,5.921,5.921,0,0,0,4.337-1.963l1.7,1.726a7.8,7.8,0,0,1-6.128,2.675A7.6,7.6,0,0,1,164.215,14.51Z" transform="translate(-49.551 -2.008)" fill="#fff"/>
      <path id="Path_288" data-name="Path 288" d="M188.6,7.027h2.653v6.279h7.207V7.027h2.653v15.1h-2.653V15.765h-7.207V22.13H188.6Z" transform="translate(-56.907 -2.12)" fill="#fff"/>
      <path id="Path_289" data-name="Path 289" d="M188.6,7.027h2.653v6.279h7.207V7.027h2.653v15.1h-2.653V15.765h-7.207V22.13H188.6Z" transform="translate(-56.907 -2.12)" fill="#fff"/>
      <path id="Path_290" data-name="Path 290" d="M225.608,22.127H219.84a4.931,4.931,0,0,1-4.931-4.931V11.515a4.931,4.931,0,0,1,4.93-4.931h8.036a.155.155,0,0,1,.155.156l-.53,1.717a.155.155,0,0,1-.155.155H219.84a2.9,2.9,0,0,0-2.9,2.9V17.2a2.9,2.9,0,0,0,2.9,2.9h5.768a.675.675,0,0,0,.675-.675v-3.7a.36.36,0,0,0-.36-.36h-4.372a.155.155,0,0,1-.155-.156V13.5a.155.155,0,0,1,.155-.156h4.372a2.388,2.388,0,0,1,2.387,2.387v3.7a2.7,2.7,0,0,1-2.7,2.7" transform="translate(-64.847 -1.987)" fill="#fff"/>
      <path id="Path_291" data-name="Path 291" d="M253.818,22.16H252.1a.155.155,0,0,1-.155-.155V8.819a.208.208,0,0,0-.4-.078l-3.361,8.33a2.9,2.9,0,0,1-2.527,1.855,2.8,2.8,0,0,1-2.729-1.758l-3.4-8.427a.206.206,0,0,0-.193-.13.209.209,0,0,0-.209.208V22.005a.155.155,0,0,1-.155.155h-1.717a.156.156,0,0,1-.155-.155V8.906a2.293,2.293,0,0,1,2.067-2.315,2.227,2.227,0,0,1,2.242,1.392l3.4,8.426a.786.786,0,0,0,1.457,0l3.37-8.35a2.306,2.306,0,0,1,1.92-1.466,2.237,2.237,0,0,1,2.419,2.227V22.005a.155.155,0,0,1-.155.155" transform="translate(-71.543 -1.987)" fill="#fff"/>
      <path id="Path_292" data-name="Path 292" d="M273.34,22.127h-8.623a.155.155,0,0,1-.155-.155l.53-1.717a.155.155,0,0,1,.155-.155h8.137a1.438,1.438,0,0,0,1.443-1.464,2.343,2.343,0,0,0-1.577-2.153l-.04-.015L267.3,14.136a4.365,4.365,0,0,1-2.909-4.073,3.506,3.506,0,0,1,3.514-3.479H276.4a.155.155,0,0,1,.155.156l-.53,1.717a.155.155,0,0,1-.155.155h-8.006a1.439,1.439,0,0,0-1.443,1.464,2.338,2.338,0,0,0,1.567,2.152l.041.015,5.907,2.333a4.37,4.37,0,0,1,2.919,4.076,3.507,3.507,0,0,1-3.514,3.475" transform="translate(-79.779 -1.987)" fill="#fff"/>
    </g>
  </g>
</svg>
