<svg xmlns="http://www.w3.org/2000/svg" xmlns:xlink="http://www.w3.org/1999/xlink" width="408" height="51.48" viewBox="0 0 408 51.48">
  <defs>
    <clipPath id="clip-path">
      <rect id="Rectangle_120" data-name="Rectangle 120" width="408" height="51.48" fill="none"/>
    </clipPath>
  </defs>
  <g id="Group_113" data-name="Group 113" clip-path="url(#clip-path)">
    <path id="Path_273" data-name="Path 273" d="M16.087,29.887a2.118,2.118,0,0,0,2.193,2.28,2.165,2.165,0,0,0,2.238-2.28,8.22,8.22,0,0,0-1.664-4.859.69.69,0,0,0-1.1,0,8.221,8.221,0,0,0-1.664,4.859" transform="translate(7.168 11.029)" fill="#0022e4"/>
    <path id="Path_274" data-name="Path 274" d="M16.9,28.4a16.588,16.588,0,0,1,7.941,2.027,1.3,1.3,0,0,0,1.268,0A16.583,16.583,0,0,1,34.043,28.4a13.94,13.94,0,0,1,13.314,9.87.445.445,0,0,0,.815.09,25.741,25.741,0,1,0-45.208-.635.446.446,0,0,0,.817-.056A13.936,13.936,0,0,1,16.9,28.4m9.98-12.371a8.9,8.9,0,0,1,15.488-4.916,1.694,1.694,0,0,1-1.258,2.825h-.116a1.651,1.651,0,0,1-1.217-.549,5.46,5.46,0,1,0-4.04,9.127c.168,0,.334-.01.5-.025.049,0,.1-.01.145-.016.124-.016.249-.035.372-.058l.126-.023c.16-.035.319-.074.476-.123l.029-.01c.15-.046.3-.1.441-.16l.079-.035c.149-.064.293-.133.435-.21a5.337,5.337,0,0,0,2.086-2.027.41.41,0,0,0-.353-.62H37.459a1.727,1.727,0,0,1-1.7-2.048,1.875,1.875,0,0,1,1.781-1.4h5.82a1.284,1.284,0,0,1,1.285,1.284v.013a8.923,8.923,0,0,1-.4,2.644l0,.009c-.023.074-.055.145-.08.217a8.934,8.934,0,0,1-1.038,2.1l-.012.017a8.994,8.994,0,0,1-2.387,2.388l-.04.027c-.211.142-.429.273-.653.4-.033.017-.065.036-.1.053-.234.126-.474.243-.72.347l-.023.012q-.379.158-.775.283c-.056.017-.114.032-.171.049-.2.058-.4.11-.6.155q-.117.026-.234.048c-.181.033-.36.066-.542.085-.1.012-.207.027-.311.038-.272.025-.546.042-.825.042a8.924,8.924,0,0,1-8.857-9.94M16.621,8.143a8.874,8.874,0,0,1,6.736,3.095,1.65,1.65,0,0,1-1.278,2.7h-.188a1.678,1.678,0,0,1-1.239-.561,5.464,5.464,0,1,0-.369,7.719,1.788,1.788,0,0,1,1.255-.467,1.728,1.728,0,0,1,1.089,3A8.912,8.912,0,1,1,16.621,8.143" transform="translate(0 0)" fill="#0022e4"/>
    <path id="Path_275" data-name="Path 275" d="M32.1,22.386a12.774,12.774,0,0,0-4.938.867.5.5,0,0,0-.223.77A11.9,11.9,0,0,1,29.5,31.433a6.087,6.087,0,0,1-6.193,6.235,6,6,0,0,1-6.148-6.235,11.9,11.9,0,0,1,2.563-7.409.5.5,0,0,0-.224-.77,12.8,12.8,0,0,0-4.938-.867A9.94,9.94,0,0,0,4.8,32.346a2.449,2.449,0,0,0,.734,1.74,25.726,25.726,0,0,0,35.165.921,3.553,3.553,0,0,0,1.171-2.661,9.94,9.94,0,0,0-9.766-9.96" transform="translate(2.137 9.974)" fill="#0022e4"/>
    <path id="Path_276" data-name="Path 276" d="M45.122,22.916v-.09A15.823,15.823,0,0,1,61.247,6.656a16.3,16.3,0,0,1,12.238,4.869L69.957,15.59c-2.5-2.322-5.181-3.886-8.754-3.886-5.986,0-10.319,4.914-10.319,11.034v.088c0,6.121,4.332,11.124,10.319,11.124,3.842,0,6.3-1.564,8.978-4.065l3.529,3.573A16.137,16.137,0,0,1,61.023,39a15.726,15.726,0,0,1-15.9-16.081" transform="translate(20.105 2.966)" fill="#261f1c"/>
    <path id="Path_277" data-name="Path 277" d="M45.122,22.916v-.09A15.823,15.823,0,0,1,61.247,6.656a16.3,16.3,0,0,1,12.238,4.869L69.957,15.59c-2.5-2.322-5.181-3.886-8.754-3.886-5.986,0-10.319,4.914-10.319,11.034v.088c0,6.121,4.332,11.124,10.319,11.124,3.842,0,6.3-1.564,8.978-4.065l3.529,3.573A16.137,16.137,0,0,1,61.023,39,15.726,15.726,0,0,1,45.122,22.916Z" transform="translate(20.105 2.966)" fill="none" stroke="#261f1c" stroke-linecap="round" stroke-linejoin="round" stroke-width="0.365"/>
    <path id="Path_278" data-name="Path 278" d="M81.407,6.872H86.5l13.758,31.492H94.449l-3.17-7.549H76.492l-3.215,7.549H67.648Zm7.861,19.074L83.863,13.439,78.5,25.946Z" transform="translate(30.142 3.062)" fill="#261f1c"/>
    <path id="Path_279" data-name="Path 279" d="M81.407,6.872H86.5l13.758,31.492H94.449l-3.17-7.549H76.492l-3.215,7.549H67.648Zm7.861,19.074L83.863,13.439,78.5,25.946Z" transform="translate(30.142 3.062)" fill="none" stroke="#261f1c" stroke-linecap="round" stroke-linejoin="round" stroke-width="0.365"/>
    <path id="Path_280" data-name="Path 280" d="M94.533,7.027h5.852L109.9,21.812l9.513-14.785h5.853V38.294h-5.495V15.872L109.9,30.611h-.179L99.938,15.96V38.294H94.533Z" transform="translate(42.122 3.131)" fill="#261f1c"/>
    <path id="Path_281" data-name="Path 281" d="M94.533,7.027h5.852L109.9,21.812l9.513-14.785h5.853V38.294h-5.495V15.872L109.9,30.611h-.179L99.938,15.96V38.294H94.533Z" transform="translate(42.122 3.131)" fill="none" stroke="#261f1c" stroke-linecap="round" stroke-linejoin="round" stroke-width="0.365"/>
    <path id="Path_282" data-name="Path 282" d="M131.579,12.119h-9.915V7.026h25.371v5.093h-9.917V38.3h-5.539Z" transform="translate(54.211 3.131)" fill="#261f1c"/>
    <path id="Path_283" data-name="Path 283" d="M131.579,12.119h-9.915V7.026h25.371v5.093h-9.917V38.3h-5.539Z" transform="translate(54.211 3.131)" fill="none" stroke="#261f1c" stroke-linecap="round" stroke-linejoin="round" stroke-width="0.365"/>
    <path id="Path_284" data-name="Path 284" d="M143.851,7.027h23.183V11.94h-17.69v8.13h15.679v4.914H149.344v8.4h17.912v4.914H143.851Z" transform="translate(64.097 3.131)" fill="#261f1c"/>
    <path id="Path_285" data-name="Path 285" d="M143.851,7.027h23.183V11.94h-17.69v8.13h15.679v4.914H149.344v8.4h17.912v4.914H143.851Z" transform="translate(64.097 3.131)" fill="none" stroke="#261f1c" stroke-linecap="round" stroke-linejoin="round" stroke-width="0.365"/>
    <path id="Path_286" data-name="Path 286" d="M164.215,22.916v-.09a15.823,15.823,0,0,1,16.124-16.17,16.3,16.3,0,0,1,12.24,4.869L189.05,15.59c-2.5-2.322-5.182-3.886-8.754-3.886-5.986,0-10.319,4.914-10.319,11.034v.088c0,6.121,4.332,11.124,10.319,11.124,3.842,0,6.3-1.564,8.979-4.065l3.529,3.573A16.137,16.137,0,0,1,180.116,39a15.725,15.725,0,0,1-15.9-16.081" transform="translate(73.171 2.966)" fill="#261f1c"/>
    <path id="Path_287" data-name="Path 287" d="M164.215,22.916v-.09a15.823,15.823,0,0,1,16.124-16.17,16.3,16.3,0,0,1,12.24,4.869L189.05,15.59c-2.5-2.322-5.182-3.886-8.754-3.886-5.986,0-10.319,4.914-10.319,11.034v.088c0,6.121,4.332,11.124,10.319,11.124,3.842,0,6.3-1.564,8.979-4.065l3.529,3.573A16.137,16.137,0,0,1,180.116,39,15.725,15.725,0,0,1,164.215,22.916Z" transform="translate(73.171 2.966)" fill="none" stroke="#261f1c" stroke-linecap="round" stroke-linejoin="round" stroke-width="0.365"/>
    <path id="Path_288" data-name="Path 288" d="M188.6,7.027h5.493v13H209.01v-13H214.5V38.294H209.01V25.118H194.088V38.294H188.6Z" transform="translate(84.034 3.131)" fill="#261f1c"/>
    <path id="Path_289" data-name="Path 289" d="M188.6,7.027h5.493v13H209.01v-13H214.5V38.294H209.01V25.118H194.088V38.294H188.6Z" transform="translate(84.034 3.131)" fill="none" stroke="#261f1c" stroke-linecap="round" stroke-linejoin="round" stroke-width="0.365"/>
    <path id="Path_290" data-name="Path 290" d="M237.06,38.763H225.118a10.209,10.209,0,0,1-10.209-10.209V16.793A10.208,10.208,0,0,1,225.116,6.584h16.637a.321.321,0,0,1,.321.322l-1.1,3.555a.321.321,0,0,1-.321.321H225.118a6.012,6.012,0,0,0-6.012,6.011V28.554a6.012,6.012,0,0,0,6.012,6.012H237.06a1.4,1.4,0,0,0,1.4-1.4v-7.65a.746.746,0,0,0-.746-.746h-9.051a.322.322,0,0,1-.321-.322V20.9a.322.322,0,0,1,.321-.322h9.052a4.943,4.943,0,0,1,4.942,4.942v7.651a5.594,5.594,0,0,1-5.594,5.594" transform="translate(95.759 2.934)" fill="#0022e4"/>
    <path id="Path_291" data-name="Path 291" d="M271.714,38.831h-3.555a.321.321,0,0,1-.321-.321v-27.3a.431.431,0,0,0-.831-.162l-6.959,17.244a6.013,6.013,0,0,1-5.232,3.839,5.8,5.8,0,0,1-5.651-3.639l-7.04-17.445a.427.427,0,0,0-.4-.269.432.432,0,0,0-.432.431v27.3a.321.321,0,0,1-.321.321h-3.555a.322.322,0,0,1-.321-.321V11.391A4.747,4.747,0,0,1,241.377,6.6a4.611,4.611,0,0,1,4.642,2.882l7.04,17.444a1.627,1.627,0,0,0,3.017,0l6.978-17.288A4.774,4.774,0,0,1,267.027,6.6a4.631,4.631,0,0,1,5.007,4.611v27.3a.321.321,0,0,1-.321.321" transform="translate(105.646 2.934)" fill="#0022e4"/>
    <path id="Path_292" data-name="Path 292" d="M282.915,38.763H265.064a.321.321,0,0,1-.321-.321l1.1-3.555a.321.321,0,0,1,.321-.321h16.845a2.978,2.978,0,0,0,2.987-3.03,4.85,4.85,0,0,0-3.264-4.458l-.084-.03-12.23-4.83a9.036,9.036,0,0,1-6.022-8.432,7.259,7.259,0,0,1,7.274-7.2H289.25a.321.321,0,0,1,.321.322l-1.1,3.555a.321.321,0,0,1-.321.321H271.578a2.978,2.978,0,0,0-2.987,3.031,4.84,4.84,0,0,0,3.244,4.455l.084.03,12.228,4.83a9.047,9.047,0,0,1,6.044,8.439,7.261,7.261,0,0,1-7.276,7.195" transform="translate(117.808 2.934)" fill="#0022e4"/>
  </g>
</svg>
