<svg id="Group_114" data-name="Group 114" xmlns="http://www.w3.org/2000/svg" xmlns:xlink="http://www.w3.org/1999/xlink" width="377.206" height="47.594" viewBox="0 0 377.206 47.594">
  <defs>
    <clipPath id="clip-path">
      <rect id="Rectangle_120" data-name="Rectangle 120" width="377.206" height="47.594" fill="#fff"/>
    </clipPath>
  </defs>
  <g id="Group_113" data-name="Group 113" transform="translate(0 0)" clip-path="url(#clip-path)">
    <path id="Path_273" data-name="Path 273" d="M16.087,29.5a1.958,1.958,0,0,0,2.027,2.108A2,2,0,0,0,20.183,29.5a7.6,7.6,0,0,0-1.538-4.492.638.638,0,0,0-1.02,0A7.6,7.6,0,0,0,16.087,29.5" transform="translate(5.413 8.329)" fill="#fff"/>
    <path id="Path_274" data-name="Path 274" d="M15.621,26.26a15.337,15.337,0,0,1,7.341,1.874,1.2,1.2,0,0,0,1.172,0,15.331,15.331,0,0,1,7.34-1.874,12.888,12.888,0,0,1,12.309,9.125.411.411,0,0,0,.754.083,23.8,23.8,0,1,0-41.8-.587A.412.412,0,0,0,3.5,34.83,12.884,12.884,0,0,1,15.621,26.26m9.227-11.438a8.231,8.231,0,0,1,14.319-4.545A1.566,1.566,0,0,1,38,12.889H37.9a1.527,1.527,0,0,1-1.125-.508,5.048,5.048,0,1,0-3.735,8.438c.155,0,.309-.009.461-.023l.134-.015c.115-.015.23-.032.343-.053l.116-.021c.148-.032.3-.068.44-.114l.027-.009c.139-.043.274-.094.408-.148l.074-.032c.138-.059.271-.123.4-.194a4.935,4.935,0,0,0,1.929-1.874.379.379,0,0,0-.326-.573H34.632a1.6,1.6,0,0,1-1.569-1.894,1.734,1.734,0,0,1,1.647-1.3H40.09a1.187,1.187,0,0,1,1.188,1.187v.012a8.249,8.249,0,0,1-.37,2.444l0,.008c-.021.068-.051.134-.074.2a8.259,8.259,0,0,1-.96,1.945l-.011.016a8.315,8.315,0,0,1-2.207,2.208l-.037.025c-.2.131-.4.253-.6.368l-.09.049c-.217.116-.438.225-.666.321l-.021.011q-.351.146-.716.262c-.052.016-.106.029-.158.045-.184.053-.37.1-.559.143q-.108.024-.217.044c-.167.031-.333.061-.5.079-.1.011-.191.025-.287.035-.251.023-.505.039-.763.039a8.251,8.251,0,0,1-8.189-9.19M15.367,7.528a8.2,8.2,0,0,1,6.228,2.861,1.525,1.525,0,0,1-1.181,2.5H20.24a1.551,1.551,0,0,1-1.145-.519,5.052,5.052,0,1,0-.341,7.137,1.653,1.653,0,0,1,1.16-.432,1.6,1.6,0,0,1,1.006,2.776A8.24,8.24,0,1,1,15.367,7.528" transform="translate(0 0)" fill="#fff"/>
    <path id="Path_275" data-name="Path 275" d="M30.04,22.386a11.81,11.81,0,0,0-4.565.8.464.464,0,0,0-.206.712,11,11,0,0,1,2.37,6.849,5.628,5.628,0,0,1-5.725,5.764,5.546,5.546,0,0,1-5.684-5.764A11,11,0,0,1,18.6,23.9a.465.465,0,0,0-.207-.712,11.835,11.835,0,0,0-4.565-.8A9.19,9.19,0,0,0,4.8,31.595,2.264,2.264,0,0,0,5.476,33.2a23.784,23.784,0,0,0,32.511.851,3.285,3.285,0,0,0,1.083-2.46,9.19,9.19,0,0,0-9.029-9.208" transform="translate(1.614 7.532)" fill="#fff"/>
    <path id="Path_276" data-name="Path 276" d="M45.122,21.689v-.083A14.629,14.629,0,0,1,60.03,6.656a15.069,15.069,0,0,1,11.315,4.5l-3.262,3.758c-2.312-2.146-4.79-3.592-8.094-3.592-5.534,0-9.54,4.543-9.54,10.2v.082c0,5.659,4.005,10.284,9.54,10.284,3.552,0,5.823-1.446,8.3-3.758l3.262,3.3a14.919,14.919,0,0,1-11.729,5.12,14.539,14.539,0,0,1-14.7-14.867" transform="translate(15.182 2.239)" fill="#fff"/>
    <path id="Path_277" data-name="Path 277" d="M45.122,21.689v-.083A14.629,14.629,0,0,1,60.03,6.656a15.069,15.069,0,0,1,11.315,4.5l-3.262,3.758c-2.312-2.146-4.79-3.592-8.094-3.592-5.534,0-9.54,4.543-9.54,10.2v.082c0,5.659,4.005,10.284,9.54,10.284,3.552,0,5.823-1.446,8.3-3.758l3.262,3.3a14.919,14.919,0,0,1-11.729,5.12A14.539,14.539,0,0,1,45.122,21.689Z" transform="translate(15.182 2.239)" fill="#fff" stroke="#261f1c" stroke-linecap="round" stroke-linejoin="round" stroke-width="0.365"/>
    <path id="Path_278" data-name="Path 278" d="M80.369,6.872h4.707L97.795,35.987H92.426L89.5,29.008H75.825l-2.972,6.979h-5.2Zm7.268,17.635-5-11.563L77.684,24.507Z" transform="translate(22.762 2.312)" fill="#fff"/>
    <path id="Path_279" data-name="Path 279" d="M80.369,6.872h4.707L97.795,35.987H92.426L89.5,29.008H75.825l-2.972,6.979h-5.2Zm7.268,17.635-5-11.563L77.684,24.507Z" transform="translate(22.762 2.312)" fill="#fff" stroke="#261f1c" stroke-linecap="round" stroke-linejoin="round" stroke-width="0.365"/>
    <path id="Path_280" data-name="Path 280" d="M94.533,7.027h5.41l8.8,13.669,8.8-13.669h5.411V35.935h-5.08V15.2L108.74,28.831h-.166L99.53,15.286V35.935h-5Z" transform="translate(31.808 2.364)" fill="#fff"/>
    <path id="Path_281" data-name="Path 281" d="M94.533,7.027h5.41l8.8,13.669,8.8-13.669h5.411V35.935h-5.08V15.2L108.74,28.831h-.166L99.53,15.286V35.935h-5Z" transform="translate(31.808 2.364)" fill="#fff" stroke="#261f1c" stroke-linecap="round" stroke-linejoin="round" stroke-width="0.365"/>
    <path id="Path_282" data-name="Path 282" d="M130.831,11.735h-9.167V7.026h23.456v4.708h-9.168v24.2h-5.121Z" transform="translate(40.937 2.364)" fill="#fff"/>
    <path id="Path_283" data-name="Path 283" d="M130.831,11.735h-9.167V7.026h23.456v4.708h-9.168v24.2h-5.121Z" transform="translate(40.937 2.364)" fill="#fff" stroke="#261f1c" stroke-linecap="round" stroke-linejoin="round" stroke-width="0.365"/>
    <path id="Path_284" data-name="Path 284" d="M143.851,7.027h21.433v4.543H148.929v7.516h14.5v4.543h-14.5v7.764h16.56v4.543H143.851Z" transform="translate(48.402 2.364)" fill="#fff"/>
    <path id="Path_285" data-name="Path 285" d="M143.851,7.027h21.433v4.543H148.929v7.516h14.5v4.543h-14.5v7.764h16.56v4.543H143.851Z" transform="translate(48.402 2.364)" fill="#fff" stroke="#261f1c" stroke-linecap="round" stroke-linejoin="round" stroke-width="0.365"/>
    <path id="Path_286" data-name="Path 286" d="M164.215,21.689v-.083a14.628,14.628,0,0,1,14.907-14.95,15.07,15.07,0,0,1,11.316,4.5l-3.262,3.758c-2.312-2.146-4.791-3.592-8.094-3.592-5.534,0-9.54,4.543-9.54,10.2v.082c0,5.659,4.005,10.284,9.54,10.284,3.552,0,5.823-1.446,8.3-3.758l3.262,3.3a14.919,14.919,0,0,1-11.729,5.12,14.538,14.538,0,0,1-14.7-14.867" transform="translate(55.254 2.239)" fill="#fff"/>
    <path id="Path_287" data-name="Path 287" d="M164.215,21.689v-.083a14.628,14.628,0,0,1,14.907-14.95,15.07,15.07,0,0,1,11.316,4.5l-3.262,3.758c-2.312-2.146-4.791-3.592-8.094-3.592-5.534,0-9.54,4.543-9.54,10.2v.082c0,5.659,4.005,10.284,9.54,10.284,3.552,0,5.823-1.446,8.3-3.758l3.262,3.3a14.919,14.919,0,0,1-11.729,5.12A14.538,14.538,0,0,1,164.215,21.689Z" transform="translate(55.254 2.239)" fill="#fff" stroke="#261f1c" stroke-linecap="round" stroke-linejoin="round" stroke-width="0.365"/>
    <path id="Path_288" data-name="Path 288" d="M188.6,7.027h5.079V19.044h13.8V7.027h5.079V35.935h-5.079V23.753h-13.8V35.935H188.6Z" transform="translate(63.457 2.364)" fill="#fff"/>
    <path id="Path_289" data-name="Path 289" d="M188.6,7.027h5.079V19.044h13.8V7.027h5.079V35.935h-5.079V23.753h-13.8V35.935H188.6Z" transform="translate(63.457 2.364)" fill="#fff" stroke="#261f1c" stroke-linecap="round" stroke-linejoin="round" stroke-width="0.365"/>
    <path id="Path_290" data-name="Path 290" d="M235.388,36.334H224.347a9.439,9.439,0,0,1-9.438-9.438V16.022a9.437,9.437,0,0,1,9.437-9.438h15.381a.3.3,0,0,1,.3.3l-1.014,3.286a.3.3,0,0,1-.3.3H224.347a5.558,5.558,0,0,0-5.558,5.557V26.9a5.558,5.558,0,0,0,5.558,5.558h11.041a1.291,1.291,0,0,0,1.291-1.292V24.089a.69.69,0,0,0-.69-.69h-8.368a.3.3,0,0,1-.3-.3V19.816a.3.3,0,0,1,.3-.3h8.369a4.57,4.57,0,0,1,4.569,4.569v7.074a5.172,5.172,0,0,1-5.172,5.172" transform="translate(72.311 2.215)" fill="#fff"/>
    <path id="Path_291" data-name="Path 291" d="M269.1,36.4h-3.286a.3.3,0,0,1-.3-.3V10.862a.4.4,0,0,0-.768-.15l-6.434,15.943a5.559,5.559,0,0,1-4.837,3.55,5.364,5.364,0,0,1-5.224-3.364l-6.509-16.129a.4.4,0,0,0-.369-.249.4.4,0,0,0-.4.4V36.1a.3.3,0,0,1-.3.3h-3.286a.3.3,0,0,1-.3-.3V11.028A4.388,4.388,0,0,1,241.054,6.6a4.263,4.263,0,0,1,4.291,2.665l6.509,16.127a1.5,1.5,0,0,0,2.789,0l6.451-15.983A4.414,4.414,0,0,1,264.768,6.6a4.282,4.282,0,0,1,4.63,4.263V36.1a.3.3,0,0,1-.3.3" transform="translate(79.777 2.215)" fill="#fff"/>
    <path id="Path_292" data-name="Path 292" d="M281.517,36.334h-16.5a.3.3,0,0,1-.3-.3l1.014-3.286a.3.3,0,0,1,.3-.3H281.6a2.753,2.753,0,0,0,2.761-2.8,4.484,4.484,0,0,0-3.018-4.122l-.078-.028-11.307-4.465a8.354,8.354,0,0,1-5.568-7.8,6.711,6.711,0,0,1,6.725-6.658h16.256a.3.3,0,0,1,.3.3l-1.014,3.286a.3.3,0,0,1-.3.3H271.035a2.753,2.753,0,0,0-2.761,2.8,4.475,4.475,0,0,0,3,4.119l.078.028,11.305,4.465a8.364,8.364,0,0,1,5.588,7.8,6.713,6.713,0,0,1-6.727,6.652" transform="translate(88.961 2.215)" fill="#fff"/>
  </g>
</svg>
