<svg xmlns="http://www.w3.org/2000/svg" width="250" height="63" viewBox="0 0 250 63">
  <g id="gms_logo" transform="translate(-116.932 -364.172)">
    <rect id="長方形_2049" data-name="長方形 2049" width="250" height="63" transform="translate(116.932 364.172)" fill="#959595" opacity="0"/>
    <g id="グループ_1161" data-name="グループ 1161" transform="translate(127.468 375.808)">
      <g id="グループ_1160" data-name="グループ 1160">
        <g id="グループ_1159" data-name="グループ 1159" transform="translate(38.517)">
          <path id="パス_255" data-name="パス 255" d="M220.786,412.117h-7.7v-27.58a3.7,3.7,0,0,0-.309-1.509,4.006,4.006,0,0,0-.835-1.225,3.848,3.848,0,0,0-6.585,2.734v27.58h-7.73v-27.58a3.852,3.852,0,1,0-7.7,0v27.58H182.19v-27.58a11.365,11.365,0,0,1,.9-4.512,11.524,11.524,0,0,1,6.168-6.168,11.492,11.492,0,0,1,12.241,2.087,11.526,11.526,0,0,1,12.215-2.087,11.53,11.53,0,0,1,6.168,6.168,11.377,11.377,0,0,1,.9,4.512Z" transform="translate(-182.19 -372.955)" fill="#fff"/>
          <path id="パス_256" data-name="パス 256" d="M246.813,385.337a11.128,11.128,0,0,1,.916-4.5,11.773,11.773,0,0,1,6.168-6.168,11.139,11.139,0,0,1,4.5-.916h16.377v7.73H258.395a3.819,3.819,0,0,0-3.852,3.851,3.926,3.926,0,0,0,.3,1.522,3.767,3.767,0,0,0,.821,1.238,3.816,3.816,0,0,0,2.734,1.118h6.384a11.373,11.373,0,0,1,4.511.9,11.524,11.524,0,0,1,6.168,6.168,11.69,11.69,0,0,1,0,9.009,11.65,11.65,0,0,1-2.478,3.677,11.788,11.788,0,0,1-3.69,2.491,11.223,11.223,0,0,1-4.511.916H247.622v-7.731h17.157a3.852,3.852,0,1,0,0-7.7h-6.384a11.129,11.129,0,0,1-4.5-.916,11.736,11.736,0,0,1-6.168-6.181A11.223,11.223,0,0,1,246.813,385.337Z" transform="translate(-203.342 -373.217)" fill="#fff"/>
        </g>
        <path id="パス_257" data-name="パス 257" d="M157.766,388.981V408.26a19.822,19.822,0,0,1-12.9,4.742,19.485,19.485,0,0,1-5.294-.713,19.872,19.872,0,0,1-4.749-2.018,20.9,20.9,0,0,1-4.043-3.128,19.512,19.512,0,0,1-3.121-4.036,20.217,20.217,0,0,1-2.011-4.783,19.889,19.889,0,0,1-.713-5.308,19.582,19.582,0,0,1,.713-5.281,20.328,20.328,0,0,1,2.011-4.749,19.552,19.552,0,0,1,3.121-4.043,20.184,20.184,0,0,1,8.792-5.119,19.931,19.931,0,0,1,18.2,4.029l-4.043,6.734a12.9,12.9,0,0,0-4.036-2.785,12.02,12.02,0,0,0-9.579-.04,12.622,12.622,0,0,0-3.888,2.624,12.374,12.374,0,0,0-2.644,3.881,11.736,11.736,0,0,0-.969,4.749,11.938,11.938,0,0,0,.969,4.8,12.523,12.523,0,0,0,6.532,6.545,11.792,11.792,0,0,0,4.756.969,11.379,11.379,0,0,0,2.832-.35,13.324,13.324,0,0,0,2.61-.969v-7.877h-7.151v-7.151Z" transform="translate(-124.932 -373.006)" fill="#fff"/>
      </g>
    </g>
    <g id="グループ_1162" data-name="グループ 1162" transform="translate(245.092 392.298)">
      <path id="パス_258" data-name="パス 258" d="M301.413,402.129a6.715,6.715,0,0,0-1.625-1.029l.656-.888a6.444,6.444,0,0,1,1.675.948Zm-1.443,4.005a29.573,29.573,0,0,0,1.473-3.258l.959.666c-.394,1.079-.888,2.26-1.352,3.249Zm1.906-6.649a6.6,6.6,0,0,0-1.644-1.07l.686-.878a7.274,7.274,0,0,1,1.685.989Zm6.589,3.915c-.02.4-.05.747-.081,1.059h.8v1.009h-.928a2.21,2.21,0,0,1-.3.918,1.018,1.018,0,0,1-.807.454,7.115,7.115,0,0,1-1.271.031,2.291,2.291,0,0,0-.293-.979c.435.03.828.04,1.03.04a.4.4,0,0,0,.373-.162,1.076,1.076,0,0,0,.132-.3h-3.037l-.081.494-1.15-.09c.131-.676.283-1.544.414-2.472h-.868v-1.08H303.4c.071-.554.131-1.109.182-1.624-.121.161-.242.3-.363.444a5.546,5.546,0,0,0-1.009-.686,6.917,6.917,0,0,0,1.6-2.986l1.181.242c-.091.3-.192.605-.3.9h4.389v1.07h-4.873a7.072,7.072,0,0,1-.394.666h4.793s0,.343-.009.484c-.021.545-.041,1.039-.071,1.493h.768v1.08Zm-4.1,0c-.051.363-.1.716-.141,1.059h.949c.04-.323.081-.686.12-1.059Zm.131-1.08h.907c.021-.322.051-.646.071-.958h-.868Zm2.775,2.14q.045-.439.091-1.059h-1.039c-.04.373-.081.737-.121,1.059Zm.151-2.14c.011-.292.03-.615.041-.958h-.959c-.02.312-.05.636-.08.958Z" transform="translate(-299.788 -397.468)" fill="#fff"/>
      <path id="パス_259" data-name="パス 259" d="M326.3,402.19a8.325,8.325,0,0,0,2.109,1.352,5.8,5.8,0,0,0-.879,1.049,8.515,8.515,0,0,1-1.23-.8v3.078h-1.251v-4.248A11.458,11.458,0,0,1,323.819,401a8.959,8.959,0,0,1-3.955,5.8,5.084,5.084,0,0,0-.959-.9,6.858,6.858,0,0,0,2.734-2.613,12.882,12.882,0,0,0-1.514-1.15,4.955,4.955,0,0,1-.515.6,7.241,7.241,0,0,0-1-.767,9.134,9.134,0,0,0,2.371-4.5l1.191.231c-.111.424-.233.827-.374,1.231h1.4l.213-.04.787.272q-.076.454-.152.878l.374-.141a6.784,6.784,0,0,0,.626.969v-3.38H326.3Zm-4.954-2.119a10.762,10.762,0,0,1-.605,1.17,12.319,12.319,0,0,1,1.443.979,11.487,11.487,0,0,0,.646-2.149Z" transform="translate(-305.95 -397.468)" fill="#fff"/>
      <path id="パス_260" data-name="パス 260" d="M341.6,397.812c-.009.162-.02.363-.03.575.081,1.392.586,5.741,4.349,7.507a3.969,3.969,0,0,0-.928,1.019,8,8,0,0,1-3.975-5.065,8.619,8.619,0,0,1-3.733,5.065,4.205,4.205,0,0,0-1.009-.959c4.026-2.231,3.885-6.811,3.955-8.143Z" transform="translate(-311.728 -397.581)" fill="#fff"/>
      <path id="パス_261" data-name="パス 261" d="M357.643,403.532c-.2-.323-.525-.777-.858-1.212v4.562h-1.21v-3.9a8.909,8.909,0,0,1-1.232,2.26,5.838,5.838,0,0,0-.615-1.2,9.2,9.2,0,0,0,1.7-3.35h-1.4v-1.14h1.554v-2.078h1.21v2.078h1.272v1.14h-1.272v.272c.4.333,1.333,1.3,1.555,1.554Zm5.62-2.845H362.3v4.722c0,.7-.151,1.009-.564,1.2a4.77,4.77,0,0,1-1.917.232,4.621,4.621,0,0,0-.4-1.211c.556.021,1.181.021,1.352.021s.252-.061.252-.243v-3.067a11.736,11.736,0,0,1-2.683,3.057,4.7,4.7,0,0,0-.868-.989,9.7,9.7,0,0,0,3.188-3.723h-2.32v-1.14h2.683v-2.058H362.3v2.058h.959Z" transform="translate(-317.443 -397.468)" fill="#fff"/>
      <path id="パス_262" data-name="パス 262" d="M309.643,419.867a17.352,17.352,0,0,1-3.557,4.078c.595.594,1.21,1.272,1.617,1.762l-1.22.97a27.356,27.356,0,0,0-1.992-2.253,22.049,22.049,0,0,0-2.295-2l1.106-.887c.417.314,1.105.877,1.762,1.45a11.572,11.572,0,0,0,2.648-3H302.2c-.417,0-.98.052-1.2.073v-1.46a10.006,10.006,0,0,0,1.2.094h5.788a3.378,3.378,0,0,0,.969-.115l1.043.855A3.665,3.665,0,0,0,309.643,419.867Z" transform="translate(-300.184 -404.376)" fill="#fff"/>
      <path id="パス_263" data-name="パス 263" d="M323.662,417.906v.542h1.252a3.1,3.1,0,0,0,.866-.1l.866.845c-.272.261-.584.616-.814.866a15.672,15.672,0,0,1-2.19,2.044c0,.834-.011,1.972-.011,2.628,0,.418.042,1.012.073,1.335h-1.5a12.021,12.021,0,0,0,.083-1.335v-1.783a18.242,18.242,0,0,1-3.2,1.283l-.8-1.23a12.947,12.947,0,0,0,4.255-1.742,6.892,6.892,0,0,0,1.752-1.554h-3.775c-.375,0-1.033.01-1.356.042v-1.366a9.815,9.815,0,0,0,1.335.073h1.8v-.542a6.645,6.645,0,0,0-.063-.96h1.492A8.463,8.463,0,0,0,323.662,417.906Zm.636,4.765.866-1a23.5,23.5,0,0,1,2.5,1.512l-.875,1.148A16.342,16.342,0,0,0,324.3,422.671Z" transform="translate(-305.841 -403.843)" fill="#fff"/>
      <path id="パス_264" data-name="パス 264" d="M339.772,421.113l-.761,1.168c-.595-.417-1.679-1.115-2.378-1.491l.751-1.147A28.016,28.016,0,0,1,339.772,421.113Zm.834,2.378a10.553,10.553,0,0,0,4.057-3.911l.8,1.419a12.587,12.587,0,0,1-4.14,3.754,13.124,13.124,0,0,1-3.482,1.282l-.783-1.366A11.207,11.207,0,0,0,340.606,423.49Zm.761-4.734L340.6,419.9c-.584-.407-1.668-1.106-2.357-1.491l.751-1.148C339.678,417.639,340.825,418.369,341.367,418.756Zm3.108.323-.907.385a9.394,9.394,0,0,0-.918-1.637l.876-.365A17.723,17.723,0,0,1,344.475,419.079Zm1.46-.564-.887.4a9.978,9.978,0,0,0-.98-1.585l.887-.365A13.507,13.507,0,0,1,345.936,418.515Z" transform="translate(-311.848 -403.849)" fill="#fff"/>
      <path id="パス_265" data-name="パス 265" d="M361.309,418.892a15.785,15.785,0,0,1-1.4,2.837,27.2,27.2,0,0,1,2.5,2.3l-1.074,1.189a21.041,21.041,0,0,0-2.315-2.305,13.022,13.022,0,0,1-3.879,3.223l-1.168-1.053a11.465,11.465,0,0,0,3.963-3.076,28.485,28.485,0,0,0-2.815-1.981l.887-1.064c.834.511,1.929,1.262,2.773,1.888a10.8,10.8,0,0,0,1.158-2.482,6.568,6.568,0,0,0,.25-.96l1.554.543C361.611,418.193,361.413,418.652,361.309,418.892Z" transform="translate(-317.525 -403.996)" fill="#fff"/>
      <path id="パス_266" data-name="パス 266" d="M376.076,423.409a9.824,9.824,0,0,0,3.8-4.056l.813,1.47a11.092,11.092,0,0,1-3.858,3.859,11.3,11.3,0,0,1-3.869,1.47l-.876-1.376A10.747,10.747,0,0,0,376.076,423.409Zm0-3.368-1.064,1.084a21.678,21.678,0,0,0-2.607-2.251l.98-1.043A21.01,21.01,0,0,1,376.076,420.041Z" transform="translate(-323.451 -404.133)" fill="#fff"/>
      <path id="パス_267" data-name="パス 267" d="M390.446,418.6a7.286,7.286,0,0,0-.1-1.252h1.627a11.34,11.34,0,0,0-.094,1.252v1.543a34.123,34.123,0,0,1,4.358,1.616l-.594,1.44a30.1,30.1,0,0,0-3.764-1.555V424.6c0,.3.052,1.033.094,1.46h-1.627a11.608,11.608,0,0,0,.1-1.46Z" transform="translate(-329.427 -403.975)" fill="#fff"/>
      <path id="パス_268" data-name="パス 268" d="M407.169,426.23l-1.116-1.053c2.013-.7,2.9-1.6,2.9-4.161v-.4h-2.472v1.418c0,.459.032.887.042,1.1h-1.46a8.488,8.488,0,0,0,.063-1.1v-1.418h-.887c-.521,0-.9.021-1.126.042v-1.418a6.8,6.8,0,0,0,1.126.094h.887V418.3c0-.3-.032-.625-.063-.938h1.481a6.313,6.313,0,0,0-.063.938v1.033h2.472v-1.1a6.824,6.824,0,0,0-.063-.971h1.492a6.537,6.537,0,0,0-.073.971v1.1h.772a6.194,6.194,0,0,0,1.147-.073v1.387c-.229-.022-.594-.032-1.147-.032h-.772v.344C410.309,423.549,409.683,425.124,407.169,426.23Z" transform="translate(-333.608 -403.95)" fill="#fff"/>
      <path id="パス_269" data-name="パス 269" d="M422.524,422.5h5.6c.49,0,.949-.041,1.22-.063v1.637c-.25-.011-.782-.052-1.22-.052h-5.6c-.595,0-1.293.021-1.678.052v-1.637C421.221,422.465,421.982,422.5,422.524,422.5Z" transform="translate(-339.412 -405.64)" fill="#fff"/>
      <path id="パス_270" data-name="パス 270" d="M440.238,418.36v1.97a26.238,26.238,0,0,0,3.608-1.157,6.744,6.744,0,0,0,1.137-.563l.563,1.324c-.407.167-.877.365-1.22.49a36.043,36.043,0,0,1-4.088,1.273v1.929c0,.448.208.563.678.657a9.761,9.761,0,0,0,1.21.063,17.623,17.623,0,0,0,3.629-.365V425.5a29.64,29.64,0,0,1-3.713.219,11.57,11.57,0,0,1-1.752-.115,1.5,1.5,0,0,1-1.429-1.564V418.36a8.708,8.708,0,0,0-.083-1.085h1.544A7.788,7.788,0,0,0,440.238,418.36Zm5.412-.1-.845.355a12.483,12.483,0,0,0-.813-1.45l.824-.334C445.077,417.213,445.452,417.869,445.651,418.255Zm1.241-.479-.824.355a11.106,11.106,0,0,0-.845-1.44l.824-.334A11.474,11.474,0,0,1,446.892,417.776Z" transform="translate(-345.281 -403.651)" fill="#fff"/>
      <path id="パス_271" data-name="パス 271" d="M461.616,419.438a15.342,15.342,0,0,1-1.637,2.868,29.26,29.26,0,0,1,2.91,2.983l-1.189,1.033a23.782,23.782,0,0,0-2.628-2.952,13.746,13.746,0,0,1-3.921,2.93l-1.075-1.126a11.7,11.7,0,0,0,4.276-2.993,8.1,8.1,0,0,0,1.554-2.554h-3.536c-.438,0-1.012.062-1.23.073v-1.481a11.816,11.816,0,0,0,1.23.073h3.682a3.75,3.75,0,0,0,1.074-.136l.855.636A4.935,4.935,0,0,0,461.616,419.438Z" transform="translate(-350.288 -404.239)" fill="#fff"/>
    </g>
  </g>
</svg>
