<svg xmlns="http://www.w3.org/2000/svg" width="90" height="70.642" viewBox="0 0 90 70.642">
  <g id="_i_icon_12533_icon_125330" transform="translate(0 -55.062)">
    <path id="Path_61" data-name="Path 61" d="M89.768,65.119A12.449,12.449,0,0,0,87.19,59.66a10.731,10.731,0,0,0-.848-.94,12.457,12.457,0,0,0-8.827-3.659H12.484a12.474,12.474,0,0,0-8.826,3.659,10.962,10.962,0,0,0-.848.94A12.3,12.3,0,0,0,.244,65.119,12.074,12.074,0,0,0,0,67.547v45.674a12.413,12.413,0,0,0,1.034,4.958,12.236,12.236,0,0,0,2.624,3.867c.279.279.557.535.86.79a12.473,12.473,0,0,0,7.966,2.869H77.516a12.394,12.394,0,0,0,7.967-2.88,10.78,10.78,0,0,0,.86-.779,12.493,12.493,0,0,0,2.636-3.867v-.011A12.353,12.353,0,0,0,90,113.221V67.547A12.83,12.83,0,0,0,89.768,65.119ZM8.175,63.237a6.03,6.03,0,0,1,4.309-1.789H77.516a6,6,0,0,1,4.856,2.428L48.286,93.583a5,5,0,0,1-6.573,0L7.642,63.864A4.607,4.607,0,0,1,8.175,63.237ZM6.387,113.221V70.473L31.053,91.992,6.4,113.487A1.823,1.823,0,0,1,6.387,113.221Zm71.129,6.1H12.484a6.013,6.013,0,0,1-3.019-.8L35.477,95.848l2.428,2.113a10.807,10.807,0,0,0,14.2,0l2.427-2.113,26,22.669A6.021,6.021,0,0,1,77.516,119.316Zm6.1-6.1a1.9,1.9,0,0,1-.012.266L58.948,92,83.613,70.485Z" transform="translate(0 0)" fill="#df1f27"/>
  </g>
</svg>
