<svg xmlns="http://www.w3.org/2000/svg" width="76.943" height="84.386" viewBox="0 0 76.943 84.386">
  <g id="_i_icon_15006_icon_150060" transform="translate(-22.581)">
    <path id="Path_62" data-name="Path 62" d="M36.291,76.613a8.625,8.625,0,0,1-8.632-8.632V25.625H41.016A7.182,7.182,0,0,0,48.2,18.435V5.079h27.15a8.614,8.614,0,0,1,8.619,8.632V34.229a24.729,24.729,0,0,1,4.63,3.635c.149.15.312.314.448.477V13.711A13.71,13.71,0,0,0,75.354,0H46.109l-1.5,1.484L24.065,22.029l-1.484,1.5V67.981a13.73,13.73,0,0,0,13.71,13.711H65.537s-4.993-4.311-6.371-5.079H36.291Z" fill="#df1f27"/>
    <path id="Path_63" data-name="Path 63" d="M126.671,210.141a24.394,24.394,0,0,1,5.023-3.867H109.733v4.848h16.011C126.045,210.795,126.344,210.468,126.671,210.141Z" transform="translate(-72.788 -172.277)" fill="#df1f27"/>
    <rect id="Rectangle_126" data-name="Rectangle 126" width="19.742" height="4.851" transform="translate(54.645 21.061)" fill="#df1f27"/>
    <path id="Path_64" data-name="Path 64" d="M109.733,288.883v4.848h9.912a23.7,23.7,0,0,1,1.061-4.848Z" transform="translate(-72.788 -241.27)" fill="#df1f27"/>
    <path id="Path_65" data-name="Path 65" d="M109.733,376.34h12.281a24.427,24.427,0,0,1-1.783-4.848h-10.5Z" transform="translate(-72.788 -310.264)" fill="#df1f27"/>
    <path id="Path_66" data-name="Path 66" d="M259.4,275.666s-6.038-5.281-7.483-6.723c-2.119-2.11-2.966-3.126-2.219-4.84a17.879,17.879,0,1,0-8.181,8.178c1.715-.747,2.732.1,4.841,2.221,1.443,1.444,6.723,7.482,6.723,7.482,2.738,2.738,4.844,1.054,6.111-.21S262.14,278.4,259.4,275.666ZM240.968,263.55a10.35,10.35,0,1,1,0-14.635A10.353,10.353,0,0,1,240.968,263.55Z" transform="translate(-161.351 -199.071)" fill="#df1f27"/>
  </g>
</svg>
