<svg xmlns="http://www.w3.org/2000/svg" width="97" height="77" viewBox="0 0 97 77">
  <g id="Group_86" data-name="Group 86" transform="translate(-883 -2186)">
    <g id="Subtraction_1" data-name="Subtraction 1" transform="translate(883 2186)" fill="#df1f27">
      <path d="M 95.00020599365234 35.99980163574219 L 2.000003099441528 35.99980163574219 L 2.000003099441528 9.000000953674316 C 2.000003099441528 5.140186309814453 5.140188694000244 2.000000715255737 9.000002861022949 2.000000715255737 L 88.00020599365234 2.000000715255737 C 91.86001586914062 2.000000715255737 95.00020599365234 5.140186309814453 95.00020599365234 9.000000953674316 L 95.00020599365234 35.99980163574219 Z" stroke="none"/>
      <path d="M 93.00020599365234 33.99980163574219 L 93.00020599365234 9.000000953674316 C 93.00020599365234 6.242984294891357 90.75721740722656 4.000000953674316 88.00020599365234 4.000000953674316 L 9.000002861022949 4.000000953674316 C 6.24298620223999 4.000000953674316 4.000002861022949 6.242984294891357 4.000002861022949 9.000000953674316 L 4.000002861022949 33.99980163574219 L 93.00020599365234 33.99980163574219 M 97.00020599365234 37.99980163574219 L 2.996826196977054e-06 37.99980163574219 L 2.996826196977054e-06 9.000000953674316 C 2.996826196977054e-06 4.037384033203125 4.037386417388916 8.178710686479462e-07 9.000002861022949 8.178710686479462e-07 L 88.00020599365234 8.178710686479462e-07 C 92.96282196044922 8.178710686479462e-07 97.00020599365234 4.037384033203125 97.00020599365234 9.000000953674316 L 97.00020599365234 37.99980163574219 Z" stroke="none" fill="#df1f27"/>
    </g>
    <g id="Subtraction_2" data-name="Subtraction 2" transform="translate(980 2263) rotate(180)" fill="#fff">
      <path d="M 95.00020599365234 41.00022125244141 L 2.000003099441528 41.00022125244141 L 2.000003099441528 9.000006675720215 C 2.000003099441528 5.140192031860352 5.140188694000244 2.000006437301636 9.000002861022949 2.000006437301636 L 88.00020599365234 2.000006437301636 C 91.86001586914062 2.000006437301636 95.00020599365234 5.140192031860352 95.00020599365234 9.000006675720215 L 95.00020599365234 41.00022125244141 Z" stroke="none"/>
      <path d="M 93.00020599365234 39.00020599365234 L 93.00020599365234 9.000006675720215 C 93.00020599365234 6.242990016937256 90.75721740722656 4.000006675720215 88.00020599365234 4.000006675720215 L 9.000002861022949 4.000006675720215 C 6.24298620223999 4.000006675720215 4.000002861022949 6.242990016937256 4.000002861022949 9.000006675720215 L 4.000002861022949 39.00020599365234 L 93.00020599365234 39.00020599365234 M 97.00020599365234 43.00120544433594 L 97.00020599365234 43.00020599365234 L 2.996826196977054e-06 43.00020599365234 L 2.996826196977054e-06 9.000006675720215 C 2.996826196977054e-06 4.037389755249023 4.037386417388916 6.536865384987323e-06 9.000002861022949 6.536865384987323e-06 L 88.00020599365234 6.536865384987323e-06 C 92.96282196044922 6.536865384987323e-06 97.00020599365234 4.037389755249023 97.00020599365234 9.000006675720215 L 97.00020599365234 43.00120544433594 Z" stroke="none" fill="#df1f27"/>
    </g>
  </g>
</svg>
