<svg xmlns="http://www.w3.org/2000/svg" width="76" height="83" viewBox="0 0 76 83">
  <g id="_i_icon_00165_icon_001650" transform="translate(-23.676 -0.422)">
    <rect id="Rectangle_119" data-name="Rectangle 119" width="44" height="6" transform="translate(39.676 36.422)" fill="#df1f27"/>
    <rect id="Rectangle_120" data-name="Rectangle 120" width="44" height="6" transform="translate(39.676 49.422)" fill="#df1f27"/>
    <rect id="Rectangle_121" data-name="Rectangle 121" width="32" height="5" transform="translate(39.676 62.422)" fill="#df1f27"/>
    <path id="Path_58" data-name="Path 58" d="M91.676,55.5h-7v6a3.751,3.751,0,0,1-4,4h-9c-2.442,0-5-1.589-5-4v-6h-10v6c0,2.445-2.531,4-5,4h-9a3.721,3.721,0,0,1-4-4v-6h-7c-4.384,0-8,2.656-8,7v59a8.07,8.07,0,0,0,8,8h60a8.066,8.066,0,0,0,8-8v-59C99.676,58.153,96.066,55.5,91.676,55.5Zm2,66c0,1.395-.605,2-2,2h-60c-1.395,0-2-.605-2-2v-46h64Z" transform="translate(0 -46.075)" fill="#df1f27"/>
    <path id="Path_59" data-name="Path 59" d="M134.311,16.422h9c.736,0,1-.269,1-1v-12a2.785,2.785,0,0,0-3-3h-5a2.785,2.785,0,0,0-3,3v12C133.311,16.154,133.574,16.422,134.311,16.422Z" transform="translate(-91.635)" fill="#df1f27"/>
    <path id="Path_60" data-name="Path 60" d="M310.205,16.422h9c.708,0,1-.3,1-1v-12a2.813,2.813,0,0,0-3-3h-5a2.813,2.813,0,0,0-3,3v12C309.206,16.125,309.5,16.422,310.205,16.422Z" transform="translate(-238.529)" fill="#df1f27"/>
  </g>
</svg>
