<?xml version="1.0" encoding="UTF-8"?>
<svg id="_レイヤー_1" data-name="レイヤー_1" height="36" width="202" xmlns="http://www.w3.org/2000/svg" xmlns:xlink="http://www.w3.org/1999/xlink" version="1.1" viewBox="0 0 202 36">
  <!-- Generator: Adobe Illustrator 29.7.1, SVG Export Plug-In . SVG Version: 2.1.1 Build 8)  -->
  <defs>
    <linearGradient id="_名称未設定グラデーション_9" data-name="名称未設定グラデーション 9" x1="99.1" y1="36.4" x2="99.1" y2="-1.1" gradientUnits="userSpaceOnUse">
      <stop offset="0" stop-color="#14acdd"/>
      <stop offset="1" stop-color="#0065a9"/>
    </linearGradient>
    <linearGradient id="_名称未設定グラデーション_91" data-name="名称未設定グラデーション 9" x1="102.4" y1="36.4" x2="102.4" y2="-1.1" xlink:href="#_名称未設定グラデーション_9"/>
    <linearGradient id="_名称未設定グラデーション_13" data-name="名称未設定グラデーション 13" x1="93.5" y1="8.1" x2="93.5" y2="18.6" gradientUnits="userSpaceOnUse">
      <stop offset="0" stop-color="#e89200"/>
      <stop offset="1" stop-color="#d93a16"/>
    </linearGradient>
    <linearGradient id="_名称未設定グラデーション_131" data-name="名称未設定グラデーション 13" x1="105" y1="8.1" x2="105" y2="18.6" xlink:href="#_名称未設定グラデーション_13"/>
    <linearGradient id="_名称未設定グラデーション_132" data-name="名称未設定グラデーション 13" x1="120.9" y1="9.3" x2="120.9" y2="34.9" xlink:href="#_名称未設定グラデーション_13"/>
    <linearGradient id="_名称未設定グラデーション_92" data-name="名称未設定グラデーション 9" x1="134.6" y1="36.4" x2="134.6" y2="-1.1" xlink:href="#_名称未設定グラデーション_9"/>
    <linearGradient id="_名称未設定グラデーション_133" data-name="名称未設定グラデーション 13" x1="163.3" y1="9.3" x2="163.3" y2="34.9" xlink:href="#_名称未設定グラデーション_13"/>
    <linearGradient id="_名称未設定グラデーション_93" data-name="名称未設定グラデーション 9" x1="151" y1="36.4" x2="151" y2="-1.1" xlink:href="#_名称未設定グラデーション_9"/>
    <linearGradient id="_名称未設定グラデーション_134" data-name="名称未設定グラデーション 13" x1="198.1" y1="9.3" x2="198.1" y2="34.9" xlink:href="#_名称未設定グラデーション_13"/>
    <linearGradient id="_名称未設定グラデーション_94" data-name="名称未設定グラデーション 9" x1="186.1" y1="36.4" x2="186.1" y2="-1.1" xlink:href="#_名称未設定グラデーション_9"/>
    <linearGradient id="_名称未設定グラデーション_95" data-name="名称未設定グラデーション 9" x1="32.5" y1="36.4" x2="32.5" y2="-1.1" xlink:href="#_名称未設定グラデーション_9"/>
    <linearGradient id="_名称未設定グラデーション_135" data-name="名称未設定グラデーション 13" x1="77.2" y1="9.3" x2="77.2" y2="34.9" xlink:href="#_名称未設定グラデーション_13"/>
    <linearGradient id="_名称未設定グラデーション_96" data-name="名称未設定グラデーション 9" x1="65.2" y1="36.4" x2="65.2" y2="-1.1" xlink:href="#_名称未設定グラデーション_9"/>
    <linearGradient id="_名称未設定グラデーション_136" data-name="名称未設定グラデーション 13" x1="14.4" y1="9.3" x2="14.4" y2="34.9" xlink:href="#_名称未設定グラデーション_13"/>
    <linearGradient id="_名称未設定グラデーション_97" data-name="名称未設定グラデーション 9" x1="3.9" y1="36.4" x2="3.9" y2="-1.1" xlink:href="#_名称未設定グラデーション_9"/>
    <linearGradient id="_名称未設定グラデーション_137" data-name="名称未設定グラデーション 13" x1="52.1" y1="9.3" x2="52.1" y2="34.9" xlink:href="#_名称未設定グラデーション_13"/>
    <linearGradient id="_名称未設定グラデーション_98" data-name="名称未設定グラデーション 9" x1="52.2" y1="36.4" x2="52.2" y2="-1.1" xlink:href="#_名称未設定グラデーション_9"/>
  </defs>
  <rect x="96.2" y="1" width="5.8" height="7.2" fill="url(#_名称未設定グラデーション_9)"/>
  <path d="M102,26.6v-12.6h-5.8v12.6c0,4.8,3.9,8.8,8.8,8.8h3.6v-5.8h-3.6c-1.6,0-3-1.3-3-3Z" fill="url(#_名称未設定グラデーション_91)"/>
  <rect x="90.7" y="8.2" width="5.5" height="5.8" fill="url(#_名称未設定グラデーション_13)"/>
  <rect x="102" y="8.2" width="6" height="5.8" fill="url(#_名称未設定グラデーション_131)"/>
  <rect x="96.2" y="8.2" width="5.8" height="5.8" fill="#005979"/>
  <path d="M119.9,21.6c0-4.4,3.5-7.9,7.9-7.9v-5.8c-7.6,0-13.7,6.2-13.7,13.7s6.2,13.7,13.7,13.7v-5.8c-4.4,0-7.9-3.5-7.9-7.9Z" fill="url(#_名称未設定グラデーション_132)"/>
  <path d="M127.8,7.9v5.8c4.4,0,7.9,3.5,7.9,7.9s-3.5,7.9-7.9,7.9v5.8c7.6,0,13.7-6.2,13.7-13.7s-6.2-13.7-13.7-13.7Z" fill="url(#_名称未設定グラデーション_92)"/>
  <polygon points="153.9 28.7 158.3 24.2 165.8 35.6 172.6 35.6 162.2 20.2 172.6 9.4 165.4 9.4 153.9 21.2 153.9 28.7" fill="url(#_名称未設定グラデーション_133)"/>
  <rect x="148.1" y="1" width="5.8" height="34.6" fill="url(#_名称未設定グラデーション_93)"/>
  <path d="M195.2,34.3v1.4h5.8v-11.6c0,4.4-2.3,8.2-5.8,10.3Z" fill="url(#_名称未設定グラデーション_134)"/>
  <path d="M189,30.2c-3.4,0-6.1-2.8-6.1-6.1v-14.6h-5.8v14.6c0,6.6,5.4,12,12,12s4.3-.6,6.1-1.7v-10.3c0,3.4-2.8,6.1-6.1,6.1Z" fill="url(#_名称未設定グラデーション_94)"/>
  <path d="M195.2,9.4v24.9c3.5-2.1,5.8-5.9,5.8-10.3v-14.6h-5.8Z" fill="#005979"/>
  <path d="M31.1,9.1c-3.6,0-6.9,1.6-9,4.2,1.8,2.1,2.9,4.8,2.9,7.8,0-3.4,2.8-6.1,6.1-6.1s6.1,2.8,6.1,6.1v14.6h5.8v-14.6c0-6.6-5.4-12-12-12Z" fill="url(#_名称未設定グラデーション_95)"/>
  <path d="M74.2,9.1c-2.2,0-4.3.6-6.1,1.7v10.3c0-3.4,2.8-6.1,6.1-6.1s6.1,2.8,6.1,6.1v14.6h5.8v-14.6c0-6.6-5.4-12-12-12Z" fill="url(#_名称未設定グラデーション_135)"/>
  <path d="M68.1,10.8v-1.4h-5.8v11.6c0-4.4,2.3-8.2,5.8-10.3Z" fill="url(#_名称未設定グラデーション_96)"/>
  <path d="M62.3,21v14.6h5.8V10.8c-3.5,2.1-5.8,5.9-5.8,10.3Z" fill="#005979"/>
  <path d="M13,9.1c-2.2,0-4.3.6-6.1,1.7v10.3c0-3.4,2.8-6.1,6.1-6.1s6.1,2.8,6.1,6.1c0-3,1.1-5.7,2.9-7.8-2.2-2.5-5.4-4.2-9-4.2Z" fill="url(#_名称未設定グラデーション_136)"/>
  <path d="M19.1,21v14.6h5.8v-14.6c0-3-1.1-5.7-2.9-7.8-1.8,2.1-2.9,4.8-2.9,7.8Z" fill="#005979"/>
  <path d="M6.8,10.8v-1.4H1v11.6c0-4.4,2.3-8.2,5.8-10.3Z" fill="url(#_名称未設定グラデーション_97)"/>
  <path d="M1,21v14.6h5.8V10.8c-3.5,2.1-5.8,5.9-5.8,10.3Z" fill="#005979"/>
  <rect x="49.2" y="9.4" width="5.8" height="26.2" fill="url(#_名称未設定グラデーション_137)"/>
  <circle cx="52.2" cy="3.4" r="3.4" fill="url(#_名称未設定グラデーション_98)"/>
</svg>