<?xml version="1.0" encoding="UTF-8"?>
<svg id="_レイヤー_1" data-name="レイヤー_1" width="173" height="31" xmlns="http://www.w3.org/2000/svg" xmlns:xlink="http://www.w3.org/1999/xlink" version="1.1" viewBox="0 0 173 31">
  <!-- Generator: Adobe Illustrator 29.7.1, SVG Export Plug-In . SVG Version: 2.1.1 Build 8)  -->
  <defs>
    <linearGradient id="_名称未設定グラデーション_9" data-name="名称未設定グラデーション 9" x1="84.9" y1="31.3" x2="84.9" y2="-.8" gradientUnits="userSpaceOnUse">
      <stop offset="0" stop-color="#14acdd"/>
      <stop offset="1" stop-color="#0065a9"/>
    </linearGradient>
    <linearGradient id="_名称未設定グラデーション_91" data-name="名称未設定グラデーション 9" x1="87.7" y1="31.3" x2="87.7" y2="-.8" xlink:href="#_名称未設定グラデーション_9"/>
    <linearGradient id="_名称未設定グラデーション_13" data-name="名称未設定グラデーション 13" x1="80" y1="7" x2="80" y2="16" gradientUnits="userSpaceOnUse">
      <stop offset="0" stop-color="#e89200"/>
      <stop offset="1" stop-color="#d93a16"/>
    </linearGradient>
    <linearGradient id="_名称未設定グラデーション_131" data-name="名称未設定グラデーション 13" x1="89.9" y1="7" x2="89.9" y2="16" xlink:href="#_名称未設定グラデーション_13"/>
    <linearGradient id="_名称未設定グラデーション_132" data-name="名称未設定グラデーション 13" x1="103.6" y1="8" x2="103.6" y2="30" xlink:href="#_名称未設定グラデーション_13"/>
    <linearGradient id="_名称未設定グラデーション_92" data-name="名称未設定グラデーション 9" x1="115.3" y1="31.3" x2="115.3" y2="-.8" xlink:href="#_名称未設定グラデーション_9"/>
    <linearGradient id="_名称未設定グラデーション_133" data-name="名称未設定グラデーション 13" x1="139.8" y1="8" x2="139.8" y2="30" xlink:href="#_名称未設定グラデーション_13"/>
    <linearGradient id="_名称未設定グラデーション_93" data-name="名称未設定グラデーション 9" x1="129.3" y1="31.3" x2="129.3" y2="-.8" xlink:href="#_名称未設定グラデーション_9"/>
    <linearGradient id="_名称未設定グラデーション_134" data-name="名称未設定グラデーション 13" x1="169.6" y1="8" x2="169.6" y2="30" xlink:href="#_名称未設定グラデーション_13"/>
    <linearGradient id="_名称未設定グラデーション_94" data-name="名称未設定グラデーション 9" x1="159.4" y1="31.3" x2="159.4" y2="-.8" xlink:href="#_名称未設定グラデーション_9"/>
    <linearGradient id="_名称未設定グラデーション_95" data-name="名称未設定グラデーション 9" x1="27.9" x2="27.9" y2="-.8" xlink:href="#_名称未設定グラデーション_9"/>
    <linearGradient id="_名称未設定グラデーション_135" data-name="名称未設定グラデーション 13" x1="66.1" y1="8" x2="66.1" y2="30" xlink:href="#_名称未設定グラデーション_13"/>
    <linearGradient id="_名称未設定グラデーション_96" data-name="名称未設定グラデーション 9" x1="55.9" y1="31.3" x2="55.9" y2="-.8" xlink:href="#_名称未設定グラデーション_9"/>
    <linearGradient id="_名称未設定グラデーション_136" data-name="名称未設定グラデーション 13" x1="12.4" y1="8" x2="12.4" y2="30" xlink:href="#_名称未設定グラデーション_13"/>
    <linearGradient id="_名称未設定グラデーション_97" data-name="名称未設定グラデーション 9" x1="3.4" y1="31.3" x2="3.4" y2="-.8" xlink:href="#_名称未設定グラデーション_9"/>
    <linearGradient id="_名称未設定グラデーション_137" data-name="名称未設定グラデーション 13" x1="44.7" y1="8" x2="44.7" y2="30" xlink:href="#_名称未設定グラデーション_13"/>
    <linearGradient id="_名称未設定グラデーション_98" data-name="名称未設定グラデーション 9" x1="44.7" y1="31.3" x2="44.7" y2="-.8" xlink:href="#_名称未設定グラデーション_9"/>
  </defs>
  <rect x="82.4" y=".9" width="5" height="6.2" fill="url(#_名称未設定グラデーション_9)"/>
  <path d="M87.4,22.8v-10.8h-5v10.8c0,4.1,3.4,7.5,7.5,7.5h3v-5h-3c-1.4,0-2.5-1.1-2.5-2.5Z" fill="url(#_名称未設定グラデーション_91)"/>
  <rect x="77.7" y="7.1" width="4.7" height="5" fill="url(#_名称未設定グラデーション_13)"/>
  <rect x="87.4" y="7.1" width="5.1" height="5" fill="url(#_名称未設定グラデーション_131)"/>
  <rect x="82.4" y="7.1" width="5" height="5" fill="#005979"/>
  <path d="M102.7,18.6c0-3.7,3-6.8,6.8-6.8v-5c-6.5,0-11.7,5.3-11.7,11.7s5.3,11.7,11.7,11.7v-5c-3.7,0-6.8-3-6.8-6.8Z" fill="url(#_名称未設定グラデーション_132)"/>
  <path d="M109.4,6.9v5c3.7,0,6.8,3,6.8,6.8s-3,6.8-6.8,6.8v5c6.5,0,11.7-5.3,11.7-11.7s-5.3-11.7-11.7-11.7Z" fill="url(#_名称未設定グラデーション_92)"/>
  <polygon points="131.8 24.6 135.5 20.8 141.9 30.6 147.8 30.6 138.9 17.4 147.8 8.2 141.6 8.2 131.8 18.3 131.8 24.6" fill="url(#_名称未設定グラデーション_133)"/>
  <rect x="126.8" y=".9" width="5" height="29.6" fill="url(#_名称未設定グラデーション_93)"/>
  <path d="M167.1,29.4v1.2h5v-9.9c0,3.7-2,7-5,8.8Z" fill="url(#_名称未設定グラデーション_134)"/>
  <path d="M161.9,25.9c-2.9,0-5.3-2.4-5.3-5.3v-12.5h-5v12.5c0,5.6,4.6,10.2,10.2,10.2s3.7-.5,5.3-1.5v-8.8c0,2.9-2.4,5.3-5.3,5.3Z" fill="url(#_名称未設定グラデーション_94)"/>
  <path d="M167.1,8.2v21.3c3-1.8,5-5.1,5-8.8v-12.5h-5Z" fill="#005979"/>
  <path d="M26.6,7.9c-3.1,0-5.9,1.4-7.7,3.6,1.6,1.8,2.5,4.1,2.5,6.7,0-2.9,2.4-5.3,5.3-5.3s5.3,2.4,5.3,5.3v12.5h5v-12.5c0-5.6-4.6-10.2-10.2-10.2Z" fill="url(#_名称未設定グラデーション_95)"/>
  <path d="M63.6,7.9c-1.9,0-3.7.5-5.3,1.5v8.8c0-2.9,2.4-5.3,5.3-5.3s5.3,2.4,5.3,5.3v12.5h5v-12.5c0-5.6-4.6-10.2-10.2-10.2Z" fill="url(#_名称未設定グラデーション_135)"/>
  <path d="M58.3,9.3v-1.2h-5v9.9c0-3.7,2-7,5-8.8Z" fill="url(#_名称未設定グラデーション_96)"/>
  <path d="M53.4,18.1v12.5h5V9.3c-3,1.8-5,5.1-5,8.8Z" fill="#005979"/>
  <path d="M11.1,7.9c-1.9,0-3.7.5-5.3,1.5v8.8c0-2.9,2.4-5.3,5.3-5.3s5.3,2.4,5.3,5.3c0-2.6.9-4.9,2.5-6.7-1.9-2.2-4.7-3.6-7.7-3.6Z" fill="url(#_名称未設定グラデーション_136)"/>
  <path d="M16.4,18.1v12.5h5v-12.5c0-2.6-.9-4.9-2.5-6.7-1.6,1.8-2.5,4.1-2.5,6.7Z" fill="#005979"/>
  <path d="M5.9,9.3v-1.2H.9v9.9c0-3.7,2-7,5-8.8Z" fill="url(#_名称未設定グラデーション_97)"/>
  <path d="M.9,18.1v12.5h5V9.3C2.9,11.1.9,14.4.9,18.1Z" fill="#005979"/>
  <rect x="42.2" y="8.2" width="5" height="22.5" fill="url(#_名称未設定グラデーション_137)"/>
  <circle cx="44.7" cy="3" r="2.9" fill="url(#_名称未設定グラデーション_98)"/>
</svg>